<svg id="Calque_1" data-name="Calque 1" xmlns="http://www.w3.org/2000/svg" viewBox="0 0 33.93 33.93"><defs><style>.cls-1{fill:#e85522;fill-rule:evenodd;}</style></defs><title>picto-github</title><path class="cls-1" d="M16.93,1.05A16.29,16.29,0,0,0,11.78,32.8c.82.15,1.11-.36,1.11-.79s0-1.41,0-2.77c-4.53,1-5.48-2.18-5.48-2.18a4.41,4.41,0,0,0-1.81-2.39c-1.48-1,.11-1,.11-1a3.43,3.43,0,0,1,2.49,1.68,3.48,3.48,0,0,0,4.74,1.36,3.46,3.46,0,0,1,1-2.18c-3.62-.41-7.42-1.81-7.42-8a6.26,6.26,0,0,1,1.68-4.37,5.86,5.86,0,0,1,.15-4.31s1.37-.44,4.48,1.67a15.41,15.41,0,0,1,8.16,0c3.11-2.11,4.48-1.67,4.48-1.67a5.88,5.88,0,0,1,.16,4.31,6.3,6.3,0,0,1,1.67,4.37c0,6.26-3.81,7.63-7.44,8a3.85,3.85,0,0,1,1.11,3c0,2.18,0,3.94,0,4.47s.29.94,1.12.78A16.29,16.29,0,0,0,16.93,1.05Z"/></svg>