<svg id="Calque_1" data-name="Calque 1" xmlns="http://www.w3.org/2000/svg" viewBox="0 0 33.93 33.93"><defs><style>.cls-1{fill:#e85522;}</style></defs><title>picto-phone</title><path class="cls-1" d="M32.51,24.84l-8.34-3.09a2.18,2.18,0,0,0-2.8,1.31L20.66,25s-1.08,4-8.41-3.31-3.31-8.41-3.31-8.41l1.94-.7a2.19,2.19,0,0,0,1.3-2.81L9.09,1.42A2.17,2.17,0,0,0,6.44.09L2.16,1.32a2.8,2.8,0,0,0-2,2.38,26.64,26.64,0,0,0,8.05,22,26.69,26.69,0,0,0,22,8.06,2.8,2.8,0,0,0,2.38-2l1.24-4.29A2.19,2.19,0,0,0,32.51,24.84Z"/></svg>