<svg id="Calque_1" data-name="Calque 1" xmlns="http://www.w3.org/2000/svg" viewBox="0 0 33.93 33.93"><defs><style>.cls-1{fill:#e85522;}</style></defs><title>picto-twitter</title><g id="Layer_2" data-name="Layer 2"><g id="Layer_1-2" data-name="Layer 1-2"><path id="_Compound_Path_" data-name=" Compound Path " class="cls-1" d="M34.43,4.33A12.78,12.78,0,0,1,30.3,5.64,8.31,8.31,0,0,0,33.47,1a13.34,13.34,0,0,1-4.53,2A6.69,6.69,0,0,0,23.66.41c-4,0-7.18,3.74-7.18,8.35a10.21,10.21,0,0,0,.18,1.91A19.64,19.64,0,0,1,1.86,1.92,9.61,9.61,0,0,0,.94,6.14a8.73,8.73,0,0,0,3.15,7,6.44,6.44,0,0,1-3.26-1v.11A8.16,8.16,0,0,0,6.6,20.35a6.07,6.07,0,0,1-1.89.3,6.3,6.3,0,0,1-1.36-.15,7.4,7.4,0,0,0,6.72,5.79,13.23,13.23,0,0,1-8.92,3.6,14.22,14.22,0,0,1-1.72-.13,18.34,18.34,0,0,0,11,3.84c13.21,0,20.44-12.75,20.44-23.79V8.73A16,16,0,0,0,34.43,4.33Z"/></g></g></svg>