<svg id="Calque_1" data-name="Calque 1" xmlns="http://www.w3.org/2000/svg" viewBox="0 0 337.5 881.27"><defs><style>.cls-1,.cls-2,.cls-4,.cls-5,.cls-7{fill:none;stroke-miterlimit:10;}.cls-1{stroke:#488aa4;}.cls-2{stroke:#ec6e6b;}.cls-3{fill:#488aa4;}.cls-4{stroke:#325982;opacity:0.35;}.cls-5{stroke:#4789a4;opacity:0.2;}.cls-6{fill:#4789a4;}.cls-7{stroke:#e85522;}.cls-8{fill:#e85522;}</style></defs><title>timeline-mobile-en</title><circle class="cls-1" cx="209.12" cy="26.88" r="26.38"/><circle class="cls-2" cx="209.12" cy="26.88" r="12.37"/><path class="cls-3" d="M43.23,105.47H48v1H44.38v3h3.37v.95H44.38v4H43.23Z"/><path class="cls-3" d="M49.66,105.59a12.91,12.91,0,0,1,2.21-.19,3.71,3.71,0,0,1,2.59.74,2.25,2.25,0,0,1,.69,1.69,2.34,2.34,0,0,1-1.68,2.27v0a2.27,2.27,0,0,1,1.31,1.8,13.64,13.64,0,0,0,.69,2.45h-1.2a11.78,11.78,0,0,1-.58-2.13c-.27-1.22-.75-1.7-1.79-1.73H50.81v3.86H49.66Zm1.15,4.06H52c1.23,0,2-.67,2-1.69s-.84-1.66-2-1.66a5.1,5.1,0,0,0-1.14.1Z"/><path class="cls-3" d="M58.28,111.58l-.92,2.8H56.17l3-8.91h1.38l3,8.91H62.39l-1-2.8Zm2.93-.9-.89-2.56c-.19-.59-.32-1.12-.45-1.63h0c-.12.52-.26,1.07-.44,1.61l-.88,2.58Z"/><path class="cls-3" d="M64.92,114.38v-8.91h1.26L69,110a26.16,26.16,0,0,1,1.59,2.9h0c-.11-1.19-.13-2.28-.13-3.66v-3.73h1.08v8.91H70.45l-2.84-4.52a27.83,27.83,0,0,1-1.65-3l0,0c.07,1.12.08,2.2.08,3.67v3.81Z"/><path class="cls-3" d="M79.84,114.09a5.72,5.72,0,0,1-2.36.43A4.16,4.16,0,0,1,73.09,110a4.43,4.43,0,0,1,4.65-4.68,4.83,4.83,0,0,1,2.12.4l-.29.93a4.31,4.31,0,0,0-1.79-.37c-2.09,0-3.47,1.34-3.47,3.68a3.22,3.22,0,0,0,3.41,3.57,4.75,4.75,0,0,0,1.89-.36Z"/><path class="cls-3" d="M85.88,110.2H82.43v3.22h3.86v1h-5v-8.91h4.82v1H82.43v2.82h3.45Z"/><path class="cls-3" d="M87.77,105.59a11,11,0,0,1,2.11-.19,3.65,3.65,0,0,1,2.44.65,1.9,1.9,0,0,1,.75,1.58,2.12,2.12,0,0,1-1.51,2v0a2.28,2.28,0,0,1,1.84,2.24,2.34,2.34,0,0,1-.76,1.77,4.4,4.4,0,0,1-3.08.84,16.58,16.58,0,0,1-1.79-.1Zm1.15,3.65H90c1.2,0,1.92-.64,1.92-1.5,0-1-.79-1.45-2-1.45a5.07,5.07,0,0,0-1,.08Zm0,4.26a5.14,5.14,0,0,0,1,.06c1.2,0,2.3-.44,2.3-1.73s-1-1.72-2.31-1.72h-1Z"/><path class="cls-3" d="M94.93,105.47h1.16v7.94H99.9v1h-5Z"/><path class="cls-3" d="M105.78,110.2h-3.45v3.22h3.86v1h-5v-8.91H106v1h-3.65v2.82h3.45Z"/><path class="cls-3" d="M108.82,105.47v5.28c0,2,.88,2.83,2.08,2.83s2.17-.87,2.17-2.83v-5.28h1.16v5.2c0,2.74-1.44,3.85-3.37,3.85s-3.2-1-3.2-3.8v-5.25Z"/><path class="cls-3" d="M42.9,121.45a10.84,10.84,0,0,1,2.1-.19,3.66,3.66,0,0,1,2.44.64,1.9,1.9,0,0,1,.75,1.58,2.11,2.11,0,0,1-1.51,2v0a2.27,2.27,0,0,1,1.84,2.23,2.32,2.32,0,0,1-.76,1.77,4.39,4.39,0,0,1-3.08.84,16.35,16.35,0,0,1-1.78-.1Zm1.15,3.65H45.1c1.21,0,1.92-.64,1.92-1.51,0-1-.78-1.45-2-1.45a5,5,0,0,0-1,.08Zm0,4.26a6.2,6.2,0,0,0,1,0c1.19,0,2.29-.43,2.29-1.73S46.26,126,45,126h-1Z"/><path class="cls-3" d="M57.67,125.69c0,3.06-1.86,4.69-4.13,4.69s-4-1.83-4-4.52,1.75-4.68,4.12-4.68S57.67,123,57.67,125.69Zm-6.91.14c0,1.91,1,3.61,2.84,3.61s2.86-1.68,2.86-3.7c0-1.77-.93-3.62-2.84-3.62S50.76,123.88,50.76,125.83Z"/><path class="cls-3" d="M60.31,121.33v5.27c0,2,.88,2.83,2.08,2.83s2.17-.87,2.17-2.83v-5.27h1.16v5.19c0,2.74-1.44,3.86-3.37,3.86s-3.19-1-3.19-3.81v-5.24Z"/><path class="cls-3" d="M67.71,121.45a11.9,11.9,0,0,1,2.21-.19,3.67,3.67,0,0,1,2.58.73,2.23,2.23,0,0,1,.7,1.69A2.35,2.35,0,0,1,71.52,126v0a2.27,2.27,0,0,1,1.31,1.81,15,15,0,0,0,.68,2.44H72.32a12.09,12.09,0,0,1-.59-2.13c-.26-1.22-.74-1.69-1.78-1.73H68.86v3.86H67.71Zm1.15,4H70c1.23,0,2-.67,2-1.69s-.83-1.66-2-1.66a5,5,0,0,0-1.14.1Z"/><path class="cls-3" d="M81.64,129.83a7.92,7.92,0,0,1-2.73.49,4.17,4.17,0,0,1-4.57-4.48,4.45,4.45,0,0,1,4.81-4.6,5.68,5.68,0,0,1,2.23.4l-.29.94a4.63,4.63,0,0,0-2-.38,3.33,3.33,0,0,0-3.57,3.58A3.26,3.26,0,0,0,79,129.37a3.72,3.72,0,0,0,1.53-.24v-2.65h-1.8v-.92h2.93Z"/><path class="cls-3" d="M91,125.69c0,3.06-1.87,4.69-4.14,4.69s-4-1.83-4-4.52,1.75-4.68,4.12-4.68S91,123,91,125.69Zm-6.92.14c0,1.91,1,3.61,2.85,3.61s2.85-1.68,2.85-3.7c0-1.77-.93-3.62-2.84-3.62S84.09,123.88,84.09,125.83Z"/><path class="cls-3" d="M99.28,129.83a8,8,0,0,1-2.74.49A4.18,4.18,0,0,1,92,125.84a4.46,4.46,0,0,1,4.82-4.6,5.72,5.72,0,0,1,2.23.4l-.29.94a4.66,4.66,0,0,0-2-.38,3.33,3.33,0,0,0-3.58,3.58,3.27,3.27,0,0,0,3.44,3.59,3.79,3.79,0,0,0,1.53-.24v-2.65h-1.8v-.92h2.93Z"/><path class="cls-3" d="M101,130.23v-8.9h1.26l2.85,4.5a25.29,25.29,0,0,1,1.59,2.9l0,0c-.1-1.19-.12-2.27-.12-3.65v-3.73h1.08v8.9h-1.17l-2.83-4.51a32.24,32.24,0,0,1-1.66-3h0c.07,1.13.09,2.2.09,3.67v3.81Z"/><path class="cls-3" d="M114.33,126.06h-3.45v3.21h3.86v1h-5v-8.9h4.81v1h-3.65v2.82h3.45Z"/><path class="cls-3" d="M63,147.93a1.84,1.84,0,0,0,1.27-.49c.32-.36.44-.87.44-2.4v-5.35h1.16v5.8a3.54,3.54,0,0,1-.76,2.63,3,3,0,0,1-2,.73Zm3-10a.7.7,0,0,1-.74.72.69.69,0,0,1-.7-.72.72.72,0,0,1,.73-.73A.7.7,0,0,1,66,137.89Z"/><path class="cls-3" d="M73.55,142.83a3.13,3.13,0,0,1-3.18,3.4,3,3,0,0,1-3.07-3.29,3.12,3.12,0,0,1,3.17-3.39A3,3,0,0,1,73.55,142.83Zm-5.07.07c0,1.4.81,2.46,1.94,2.46s2-1,2-2.49c0-1.08-.55-2.45-1.93-2.45S68.48,141.69,68.48,142.9Z"/><path class="cls-3" d="M80.36,144.34c0,.67,0,1.24.06,1.74h-1l-.06-1h0a2.37,2.37,0,0,1-2.11,1.19c-1,0-2.2-.56-2.2-2.8v-3.74h1.15v3.54c0,1.21.38,2,1.43,2a1.68,1.68,0,0,0,1.54-1.07,1.72,1.72,0,0,0,.11-.59v-3.92h1.15Z"/><path class="cls-3" d="M82.3,141.68c0-.75,0-1.39-.06-2h1l0,1.26h0a1.94,1.94,0,0,1,1.78-1.4,1.66,1.66,0,0,1,.32,0v1.09a2.29,2.29,0,0,0-.39,0,1.63,1.63,0,0,0-1.56,1.49,3,3,0,0,0,0,.54v3.41H82.3Z"/><path class="cls-3" d="M86.67,141.42c0-.67,0-1.2,0-1.73h1l.06,1.05h0a2.37,2.37,0,0,1,2.12-1.19c.87,0,2.25.53,2.25,2.72v3.81H91V142.4c0-1-.39-1.9-1.48-1.9a1.67,1.67,0,0,0-1.56,1.19,1.8,1.8,0,0,0-.08.54v3.85H86.67Z"/><path class="cls-3" d="M97.55,146.08l-.11-.8h0a2.37,2.37,0,0,1-2,.95,1.83,1.83,0,0,1-2-1.83c0-1.55,1.38-2.4,3.84-2.38v-.14a1.31,1.31,0,0,0-1.45-1.47,3.11,3.11,0,0,0-1.67.47l-.26-.77a4,4,0,0,1,2.11-.56c2,0,2.43,1.33,2.43,2.61v2.4a10.11,10.11,0,0,0,.09,1.52Zm-.18-3.26c-1.26,0-2.7.2-2.7,1.44a1,1,0,0,0,1.08,1.11,1.6,1.6,0,0,0,1.56-1.07,1.24,1.24,0,0,0,.06-.37Z"/><path class="cls-3" d="M100.37,136.7h1.16v9.38h-1.16Z"/><path class="cls-3" d="M104.79,137.89a.7.7,0,0,1-.74.72.69.69,0,0,1-.7-.72.72.72,0,1,1,1.44,0Zm-1.3,8.19v-6.39h1.16v6.39Z"/><path class="cls-3" d="M106.42,144.9a3.15,3.15,0,0,0,1.54.46c.85,0,1.24-.42,1.24-1s-.34-.85-1.19-1.17c-1.15-.41-1.7-1-1.7-1.81a2,2,0,0,1,2.21-1.87,3.2,3.2,0,0,1,1.57.39l-.29.85a2.46,2.46,0,0,0-1.31-.38c-.69,0-1.06.4-1.06.88s.38.76,1.21,1.09c1.11.41,1.68,1,1.68,1.92,0,1.13-.88,1.92-2.39,1.92a3.71,3.71,0,0,1-1.8-.44Z"/><path class="cls-3" d="M113.21,137.85v1.84h1.67v.88h-1.67V144c0,.79.23,1.24.88,1.24a2.21,2.21,0,0,0,.67-.08l0,.88a2.89,2.89,0,0,1-1,.16,1.61,1.61,0,0,1-1.25-.49,2.45,2.45,0,0,1-.45-1.67v-3.49h-1v-.88h1v-1.54Z"/><path class="cls-3" d="M172.77,111.42h10.08a0,0,0,0,1,0,0v67a0,0,0,0,1,0,0H167.14a0,0,0,0,1,0,0V117a5.63,5.63,0,0,1,5.63-5.63Z" transform="translate(30.08 319.91) rotate(-90)"/><line class="cls-4" x1="119.2" y1="142.76" x2="141.5" y2="142.76"/><line id="timelinebar" class="cls-1" x1="208.8" y1="52.72" x2="208.8" y2="881.27"/><line class="cls-5" x1="287.55" y1="173.27" x2="307.83" y2="172.79"/><line class="cls-5" x1="255.38" y1="246.22" x2="307.83" y2="246.22"/><line class="cls-5" x1="245.6" y1="317.61" x2="307.83" y2="317.61"/><line class="cls-5" x1="257.32" y1="465.74" x2="307.83" y2="465.74"/><line class="cls-5" x1="250.31" y1="539.24" x2="307.83" y2="539.24"/><line class="cls-5" x1="208.8" y1="612.73" x2="307.83" y2="612.73"/><line class="cls-5" x1="208.8" y1="686.22" x2="307.83" y2="686.22"/><line class="cls-5" x1="208.8" y1="759.71" x2="307.83" y2="759.71"/><line class="cls-5" x1="251.7" y1="100.37" x2="307.83" y2="100.37"/><path class="cls-6" d="M314.54,104.27v-.62l.8-.78c1.92-1.82,2.79-2.79,2.8-3.93a1.34,1.34,0,0,0-1.49-1.47,2.56,2.56,0,0,0-1.6.64l-.32-.72a3.24,3.24,0,0,1,2.12-.76,2.11,2.11,0,0,1,2.3,2.18c0,1.39-1,2.51-2.59,4l-.6.56v0h3.38v.84Z"/><path class="cls-6" d="M325.47,100.43c0,2.56-1,4-2.61,4-1.47,0-2.47-1.38-2.49-3.86s1.09-3.91,2.61-3.91S325.47,98,325.47,100.43Zm-4.08.12c0,2,.6,3.06,1.52,3.06s1.54-1.21,1.54-3.13-.47-3.06-1.53-3.06C322,97.42,321.39,98.5,321.39,100.55Z"/><path class="cls-6" d="M328.61,97.7h0l-1.31.71-.19-.77,1.64-.88h.87v7.51h-1Z"/><path class="cls-6" d="M337.33,100.43c0,2.56-.94,4-2.61,4-1.47,0-2.46-1.38-2.49-3.86s1.09-3.91,2.62-3.91S337.33,98,337.33,100.43Zm-4.08.12c0,2,.6,3.06,1.53,3.06s1.54-1.21,1.54-3.13-.48-3.06-1.53-3.06C333.9,97.42,333.25,98.5,333.25,100.55Z"/><path class="cls-7" d="M209.65,100.37h77.9V217.52c0,7-8.68,12.7-19.29,12.7H209.65"/><path class="cls-3" d="M169.5,139.3h16.61a0,0,0,0,1,0,0v67a0,0,0,0,1,0,0H163.88a0,0,0,0,1,0,0V144.93A5.63,5.63,0,0,1,169.5,139.3Z" transform="translate(2.21 347.78) rotate(-90)"/><path class="cls-3" d="M169.5,185.6h16.61a0,0,0,0,1,0,0v67a0,0,0,0,1,0,0H163.88a0,0,0,0,1,0,0V191.23A5.63,5.63,0,0,1,169.5,185.6Z" transform="translate(-44.1 394.09) rotate(-90)"/><path class="cls-3" d="M30.23,213.73h1.15v7.93h3.81v1h-5Z"/><path class="cls-3" d="M41.07,218.46H37.62v3.21h3.86v1h-5v-8.9h4.82v1H37.62v2.82h3.45Z"/><path class="cls-3" d="M45.76,213.85a10.92,10.92,0,0,1,2.1-.19,3.67,3.67,0,0,1,2.45.64,1.9,1.9,0,0,1,.74,1.58,2.1,2.1,0,0,1-1.5,2v0a2.29,2.29,0,0,1,1.84,2.24,2.33,2.33,0,0,1-.77,1.77,4.36,4.36,0,0,1-3.07.84,16.58,16.58,0,0,1-1.79-.1Zm1.15,3.65H48c1.2,0,1.91-.65,1.91-1.51,0-1-.78-1.45-1.94-1.45a5,5,0,0,0-1,.08Zm0,4.26a6.36,6.36,0,0,0,1,.05c1.2,0,2.29-.43,2.29-1.73s-1.05-1.72-2.3-1.72h-1Z"/><path class="cls-3" d="M54.08,213.73v8.9H52.92v-8.9Z"/><path class="cls-3" d="M60.69,218.46H57.24v3.21H61.1v1h-5v-8.9H60.9v1H57.24v2.82h3.45Z"/><path class="cls-3" d="M62.58,222.63v-8.9h1.27l2.85,4.5a25.29,25.29,0,0,1,1.59,2.9l0,0c-.11-1.19-.13-2.27-.13-3.65v-3.73h1.08v8.9H68.11l-2.83-4.51a28.16,28.16,0,0,1-1.66-3h0c.07,1.13.08,2.2.08,3.67v3.81Z"/><path class="cls-3" d="M74.07,213.83a12.75,12.75,0,0,1,2.22-.17,3.63,3.63,0,0,1,2.49.74,2.39,2.39,0,0,1,.79,1.86,2.64,2.64,0,0,1-.69,1.91,3.7,3.7,0,0,1-2.73,1,3.79,3.79,0,0,1-.93-.08v3.57H74.07Zm1.15,4.29a3.37,3.37,0,0,0,1,.1c1.39,0,2.23-.68,2.23-1.9s-.84-1.75-2.1-1.75a5.15,5.15,0,0,0-1.09.09Z"/><path class="cls-3" d="M82.25,213.73V219c0,2,.88,2.83,2.09,2.83S86.5,221,86.5,219v-5.27h1.16v5.19c0,2.74-1.44,3.86-3.37,3.86s-3.19-1-3.19-3.81v-5.24Z"/><path class="cls-3" d="M89.65,213.85a10.84,10.84,0,0,1,2.1-.19,3.69,3.69,0,0,1,2.45.64,1.9,1.9,0,0,1,.74,1.58,2.1,2.1,0,0,1-1.51,2v0a2.29,2.29,0,0,1,1.84,2.24,2.32,2.32,0,0,1-.76,1.77,4.36,4.36,0,0,1-3.07.84,16.58,16.58,0,0,1-1.79-.1Zm1.15,3.65h1c1.21,0,1.92-.65,1.92-1.51,0-1-.78-1.45-2-1.45a5,5,0,0,0-1,.08Zm0,4.26a6.2,6.2,0,0,0,1,.05c1.19,0,2.29-.43,2.29-1.73s-1-1.72-2.3-1.72h-1Z"/><path class="cls-3" d="M96.81,213.73H98v7.93h3.8v1h-5Z"/><path class="cls-3" d="M104.2,213.73v8.9H103v-8.9Z"/><path class="cls-3" d="M112.43,222.35a5.75,5.75,0,0,1-2.36.42,4.16,4.16,0,0,1-4.39-4.51,4.42,4.42,0,0,1,4.65-4.67,4.87,4.87,0,0,1,2.12.39l-.29.93a4.32,4.32,0,0,0-1.79-.36c-2.09,0-3.47,1.33-3.47,3.67a3.22,3.22,0,0,0,3.41,3.57,4.75,4.75,0,0,0,1.89-.36Z"/><path class="cls-3" d="M60.64,240.33a1.77,1.77,0,0,0,1.26-.49c.32-.36.45-.87.45-2.4v-5.35h1.16v5.8a3.5,3.5,0,0,1-.77,2.63,3,3,0,0,1-2,.73Zm3-10a.7.7,0,0,1-.74.72.69.69,0,0,1-.7-.72.72.72,0,1,1,1.44,0Z"/><path class="cls-3" d="M71.2,235.23a3.13,3.13,0,0,1-3.18,3.4A3,3,0,0,1,65,235.34,3.12,3.12,0,0,1,68.12,232,3,3,0,0,1,71.2,235.23Zm-5.07.07c0,1.4.8,2.46,1.94,2.46s1.94-1,1.94-2.49c0-1.08-.54-2.45-1.92-2.45S66.13,234.09,66.13,235.3Z"/><path class="cls-3" d="M78,236.74c0,.67,0,1.24,0,1.74H77l-.07-1h0a2.39,2.39,0,0,1-2.11,1.19c-1,0-2.21-.56-2.21-2.8v-3.74h1.16v3.54c0,1.21.38,2,1.43,2a1.69,1.69,0,0,0,1.54-1.07,1.73,1.73,0,0,0,.1-.59v-3.92H78Z"/><path class="cls-3" d="M79.94,234.08c0-.75,0-1.39,0-2h1l0,1.26h0a2,2,0,0,1,1.78-1.4,1.69,1.69,0,0,1,.33,0v1.09a2.33,2.33,0,0,0-.4,0,1.61,1.61,0,0,0-1.55,1.49,3,3,0,0,0-.05.54v3.41H79.94Z"/><path class="cls-3" d="M84.32,233.82c0-.67,0-1.2,0-1.73h1l.07,1h0A2.37,2.37,0,0,1,87.5,232c.88,0,2.25.53,2.25,2.72v3.81H88.6V234.8c0-1-.39-1.9-1.48-1.9a1.68,1.68,0,0,0-1.57,1.2,2,2,0,0,0-.08.53v3.85H84.32Z"/><path class="cls-3" d="M95.19,238.48l-.1-.8h0a2.37,2.37,0,0,1-2,.95,1.82,1.82,0,0,1-1.95-1.83c0-1.55,1.37-2.4,3.84-2.38v-.14a1.31,1.31,0,0,0-1.45-1.47,3.11,3.11,0,0,0-1.67.47l-.26-.77a4,4,0,0,1,2.11-.56c2,0,2.43,1.33,2.43,2.61V237a10.11,10.11,0,0,0,.09,1.52ZM95,235.22c-1.26,0-2.69.2-2.69,1.44a1,1,0,0,0,1.08,1.11A1.61,1.61,0,0,0,95,236.7a1.22,1.22,0,0,0,.05-.37Z"/><path class="cls-3" d="M98,229.1h1.15v9.38H98Z"/><path class="cls-3" d="M102.43,230.29a.72.72,0,1,1-1.44,0,.72.72,0,0,1,.73-.73A.69.69,0,0,1,102.43,230.29Zm-1.29,8.19v-6.39h1.15v6.39Z"/><path class="cls-3" d="M104.06,237.3a3.15,3.15,0,0,0,1.54.46c.85,0,1.24-.42,1.24-.95s-.33-.86-1.18-1.17c-1.16-.42-1.7-1-1.7-1.82a2,2,0,0,1,2.21-1.87,3.2,3.2,0,0,1,1.57.39l-.29.85a2.49,2.49,0,0,0-1.31-.38c-.69,0-1.06.4-1.06.88s.37.76,1.21,1.09c1.1.41,1.67,1,1.68,1.92,0,1.13-.88,1.92-2.39,1.92a3.71,3.71,0,0,1-1.8-.44Z"/><path class="cls-3" d="M110.85,230.25v1.84h1.67V233h-1.67v3.44c0,.8.23,1.24.88,1.24a2.33,2.33,0,0,0,.68-.08l0,.88a3,3,0,0,1-1,.16,1.6,1.6,0,0,1-1.25-.49,2.43,2.43,0,0,1-.46-1.67V233h-1v-.89h1v-1.53Z"/><line class="cls-4" x1="120.01" y1="217.04" x2="141.44" y2="217.04"/><path class="cls-3" d="M16.36,169.8h4.8v1H17.52v3h3.36v1H17.52v4H16.36Z"/><path class="cls-3" d="M22.8,169.92a12.82,12.82,0,0,1,2.21-.19,3.67,3.67,0,0,1,2.58.74,2.22,2.22,0,0,1,.7,1.69,2.35,2.35,0,0,1-1.68,2.27v0a2.27,2.27,0,0,1,1.31,1.8,14.91,14.91,0,0,0,.68,2.45H27.41a12.38,12.38,0,0,1-.59-2.13c-.26-1.22-.74-1.7-1.78-1.73H24v3.86H22.8ZM24,174h1.17c1.23,0,2-.67,2-1.69s-.83-1.66-2-1.66a5,5,0,0,0-1.14.1Z"/><path class="cls-3" d="M31.42,175.91l-.92,2.8H29.3l3-8.91h1.39l3,8.91H35.53l-1-2.8Zm2.92-.9-.88-2.56c-.19-.59-.33-1.12-.46-1.63h0c-.13.52-.27,1.07-.44,1.61L31.65,175Z"/><path class="cls-3" d="M38.06,178.71V169.8h1.26l2.85,4.5a26.16,26.16,0,0,1,1.59,2.9h0c-.1-1.19-.12-2.28-.12-3.66V169.8h1.08v8.91H43.58l-2.83-4.52a29.84,29.84,0,0,1-1.66-3l0,0c.07,1.12.09,2.2.09,3.67v3.81Z"/><path class="cls-3" d="M53,178.42a5.62,5.62,0,0,1-2.35.43,4.16,4.16,0,0,1-4.39-4.51,4.43,4.43,0,0,1,4.65-4.68,4.74,4.74,0,0,1,2.11.4l-.28.93a4.31,4.31,0,0,0-1.79-.37c-2.09,0-3.48,1.34-3.48,3.68a3.23,3.23,0,0,0,3.42,3.57,4.7,4.7,0,0,0,1.88-.36Z"/><path class="cls-3" d="M59,174.53H55.57v3.22h3.86v1h-5V169.8h4.82v1H55.57v2.82H59Z"/><path class="cls-3" d="M69.94,178.42a5.72,5.72,0,0,1-2.36.43,4.16,4.16,0,0,1-4.39-4.51,4.43,4.43,0,0,1,4.65-4.68,4.83,4.83,0,0,1,2.12.4l-.29.93a4.31,4.31,0,0,0-1.79-.37c-2.09,0-3.47,1.34-3.47,3.68a3.22,3.22,0,0,0,3.41,3.57,4.75,4.75,0,0,0,1.89-.36Z"/><path class="cls-3" d="M72.53,169.8v5.28c0,2,.88,2.83,2.08,2.83s2.16-.87,2.16-2.83V169.8h1.16V175c0,2.74-1.44,3.85-3.37,3.85s-3.19-1-3.19-3.8V169.8Z"/><path class="cls-3" d="M79.92,169.8h1.16v7.94h3.81v1h-5Z"/><path class="cls-3" d="M86.69,170.77H84v-1h6.6v1H87.85v7.94H86.69Z"/><path class="cls-3" d="M92.71,169.8v5.28c0,2,.88,2.83,2.08,2.83S97,177,97,175.08V169.8h1.16V175c0,2.74-1.44,3.85-3.37,3.85s-3.2-1-3.2-3.8V169.8Z"/><path class="cls-3" d="M100.11,169.92a12.82,12.82,0,0,1,2.21-.19,3.67,3.67,0,0,1,2.58.74,2.22,2.22,0,0,1,.7,1.69,2.35,2.35,0,0,1-1.68,2.27v0a2.27,2.27,0,0,1,1.31,1.8,14.91,14.91,0,0,0,.68,2.45h-1.19a12.38,12.38,0,0,1-.59-2.13c-.26-1.22-.74-1.7-1.78-1.73h-1.09v3.86h-1.15Zm1.15,4.06h1.17c1.23,0,2-.67,2-1.69s-.83-1.66-2-1.66a5,5,0,0,0-1.14.1Z"/><path class="cls-3" d="M111.82,174.53h-3.45v3.22h3.86v1h-5V169.8H112v1h-3.66v2.82h3.45Z"/><path class="cls-3" d="M60.55,196.41a1.84,1.84,0,0,0,1.27-.49c.31-.36.44-.87.44-2.4v-5.35h1.16V194a3.57,3.57,0,0,1-.76,2.64,3,3,0,0,1-2,.72Zm3-10a.71.71,0,0,1-.74.73.7.7,0,0,1-.7-.73.71.71,0,0,1,.73-.72A.7.7,0,0,1,63.56,186.36Z"/><path class="cls-3" d="M71.11,191.31a3.13,3.13,0,0,1-3.18,3.4,3,3,0,0,1-3.07-3.29A3.12,3.12,0,0,1,68,188,3,3,0,0,1,71.11,191.31Zm-5.07.07c0,1.4.81,2.46,1.94,2.46s2-1,2-2.49c0-1.09-.55-2.45-1.93-2.45S66,190.17,66,191.38Z"/><path class="cls-3" d="M77.92,192.81c0,.67,0,1.25.06,1.75H77l-.06-1h0a2.39,2.39,0,0,1-2.11,1.19c-1,0-2.2-.56-2.2-2.8v-3.74h1.15v3.53c0,1.22.38,2.05,1.43,2.05a1.69,1.69,0,0,0,1.54-1.07,1.77,1.77,0,0,0,.11-.59v-3.92h1.15Z"/><path class="cls-3" d="M79.86,190.16c0-.75,0-1.4-.06-2h1l.05,1.26h0a1.94,1.94,0,0,1,1.78-1.4,1.12,1.12,0,0,1,.32,0v1.09a2.29,2.29,0,0,0-.39,0,1.63,1.63,0,0,0-1.56,1.48,3.21,3.21,0,0,0,0,.55v3.41H79.86Z"/><path class="cls-3" d="M84.23,189.9c0-.67,0-1.2,0-1.73h1l.06,1.05h0A2.37,2.37,0,0,1,87.42,188c.87,0,2.25.52,2.25,2.72v3.81H88.51v-3.68c0-1-.39-1.9-1.48-1.9a1.67,1.67,0,0,0-1.56,1.19,1.75,1.75,0,0,0-.08.54v3.85H84.23Z"/><path class="cls-3" d="M95.11,194.56l-.11-.8h0a2.4,2.4,0,0,1-2,1,1.83,1.83,0,0,1-2-1.84c0-1.54,1.37-2.39,3.84-2.38v-.13a1.32,1.32,0,0,0-1.45-1.48,3.11,3.11,0,0,0-1.67.48l-.26-.77a3.94,3.94,0,0,1,2.11-.56c2,0,2.43,1.33,2.43,2.61V193a10.24,10.24,0,0,0,.09,1.53Zm-.18-3.26c-1.26,0-2.7.2-2.7,1.43a1,1,0,0,0,1.08,1.12,1.6,1.6,0,0,0,1.56-1.07,1.29,1.29,0,0,0,.06-.37Z"/><path class="cls-3" d="M97.93,185.18h1.16v9.38H97.93Z"/><path class="cls-3" d="M102.35,186.36a.71.71,0,0,1-.74.73.7.7,0,0,1-.7-.73.72.72,0,0,1,1.44,0Zm-1.3,8.2v-6.39h1.16v6.39Z"/><path class="cls-3" d="M104,193.38a3.22,3.22,0,0,0,1.55.45c.84,0,1.24-.41,1.24-1s-.34-.85-1.19-1.17c-1.15-.42-1.7-1-1.7-1.81a2,2,0,0,1,2.21-1.87,3.1,3.1,0,0,1,1.57.39l-.29.84a2.59,2.59,0,0,0-1.31-.37c-.69,0-1.06.39-1.06.88s.37.76,1.21,1.08c1.1.42,1.68,1,1.68,1.92,0,1.14-.88,1.93-2.39,1.93a3.71,3.71,0,0,1-1.8-.44Z"/><path class="cls-3" d="M110.77,186.33v1.84h1.67v.88h-1.67v3.45c0,.79.23,1.24.87,1.24a2.61,2.61,0,0,0,.68-.08l.05.88a2.89,2.89,0,0,1-1,.16,1.65,1.65,0,0,1-1.25-.49,2.45,2.45,0,0,1-.45-1.67v-3.49h-1v-.88h1v-1.54Z"/><path class="cls-3" d="M143.85,249.51h67.92a0,0,0,0,1,0,0v67a0,0,0,0,1,0,0H138.22a0,0,0,0,1,0,0V255.13A5.63,5.63,0,0,1,143.85,249.51Z" transform="translate(-108 457.99) rotate(-90)"/><path class="cls-3" d="M0,276.81H1.16v7.94H5v1H0Z"/><path class="cls-3" d="M10.84,281.54H7.39v3.22h3.86v1h-5v-8.91h4.81v1H7.39v2.82h3.45Z"/><path class="cls-3" d="M15.54,276.93a15.92,15.92,0,0,1,2.44-.19,5.1,5.1,0,0,1,3.61,1.12,4.05,4.05,0,0,1,1.26,3.19,4.71,4.71,0,0,1-1.28,3.46,5.54,5.54,0,0,1-3.94,1.29,20.16,20.16,0,0,1-2.09-.1Zm1.15,7.88a7.74,7.74,0,0,0,1.16.06,3.42,3.42,0,0,0,3.79-3.78c0-2.1-1.17-3.43-3.6-3.43a7.09,7.09,0,0,0-1.35.12Z"/><path class="cls-3" d="M25.6,282.92l-.92,2.8h-1.2l3-8.91H27.9l3,8.91H29.71l-1-2.8Zm2.92-.9-.88-2.56c-.19-.59-.33-1.12-.46-1.63h0c-.13.52-.27,1.07-.44,1.61L25.83,282Z"/><path class="cls-3" d="M33,276.81v5.28c0,2,.88,2.83,2.08,2.83s2.17-.87,2.17-2.83v-5.28h1.15V282c0,2.74-1.44,3.85-3.37,3.85s-3.19-1-3.19-3.8v-5.25Z"/><path class="cls-3" d="M40.41,276.92a12.6,12.6,0,0,1,2.22-.18,3.63,3.63,0,0,1,2.49.74,2.41,2.41,0,0,1,.79,1.87,2.58,2.58,0,0,1-.7,1.9,3.67,3.67,0,0,1-2.72,1,3.79,3.79,0,0,1-.93-.08v3.57H40.41Zm1.15,4.29a3.77,3.77,0,0,0,1,.1c1.39,0,2.23-.69,2.23-1.9s-.84-1.76-2.1-1.76a5.94,5.94,0,0,0-1.09.09Z"/><path class="cls-3" d="M48.6,276.81v3.73h4.3v-3.73h1.16v8.91H52.9v-4.18H48.6v4.18H47.44v-8.91Z"/><path class="cls-3" d="M57.21,276.81v8.91H56.05v-8.91Z"/><path class="cls-3" d="M59.21,285.72v-8.91h1.27l2.85,4.5a26.16,26.16,0,0,1,1.59,2.9h0c-.11-1.19-.13-2.28-.13-3.66v-3.73h1.09v8.91H64.74l-2.83-4.52a28,28,0,0,1-1.66-3l0,0c.07,1.12.09,2.2.09,3.67v3.81Z"/><path class="cls-3" d="M72.51,281.54H69.06v3.22h3.86v1h-5v-8.91h4.82v1H69.06v2.82h3.45Zm-.21-6.74-1.69,1.54h-.94l1.22-1.54Z"/><path class="cls-3" d="M77.21,276.81h1.15v7.94h3.81v1h-5Z"/><path class="cls-3" d="M84.6,276.81v8.91H83.44v-8.91Z"/><path class="cls-3" d="M86.6,276.93a10.84,10.84,0,0,1,2.1-.19,3.65,3.65,0,0,1,2.44.65,1.9,1.9,0,0,1,.75,1.58,2.12,2.12,0,0,1-1.51,1.95v0a2.28,2.28,0,0,1,1.84,2.24,2.34,2.34,0,0,1-.76,1.77,4.39,4.39,0,0,1-3.08.84,16.35,16.35,0,0,1-1.78-.1Zm1.15,3.65h1c1.21,0,1.92-.64,1.92-1.5,0-1-.78-1.45-2-1.45a5,5,0,0,0-1,.08Zm0,4.26a5,5,0,0,0,1,.06c1.19,0,2.29-.44,2.29-1.73s-1.05-1.72-2.3-1.72h-1Z"/><path class="cls-3" d="M98.37,281.54H94.92v3.22h3.86v1h-5v-8.91h4.81v1H94.92v2.82h3.45Zm-.22-6.74-1.68,1.54h-1l1.23-1.54Z"/><path class="cls-3" d="M100.26,276.93a12.82,12.82,0,0,1,2.21-.19,3.67,3.67,0,0,1,2.58.74,2.22,2.22,0,0,1,.7,1.69,2.35,2.35,0,0,1-1.68,2.27v0a2.27,2.27,0,0,1,1.31,1.8,14.91,14.91,0,0,0,.68,2.45h-1.19a12.38,12.38,0,0,1-.59-2.13c-.26-1.22-.74-1.7-1.78-1.73h-1.09v3.86h-1.15Zm1.15,4.06h1.17c1.23,0,2-.67,2-1.69s-.83-1.66-2-1.66a5,5,0,0,0-1.14.1Z"/><path class="cls-3" d="M112,281.54h-3.45v3.22h3.86v1h-5v-8.91h4.81v1h-3.66v2.82H112Zm-.21-6.74-1.69,1.54h-.94l1.22-1.54Z"/><path class="cls-3" d="M60.64,303.42a1.86,1.86,0,0,0,1.26-.49c.32-.36.45-.87.45-2.4v-5.35h1.16V301a3.53,3.53,0,0,1-.77,2.64,3,3,0,0,1-2,.72Zm3-10.05a.71.71,0,0,1-.74.73.7.7,0,0,1-.7-.73.72.72,0,1,1,1.44,0Z"/><path class="cls-3" d="M71.2,298.31A3.14,3.14,0,0,1,68,301.72,3,3,0,0,1,65,298.43,3.12,3.12,0,0,1,68.12,295,3,3,0,0,1,71.2,298.31Zm-5.07.08c0,1.4.8,2.46,1.94,2.46s1.94-1,1.94-2.5c0-1.08-.54-2.44-1.92-2.44S66.13,297.18,66.13,298.39Z"/><path class="cls-3" d="M78,299.82c0,.67,0,1.25,0,1.75H77l-.07-1h0a2.39,2.39,0,0,1-2.11,1.19c-1,0-2.21-.56-2.21-2.8v-3.74h1.16v3.53c0,1.22.38,2.05,1.43,2.05a1.7,1.7,0,0,0,1.54-1.07,1.78,1.78,0,0,0,.1-.59v-3.92H78Z"/><path class="cls-3" d="M79.94,297.17c0-.75,0-1.4,0-2h1l0,1.25h0A2,2,0,0,1,82.77,295a1.16,1.16,0,0,1,.33,0v1.09a2.33,2.33,0,0,0-.4,0,1.61,1.61,0,0,0-1.55,1.48,3.21,3.21,0,0,0-.05.55v3.41H79.94Z"/><path class="cls-3" d="M84.32,296.91c0-.67,0-1.2,0-1.73h1l.07,1.05h0A2.35,2.35,0,0,1,87.5,295c.88,0,2.25.52,2.25,2.72v3.81H88.6v-3.68c0-1-.39-1.9-1.48-1.9a1.68,1.68,0,0,0-1.57,1.19,2.12,2.12,0,0,0-.08.54v3.85H84.32Z"/><path class="cls-3" d="M95.19,301.57l-.1-.8h0a2.4,2.4,0,0,1-2,1,1.83,1.83,0,0,1-1.95-1.84c0-1.54,1.37-2.4,3.84-2.38v-.13a1.32,1.32,0,0,0-1.45-1.48,3.11,3.11,0,0,0-1.67.48l-.26-.77a3.94,3.94,0,0,1,2.11-.56c2,0,2.43,1.33,2.43,2.61V300a10.24,10.24,0,0,0,.09,1.53ZM95,298.31c-1.26,0-2.69.2-2.69,1.43a1,1,0,0,0,1.08,1.12A1.61,1.61,0,0,0,95,299.79a1.26,1.26,0,0,0,.05-.37Z"/><path class="cls-3" d="M98,292.19h1.15v9.38H98Z"/><path class="cls-3" d="M102.43,293.37a.72.72,0,1,1-1.44,0,.71.71,0,0,1,.73-.72A.69.69,0,0,1,102.43,293.37Zm-1.29,8.2v-6.39h1.15v6.39Z"/><path class="cls-3" d="M104.06,300.39a3.15,3.15,0,0,0,1.54.45c.85,0,1.24-.41,1.24-.95s-.33-.85-1.18-1.17c-1.16-.42-1.7-1-1.7-1.81a2,2,0,0,1,2.21-1.87,3.1,3.1,0,0,1,1.57.39l-.29.84a2.59,2.59,0,0,0-1.31-.37c-.69,0-1.06.39-1.06.87s.37.77,1.21,1.09c1.1.41,1.67,1,1.68,1.92,0,1.14-.88,1.93-2.39,1.93a3.71,3.71,0,0,1-1.8-.44Z"/><path class="cls-3" d="M110.85,293.34v1.84h1.67v.88h-1.67v3.45c0,.79.23,1.24.88,1.24a2.74,2.74,0,0,0,.68-.08l0,.88a3,3,0,0,1-1,.16,1.63,1.63,0,0,1-1.25-.49,2.45,2.45,0,0,1-.46-1.67v-3.49h-1v-.88h1v-1.54Z"/><path class="cls-7" d="M209.65,246.22h77.91v64.42c0,3.83-8.69,7-19.3,7H209.65"/><path class="cls-3" d="M124.48,351.4H231a0,0,0,0,1,0,0v67a0,0,0,0,1,0,0H118.86a0,0,0,0,1,0,0V357A5.63,5.63,0,0,1,124.48,351.4Z" transform="translate(-209.96 559.83) rotate(-90)"/><line class="cls-5" x1="209.65" y1="391.15" x2="307.83" y2="391.15"/><path class="cls-3" d="M172.71,421.17h10.08a0,0,0,0,1,0,0v67a0,0,0,0,1,0,0H167.08a0,0,0,0,1,0,0V426.79A5.63,5.63,0,0,1,172.71,421.17Z" transform="translate(-279.72 629.59) rotate(-90)"/><line class="cls-4" x1="120.08" y1="452.66" x2="141.5" y2="452.66"/><path class="cls-3" d="M67.14,457.13a5.69,5.69,0,0,1-2.35.42A4.15,4.15,0,0,1,60.4,453a4.42,4.42,0,0,1,4.65-4.67,4.78,4.78,0,0,1,2.11.39l-.28.94a4.24,4.24,0,0,0-1.8-.37c-2.09,0-3.47,1.34-3.47,3.67A3.24,3.24,0,0,0,65,456.58a4.74,4.74,0,0,0,1.89-.37Z"/><path class="cls-3" d="M70.08,454.61l-.92,2.8H68l3-8.9h1.39l3,8.9H74.19l-1-2.8Zm2.92-.89-.88-2.57c-.19-.58-.33-1.11-.46-1.62h0c-.13.52-.27,1.06-.44,1.61l-.88,2.58Z"/><path class="cls-3" d="M76.71,448.63a15,15,0,0,1,2.45-.19,5.1,5.1,0,0,1,3.61,1.12A4,4,0,0,1,84,452.74a4.73,4.73,0,0,1-1.28,3.47,5.53,5.53,0,0,1-3.94,1.28,18,18,0,0,1-2.1-.1Zm1.16,7.88a7.9,7.9,0,0,0,1.16.05,3.41,3.41,0,0,0,3.79-3.77c0-2.11-1.18-3.43-3.6-3.43a7.17,7.17,0,0,0-1.35.11Z"/><path class="cls-3" d="M93.13,452.87c0,3.06-1.86,4.69-4.13,4.69s-4-1.83-4-4.52,1.74-4.68,4.12-4.68S93.13,450.23,93.13,452.87Zm-6.92.14c0,1.91,1,3.61,2.85,3.61s2.85-1.67,2.85-3.7c0-1.77-.92-3.62-2.83-3.62S86.21,451.06,86.21,453Z"/><path class="cls-3" d="M94.62,448.51h1.15v7.93h3.81v1h-5Z"/><path class="cls-3" d="M105.46,453.24H102v3.22h3.86v1h-5v-8.9h4.82v1H102v2.82h3.45Z"/><path class="cls-3" d="M107.2,456a4.06,4.06,0,0,0,2.06.58c1.17,0,1.87-.62,1.87-1.52s-.49-1.31-1.69-1.76c-1.45-.52-2.35-1.28-2.35-2.53s1.15-2.41,2.88-2.41a4.1,4.1,0,0,1,2,.43l-.32.94a3.39,3.39,0,0,0-1.68-.42c-1.23,0-1.69.72-1.69,1.33,0,.83.54,1.24,1.77,1.71,1.51.59,2.27,1.32,2.27,2.62s-1,2.57-3.11,2.57a4.61,4.61,0,0,1-2.28-.58Z"/><path class="cls-3" d="M63.6,463.89v7.73c0,.57,0,1.21,0,1.65h-1l-.06-1.11h0a2.34,2.34,0,0,1-2.17,1.25c-1.55,0-2.74-1.31-2.74-3.24,0-2.14,1.31-3.44,2.87-3.44a2.14,2.14,0,0,1,1.93,1h0v-3.81Zm-1.16,5.59a2.12,2.12,0,0,0,0-.5,1.72,1.72,0,0,0-1.68-1.34c-1.2,0-1.92,1.06-1.92,2.46s.64,2.38,1.9,2.38a1.75,1.75,0,0,0,1.69-1.4,1.9,1.9,0,0,0,.06-.5Z"/><path class="cls-3" d="M66.18,470.28a2,2,0,0,0,2.19,2.22,4.27,4.27,0,0,0,1.77-.33l.2.83a5.18,5.18,0,0,1-2.13.41,3,3,0,0,1-3.14-3.23c0-1.94,1.14-3.45,3-3.45,2.09,0,2.63,1.83,2.63,3a2.46,2.46,0,0,1,0,.54Zm3.4-.83a1.65,1.65,0,0,0-1.6-1.89,1.91,1.91,0,0,0-1.78,1.89Z"/><path class="cls-3" d="M72.6,466.88l1.25,3.58a17.11,17.11,0,0,1,.52,1.65h0c.15-.53.33-1.06.53-1.65l1.25-3.58h1.22l-2.51,6.39H73.79l-2.44-6.39Z"/><path class="cls-3" d="M79,470.28a2,2,0,0,0,2.19,2.22,4.27,4.27,0,0,0,1.77-.33l.2.83a5.18,5.18,0,0,1-2.13.41,3,3,0,0,1-3.14-3.23c0-1.94,1.14-3.45,3-3.45,2.09,0,2.63,1.83,2.63,3a2.46,2.46,0,0,1,0,.54Zm3.4-.83a1.65,1.65,0,0,0-1.6-1.89A1.92,1.92,0,0,0,79,469.45Z"/><path class="cls-3" d="M85,463.89h1.16v9.38H85Z"/><path class="cls-3" d="M93.89,470a3.12,3.12,0,0,1-3.17,3.4,3,3,0,0,1-3.08-3.29,3.12,3.12,0,0,1,3.18-3.39A3,3,0,0,1,93.89,470Zm-5.06.07c0,1.41.8,2.46,1.93,2.46s1.95-1,1.95-2.49c0-1.08-.54-2.45-1.92-2.45S88.83,468.87,88.83,470.08Z"/><path class="cls-3" d="M95.36,469c0-.82,0-1.48,0-2.08h1l.06,1.09h0a2.49,2.49,0,0,1,2.26-1.24c1.55,0,2.72,1.3,2.72,3.24,0,2.31-1.41,3.44-2.91,3.44a2.24,2.24,0,0,1-2-1h0v3.47H95.36Zm1.16,1.71a1.83,1.83,0,0,0,0,.47,1.77,1.77,0,0,0,1.73,1.36c1.24,0,2-1,2-2.47,0-1.28-.67-2.38-1.9-2.38a1.86,1.86,0,0,0-1.76,1.44,1.91,1.91,0,0,0-.07.47Z"/><path class="cls-3" d="M103.54,470.28a2,2,0,0,0,2.19,2.22,4.27,4.27,0,0,0,1.77-.33l.2.83a5.18,5.18,0,0,1-2.13.41,3,3,0,0,1-3.14-3.23c0-1.94,1.14-3.45,3-3.45,2.09,0,2.63,1.83,2.63,3a2.46,2.46,0,0,1,0,.54Zm3.4-.83a1.65,1.65,0,0,0-1.6-1.89,1.91,1.91,0,0,0-1.78,1.89Z"/><path class="cls-3" d="M109.51,468.87c0-.76,0-1.4-.06-2h1l0,1.25h0a1.94,1.94,0,0,1,1.78-1.4,1.58,1.58,0,0,1,.32,0v1.1a1.51,1.51,0,0,0-.39,0,1.63,1.63,0,0,0-1.56,1.49,3,3,0,0,0,0,.54v3.42h-1.15Z"/><line class="cls-4" x1="119.33" y1="391.18" x2="140.76" y2="391.18"/><path class="cls-3" d="M28.32,385.32h1.16v7.94h3.81v1h-5Z"/><path class="cls-3" d="M39.17,390.05H35.72v3.22h3.86v1h-5v-8.91h4.82v1H35.72v2.82h3.45Z"/><path class="cls-3" d="M51.38,390.32c-.07-1.24-.15-2.74-.15-3.84h0c-.31,1-.68,2.15-1.12,3.37l-1.58,4.32h-.86l-1.45-4.24c-.43-1.26-.77-2.4-1-3.45h0c0,1.11-.08,2.59-.17,3.92l-.24,3.83H43.63l.62-8.91h1.47l1.52,4.31c.36,1.09.66,2.07.89,3h0c.23-.9.54-1.88.94-3l1.59-4.31h1.47l.55,8.91H51.59Z"/><path class="cls-3" d="M55.64,385.32v8.91H54.48v-8.91Z"/><path class="cls-3" d="M57.64,385.44a12.82,12.82,0,0,1,2.21-.19,3.62,3.62,0,0,1,2.58.74,2.22,2.22,0,0,1,.7,1.69A2.35,2.35,0,0,1,61.45,390v0a2.27,2.27,0,0,1,1.31,1.8,14.91,14.91,0,0,0,.68,2.45H62.25a11.78,11.78,0,0,1-.58-2.13c-.27-1.22-.75-1.7-1.79-1.73H58.79v3.86H57.64Zm1.15,4.06H60c1.24,0,2-.67,2-1.69s-.83-1.66-2-1.66a5,5,0,0,0-1.14.1Z"/><path class="cls-3" d="M72.4,389.69c0,3.05-1.86,4.68-4.13,4.68s-4-1.83-4-4.52,1.74-4.67,4.12-4.67S72.4,387,72.4,389.69Zm-6.92.14c0,1.9,1,3.61,2.85,3.61s2.86-1.68,2.86-3.7c0-1.78-.93-3.63-2.84-3.63S65.48,387.88,65.48,389.83Z"/><path class="cls-3" d="M75,385.32v8.91H73.89v-8.91Z"/><path class="cls-3" d="M77,385.44a13,13,0,0,1,2.22-.19,3.64,3.64,0,0,1,2.58.74,2.22,2.22,0,0,1,.7,1.69A2.35,2.35,0,0,1,80.86,390v0a2.24,2.24,0,0,1,1.3,1.8,15.66,15.66,0,0,0,.69,2.45H81.66a11.48,11.48,0,0,1-.59-2.13c-.26-1.22-.74-1.7-1.79-1.73H78.19v3.86H77Zm1.15,4.06h1.18c1.23,0,2-.67,2-1.69s-.83-1.66-2-1.66a5.17,5.17,0,0,0-1.14.1Z"/><path class="cls-3" d="M94.47,390.32c-.07-1.24-.15-2.74-.14-3.84h0c-.31,1-.67,2.15-1.12,3.37l-1.57,4.32h-.87l-1.45-4.24c-.43-1.26-.77-2.4-1-3.45h0c0,1.11-.09,2.59-.18,3.92l-.23,3.83h-1.1l.62-8.91h1.47l1.52,4.31c.37,1.09.66,2.07.9,3h0c.23-.9.55-1.88.94-3l1.59-4.31h1.47l.55,8.91H94.68Z"/><path class="cls-3" d="M98.89,391.43l-.92,2.8H96.78l3-8.91h1.39l3,8.91H103l-1-2.8Zm2.92-.9-.88-2.56c-.19-.59-.33-1.12-.46-1.63h0c-.13.52-.27,1.07-.44,1.61l-.88,2.58Z"/><path class="cls-3" d="M112.12,393.83a8.23,8.23,0,0,1-2.74.49,4.18,4.18,0,0,1-4.57-4.49,4.46,4.46,0,0,1,4.82-4.6,5.58,5.58,0,0,1,2.22.41l-.28.94a4.51,4.51,0,0,0-2-.38,3.33,3.33,0,0,0-3.58,3.57,3.27,3.27,0,0,0,3.44,3.6,3.79,3.79,0,0,0,1.53-.24v-2.66h-1.8v-.92h2.93Z"/><path class="cls-3" d="M61.36,409.85a4.46,4.46,0,0,1-1.84.37A3,3,0,0,1,56.33,407a3.25,3.25,0,0,1,3.44-3.4,3.68,3.68,0,0,1,1.61.34l-.26.89a2.83,2.83,0,0,0-1.36-.31,2.22,2.22,0,0,0-2.25,2.42,2.19,2.19,0,0,0,2.23,2.39,3.42,3.42,0,0,0,1.42-.3Z"/><path class="cls-3" d="M68.42,406.82a3.13,3.13,0,0,1-3.17,3.41,3.05,3.05,0,0,1-3.08-3.3,3.12,3.12,0,0,1,3.18-3.38A3,3,0,0,1,68.42,406.82Zm-5.06.08c0,1.4.8,2.46,1.93,2.46s1.95-1.05,1.95-2.5c0-1.08-.54-2.44-1.93-2.44S63.36,405.69,63.36,406.9Z"/><path class="cls-3" d="M70,410.08v-5.51h-.89v-.88H70v-.31a3.06,3.06,0,0,1,.75-2.24,2.22,2.22,0,0,1,1.55-.59,2.48,2.48,0,0,1,1,.19l-.15.89a1.92,1.92,0,0,0-.75-.14c-1,0-1.23.87-1.23,1.86v.34H72.7v.88H71.16v5.51Z"/><path class="cls-3" d="M79.36,406.82a3.14,3.14,0,0,1-3.18,3.41,3,3,0,0,1-3.07-3.3,3.12,3.12,0,0,1,3.18-3.38A3,3,0,0,1,79.36,406.82Zm-5.07.08c0,1.4.81,2.46,1.94,2.46s2-1.05,2-2.5c0-1.08-.55-2.44-1.93-2.44S74.29,405.69,74.29,406.9Z"/><path class="cls-3" d="M86.17,408.33c0,.67,0,1.25.06,1.75h-1l-.06-1h0A2.4,2.4,0,0,1,83,410.23c-1,0-2.2-.56-2.2-2.8v-3.74H82v3.53c0,1.22.38,2,1.42,2a1.69,1.69,0,0,0,1.54-1.07,1.78,1.78,0,0,0,.11-.6v-3.91h1.15Z"/><path class="cls-3" d="M88.11,405.42c0-.67,0-1.2,0-1.73h1l.07,1.05h0a2.35,2.35,0,0,1,2.11-1.19c.88,0,2.25.52,2.25,2.72v3.81H92.39V406.4c0-1-.39-1.9-1.48-1.9a1.66,1.66,0,0,0-1.56,1.19,1.75,1.75,0,0,0-.08.54v3.85H88.11Z"/><path class="cls-3" d="M101,400.7v7.73c0,.57,0,1.21.05,1.65h-1l-.06-1.1h0a2.36,2.36,0,0,1-2.17,1.25c-1.55,0-2.74-1.31-2.74-3.25,0-2.14,1.31-3.43,2.87-3.43a2.14,2.14,0,0,1,1.93,1h0V400.7Zm-1.16,5.59a2.18,2.18,0,0,0,0-.5,1.71,1.71,0,0,0-1.68-1.33c-1.2,0-1.92,1.05-1.92,2.46s.64,2.37,1.9,2.37a1.74,1.74,0,0,0,1.69-1.39,1.63,1.63,0,0,0,.06-.5Z"/><path class="cls-3" d="M103.54,407.1a2,2,0,0,0,2.19,2.21,4.29,4.29,0,0,0,1.77-.32l.2.82a5,5,0,0,1-2.13.41,3,3,0,0,1-3.14-3.23c0-1.93,1.14-3.44,3-3.44,2.09,0,2.63,1.82,2.63,3a2.56,2.56,0,0,1,0,.55Zm3.4-.84a1.64,1.64,0,0,0-1.6-1.88,1.91,1.91,0,0,0-1.78,1.88Z"/><path class="cls-3" d="M109.51,405.68c0-.75,0-1.4-.05-2h1l0,1.25h0a1.94,1.94,0,0,1,1.78-1.39,1.09,1.09,0,0,1,.32,0v1.09a2.21,2.21,0,0,0-.39,0,1.63,1.63,0,0,0-1.56,1.48,3.24,3.24,0,0,0,0,.55v3.41h-1.16Z"/><path class="cls-3" d="M60.64,427.78a1.82,1.82,0,0,0,1.26-.49c.32-.36.45-.87.45-2.4v-5.35h1.16v5.8a3.5,3.5,0,0,1-.77,2.63,3,3,0,0,1-2,.73Zm3-10a.7.7,0,0,1-.74.72.69.69,0,0,1-.7-.72.72.72,0,1,1,1.44,0Z"/><path class="cls-3" d="M71.2,422.68a3.13,3.13,0,0,1-3.18,3.4A3,3,0,0,1,65,422.79a3.12,3.12,0,0,1,3.17-3.39A3,3,0,0,1,71.2,422.68Zm-5.07.07c0,1.4.8,2.46,1.94,2.46s1.94-1,1.94-2.49c0-1.08-.54-2.45-1.92-2.45S66.13,421.54,66.13,422.75Z"/><path class="cls-3" d="M78,424.18c0,.67,0,1.25,0,1.75H77l-.07-1h0a2.39,2.39,0,0,1-2.11,1.19c-1,0-2.21-.56-2.21-2.8v-3.74h1.16v3.53c0,1.22.38,2.05,1.43,2.05a1.69,1.69,0,0,0,1.54-1.07,1.73,1.73,0,0,0,.1-.59v-3.92H78Z"/><path class="cls-3" d="M79.94,421.53c0-.75,0-1.39,0-2h1l0,1.26h0a2,2,0,0,1,1.78-1.4,1.69,1.69,0,0,1,.33,0v1.09a2.33,2.33,0,0,0-.4,0A1.61,1.61,0,0,0,81.15,422a3,3,0,0,0-.05.54v3.41H79.94Z"/><path class="cls-3" d="M84.32,421.27c0-.67,0-1.2,0-1.73h1l.07,1h0a2.35,2.35,0,0,1,2.11-1.19c.88,0,2.25.53,2.25,2.72v3.81H88.6v-3.68c0-1-.39-1.9-1.48-1.9a1.68,1.68,0,0,0-1.57,1.19,2.19,2.19,0,0,0-.08.54v3.85H84.32Z"/><path class="cls-3" d="M95.19,425.93l-.1-.8h0a2.37,2.37,0,0,1-2,.95,1.82,1.82,0,0,1-1.95-1.83c0-1.55,1.37-2.4,3.84-2.39v-.13a1.31,1.31,0,0,0-1.45-1.47,3.11,3.11,0,0,0-1.67.47l-.26-.77a4,4,0,0,1,2.11-.56c2,0,2.43,1.33,2.43,2.61v2.39a10.16,10.16,0,0,0,.09,1.53ZM95,422.67c-1.26,0-2.69.2-2.69,1.44a1,1,0,0,0,1.08,1.11A1.61,1.61,0,0,0,95,424.15a1.26,1.26,0,0,0,.05-.37Z"/><path class="cls-3" d="M98,416.55h1.15v9.38H98Z"/><path class="cls-3" d="M102.43,417.74a.72.72,0,1,1-1.44,0,.72.72,0,0,1,.73-.73A.69.69,0,0,1,102.43,417.74Zm-1.29,8.19v-6.39h1.15v6.39Z"/><path class="cls-3" d="M104.06,424.75a3.15,3.15,0,0,0,1.54.46c.85,0,1.24-.42,1.24-1s-.33-.85-1.18-1.17c-1.16-.41-1.7-1-1.7-1.81a2,2,0,0,1,2.21-1.87,3.1,3.1,0,0,1,1.57.39l-.29.85a2.49,2.49,0,0,0-1.31-.38c-.69,0-1.06.4-1.06.88s.37.76,1.21,1.09c1.1.41,1.67,1,1.68,1.92,0,1.13-.88,1.92-2.39,1.92a3.71,3.71,0,0,1-1.8-.44Z"/><path class="cls-3" d="M110.85,417.7v1.84h1.67v.88h-1.67v3.45c0,.79.23,1.24.88,1.24a2.33,2.33,0,0,0,.68-.08l0,.88a3,3,0,0,1-1,.16,1.6,1.6,0,0,1-1.25-.49,2.45,2.45,0,0,1-.46-1.67v-3.49h-1v-.88h1V418Z"/><path class="cls-3" d="M172.71,497.89h10.08a0,0,0,0,1,0,0v67a0,0,0,0,1,0,0H167.08a0,0,0,0,1,0,0V503.52A5.63,5.63,0,0,1,172.71,497.89Z" transform="translate(-356.45 706.32) rotate(-90)"/><path class="cls-3" d="M169.44,522.08h16.61a0,0,0,0,1,0,0v67a0,0,0,0,1,0,0H163.81a0,0,0,0,1,0,0V527.71A5.63,5.63,0,0,1,169.44,522.08Z" transform="translate(-380.64 730.51) rotate(-90)"/><path class="cls-3" d="M55.42,665.71H300.07a0,0,0,0,1,0,0v67a0,0,0,0,1,0,0H49.79a0,0,0,0,1,0,0V671.34A5.63,5.63,0,0,1,55.42,665.71Z" transform="translate(-524.27 874.14) rotate(-90)"/><path class="cls-3" d="M50.4,533.28l-2.26-8.9h1.22l1.06,4.51c.26,1.11.5,2.21.65,3.07h0c.15-.88.43-1.94.73-3.09L53,524.38h1.2l1.09,4.51c.24,1.07.48,2.12.62,3.06h0c.18-1,.42-2,.7-3.08l1.18-4.49H59l-2.53,8.9h-1.2l-1.12-4.63a27.32,27.32,0,0,1-.59-2.91h0a25.77,25.77,0,0,1-.69,2.91l-1.26,4.63Z"/><path class="cls-3" d="M64.73,529.11H61.28v3.22h3.86v.95h-5v-8.9h4.82v1H61.28v2.82h3.45Z"/><path class="cls-3" d="M66.62,524.5a16.05,16.05,0,0,1,2.45-.19,5.1,5.1,0,0,1,3.61,1.12,4.08,4.08,0,0,1,1.26,3.18,4.77,4.77,0,0,1-1.28,3.47,5.54,5.54,0,0,1-4,1.28,17.93,17.93,0,0,1-2.09-.1Zm1.16,7.88a7.83,7.83,0,0,0,1.15,0,3.41,3.41,0,0,0,3.8-3.77c0-2.11-1.18-3.43-3.6-3.43a7.09,7.09,0,0,0-1.35.11Z"/><path class="cls-3" d="M83,528.74c0,3.06-1.86,4.69-4.13,4.69s-4-1.83-4-4.52,1.75-4.68,4.13-4.68S83,526.1,83,528.74Zm-6.92.14c0,1.91,1,3.61,2.85,3.61s2.85-1.67,2.85-3.7c0-1.77-.92-3.62-2.84-3.62S76.12,526.93,76.12,528.88Z"/><path class="cls-3" d="M84.52,524.5a16.16,16.16,0,0,1,2.45-.19,5.1,5.1,0,0,1,3.61,1.12,4,4,0,0,1,1.26,3.18,4.77,4.77,0,0,1-1.28,3.47,5.53,5.53,0,0,1-3.94,1.28,18,18,0,0,1-2.1-.1Zm1.16,7.88a7.9,7.9,0,0,0,1.16,0,3.41,3.41,0,0,0,3.79-3.77c0-2.11-1.18-3.43-3.6-3.43a7.17,7.17,0,0,0-1.35.11Z"/><path class="cls-3" d="M94.58,530.49l-.92,2.79H92.47l3-8.9h1.38l3,8.9H98.69l-1-2.79Zm2.93-.9L96.63,527c-.2-.58-.33-1.11-.46-1.62h0c-.13.52-.27,1.06-.44,1.61l-.88,2.58Z"/><path class="cls-3" d="M101.91,525.35H99.19v-1h6.6v1h-2.73v7.93h-1.15Z"/><path class="cls-3" d="M107.23,530.49l-.92,2.79h-1.2l3-8.9h1.39l3,8.9h-1.23l-1-2.79Zm2.92-.9-.88-2.57c-.19-.58-.33-1.11-.46-1.62h0c-.13.52-.27,1.06-.44,1.61l-.88,2.58Z"/><path class="cls-3" d="M43.21,539.76v7.73c0,.57,0,1.21,0,1.65h-1L42.17,548h0A2.32,2.32,0,0,1,40,549.28c-1.55,0-2.74-1.31-2.74-3.24,0-2.14,1.32-3.44,2.87-3.44a2.14,2.14,0,0,1,1.93,1h0v-3.81Zm-1.15,5.59a2.83,2.83,0,0,0-.05-.5,1.73,1.73,0,0,0-1.69-1.34c-1.2,0-1.92,1.06-1.92,2.46s.65,2.38,1.9,2.38A1.76,1.76,0,0,0,42,547a1.88,1.88,0,0,0,.06-.49Z"/><path class="cls-3" d="M48.69,549.14l-.1-.81h0a2.37,2.37,0,0,1-1.95.95,1.82,1.82,0,0,1-2-1.83c0-1.55,1.37-2.4,3.84-2.38v-.14A1.32,1.32,0,0,0,47,543.46a3.1,3.1,0,0,0-1.66.48l-.27-.78a4.05,4.05,0,0,1,2.11-.56c2,0,2.43,1.34,2.43,2.62v2.39a10.25,10.25,0,0,0,.1,1.53Zm-.18-3.27c-1.26,0-2.7.2-2.7,1.44a1,1,0,0,0,1.09,1.11,1.61,1.61,0,0,0,1.56-1.07,1.16,1.16,0,0,0,0-.36Z"/><path class="cls-3" d="M52.86,540.91v1.84h1.67v.88H52.86v3.44c0,.8.23,1.25.88,1.25a2.15,2.15,0,0,0,.67-.09l.05.89a2.89,2.89,0,0,1-1,.16,1.62,1.62,0,0,1-1.25-.5,2.42,2.42,0,0,1-.45-1.66v-3.49h-1v-.88h1v-1.54Z"/><path class="cls-3" d="M59.38,549.14l-.1-.81h0a2.37,2.37,0,0,1-2,.95,1.83,1.83,0,0,1-2-1.83c0-1.55,1.38-2.4,3.84-2.38v-.14a1.31,1.31,0,0,0-1.45-1.47,3.11,3.11,0,0,0-1.67.48l-.26-.78a4,4,0,0,1,2.11-.56c2,0,2.43,1.34,2.43,2.62v2.39a9.07,9.07,0,0,0,.1,1.53Zm-.18-3.27c-1.26,0-2.7.2-2.7,1.44a1,1,0,0,0,1.08,1.11,1.59,1.59,0,0,0,1.56-1.07,1.18,1.18,0,0,0,.06-.36Z"/><path class="cls-3" d="M60.64,551a1.82,1.82,0,0,0,1.26-.5c.32-.36.45-.86.45-2.4v-5.34h1.16v5.79a3.53,3.53,0,0,1-.77,2.64,3,3,0,0,1-2,.72Zm3-10a.7.7,0,0,1-.74.72.69.69,0,0,1-.7-.72.72.72,0,1,1,1.44,0Z"/><path class="cls-3" d="M71.2,545.88a3.13,3.13,0,0,1-3.18,3.4A3,3,0,0,1,65,546a3.12,3.12,0,0,1,3.17-3.39A3,3,0,0,1,71.2,545.88Zm-5.07.08c0,1.4.8,2.45,1.94,2.45s1.94-1,1.94-2.49c0-1.08-.54-2.45-1.92-2.45S66.13,544.74,66.13,546Z"/><path class="cls-3" d="M78,547.39c0,.67,0,1.24,0,1.75H77l-.06-1h0a2.37,2.37,0,0,1-2.11,1.19c-1,0-2.21-.56-2.21-2.8v-3.73h1.16v3.53c0,1.22.38,2,1.43,2a1.7,1.7,0,0,0,1.54-1.06,1.84,1.84,0,0,0,.1-.6v-3.91H78Z"/><path class="cls-3" d="M79.94,544.74c0-.76,0-1.4,0-2h1L81,544h0a2,2,0,0,1,1.78-1.4,1.15,1.15,0,0,1,.33,0v1.09a1.59,1.59,0,0,0-.4,0,1.61,1.61,0,0,0-1.55,1.49,3,3,0,0,0-.05.54v3.42H79.94Z"/><path class="cls-3" d="M84.32,544.47c0-.66,0-1.19-.06-1.72h1l.07,1h0a2.36,2.36,0,0,1,2.11-1.2c.88,0,2.25.53,2.25,2.73v3.81H88.6v-3.69c0-1-.39-1.89-1.48-1.89a1.68,1.68,0,0,0-1.57,1.19,1.75,1.75,0,0,0-.08.54v3.85H84.32Z"/><path class="cls-3" d="M95.19,549.14l-.1-.81h0a2.39,2.39,0,0,1-2,.95,1.82,1.82,0,0,1-1.95-1.83c0-1.55,1.37-2.4,3.84-2.38v-.14a1.32,1.32,0,0,0-1.46-1.47,3.1,3.1,0,0,0-1.66.48l-.26-.78a4,4,0,0,1,2.1-.56c2,0,2.43,1.34,2.43,2.62v2.39a10.25,10.25,0,0,0,.1,1.53ZM95,545.87c-1.26,0-2.7.2-2.7,1.44a1,1,0,0,0,1.09,1.11A1.61,1.61,0,0,0,95,547.35,1.16,1.16,0,0,0,95,547Z"/><path class="cls-3" d="M98,539.76h1.15v9.38H98Z"/><path class="cls-3" d="M102.43,540.94a.72.72,0,1,1-1.44,0,.7.7,0,0,1,.72-.72A.69.69,0,0,1,102.43,540.94Zm-1.3,8.2v-6.39h1.16v6.39Z"/><path class="cls-3" d="M104.06,548a3.15,3.15,0,0,0,1.54.46c.85,0,1.24-.42,1.24-.95s-.34-.85-1.18-1.17c-1.16-.42-1.71-1-1.7-1.81a2,2,0,0,1,2.21-1.88,3,3,0,0,1,1.56.4l-.29.84a2.52,2.52,0,0,0-1.31-.38c-.68,0-1,.4-1,.88s.37.77,1.21,1.09c1.1.41,1.67,1,1.67,1.92,0,1.13-.88,1.93-2.38,1.93a3.6,3.6,0,0,1-1.8-.45Z"/><path class="cls-3" d="M110.85,540.91v1.84h1.67v.88h-1.67v3.44c0,.8.23,1.25.88,1.25a2.15,2.15,0,0,0,.67-.09l.06.89a3,3,0,0,1-1,.16,1.62,1.62,0,0,1-1.26-.5,2.42,2.42,0,0,1-.45-1.66v-3.49h-1v-.88h1v-1.54Z"/><line class="cls-4" x1="118.9" y1="564.27" x2="142.77" y2="564.08"/><path class="cls-3" d="M49.05,560.34h1.16v7.93H54v1h-5Z"/><path class="cls-3" d="M56.44,560.34v8.9H55.29v-8.9Z"/><path class="cls-3" d="M58.44,560.46a11,11,0,0,1,2.11-.19,3.66,3.66,0,0,1,2.44.64,1.9,1.9,0,0,1,.75,1.58,2.11,2.11,0,0,1-1.51,2v0a2.27,2.27,0,0,1,1.84,2.23,2.32,2.32,0,0,1-.76,1.77,4.4,4.4,0,0,1-3.08.84,16.58,16.58,0,0,1-1.79-.1Zm1.15,3.65h1.06c1.2,0,1.92-.64,1.92-1.51,0-1-.79-1.45-2-1.45a5,5,0,0,0-1,.08Zm0,4.26a6.36,6.36,0,0,0,1,0c1.2,0,2.3-.43,2.3-1.73s-1-1.72-2.31-1.72h-1Z"/><path class="cls-3" d="M70.21,565.07H66.76v3.21h3.86v1h-5v-8.9h4.82v.95H66.76v2.82h3.45ZM70,558.32l-1.69,1.54h-.94l1.22-1.54Z"/><path class="cls-3" d="M72.1,560.46a12.09,12.09,0,0,1,2.22-.19,3.68,3.68,0,0,1,2.58.73,2.23,2.23,0,0,1,.7,1.69A2.35,2.35,0,0,1,75.92,565v0a2.24,2.24,0,0,1,1.3,1.81,15.77,15.77,0,0,0,.69,2.44H76.72a11.22,11.22,0,0,1-.59-2.13c-.26-1.22-.75-1.69-1.79-1.73H73.25v3.86H72.1Zm1.15,4h1.18c1.23,0,2-.67,2-1.69s-.83-1.66-2-1.66a5.1,5.1,0,0,0-1.14.1Z"/><path class="cls-3" d="M80.72,566.44l-.92,2.8H78.61l3-8.9H83l3,8.9H84.83l-1-2.8Zm2.93-.9L82.77,563c-.2-.58-.33-1.11-.46-1.63h0c-.13.53-.27,1.07-.44,1.61L81,565.54Z"/><path class="cls-3" d="M88.05,561.31H85.33v-1h6.6v1H89.2v7.93H88.05Z"/><path class="cls-3" d="M94.07,560.34v8.9H92.91v-8.9Z"/><path class="cls-3" d="M103.69,564.7c0,3.06-1.87,4.69-4.14,4.69s-4-1.83-4-4.52,1.75-4.68,4.12-4.68S103.69,562.05,103.69,564.7Zm-6.92.14c0,1.91,1,3.61,2.85,3.61s2.85-1.68,2.85-3.7c0-1.77-.93-3.62-2.84-3.62S96.77,562.89,96.77,564.84Z"/><path class="cls-3" d="M105.17,569.24v-8.9h1.27l2.85,4.5a25.29,25.29,0,0,1,1.59,2.9l0,0c-.11-1.19-.13-2.27-.13-3.65v-3.73h1.09v8.9H110.7l-2.83-4.51a28.16,28.16,0,0,1-1.66-3h0c.07,1.13.08,2.2.08,3.67v3.81Z"/><path class="cls-3" d="M43.21,575.71v7.74c0,.57,0,1.2,0,1.65h-1L42.17,584h0A2.34,2.34,0,0,1,40,585.24c-1.55,0-2.74-1.31-2.74-3.25,0-2.13,1.32-3.43,2.87-3.43a2.14,2.14,0,0,1,1.93,1h0v-3.82Zm-1.15,5.6a2.73,2.73,0,0,0-.05-.5,1.72,1.72,0,0,0-1.69-1.34c-1.2,0-1.92,1.06-1.92,2.46s.65,2.38,1.9,2.38a1.76,1.76,0,0,0,1.7-1.4,2,2,0,0,0,.06-.5Z"/><path class="cls-3" d="M48.69,585.1l-.1-.81h0a2.37,2.37,0,0,1-1.95,1,1.82,1.82,0,0,1-2-1.83c0-1.55,1.37-2.4,3.84-2.38v-.14A1.32,1.32,0,0,0,47,579.42a3.1,3.1,0,0,0-1.66.47l-.27-.77a4.05,4.05,0,0,1,2.11-.56c2,0,2.43,1.33,2.43,2.62v2.39a10.25,10.25,0,0,0,.1,1.53Zm-.18-3.27c-1.26,0-2.7.2-2.7,1.44a1,1,0,0,0,1.09,1.11,1.61,1.61,0,0,0,1.56-1.07,1.22,1.22,0,0,0,0-.37Z"/><path class="cls-3" d="M52.86,576.86v1.84h1.67v.89H52.86V583c0,.8.23,1.24.88,1.24a2.21,2.21,0,0,0,.67-.08l.05.88a2.89,2.89,0,0,1-1,.16,1.61,1.61,0,0,1-1.25-.49,2.44,2.44,0,0,1-.45-1.67v-3.48h-1v-.89h1v-1.53Z"/><path class="cls-3" d="M59.38,585.1l-.1-.81h0a2.37,2.37,0,0,1-2,1,1.83,1.83,0,0,1-2-1.83c0-1.55,1.38-2.4,3.84-2.38v-.14a1.31,1.31,0,0,0-1.45-1.47,3.11,3.11,0,0,0-1.67.47l-.26-.77a4,4,0,0,1,2.11-.56c2,0,2.43,1.33,2.43,2.62v2.39a9.07,9.07,0,0,0,.1,1.53Zm-.18-3.27c-1.26,0-2.7.2-2.7,1.44a1,1,0,0,0,1.08,1.11,1.59,1.59,0,0,0,1.56-1.07,1.24,1.24,0,0,0,.06-.37Z"/><path class="cls-3" d="M60.64,586.94a1.77,1.77,0,0,0,1.26-.49c.32-.36.45-.87.45-2.4V578.7h1.16v5.8a3.5,3.5,0,0,1-.77,2.63,3,3,0,0,1-2,.73Zm3-10a.7.7,0,0,1-.74.72.69.69,0,0,1-.7-.72.72.72,0,1,1,1.44,0Z"/><path class="cls-3" d="M71.2,581.84a3.13,3.13,0,0,1-3.18,3.4A3,3,0,0,1,65,582a3.12,3.12,0,0,1,3.17-3.39A3,3,0,0,1,71.2,581.84Zm-5.07.07c0,1.4.8,2.46,1.94,2.46s1.94-1,1.94-2.49c0-1.08-.54-2.45-1.92-2.45S66.13,580.7,66.13,581.91Z"/><path class="cls-3" d="M78,583.35c0,.67,0,1.24,0,1.75H77L77,584.05h0a2.39,2.39,0,0,1-2.11,1.19c-1,0-2.21-.56-2.21-2.8V578.7h1.16v3.54c0,1.21.38,2,1.43,2a1.7,1.7,0,0,0,1.54-1.06,1.84,1.84,0,0,0,.1-.6V578.7H78Z"/><path class="cls-3" d="M79.94,580.69c0-.75,0-1.39,0-2h1L81,580h0a2,2,0,0,1,1.78-1.4,1.69,1.69,0,0,1,.33,0v1.09a2.33,2.33,0,0,0-.4,0,1.61,1.61,0,0,0-1.55,1.49,3,3,0,0,0-.05.54v3.42H79.94Z"/><path class="cls-3" d="M84.32,580.43c0-.67,0-1.2-.06-1.73h1l.07,1.06h0a2.36,2.36,0,0,1,2.11-1.2c.88,0,2.25.53,2.25,2.72v3.82H88.6v-3.69c0-1-.39-1.9-1.48-1.9a1.72,1.72,0,0,0-1.65,1.73v3.86H84.32Z"/><path class="cls-3" d="M95.19,585.1l-.1-.81h0a2.39,2.39,0,0,1-2,1,1.82,1.82,0,0,1-1.95-1.83c0-1.55,1.37-2.4,3.84-2.38v-.14a1.32,1.32,0,0,0-1.46-1.47,3.1,3.1,0,0,0-1.66.47l-.26-.77a4,4,0,0,1,2.1-.56c2,0,2.43,1.33,2.43,2.62v2.39a10.25,10.25,0,0,0,.1,1.53ZM95,581.83c-1.26,0-2.7.2-2.7,1.44a1,1,0,0,0,1.09,1.11A1.61,1.61,0,0,0,95,583.31a1.22,1.22,0,0,0,.05-.37Z"/><path class="cls-3" d="M98,575.71h1.15v9.39H98Z"/><path class="cls-3" d="M102.43,576.9a.72.72,0,1,1-1.44,0,.71.71,0,0,1,.72-.73A.7.7,0,0,1,102.43,576.9Zm-1.3,8.2v-6.4h1.16v6.4Z"/><path class="cls-3" d="M104.06,583.91a3.15,3.15,0,0,0,1.54.46c.85,0,1.24-.42,1.24-1s-.34-.86-1.18-1.17c-1.16-.42-1.71-1-1.7-1.82a2,2,0,0,1,2.21-1.87,3.13,3.13,0,0,1,1.56.39l-.29.85a2.43,2.43,0,0,0-1.31-.38c-.68,0-1,.4-1,.88s.37.76,1.21,1.09c1.1.41,1.67,1,1.67,1.92,0,1.13-.88,1.92-2.38,1.92a3.71,3.71,0,0,1-1.8-.44Z"/><path class="cls-3" d="M110.85,576.86v1.84h1.67v.89h-1.67V583c0,.8.23,1.24.88,1.24a2.21,2.21,0,0,0,.67-.08l.06.88a3,3,0,0,1-1,.16,1.62,1.62,0,0,1-1.26-.49,2.44,2.44,0,0,1-.45-1.67v-3.48h-1v-.89h1v-1.53Z"/><line class="cls-4" x1="120.07" y1="679.75" x2="141.5" y2="679.75"/><path class="cls-3" d="M50.4,683.43l-2.26-8.91h1.22L50.42,679c.26,1.11.5,2.21.65,3.08h0c.15-.89.43-2,.73-3.1L53,674.52h1.2L55.31,679c.24,1.07.48,2.12.62,3.06h0c.18-1,.42-2,.7-3.08l1.18-4.49H59l-2.53,8.91h-1.2l-1.12-4.64a26.83,26.83,0,0,1-.59-2.91h0a25.77,25.77,0,0,1-.69,2.91l-1.26,4.64Z"/><path class="cls-3" d="M64.73,679.25H61.28v3.22h3.86v1h-5v-8.91h4.82v1H61.28v2.82h3.45Z"/><path class="cls-3" d="M66.62,674.64a16.05,16.05,0,0,1,2.45-.19,5.1,5.1,0,0,1,3.61,1.12,4.09,4.09,0,0,1,1.26,3.19,4.75,4.75,0,0,1-1.28,3.46,5.55,5.55,0,0,1-4,1.29,20.45,20.45,0,0,1-2.09-.1Zm1.16,7.88a7.67,7.67,0,0,0,1.15.06c2.47,0,3.8-1.37,3.8-3.78,0-2.1-1.18-3.43-3.6-3.43a6.92,6.92,0,0,0-1.35.12Z"/><path class="cls-3" d="M83,678.89c0,3.05-1.86,4.68-4.13,4.68s-4-1.83-4-4.52,1.75-4.67,4.13-4.67S83,676.24,83,678.89Zm-6.92.14c0,1.9,1,3.61,2.85,3.61s2.85-1.68,2.85-3.71c0-1.77-.92-3.62-2.84-3.62S76.12,677.08,76.12,679Z"/><path class="cls-3" d="M84.52,674.64a16.16,16.16,0,0,1,2.45-.19,5.1,5.1,0,0,1,3.61,1.12,4.05,4.05,0,0,1,1.26,3.19,4.75,4.75,0,0,1-1.28,3.46,5.54,5.54,0,0,1-3.94,1.29,20.52,20.52,0,0,1-2.1-.1Zm1.16,7.88a7.74,7.74,0,0,0,1.16.06,3.42,3.42,0,0,0,3.79-3.78c0-2.1-1.18-3.43-3.6-3.43a7,7,0,0,0-1.35.12Z"/><path class="cls-3" d="M94.58,680.63l-.92,2.8H92.47l3-8.91h1.38l3,8.91H98.69l-1-2.8Zm2.93-.9-.88-2.56c-.2-.59-.33-1.12-.46-1.63h0c-.13.52-.27,1.07-.44,1.61l-.88,2.58Z"/><path class="cls-3" d="M101.91,675.49H99.19v-1h6.6v1h-2.73v7.94h-1.15Z"/><path class="cls-3" d="M107.23,680.63l-.92,2.8h-1.2l3-8.91h1.39l3,8.91h-1.23l-1-2.8Zm2.92-.9-.88-2.56c-.19-.59-.33-1.12-.46-1.63h0c-.13.52-.27,1.07-.44,1.61l-.88,2.58Z"/><path class="cls-3" d="M43.21,689.9v7.73c0,.57,0,1.21,0,1.65h-1l-.06-1.1h0A2.34,2.34,0,0,1,40,699.43c-1.55,0-2.74-1.31-2.74-3.25,0-2.14,1.32-3.44,2.87-3.44a2.14,2.14,0,0,1,1.93,1h0V689.9Zm-1.15,5.59A2.92,2.92,0,0,0,42,695a1.72,1.72,0,0,0-1.69-1.33c-1.2,0-1.92,1.05-1.92,2.46s.65,2.37,1.9,2.37A1.75,1.75,0,0,0,42,697.1a2,2,0,0,0,.06-.5Z"/><path class="cls-3" d="M48.69,699.28l-.1-.81h0a2.37,2.37,0,0,1-1.95,1,1.83,1.83,0,0,1-2-1.84c0-1.55,1.37-2.4,3.84-2.38v-.13A1.33,1.33,0,0,0,47,693.6a3.1,3.1,0,0,0-1.66.48l-.27-.77a4,4,0,0,1,2.11-.57c2,0,2.43,1.34,2.43,2.62v2.39a10.16,10.16,0,0,0,.1,1.53ZM48.51,696c-1.26,0-2.7.2-2.7,1.43a1,1,0,0,0,1.09,1.11,1.6,1.6,0,0,0,1.56-1.06,1.26,1.26,0,0,0,0-.37Z"/><path class="cls-3" d="M52.86,691.05v1.84h1.67v.88H52.86v3.44c0,.8.23,1.25.88,1.25a2.58,2.58,0,0,0,.67-.08l.05.88a2.89,2.89,0,0,1-1,.16,1.65,1.65,0,0,1-1.25-.49,2.47,2.47,0,0,1-.45-1.67v-3.49h-1v-.88h1v-1.54Z"/><path class="cls-3" d="M59.38,699.28l-.1-.81h0a2.37,2.37,0,0,1-2,1,1.83,1.83,0,0,1-2-1.84c0-1.55,1.38-2.4,3.84-2.38v-.13a1.32,1.32,0,0,0-1.45-1.48,3.11,3.11,0,0,0-1.67.48l-.26-.77a3.94,3.94,0,0,1,2.11-.57c2,0,2.43,1.34,2.43,2.62v2.39a9,9,0,0,0,.1,1.53ZM59.2,696c-1.26,0-2.7.2-2.7,1.43a1,1,0,0,0,1.08,1.11,1.58,1.58,0,0,0,1.56-1.06,1.29,1.29,0,0,0,.06-.37Z"/><path class="cls-3" d="M60.64,701.13a1.86,1.86,0,0,0,1.26-.49c.32-.36.45-.87.45-2.4v-5.35h1.16v5.79a3.53,3.53,0,0,1-.77,2.64,3,3,0,0,1-2,.72Zm3-10a.71.71,0,0,1-.74.73.73.73,0,1,1,.74-.73Z"/><path class="cls-3" d="M71.2,696A3.14,3.14,0,0,1,68,699.43a3,3,0,0,1-3.07-3.3,3.12,3.12,0,0,1,3.17-3.39A3,3,0,0,1,71.2,696Zm-5.07.08c0,1.4.8,2.46,1.94,2.46s1.94-1,1.94-2.5c0-1.08-.54-2.44-1.92-2.44S66.13,694.89,66.13,696.1Z"/><path class="cls-3" d="M78,697.53c0,.67,0,1.24,0,1.75H77l-.06-1h0a2.39,2.39,0,0,1-2.11,1.19c-1,0-2.21-.56-2.21-2.8v-3.74h1.16v3.53c0,1.22.38,2.05,1.43,2.05a1.7,1.7,0,0,0,1.54-1.07,1.79,1.79,0,0,0,.1-.6v-3.91H78Z"/><path class="cls-3" d="M79.94,694.88c0-.75,0-1.4,0-2h1l0,1.25h0a2,2,0,0,1,1.78-1.4,1.15,1.15,0,0,1,.33,0v1.09a2.33,2.33,0,0,0-.4,0,1.61,1.61,0,0,0-1.55,1.48,3.21,3.21,0,0,0-.05.55v3.41H79.94Z"/><path class="cls-3" d="M84.32,694.62c0-.67,0-1.2-.06-1.73h1l.07,1.05h0a2.36,2.36,0,0,1,2.11-1.2c.88,0,2.25.53,2.25,2.73v3.81H88.6V695.6c0-1-.39-1.9-1.48-1.9a1.68,1.68,0,0,0-1.57,1.19,1.75,1.75,0,0,0-.08.54v3.85H84.32Z"/><path class="cls-3" d="M95.19,699.28l-.1-.81h0a2.39,2.39,0,0,1-2,1,1.83,1.83,0,0,1-1.95-1.84c0-1.55,1.37-2.4,3.84-2.38v-.13a1.33,1.33,0,0,0-1.46-1.48,3.1,3.1,0,0,0-1.66.48l-.26-.77a3.9,3.9,0,0,1,2.1-.57c2,0,2.43,1.34,2.43,2.62v2.39a10.16,10.16,0,0,0,.1,1.53ZM95,696c-1.26,0-2.7.2-2.7,1.43a1,1,0,0,0,1.09,1.11A1.6,1.6,0,0,0,95,697.5a1.26,1.26,0,0,0,.05-.37Z"/><path class="cls-3" d="M98,689.9h1.15v9.38H98Z"/><path class="cls-3" d="M102.43,691.08a.72.72,0,1,1-.72-.72A.69.69,0,0,1,102.43,691.08Zm-1.3,8.2v-6.39h1.16v6.39Z"/><path class="cls-3" d="M104.06,698.1a3.15,3.15,0,0,0,1.54.45c.85,0,1.24-.41,1.24-.95s-.34-.85-1.18-1.17c-1.16-.42-1.71-1-1.7-1.81a2,2,0,0,1,2.21-1.88,3,3,0,0,1,1.56.4l-.29.84a2.53,2.53,0,0,0-1.31-.37c-.68,0-1,.39-1,.87s.37.77,1.21,1.09c1.1.41,1.67,1,1.67,1.92,0,1.14-.88,1.93-2.38,1.93a3.6,3.6,0,0,1-1.8-.45Z"/><path class="cls-3" d="M110.85,691.05v1.84h1.67v.88h-1.67v3.44c0,.8.23,1.25.88,1.25a2.58,2.58,0,0,0,.67-.08l.06.88a3,3,0,0,1-1,.16,1.65,1.65,0,0,1-1.26-.49,2.47,2.47,0,0,1-.45-1.67v-3.49h-1v-.88h1v-1.54Z"/><path class="cls-3" d="M63.6,705.75v7.73c0,.57,0,1.21,0,1.65h-1l-.06-1.1h0a2.36,2.36,0,0,1-2.17,1.25c-1.55,0-2.74-1.31-2.74-3.25,0-2.13,1.31-3.43,2.87-3.43a2.14,2.14,0,0,1,1.93,1h0v-3.82Zm-1.16,5.59a2,2,0,0,0,0-.49,1.71,1.71,0,0,0-1.68-1.34c-1.2,0-1.92,1-1.92,2.46s.64,2.37,1.9,2.37A1.74,1.74,0,0,0,62.38,713a2,2,0,0,0,.06-.5Z"/><path class="cls-3" d="M66.18,712.15a2,2,0,0,0,2.19,2.22,4.27,4.27,0,0,0,1.77-.33l.2.82a5,5,0,0,1-2.13.41,3,3,0,0,1-3.14-3.22c0-1.94,1.14-3.45,3-3.45,2.09,0,2.63,1.83,2.63,3a2.56,2.56,0,0,1,0,.55Zm3.4-.84a1.64,1.64,0,0,0-1.6-1.88,1.9,1.9,0,0,0-1.78,1.88Z"/><path class="cls-3" d="M72.6,708.74l1.25,3.59a17.11,17.11,0,0,1,.52,1.65h0c.15-.53.33-1.07.53-1.65l1.25-3.59h1.22l-2.51,6.39H73.79l-2.44-6.39Z"/><path class="cls-3" d="M79,712.15a2,2,0,0,0,2.19,2.22A4.27,4.27,0,0,0,83,714l.2.82a5,5,0,0,1-2.13.41,3,3,0,0,1-3.14-3.22c0-1.94,1.14-3.45,3-3.45,2.09,0,2.63,1.83,2.63,3a2.56,2.56,0,0,1,0,.55Zm3.4-.84a1.64,1.64,0,0,0-1.6-1.88A1.91,1.91,0,0,0,79,711.31Z"/><path class="cls-3" d="M85,705.75h1.16v9.38H85Z"/><path class="cls-3" d="M93.89,711.88a3.13,3.13,0,0,1-3.17,3.4A3,3,0,0,1,87.64,712a3.12,3.12,0,0,1,3.18-3.39A3,3,0,0,1,93.89,711.88Zm-5.06.07c0,1.4.8,2.46,1.93,2.46s1.95-1,1.95-2.49c0-1.08-.54-2.45-1.92-2.45S88.83,710.74,88.83,712Z"/><path class="cls-3" d="M95.36,710.82c0-.81,0-1.47,0-2.08h1l.06,1.09h0a2.48,2.48,0,0,1,2.26-1.23c1.55,0,2.72,1.3,2.72,3.24,0,2.3-1.41,3.44-2.91,3.44a2.23,2.23,0,0,1-2-1h0v3.48H95.36Zm1.16,1.71a1.86,1.86,0,0,0,0,.48,1.77,1.77,0,0,0,1.73,1.36c1.24,0,2-1,2-2.48,0-1.27-.67-2.37-1.9-2.37A1.85,1.85,0,0,0,96.59,711a1.92,1.92,0,0,0-.07.48Z"/><path class="cls-3" d="M103.54,712.15a2,2,0,0,0,2.19,2.22,4.27,4.27,0,0,0,1.77-.33l.2.82a5,5,0,0,1-2.13.41,3,3,0,0,1-3.14-3.22c0-1.94,1.14-3.45,3-3.45,2.09,0,2.63,1.83,2.63,3a2.56,2.56,0,0,1,0,.55Zm3.4-.84a1.64,1.64,0,0,0-1.6-1.88,1.9,1.9,0,0,0-1.78,1.88Z"/><path class="cls-3" d="M109.51,710.73c0-.75,0-1.39-.06-2h1l0,1.26h0a1.94,1.94,0,0,1,1.78-1.4,1.09,1.09,0,0,1,.32,0v1.09a2.21,2.21,0,0,0-.39,0,1.63,1.63,0,0,0-1.56,1.49,3,3,0,0,0,0,.54v3.41h-1.15Z"/><path class="cls-8" d="M217.36,130.17h1.15v6c0,2.37-1.16,3.1-2.69,3.1a3.62,3.62,0,0,1-1.23-.21l.16-.94a2.88,2.88,0,0,0,1,.17c1,0,1.63-.47,1.63-2.21Z"/><path class="cls-8" d="M226.2,135.82a3.13,3.13,0,0,1-3.18,3.4,3,3,0,0,1-3.07-3.29,3.12,3.12,0,0,1,3.17-3.39A3,3,0,0,1,226.2,135.82Zm-5.07.07c0,1.4.81,2.46,1.94,2.46s2-1,2-2.49c0-1.09-.55-2.45-1.93-2.45S221.13,134.68,221.13,135.89Z"/><path class="cls-8" d="M233,137.32c0,.67,0,1.25.05,1.75h-1l-.06-1h0a2.39,2.39,0,0,1-2.11,1.19c-1,0-2.2-.56-2.2-2.8v-3.74h1.15v3.53c0,1.22.38,2,1.43,2a1.7,1.7,0,0,0,1.54-1.07,1.77,1.77,0,0,0,.11-.59v-3.92H233Z"/><path class="cls-8" d="M234.94,134.67c0-.75,0-1.4-.05-2h1l.05,1.26h0a1.94,1.94,0,0,1,1.78-1.4,1.12,1.12,0,0,1,.32,0v1.09a2.33,2.33,0,0,0-.4,0,1.63,1.63,0,0,0-1.55,1.49,3,3,0,0,0-.05.54v3.41h-1.16Z"/><path class="cls-8" d="M239.32,134.41c0-.67,0-1.2,0-1.73h1l.07,1h0a2.36,2.36,0,0,1,2.11-1.19c.88,0,2.26.52,2.26,2.72v3.81H243.6v-3.68c0-1-.39-1.9-1.48-1.9a1.66,1.66,0,0,0-1.56,1.19,1.75,1.75,0,0,0-.08.54v3.85h-1.16Z"/><path class="cls-8" d="M250.2,139.07l-.11-.8h0a2.4,2.4,0,0,1-2,.95,1.83,1.83,0,0,1-1.95-1.84c0-1.54,1.37-2.39,3.84-2.38v-.13a1.32,1.32,0,0,0-1.45-1.48,3.11,3.11,0,0,0-1.67.48l-.26-.77a4,4,0,0,1,2.11-.56c1.95,0,2.43,1.33,2.43,2.61v2.39a10.24,10.24,0,0,0,.09,1.53Zm-.19-3.26c-1.25,0-2.69.2-2.69,1.43a1,1,0,0,0,1.08,1.12,1.61,1.61,0,0,0,1.56-1.07,1.26,1.26,0,0,0,0-.37Z"/><path class="cls-8" d="M253,129.69h1.16v9.38H253Z"/><path class="cls-8" d="M257.44,130.88a.73.73,0,0,1-1.45,0,.72.72,0,0,1,.73-.73A.71.71,0,0,1,257.44,130.88Zm-1.3,8.19v-6.39h1.15v6.39Z"/><path class="cls-8" d="M259.06,137.89a3.18,3.18,0,0,0,1.54.46c.85,0,1.25-.42,1.25-1s-.34-.85-1.19-1.17c-1.16-.41-1.7-1-1.7-1.81a2,2,0,0,1,2.21-1.87,3.1,3.1,0,0,1,1.57.39l-.29.84a2.59,2.59,0,0,0-1.31-.37c-.69,0-1.06.39-1.06.88s.37.76,1.21,1.09c1.1.41,1.68,1,1.68,1.92,0,1.13-.88,1.92-2.39,1.92a3.71,3.71,0,0,1-1.8-.44Z"/><path class="cls-8" d="M264.46,134.41c0-.67,0-1.2,0-1.73h1l.06,1h0a2.2,2.2,0,0,1,2-1.17,1.86,1.86,0,0,1,1.8,1.28h0a2.38,2.38,0,0,1,.72-.83,2.16,2.16,0,0,1,1.4-.45c.86,0,2.11.55,2.11,2.77v3.76h-1.13v-3.61c0-1.24-.46-2-1.39-2a1.5,1.5,0,0,0-1.38,1,1.82,1.82,0,0,0-.1.59v3.95h-1.13v-3.83c0-1-.45-1.75-1.33-1.75a1.62,1.62,0,0,0-1.45,1.16,2.06,2.06,0,0,0-.09.57v3.85h-1.13Z"/><path class="cls-8" d="M221,142.64v7.73c0,.57,0,1.21,0,1.65h-1l-.06-1.1h0a2.36,2.36,0,0,1-2.17,1.25c-1.55,0-2.74-1.31-2.74-3.25,0-2.14,1.31-3.44,2.87-3.44a2.11,2.11,0,0,1,1.92,1h0v-3.81Zm-1.16,5.59a2.18,2.18,0,0,0-.05-.5,1.72,1.72,0,0,0-1.68-1.33c-1.2,0-1.92,1-1.92,2.46s.64,2.37,1.9,2.37a1.74,1.74,0,0,0,1.69-1.39,2,2,0,0,0,.06-.5Z"/><path class="cls-8" d="M223.6,149a2,2,0,0,0,2.19,2.21,4.47,4.47,0,0,0,1.77-.32l.2.82a5,5,0,0,1-2.13.41,3,3,0,0,1-3.14-3.23c0-1.93,1.14-3.45,3-3.45,2.09,0,2.63,1.83,2.63,3a2.62,2.62,0,0,1,0,.55Zm3.4-.84a1.64,1.64,0,0,0-1.6-1.88,1.91,1.91,0,0,0-1.78,1.88Z"/><path class="cls-8" d="M235.08,145.63c0,.45-.05,1-.05,1.75v3.71a3.73,3.73,0,0,1-.91,2.93,3.46,3.46,0,0,1-2.33.76,4.17,4.17,0,0,1-2.13-.52l.29-.9a3.56,3.56,0,0,0,1.88.51c1.19,0,2.06-.62,2.06-2.23v-.72h0a2.27,2.27,0,0,1-2,1.08,2.87,2.87,0,0,1-2.72-3.13c0-2.16,1.4-3.39,2.88-3.39a2.12,2.12,0,0,1,2,1.11h0l.05-1Zm-1.2,2.51a1.72,1.72,0,0,0-.07-.52,1.67,1.67,0,0,0-1.63-1.23c-1.11,0-1.9.93-1.9,2.42,0,1.25.64,2.3,1.89,2.3a1.68,1.68,0,0,0,1.61-1.2,1.77,1.77,0,0,0,.1-.61Z"/><path class="cls-8" d="M236.87,147.62c0-.75,0-1.4-.05-2h1l0,1.25h0a2,2,0,0,1,1.78-1.4,1.15,1.15,0,0,1,.33,0v1.09a2.33,2.33,0,0,0-.4,0,1.61,1.61,0,0,0-1.55,1.48,3.21,3.21,0,0,0-.05.55V152h-1.16Z"/><path class="cls-8" d="M241.72,149a2,2,0,0,0,2.18,2.21,4.47,4.47,0,0,0,1.77-.32l.21.82a5.11,5.11,0,0,1-2.14.41,3,3,0,0,1-3.14-3.23c0-1.93,1.14-3.45,3-3.45,2.08,0,2.62,1.83,2.62,3a3.82,3.82,0,0,1,0,.55Zm3.4-.84a1.65,1.65,0,0,0-1.61-1.88,1.91,1.91,0,0,0-1.78,1.88Z"/><path class="cls-8" d="M248.33,149a2,2,0,0,0,2.19,2.21,4.47,4.47,0,0,0,1.77-.32l.2.82a5,5,0,0,1-2.13.41,3,3,0,0,1-3.14-3.23c0-1.93,1.14-3.45,3-3.45,2.09,0,2.63,1.83,2.63,3a2.62,2.62,0,0,1,0,.55Zm3.4-.84a1.64,1.64,0,0,0-1.6-1.88,1.91,1.91,0,0,0-1.78,1.88Z"/><path class="cls-8" d="M214,166.59a1.63,1.63,0,0,0,1.11-.43c.28-.32.39-.76.39-2.1v-4.68h1v5.07a3.05,3.05,0,0,1-.67,2.3,2.64,2.64,0,0,1-1.73.64Zm2.64-8.79a.61.61,0,0,1-.65.63.61.61,0,0,1-.62-.63.64.64,0,1,1,1.27,0Z"/><path class="cls-8" d="M223.25,162.12a2.74,2.74,0,0,1-2.78,3,2.67,2.67,0,0,1-2.69-2.88,2.73,2.73,0,0,1,2.78-3A2.64,2.64,0,0,1,223.25,162.12Zm-4.43.06c0,1.23.7,2.16,1.69,2.16s1.71-.92,1.71-2.19c0-.94-.48-2.14-1.69-2.14S218.82,161.12,218.82,162.18Z"/><path class="cls-8" d="M229.22,163.44c0,.59,0,1.09,0,1.53h-.89l-.06-.91h0a2.09,2.09,0,0,1-1.85,1c-.87,0-1.93-.49-1.93-2.45v-3.27h1v3.09c0,1.06.33,1.79,1.25,1.79a1.48,1.48,0,0,0,1.34-.94,1.34,1.34,0,0,0,.1-.52v-3.42h1Z"/><path class="cls-8" d="M230.91,161.12c0-.66,0-1.23,0-1.74h.9l0,1.09h0a1.7,1.7,0,0,1,1.56-1.22,1.2,1.2,0,0,1,.28,0v.95a1.78,1.78,0,0,0-.35,0,1.43,1.43,0,0,0-1.36,1.3,3.43,3.43,0,0,0,0,.47v3h-1Z"/><path class="cls-8" d="M234.74,160.89c0-.59,0-1-.05-1.51h.9l.06.92h0a2,2,0,0,1,1.85-1.05c.77,0,2,.46,2,2.38V165h-1v-3.22c0-.91-.34-1.67-1.3-1.67a1.47,1.47,0,0,0-1.37,1,1.61,1.61,0,0,0-.07.47V165h-1Z"/><path class="cls-8" d="M244.26,165l-.09-.71h0a2.08,2.08,0,0,1-1.71.84,1.6,1.6,0,0,1-1.71-1.61c0-1.35,1.2-2.1,3.36-2.08v-.12a1.15,1.15,0,0,0-1.27-1.29,2.66,2.66,0,0,0-1.46.42l-.23-.68a3.5,3.5,0,0,1,1.85-.49c1.71,0,2.12,1.17,2.12,2.29v2.09a9,9,0,0,0,.09,1.34Zm-.16-2.86c-1.1,0-2.36.18-2.36,1.26a.89.89,0,0,0,.95,1,1.41,1.41,0,0,0,1.37-.93,1.27,1.27,0,0,0,0-.32Z"/><path class="cls-8" d="M246.73,156.76h1V165h-1Z"/><path class="cls-8" d="M250.6,157.8a.61.61,0,0,1-.65.63.6.6,0,0,1-.61-.63.62.62,0,0,1,.63-.64A.61.61,0,0,1,250.6,157.8ZM249.46,165v-5.59h1V165Z"/><path class="cls-8" d="M252,163.93a2.65,2.65,0,0,0,1.34.4c.75,0,1.09-.36,1.09-.83s-.3-.75-1-1c-1-.37-1.49-.92-1.49-1.59a1.74,1.74,0,0,1,1.94-1.64,2.7,2.7,0,0,1,1.37.34l-.25.74a2.28,2.28,0,0,0-1.15-.33c-.6,0-.93.35-.93.77s.33.67,1.07,1c1,.35,1.46.84,1.46,1.68,0,1-.77,1.68-2.09,1.68a3.19,3.19,0,0,1-1.57-.39Z"/><path class="cls-8" d="M256.75,160.89c0-.59,0-1-.05-1.51h.89l.05.9h0a1.93,1.93,0,0,1,1.76-1,1.65,1.65,0,0,1,1.58,1.12h0a2.08,2.08,0,0,1,.63-.73,1.91,1.91,0,0,1,1.23-.39c.74,0,1.84.48,1.84,2.43V165h-1v-3.16c0-1.09-.4-1.73-1.21-1.73a1.33,1.33,0,0,0-1.21.92,1.6,1.6,0,0,0-.09.51V165h-1v-3.36c0-.89-.39-1.53-1.16-1.53a1.41,1.41,0,0,0-1.27,1,1.59,1.59,0,0,0-.08.5V165h-1Z"/><path class="cls-8" d="M215.24,176.88a2.75,2.75,0,0,0,1.34.4c.75,0,1.09-.36,1.09-.83s-.29-.75-1-1c-1-.36-1.49-.91-1.48-1.58a1.73,1.73,0,0,1,1.93-1.64,2.7,2.7,0,0,1,1.37.34l-.25.74a2.28,2.28,0,0,0-1.15-.33c-.6,0-.93.35-.93.77s.33.67,1.07.95c1,.36,1.46.85,1.46,1.68,0,1-.77,1.69-2.09,1.69a3.19,3.19,0,0,1-1.57-.39Z"/><path class="cls-8" d="M224,177.72a3.9,3.9,0,0,1-1.61.32,2.67,2.67,0,0,1-2.79-2.86,2.85,2.85,0,0,1,3-3,3.18,3.18,0,0,1,1.41.3l-.22.78a2.51,2.51,0,0,0-1.19-.27,2,2,0,0,0-2,2.12,1.92,1.92,0,0,0,1.95,2.09,2.9,2.9,0,0,0,1.25-.27Z"/><path class="cls-8" d="M225.14,169.71h1v3.49h0a2,2,0,0,1,.73-.72,2,2,0,0,1,1-.28c.75,0,2,.46,2,2.39v3.33h-1V174.7c0-.9-.34-1.66-1.3-1.66a1.48,1.48,0,0,0-1.37,1,1.45,1.45,0,0,0-.07.49v3.38h-1Z"/><path class="cls-8" d="M236.62,175.07a2.74,2.74,0,0,1-2.78,3,2.67,2.67,0,0,1-2.69-2.89,2.73,2.73,0,0,1,2.78-3A2.64,2.64,0,0,1,236.62,175.07Zm-4.43.06c0,1.23.7,2.15,1.69,2.15s1.71-.91,1.71-2.18c0-.94-.48-2.14-1.69-2.14S232.19,174.07,232.19,175.13Z"/><path class="cls-8" d="M243,175.07a2.74,2.74,0,0,1-2.78,3,2.67,2.67,0,0,1-2.69-2.89,2.73,2.73,0,0,1,2.78-3A2.64,2.64,0,0,1,243,175.07Zm-4.43.06c0,1.23.7,2.15,1.69,2.15s1.71-.91,1.71-2.18c0-.94-.48-2.14-1.69-2.14S238.55,174.07,238.55,175.13Z"/><path class="cls-8" d="M244.27,169.71h1v8.21h-1Z"/><path class="cls-8" d="M254.52,175.07a2.75,2.75,0,0,1-2.79,3,2.66,2.66,0,0,1-2.68-2.89,2.73,2.73,0,0,1,2.77-3A2.65,2.65,0,0,1,254.52,175.07Zm-4.44.06c0,1.23.7,2.15,1.7,2.15s1.7-.91,1.7-2.18c0-.94-.48-2.14-1.68-2.14S250.08,174.07,250.08,175.13Z"/><path class="cls-8" d="M255.9,177.92V173.1h-.78v-.78h.78v-.26a2.66,2.66,0,0,1,.65-2,2,2,0,0,1,1.36-.52,2.32,2.32,0,0,1,.87.16l-.13.78a1.76,1.76,0,0,0-.66-.12c-.85,0-1.08.76-1.08,1.62v.3h1.35v.78h-1.35v4.82Z"/><path class="cls-8" d="M220.86,190.62a5.08,5.08,0,0,1-2.06.37,3.64,3.64,0,0,1-3.84-4A3.87,3.87,0,0,1,219,183a4.25,4.25,0,0,1,1.85.34l-.25.82a3.72,3.72,0,0,0-1.57-.32,2.9,2.9,0,0,0-3,3.22,2.82,2.82,0,0,0,3,3.12,4.06,4.06,0,0,0,1.66-.32Z"/><path class="cls-8" d="M225.11,190.87l-.09-.71h0a2.07,2.07,0,0,1-1.71.83,1.59,1.59,0,0,1-1.71-1.6c0-1.36,1.2-2.1,3.36-2.08v-.12a1.15,1.15,0,0,0-1.27-1.29,2.74,2.74,0,0,0-1.46.41l-.23-.67a3.49,3.49,0,0,1,1.84-.49c1.71,0,2.13,1.16,2.13,2.28v2.1a7.92,7.92,0,0,0,.09,1.34ZM225,188c-1.1,0-2.36.17-2.36,1.26a.9.9,0,0,0,.95,1,1.38,1.38,0,0,0,1.36-.94.89.89,0,0,0,0-.32Z"/><path class="cls-8" d="M227.58,186.78c0-.58,0-1,0-1.51h.89l.06.92h0a2.06,2.06,0,0,1,1.85-1c.77,0,2,.46,2,2.38v3.34h-1v-3.23c0-.9-.34-1.66-1.3-1.66a1.47,1.47,0,0,0-1.37,1,1.73,1.73,0,0,0-.07.48v3.37h-1Z"/><path class="cls-8" d="M234,186.78c0-.58,0-1-.05-1.51h.9l.06.92h0a2.06,2.06,0,0,1,1.85-1c.77,0,2,.46,2,2.38v3.34h-1v-3.23c0-.9-.35-1.66-1.3-1.66a1.46,1.46,0,0,0-1.37,1,1.73,1.73,0,0,0-.07.48v3.37h-1Z"/><path class="cls-8" d="M241,188.25a1.79,1.79,0,0,0,1.91,1.95,3.83,3.83,0,0,0,1.55-.29l.18.72a4.57,4.57,0,0,1-1.87.36,2.61,2.61,0,0,1-2.75-2.82c0-1.7,1-3,2.63-3a2.36,2.36,0,0,1,2.31,2.63,2.55,2.55,0,0,1,0,.47Zm3-.73a1.44,1.44,0,0,0-1.41-1.64,1.66,1.66,0,0,0-1.56,1.64Z"/><path class="cls-8" d="M246.07,189.83a2.8,2.8,0,0,0,1.35.4c.74,0,1.08-.37,1.08-.83s-.29-.75-1-1c-1-.36-1.49-.91-1.49-1.58a1.73,1.73,0,0,1,1.93-1.64,2.7,2.7,0,0,1,1.37.34l-.25.74a2.15,2.15,0,0,0-1.15-.33c-.6,0-.92.35-.92.77s.33.67,1.06,1c1,.36,1.46.85,1.47,1.68,0,1-.77,1.69-2.09,1.69a3.23,3.23,0,0,1-1.58-.39Z"/><path class="cls-8" d="M220.14,275.12h-3.45v3.22h3.86v1h-5v-8.9h4.82v1h-3.66v2.82h3.45Z"/><path class="cls-8" d="M221.89,277.89a4,4,0,0,0,2.05.58c1.18,0,1.87-.62,1.87-1.52s-.48-1.31-1.68-1.76c-1.46-.51-2.36-1.28-2.36-2.53s1.15-2.41,2.89-2.41a4.09,4.09,0,0,1,2,.43l-.32.94a3.36,3.36,0,0,0-1.68-.42c-1.22,0-1.69.73-1.69,1.33,0,.83.55,1.24,1.77,1.71,1.52.59,2.28,1.32,2.28,2.62s-1,2.57-3.12,2.57a4.61,4.61,0,0,1-2.28-.58Z"/><path class="cls-8" d="M230.37,270.39h1.16v5.95c0,2.37-1.16,3.1-2.7,3.1a3.67,3.67,0,0,1-1.23-.21l.17-.94a2.6,2.6,0,0,0,1,.17c1,0,1.63-.46,1.63-2.21Z"/><path class="cls-8" d="M236.23,270.39h1.16v7.93h3.81v1h-5Z"/><path class="cls-8" d="M243.74,271.1a.7.7,0,0,1-.74.72.69.69,0,0,1-.7-.72.72.72,0,1,1,1.44,0Zm-1.3,8.19V272.9h1.15v6.39Z"/><path class="cls-8" d="M245.53,269.91h1.15v9.38h-1.15Z"/><path class="cls-8" d="M248.65,269.91h1.15v9.38h-1.15Z"/><path class="cls-8" d="M252.41,276.31a2,2,0,0,0,2.19,2.22,4.27,4.27,0,0,0,1.77-.33l.2.83a5.22,5.22,0,0,1-2.13.4,3,3,0,0,1-3.14-3.22c0-1.94,1.14-3.45,3-3.45,2.08,0,2.63,1.83,2.63,3a3.45,3.45,0,0,1,0,.55Zm3.41-.84a1.65,1.65,0,0,0-1.61-1.88,1.91,1.91,0,0,0-1.78,1.88Z"/><path class="cls-8" d="M222,289.75c-.06-1.08-.13-2.4-.13-3.36h0c-.27.9-.59,1.88-1,2.95l-1.37,3.78h-.76l-1.28-3.71c-.37-1.1-.67-2.1-.89-3h0c0,1-.07,2.27-.15,3.44l-.21,3.34h-.95l.54-7.79H217l1.32,3.77c.33,1,.59,1.81.79,2.63h0c.21-.79.48-1.65.82-2.63l1.4-3.77h1.28l.49,7.79h-1Z"/><path class="cls-8" d="M229.81,290.32a2.74,2.74,0,0,1-2.78,3,2.66,2.66,0,0,1-2.69-2.88,2.74,2.74,0,0,1,2.78-3A2.64,2.64,0,0,1,229.81,290.32Zm-4.43.07c0,1.22.7,2.15,1.69,2.15s1.71-.91,1.71-2.18c0-.95-.48-2.15-1.69-2.15S225.38,289.33,225.38,290.39Z"/><path class="cls-8" d="M231.1,289.09c0-.58,0-1,0-1.51h.9l.06.92h0a2,2,0,0,1,1.85-1.05c.76,0,2,.46,2,2.39v3.33h-1V290c0-.91-.34-1.66-1.29-1.66a1.45,1.45,0,0,0-1.37,1,1.61,1.61,0,0,0-.07.47v3.37h-1Z"/><path class="cls-8" d="M238.69,286v1.61h1.46v.77h-1.46v3c0,.7.2,1.09.77,1.09a2,2,0,0,0,.59-.07l0,.77a2.58,2.58,0,0,1-.91.14,1.41,1.41,0,0,1-1.1-.43,2.14,2.14,0,0,1-.39-1.46v-3h-.87v-.77h.87v-1.35Z"/><path class="cls-8" d="M241.3,289.4c0-.71,0-1.29-.05-1.82h.91l.06.95h0a2.19,2.19,0,0,1,2-1.08c1.35,0,2.37,1.14,2.37,2.84,0,2-1.23,3-2.54,3a2,2,0,0,1-1.73-.88h0v3h-1Zm1,1.5a1.84,1.84,0,0,0,0,.41,1.57,1.57,0,0,0,1.52,1.19c1.08,0,1.7-.88,1.7-2.16,0-1.12-.58-2.08-1.66-2.08a1.62,1.62,0,0,0-1.54,1.26,1.84,1.84,0,0,0-.06.41Z"/><path class="cls-8" d="M248.46,290.56a1.78,1.78,0,0,0,1.91,1.94,3.66,3.66,0,0,0,1.55-.29l.18.73a4.61,4.61,0,0,1-1.87.35,2.61,2.61,0,0,1-2.75-2.82,2.72,2.72,0,0,1,2.63-3,2.36,2.36,0,0,1,2.31,2.63,2.59,2.59,0,0,1,0,.48Zm3-.73a1.45,1.45,0,0,0-1.41-1.65,1.67,1.67,0,0,0-1.56,1.65Z"/><path class="cls-8" d="M253.68,285h1v8.21h-1Z"/><path class="cls-8" d="M256.41,285h1v8.21h-1Z"/><path class="cls-8" d="M260.28,286a.61.61,0,0,1-.65.63A.6.6,0,0,1,259,286a.62.62,0,0,1,.63-.64A.61.61,0,0,1,260.28,286Zm-1.14,7.17v-5.59h1v5.59Z"/><path class="cls-8" d="M262.42,290.56a1.78,1.78,0,0,0,1.91,1.94,3.66,3.66,0,0,0,1.55-.29l.18.73a4.61,4.61,0,0,1-1.87.35,2.61,2.61,0,0,1-2.75-2.82,2.72,2.72,0,0,1,2.63-3,2.36,2.36,0,0,1,2.31,2.63,2.59,2.59,0,0,1,0,.48Zm3-.73a1.46,1.46,0,0,0-1.41-1.65,1.67,1.67,0,0,0-1.56,1.65Z"/><path class="cls-8" d="M267.64,289.32c0-.66,0-1.22-.05-1.74h.9l0,1.1h0a1.71,1.71,0,0,1,1.56-1.23,1.2,1.2,0,0,1,.28,0v1a1.65,1.65,0,0,0-.34,0,1.43,1.43,0,0,0-1.37,1.3,3.43,3.43,0,0,0,0,.47v3h-1Z"/><path class="cls-7" d="M209.65,465.74h77.91v66.31c0,4-8.69,7.19-19.3,7.19H209.65"/><path class="cls-8" d="M216.68,494l-2-7.79h1.07l.93,3.94c.22,1,.43,1.94.57,2.7h0c.13-.78.37-1.71.63-2.71l1-3.93h1l1,3.95c.21.93.42,1.85.54,2.67h0c.15-.85.37-1.72.61-2.69l1-3.93h1L222,494H221l-1-4a24.34,24.34,0,0,1-.51-2.55h0a22.34,22.34,0,0,1-.61,2.55l-1.1,4Z"/><path class="cls-8" d="M225.35,491.35a1.78,1.78,0,0,0,1.92,1.94,3.84,3.84,0,0,0,1.54-.28l.18.72a4.51,4.51,0,0,1-1.86.35,2.6,2.6,0,0,1-2.75-2.82c0-1.69,1-3,2.63-3a2.36,2.36,0,0,1,2.3,2.63,1.93,1.93,0,0,1,0,.48Zm3-.73a1.44,1.44,0,0,0-1.4-1.65,1.69,1.69,0,0,0-1.57,1.65Z"/><path class="cls-8" d="M230.53,494c0-.38,0-.94,0-1.44v-6.77h1v3.52h0a2.07,2.07,0,0,1,1.91-1c1.39,0,2.36,1.16,2.36,2.85,0,2-1.27,3-2.52,3a2,2,0,0,1-1.88-1h0l-.06.92Zm1.06-2.24a1.5,1.5,0,0,0,0,.37,1.56,1.56,0,0,0,1.52,1.19c1.07,0,1.7-.87,1.7-2.15,0-1.12-.58-2.09-1.67-2.09a1.61,1.61,0,0,0-1.53,1.25,1.44,1.44,0,0,0-.06.43Z"/><path class="cls-8" d="M220.21,495.66v6.77c0,.5,0,1.06,0,1.45h-.9l0-1h0a2,2,0,0,1-1.9,1.09,2.55,2.55,0,0,1-2.4-2.84c0-1.87,1.15-3,2.52-3a1.87,1.87,0,0,1,1.68.84h0v-3.34Zm-1,4.9a2.28,2.28,0,0,0,0-.44,1.49,1.49,0,0,0-1.47-1.17c-1.05,0-1.68.93-1.68,2.16s.56,2.08,1.66,2.08a1.54,1.54,0,0,0,1.49-1.23,1.88,1.88,0,0,0,0-.43Z"/><path class="cls-8" d="M222.47,501.26a1.79,1.79,0,0,0,1.92,1.95,3.9,3.9,0,0,0,1.55-.29l.17.72a4.48,4.48,0,0,1-1.86.36,2.61,2.61,0,0,1-2.76-2.82c0-1.7,1-3,2.64-3a2.36,2.36,0,0,1,2.3,2.63,2.74,2.74,0,0,1,0,.47Zm3-.73a1.44,1.44,0,0,0-1.4-1.64,1.67,1.67,0,0,0-1.57,1.64Z"/><path class="cls-8" d="M228.09,498.28l1.1,3.14c.18.52.33,1,.45,1.44h0c.13-.46.29-.93.47-1.44l1.1-3.14h1.06l-2.2,5.6h-1l-2.13-5.6Z"/><path class="cls-8" d="M233.71,501.26a1.79,1.79,0,0,0,1.92,1.95,3.87,3.87,0,0,0,1.55-.29l.17.72a4.48,4.48,0,0,1-1.86.36,2.61,2.61,0,0,1-2.75-2.82c0-1.7,1-3,2.63-3a2.36,2.36,0,0,1,2.3,2.63,2.74,2.74,0,0,1,0,.47Zm3-.73a1.44,1.44,0,0,0-1.4-1.64,1.66,1.66,0,0,0-1.56,1.64Z"/><path class="cls-8" d="M238.94,495.66h1v8.22h-1Z"/><path class="cls-8" d="M246.73,501a2.74,2.74,0,0,1-2.78,3,2.66,2.66,0,0,1-2.69-2.88,2.73,2.73,0,0,1,2.78-3A2.64,2.64,0,0,1,246.73,501Zm-4.43.06c0,1.23.7,2.15,1.69,2.15s1.71-.91,1.71-2.18c0-.95-.48-2.14-1.69-2.14S242.3,500,242.3,501.09Z"/><path class="cls-8" d="M248,500.1c0-.71,0-1.29,0-1.82h.91l.05,1h0a2.15,2.15,0,0,1,2-1.08c1.36,0,2.38,1.14,2.38,2.83,0,2-1.24,3-2.55,3a1.94,1.94,0,0,1-1.72-.88h0v3.05h-1Zm1,1.5a1.84,1.84,0,0,0,0,.41,1.56,1.56,0,0,0,1.52,1.2c1.08,0,1.7-.89,1.7-2.17,0-1.12-.58-2.08-1.66-2.08a1.62,1.62,0,0,0-1.54,1.26,1.93,1.93,0,0,0-.06.41Z"/><path class="cls-8" d="M255.18,501.26a1.79,1.79,0,0,0,1.91,1.95,3.87,3.87,0,0,0,1.55-.29l.18.72A4.57,4.57,0,0,1,257,504a2.61,2.61,0,0,1-2.75-2.82c0-1.7,1-3,2.63-3a2.35,2.35,0,0,1,2.3,2.63,2.74,2.74,0,0,1,0,.47Zm3-.73a1.44,1.44,0,0,0-1.4-1.64,1.66,1.66,0,0,0-1.56,1.64Z"/><path class="cls-8" d="M260.4,500c0-.66,0-1.22,0-1.74h.89l0,1.1h0a1.7,1.7,0,0,1,1.56-1.22,1.23,1.23,0,0,1,.28,0v1a1.75,1.75,0,0,0-.35,0,1.43,1.43,0,0,0-1.36,1.3,3.58,3.58,0,0,0,0,.48v3h-1Z"/><path class="cls-8" d="M220.21,505.58v6.77c0,.5,0,1,0,1.44h-.9l0-1h0a2,2,0,0,1-1.9,1.1,2.56,2.56,0,0,1-2.4-2.84c0-1.87,1.15-3,2.52-3a1.86,1.86,0,0,1,1.68.85h0v-3.34Zm-1,4.89a2.1,2.1,0,0,0,0-.43,1.49,1.49,0,0,0-1.47-1.17c-1.05,0-1.68.92-1.68,2.15s.56,2.08,1.66,2.08a1.54,1.54,0,0,0,1.49-1.22,2,2,0,0,0,0-.44Z"/><path class="cls-8" d="M222.47,511.18a1.79,1.79,0,0,0,1.92,1.94,3.73,3.73,0,0,0,1.55-.29l.17.73a4.51,4.51,0,0,1-1.86.35,2.61,2.61,0,0,1-2.76-2.82c0-1.7,1-3,2.64-3a2.36,2.36,0,0,1,2.3,2.63,2.88,2.88,0,0,1,0,.48Zm3-.73a1.44,1.44,0,0,0-1.4-1.65,1.68,1.68,0,0,0-1.57,1.65Z"/><path class="cls-8" d="M232.52,508.2c0,.39,0,.85,0,1.53V513a3.28,3.28,0,0,1-.8,2.56,3,3,0,0,1-2,.67,3.65,3.65,0,0,1-1.87-.46L228,515a3.07,3.07,0,0,0,1.64.45c1,0,1.81-.54,1.81-2v-.62h0a2,2,0,0,1-1.78.94,2.5,2.5,0,0,1-2.38-2.73,2.68,2.68,0,0,1,2.52-3,1.86,1.86,0,0,1,1.75,1h0l0-.83Zm-1.05,2.2a1.65,1.65,0,0,0-.06-.46,1.47,1.47,0,0,0-1.43-1.08c-1,0-1.67.82-1.67,2.12,0,1.09.57,2,1.66,2a1.5,1.5,0,0,0,1.42-1.05,2,2,0,0,0,.08-.54Z"/><path class="cls-8" d="M234.09,509.94c0-.66,0-1.22-.05-1.74h.9l0,1.09h0a1.7,1.7,0,0,1,1.56-1.22,1.2,1.2,0,0,1,.28,0v1a1.2,1.2,0,0,0-.35,0,1.43,1.43,0,0,0-1.36,1.3,3.43,3.43,0,0,0,0,.47v3h-1Z"/><path class="cls-8" d="M238.33,511.18a1.78,1.78,0,0,0,1.91,1.94,3.66,3.66,0,0,0,1.55-.29l.18.73a4.61,4.61,0,0,1-1.87.35,2.61,2.61,0,0,1-2.75-2.82c0-1.7,1-3,2.63-3a2.36,2.36,0,0,1,2.31,2.63,2.68,2.68,0,0,1,0,.48Zm3-.73a1.45,1.45,0,0,0-1.41-1.65,1.67,1.67,0,0,0-1.56,1.65Z"/><path class="cls-8" d="M244.12,511.18a1.79,1.79,0,0,0,1.92,1.94,3.73,3.73,0,0,0,1.55-.29l.17.73a4.51,4.51,0,0,1-1.86.35,2.6,2.6,0,0,1-2.75-2.82c0-1.7,1-3,2.63-3a2.36,2.36,0,0,1,2.3,2.63,2.88,2.88,0,0,1,0,.48Zm3-.73a1.44,1.44,0,0,0-1.4-1.65,1.67,1.67,0,0,0-1.56,1.65Z"/><line class="cls-5" x1="208.8" y1="833.41" x2="307.83" y2="833.41"/><line class="cls-4" x1="119.33" y1="172.71" x2="141.64" y2="172.71"/><line class="cls-4" x1="119.29" y1="282.15" x2="140.71" y2="282.15"/><line class="cls-4" x1="120.36" y1="528.59" x2="141.79" y2="528.59"/><path class="cls-6" d="M314.54,174.85v-.63l.8-.77c1.92-1.83,2.79-2.8,2.8-3.94a1.34,1.34,0,0,0-1.49-1.46,2.55,2.55,0,0,0-1.6.63l-.32-.72a3.24,3.24,0,0,1,2.12-.76,2.11,2.11,0,0,1,2.3,2.19c0,1.38-1,2.51-2.59,4l-.6.56v0h3.38v.85Z"/><path class="cls-6" d="M325.47,171c0,2.55-1,4-2.61,4-1.47,0-2.47-1.37-2.49-3.86s1.09-3.91,2.61-3.91S325.47,168.61,325.47,171Zm-4.08.11c0,2,.6,3.07,1.52,3.07s1.54-1.22,1.54-3.14S324,168,322.92,168C322,168,321.39,169.07,321.39,171.12Z"/><path class="cls-6" d="M328.61,168.28h0l-1.31.7-.19-.77,1.64-.88h.87v7.52h-1Z"/><path class="cls-6" d="M334.55,168.28h0l-1.3.7-.2-.77,1.64-.88h.87v7.52h-1Z"/><path class="cls-6" d="M314.54,247.83v-.63l.8-.77c1.92-1.83,2.79-2.8,2.8-3.93a1.34,1.34,0,0,0-1.49-1.47,2.55,2.55,0,0,0-1.6.63l-.32-.71a3.25,3.25,0,0,1,2.12-.77,2.11,2.11,0,0,1,2.3,2.19c0,1.39-1,2.51-2.59,4l-.6.55v0h3.38v.85Z"/><path class="cls-6" d="M325.47,244c0,2.55-1,4-2.61,4-1.47,0-2.47-1.38-2.49-3.87s1.09-3.91,2.61-3.91S325.47,241.59,325.47,244Zm-4.08.11c0,2,.6,3.07,1.52,3.07s1.54-1.22,1.54-3.14S324,241,322.92,241C322,241,321.39,242.06,321.39,244.1Z"/><path class="cls-6" d="M328.61,241.26h0l-1.31.7-.19-.77,1.64-.88h.87v7.52h-1Z"/><path class="cls-6" d="M332.34,247.83v-.63l.8-.77c1.92-1.83,2.78-2.8,2.79-3.93a1.34,1.34,0,0,0-1.49-1.47,2.52,2.52,0,0,0-1.59.63l-.33-.71a3.3,3.3,0,0,1,2.13-.77,2.11,2.11,0,0,1,2.3,2.19c0,1.39-1,2.51-2.59,4l-.6.55v0h3.38v.85Z"/><path class="cls-6" d="M314.54,319.15v-.63l.8-.77c1.92-1.83,2.79-2.8,2.8-3.93a1.34,1.34,0,0,0-1.49-1.47,2.55,2.55,0,0,0-1.6.63l-.32-.71a3.25,3.25,0,0,1,2.12-.77,2.11,2.11,0,0,1,2.3,2.19c0,1.39-1,2.51-2.59,4l-.6.55v0h3.38v.85Z"/><path class="cls-6" d="M325.47,315.31c0,2.55-1,4-2.61,4-1.47,0-2.47-1.37-2.49-3.86s1.09-3.91,2.61-3.91S325.47,312.91,325.47,315.31Zm-4.08.11c0,2,.6,3.07,1.52,3.07s1.54-1.22,1.54-3.14-.47-3.06-1.53-3.06C322,312.29,321.39,313.38,321.39,315.42Z"/><path class="cls-6" d="M328.61,312.58h0l-1.31.7-.19-.77,1.64-.88h.87v7.52h-1Z"/><path class="cls-6" d="M332.58,318a3.47,3.47,0,0,0,1.67.47c1.3,0,1.71-.83,1.7-1.45,0-1.06-1-1.51-1.95-1.51h-.56v-.76H334c.74,0,1.68-.38,1.68-1.27,0-.6-.38-1.14-1.32-1.14a2.75,2.75,0,0,0-1.5.5l-.27-.74a3.57,3.57,0,0,1,2-.58c1.48,0,2.15.88,2.15,1.8a1.85,1.85,0,0,1-1.39,1.76v0A2,2,0,0,1,337,317c0,1.2-.94,2.25-2.74,2.25a3.86,3.86,0,0,1-2-.5Z"/><path class="cls-6" d="M314.54,392.64V392l.8-.78c1.92-1.82,2.79-2.8,2.8-3.93a1.34,1.34,0,0,0-1.49-1.47,2.56,2.56,0,0,0-1.6.64l-.32-.72a3.24,3.24,0,0,1,2.12-.76,2.11,2.11,0,0,1,2.3,2.18c0,1.39-1,2.51-2.59,4l-.6.55v0h3.38v.84Z"/><path class="cls-6" d="M325.47,388.8c0,2.56-1,4-2.61,4-1.47,0-2.47-1.38-2.49-3.86S321.46,385,323,385,325.47,386.41,325.47,388.8Zm-4.08.12c0,1.95.6,3.06,1.52,3.06s1.54-1.21,1.54-3.13-.47-3.07-1.53-3.07C322,385.78,321.39,386.87,321.39,388.92Z"/><path class="cls-6" d="M328.61,386.07h0l-1.31.71-.19-.78,1.64-.88h.87v7.52h-1Z"/><path class="cls-6" d="M335.48,392.64v-2H332v-.68l3.35-4.8h1.1v4.68h1.06v.8h-1.06v2Zm0-2.84v-2.51c0-.4,0-.79,0-1.18h0c-.23.44-.41.76-.62,1.11L333,389.77v0Z"/><path class="cls-6" d="M314.54,468.23v-.62l.8-.77c1.92-1.83,2.79-2.8,2.8-3.94a1.34,1.34,0,0,0-1.49-1.47,2.56,2.56,0,0,0-1.6.64l-.32-.72a3.24,3.24,0,0,1,2.12-.76,2.11,2.11,0,0,1,2.3,2.19c0,1.38-1,2.51-2.59,4l-.6.56v0h3.38v.84Z"/><path class="cls-6" d="M325.47,464.39c0,2.56-1,4-2.61,4-1.47,0-2.47-1.37-2.49-3.86s1.09-3.91,2.61-3.91S325.47,462,325.47,464.39Zm-4.08.12c0,2,.6,3.07,1.52,3.07s1.54-1.22,1.54-3.14-.47-3.06-1.53-3.06C322,461.38,321.39,462.46,321.39,464.51Z"/><path class="cls-6" d="M328.61,461.67h0l-1.31.7-.19-.77,1.64-.88h.87v7.51h-1Z"/><path class="cls-6" d="M336.82,461.57H334l-.29,1.93a4.51,4.51,0,0,1,.61,0,3.24,3.24,0,0,1,1.62.4,2.16,2.16,0,0,1,1.08,1.93,2.61,2.61,0,0,1-2.8,2.57,3.73,3.73,0,0,1-1.88-.46l.26-.78a3.27,3.27,0,0,0,1.6.42,1.66,1.66,0,0,0,1.79-1.63c0-1-.66-1.67-2.17-1.67a6.94,6.94,0,0,0-1,.09l.49-3.61h3.59Z"/><path class="cls-6" d="M314.54,540v-.62l.8-.78c1.92-1.83,2.79-2.8,2.8-3.93a1.34,1.34,0,0,0-1.49-1.47,2.56,2.56,0,0,0-1.6.64l-.32-.72a3.25,3.25,0,0,1,2.12-.77,2.12,2.12,0,0,1,2.3,2.19c0,1.39-1,2.51-2.59,4l-.6.55v0h3.38V540Z"/><path class="cls-6" d="M325.47,536.2c0,2.56-1,4-2.61,4-1.47,0-2.47-1.38-2.49-3.87s1.09-3.91,2.61-3.91S325.47,533.81,325.47,536.2Zm-4.08.12c0,1.95.6,3.06,1.52,3.06s1.54-1.21,1.54-3.13-.47-3.07-1.53-3.07C322,533.18,321.39,534.27,321.39,536.32Z"/><path class="cls-6" d="M328.61,533.47h0l-1.31.71-.19-.78,1.64-.88h.87V540h-1Z"/><path class="cls-6" d="M336.63,533.24a3.49,3.49,0,0,0-.76,0,3,3,0,0,0-2.62,2.67h0a2.29,2.29,0,0,1,4.08,1.56,2.52,2.52,0,0,1-2.5,2.65c-1.61,0-2.66-1.25-2.66-3.21a4.73,4.73,0,0,1,1.27-3.39,4.16,4.16,0,0,1,2.41-1.11,5.58,5.58,0,0,1,.74-.05Zm-.29,4.34a1.53,1.53,0,0,0-1.55-1.73,1.68,1.68,0,0,0-1.46.93.83.83,0,0,0-.11.45c0,1.24.59,2.15,1.65,2.15C335.75,539.38,336.34,538.65,336.34,537.58Z"/><path class="cls-6" d="M314.54,614.71v-.62l.8-.78c1.92-1.82,2.79-2.8,2.8-3.93a1.34,1.34,0,0,0-1.49-1.47,2.56,2.56,0,0,0-1.6.64l-.32-.72a3.24,3.24,0,0,1,2.12-.76,2.11,2.11,0,0,1,2.3,2.18c0,1.39-1,2.51-2.59,4l-.6.56v0h3.38v.84Z"/><path class="cls-6" d="M325.47,610.87c0,2.56-1,4-2.61,4-1.47,0-2.47-1.38-2.49-3.86s1.09-3.91,2.61-3.91S325.47,608.48,325.47,610.87Zm-4.08.12c0,2,.6,3.06,1.52,3.06s1.54-1.21,1.54-3.13-.47-3.07-1.53-3.07C322,607.85,321.39,608.94,321.39,611Z"/><path class="cls-6" d="M328.61,608.14h0l-1.31.71-.19-.78,1.64-.88h.87v7.52h-1Z"/><path class="cls-6" d="M337.22,607.19v.67L334,614.71h-1.06l3.26-6.65v0h-3.67v-.85Z"/><path class="cls-6" d="M314.54,688v-.62l.8-.78c1.92-1.83,2.79-2.8,2.8-3.93a1.34,1.34,0,0,0-1.49-1.47,2.56,2.56,0,0,0-1.6.64l-.32-.72a3.24,3.24,0,0,1,2.12-.76,2.11,2.11,0,0,1,2.3,2.18c0,1.39-1,2.51-2.59,4l-.6.55v0h3.38V688Z"/><path class="cls-6" d="M325.47,684.11c0,2.56-1,4-2.61,4-1.47,0-2.47-1.38-2.49-3.87s1.09-3.9,2.61-3.9S325.47,681.72,325.47,684.11Zm-4.08.12c0,1.95.6,3.06,1.52,3.06s1.54-1.21,1.54-3.13-.47-3.07-1.53-3.07C322,681.09,321.39,682.18,321.39,684.23Z"/><path class="cls-6" d="M328.61,681.38h0l-1.31.71-.19-.78,1.64-.88h.87V688h-1Z"/><path class="cls-6" d="M332.24,686a2.14,2.14,0,0,1,1.5-2v0a1.85,1.85,0,0,1-1.2-1.68,2.1,2.1,0,0,1,2.33-2,1.94,1.94,0,0,1,2.19,1.85,1.92,1.92,0,0,1-1.24,1.75v0a2.09,2.09,0,0,1,1.51,1.94,2.31,2.31,0,0,1-2.55,2.19C333.19,688.08,332.24,687.14,332.24,686Zm4.05,0c0-.92-.63-1.36-1.65-1.65a1.64,1.64,0,0,0-1.35,1.55,1.39,1.39,0,0,0,1.5,1.44A1.36,1.36,0,0,0,336.29,686Zm-2.8-3.76c0,.75.57,1.15,1.44,1.38a1.47,1.47,0,0,0,1.14-1.36A1.17,1.17,0,0,0,334.8,681,1.2,1.2,0,0,0,333.49,682.24Z"/><path class="cls-6" d="M314.54,761.85v-.62l.8-.78c1.92-1.82,2.79-2.79,2.8-3.93a1.34,1.34,0,0,0-1.49-1.47,2.56,2.56,0,0,0-1.6.64l-.32-.72a3.24,3.24,0,0,1,2.12-.76,2.11,2.11,0,0,1,2.3,2.18c0,1.39-1,2.51-2.59,4l-.6.56v0h3.38v.84Z"/><path class="cls-6" d="M325.47,758c0,2.56-1,4-2.61,4-1.47,0-2.47-1.38-2.49-3.86s1.09-3.91,2.61-3.91S325.47,755.62,325.47,758Zm-4.08.12c0,2,.6,3.06,1.52,3.06s1.54-1.21,1.54-3.13S324,755,322.92,755C322,755,321.39,756.08,321.39,758.13Z"/><path class="cls-6" d="M328.61,755.28h0l-1.31.71-.19-.77,1.64-.88h.87v7.51h-1Z"/><path class="cls-6" d="M332.93,761.14a4.14,4.14,0,0,0,.82,0,2.79,2.79,0,0,0,1.57-.73,3.29,3.29,0,0,0,1-2h0a2.26,2.26,0,0,1-4-1.49,2.58,2.58,0,0,1,2.57-2.67c1.54,0,2.49,1.25,2.49,3.17a4.77,4.77,0,0,1-1.3,3.53,3.79,3.79,0,0,1-2.19,1,4.67,4.67,0,0,1-.93.06Zm.37-4.33a1.44,1.44,0,0,0,1.44,1.6,1.67,1.67,0,0,0,1.48-.79.65.65,0,0,0,.1-.37c0-1.28-.48-2.27-1.54-2.27C333.91,755,333.3,755.75,333.3,756.81Z"/><path class="cls-6" d="M314.54,835.86v-.62l.8-.78c1.92-1.83,2.79-2.8,2.8-3.93a1.34,1.34,0,0,0-1.49-1.47,2.56,2.56,0,0,0-1.6.64l-.32-.72a3.24,3.24,0,0,1,2.12-.76,2.11,2.11,0,0,1,2.3,2.18c0,1.39-1,2.51-2.59,4l-.6.55v0h3.38v.84Z"/><path class="cls-6" d="M325.47,832c0,2.56-1,4-2.61,4-1.47,0-2.47-1.38-2.49-3.87s1.09-3.9,2.61-3.9S325.47,829.63,325.47,832Zm-4.08.12c0,2,.6,3.06,1.52,3.06s1.54-1.21,1.54-3.13S324,829,322.92,829C322,829,321.39,830.09,321.39,832.14Z"/><path class="cls-6" d="M326.4,835.86v-.62l.8-.78c1.92-1.83,2.79-2.8,2.8-3.93a1.34,1.34,0,0,0-1.49-1.47,2.58,2.58,0,0,0-1.6.64l-.32-.72a3.29,3.29,0,0,1,2.13-.76,2.11,2.11,0,0,1,2.3,2.18c0,1.39-1,2.51-2.59,4l-.6.55v0h3.38v.84Z"/><path class="cls-6" d="M337.33,832c0,2.56-.94,4-2.61,4-1.47,0-2.46-1.38-2.49-3.87s1.09-3.9,2.62-3.9S337.33,829.63,337.33,832Zm-4.08.12c0,2,.6,3.06,1.53,3.06s1.54-1.21,1.54-3.13-.48-3.07-1.53-3.07C333.9,829,333.25,830.09,333.25,832.14Z"/></svg>