<?xml version="1.0" encoding="utf-8"?>
<!-- Generator: Adobe Illustrator 23.1.0, SVG Export Plug-In . SVG Version: 6.00 Build 0)  -->
<svg version="1.1" id="Calque_1" xmlns="http://www.w3.org/2000/svg" xmlns:xlink="http://www.w3.org/1999/xlink" x="0px" y="0px"
	 viewBox="0 0 1017.7 365.3" style="enable-background:new 0 0 1017.7 365.3;" xml:space="preserve">
<style type="text/css">
	.st0{fill:none;stroke:#488AA4;stroke-miterlimit:10;}
	.st1{fill:none;stroke:#EC6E6B;stroke-miterlimit:10;}
	.st2{fill:#488AA4;}
	.st3{opacity:0.35;fill:none;stroke:#325982;stroke-miterlimit:10;enable-background:new    ;}
	.st4{opacity:0.2;fill:none;stroke:#4789A4;stroke-miterlimit:10;enable-background:new    ;}
	.st5{fill:#4789A4;}
	.st6{fill:none;stroke:#E85522;stroke-miterlimit:10;}
	.st7{fill:#E85522;}
</style>
<title>timeline-en</title>
<circle class="st0" cx="31.6" cy="131" r="30.4"/>
<circle class="st1" cx="31.6" cy="131" r="14.3"/>
<path class="st2" d="M1.9,245h5.5v1.1H3.2v3.4h3.9v1.1H3.2v4.6H1.9V245z"/>
<path class="st2" d="M9.3,245.2c0.8-0.1,1.7-0.2,2.6-0.2c1.1-0.1,2.1,0.2,3,0.8c0.5,0.5,0.8,1.2,0.8,2c0,1.2-0.8,2.3-1.9,2.6l0,0
	c0.8,0.4,1.4,1.2,1.5,2.1c0.2,1,0.4,1.9,0.8,2.8h-1.4c-0.3-0.8-0.5-1.6-0.7-2.5c-0.3-1.4-0.9-2-2.1-2h-1.2v4.4H9.3V245.2z
	 M10.6,249.8H12c1.4,0,2.3-0.8,2.3-1.9c0-1.3-1-1.9-2.4-1.9c-0.4,0-0.9,0-1.3,0.1L10.6,249.8z"/>
<path class="st2" d="M19.2,252.1l-1.1,3.2h-1.4l3.5-10.3h1.6l3.5,10.3H24l-1.1-3.2L19.2,252.1z M22.6,251.1l-1-3
	c-0.2-0.7-0.4-1.3-0.5-1.9l0,0c-0.1,0.6-0.3,1.2-0.5,1.9l-1,3L22.6,251.1z"/>
<path class="st2" d="M26.9,255.3V245h1.5l3.3,5.2c0.7,1.1,1.3,2.2,1.8,3.4l0,0c-0.1-1.4-0.2-2.6-0.2-4.2V245h1.3v10.3h-1.3l-3.3-5.2
	c-0.7-1.1-1.3-2.3-1.9-3.4l0,0c0.1,1.3,0.1,2.5,0.1,4.2v4.4L26.9,255.3z"/>
<path class="st2" d="M44.1,255c-0.9,0.4-1.8,0.5-2.7,0.5c-2.6,0.2-4.9-1.9-5.1-4.5c0-0.2,0-0.5,0-0.7c-0.2-2.8,2-5.2,4.8-5.4
	c0.2,0,0.4,0,0.6,0c0.8,0,1.7,0.1,2.4,0.4l-0.3,1.1c-0.7-0.3-1.4-0.4-2.1-0.4c-2.4,0-4,1.5-4,4.2c0,2.5,1.5,4.1,3.9,4.1
	c0.7,0,1.5-0.1,2.2-0.4L44.1,255z"/>
<path class="st2" d="M51.1,250.5h-4v3.7h4.5v1.1h-5.8V245h5.5v1.1h-4.2v3.3h4L51.1,250.5z"/>
<path class="st2" d="M56.5,245.2c0.8-0.2,1.6-0.2,2.4-0.2c1-0.1,2,0.2,2.8,0.8c0.6,0.4,0.9,1.1,0.9,1.8c0,1-0.7,2-1.7,2.2v0.1
	c1.2,0.2,2.1,1.3,2.1,2.6c0,0.8-0.3,1.5-0.9,2.1c-1,0.8-2.3,1.1-3.5,1c-0.7,0-1.4,0-2.1-0.1L56.5,245.2z M57.8,249.4H59
	c1.4,0,2.2-0.7,2.2-1.7c0-1.2-0.9-1.7-2.2-1.7c-0.4,0-0.8,0-1.2,0.1L57.8,249.4z M57.8,254.3c0.4,0.1,0.7,0.1,1.1,0.1
	c1.4,0,2.7-0.5,2.7-2s-1.2-2-2.7-2h-1.1L57.8,254.3z"/>
<path class="st2" d="M64.8,245h1.3v9.1h4.4v1.1h-5.7V245z"/>
<path class="st2" d="M77.3,250.5h-4v3.7h4.5v1.1H72V245h5.5v1.1h-4.2v3.3h4L77.3,250.5z"/>
<path class="st2" d="M80.8,245v6.1c0,2.3,1,3.3,2.4,3.3s2.5-1,2.5-3.3V245H87v6c0,3.2-1.7,4.4-3.9,4.4s-3.7-1.2-3.7-4.4V245H80.8z"
	/>
<path class="st2" d="M92.6,245.2c0.8-0.1,1.6-0.2,2.4-0.2c1-0.1,2,0.2,2.8,0.8c0.6,0.4,0.9,1.1,0.9,1.8c0,1-0.7,2-1.7,2.2v0.1
	c1.2,0.3,2,1.3,2.1,2.5c0,0.8-0.3,1.5-0.9,2.1c-1,0.8-2.3,1.1-3.6,1c-0.7,0-1.4,0-2.1-0.1L92.6,245.2z M93.9,249.4h1.2
	c1.4,0,2.2-0.7,2.2-1.7c0-1.2-0.9-1.7-2.2-1.7c-0.4,0-0.8,0-1.2,0.1V249.4z M93.9,254.3c0.4,0.1,0.7,0.1,1.1,0.1
	c1.4,0,2.7-0.5,2.7-2s-1.2-2-2.7-2h-1.1V254.3z"/>
<path class="st2" d="M109.6,250.1c0,3.5-2.2,5.4-4.8,5.4s-4.6-2.1-4.6-5.2c0-3.3,2-5.4,4.8-5.4S109.6,247,109.6,250.1z M101.6,250.2
	c0,2.2,1.2,4.2,3.3,4.2s3.3-1.9,3.3-4.3c0-2-1.1-4.2-3.3-4.2S101.6,248,101.6,250.2L101.6,250.2z"/>
<path class="st2" d="M112.6,245v6.1c0,2.3,1,3.3,2.4,3.3s2.5-1,2.5-3.3V245h1.3v6c0,3.2-1.7,4.4-3.9,4.4s-3.7-1.2-3.7-4.4V245H112.6
	z"/>
<path class="st2" d="M121.2,245.2c0.8-0.1,1.7-0.2,2.6-0.2c1.1-0.1,2.1,0.2,3,0.8c0.5,0.5,0.8,1.2,0.8,2c0,1.2-0.8,2.3-1.9,2.6l0,0
	c0.8,0.4,1.4,1.2,1.5,2.1c0.2,1,0.5,1.9,0.8,2.8h-1.4c-0.3-0.8-0.5-1.6-0.7-2.5c-0.3-1.4-0.9-2-2.1-2h-1.2v4.4h-1.3V245.2z
	 M122.5,249.8h1.3c1.4,0,2.3-0.8,2.3-1.9c0-1.3-1-1.9-2.4-1.9c-0.4,0-0.9,0-1.3,0.1V249.8z"/>
<path class="st2" d="M137.3,254.8c-1,0.4-2.1,0.6-3.2,0.6c-2.6,0.3-5-1.7-5.3-4.3c0-0.3,0-0.6,0-0.8c0-3.1,2.1-5.3,5.6-5.3
	c0.9,0,1.8,0.1,2.6,0.5l-0.3,1.1c-0.7-0.3-1.5-0.5-2.3-0.4c-2.1-0.2-4,1.4-4.1,3.5c0,0.2,0,0.4,0,0.6c0,2.6,1.6,4.1,4,4.1
	c0.6,0,1.2-0.1,1.8-0.3v-3h-2.1v-1.1h3.4L137.3,254.8z"/>
<path class="st2" d="M148.1,250.1c0,3.5-2.1,5.4-4.8,5.4s-4.6-2.1-4.6-5.2c0-3.3,2-5.4,4.8-5.4S148.1,247,148.1,250.1z M140.1,250.2
	c0,2.2,1.2,4.2,3.3,4.2s3.3-1.9,3.3-4.3c0-2-1.1-4.2-3.3-4.2S140.1,248,140.1,250.2L140.1,250.2z"/>
<path class="st2" d="M157.6,254.8c-1,0.4-2.1,0.6-3.2,0.6c-2.6,0.3-5-1.7-5.3-4.3c0-0.3,0-0.6,0-0.8c0-3.1,2.1-5.3,5.6-5.3
	c0.9,0,1.8,0.1,2.6,0.5l-0.3,1.1c-0.7-0.3-1.5-0.5-2.3-0.4c-2.1-0.2-4,1.4-4.1,3.5c0,0.2,0,0.4,0,0.6c0,2.6,1.6,4.1,4,4.1
	c0.6,0,1.2-0.1,1.8-0.3v-3h-2.1v-1.1h3.4L157.6,254.8z"/>
<path class="st2" d="M159.6,255.3V245h1.5l3.3,5.2c0.7,1.1,1.3,2.2,1.8,3.4l0,0c-0.1-1.4-0.1-2.6-0.1-4.2V245h1.2v10.3H166l-3.3-5.2
	c-0.7-1.1-1.3-2.3-1.9-3.4h-0.1c0.1,1.3,0.1,2.5,0.1,4.2v4.4L159.6,255.3z"/>
<path class="st2" d="M175,250.5h-4v3.7h4.4v1.1h-5.8V245h5.6v1.1H171v3.3h4V250.5z"/>
<path class="st2" d="M0,275.7c0.5,0,1.1-0.2,1.5-0.6c0.4-0.4,0.5-1,0.5-2.8v-6.2h1.3v6.7c0.1,1.1-0.2,2.2-0.9,3
	c-0.6,0.5-1.5,0.8-2.3,0.8L0,275.7z M3.5,264.1c0,0.4-0.3,0.8-0.8,0.8c0,0,0,0-0.1,0c-0.5-0.1-0.8-0.5-0.7-0.9
	c0-0.4,0.4-0.7,0.7-0.7c0.4,0,0.8,0.3,0.8,0.7C3.5,264.1,3.5,264.1,3.5,264.1z"/>
<path class="st2" d="M12.2,269.8c0.2,2-1.3,3.7-3.3,3.9c-0.1,0-0.2,0-0.4,0c-1.9,0-3.5-1.6-3.5-3.5c0-0.1,0-0.2,0-0.3
	c-0.2-2,1.3-3.7,3.3-3.9c0.1,0,0.3,0,0.4,0c1.9,0,3.5,1.5,3.5,3.4C12.2,269.6,12.2,269.7,12.2,269.8z M6.3,269.9
	c0,1.6,0.9,2.8,2.2,2.8s2.2-1.2,2.2-2.9c0-1.2-0.6-2.8-2.2-2.8S6.3,268.5,6.3,269.9z"/>
<path class="st2" d="M20,271.6c0,0.8,0,1.4,0.1,2h-1.2l-0.1-1.2l0,0c-0.5,0.9-1.4,1.4-2.4,1.4c-1.2,0-2.5-0.6-2.5-3.2v-4.3h1.3v4.1
	c0,1.4,0.4,2.4,1.7,2.4c0.8,0,1.5-0.5,1.8-1.2c0.1-0.2,0.1-0.5,0.1-0.7v-4.5h1.3L20,271.6z"/>
<path class="st2" d="M22.3,268.5c0-0.9,0-1.6-0.1-2.3h1.2l0,1.4l0,0c0.3-0.9,1.1-1.6,2.1-1.6c0.1,0,0.2,0,0.4,0v1.3
	c-0.2,0-0.3,0-0.5,0c-0.9,0.1-1.7,0.8-1.8,1.7c0,0.2-0.1,0.4,0,0.6v3.9h-1.3V268.5z"/>
<path class="st2" d="M27.3,268.2c0-0.8,0-1.4-0.1-2h1.2l0.1,1.2l0,0c0.5-0.9,1.5-1.4,2.5-1.4c1,0,2.6,0.6,2.6,3.1v4.4h-1.3v-4.2
	c0-1.2-0.5-2.2-1.7-2.2c-1.1,0.1-1.9,0.9-1.9,2v4.4h-1.3V268.2z"/>
<path class="st2" d="M39.9,273.6l-0.1-0.9l0,0c-0.5,0.7-1.4,1.1-2.2,1.1c-1.2,0.1-2.2-0.8-2.3-2c0-0.1,0-0.1,0-0.2
	c0-1.8,1.6-2.8,4.4-2.7v-0.2c0.1-0.8-0.5-1.6-1.3-1.7c-0.1,0-0.2,0-0.4,0c-0.7,0-1.3,0.2-1.9,0.5l-0.3-0.9c0.7-0.4,1.6-0.7,2.4-0.6
	c2.3,0,2.8,1.5,2.8,3v2.8c0,0.6,0,1.2,0.1,1.8L39.9,273.6z M39.7,269.8c-1.5,0-3.1,0.2-3.1,1.7c-0.1,0.6,0.4,1.2,1.1,1.3
	c0.1,0,0.1,0,0.2,0c0.8,0,1.5-0.5,1.8-1.2c0-0.1,0.1-0.3,0.1-0.4V269.8z"/>
<path class="st2" d="M43.1,262.8h1.3v10.8h-1.3V262.8z"/>
<path class="st2" d="M48.2,264.1c0,0.4-0.3,0.8-0.8,0.8c0,0-0.1,0-0.1,0c-0.4,0-0.8-0.3-0.8-0.8c0,0,0,0,0-0.1
	c0-0.5,0.4-0.8,0.8-0.8C47.9,263.3,48.2,263.7,48.2,264.1z M46.7,273.6v-7.4h1.3v7.4H46.7z"/>
<path class="st2" d="M50.1,272.2c0.5,0.3,1.1,0.5,1.8,0.5c1,0,1.4-0.5,1.4-1.1s-0.4-1-1.4-1.4c-1.3-0.5-2-1.2-2-2.1
	c0.1-1.3,1.1-2.2,2.4-2.2c0.1,0,0.1,0,0.2,0c0.6,0,1.3,0.1,1.8,0.5l-0.3,1c-0.5-0.3-1-0.4-1.5-0.4c-0.8,0-1.2,0.5-1.2,1
	s0.4,0.9,1.4,1.2c1.3,0.5,1.9,1.1,1.9,2.2c0,1.3-1,2.2-2.8,2.2c-0.7,0-1.4-0.2-2.1-0.5L50.1,272.2z"/>
<path class="st2" d="M58,264.1v2.1h1.9v1H58v4c0,0.9,0.3,1.4,1,1.4c0.3,0,0.5,0,0.8-0.1l0.1,1c-0.4,0.1-0.8,0.2-1.2,0.2
	c-0.5,0-1.1-0.2-1.5-0.6c-0.4-0.6-0.6-1.2-0.5-1.9v-4h-1.2v-1h1.1v-1.8L58,264.1z"/>
<path class="st2" d="M171.3,209.1h-12.5l0,0v-77.3l0,0h18.1l0,0v71.7C176.9,206.6,174.4,209.1,171.3,209.1
	C171.3,209.1,171.3,209.1,171.3,209.1L171.3,209.1z"/>
<line class="st3" x1="165.4" y1="234.8" x2="165.4" y2="209.1"/>
<line id="timelinebar" class="st0" x1="61.5" y1="131.4" x2="1017.7" y2="131.4"/>
<line class="st4" x1="200" y1="76.6" x2="200" y2="17.1"/>
<line class="st4" x1="284.8" y1="77.7" x2="284.8" y2="17.1"/>
<line class="st4" x1="367.2" y1="88.9" x2="367.2" y2="17.1"/>
<line class="st4" x1="538.1" y1="75.4" x2="538.1" y2="17.1"/>
<line class="st4" x1="623" y1="83.5" x2="623" y2="17.1"/>
<line class="st4" x1="707.8" y1="131.4" x2="707.8" y2="17.1"/>
<line class="st4" x1="792.6" y1="131.4" x2="792.6" y2="17.1"/>
<line class="st4" x1="877.4" y1="131.4" x2="877.4" y2="17.1"/>
<line class="st4" x1="116.5" y1="81.9" x2="116.5" y2="17.1"/>
<path class="st5" d="M99.8,8.8V8.1l0.9-0.9c2.2-2.1,3.2-3.2,3.2-4.5c0.1-0.9-0.6-1.6-1.4-1.7c-0.1,0-0.2,0-0.3,0
	c-0.7,0-1.3,0.3-1.8,0.7L100,0.9c0.7-0.6,1.6-0.9,2.4-0.9c1.3-0.1,2.5,0.9,2.7,2.2c0,0.1,0,0.2,0,0.3c0,1.6-1.2,2.9-3,4.7l-0.7,0.6
	l0,0h3.9v1L99.8,8.8z"/>
<path class="st5" d="M112.4,4.4c0,3-1.1,4.6-3,4.6c-1.7,0-2.8-1.6-2.9-4.5s1.2-4.5,3-4.5S112.4,1.6,112.4,4.4z M107.7,4.5
	c0,2.2,0.7,3.5,1.8,3.5c1.2,0,1.8-1.4,1.8-3.6s-0.6-3.5-1.8-3.5C108.4,0.9,107.7,2.2,107.7,4.5z"/>
<path class="st5" d="M116,1.2L116,1.2l-1.5,0.8l-0.2-0.9l1.9-1h1v8.7H116V1.2z"/>
<path class="st5" d="M126.1,4.4c0,3-1.1,4.6-3,4.6c-1.7,0-2.8-1.6-2.9-4.5s1.3-4.5,3-4.5S126.1,1.6,126.1,4.4z M121.4,4.5
	c0,2.2,0.7,3.5,1.8,3.5s1.8-1.4,1.8-3.6s-0.5-3.5-1.8-3.5C122.1,0.9,121.4,2.2,121.4,4.5z"/>
<path class="st5" d="M185.3,8.8V8.1l0.9-0.9c2.2-2.1,3.2-3.2,3.2-4.5c0.1-0.9-0.6-1.6-1.4-1.7c-0.1,0-0.2,0-0.3,0
	c-0.7,0-1.3,0.3-1.8,0.7l-0.4-0.8c0.7-0.6,1.6-0.9,2.5-0.9c1.3-0.1,2.5,0.9,2.7,2.2c0,0.1,0,0.2,0,0.3c0,1.6-1.2,2.9-3,4.7l-0.7,0.6
	l0,0h3.9v1L185.3,8.8z"/>
<path class="st5" d="M197.9,4.4c0,3-1.1,4.6-3,4.6c-1.7,0-2.9-1.6-2.9-4.5s1.2-4.5,3-4.5S197.9,1.6,197.9,4.4z M193.2,4.5
	c0,2.2,0.7,3.5,1.8,3.5c1.2,0,1.8-1.4,1.8-3.6s-0.6-3.5-1.8-3.5C193.9,0.9,193.2,2.2,193.2,4.5z"/>
<path class="st5" d="M201.5,1.2L201.5,1.2L200,2.1l-0.2-0.9l1.9-1h1v8.7h-1.2V1.2z"/>
<path class="st5" d="M208.4,1.2L208.4,1.2l-1.5,0.8l-0.2-0.9l1.9-1h1v8.7h-1.1L208.4,1.2z"/>
<path class="st5" d="M270.1,8.8V8.1l0.9-0.9c2.2-2.1,3.2-3.2,3.2-4.5c0.1-0.9-0.6-1.6-1.4-1.7c-0.1,0-0.2,0-0.3,0
	c-0.7,0-1.3,0.3-1.8,0.7l-0.4-0.8c0.7-0.6,1.6-0.9,2.5-0.9c1.3-0.1,2.5,0.9,2.7,2.2c0,0.1,0,0.2,0,0.3c0,1.6-1.2,2.9-3,4.7l-0.7,0.6
	l0,0h3.9v1L270.1,8.8z"/>
<path class="st5" d="M282.7,4.4c0,3-1.1,4.6-3,4.6c-1.7,0-2.9-1.6-2.9-4.5s1.2-4.5,3-4.5S282.7,1.6,282.7,4.4z M278,4.5
	c0,2.2,0.7,3.5,1.8,3.5s1.8-1.4,1.8-3.6s-0.5-3.5-1.7-3.5C278.8,0.9,278,2.2,278,4.5z"/>
<path class="st5" d="M286.4,1.2L286.4,1.2l-1.5,0.8l-0.2-0.9l1.9-1h1v8.7h-1.1L286.4,1.2z"/>
<path class="st5" d="M290.7,8.8V8.1l0.9-0.9c2.2-2.1,3.2-3.2,3.2-4.5c0.1-0.9-0.6-1.6-1.4-1.7c-0.1,0-0.2,0-0.3,0
	c-0.7,0-1.3,0.3-1.8,0.7l-0.4-0.8c0.7-0.6,1.6-0.9,2.5-0.9c1.3-0.1,2.5,0.9,2.7,2.2c0,0.1,0,0.2,0,0.3c0,1.6-1.2,2.9-3,4.7l-0.7,0.6
	l0,0h3.9v1L290.7,8.8z"/>
<path class="st5" d="M353.5,8.8V8.1l0.9-0.9c2.2-2.1,3.2-3.2,3.2-4.5c0.1-0.9-0.6-1.6-1.4-1.7c-0.1,0-0.2,0-0.3,0
	c-0.7,0-1.3,0.3-1.8,0.7l-0.4-0.8c0.7-0.6,1.6-0.9,2.4-0.9c1.3-0.1,2.5,0.9,2.7,2.2c0,0.1,0,0.2,0,0.3c0,1.6-1.2,2.9-3,4.7l-0.7,0.6
	l0,0h3.9v1L353.5,8.8z"/>
<path class="st5" d="M366.1,4.4c0,3-1.1,4.6-3,4.6c-1.7,0-2.8-1.6-2.9-4.5s1.2-4.5,3-4.5S366.1,1.6,366.1,4.4z M361.4,4.5
	c0,2.2,0.7,3.5,1.8,3.5s1.8-1.4,1.8-3.6s-0.6-3.5-1.8-3.5C362.1,0.9,361.4,2.2,361.4,4.5L361.4,4.5z"/>
<path class="st5" d="M369.7,1.2L369.7,1.2l-1.5,0.8L368,1.2l1.9-1h1v8.7h-1.2V1.2z"/>
<path class="st5" d="M374.3,7.5c0.6,0.3,1.2,0.5,1.9,0.5c1.5,0,2-1,2-1.7c0-1.2-1.1-1.7-2.2-1.7h-0.7V3.7h0.7c0.9,0,1.9-0.4,1.9-1.5
	c0-0.7-0.5-1.3-1.5-1.3c-0.6,0-1.2,0.2-1.7,0.6l-0.3-0.9c0.7-0.4,1.4-0.7,2.2-0.7c1.7,0,2.4,1,2.4,2.1c0,0.9-0.7,1.8-1.6,2l0,0
	c1.1,0.2,1.9,1.1,1.9,2.2c0,1.4-1.1,2.6-3.2,2.6c-0.8,0-1.5-0.2-2.2-0.5L374.3,7.5z"/>
<path class="st5" d="M439.8,8.8V8.1l0.9-0.9c2.2-2.1,3.2-3.2,3.2-4.5c0.1-0.9-0.6-1.6-1.4-1.7c-0.1,0-0.2,0-0.3,0
	c-0.7,0-1.3,0.3-1.8,0.7L440,0.9c0.7-0.6,1.5-0.9,2.4-0.9c1.3-0.1,2.5,0.9,2.7,2.2c0,0.1,0,0.2,0,0.3c0,1.6-1.2,2.9-3,4.7l-0.7,0.6
	l0,0h3.9v1L439.8,8.8z"/>
<path class="st5" d="M452.4,4.4c0,3-1.1,4.6-3,4.6c-1.7,0-2.8-1.6-2.9-4.5s1.3-4.5,3-4.5S452.4,1.6,452.4,4.4z M447.7,4.5
	c0,2.2,0.7,3.5,1.8,3.5s1.8-1.4,1.8-3.6s-0.5-3.5-1.8-3.5C448.4,0.9,447.7,2.2,447.7,4.5z"/>
<path class="st5" d="M456,1.2L456,1.2l-1.5,0.8l-0.2-0.9l1.9-1h1v8.7H456V1.2z"/>
<path class="st5" d="M463.9,8.8V6.5h-4V5.7l3.8-5.5h1.3v5.4h1.2v0.9H465v2.4H463.9z M463.9,5.5V2.6c0-0.5,0-0.9,0-1.4l0,0
	c-0.3,0.5-0.5,0.9-0.7,1.3l-2.1,3l0,0L463.9,5.5z"/>
<path class="st5" d="M525.4,8.8V8.1l0.9-0.9c2.2-2.1,3.2-3.2,3.2-4.5c0.1-0.9-0.6-1.6-1.4-1.7c-0.1,0-0.2,0-0.3,0
	c-0.7,0-1.3,0.3-1.8,0.7l-0.4-0.8c0.7-0.6,1.6-0.9,2.5-0.9c1.3-0.1,2.5,0.9,2.6,2.2c0,0.1,0,0.2,0,0.3c0,1.6-1.2,2.9-3,4.7L527,7.8
	l0,0h3.9v1L525.4,8.8z"/>
<path class="st5" d="M538,4.4c0,3-1.1,4.6-3,4.6c-1.7,0-2.8-1.6-2.9-4.5s1.3-4.5,3-4.5S538,1.6,538,4.4z M533.3,4.5
	c0,2.2,0.7,3.5,1.8,3.5s1.8-1.4,1.8-3.6s-0.5-3.5-1.8-3.5C534,0.9,533.3,2.2,533.3,4.5L533.3,4.5z"/>
<path class="st5" d="M541.6,1.2L541.6,1.2l-1.5,0.8l-0.2-0.9l1.9-1h1v8.7h-1.1L541.6,1.2z"/>
<path class="st5" d="M551.1,1.1h-3.3l-0.3,2.2c0.2,0,0.5,0,0.7,0c0.7,0,1.3,0.1,1.9,0.5c0.8,0.4,1.3,1.3,1.2,2.2c0,1.7-1.3,3-3,3
	c-0.1,0-0.2,0-0.2,0c-0.8,0-1.5-0.2-2.2-0.5l0.3-0.9c0.6,0.3,1.2,0.5,1.9,0.5c1.1,0.1,2-0.7,2-1.8c0,0,0-0.1,0-0.1
	c0-1.1-0.8-1.9-2.5-1.9c-0.4,0-0.8,0-1.2,0.1l0.6-4.2h4.2L551.1,1.1z"/>
<path class="st5" d="M608,8.8V8.1l0.9-0.9c2.2-2.1,3.2-3.2,3.2-4.5c0.1-0.9-0.6-1.6-1.4-1.7c-0.1,0-0.2,0-0.3,0
	c-0.7,0-1.3,0.3-1.8,0.7l-0.4-0.9c0.7-0.6,1.6-0.9,2.5-0.9c1.3-0.1,2.5,0.9,2.6,2.2c0,0.1,0,0.2,0,0.3c0,1.6-1.2,2.9-3,4.7l-0.7,0.6
	l0,0h3.9v1L608,8.8z"/>
<path class="st5" d="M620.6,4.4c0,3-1.1,4.6-3,4.6c-1.7,0-2.8-1.6-2.9-4.5s1.3-4.5,3-4.5S620.6,1.6,620.6,4.4z M615.9,4.5
	c0,2.2,0.7,3.5,1.8,3.5s1.8-1.4,1.8-3.6s-0.5-3.5-1.8-3.5C616.6,0.9,615.9,2.2,615.9,4.5L615.9,4.5z"/>
<path class="st5" d="M624.2,1.2L624.2,1.2l-1.5,0.8l-0.2-0.9l1.9-1h1v8.7h-1.1L624.2,1.2z"/>
<path class="st5" d="M633.5,1c-0.3,0-0.6,0-0.9,0.1c-1.6,0.2-2.8,1.5-3,3.1l0,0c0.9-1.1,2.6-1.3,3.7-0.4c0.7,0.5,1.1,1.4,1,2.3
	c0.1,1.6-1.1,3-2.7,3c0,0-0.1,0-0.1,0c-1.8,0-3.1-1.4-3.1-3.7c0-1.4,0.5-2.9,1.5-3.9c0.8-0.7,1.7-1.2,2.8-1.3c0.3,0,0.6-0.1,0.8-0.1
	V1z M633.1,6c0.1-1-0.6-1.9-1.5-2c-0.1,0-0.2,0-0.3,0c-0.7,0-1.4,0.4-1.7,1.1c-0.1,0.2-0.1,0.3-0.1,0.5c0,1.4,0.7,2.5,1.9,2.5
	C632.5,8.1,633.2,7.2,633.1,6L633.1,6z"/>
<path class="st5" d="M692.8,8.8V8.1l0.9-0.9c2.2-2.1,3.2-3.2,3.3-4.5c0.1-0.9-0.6-1.6-1.4-1.7c-0.1,0-0.2,0-0.3,0
	c-0.7,0-1.3,0.3-1.8,0.7L693,0.9c0.7-0.6,1.6-0.9,2.5-0.9c1.3-0.1,2.5,0.9,2.7,2.2c0,0.1,0,0.2,0,0.3c0,1.6-1.2,2.9-3,4.7l-0.7,0.6
	l0,0h3.9v1L692.8,8.8z"/>
<path class="st5" d="M705.4,4.4c0,3-1.1,4.6-3,4.6c-1.7,0-2.8-1.6-2.9-4.5s1.3-4.5,3-4.5S705.4,1.6,705.4,4.4z M700.7,4.5
	c0,2.2,0.7,3.5,1.8,3.5s1.8-1.4,1.8-3.6s-0.5-3.5-1.8-3.5C701.5,0.9,700.7,2.2,700.7,4.5L700.7,4.5z"/>
<path class="st5" d="M709,1.2L709,1.2l-1.5,0.8l-0.2-0.9l1.9-1h1v8.7h-1.1L709,1.2z"/>
<path class="st5" d="M719,0.1v0.8l-3.8,7.9H714l3.8-7.7l0,0h-4.2v-1L719,0.1z"/>
<path class="st5" d="M779,8.8V8.1l0.9-0.9c2.2-2.1,3.2-3.2,3.2-4.5c0.1-0.9-0.6-1.6-1.4-1.7c-0.1,0-0.2,0-0.3,0
	c-0.7,0-1.3,0.3-1.8,0.7l-0.4-0.8c0.7-0.6,1.6-0.9,2.5-0.9c1.3-0.1,2.5,0.9,2.6,2.2c0,0.1,0,0.2,0,0.3c0,1.6-1.2,2.9-3,4.7l-0.7,0.6
	l0,0h3.9v1L779,8.8z"/>
<path class="st5" d="M791.6,4.4c0,3-1.1,4.6-3,4.6c-1.7,0-2.8-1.6-2.9-4.5s1.3-4.5,3-4.5S791.6,1.6,791.6,4.4z M786.9,4.5
	c0,2.2,0.7,3.5,1.8,3.5s1.8-1.4,1.8-3.6s-0.6-3.5-1.8-3.5C787.6,0.9,786.9,2.2,786.9,4.5z"/>
<path class="st5" d="M795.2,1.2L795.2,1.2l-1.5,0.8l-0.2-0.9l1.9-1h1v8.7h-1.1L795.2,1.2z"/>
<path class="st5" d="M799.4,6.6c0-1.1,0.7-2,1.7-2.3l0,0c-0.8-0.3-1.4-1.1-1.4-2c0-1.3,1.2-2.4,2.5-2.4c0.1,0,0.1,0,0.2,0
	c1.2-0.2,2.3,0.7,2.5,1.9c0,0.1,0,0.1,0,0.2c0,0.9-0.6,1.7-1.4,2l0,0c1,0.3,1.7,1.2,1.8,2.2c-0.1,1.5-1.3,2.6-2.8,2.5
	c-0.1,0-0.1,0-0.2,0C800.5,9,799.4,7.9,799.4,6.6z M804.1,6.6c0-1.1-0.7-1.6-1.9-1.9c-0.9,0.2-1.5,0.9-1.6,1.8
	c0,0.9,0.7,1.6,1.6,1.7c0.1,0,0.1,0,0.2,0c0.9,0.1,1.6-0.5,1.7-1.4C804.1,6.7,804.1,6.6,804.1,6.6L804.1,6.6z M800.8,2.3
	c0,0.9,0.7,1.3,1.7,1.6c0.7-0.2,1.3-0.8,1.3-1.6c0.1-0.7-0.5-1.4-1.2-1.5c-0.1,0-0.2,0-0.3,0c-0.8-0.1-1.4,0.5-1.5,1.2
	C800.8,2.1,800.8,2.2,800.8,2.3L800.8,2.3z"/>
<path class="st5" d="M862.4,8.8V8.1l0.9-0.9c2.2-2.1,3.2-3.2,3.2-4.5c0.1-0.9-0.6-1.6-1.4-1.7c-0.1,0-0.2,0-0.3,0
	c-0.7,0-1.3,0.3-1.8,0.7l-0.4-0.8c0.7-0.6,1.6-0.9,2.5-0.9c1.3-0.1,2.5,0.9,2.7,2.2c0,0.1,0,0.2,0,0.3c0,1.6-1.2,2.9-3,4.7l-0.7,0.6
	l0,0h3.9v1L862.4,8.8z"/>
<path class="st5" d="M875,4.4c0,3-1.1,4.6-3,4.6c-1.7,0-2.8-1.6-2.9-4.5s1.2-4.5,3-4.5S875,1.6,875,4.4z M870.3,4.5
	c0,2.2,0.7,3.5,1.8,3.5s1.8-1.4,1.8-3.6s-0.5-3.5-1.8-3.5C871.1,0.9,870.3,2.2,870.3,4.5L870.3,4.5z"/>
<path class="st5" d="M878.7,1.2L878.7,1.2l-1.5,0.8l-0.2-0.9l1.9-1h1v8.7h-1.1L878.7,1.2z"/>
<path class="st5" d="M883.7,8c0.3,0,0.7,0,1,0c0.7-0.1,1.3-0.4,1.8-0.8c0.6-0.6,1-1.4,1.2-2.3l0,0c-0.5,0.6-1.2,0.9-2,0.9
	c-1.4,0-2.5-1.1-2.6-2.5c0-0.1,0-0.1,0-0.2c0-1.7,1.3-3,2.9-3.1c0,0,0.1,0,0.1,0c1.8,0,2.9,1.4,2.9,3.7c0.1,1.5-0.5,3-1.5,4.1
	c-0.7,0.7-1.6,1.1-2.5,1.2C884.6,9,884.2,9,883.8,9L883.7,8z M884.1,3c-0.1,0.9,0.6,1.7,1.5,1.8c0.1,0,0.1,0,0.2,0
	c0.7,0,1.3-0.3,1.7-0.9c0.1-0.1,0.1-0.3,0.1-0.4c0-1.5-0.6-2.6-1.8-2.6C884.8,0.9,884.1,1.8,884.1,3L884.1,3z"/>
<path class="st5" d="M947.7,8.8V8.1l0.9-0.9c2.2-2.1,3.2-3.2,3.2-4.5c0.1-0.9-0.6-1.6-1.4-1.7c-0.1,0-0.2,0-0.3,0
	c-0.7,0-1.3,0.3-1.8,0.7L948,0.9c0.7-0.6,1.5-0.9,2.4-0.9c1.3-0.1,2.5,0.9,2.7,2.2c0,0.1,0,0.2,0,0.3c0,1.6-1.2,2.9-3,4.7l-0.7,0.6
	l0,0h3.9v1L947.7,8.8z"/>
<path class="st5" d="M960.3,4.4c0,3-1.1,4.6-3,4.6c-1.7,0-2.8-1.6-2.9-4.5s1.2-4.5,3-4.5S960.3,1.6,960.3,4.4z M955.6,4.5
	c0,2.2,0.7,3.5,1.8,3.5s1.8-1.4,1.8-3.6s-0.5-3.5-1.8-3.5C956.4,0.9,955.6,2.2,955.6,4.5z"/>
<path class="st5" d="M961.4,8.8V8.1l0.9-0.9c2.2-2.1,3.2-3.2,3.2-4.5c0.1-0.9-0.6-1.6-1.4-1.7c-0.1,0-0.2,0-0.3,0
	c-0.7,0-1.3,0.3-1.8,0.7l-0.4-0.8c0.7-0.6,1.6-0.9,2.5-0.9c1.3-0.1,2.5,0.9,2.6,2.2c0,0.1,0,0.2,0,0.3c0,1.6-1.2,2.9-3,4.7l-0.7,0.6
	l0,0h3.9v1L961.4,8.8z"/>
<path class="st5" d="M974,4.4c0,3-1,4.6-3,4.6c-1.7,0-2.8-1.6-2.9-4.5s1.3-4.5,3-4.5S974,1.6,974,4.4z M969.3,4.5
	c0,2.2,0.7,3.5,1.8,3.5s1.8-1.4,1.8-3.6s-0.5-3.5-1.7-3.5C970.1,0.9,969.3,2.2,969.3,4.5L969.3,4.5z"/>
<path class="st6" d="M116.5,130.4V76.6h135.2c8.1,0,14.6,6,14.6,13.3v40.5"/>
<line class="st3" x1="181.6" y1="235.8" x2="1.7" y2="234.8"/>
<path class="st2" d="M207.2,209.1h-20l0,0v-77.3l0,0h25.6l0,0v71.7C212.9,206.6,210.3,209.1,207.2,209.1
	C207.2,209.1,207.2,209.1,207.2,209.1L207.2,209.1z"/>
<path class="st2" d="M260.7,209.1h-20l0,0v-77.3l0,0h25.6l0,0v71.7C266.3,206.6,263.8,209.1,260.7,209.1z"/>
<line class="st3" x1="198.1" y1="309.2" x2="198.1" y2="210.8"/>
<line class="st3" x1="266.3" y1="309.9" x2="154.4" y2="309.9"/>
<path class="st2" d="M153.4,320.5h1.3v9.1h4.4v1.1h-5.7V320.5z"/>
<path class="st2" d="M166,326h-4v3.7h4.5v1.1h-5.8v-10.3h5.6v1.1H162v3.3h4V326z"/>
<path class="st2" d="M171.4,320.7c0.8-0.2,1.6-0.2,2.4-0.2c1-0.1,2,0.2,2.8,0.7c0.6,0.4,0.9,1.1,0.9,1.8c0,1-0.7,2-1.7,2.2l0,0
	c1.2,0.2,2.1,1.3,2.1,2.6c0,0.8-0.3,1.5-0.9,2c-1,0.8-2.3,1.1-3.6,1c-0.7,0-1.4,0-2.1-0.1L171.4,320.7z M172.7,324.9h1.2
	c1.4,0,2.2-0.7,2.2-1.7c0-1.2-0.9-1.7-2.2-1.7c-0.4,0-0.8,0-1.2,0.1L172.7,324.9z M172.7,329.8c0.4,0.1,0.7,0.1,1.1,0.1
	c1.4,0,2.6-0.5,2.6-2s-1.2-2-2.7-2h-1.1L172.7,329.8z"/>
<path class="st2" d="M181,320.5v10.3h-1.3v-10.3H181z"/>
<path class="st2" d="M188.6,326h-4v3.7h4.4v1.1h-5.8v-10.3h5.6v1.1h-4.2v3.3h4V326z"/>
<path class="st2" d="M190.8,330.8v-10.3h1.5l3.3,5.2c0.7,1.1,1.3,2.2,1.8,3.4l0,0c-0.1-1.4-0.1-2.6-0.1-4.2v-4.3h1.2v10.2h-1.4
	l-3.3-5.2c-0.7-1.1-1.3-2.3-1.9-3.4l0,0c0.1,1.3,0.1,2.5,0.1,4.2v4.4L190.8,330.8z"/>
<path class="st2" d="M204,320.6c0.8-0.1,1.7-0.2,2.6-0.2c1-0.1,2.1,0.2,2.9,0.9c0.6,0.5,0.9,1.3,0.9,2.1c0,0.8-0.2,1.6-0.8,2.2
	c-0.9,0.8-2,1.2-3.1,1.1c-0.4,0-0.7,0-1.1-0.1v4.1H204V320.6z M205.3,325.6c0.4,0.1,0.7,0.1,1.1,0.1c1.6,0,2.6-0.8,2.6-2.2
	s-1-2-2.4-2c-0.4,0-0.8,0-1.3,0.1L205.3,325.6z"/>
<path class="st2" d="M213.5,320.5v6.1c0,2.3,1,3.3,2.4,3.3s2.5-1,2.5-3.3v-6.1h1.3v6c0,3.2-1.7,4.5-3.9,4.5s-3.7-1.2-3.7-4.4v-6
	L213.5,320.5z"/>
<path class="st2" d="M222,320.7c0.8-0.2,1.6-0.2,2.4-0.2c1-0.1,2,0.2,2.8,0.7c0.6,0.4,0.9,1.1,0.9,1.8c0,1-0.7,2-1.7,2.2l0,0
	c1.2,0.2,2.1,1.3,2.1,2.6c0,0.8-0.3,1.5-0.9,2c-1,0.8-2.3,1.1-3.6,1c-0.7,0-1.4,0-2.1-0.1L222,320.7z M223.3,324.9h1.2
	c1.4,0,2.2-0.7,2.2-1.7c0-1.2-0.9-1.7-2.2-1.7c-0.4,0-0.8,0-1.2,0.1L223.3,324.9z M223.3,329.8c0.4,0.1,0.7,0.1,1.1,0.1
	c1.4,0,2.6-0.5,2.6-2s-1.2-2-2.7-2h-1.1L223.3,329.8z"/>
<path class="st2" d="M230.3,320.5h1.3v9.1h4.4v1.1h-5.7V320.5z"/>
<path class="st2" d="M238.8,320.5v10.3h-1.3v-10.3H238.8z"/>
<path class="st2" d="M248.3,330.5c-0.9,0.4-1.8,0.5-2.7,0.5c-2.6,0.2-4.9-1.9-5.1-4.5c0-0.2,0-0.5,0-0.7c-0.2-2.8,2-5.2,4.8-5.4
	c0.2,0,0.4,0,0.6,0c0.8,0,1.7,0.1,2.4,0.5l-0.3,1.1c-0.6-0.3-1.4-0.4-2.1-0.4c-2.4,0-4,1.5-4,4.2c0,2.5,1.4,4.1,3.9,4.1
	c0.7,0,1.5-0.1,2.2-0.4L248.3,330.5z"/>
<path class="st2" d="M151.6,351.2c0.5,0,1.1-0.2,1.5-0.6c0.4-0.4,0.5-1,0.5-2.8v-6.2h1.3v6.7c0.1,1.1-0.2,2.2-0.9,3
	c-0.6,0.5-1.5,0.8-2.3,0.8L151.6,351.2z M155.1,339.6c0,0.5-0.4,0.8-0.8,0.8c-0.5,0-0.8-0.4-0.8-0.8c0-0.4,0.3-0.8,0.8-0.8
	c0,0,0,0,0.1,0C154.7,338.8,155,339.1,155.1,339.6C155.1,339.6,155.1,339.6,155.1,339.6z"/>
<path class="st2" d="M163.8,345.3c0.2,2-1.3,3.7-3.3,3.9c-0.1,0-0.3,0-0.4,0c-1.9,0-3.5-1.5-3.6-3.5c0-0.1,0-0.2,0-0.3
	c-0.2-2,1.3-3.7,3.3-3.9c0.1,0,0.3,0,0.4,0c1.9,0,3.5,1.5,3.6,3.4C163.8,345.1,163.8,345.2,163.8,345.3z M157.9,345.4
	c0,1.6,0.9,2.8,2.2,2.8s2.2-1.2,2.2-2.9c0-1.2-0.6-2.8-2.2-2.8S157.9,344,157.9,345.4L157.9,345.4z"/>
<path class="st2" d="M171.6,347.1c0,0.8,0,1.4,0.1,2h-1.2l-0.1-1.2l0,0c-0.5,0.9-1.4,1.4-2.4,1.4c-1.1,0-2.5-0.6-2.5-3.2v-4.3h1.3
	v4.1c0,1.4,0.4,2.4,1.6,2.4c0.8,0,1.5-0.5,1.8-1.2c0.1-0.2,0.1-0.5,0.1-0.7v-4.5h1.3L171.6,347.1z"/>
<path class="st2" d="M173.9,344c0-0.9,0-1.6-0.1-2.3h1.2l0.1,1.4l0,0c0.3-0.9,1.1-1.6,2.1-1.6c0.1,0,0.2,0,0.4,0v1.3
	c-0.2,0-0.3,0-0.5,0c-0.9,0-1.7,0.8-1.8,1.7c0,0.2-0.1,0.4-0.1,0.6v3.9h-1.3L173.9,344z"/>
<path class="st2" d="M178.9,343.7c0-0.8,0-1.4-0.1-2h1.1l0.1,1.2l0,0c0.5-0.9,1.4-1.4,2.4-1.4c1,0,2.6,0.6,2.6,3.1v4.4h-1.3v-4.2
	c0-1.2-0.4-2.2-1.7-2.2c-0.8,0-1.6,0.6-1.8,1.4c-0.1,0.2-0.1,0.4-0.1,0.6v4.4h-1.3L178.9,343.7z"/>
<path class="st2" d="M191.5,349.1l-0.1-0.9l0,0c-0.5,0.7-1.4,1.1-2.3,1.1c-1.2,0.1-2.2-0.8-2.2-2c0-0.1,0-0.1,0-0.2
	c0-1.8,1.6-2.8,4.4-2.8v-0.1c0.1-0.8-0.5-1.6-1.3-1.7c-0.1,0-0.3,0-0.4,0c-0.7,0-1.3,0.2-1.9,0.5l-0.3-0.9c0.7-0.4,1.6-0.7,2.4-0.6
	c2.3,0,2.8,1.5,2.8,3v2.8c0,0.6,0,1.2,0.1,1.8L191.5,349.1z M191.3,345.3c-1.4,0-3.1,0.2-3.1,1.7c-0.1,0.6,0.4,1.2,1.1,1.3
	c0.1,0,0.1,0,0.2,0c0.8,0,1.5-0.5,1.8-1.2c0-0.1,0.1-0.3,0.1-0.4V345.3z"/>
<path class="st2" d="M194.7,338.3h1.3v10.8h-1.3V338.3z"/>
<path class="st2" d="M199.8,339.6c-0.1,0.5-0.5,0.8-0.9,0.7c-0.4,0-0.7-0.4-0.7-0.7c0-0.5,0.4-0.8,0.8-0.8c0,0,0,0,0,0
	C199.4,338.8,199.8,339.1,199.8,339.6C199.8,339.6,199.8,339.6,199.8,339.6z M198.3,349.1v-7.4h1.3v7.4H198.3z"/>
<path class="st2" d="M201.7,347.7c0.5,0.3,1.1,0.5,1.8,0.5c1,0,1.4-0.5,1.4-1.1s-0.4-1-1.4-1.4c-1.3-0.5-2-1.2-1.9-2.1
	c0.1-1.3,1.1-2.2,2.4-2.2c0.1,0,0.1,0,0.2,0c0.6,0,1.3,0.1,1.8,0.5l-0.3,1c-0.5-0.3-1-0.4-1.5-0.4c-0.8,0-1.2,0.5-1.2,1
	s0.4,0.9,1.4,1.3c1.3,0.5,1.9,1.1,1.9,2.2c0,1.3-1,2.2-2.8,2.2c-0.7,0-1.4-0.2-2.1-0.5L201.7,347.7z"/>
<path class="st2" d="M209.5,339.6v2.1h1.9v1h-1.9v4c0,0.9,0.3,1.4,1,1.4c0.3,0,0.5,0,0.8-0.1l0.1,1c-0.4,0.1-0.8,0.2-1.2,0.2
	c-0.5,0-1.1-0.2-1.4-0.6c-0.4-0.6-0.6-1.2-0.5-1.9v-4h-1.1v-1h1.1V340L209.5,339.6z"/>
<line class="st3" x1="251.1" y1="233.9" x2="251.1" y2="209.1"/>
<line class="st3" x1="346.5" y1="234.6" x2="227.8" y2="234.6"/>
<path class="st2" d="M228.9,245h5.5v1.1h-4.2v3.4h3.9v1.1h-3.9v4.6h-1.3V245z"/>
<path class="st2" d="M236.4,245.2c0.8-0.1,1.7-0.2,2.6-0.2c1.1-0.1,2.1,0.2,3,0.8c0.5,0.5,0.8,1.2,0.8,2c0,1.2-0.8,2.3-1.9,2.6l0,0
	c0.8,0.4,1.4,1.2,1.5,2.1c0.2,1,0.5,1.9,0.8,2.8h-1.4c-0.3-0.8-0.5-1.6-0.7-2.5c-0.3-1.4-0.9-2-2.1-2h-1.3v4.4h-1.3L236.4,245.2z
	 M237.7,249.8h1.4c1.4,0,2.3-0.8,2.3-1.9c0-1.3-1-1.9-2.4-1.9c-0.4,0-0.9,0-1.3,0.1V249.8z"/>
<path class="st2" d="M246.3,252.1l-1.1,3.2h-1.4l3.5-10.3h1.6l3.5,10.3h-1.4L250,252L246.3,252.1z M249.7,251.1l-1-3
	c-0.2-0.7-0.4-1.3-0.5-1.9l0,0c-0.1,0.6-0.3,1.2-0.5,1.9l-1,3L249.7,251.1z"/>
<path class="st2" d="M254,255.3V245h1.5l3.3,5.2c0.7,1.1,1.3,2.2,1.8,3.4l0,0c-0.1-1.4-0.1-2.6-0.1-4.2V245h1.2v10.3h-1.4l-3.3-5.2
	c-0.7-1.1-1.3-2.3-1.9-3.4h-0.1c0.1,1.3,0.1,2.5,0.1,4.2v4.4L254,255.3z"/>
<path class="st2" d="M271.2,255c-0.9,0.4-1.8,0.5-2.7,0.5c-2.6,0.2-4.9-1.9-5.1-4.5c0-0.2,0-0.5,0-0.7c-0.2-2.8,2-5.2,4.8-5.4
	c0.2,0,0.4,0,0.6,0c0.8,0,1.7,0.1,2.4,0.4l-0.3,1.1c-0.7-0.3-1.4-0.4-2.1-0.4c-2.4,0-4,1.5-4,4.2c0,2.5,1.5,4.1,3.9,4.1
	c0.7,0,1.5-0.1,2.2-0.4L271.2,255z"/>
<path class="st2" d="M278.2,250.5h-4v3.7h4.5v1.1h-5.8V245h5.6v1.1h-4.2v3.3h4V250.5z"/>
<path class="st2" d="M290.8,255c-0.9,0.4-1.8,0.5-2.7,0.5c-2.6,0.2-4.9-1.9-5.1-4.5c0-0.2,0-0.5,0-0.7c-0.2-2.8,2-5.2,4.8-5.4
	c0.2,0,0.4,0,0.6,0c0.8,0,1.7,0.1,2.4,0.4l-0.3,1.1c-0.6-0.3-1.4-0.4-2.1-0.4c-2.4,0-4,1.5-4,4.2c0,2.5,1.5,4.1,3.9,4.1
	c0.7,0,1.5-0.1,2.2-0.4L290.8,255z"/>
<path class="st2" d="M293.8,245v6.1c0,2.3,1,3.3,2.4,3.3s2.5-1,2.5-3.3V245h1.3v6c0,3.2-1.7,4.4-3.9,4.4s-3.7-1.2-3.7-4.4V245H293.8
	z"/>
<path class="st2" d="M302.3,245h1.3v9.1h4.4v1.1h-5.7L302.3,245z"/>
<path class="st2" d="M310.1,246.1H307V245h7.6v1.1h-3.1v9.1h-1.3L310.1,246.1z"/>
<path class="st2" d="M317,245v6.1c0,2.3,1,3.3,2.4,3.3s2.5-1,2.5-3.3V245h1.3v6c0,3.2-1.7,4.4-3.9,4.4s-3.7-1.2-3.7-4.4V245H317z"/>
<path class="st2" d="M325.6,245.2c0.8-0.1,1.7-0.2,2.5-0.2c1.1-0.1,2.1,0.2,3,0.8c0.5,0.5,0.8,1.2,0.8,2c0,1.2-0.8,2.3-1.9,2.6l0,0
	c0.8,0.4,1.4,1.2,1.5,2.1c0.2,1,0.4,1.9,0.8,2.8h-1.4c-0.3-0.8-0.5-1.6-0.7-2.5c-0.3-1.4-0.9-2-2.1-2h-1.2v4.4h-1.3L325.6,245.2z
	 M326.9,249.8h1.4c1.4,0,2.3-0.8,2.3-1.9c0-1.3-1-1.9-2.4-1.9c-0.4,0-0.9,0-1.3,0.1L326.9,249.8z"/>
<path class="st2" d="M339.1,250.5h-4v3.7h4.5v1.1h-5.8V245h5.6v1.1h-4.2v3.3h4V250.5z"/>
<path class="st2" d="M227.1,275.7c0.5,0,1.1-0.2,1.5-0.6c0.4-0.4,0.5-1,0.5-2.8v-6.2h1.3v6.7c0.1,1.1-0.2,2.2-0.9,3
	c-0.6,0.5-1.5,0.8-2.3,0.8L227.1,275.7z M230.6,264.1c0,0.4-0.3,0.8-0.8,0.8c0,0,0,0-0.1,0c-0.4,0-0.8-0.3-0.8-0.8c0,0,0,0,0-0.1
	c0-0.4,0.3-0.8,0.8-0.8c0,0,0,0,0.1,0C230.2,263.3,230.6,263.6,230.6,264.1C230.6,264.1,230.6,264.1,230.6,264.1z"/>
<path class="st2" d="M239.3,269.8c0.2,2-1.3,3.7-3.3,3.9c-0.1,0-0.3,0-0.4,0c-1.9,0-3.5-1.5-3.6-3.5c0-0.1,0-0.2,0-0.3
	c-0.2-2,1.3-3.7,3.3-3.9c0.1,0,0.3,0,0.4,0c1.9,0,3.5,1.5,3.6,3.4C239.3,269.6,239.3,269.7,239.3,269.8z M233.4,269.9
	c0,1.6,0.9,2.8,2.2,2.8s2.2-1.2,2.2-2.9c0-1.2-0.6-2.8-2.2-2.8S233.4,268.5,233.4,269.9z"/>
<path class="st2" d="M247.1,271.6c0,0.8,0,1.4,0.1,2H246l-0.1-1.2l0,0c-0.5,0.9-1.4,1.4-2.4,1.4c-1.1,0-2.5-0.6-2.5-3.2v-4.3h1.3
	v4.1c0,1.4,0.4,2.4,1.6,2.4c0.8,0,1.5-0.5,1.8-1.2c0.1-0.2,0.1-0.5,0.1-0.7v-4.5h1.3L247.1,271.6z"/>
<path class="st2" d="M249.4,268.5c0-0.9,0-1.6-0.1-2.3h1.2v1.4h0.1c0.3-0.9,1.1-1.5,2-1.6c0.1,0,0.3,0,0.4,0v1.3c-0.2,0-0.3,0-0.5,0
	c-0.9,0-1.7,0.8-1.8,1.7c0,0.2-0.1,0.4-0.1,0.6v3.9h-1.3L249.4,268.5z"/>
<path class="st2" d="M254.4,268.2c0-0.8,0-1.4-0.1-2h1.2l0.1,1.2l0,0c0.5-0.9,1.4-1.4,2.4-1.4c1,0,2.6,0.6,2.6,3.1v4.4h-1.3v-4.2
	c0-1.2-0.4-2.2-1.7-2.2c-0.8,0-1.6,0.6-1.8,1.4c-0.1,0.2-0.1,0.4-0.1,0.6v4.4h-1.3L254.4,268.2z"/>
<path class="st2" d="M267,273.6l-0.1-0.9l0,0c-0.5,0.7-1.4,1.1-2.3,1.1c-1.2,0.1-2.2-0.8-2.2-1.9c0-0.1,0-0.1,0-0.2
	c0-1.8,1.6-2.8,4.4-2.7v-0.2c0.1-0.8-0.5-1.6-1.3-1.7c-0.1,0-0.2,0-0.4,0c-0.7,0-1.3,0.2-1.9,0.5l-0.3-0.9c0.7-0.4,1.6-0.7,2.4-0.6
	c2.3,0,2.8,1.5,2.8,3v2.8c0,0.6,0,1.2,0.1,1.8L267,273.6z M266.8,269.8c-1.5,0-3.1,0.2-3.1,1.7c-0.1,0.6,0.4,1.2,1.1,1.3
	c0.1,0,0.1,0,0.2,0c0.8,0,1.5-0.5,1.8-1.2c0-0.1,0.1-0.3,0.1-0.4V269.8z"/>
<path class="st2" d="M270.2,262.8h1.3v10.8h-1.3V262.8z"/>
<path class="st2" d="M275.3,264.1c0,0.5-0.4,0.8-0.8,0.8s-0.8-0.4-0.8-0.8s0.4-0.8,0.8-0.8c0,0,0,0,0,0
	C274.9,263.3,275.3,263.6,275.3,264.1C275.3,264.1,275.3,264.1,275.3,264.1z M273.8,273.6v-7.4h1.3v7.4H273.8z"/>
<path class="st2" d="M277.2,272.2c0.5,0.3,1.2,0.5,1.8,0.5c1,0,1.4-0.5,1.4-1.1s-0.4-1-1.4-1.4c-1.3-0.5-2-1.2-2-2.1
	c0.1-1.3,1.1-2.2,2.4-2.2c0.1,0,0.1,0,0.2,0c0.6,0,1.3,0.1,1.8,0.5l-0.3,1c-0.5-0.3-1-0.4-1.5-0.4c-0.8,0-1.2,0.5-1.2,1
	s0.4,0.9,1.4,1.2c1.3,0.5,1.9,1.1,1.9,2.2c0,1.3-1,2.2-2.8,2.2c-0.7,0-1.4-0.2-2.1-0.5L277.2,272.2z"/>
<path class="st2" d="M285,264.1v2.1h2v1h-1.9v4c0,0.9,0.3,1.4,1,1.4c0.3,0,0.5,0,0.8-0.1l0.1,1c-0.4,0.1-0.8,0.2-1.2,0.2
	c-0.5,0-1.1-0.2-1.5-0.6c-0.4-0.6-0.6-1.2-0.5-1.9v-4h-1.1v-1h1.1v-1.8L285,264.1z"/>
<path class="st2" d="M364,209.1h-79.3l0,0v-77.3l0,0h84.9l0,0v71.7C369.7,206.6,367.1,209.1,364,209.1z"/>
<line class="st3" x1="358.3" y1="308.7" x2="358.3" y2="209.1"/>
<line class="st3" x1="492.9" y1="310.6" x2="340.2" y2="309.2"/>
<path class="st2" d="M339.9,320.5h1.3v9.1h4.4v1.1h-5.7V320.5z"/>
<path class="st2" d="M352.4,326h-4v3.7h4.5v1.1h-5.8v-10.3h5.5v1.1h-4.2v3.3h4L352.4,326z"/>
<path class="st2" d="M357.8,320.7c0.9-0.1,1.9-0.2,2.8-0.2c1.5-0.1,3,0.3,4.2,1.3c1,0.9,1.5,2.3,1.5,3.7c0.1,1.5-0.5,2.9-1.5,4
	c-1.3,1.1-2.9,1.6-4.5,1.5c-0.8,0-1.6,0-2.4-0.1L357.8,320.7z M359.1,329.8c0.4,0,0.9,0.1,1.3,0.1c2.8,0,4.4-1.6,4.4-4.4
	c0-2.4-1.4-4-4.1-4c-0.5,0-1,0-1.6,0.1V329.8z"/>
<path class="st2" d="M369.4,327.6l-1.1,3.2H367l3.5-10.3h1.6l3.5,10.3h-1.4l-1.1-3.2H369.4z M372.8,326.6l-1-3
	c-0.2-0.7-0.4-1.3-0.5-1.9l0,0c-0.1,0.6-0.3,1.2-0.5,1.9l-1,3L372.8,326.6z"/>
<path class="st2" d="M378,320.5v6.1c0,2.3,1,3.3,2.4,3.3s2.5-1,2.5-3.3v-6.1h1.3v6c0,3.2-1.7,4.5-3.9,4.5s-3.7-1.2-3.7-4.4v-6
	L378,320.5z"/>
<path class="st2" d="M386.5,320.6c0.8-0.1,1.7-0.2,2.5-0.2c1-0.1,2.1,0.2,2.9,0.9c0.6,0.5,0.9,1.3,0.9,2.1c0,0.8-0.2,1.6-0.8,2.2
	c-0.8,0.8-2,1.2-3.1,1.1c-0.4,0-0.7,0-1.1-0.1v4.1h-1.3V320.6z M387.9,325.6c0.4,0.1,0.7,0.1,1.1,0.1c1.6,0,2.6-0.8,2.6-2.2
	s-1-2-2.4-2c-0.4,0-0.8,0-1.2,0.1V325.6z"/>
<path class="st2" d="M396,320.5v4.3h5v-4.3h1.3v10.3H401V326h-5v4.8h-1.3v-10.3H396z"/>
<path class="st2" d="M405.9,320.5v10.3h-1.3v-10.3H405.9z"/>
<path class="st2" d="M408.2,330.8v-10.3h1.5l3.3,5.2c0.7,1.1,1.3,2.2,1.8,3.4l0,0c-0.1-1.4-0.1-2.6-0.1-4.2v-4.3h1.3v10.2h-1.4
	l-3.3-5.2c-0.7-1.1-1.3-2.3-1.9-3.4l0,0c0.1,1.3,0.1,2.5,0.1,4.2v4.4L408.2,330.8z"/>
<path class="st2" d="M423.6,326h-4v3.7h4.5v1.1h-5.8v-10.3h5.5v1.1h-4.2v3.3h4L423.6,326z M423.3,318.2l-1.9,1.8h-1.1l1.4-1.8
	L423.3,318.2z"/>
<path class="st2" d="M429,320.5h1.3v9.1h4.4v1.1H429V320.5z"/>
<path class="st2" d="M437.5,320.5v10.3h-1.3v-10.3H437.5z"/>
<path class="st2" d="M439.8,320.7c0.8-0.2,1.6-0.2,2.4-0.2c1-0.1,2,0.2,2.8,0.7c0.6,0.4,0.9,1.1,0.9,1.8c0,1-0.7,2-1.7,2.2l0,0
	c1.2,0.2,2.1,1.3,2.1,2.6c0,0.8-0.3,1.5-0.9,2c-1,0.8-2.3,1.1-3.5,1c-0.7,0-1.4,0-2.1-0.1V320.7z M441.2,324.9h1.2
	c1.4,0,2.2-0.7,2.2-1.7c0-1.2-0.9-1.7-2.2-1.7c-0.4,0-0.8,0-1.2,0.1V324.9z M441.2,329.8c0.4,0.1,0.7,0.1,1.1,0.1
	c1.4,0,2.6-0.5,2.6-2s-1.2-2-2.7-2h-1.1V329.8z"/>
<path class="st2" d="M453.4,326h-4v3.7h4.5v1.1h-5.8v-10.3h5.5v1.1h-4.2v3.3h4L453.4,326z M453.2,318.2l-1.9,1.8h-1.1l1.4-1.8
	L453.2,318.2z"/>
<path class="st2" d="M455.6,320.7c0.8-0.2,1.7-0.2,2.5-0.2c1.1-0.1,2.1,0.2,3,0.8c0.5,0.5,0.8,1.2,0.8,2c0,1.2-0.8,2.3-1.9,2.6l0,0
	c0.8,0.4,1.4,1.2,1.5,2.1c0.2,1,0.4,1.9,0.8,2.8h-1.4c-0.3-0.8-0.5-1.6-0.7-2.5c-0.3-1.4-0.9-2-2.1-2h-1.3v4.5h-1.3V320.7z
	 M456.9,325.4h1.4c1.4,0,2.3-0.8,2.3-2s-1-1.9-2.4-1.9c-0.4,0-0.9,0-1.3,0.1V325.4z"/>
<path class="st2" d="M469.1,326h-4v3.7h4.5v1.1h-5.8v-10.3h5.6v1.1h-4.2v3.3h4L469.1,326z M468.9,318.2l-1.9,1.8h-1.1l1.4-1.8
	L468.9,318.2z"/>
<path class="st2" d="M338,351.2c0.5,0,1.1-0.2,1.5-0.6c0.4-0.4,0.5-1,0.5-2.8v-6.2h1.3v6.7c0.1,1.1-0.2,2.2-0.9,3
	c-0.6,0.5-1.5,0.8-2.3,0.8L338,351.2z M341.5,339.6c0,0.4-0.3,0.8-0.8,0.8c0,0-0.1,0-0.1,0c-0.4,0-0.8-0.3-0.8-0.8c0,0,0,0,0-0.1
	c0-0.4,0.3-0.8,0.8-0.8c0,0,0,0,0.1,0C341.1,338.8,341.5,339.1,341.5,339.6C341.5,339.6,341.5,339.6,341.5,339.6z"/>
<path class="st2" d="M350.2,345.3c0.2,2-1.3,3.7-3.3,3.9c-0.1,0-0.3,0-0.4,0c-1.9,0-3.5-1.5-3.6-3.5c0-0.1,0-0.2,0-0.3
	c-0.2-2,1.3-3.7,3.3-3.9c0.1,0,0.3,0,0.4,0c1.9,0,3.5,1.5,3.6,3.4C350.2,345.1,350.2,345.2,350.2,345.3z M344.4,345.4
	c0,1.6,0.9,2.8,2.2,2.8s2.2-1.2,2.2-2.9c0-1.2-0.6-2.8-2.2-2.8S344.4,344,344.4,345.4z"/>
<path class="st2" d="M358.1,347.1c0,0.8,0,1.4,0.1,2H357l-0.1-1.2l0,0c-0.5,0.9-1.4,1.4-2.4,1.4c-1.1,0-2.5-0.6-2.5-3.2v-4.3h1.3
	v4.1c0,1.4,0.4,2.4,1.6,2.4c0.8,0,1.5-0.5,1.8-1.2c0.1-0.2,0.1-0.5,0.1-0.7v-4.5h1.3L358.1,347.1z"/>
<path class="st2" d="M360.3,344c0-0.9,0-1.6-0.1-2.3h1.2l0,1.4h0c0.3-0.9,1.1-1.5,2-1.6c0.1,0,0.3,0,0.4,0v1.3c-0.2,0-0.3,0-0.5,0
	c-0.9,0-1.7,0.8-1.8,1.7c0,0.2,0,0.4,0,0.6v3.9h-1.3L360.3,344z"/>
<path class="st2" d="M365.4,343.7c0-0.8,0-1.4-0.1-2h1.2l0.1,1.2l0,0c0.5-0.9,1.4-1.4,2.4-1.4c1,0,2.6,0.6,2.6,3.1v4.4h-1.3v-4.2
	c0-1.2-0.5-2.2-1.7-2.2c-0.8,0-1.5,0.6-1.8,1.4c-0.1,0.2-0.1,0.4-0.1,0.6v4.4h-1.3V343.7z"/>
<path class="st2" d="M377.9,349.1l-0.1-0.9l0,0c-0.5,0.7-1.4,1.1-2.3,1.1c-1.2,0.1-2.2-0.8-2.2-1.9c0-0.1,0-0.1,0-0.2
	c0-1.8,1.6-2.8,4.4-2.8v-0.1c0.1-0.8-0.5-1.6-1.3-1.7c-0.1,0-0.2,0-0.4,0c-0.7,0-1.3,0.2-1.9,0.5l-0.3-0.9c0.7-0.4,1.6-0.7,2.4-0.6
	c2.2,0,2.8,1.5,2.8,3v2.8c0,0.6,0,1.2,0.1,1.8L377.9,349.1z M377.7,345.3c-1.5,0-3.1,0.2-3.1,1.7c-0.1,0.6,0.4,1.2,1.1,1.3
	c0.1,0,0.1,0,0.2,0c0.8,0,1.5-0.5,1.8-1.2c0-0.1,0.1-0.3,0.1-0.4L377.7,345.3z"/>
<path class="st2" d="M381.2,338.3h1.3v10.8h-1.3V338.3z"/>
<path class="st2" d="M386.3,339.6c0,0.5-0.4,0.8-0.8,0.8c-0.5,0-0.8-0.4-0.8-0.8c0-0.4,0.3-0.8,0.8-0.8c0,0,0,0,0.1,0
	C385.9,338.8,386.3,339.1,386.3,339.6C386.3,339.6,386.3,339.6,386.3,339.6z M384.8,349.1v-7.4h1.3v7.4H384.8z"/>
<path class="st2" d="M388.2,347.7c0.5,0.3,1.2,0.5,1.8,0.5c1,0,1.4-0.5,1.4-1.1s-0.4-1-1.4-1.4c-1.3-0.5-2-1.2-2-2.1
	c0.1-1.3,1.1-2.2,2.4-2.2c0.1,0,0.1,0,0.2,0c0.6,0,1.3,0.1,1.8,0.5l-0.3,1c-0.5-0.3-1-0.4-1.5-0.4c-0.8,0-1.2,0.5-1.2,1
	s0.4,0.9,1.4,1.3c1.3,0.5,1.9,1.1,1.9,2.2c0,1.3-1,2.2-2.8,2.2c-0.7,0-1.4-0.2-2.1-0.5L388.2,347.7z"/>
<path class="st2" d="M396,339.6v2.1h1.9v1H396v4c0,0.9,0.3,1.4,1,1.4c0.3,0,0.5,0,0.8-0.1l0.1,1c-0.4,0.1-0.8,0.2-1.2,0.2
	c-0.5,0-1.1-0.2-1.4-0.6c-0.4-0.6-0.6-1.2-0.5-1.9v-4h-1.1v-1h1.1V340L396,339.6z"/>
<path class="st6" d="M284.8,130.4V76.6h74.3c4.4,0,8,6,8,13.3v40.5"/>
<path class="st2" d="M503.9,209.1H380.1l0,0v-77.3l0,0h129.4l0,0v71.7C509.5,206.6,507,209.1,503.9,209.1L503.9,209.1z"/>
<line class="st4" x1="452" y1="130.4" x2="452" y2="17.1"/>
<path class="st2" d="M528.8,209.1h-12.5l0,0v-77.3l0,0h18.1l0,0v71.7C534.4,206.6,531.9,209.1,528.8,209.1z"/>
<line class="st3" x1="523" y1="233.8" x2="523" y2="209.1"/>
<line class="st3" x1="597.9" y1="235.8" x2="506.8" y2="234.8"/>
<path class="st2" d="M515.1,255c-0.9,0.4-1.8,0.5-2.7,0.5c-2.6,0.2-4.9-1.9-5.1-4.5c0-0.2,0-0.5,0-0.7c-0.2-2.8,2-5.2,4.8-5.4
	c0.2,0,0.4,0,0.6,0c0.8,0,1.7,0.1,2.4,0.4l-0.3,1.1c-0.7-0.3-1.4-0.4-2.1-0.4c-2.4,0-4,1.5-4,4.2c0,2.5,1.5,4.1,3.9,4.1
	c0.7,0,1.5-0.1,2.2-0.4L515.1,255z"/>
<path class="st2" d="M518.5,252.1l-1.1,3.2H516l3.5-10.3h1.6l3.5,10.3h-1.4l-1.1-3.2L518.5,252.1z M521.8,251.1l-1-3
	c-0.2-0.7-0.4-1.3-0.5-1.9l0,0c-0.2,0.6-0.3,1.2-0.5,1.9l-1,3L521.8,251.1z"/>
<path class="st2" d="M526.1,245.2c0.9-0.1,1.9-0.2,2.9-0.2c1.5-0.1,3,0.3,4.2,1.3c1,1,1.5,2.3,1.5,3.7c0.1,1.5-0.5,2.9-1.5,4
	c-1.3,1.1-2.9,1.6-4.5,1.5c-0.8,0-1.6,0-2.4-0.1L526.1,245.2z M527.5,254.3c0.4,0,0.9,0.1,1.3,0.1c2.8,0,4.4-1.6,4.4-4.4
	c0-2.4-1.3-4-4.2-4c-0.5,0-1,0-1.6,0.1V254.3z"/>
<path class="st2" d="M545.1,250.1c0,3.5-2.2,5.4-4.8,5.4s-4.6-2.1-4.6-5.2c0-3.3,2-5.4,4.8-5.4S545.1,247,545.1,250.1z M537.1,250.2
	c0,2.2,1.2,4.2,3.3,4.2s3.3-1.9,3.3-4.3c0-2-1.1-4.2-3.3-4.2S537.1,248,537.1,250.2L537.1,250.2z"/>
<path class="st2" d="M546.8,245h1.3v9.1h4.4v1.1h-5.7V245z"/>
<path class="st2" d="M559.3,250.5h-4v3.7h4.5v1.1H554V245h5.5v1.1h-4.2v3.3h4L559.3,250.5z"/>
<path class="st2" d="M561.3,253.7c0.7,0.4,1.5,0.7,2.4,0.7c1.3,0,2.2-0.7,2.2-1.8s-0.6-1.5-1.9-2c-1.7-0.6-2.7-1.5-2.7-2.9
	c0-1.6,1.3-2.8,3.3-2.8c0.8,0,1.6,0.1,2.3,0.5l-0.4,1.1c-0.6-0.3-1.3-0.5-1.9-0.5c-1.4,0-2,0.8-2,1.5c0,1,0.6,1.4,2,2
	c1.7,0.7,2.6,1.5,2.6,3s-1.2,3-3.6,3c-0.9,0-1.8-0.2-2.6-0.7L561.3,253.7z"/>
<path class="st2" d="M514.2,262.8v8.9c0,0.6,0,1.4,0.1,1.9h-1.2l-0.1-1.3l0,0c-0.5,0.9-1.5,1.5-2.5,1.4c-1.8,0-3.2-1.5-3.2-3.8
	c0-2.5,1.5-4,3.3-4c0.9-0.1,1.7,0.4,2.2,1.1l0,0v-4.4L514.2,262.8z M512.9,269.2c0-0.2,0-0.4-0.1-0.6c-0.2-0.9-1-1.5-1.9-1.5
	c-1.4,0-2.2,1.2-2.2,2.8s0.7,2.7,2.2,2.7c1,0,1.8-0.7,2-1.6c0-0.2,0.1-0.4,0.1-0.6L512.9,269.2z"/>
<path class="st2" d="M517.2,270.2c-0.1,1.3,0.8,2.4,2.1,2.5c0.1,0,0.3,0,0.4,0c0.7,0,1.4-0.1,2-0.4l0.2,1c-0.8,0.3-1.6,0.5-2.5,0.5
	c-1.9,0.1-3.5-1.3-3.6-3.2c0-0.2,0-0.3,0-0.5c0-2.2,1.3-4,3.5-4c2.4,0,3,2.1,3,3.5c0,0.2,0,0.4,0,0.6L517.2,270.2z M521.1,269.2
	c0.1-1-0.6-2-1.6-2.2c-0.1,0-0.1,0-0.2,0c-1.1,0.1-2,1-2.1,2.2H521.1z"/>
<path class="st2" d="M524.6,266.2l1.5,4.1c0.2,0.7,0.4,1.3,0.6,1.9l0,0c0.2-0.6,0.4-1.2,0.6-1.9l1.4-4.1h1.4l-2.9,7.4H526l-2.8-7.4
	H524.6z"/>
<path class="st2" d="M532,270.2c-0.1,1.3,0.8,2.4,2.1,2.5c0.1,0,0.3,0,0.4,0c0.7,0,1.4-0.1,2-0.4l0.2,1c-0.8,0.3-1.6,0.5-2.5,0.5
	c-1.9,0.1-3.5-1.3-3.6-3.2c0-0.2,0-0.3,0-0.5c0-2.2,1.3-4,3.5-4c2.4,0,3,2.1,3,3.5c0,0.2,0,0.4,0,0.6L532,270.2z M535.9,269.2
	c0.1-1-0.6-2-1.6-2.2c-0.1,0-0.1,0-0.2,0c-1.1,0.1-2,1-2.1,2.2H535.9z"/>
<path class="st2" d="M538.9,262.8h1.3v10.8h-1.3V262.8z"/>
<path class="st2" d="M549.2,269.8c0.2,2-1.3,3.7-3.3,3.9c-0.1,0-0.2,0-0.4,0c-1.9,0-3.5-1.5-3.5-3.5c0-0.1,0-0.2,0-0.3
	c-0.2-2,1.3-3.7,3.3-3.9c0.1,0,0.3,0,0.4,0c1.9,0,3.5,1.5,3.5,3.4C549.2,269.6,549.2,269.7,549.2,269.8z M543.4,269.9
	c0,1.6,0.9,2.8,2.2,2.8s2.2-1.2,2.2-2.9c0-1.2-0.6-2.8-2.2-2.8S543.3,268.5,543.4,269.9L543.4,269.9z"/>
<path class="st2" d="M550.9,268.6c0-0.9,0-1.7-0.1-2.4h1.2l0.1,1.2l0,0c0.5-0.9,1.6-1.5,2.6-1.4c1.8,0,3.1,1.5,3.1,3.7
	c0,2.7-1.6,4-3.3,4c-0.9,0-1.8-0.4-2.3-1.2l0,0v4h-1.3L550.9,268.6z M552.2,270.6c0,0.2,0,0.4,0.1,0.5c0.2,0.9,1,1.6,2,1.6
	c1.4,0,2.2-1.2,2.2-2.9c0-1.5-0.8-2.7-2.2-2.7c-1,0-1.8,0.7-2,1.7c-0.1,0.2-0.1,0.4-0.1,0.5L552.2,270.6z"/>
<path class="st2" d="M560.3,270.2c-0.1,1.3,0.8,2.4,2.1,2.5c0.1,0,0.3,0,0.4,0c0.7,0,1.4-0.1,2-0.4l0.2,1c-0.8,0.3-1.6,0.5-2.5,0.5
	c-1.9,0.1-3.5-1.3-3.6-3.2c0-0.2,0-0.3,0-0.5c0-2.2,1.3-4,3.5-4c2.4,0,3,2.1,3,3.5c0,0.2,0,0.4,0,0.6L560.3,270.2z M564.3,269.2
	c0.1-1-0.6-2-1.6-2.2c-0.1,0-0.1,0-0.2,0c-1.1,0.1-2,1-2.1,2.2H564.3z"/>
<path class="st2" d="M567.2,268.5c0-0.9,0-1.6-0.1-2.3h1.2v1.4l0,0c0.3-0.9,1.1-1.6,2.1-1.6c0.1,0,0.2,0,0.4,0v1.3
	c-0.2,0-0.3,0-0.5,0c-0.9,0-1.7,0.8-1.8,1.7c0,0.2-0.1,0.4-0.1,0.6v3.9h-1.3L567.2,268.5z"/>
<line class="st3" x1="482" y1="233.3" x2="482" y2="208.6"/>
<line class="st3" x1="495.1" y1="234.3" x2="376.4" y2="234.3"/>
<path class="st2" d="M377.6,242.8h1.3v9.1h4.4v1.1h-5.7V242.8z"/>
<path class="st2" d="M390.1,248.2h-4v3.7h4.5v1.1h-5.8v-10.2h5.5v1.1h-4.2v3.2h4L390.1,248.2z"/>
<path class="st2" d="M404.2,248.5c-0.1-1.4-0.2-3.2-0.2-4.4l0,0c-0.4,1.2-0.8,2.5-1.3,3.9l-1.8,5h-1l-1.7-4.9
	c-0.5-1.4-0.9-2.8-1.2-4l0,0c0,1.3-0.1,3-0.2,4.5l-0.3,4.4h-1.3l0.7-10.3h1.7l1.8,5c0.4,1.3,0.8,2.4,1,3.5l0,0
	c0.3-1,0.6-2.2,1.1-3.5l1.8-5h1.7l0.6,10.3h-1.3L404.2,248.5z"/>
<path class="st2" d="M409.1,242.8V253h-1.3v-10.2H409.1z"/>
<path class="st2" d="M411.4,242.9c0.8-0.1,1.7-0.2,2.5-0.2c1.1-0.1,2.1,0.2,3,0.9c0.5,0.5,0.8,1.2,0.8,1.9c0,1.2-0.8,2.3-1.9,2.6
	l0,0c0.8,0.4,1.4,1.2,1.5,2.1c0.2,1,0.4,1.9,0.8,2.8h-1.4c-0.3-0.8-0.5-1.6-0.7-2.5c-0.3-1.4-0.9-1.9-2.1-2h-1.3v4.5h-1.3
	L411.4,242.9z M412.8,247.6h1.4c1.4,0,2.3-0.8,2.3-1.9c0-1.3-1-1.9-2.4-1.9c-0.4,0-0.9,0-1.3,0.1V247.6z"/>
<path class="st2" d="M428.5,247.8c0,3.5-2.1,5.4-4.8,5.4s-4.6-2.1-4.6-5.2c0-3.3,2-5.4,4.8-5.4S428.5,244.7,428.5,247.8z
	 M420.5,247.9c0,2.2,1.2,4.2,3.3,4.2s3.3-1.9,3.3-4.3c0-2-1.1-4.2-3.3-4.2S420.5,245.7,420.5,247.9L420.5,247.9z"/>
<path class="st2" d="M431.5,242.8V253h-1.3v-10.2H431.5z"/>
<path class="st2" d="M433.8,242.9c0.8-0.1,1.7-0.2,2.6-0.2c1.1-0.1,2.1,0.2,3,0.9c0.5,0.5,0.8,1.2,0.8,1.9c0,1.2-0.8,2.3-1.9,2.6
	l0,0c0.8,0.4,1.4,1.2,1.5,2.1c0.2,1,0.4,1.9,0.8,2.8h-1.4c-0.3-0.8-0.5-1.6-0.7-2.5c-0.3-1.4-0.9-1.9-2.1-2h-1.3v4.5h-1.3
	L433.8,242.9z M435.1,247.6h1.4c1.4,0,2.3-0.8,2.3-1.9c0-1.3-1-1.9-2.4-1.9c-0.4,0-0.9,0-1.3,0.1V247.6z"/>
<path class="st2" d="M453.9,248.5c-0.1-1.4-0.2-3.2-0.2-4.4l0,0c-0.4,1.2-0.8,2.5-1.3,3.9l-1.8,5h-1l-1.7-4.9
	c-0.5-1.4-0.9-2.8-1.2-4l0,0c0,1.3-0.1,3-0.2,4.5l-0.3,4.4H445l0.7-10.3h1.7l1.8,5c0.4,1.3,0.8,2.4,1,3.5l0,0c0.3-1,0.6-2.2,1.1-3.5
	l1.8-5h1.7l0.6,10.3h-1.3L453.9,248.5z"/>
<path class="st2" d="M459,249.8l-1,3.2h-1.4l3.5-10.3h1.6l3.5,10.3h-1.4l-1.1-3.2L459,249.8z M462.4,248.8l-1-3
	c-0.2-0.7-0.4-1.3-0.5-1.9l0,0c-0.1,0.6-0.3,1.2-0.5,1.9l-1,3L462.4,248.8z"/>
<path class="st2" d="M474.3,252.6c-1,0.4-2.1,0.6-3.2,0.6c-2.6,0.3-5-1.7-5.3-4.3c0-0.3,0-0.6,0-0.8c0-3.1,2.1-5.3,5.5-5.3
	c0.9,0,1.8,0.1,2.6,0.5l-0.3,1.1c-0.7-0.3-1.5-0.5-2.3-0.4c-2.1-0.2-4,1.4-4.1,3.5c0,0.2,0,0.4,0,0.6c0,2.6,1.6,4.1,4,4.1
	c0.6,0,1.2-0.1,1.8-0.3v-3.1H471v-1.1h3.4L474.3,252.6z"/>
<path class="st2" d="M382.8,271c-0.7,0.3-1.4,0.4-2.1,0.4c-1.9,0.1-3.6-1.4-3.7-3.3c0-0.1,0-0.3,0-0.4c-0.1-2.1,1.5-3.8,3.6-3.9
	c0.1,0,0.3,0,0.4,0c0.6,0,1.3,0.1,1.9,0.4l-0.3,1c-0.5-0.3-1-0.4-1.6-0.4c-1.5,0.1-2.7,1.4-2.6,2.9c0.1,1.4,1.2,2.5,2.6,2.6
	c0.6,0,1.1-0.1,1.6-0.4L382.8,271z"/>
<path class="st2" d="M391,267.6c0.2,2-1.3,3.7-3.3,3.9c-0.1,0-0.2,0-0.4,0c-1.9,0-3.5-1.5-3.6-3.5c0-0.1,0-0.2,0-0.3
	c-0.2-2,1.3-3.7,3.3-3.9c0.1,0,0.3,0,0.4,0c1.9,0,3.5,1.5,3.6,3.4C391,267.3,391,267.4,391,267.6z M385.1,267.6
	c0,1.6,0.9,2.8,2.2,2.8s2.2-1.2,2.2-2.9c0-1.2-0.6-2.8-2.2-2.8S385.1,266.2,385.1,267.6L385.1,267.6z"/>
<path class="st2" d="M392.8,271.3V265h-1v-1h1v-0.4c-0.1-0.9,0.2-1.9,0.9-2.6c0.5-0.5,1.1-0.7,1.8-0.7c0.4,0,0.8,0.1,1.1,0.2l-0.2,1
	c-0.3-0.1-0.6-0.2-0.9-0.2c-1.1,0-1.4,1-1.4,2.1v0.4h1.8v1h-1.8v6.4L392.8,271.3z"/>
<path class="st2" d="M403.6,267.6c0.2,2-1.3,3.7-3.3,3.9c-0.1,0-0.3,0-0.4,0c-1.9,0-3.5-1.5-3.6-3.5c0-0.1,0-0.2,0-0.3
	c-0.2-2,1.3-3.7,3.3-3.9c0.1,0,0.3,0,0.4,0c1.9,0,3.5,1.5,3.6,3.4C403.6,267.3,403.6,267.4,403.6,267.6z M397.8,267.6
	c0,1.6,0.9,2.8,2.2,2.8s2.2-1.2,2.2-2.9c0-1.2-0.6-2.8-2.2-2.8S397.8,266.2,397.8,267.6z"/>
<path class="st2" d="M411.5,269.3c0,0.8,0,1.4,0.1,2h-1.2l-0.1-1.2l0,0c-0.5,0.9-1.4,1.4-2.4,1.4c-1.1,0-2.5-0.6-2.5-3.2V264h1.3v4
	c0,1.4,0.4,2.4,1.6,2.4c0.8,0,1.5-0.5,1.8-1.2c0.1-0.2,0.1-0.5,0.1-0.7V264h1.3L411.5,269.3z"/>
<path class="st2" d="M413.7,265.9c0-0.8,0-1.4-0.1-2h1.2l0.1,1.2l0,0c0.5-0.9,1.4-1.4,2.4-1.4c1,0,2.6,0.6,2.6,3.1v4.4h-1.3v-4.2
	c0-1.2-0.5-2.2-1.7-2.2c-1.1,0.1-1.9,0.9-1.9,2v4.4h-1.3L413.7,265.9z"/>
<path class="st2" d="M428.5,260.5v8.9c0,0.6,0,1.4,0.1,1.9h-1.2l-0.1-1.3l0,0c-0.5,0.9-1.5,1.5-2.5,1.4c-1.8,0-3.2-1.5-3.2-3.8
	c0-2.5,1.5-4,3.3-4c0.9-0.1,1.7,0.4,2.2,1.1l0,0v-4.4L428.5,260.5z M427.2,267c0-0.2,0-0.4,0-0.6c-0.2-0.9-1-1.6-2-1.5
	c-1.4,0-2.2,1.2-2.2,2.8s0.7,2.7,2.2,2.7c1,0,1.8-0.7,2-1.6c0-0.2,0.1-0.4,0.1-0.6L427.2,267z"/>
<path class="st2" d="M431.5,267.9c-0.1,1.3,0.8,2.4,2.1,2.6c0.1,0,0.3,0,0.4,0c0.7,0,1.4-0.1,2-0.4l0.2,1c-0.8,0.3-1.6,0.5-2.5,0.5
	c-1.9,0.1-3.5-1.3-3.6-3.2c0-0.2,0-0.3,0-0.5c0-2.2,1.3-4,3.5-4c2.4,0,3,2.1,3,3.5c0,0.2,0,0.4,0,0.6L431.5,267.9z M435.4,266.9
	c0.1-1-0.6-2-1.6-2.2c-0.1,0-0.1,0-0.2,0c-1.1,0.1-2,1-2.1,2.2H435.4z"/>
<path class="st2" d="M438.4,266.2c0-0.9,0-1.6-0.1-2.3h1.2l0,1.4h0c0.3-0.9,1.1-1.5,2-1.6c0.1,0,0.3,0,0.4,0v1.3c-0.2,0-0.3,0-0.5,0
	c-0.9,0-1.7,0.8-1.8,1.7c0,0.2-0.1,0.4-0.1,0.6v3.9h-1.3L438.4,266.2z"/>
<path class="st2" d="M375.8,291.8c0.5,0,1.1-0.2,1.5-0.6c0.4-0.4,0.5-1,0.5-2.8v-6.2h1.3v6.7c0.1,1.1-0.2,2.2-0.9,3
	c-0.6,0.5-1.5,0.8-2.3,0.8L375.8,291.8z M379.2,280.2c0,0.5-0.4,0.8-0.8,0.8c-0.5,0-0.8-0.4-0.8-0.8c0-0.4,0.3-0.8,0.8-0.8
	c0,0,0,0,0.1,0C378.8,279.3,379.2,279.7,379.2,280.2C379.2,280.1,379.2,280.1,379.2,280.2z"/>
<path class="st2" d="M387.9,285.9c0.2,2-1.3,3.7-3.3,3.9c-0.1,0-0.3,0-0.4,0c-1.9,0-3.5-1.5-3.6-3.5c0-0.1,0-0.2,0-0.3
	c-0.2-2,1.3-3.7,3.3-3.9c0.1,0,0.3,0,0.4,0c1.9,0,3.5,1.5,3.6,3.4C387.9,285.6,387.9,285.7,387.9,285.9z M382.1,285.9
	c0,1.6,0.9,2.8,2.2,2.8s2.2-1.2,2.2-2.9c0-1.2-0.6-2.8-2.2-2.8S382.1,284.5,382.1,285.9L382.1,285.9z"/>
<path class="st2" d="M395.8,287.6c0,0.8,0,1.4,0.1,2h-1.2l-0.1-1.2l0,0c-0.5,0.9-1.4,1.4-2.4,1.4c-1.1,0-2.5-0.6-2.5-3.2v-4.3h1.3
	v4.1c0,1.4,0.4,2.4,1.6,2.4c0.8,0,1.5-0.5,1.8-1.2c0.1-0.2,0.1-0.5,0.1-0.7v-4.5h1.3L395.8,287.6z"/>
<path class="st2" d="M398,284.5c0-0.9,0-1.6-0.1-2.3h1.2l0.1,1.5l0,0c0.3-0.9,1.1-1.6,2.1-1.6c0.1,0,0.2,0,0.4,0v1.3
	c-0.2,0-0.3,0-0.5,0c-0.9,0-1.7,0.8-1.8,1.7c0,0.2-0.1,0.4-0.1,0.6v3.9H398V284.5z"/>
<path class="st2" d="M403.1,284.2c0-0.8,0-1.4-0.1-2h1.2l0.1,1.2l0,0c0.5-0.9,1.4-1.4,2.4-1.4c1,0,2.6,0.6,2.6,3.1v4.4H408v-4.2
	c0-1.2-0.5-2.2-1.7-2.2c-0.8,0-1.6,0.6-1.8,1.4c-0.1,0.2-0.1,0.4-0.1,0.6v4.5h-1.3L403.1,284.2z"/>
<path class="st2" d="M415.6,289.6l-0.1-0.9l0,0c-0.5,0.7-1.4,1.1-2.3,1.1c-1.2,0.1-2.2-0.8-2.2-1.9c0-0.1,0-0.1,0-0.2
	c0-1.8,1.6-2.8,4.4-2.8v-0.1c0.1-0.8-0.5-1.6-1.3-1.7c-0.1,0-0.3,0-0.4,0c-0.7,0-1.3,0.2-1.9,0.5l-0.3-0.9c0.7-0.4,1.6-0.7,2.4-0.6
	c2.3,0,2.8,1.5,2.8,3v2.8c0,0.6,0,1.2,0.1,1.8L415.6,289.6z M415.4,285.9c-1.5,0-3.1,0.2-3.1,1.7c-0.1,0.6,0.4,1.2,1.1,1.3
	c0.1,0,0.1,0,0.2,0c0.8,0,1.5-0.5,1.8-1.2c0-0.1,0.1-0.3,0.1-0.4V285.9z"/>
<path class="st2" d="M418.9,278.8h1.3v10.8h-1.3V278.8z"/>
<path class="st2" d="M424,280.2c-0.1,0.5-0.5,0.8-0.9,0.7c-0.4,0-0.7-0.4-0.7-0.7c0-0.5,0.4-0.8,0.8-0.8c0,0,0,0,0,0
	C423.6,279.3,424,279.7,424,280.2C424,280.1,424,280.1,424,280.2z M422.5,289.6v-7.4h1.3v7.4H422.5z"/>
<path class="st2" d="M425.9,288.2c0.5,0.3,1.1,0.5,1.8,0.5c1,0,1.4-0.5,1.4-1.1s-0.4-1-1.4-1.4c-1.3-0.5-2-1.2-2-2.1
	c0.1-1.3,1.1-2.2,2.4-2.2c0.1,0,0.1,0,0.2,0c0.6,0,1.3,0.1,1.8,0.5l-0.3,1c-0.5-0.3-1-0.4-1.5-0.4c-0.8,0-1.2,0.5-1.2,1
	s0.4,0.9,1.4,1.3c1.3,0.5,1.9,1.1,1.9,2.2c0,1.3-1,2.2-2.8,2.2c-0.7,0-1.4-0.2-2.1-0.5L425.9,288.2z"/>
<path class="st2" d="M433.7,280.1v2.1h1.9v1h-1.9v4c0,0.9,0.3,1.4,1,1.4c0.3,0,0.5,0,0.8-0.1l0.1,1c-0.4,0.1-0.8,0.2-1.2,0.2
	c-0.5,0-1.1-0.2-1.5-0.6c-0.4-0.6-0.6-1.2-0.5-1.9v-4h-1.1v-1h1.1v-1.8L433.7,280.1z"/>
<path class="st2" d="M617.3,209.1h-12.5l0,0v-77.3l0,0H623l0,0v71.7C623,206.6,620.4,209.1,617.3,209.1L617.3,209.1z"/>
<path class="st2" d="M649,209.1h-20l0,0v-77.3l0,0h25.6l0,0v71.7C654.6,206.6,652.1,209.1,649,209.1z"/>
<path class="st2" d="M946.4,209.1H663.1l0,0v-77.3l0,0H952l0,0v71.7C952,206.6,949.5,209.1,946.4,209.1L946.4,209.1z"/>
<line class="st3" x1="611.3" y1="306.5" x2="611.3" y2="208.6"/>
<path class="st2" d="M594.6,328.5l-2.6-10.3h1.4l1.2,5.2c0.3,1.3,0.6,2.6,0.8,3.5l0,0c0.2-1,0.5-2.2,0.8-3.6l1.4-5.2h1.4l1.3,5.2
	c0.3,1.2,0.6,2.4,0.7,3.5l0,0c0.2-1.1,0.5-2.3,0.8-3.5l1.4-5.2h1.4l-2.9,10.3h-1.4l-1.2-5.4c-0.3-1.1-0.5-2.2-0.7-3.4l0,0
	c-0.2,1.1-0.5,2.3-0.8,3.4l-1.5,5.4H594.6z"/>
<path class="st2" d="M611.2,323.7h-4v3.7h4.5v1.1h-5.8v-10.3h5.5v1.1h-4.2v3.2h4L611.2,323.7z"/>
<path class="st2" d="M613.3,318.4c0.9-0.1,1.9-0.2,2.8-0.2c1.5-0.1,3,0.3,4.2,1.3c1,1,1.5,2.3,1.5,3.7c0.1,1.5-0.5,2.9-1.5,4
	c-1.3,1.1-2.9,1.6-4.5,1.5c-0.8,0-1.6,0-2.4-0.1L613.3,318.4z M614.7,327.5c0.4,0.1,0.9,0.1,1.3,0.1c2.8,0,4.4-1.6,4.4-4.4
	c0-2.4-1.4-4-4.2-4c-0.5,0-1,0-1.5,0.1L614.7,327.5z"/>
<path class="st2" d="M632.3,323.3c0,3.5-2.2,5.4-4.8,5.4s-4.6-2.1-4.6-5.2c0-3.3,2-5.4,4.8-5.4S632.3,320.2,632.3,323.3z
	 M624.3,323.4c0,2.2,1.2,4.2,3.3,4.2s3.3-1.9,3.3-4.3c0-2-1.1-4.2-3.3-4.2S624.3,321.2,624.3,323.4L624.3,323.4z"/>
<path class="st2" d="M634,318.4c0.9-0.1,1.9-0.2,2.8-0.2c1.5-0.1,3,0.3,4.2,1.3c1,1,1.5,2.3,1.5,3.7c0.1,1.5-0.5,2.9-1.5,4
	c-1.3,1.1-2.9,1.6-4.5,1.5c-0.8,0-1.6,0-2.4-0.1L634,318.4z M635.3,327.5c0.4,0.1,0.9,0.1,1.3,0.1c2.8,0,4.4-1.6,4.4-4.4
	c0-2.4-1.3-4-4.2-4c-0.5,0-1,0-1.6,0.1V327.5z"/>
<path class="st2" d="M645.6,325.3l-1.1,3.2h-1.4l3.5-10.3h1.6l3.5,10.3h-1.4l-1.1-3.2H645.6z M649,324.3l-1-3
	c-0.2-0.7-0.4-1.3-0.5-1.9l0,0c-0.2,0.6-0.3,1.2-0.5,1.9l-1,3L649,324.3z"/>
<path class="st2" d="M654,319.4h-3.1v-1.1h7.6v1.1h-3.2v9.2H654L654,319.4z"/>
<path class="st2" d="M660.2,325.3l-1.1,3.2h-1.4l3.5-10.3h1.6l3.5,10.3h-1.4l-1.1-3.2H660.2z M663.6,324.3l-1-3
	c-0.2-0.7-0.4-1.3-0.5-1.9l0,0c-0.2,0.6-0.3,1.2-0.5,1.9l-1,3L663.6,324.3z"/>
<path class="st2" d="M599.3,336v8.9c0,0.7,0,1.4,0.1,1.9h-1.2l-0.1-1.3l0,0c-0.5,0.9-1.5,1.5-2.5,1.4c-1.8,0-3.2-1.5-3.2-3.8
	c0-2.5,1.5-4,3.3-4c0.9-0.1,1.7,0.4,2.2,1.1l0,0V336H599.3z M597.9,342.5c0-0.2,0-0.4,0-0.6c-0.2-0.9-1-1.6-2-1.5
	c-1.4,0-2.2,1.2-2.2,2.8s0.7,2.7,2.2,2.7c1,0,1.8-0.7,2-1.6c0-0.2,0.1-0.4,0.1-0.6L597.9,342.5z"/>
<path class="st2" d="M605.6,346.8l-0.1-0.9l0,0c-0.5,0.7-1.4,1.1-2.2,1.1c-1.2,0.1-2.2-0.8-2.3-2c0-0.1,0-0.1,0-0.2
	c0-1.8,1.6-2.8,4.4-2.7V342c0.1-0.8-0.5-1.6-1.3-1.7c-0.1,0-0.2,0-0.4,0c-0.7,0-1.3,0.2-1.9,0.5l-0.3-0.9c0.7-0.4,1.6-0.7,2.4-0.6
	c2.2,0,2.8,1.5,2.8,3v2.7c0,0.6,0,1.2,0.1,1.8L605.6,346.8z M605.4,343c-1.5,0-3.1,0.2-3.1,1.6c-0.1,0.7,0.4,1.2,1.1,1.3
	c0.1,0,0.1,0,0.2,0c0.8,0,1.5-0.5,1.8-1.2c0-0.1,0.1-0.3,0.1-0.4V343z"/>
<path class="st2" d="M610.4,337.3v2.1h1.9v1h-1.9v4c0,0.9,0.3,1.4,1,1.4c0.3,0,0.5,0,0.8-0.1l0.1,1c-0.4,0.1-0.8,0.2-1.2,0.2
	c-0.5,0-1.1-0.2-1.4-0.6c-0.4-0.6-0.6-1.2-0.5-1.9v-4h-1.2v-1h1.2v-1.8L610.4,337.3z"/>
<path class="st2" d="M617.9,346.8l-0.1-0.9l0,0c-0.5,0.7-1.4,1.1-2.3,1.1c-1.2,0.1-2.2-0.8-2.2-1.9c0-0.1,0-0.1,0-0.2
	c0-1.8,1.6-2.8,4.4-2.7V342c0.1-0.8-0.5-1.6-1.3-1.7c-0.1,0-0.2,0-0.4,0c-0.7,0-1.3,0.2-1.9,0.5l-0.3-0.9c0.7-0.4,1.6-0.7,2.4-0.6
	c2.2,0,2.8,1.5,2.8,3v2.7c0,0.6,0,1.2,0.1,1.8L617.9,346.8z M617.7,343c-1.5,0-3.1,0.2-3.1,1.6c-0.1,0.7,0.4,1.2,1.1,1.3
	c0.1,0,0.1,0,0.2,0c0.8,0,1.5-0.5,1.8-1.2c0-0.1,0.1-0.3,0.1-0.4V343z"/>
<path class="st2" d="M619.4,348.9c0.5,0,1.1-0.2,1.5-0.6c0.4-0.4,0.5-1,0.5-2.8v-6.2h1.3v6.7c0.1,1.1-0.2,2.2-0.9,3
	c-0.6,0.6-1.4,0.9-2.3,0.8L619.4,348.9z M622.8,337.4c0,0.5-0.4,0.8-0.8,0.8c-0.5,0-0.8-0.4-0.8-0.8c0,0,0,0,0,0
	c0-0.5,0.3-0.8,0.8-0.8c0,0,0,0,0,0C622.5,336.5,622.8,336.8,622.8,337.4C622.8,337.3,622.8,337.3,622.8,337.4L622.8,337.4z"/>
<path class="st2" d="M631.5,343c0.2,2-1.3,3.7-3.3,3.9c-0.1,0-0.3,0-0.4,0c-1.9,0-3.5-1.5-3.6-3.5c0-0.1,0-0.2,0-0.3
	c-0.2-2,1.3-3.7,3.3-3.9c0.1,0,0.3,0,0.4,0c1.9,0,3.5,1.5,3.6,3.4C631.6,342.8,631.6,342.9,631.5,343z M625.7,343.1
	c0,1.6,0.9,2.8,2.2,2.8s2.2-1.2,2.2-2.9c0-1.2-0.6-2.8-2.2-2.8S625.7,341.7,625.7,343.1L625.7,343.1z"/>
<path class="st2" d="M639.4,344.8c0,0.8,0,1.4,0.1,2h-1.2l-0.1-1.2l0,0c-0.5,0.9-1.4,1.4-2.4,1.4c-1.2,0-2.5-0.6-2.5-3.2v-4.3h1.3
	v4.1c0,1.4,0.4,2.4,1.7,2.4c0.8,0,1.5-0.5,1.8-1.2c0.1-0.2,0.1-0.4,0.1-0.7v-4.5h1.3L639.4,344.8z"/>
<path class="st2" d="M641.7,341.7c0-0.9,0-1.6-0.1-2.3h1.2v1.5h0c0.3-0.9,1.1-1.6,2.1-1.6c0.1,0,0.2,0,0.4,0v1.3c-0.2,0-0.3,0-0.5,0
	c-0.9,0-1.7,0.8-1.8,1.7c0,0.2-0.1,0.4-0.1,0.6v3.9h-1.3L641.7,341.7z"/>
<path class="st2" d="M646.7,341.4c0-0.8,0-1.4-0.1-2h1.2l0.1,1.2l0,0c0.5-0.9,1.4-1.4,2.4-1.4c1,0,2.6,0.6,2.6,3.1v4.4h-1.3v-4.2
	c0-1.2-0.4-2.2-1.7-2.2c-0.8,0-1.6,0.6-1.8,1.4c-0.1,0.2-0.1,0.4-0.1,0.6v4.4h-1.3V341.4z"/>
<path class="st2" d="M659.2,346.8l-0.1-0.9l0,0c-0.5,0.7-1.4,1.1-2.3,1.1c-1.2,0.1-2.2-0.8-2.2-1.9c0-0.1,0-0.1,0-0.2
	c0-1.8,1.6-2.8,4.4-2.7V342c0.1-0.8-0.5-1.6-1.3-1.7c-0.1,0-0.2,0-0.4,0c-0.7,0-1.3,0.2-1.9,0.5l-0.3-0.9c0.7-0.4,1.6-0.7,2.4-0.6
	c2.3,0,2.8,1.5,2.8,3v2.7c0,0.6,0,1.2,0.1,1.8L659.2,346.8z M659,343c-1.5,0-3.1,0.2-3.1,1.6c-0.1,0.7,0.4,1.2,1.1,1.3
	c0.1,0,0.1,0,0.2,0c0.8,0,1.5-0.5,1.8-1.2c0-0.1,0.1-0.3,0.1-0.4V343z"/>
<path class="st2" d="M662.5,336h1.3v10.8h-1.3V336z"/>
<path class="st2" d="M667.6,337.4c-0.1,0.5-0.5,0.8-0.9,0.7c-0.4,0-0.7-0.4-0.7-0.7c0-0.5,0.4-0.8,0.8-0.8c0,0,0,0,0,0
	C667.2,336.5,667.6,336.9,667.6,337.4C667.6,337.3,667.6,337.3,667.6,337.4z M666.1,346.8v-7.4h1.3v7.4H666.1z"/>
<path class="st2" d="M669.5,345.4c0.5,0.3,1.1,0.5,1.8,0.5c1,0,1.4-0.5,1.4-1.1s-0.4-1-1.4-1.4c-1.3-0.5-2-1.2-2-2.1
	c0.1-1.3,1.1-2.2,2.4-2.2c0.1,0,0.1,0,0.2,0c0.6,0,1.3,0.1,1.8,0.5l-0.3,1c-0.5-0.3-1-0.4-1.5-0.4c-0.8,0-1.2,0.5-1.2,1
	s0.4,0.9,1.4,1.3c1.3,0.5,1.9,1.1,1.9,2.2c0,1.3-1,2.2-2.8,2.2c-0.7,0-1.4-0.2-2.1-0.5L669.5,345.4z"/>
<path class="st2" d="M677.3,337.3v2.1h1.9v1h-1.9v4c0,0.9,0.3,1.4,1,1.4c0.3,0,0.5,0,0.8-0.1l0.1,1c-0.4,0.1-0.8,0.2-1.2,0.2
	c-0.5,0-1.1-0.2-1.5-0.6c-0.4-0.6-0.6-1.2-0.5-1.9v-4h-1.1v-1h1.1v-1.8L677.3,337.3z"/>
<line class="st3" x1="639.6" y1="233.8" x2="639.6" y2="209.1"/>
<line class="st3" x1="714.4" y1="235.8" x2="623.3" y2="234.8"/>
<path class="st2" d="M624.5,245h1.3v9.1h4.4v1.1h-5.7L624.5,245z"/>
<path class="st2" d="M633,245v10.3h-1.3V245H633z"/>
<path class="st2" d="M635.3,245.2c0.8-0.2,1.6-0.2,2.4-0.2c1-0.1,2,0.2,2.8,0.8c0.6,0.4,0.9,1.1,0.9,1.8c0,1-0.7,2-1.7,2.2v0.1
	c1.2,0.2,2.1,1.3,2.1,2.6c0,0.8-0.3,1.5-0.9,2.1c-1,0.8-2.3,1.1-3.5,1c-0.7,0-1.4,0-2.1-0.1V245.2z M636.7,249.4h1.2
	c1.4,0,2.2-0.7,2.2-1.7c0-1.2-0.9-1.7-2.2-1.7c-0.4,0-0.8,0-1.2,0.1V249.4z M636.7,254.3c0.4,0.1,0.7,0.1,1.1,0.1
	c1.4,0,2.6-0.5,2.6-2s-1.2-2-2.7-2h-1.1V254.3z"/>
<path class="st2" d="M648.9,250.5h-4v3.7h4.5v1.1h-5.8V245h5.5v1.1h-4.2v3.3h4L648.9,250.5z M648.7,242.7l-2,1.8h-1.1l1.4-1.8
	L648.7,242.7z"/>
<path class="st2" d="M651.1,245.2c0.8-0.1,1.7-0.2,2.5-0.2c1.1-0.1,2.1,0.2,3,0.8c0.5,0.5,0.8,1.2,0.8,2c0,1.2-0.8,2.3-1.9,2.6l0,0
	c0.8,0.4,1.4,1.2,1.5,2.1c0.2,1,0.4,1.9,0.8,2.8h-1.4c-0.3-0.8-0.5-1.6-0.7-2.5c-0.3-1.4-0.9-2-2.1-2h-1.2v4.4h-1.3L651.1,245.2z
	 M652.4,249.8h1.3c1.4,0,2.3-0.8,2.3-1.9c0-1.3-1-1.9-2.4-1.9c-0.4,0-0.9,0-1.3,0.1V249.8z"/>
<path class="st2" d="M661,252.1l-1,3.2h-1.4l3.5-10.3h1.6l3.5,10.3h-1.4l-1.1-3.2L661,252.1z M664.4,251.1l-1-3
	c-0.2-0.7-0.4-1.3-0.5-1.9l0,0c-0.2,0.6-0.3,1.2-0.5,1.9l-1,3L664.4,251.1z"/>
<path class="st2" d="M669.5,246.1h-3.1V245h7.6v1.1h-3.2v9.1h-1.3L669.5,246.1z"/>
<path class="st2" d="M676.4,245v10.3h-1.3V245H676.4z"/>
<path class="st2" d="M687.5,250.1c0,3.5-2.2,5.4-4.8,5.4s-4.6-2.1-4.6-5.2c0-3.3,2-5.4,4.8-5.4S687.5,247,687.5,250.1z M679.5,250.2
	c0,2.2,1.2,4.2,3.3,4.2s3.3-1.9,3.3-4.3c0-2-1.1-4.2-3.3-4.2S679.5,248,679.5,250.2L679.5,250.2z"/>
<path class="st2" d="M689.2,255.3V245h1.5l3.3,5.2c0.7,1.1,1.3,2.2,1.8,3.4l0,0c-0.1-1.4-0.1-2.6-0.1-4.2V245h1.3v10.3h-1.3
	l-3.3-5.2c-0.7-1.1-1.3-2.3-1.9-3.4l0,0c0.1,1.3,0.1,2.5,0.1,4.2v4.4L689.2,255.3z"/>
<path class="st2" d="M630.8,262.8v8.9c0,0.6,0,1.4,0.1,1.9h-1.2l-0.1-1.3l0,0c-0.5,0.9-1.5,1.5-2.5,1.4c-1.8,0-3.2-1.5-3.2-3.8
	c0-2.5,1.5-4,3.3-4c0.9-0.1,1.7,0.4,2.2,1.1l0,0v-4.4L630.8,262.8z M629.5,269.2c0-0.2,0-0.4-0.1-0.6c-0.2-0.9-1-1.5-1.9-1.5
	c-1.4,0-2.2,1.2-2.2,2.8s0.7,2.7,2.2,2.7c1,0,1.8-0.7,2-1.6c0-0.2,0.1-0.4,0.1-0.6L629.5,269.2z"/>
<path class="st2" d="M637.1,273.6l-0.1-0.9l0,0c-0.5,0.7-1.4,1.1-2.2,1.1c-1.2,0.1-2.2-0.8-2.2-1.9c0-0.1,0-0.1,0-0.2
	c0-1.8,1.6-2.8,4.4-2.7v-0.2c0.1-0.8-0.5-1.6-1.3-1.7c-0.1,0-0.2,0-0.4,0c-0.7,0-1.3,0.2-1.9,0.5l-0.3-0.9c0.7-0.4,1.6-0.7,2.4-0.6
	c2.2,0,2.8,1.5,2.8,3v2.8c0,0.6,0,1.2,0.1,1.8L637.1,273.6z M636.9,269.8c-1.5,0-3.1,0.2-3.1,1.7c-0.1,0.6,0.4,1.2,1.1,1.3
	c0.1,0,0.1,0,0.2,0c0.8,0,1.5-0.5,1.8-1.2c0-0.1,0.1-0.3,0.1-0.4V269.8z"/>
<path class="st2" d="M641.9,264.1v2.1h1.9v1h-1.9v4c0,0.9,0.3,1.4,1,1.4c0.3,0,0.5,0,0.8-0.1l0.1,1c-0.4,0.1-0.8,0.2-1.2,0.2
	c-0.5,0-1.1-0.2-1.5-0.6c-0.4-0.6-0.6-1.2-0.5-1.9v-4h-1.1v-1h1.1v-1.8L641.9,264.1z"/>
<path class="st2" d="M649.5,273.6l-0.1-0.9l0,0c-0.5,0.7-1.4,1.1-2.3,1.1c-1.2,0.1-2.2-0.8-2.2-1.9c0-0.1,0-0.1,0-0.2
	c0-1.8,1.6-2.8,4.4-2.7v-0.2c0.1-0.8-0.5-1.6-1.3-1.7c-0.1,0-0.2,0-0.4,0c-0.7,0-1.3,0.2-1.9,0.5l-0.3-0.9c0.7-0.4,1.6-0.7,2.4-0.6
	c2.3,0,2.8,1.5,2.8,3v2.8c0,0.6,0,1.2,0.1,1.8L649.5,273.6z M649.3,269.8c-1.5,0-3.1,0.2-3.1,1.7c-0.1,0.6,0.4,1.2,1.1,1.3
	c0.1,0,0.1,0,0.2,0c0.8,0,1.5-0.5,1.8-1.2c0-0.1,0.1-0.3,0.1-0.4V269.8z"/>
<path class="st2" d="M650.9,275.7c0.5,0,1.1-0.2,1.5-0.6c0.4-0.4,0.5-1,0.5-2.8v-6.2h1.3v6.7c0.1,1.1-0.2,2.2-0.9,3
	c-0.6,0.5-1.5,0.8-2.3,0.8L650.9,275.7z M654.4,264.1c0,0.5-0.4,0.8-0.8,0.8c-0.5,0-0.8-0.4-0.8-0.8c0,0,0,0,0,0
	c0-0.5,0.4-0.8,0.8-0.8c0,0,0,0,0,0C654,263.3,654.4,263.6,654.4,264.1C654.4,264.1,654.4,264.1,654.4,264.1L654.4,264.1z"/>
<path class="st2" d="M663.1,269.8c0.2,2-1.3,3.7-3.3,3.9c-0.1,0-0.2,0-0.4,0c-1.9,0-3.5-1.5-3.6-3.5c0-0.1,0-0.2,0-0.3
	c-0.2-2,1.3-3.7,3.3-3.9c0.1,0,0.3,0,0.4,0c1.9,0,3.5,1.5,3.6,3.4C663.1,269.6,663.1,269.7,663.1,269.8z M657.3,269.9
	c0,1.6,0.9,2.8,2.2,2.8s2.2-1.2,2.2-2.9c0-1.2-0.6-2.8-2.2-2.8S657.3,268.5,657.3,269.9z"/>
<path class="st2" d="M671,271.6c0,0.8,0,1.4,0.1,2h-1.2l-0.1-1.2l0,0c-0.5,0.9-1.4,1.4-2.4,1.4c-1.2,0-2.5-0.6-2.5-3.2v-4.3h1.3v4.1
	c0,1.4,0.4,2.4,1.7,2.4c0.8,0,1.5-0.5,1.8-1.2c0.1-0.2,0.1-0.5,0.1-0.7v-4.5h1.3V271.6z"/>
<path class="st2" d="M673.2,268.5c0-0.9,0-1.6-0.1-2.3h1.2v1.4l0,0c0.3-0.9,1.1-1.6,2-1.6c0.1,0,0.2,0,0.4,0v1.3c-0.2,0-0.3,0-0.5,0
	c-0.9,0-1.7,0.8-1.8,1.7c0,0.2,0,0.4,0,0.6v3.9h-1.2V268.5z"/>
<path class="st2" d="M678.2,268.2c0-0.8,0-1.4-0.1-2h1.2l0.1,1.2l0,0c0.5-0.9,1.4-1.4,2.4-1.4c1,0,2.6,0.6,2.6,3.1v4.4h-1.3v-4.2
	c0-1.2-0.5-2.2-1.7-2.2c-1.1,0.1-1.9,0.9-1.9,2v4.4h-1.3L678.2,268.2z"/>
<path class="st2" d="M690.8,273.6l-0.1-0.9l0,0c-0.5,0.7-1.4,1.1-2.2,1.1c-1.2,0.1-2.2-0.8-2.2-1.9c0-0.1,0-0.1,0-0.2
	c0-1.8,1.6-2.8,4.4-2.7v-0.2c0.1-0.8-0.5-1.6-1.3-1.7c-0.1,0-0.2,0-0.4,0c-0.7,0-1.3,0.2-1.9,0.5l-0.3-0.9c0.7-0.4,1.6-0.7,2.4-0.6
	c2.2,0,2.8,1.5,2.8,3v2.8c0,0.6,0,1.2,0.1,1.8L690.8,273.6z M690.6,269.8c-1.5,0-3.1,0.2-3.1,1.7c-0.1,0.6,0.4,1.2,1.1,1.3
	c0.1,0,0.1,0,0.2,0c0.8,0,1.5-0.5,1.8-1.2c0-0.1,0.1-0.3,0.1-0.4V269.8z"/>
<path class="st2" d="M694.1,262.8h1.3v10.8h-1.3V262.8z"/>
<path class="st2" d="M699.2,264.1c0,0.4-0.3,0.8-0.8,0.8c0,0,0,0-0.1,0c-0.4,0-0.8-0.3-0.8-0.8c0,0,0,0,0-0.1c0-0.4,0.3-0.8,0.8-0.8
	c0,0,0,0,0,0C698.8,263.3,699.1,263.6,699.2,264.1C699.2,264.1,699.2,264.1,699.2,264.1z M697.7,273.6v-7.4h1.3v7.4H697.7z"/>
<path class="st2" d="M701,272.2c0.5,0.3,1.2,0.5,1.8,0.5c1,0,1.4-0.5,1.4-1.1s-0.4-1-1.4-1.4c-1.3-0.5-2-1.2-2-2.1
	c0.1-1.3,1.1-2.2,2.4-2.2c0.1,0,0.1,0,0.2,0c0.6,0,1.3,0.1,1.8,0.5l-0.3,1c-0.5-0.3-1-0.4-1.5-0.4c-0.8,0-1.2,0.5-1.2,1
	s0.4,0.9,1.4,1.2c1.3,0.5,1.9,1.1,1.9,2.2c0,1.3-1,2.2-2.8,2.2c-0.7,0-1.4-0.2-2.1-0.5L701,272.2z"/>
<path class="st2" d="M708.9,264.1v2.1h1.9v1h-1.9v4c0,0.9,0.3,1.4,1,1.4c0.3,0,0.5,0,0.8-0.1l0.1,1c-0.4,0.1-0.8,0.2-1.2,0.2
	c-0.5,0-1.1-0.2-1.5-0.6c-0.4-0.6-0.6-1.2-0.5-1.9v-4h-1.1v-1h1.1v-1.8L708.9,264.1z"/>
<line class="st3" x1="785.1" y1="233.8" x2="785.1" y2="209.1"/>
<line class="st3" x1="887.5" y1="235.3" x2="768.8" y2="234.8"/>
<path class="st2" d="M771.7,255.3l-2.6-10.3h1.4l1.2,5.2c0.3,1.3,0.6,2.6,0.8,3.6l0,0c0.2-1,0.5-2.2,0.8-3.6l1.4-5.2h1.4l1.3,5.2
	c0.3,1.2,0.6,2.4,0.7,3.5l0,0c0.2-1.1,0.5-2.3,0.8-3.6l1.4-5.2h1.4l-2.9,10.3h-1.4L776,250c-0.3-1.1-0.5-2.2-0.7-3.4l0,0
	c-0.2,1.1-0.5,2.3-0.8,3.4l-1.5,5.4L771.7,255.3z"/>
<path class="st2" d="M788.2,250.5h-4v3.7h4.5v1.1h-5.8V245h5.5v1.1h-4.2v3.2h4L788.2,250.5z"/>
<path class="st2" d="M790.4,245.2c0.9-0.1,1.9-0.2,2.8-0.2c1.5-0.1,3,0.3,4.2,1.3c1,1,1.5,2.3,1.5,3.7c0.1,1.5-0.5,2.9-1.5,4
	c-1.3,1.1-2.9,1.6-4.5,1.5c-0.8,0-1.6,0-2.4-0.1L790.4,245.2z M791.7,254.3c0.4,0.1,0.9,0.1,1.3,0.1c2.8,0,4.4-1.6,4.4-4.4
	c0-2.4-1.3-4-4.2-4c-0.5,0-1,0-1.6,0.1V254.3z"/>
<path class="st2" d="M809.3,250.1c0,3.5-2.2,5.4-4.8,5.4s-4.6-2.1-4.6-5.2s2-5.4,4.8-5.4S809.3,247,809.3,250.1z M801.3,250.2
	c0,2.2,1.2,4.2,3.3,4.2s3.3-1.9,3.3-4.3c0-2-1.1-4.2-3.3-4.2S801.3,248,801.3,250.2L801.3,250.2z"/>
<path class="st2" d="M811,245.2c0.9-0.1,1.9-0.2,2.8-0.2c1.5-0.1,3,0.3,4.2,1.3c1,1,1.5,2.3,1.5,3.7c0.1,1.5-0.5,2.9-1.5,4
	c-1.3,1.1-2.9,1.6-4.5,1.5c-0.8,0-1.6,0-2.4-0.1L811,245.2z M812.4,254.3c0.4,0.1,0.9,0.1,1.3,0.1c2.8,0,4.4-1.6,4.4-4.4
	c0-2.4-1.3-4-4.2-4c-0.5,0-1,0-1.6,0.1V254.3z"/>
<path class="st2" d="M822.7,252.1l-1.1,3.2h-1.4l3.5-10.3h1.6l3.5,10.3h-1.4l-1.1-3.2L822.7,252.1z M826,251.1l-1-3
	c-0.2-0.7-0.4-1.3-0.5-1.9l0,0c-0.2,0.6-0.3,1.2-0.5,1.9l-1,3L826,251.1z"/>
<path class="st2" d="M831.1,246.1H828V245h7.6v1.1h-3.2v9.2h-1.3L831.1,246.1z"/>
<path class="st2" d="M837.2,252.1l-1.1,3.2h-1.4l3.5-10.3h1.6l3.5,10.3H842l-1.1-3.2H837.2z M840.6,251.1l-1-3
	c-0.2-0.7-0.4-1.3-0.5-1.9l0,0c-0.2,0.6-0.3,1.2-0.5,1.9l-1,3L840.6,251.1z"/>
<path class="st2" d="M776.3,262.8v8.9c0,0.7,0,1.4,0.1,1.9h-1.2l-0.1-1.3l0,0c-0.5,0.9-1.5,1.5-2.5,1.4c-1.8,0-3.2-1.5-3.2-3.7
	c0-2.5,1.5-4,3.3-4c0.9-0.1,1.7,0.4,2.2,1.1l0,0v-4.4L776.3,262.8z M775,269.2c0-0.2,0-0.4-0.1-0.6c-0.2-0.9-1-1.5-1.9-1.5
	c-1.4,0-2.2,1.2-2.2,2.8s0.8,2.7,2.2,2.7c1,0,1.8-0.7,2-1.6c0-0.2,0.1-0.4,0.1-0.6L775,269.2z"/>
<path class="st2" d="M782.6,273.6l-0.1-0.9l0,0c-0.5,0.7-1.4,1.1-2.3,1.1c-1.2,0.1-2.2-0.8-2.2-1.9c0-0.1,0-0.1,0-0.2
	c0-1.8,1.6-2.8,4.4-2.8v-0.2c0.1-0.8-0.5-1.6-1.3-1.7c-0.1,0-0.2,0-0.4,0c-0.7,0-1.3,0.2-1.9,0.5l-0.3-0.9c0.7-0.4,1.6-0.7,2.4-0.6
	c2.3,0,2.8,1.5,2.8,3v2.8c0,0.6,0,1.2,0.1,1.8L782.6,273.6z M782.4,269.8c-1.5,0-3.1,0.2-3.1,1.6c-0.1,0.7,0.4,1.2,1.1,1.3
	c0.1,0,0.1,0,0.2,0c0.8,0,1.5-0.5,1.8-1.2c0-0.1,0.1-0.3,0.1-0.4V269.8z"/>
<path class="st2" d="M787.5,264.1v2.1h1.9v1h-1.9v4c0,0.9,0.3,1.4,1,1.4c0.3,0,0.5,0,0.8-0.1l0.1,1c-0.4,0.1-0.8,0.2-1.2,0.2
	c-0.5,0-1.1-0.2-1.5-0.6c-0.4-0.6-0.6-1.2-0.5-1.9v-4H785v-1h1.1v-1.8L787.5,264.1z"/>
<path class="st2" d="M795,273.6l-0.1-0.9l0,0c-0.5,0.7-1.4,1.1-2.2,1.1c-1.2,0.1-2.2-0.8-2.2-1.9c0-0.1,0-0.1,0-0.2
	c0-1.8,1.6-2.8,4.4-2.8v-0.2c0.1-0.8-0.5-1.6-1.3-1.7c-0.1,0-0.2,0-0.4,0c-0.7,0-1.3,0.2-1.9,0.5l-0.3-0.9c0.7-0.4,1.6-0.7,2.4-0.6
	c2.2,0,2.8,1.5,2.8,3v2.8c0,0.6,0,1.2,0.1,1.8L795,273.6z M794.8,269.8c-1.5,0-3.1,0.2-3.1,1.6c-0.1,0.7,0.4,1.2,1.1,1.3
	c0.1,0,0.1,0,0.2,0c0.8,0,1.5-0.5,1.8-1.2c0-0.1,0.1-0.3,0.1-0.4V269.8z"/>
<path class="st2" d="M796.4,275.7c0.5,0,1.1-0.2,1.5-0.6c0.4-0.4,0.5-1,0.5-2.8v-6.2h1.3v6.7c0.1,1.1-0.2,2.2-0.9,3
	c-0.6,0.5-1.5,0.8-2.3,0.8L796.4,275.7z M799.9,264.2c0,0.4-0.3,0.8-0.8,0.8c0,0-0.1,0-0.1,0c-0.4,0-0.8-0.3-0.8-0.8c0,0,0,0,0-0.1
	c0-0.5,0.3-0.8,0.8-0.8c0,0,0,0,0,0C799.5,263.3,799.9,263.6,799.9,264.2C799.9,264.1,799.9,264.1,799.9,264.2L799.9,264.2z"/>
<path class="st2" d="M808.6,269.9c0.2,2-1.3,3.7-3.3,3.9c-0.1,0-0.3,0-0.4,0c-1.9,0-3.5-1.5-3.6-3.5c0-0.1,0-0.2,0-0.3
	c-0.2-2,1.3-3.7,3.3-3.9c0.1,0,0.3,0,0.4,0c1.9,0,3.5,1.5,3.6,3.4C808.6,269.6,808.6,269.7,808.6,269.9z M802.8,269.9
	c0,1.6,0.9,2.8,2.2,2.8s2.2-1.2,2.2-2.9c0-1.2-0.6-2.8-2.2-2.8S802.8,268.5,802.8,269.9z"/>
<path class="st2" d="M816.5,271.6c0,0.8,0,1.4,0.1,2h-1.2l-0.1-1.2l0,0c-0.5,0.9-1.4,1.4-2.4,1.4c-1.2,0-2.5-0.6-2.5-3.2v-4.3h1.3
	v4.1c0,1.4,0.4,2.4,1.7,2.4c0.8,0,1.5-0.5,1.8-1.2c0.1-0.2,0.1-0.4,0.1-0.7v-4.5h1.3L816.5,271.6z"/>
<path class="st2" d="M818.7,268.5c0-0.9,0-1.6-0.1-2.3h1.2v1.5l0,0c0.3-0.9,1.1-1.6,2-1.6c0.1,0,0.2,0,0.4,0v1.3c-0.1,0-0.3,0-0.5,0
	c-0.9,0-1.7,0.8-1.8,1.7c0,0.2,0,0.4,0,0.6v3.9h-1.3L818.7,268.5z"/>
<path class="st2" d="M823.8,268.2c0-0.8,0-1.4-0.1-2h1.2l0.1,1.2l0,0c0.5-0.9,1.4-1.4,2.4-1.4c1,0,2.6,0.6,2.6,3.1v4.4h-1.3v-4.2
	c0-1.2-0.5-2.2-1.7-2.2c-0.8,0-1.6,0.6-1.8,1.4c-0.1,0.2-0.1,0.4-0.1,0.6v4.4h-1.3L823.8,268.2z"/>
<path class="st2" d="M836.3,273.6l-0.1-0.9l0,0c-0.5,0.7-1.4,1.1-2.3,1.1c-1.2,0.1-2.2-0.8-2.2-1.9c0-0.1,0-0.1,0-0.2
	c0-1.8,1.6-2.8,4.4-2.8v-0.2c0.1-0.8-0.5-1.6-1.3-1.7c-0.1,0-0.2,0-0.4,0c-0.7,0-1.3,0.2-1.9,0.5l-0.3-0.9c0.7-0.4,1.6-0.7,2.4-0.6
	c2.2,0,2.8,1.5,2.8,3v2.8c0,0.6,0,1.2,0.1,1.8L836.3,273.6z M836.1,269.8c-1.5,0-3.1,0.2-3.1,1.6c-0.1,0.6,0.4,1.2,1.1,1.3
	c0.1,0,0.1,0,0.2,0c0.8,0,1.5-0.5,1.8-1.2c0-0.1,0.1-0.3,0.1-0.4V269.8z"/>
<path class="st2" d="M839.6,262.8h1.3v10.8h-1.3V262.8z"/>
<path class="st2" d="M844.7,264.1c0,0.5-0.4,0.8-0.8,0.8c-0.5,0-0.8-0.4-0.8-0.8c0,0,0,0,0,0c0-0.5,0.3-0.8,0.8-0.8c0,0,0,0,0,0
	C844.3,263.3,844.6,263.7,844.7,264.1C844.7,264.1,844.7,264.1,844.7,264.1z M843.2,273.6v-7.4h1.3v7.4H843.2z"/>
<path class="st2" d="M846.5,272.2c0.5,0.3,1.2,0.5,1.8,0.5c1,0,1.4-0.5,1.4-1.1s-0.4-1-1.4-1.4c-1.3-0.5-2-1.2-2-2.1
	c0.1-1.3,1.1-2.2,2.4-2.2c0.1,0,0.1,0,0.2,0c0.6,0,1.3,0.1,1.8,0.5l-0.3,1c-0.5-0.3-1-0.4-1.5-0.4c-0.8,0-1.2,0.5-1.2,1
	s0.4,0.9,1.4,1.3c1.3,0.5,1.9,1.1,1.9,2.2c0,1.3-1,2.2-2.8,2.2c-0.7,0-1.4-0.2-2.1-0.5L846.5,272.2z"/>
<path class="st2" d="M854.4,264.1v2.1h1.9v1h-1.9v4c0,0.9,0.3,1.4,1,1.4c0.3,0,0.5,0,0.8-0.1l0.1,1c-0.4,0.1-0.8,0.2-1.2,0.2
	c-0.5,0-1.1-0.2-1.4-0.6c-0.4-0.6-0.6-1.2-0.5-1.9v-4h-1.2v-1h1.2v-1.8L854.4,264.1z"/>
<path class="st2" d="M776.3,281.1v8.9c0,0.6,0,1.4,0.1,1.9h-1.2l-0.1-1.3l0,0c-0.5,0.9-1.5,1.5-2.5,1.5c-1.8,0-3.2-1.5-3.2-3.8
	c0-2.5,1.5-4,3.3-4c0.9-0.1,1.7,0.4,2.2,1.1l0,0V281L776.3,281.1z M775,287.5c0-0.2,0-0.4-0.1-0.6c-0.2-0.9-1-1.5-1.9-1.5
	c-1.4,0-2.2,1.2-2.2,2.8s0.8,2.7,2.2,2.7c1,0,1.8-0.7,2-1.6c0-0.2,0.1-0.4,0.1-0.6L775,287.5z"/>
<path class="st2" d="M779.3,288.5c-0.1,1.3,0.8,2.4,2.1,2.5c0.1,0,0.3,0,0.4,0c0.7,0,1.4-0.1,2-0.4l0.2,1c-0.8,0.3-1.6,0.5-2.5,0.5
	c-1.9,0.1-3.5-1.3-3.6-3.2c0-0.2,0-0.3,0-0.5c0-2.2,1.3-4,3.5-4c2.4,0,3,2.1,3,3.5c0,0.2,0,0.4,0,0.6L779.3,288.5z M783.2,287.5
	c0.1-1-0.6-2-1.6-2.2c-0.1,0-0.2,0-0.2,0c-1.1,0.1-2,1-2.1,2.2H783.2z"/>
<path class="st2" d="M786.7,284.5l1.4,4.1c0.2,0.7,0.4,1.3,0.6,1.9l0,0c0.2-0.6,0.4-1.2,0.6-1.9l1.4-4.1h1.4l-2.9,7.4H788l-2.8-7.4
	H786.7z"/>
<path class="st2" d="M794.1,288.5c-0.1,1.3,0.8,2.4,2.1,2.5c0.1,0,0.3,0,0.4,0c0.7,0,1.4-0.1,2-0.4l0.2,1c-0.8,0.3-1.6,0.5-2.5,0.5
	c-1.9,0.1-3.5-1.3-3.6-3.2c0-0.2,0-0.3,0-0.5c0-2.2,1.3-4,3.5-4c2.4,0,3,2.1,3,3.5c0,0.2,0,0.4,0,0.6L794.1,288.5z M798,287.5
	c0.1-1-0.6-2-1.6-2.2c-0.1,0-0.2,0-0.2,0c-1.1,0.1-2,1-2,2.2H798z"/>
<path class="st2" d="M801,281.1h1.3v10.8H801V281.1z"/>
<path class="st2" d="M811.3,288.1c0.2,2-1.3,3.7-3.3,3.9c-0.1,0-0.3,0-0.4,0c-1.9,0-3.5-1.5-3.6-3.5c0-0.1,0-0.2,0-0.3
	c-0.2-2,1.3-3.7,3.3-3.9c0.1,0,0.3,0,0.4,0c1.9,0,3.5,1.5,3.6,3.4C811.3,287.9,811.3,288,811.3,288.1z M805.4,288.2
	c0,1.6,0.9,2.8,2.2,2.8s2.2-1.2,2.2-2.9c0-1.2-0.6-2.8-2.2-2.8S805.4,286.8,805.4,288.2L805.4,288.2z"/>
<path class="st2" d="M813,286.9c0-0.9,0-1.7-0.1-2.4h1.2l0.1,1.2l0,0c0.5-0.9,1.5-1.5,2.6-1.4c1.8,0,3.1,1.5,3.1,3.7
	c0,2.7-1.6,4-3.3,4c-0.9,0-1.8-0.4-2.3-1.2l0,0v4H813V286.9z M814.3,288.9c0,0.2,0,0.4,0.1,0.5c0.2,0.9,1,1.6,2,1.6
	c1.4,0,2.2-1.2,2.2-2.9c0-1.5-0.8-2.7-2.2-2.7c-1,0-1.8,0.7-2,1.7c0,0.2-0.1,0.4-0.1,0.5L814.3,288.9z"/>
<path class="st2" d="M822.4,288.5c-0.1,1.3,0.8,2.4,2.1,2.5c0.1,0,0.3,0,0.4,0c0.7,0,1.4-0.1,2-0.4l0.2,1c-0.8,0.3-1.6,0.5-2.5,0.5
	c-1.9,0.1-3.5-1.3-3.6-3.2c0-0.2,0-0.3,0-0.5c0-2.2,1.3-4,3.5-4c2.4,0,3,2.1,3,3.5c0,0.2,0,0.4,0,0.6L822.4,288.5z M826.3,287.5
	c0.1-1-0.6-2-1.6-2.2c-0.1,0-0.2,0-0.2,0c-1.1,0.1-2,1-2.1,2.2H826.3z"/>
<path class="st2" d="M829.3,286.8c0-0.9,0-1.6-0.1-2.3h1.2l0,1.4l0,0c0.3-0.9,1.1-1.6,2-1.6c0.1,0,0.2,0,0.4,0v1.3
	c-0.1,0-0.3,0-0.5,0c-0.9,0-1.7,0.8-1.8,1.7c0,0.2,0,0.4,0,0.6v3.9h-1.3V286.8z"/>
<path class="st7" d="M127.1,89.3h1.3v6.9c0,2.7-1.3,3.6-3.1,3.6c-0.5,0-1-0.1-1.4-0.2l0.2-1.1c0.4,0.1,0.7,0.2,1.1,0.2
	c1.2,0,1.9-0.5,1.9-2.6V89.3z"/>
<path class="st7" d="M137.3,95.8c0.2,2-1.3,3.7-3.3,3.9c-0.1,0-0.2,0-0.4,0c-1.9,0-3.5-1.5-3.6-3.5c0-0.1,0-0.2,0-0.3
	c-0.2-2,1.3-3.7,3.2-3.9c0.1,0,0.3,0,0.4,0c1.9,0,3.5,1.5,3.6,3.4C137.3,95.5,137.3,95.7,137.3,95.8z M131.4,95.9
	c0,1.6,0.9,2.8,2.2,2.8s2.2-1.2,2.2-2.9c0-1.2-0.6-2.8-2.2-2.8S131.4,94.5,131.4,95.9z"/>
<path class="st7" d="M145.1,97.5c0,0.8,0,1.4,0.1,2H144l-0.1-1.2l0,0c-0.5,0.9-1.4,1.4-2.4,1.4c-1.2,0-2.5-0.7-2.5-3.2v-4.3h1.3v4.1
	c0,1.4,0.4,2.4,1.6,2.4c0.8,0,1.5-0.5,1.8-1.2c0.1-0.2,0.1-0.5,0.1-0.7v-4.5h1.3L145.1,97.5z"/>
<path class="st7" d="M147.4,94.5c0-0.9,0-1.6-0.1-2.3h1.2l0.1,1.4h0.1c0.3-0.9,1.1-1.6,2-1.6c0.1,0,0.2,0,0.4,0v1.3
	c-0.1,0-0.3,0-0.4,0c-0.9,0-1.7,0.8-1.8,1.7c0,0.2,0,0.4-0.1,0.6v3.9h-1.3L147.4,94.5z"/>
<path class="st7" d="M152.4,94.2c0-0.8,0-1.4-0.1-2h1.2l0.1,1.2l0,0c0.5-0.9,1.4-1.4,2.5-1.4c1,0,2.6,0.6,2.6,3.1v4.4h-1.3v-4.2
	c0-1.2-0.4-2.2-1.7-2.2c-1.1,0.1-1.9,0.9-1.9,2v4.4h-1.3L152.4,94.2z"/>
<path class="st7" d="M165,99.6l-0.1-0.9l0,0c-0.5,0.7-1.4,1.1-2.2,1.1c-1.2,0.1-2.2-0.8-2.2-1.9c0-0.1,0-0.1,0-0.2
	c0-1.8,1.6-2.8,4.4-2.7v-0.2c0.1-0.8-0.5-1.6-1.3-1.7c-0.1,0-0.2,0-0.4,0c-0.7,0-1.3,0.2-1.9,0.6l-0.3-0.9c0.7-0.4,1.6-0.7,2.4-0.7
	c2.2,0,2.8,1.5,2.8,3v2.8c0,0.6,0,1.2,0.1,1.8L165,99.6z M164.8,95.8c-1.4,0-3.1,0.2-3.1,1.7c-0.1,0.7,0.4,1.2,1.1,1.3
	c0.1,0,0.1,0,0.2,0c0.8,0,1.5-0.5,1.8-1.2c0-0.1,0.1-0.3,0.1-0.4V95.8z"/>
<path class="st7" d="M168.2,88.7h1.3v10.8h-1.3V88.7z"/>
<path class="st7" d="M173.3,90.1c0,0.4-0.3,0.8-0.8,0.8c0,0,0,0-0.1,0c-0.4,0-0.8-0.3-0.8-0.8c0,0,0,0,0,0c0-0.5,0.3-0.8,0.8-0.8
	c0,0,0,0,0,0C172.9,89.3,173.3,89.6,173.3,90.1C173.3,90.1,173.3,90.1,173.3,90.1z M171.8,99.6v-7.4h1.3v7.4H171.8z"/>
<path class="st7" d="M175.2,98.2c0.5,0.3,1.2,0.5,1.8,0.5c1,0,1.4-0.5,1.4-1.1s-0.4-1-1.4-1.3c-1.3-0.5-2-1.2-2-2.1
	c0-1.3,1.1-2.2,2.3-2.2c0.1,0,0.2,0,0.2,0c0.6,0,1.3,0.1,1.8,0.5l-0.3,1c-0.5-0.3-1-0.4-1.5-0.4c-0.8,0-1.2,0.4-1.2,1
	s0.4,0.9,1.4,1.2c1.3,0.5,1.9,1.1,1.9,2.2c0,1.3-1,2.2-2.8,2.2c-0.7,0-1.4-0.2-2.1-0.5L175.2,98.2z"/>
<path class="st7" d="M181.4,94.2c0-0.8,0-1.4-0.1-2h1.2l0.1,1.2l0,0c0.5-0.9,1.4-1.4,2.4-1.4c0.9,0,1.7,0.6,2,1.5l0,0
	c0.2-0.4,0.5-0.7,0.8-1c0.5-0.4,1-0.5,1.6-0.5c1,0,2.4,0.6,2.4,3.2v4.3h-1.3v-4.1c0-1.4-0.5-2.3-1.6-2.3c-0.7,0-1.4,0.5-1.6,1.2
	c-0.1,0.2-0.1,0.4-0.1,0.7v4.6H186v-4.4c0-1.2-0.5-2-1.5-2c-0.8,0-1.5,0.6-1.7,1.3c-0.1,0.2-0.1,0.4-0.1,0.7v4.4h-1.3L181.4,94.2z"
	/>
<path class="st7" d="M203.7,88.7v8.9c0,0.7,0,1.4,0.1,1.9h-1.2l-0.1-1.3l0,0c-0.5,0.9-1.5,1.5-2.5,1.4c-1.8,0-3.2-1.5-3.2-3.8
	c0-2.5,1.5-4,3.3-4c0.9-0.1,1.7,0.4,2.2,1.1l0,0v-4.4L203.7,88.7z M202.4,95.2c0-0.2,0-0.4-0.1-0.6c-0.2-0.9-1-1.5-1.9-1.6
	c-1.4,0-2.2,1.2-2.2,2.8s0.7,2.7,2.2,2.7c1.1-0.1,2-1,2-2.2L202.4,95.2z"/>
<path class="st7" d="M206.7,96.1c-0.1,1.3,0.8,2.4,2.1,2.6c0.1,0,0.3,0,0.4,0c0.7,0,1.4-0.1,2-0.4l0.2,1c-0.8,0.3-1.6,0.5-2.5,0.5
	c-1.9,0.1-3.5-1.4-3.6-3.3c0-0.2,0-0.3,0-0.5c0-2.2,1.3-4,3.5-4c2.4,0,3,2.1,3,3.5c0,0.2,0,0.4-0.1,0.6L206.7,96.1z M210.6,95.1
	c0.1-1-0.6-2-1.7-2.1c-0.1,0-0.1,0-0.2,0c-1.1,0.1-2,1-2.1,2.2L210.6,95.1z"/>
<path class="st7" d="M220,92.2c0,0.5-0.1,1.1-0.1,2v4.3c0,1.7-0.4,2.7-1,3.4c-0.8,0.6-1.7,0.9-2.7,0.9c-0.9,0-1.7-0.2-2.5-0.6l0.3-1
	c0.7,0.4,1.4,0.6,2.2,0.6c1.4,0,2.4-0.7,2.4-2.6v-0.9l0,0c-0.5,0.8-1.4,1.3-2.3,1.2c-1.8,0-3.1-1.6-3.1-3.6c0-2.5,1.6-3.9,3.3-3.9
	c0.9-0.1,1.8,0.4,2.3,1.3l0,0v-1.1H220z M218.6,95.1c0-0.2,0-0.4-0.1-0.6c-0.2-0.8-1-1.4-1.9-1.4c-1.3,0-2.2,1.1-2.2,2.8
	c0,1.4,0.7,2.7,2.2,2.7c0.9,0,1.6-0.6,1.9-1.4c0.1-0.2,0.1-0.5,0.1-0.7L218.6,95.1z"/>
<path class="st7" d="M222,94.5c0-0.9,0-1.6-0.1-2.3h1.2l0.1,1.4l0,0c0.3-1,1.1-1.6,2.1-1.6c0.1,0,0.2,0,0.4,0v1.3
	c-0.2,0-0.3,0-0.5,0c-1,0-1.7,0.8-1.8,1.7c0,0.2-0.1,0.4-0.1,0.6v3.9H222V94.5z"/>
<path class="st7" d="M227.6,96.1c-0.1,1.3,0.8,2.4,2.1,2.6c0.1,0,0.3,0,0.4,0c0.7,0,1.4-0.1,2-0.4l0.2,1c-0.8,0.3-1.6,0.5-2.5,0.5
	c-1.9,0.1-3.5-1.4-3.6-3.3c0-0.2,0-0.3,0-0.5c0-2.2,1.3-4,3.5-4c2.4,0,3,2.1,3,3.5c0,0.2,0,0.4,0,0.6L227.6,96.1z M231.6,95.1
	c0.1-1-0.6-2-1.7-2.1c-0.1,0-0.1,0-0.2,0c-1.1,0.1-2,1-2.1,2.2L231.6,95.1z"/>
<path class="st7" d="M235.3,96.1c-0.1,1.3,0.8,2.4,2.1,2.6c0.1,0,0.3,0,0.4,0c0.7,0,1.4-0.1,2-0.4l0.2,1c-0.8,0.3-1.6,0.5-2.5,0.5
	c-1.9,0.1-3.5-1.4-3.6-3.3c0-0.2,0-0.3,0-0.5c0-2.2,1.3-4,3.5-4c2.4,0,3,2.1,3,3.5c0,0.2,0,0.4,0,0.6L235.3,96.1z M239.2,95.1
	c0.1-1-0.6-2-1.7-2.1c-0.1,0-0.1,0-0.2,0c-1.1,0.1-2,1-2.1,2.2L239.2,95.1z"/>
<path class="st7" d="M123.2,112.9c0.5,0,0.9-0.2,1.3-0.5c0.3-0.4,0.4-0.9,0.4-2.4v-5.4h1.2v5.9c0.1,1-0.2,1.9-0.8,2.7
	c-0.6,0.5-1.3,0.7-2,0.7L123.2,112.9z M126.2,102.7c0,0.4-0.2,0.8-0.6,0.8c-0.4,0-0.8-0.2-0.8-0.6c0-0.1,0-0.1,0-0.2
	c0-0.4,0.3-0.7,0.7-0.7c0,0,0,0,0,0C125.9,102,126.2,102.3,126.2,102.7C126.2,102.7,126.2,102.7,126.2,102.7L126.2,102.7z"/>
<path class="st7" d="M133.9,107.7c0.1,1.7-1.1,3.3-2.9,3.4c-0.1,0-0.2,0-0.3,0c-1.7,0-3.1-1.3-3.1-3c0-0.1,0-0.2,0-0.3
	c-0.1-1.7,1.1-3.3,2.9-3.4c0.1,0,0.2,0,0.3,0c1.7-0.1,3.1,1.2,3.1,2.9C133.9,107.4,133.9,107.6,133.9,107.7z M128.8,107.8
	c0,1.4,0.8,2.5,2,2.5s2-1,2-2.5c0-1.1-0.6-2.5-2-2.5S128.8,106.6,128.8,107.8z"/>
<path class="st7" d="M140.8,109.2c0,0.7,0,1.3,0.1,1.8h-1l-0.1-1.1l0,0c-0.4,0.8-1.3,1.2-2.1,1.2c-1,0-2.2-0.6-2.2-2.8v-3.8h1.2v3.6
	c0,1.2,0.4,2.1,1.4,2.1c0.7,0,1.3-0.4,1.6-1.1c0.1-0.2,0.1-0.4,0.1-0.6v-4h1.2L140.8,109.2z"/>
<path class="st7" d="M142.7,106.6c0-0.8,0-1.4-0.1-2h1v1.3l0,0c0.2-0.8,1-1.4,1.8-1.4c0.1,0,0.2,0,0.3,0v1.1c-0.1,0-0.3,0-0.4,0
	c-0.8,0-1.5,0.7-1.6,1.5c0,0.2,0,0.4,0,0.6v3.4h-1.2L142.7,106.6z"/>
<path class="st7" d="M147.1,106.3c0-0.7,0-1.2-0.1-1.8h1l0.1,1.1l0,0c0.4-0.8,1.3-1.2,2.1-1.2c0.9,0,2.3,0.5,2.3,2.8v3.8h-1.2v-3.7
	c0-1-0.4-1.9-1.5-1.9c-0.7,0-1.4,0.5-1.6,1.2c-0.1,0.2-0.1,0.4-0.1,0.5v3.9h-1.2L147.1,106.3z"/>
<path class="st7" d="M158.1,111l-0.1-0.8l0,0c-0.5,0.6-1.2,1-2,1c-1,0.1-1.9-0.7-2-1.7c0-0.1,0-0.1,0-0.2c0-1.6,1.4-2.4,3.9-2.4
	v-0.1c0.1-0.7-0.4-1.4-1.2-1.5c-0.1,0-0.2,0-0.3,0c-0.6,0-1.2,0.2-1.7,0.5l-0.3-0.8c0.6-0.4,1.4-0.6,2.1-0.6c2,0,2.5,1.3,2.5,2.6
	v2.4c0,0.5,0,1,0.1,1.5L158.1,111z M157.9,107.7c-1.3,0-2.7,0.2-2.7,1.4c-0.1,0.5,0.3,1.1,0.9,1.1c0.1,0,0.2,0,0.2,0
	c0.7,0,1.3-0.4,1.6-1.1c0-0.1,0.1-0.2,0.1-0.4V107.7z"/>
<path class="st7" d="M161,101.5h1.2v9.5H161V101.5z"/>
<path class="st7" d="M165.4,102.7c0,0.4-0.3,0.7-0.7,0.7c0,0,0,0-0.1,0c-0.4,0-0.7-0.3-0.7-0.7c0,0,0,0,0-0.1c0-0.4,0.3-0.7,0.7-0.7
	c0,0,0,0,0,0C165.1,102,165.4,102.3,165.4,102.7C165.4,102.7,165.4,102.7,165.4,102.7z M164.1,111v-6.5h1.2v6.5H164.1z"/>
<path class="st7" d="M167.1,109.8c0.5,0.3,1,0.4,1.6,0.5c0.9,0,1.3-0.4,1.3-1s-0.4-0.9-1.2-1.2c-1.2-0.4-1.7-1-1.7-1.8
	c0.1-1.1,1-2,2.1-1.9c0,0,0.1,0,0.1,0c0.6,0,1.1,0.1,1.6,0.4l-0.3,0.9c-0.4-0.2-0.9-0.4-1.3-0.4c-0.7,0-1.1,0.4-1.1,0.9
	s0.4,0.8,1.2,1.1c1.1,0.4,1.7,1,1.7,1.9c0,1.1-0.9,1.9-2.4,1.9c-0.6,0-1.3-0.1-1.8-0.4L167.1,109.8z"/>
<path class="st7" d="M172.5,106.3c0-0.7,0-1.2-0.1-1.8h1l0.1,1l0,0c0.4-0.7,1.2-1.2,2-1.2c0.8,0,1.6,0.5,1.8,1.3l0,0
	c0.2-0.3,0.4-0.6,0.7-0.8c0.4-0.3,0.9-0.5,1.4-0.4c0.9,0,2.1,0.6,2.1,2.8v3.8h-1.1v-3.7c0-1.2-0.5-2-1.4-2c-0.6,0-1.2,0.4-1.4,1.1
	c-0.1,0.2-0.1,0.4-0.1,0.6v4h-1.1v-3.9c0-1-0.5-1.8-1.3-1.8c-0.7,0-1.3,0.5-1.5,1.2c-0.1,0.2-0.1,0.4-0.1,0.6v3.9h-1.1L172.5,106.3z
	"/>
<path class="st7" d="M186.3,109.8c0.5,0.3,1,0.4,1.6,0.5c0.9,0,1.2-0.4,1.2-1s-0.3-0.9-1.2-1.2c-1.2-0.4-1.7-1-1.7-1.8
	c0.1-1.1,1-2,2.1-1.9c0,0,0.1,0,0.1,0c0.6,0,1.1,0.1,1.6,0.4l-0.3,0.9c-0.4-0.2-0.9-0.4-1.3-0.4c-0.7,0-1.1,0.4-1.1,0.9
	s0.4,0.8,1.2,1.1c1.1,0.4,1.7,1,1.7,1.9c0,1.1-0.9,1.9-2.4,1.9c-0.6,0-1.3-0.1-1.8-0.4L186.3,109.8z"/>
<path class="st7" d="M196.4,110.8c-0.6,0.3-1.2,0.4-1.9,0.4c-1.7,0.1-3.1-1.2-3.2-2.9c0-0.1,0-0.3,0-0.4c-0.1-1.8,1.3-3.4,3.1-3.4
	c0.1,0,0.2,0,0.3,0c0.6,0,1.1,0.1,1.6,0.3l-0.3,0.9c-0.4-0.2-0.9-0.3-1.4-0.3c-1.3,0.1-2.3,1.3-2.2,2.7c0.1,1.2,1,2.1,2.2,2.2
	c0.5,0,1-0.1,1.4-0.3L196.4,110.8z"/>
<path class="st7" d="M197.8,101.5h1.2v4l0,0c0.2-0.3,0.5-0.6,0.8-0.8c0.4-0.2,0.8-0.3,1.2-0.3c0.9,0,2.2,0.5,2.2,2.8v3.9h-1.2v-3.7
	c0-1-0.4-1.9-1.5-1.9c-0.7,0-1.4,0.5-1.6,1.2c-0.1,0.2-0.1,0.4-0.1,0.6v3.9h-1.2L197.8,101.5z"/>
<path class="st7" d="M211,107.7c0.1,1.7-1.1,3.3-2.9,3.4c-0.1,0-0.2,0-0.3,0c-1.7,0-3.1-1.3-3.1-3c0-0.1,0-0.2,0-0.3
	c-0.1-1.7,1.1-3.3,2.9-3.4c0.1,0,0.2,0,0.3,0c1.7,0,3.1,1.3,3.1,3C211,107.5,211,107.6,211,107.7z M205.9,107.8c0,1.4,0.8,2.5,2,2.5
	s2-1,2-2.5c0-1.1-0.6-2.5-1.9-2.5S205.9,106.6,205.9,107.8L205.9,107.8z"/>
<path class="st7" d="M218.4,107.7c0.1,1.7-1.1,3.3-2.9,3.4c-0.1,0-0.2,0-0.3,0c-1.7,0-3.1-1.3-3.1-3c0-0.1,0-0.2,0-0.3
	c-0.1-1.7,1.1-3.3,2.9-3.4c0.1,0,0.2,0,0.3,0c1.7-0.1,3.1,1.2,3.1,2.9C218.4,107.4,218.4,107.6,218.4,107.7z M213.2,107.8
	c0,1.4,0.8,2.5,2,2.5s2-1,2-2.5c0-1.1-0.6-2.5-1.9-2.5S213.2,106.6,213.2,107.8L213.2,107.8z"/>
<path class="st7" d="M219.8,101.5h1.2v9.5h-1.2V101.5z"/>
<path class="st7" d="M130.6,119.2c0.1,1.7-1.1,3.3-2.9,3.4c-0.1,0-0.2,0-0.3,0c-1.7,0-3.1-1.3-3.1-3c0-0.1,0-0.2,0-0.3
	c-0.1-1.7,1.1-3.3,2.9-3.4c0.1,0,0.2,0,0.3,0c1.7,0,3.1,1.3,3.1,3C130.6,118.9,130.6,119,130.6,119.2z M125.5,119.2
	c0,1.4,0.8,2.5,2,2.5c1.2,0,2-1,2-2.5c0-1.1-0.6-2.5-1.9-2.5S125.5,118,125.5,119.2z"/>
<path class="st7" d="M132.2,122.4v-5.6h-0.9V116h0.9v-0.3c-0.1-0.8,0.2-1.6,0.8-2.3c0.4-0.4,1-0.6,1.6-0.6c0.3,0,0.7,0.1,1,0.2
	l-0.2,0.9c-0.2-0.1-0.5-0.2-0.8-0.2c-1,0-1.2,0.9-1.2,1.9v0.3h1.6v0.9h-1.6v5.6H132.2z"/>
<path class="st7" d="M145.2,122.2c-0.7,0.3-1.6,0.5-2.4,0.4c-2.3,0.1-4.3-1.6-4.4-3.9c0-0.2,0-0.4,0-0.6c-0.1-2.5,1.7-4.6,4.2-4.7
	c0.2,0,0.3,0,0.5,0c0.7,0,1.5,0.1,2.1,0.4l-0.3,1c-0.6-0.3-1.2-0.4-1.8-0.4c-2.1,0-3.5,1.3-3.5,3.7c0,2.2,1.3,3.6,3.4,3.6
	c0.7,0,1.3-0.1,1.9-0.4L145.2,122.2z"/>
<path class="st7" d="M150.1,122.4l-0.1-0.8l0,0c-0.5,0.6-1.2,1-2,1c-1,0.1-1.9-0.7-2-1.7c0-0.1,0-0.1,0-0.2c0-1.6,1.4-2.4,3.9-2.4
	v-0.1c0.1-0.7-0.4-1.4-1.2-1.5c-0.1,0-0.2,0-0.3,0c-0.6,0-1.2,0.2-1.7,0.5l-0.3-0.8c0.6-0.4,1.4-0.6,2.1-0.6c2,0,2.5,1.3,2.5,2.6
	v2.4c0,0.5,0,1,0.1,1.5L150.1,122.4z M149.9,119.2c-1.3,0-2.7,0.2-2.7,1.4c-0.1,0.5,0.3,1.1,0.9,1.1c0.1,0,0.2,0,0.2,0
	c0.7,0,1.3-0.4,1.6-1.1c0-0.1,0-0.2,0-0.4L149.9,119.2z"/>
<path class="st7" d="M152.9,117.7c0-0.7,0-1.2,0-1.7h1l0.1,1.1l0,0c0.4-0.8,1.3-1.2,2.1-1.2c0.9,0,2.3,0.5,2.3,2.8v3.8h-1.2v-3.7
	c0-1-0.4-1.9-1.5-1.9c-0.7,0-1.4,0.5-1.6,1.2c-0.1,0.2-0.1,0.4-0.1,0.5v3.9h-1.2L152.9,117.7z"/>
<path class="st7" d="M160.3,117.7c0-0.7,0-1.2-0.1-1.7h1l0.1,1.1l0,0c0.4-0.8,1.3-1.2,2.1-1.2c0.9,0,2.3,0.5,2.3,2.8v3.8h-1.2v-3.7
	c0-1-0.4-1.9-1.5-1.9c-0.7,0-1.4,0.5-1.6,1.2c-0.1,0.2-0.1,0.4-0.1,0.5v3.9h-1.2L160.3,117.7z"/>
<path class="st7" d="M168.4,119.4c-0.1,1.1,0.7,2.1,1.9,2.2c0.1,0,0.2,0,0.3,0c0.6,0,1.2-0.1,1.8-0.3l0.2,0.8
	c-0.7,0.3-1.4,0.4-2.2,0.4c-1.7,0.1-3.1-1.2-3.2-2.8c0-0.1,0-0.3,0-0.4c0-2,1.1-3.5,3-3.5c2.1,0,2.7,1.8,2.7,3c0,0.2,0,0.4,0,0.6
	L168.4,119.4z M171.8,118.6c0.1-0.9-0.5-1.8-1.4-1.9c-0.1,0-0.1,0-0.2,0c-1,0.1-1.8,0.9-1.8,1.9H171.8z"/>
<path class="st7" d="M174.3,121.3c0.5,0.3,1,0.4,1.6,0.5c0.9,0,1.3-0.4,1.3-1s-0.3-0.9-1.2-1.2c-1.2-0.4-1.7-1-1.7-1.8
	c0.1-1.1,1-2,2.1-1.9c0,0,0.1,0,0.1,0c0.6,0,1.1,0.1,1.6,0.4l-0.3,0.8c-0.4-0.2-0.9-0.4-1.3-0.4c-0.7,0-1.1,0.4-1.1,0.9
	s0.4,0.8,1.2,1.1c1.1,0.4,1.7,1,1.7,1.9c0,1.1-0.9,1.9-2.4,1.9c-0.6,0-1.3-0.1-1.8-0.4L174.3,121.3z"/>
<path class="st7" d="M300,96.8h-4v3.7h4.5v1.1h-5.8V91.3h5.5v1.1H296v3.3h4V96.8z"/>
<path class="st7" d="M302,100c0.7,0.4,1.5,0.7,2.4,0.7c1.4,0,2.2-0.7,2.2-1.8s-0.6-1.5-2-2c-1.7-0.6-2.7-1.5-2.7-2.9
	c0-1.6,1.3-2.8,3.3-2.8c0.8,0,1.6,0.1,2.3,0.5l-0.4,1.1c-0.6-0.3-1.3-0.5-1.9-0.5c-1.4,0-1.9,0.8-1.9,1.5c0,1,0.6,1.4,2,2
	c1.7,0.7,2.6,1.5,2.6,3s-1.2,3-3.6,3c-0.9,0-1.8-0.2-2.6-0.7L302,100z"/>
<path class="st7" d="M311.8,91.3h1.3v6.9c0,2.7-1.3,3.6-3.1,3.6c-0.5,0-1-0.1-1.4-0.2l0.2-1.1c0.4,0.1,0.7,0.2,1.1,0.2
	c1.2,0,1.9-0.5,1.9-2.6L311.8,91.3z"/>
<path class="st7" d="M318.6,91.3h1.3v9.2h4.4v1.1h-5.7V91.3z"/>
<path class="st7" d="M327.2,92.1c-0.1,0.5-0.5,0.8-0.9,0.7c-0.4,0-0.7-0.4-0.7-0.7c0-0.5,0.4-0.8,0.8-0.8c0,0,0,0,0,0
	C326.9,91.3,327.2,91.6,327.2,92.1C327.3,92.1,327.3,92.1,327.2,92.1z M325.8,101.6v-7.4h1.3v7.4L325.8,101.6z"/>
<path class="st7" d="M329.3,90.8h1.3v10.8h-1.3V90.8z"/>
<path class="st7" d="M332.9,90.8h1.3v10.8h-1.3V90.8z"/>
<path class="st7" d="M337.3,98.1c-0.1,1.3,0.8,2.4,2.1,2.6c0.1,0,0.3,0,0.4,0c0.7,0,1.4-0.1,2-0.4l0.2,1c-0.8,0.3-1.6,0.5-2.5,0.5
	c-1.9,0.1-3.5-1.4-3.6-3.3c0-0.2,0-0.3,0-0.5c0-2.2,1.3-4,3.5-4c2.4,0,3,2.1,3,3.5c0,0.2,0,0.4,0,0.6L337.3,98.1z M341.2,97.1
	c0.1-1-0.6-2-1.7-2.1c-0.1,0-0.1,0-0.2,0c-1.1,0.1-2,1-2.1,2.2L341.2,97.1z"/>
<path class="st7" d="M302.1,113.6c-0.1-1.2-0.1-2.8-0.1-3.9l0,0c-0.3,1-0.7,2.2-1.1,3.4l-1.6,4.4h-0.9l-1.5-4.3
	c-0.4-1.3-0.8-2.4-1-3.5l0,0c0,1.1-0.1,2.6-0.2,4l-0.2,3.9h-1.1l0.6-9h1.5l1.5,4.4c0.4,1.1,0.7,2.1,0.9,3l0,0c0.2-0.9,0.5-1.9,1-3
	l1.6-4.4h1.5l0.6,9h-1.1L302.1,113.6z"/>
<path class="st7" d="M311.2,114.3c0.1,1.7-1.1,3.3-2.9,3.4c-0.1,0-0.2,0-0.3,0c-1.7,0-3.1-1.3-3.1-3c0-0.1,0-0.2,0-0.3
	c-0.1-1.7,1.1-3.3,2.9-3.4c0.1,0,0.2,0,0.3,0c1.7-0.1,3.1,1.2,3.1,2.9C311.2,114,311.2,114.2,311.2,114.3z M306.1,114.4
	c0,1.4,0.8,2.5,2,2.5s2-1.1,2-2.5c0-1.1-0.5-2.5-1.9-2.5S306.1,113.2,306.1,114.4z"/>
<path class="st7" d="M312.7,112.9c0-0.7,0-1.2,0-1.8h1l0.1,1.1l0,0c0.4-0.8,1.3-1.2,2.1-1.2c0.9,0,2.3,0.5,2.3,2.8v3.8H317v-3.7
	c0-1-0.4-1.9-1.5-1.9c-0.7,0-1.4,0.5-1.6,1.2c-0.1,0.2-0.1,0.4-0.1,0.6v3.9h-1.2L312.7,112.9z"/>
<path class="st7" d="M321.4,109.3v1.9h1.7v0.9h-1.7v3.5c0,0.8,0.2,1.3,0.9,1.3c0.2,0,0.5,0,0.7-0.1l0.1,0.9c-0.3,0.1-0.7,0.2-1,0.2
	c-0.5,0-0.9-0.2-1.3-0.5c-0.3-0.5-0.5-1.1-0.5-1.7V112h-1v-0.9h1v-1.6L321.4,109.3z"/>
<path class="st7" d="M324.4,113.2c0-0.8,0-1.5,0-2.1h1l0.1,1.1l0,0c0.5-0.8,1.4-1.3,2.3-1.2c1.6,0,2.7,1.3,2.7,3.3
	c0,2.3-1.4,3.5-2.9,3.5c-0.8,0-1.6-0.3-2-1l0,0v3.5h-1.2L324.4,113.2z M325.6,115c0,0.2,0,0.3,0,0.5c0.2,0.8,0.9,1.4,1.8,1.4
	c1.2,0,2-1,2-2.5c0-1.3-0.7-2.4-1.9-2.4c-0.9,0-1.6,0.6-1.8,1.4c0,0.2-0.1,0.3-0.1,0.5L325.6,115z"/>
<path class="st7" d="M332.7,114.6c-0.1,1.1,0.7,2.1,1.9,2.2c0.1,0,0.2,0,0.3,0c0.6,0,1.2-0.1,1.8-0.3l0.2,0.8
	c-0.7,0.3-1.4,0.4-2.1,0.4c-1.7,0.1-3.1-1.1-3.2-2.8c0-0.2,0-0.3,0-0.5c0-2,1.1-3.5,3-3.5c2.1,0,2.7,1.8,2.7,3c0,0.2,0,0.4,0,0.6
	L332.7,114.6z M336.1,113.7c0.1-0.9-0.5-1.8-1.4-1.9c-0.1,0-0.1,0-0.2,0c-1,0.1-1.8,0.9-1.8,1.9H336.1z"/>
<path class="st7" d="M338.7,108.1h1.2v9.5h-1.2V108.1z"/>
<path class="st7" d="M341.9,108.1h1.2v9.5h-1.2V108.1z"/>
<path class="st7" d="M346.3,109.3c0,0.4-0.3,0.7-0.7,0.7s-0.7-0.3-0.7-0.7c0-0.4,0.3-0.7,0.7-0.7c0,0,0,0,0,0
	C346,108.6,346.3,108.9,346.3,109.3C346.3,109.3,346.3,109.3,346.3,109.3z M345,117.6v-6.5h1.2v6.5H345z"/>
<path class="st7" d="M348.8,114.6c-0.1,1.1,0.7,2.1,1.9,2.2c0.1,0,0.2,0,0.3,0c0.6,0,1.2-0.1,1.8-0.3l0.2,0.8
	c-0.7,0.3-1.4,0.4-2.1,0.4c-1.7,0.1-3.1-1.1-3.2-2.8c0-0.2,0-0.3,0-0.5c0-2,1.1-3.5,3-3.5c2.1,0,2.7,1.8,2.7,3c0,0.2,0,0.4,0,0.6
	L348.8,114.6z M352.2,113.7c0.1-0.9-0.5-1.8-1.4-1.9c-0.1,0-0.1,0-0.2,0c-1,0.1-1.8,0.9-1.8,1.9H352.2z"/>
<path class="st7" d="M354.8,113.1c0-0.8,0-1.4-0.1-2h1l0,1.3l0,0c0.2-0.8,1-1.4,1.8-1.4c0.1,0,0.2,0,0.3,0v1.1c-0.1,0-0.3,0-0.4,0
	c-0.8,0-1.5,0.7-1.6,1.5c0,0.2,0,0.4,0,0.6v3.4h-1.2L354.8,113.1z"/>
<path class="st6" d="M538.1,130.4V76.6h76.5c4.6,0,8.3,6,8.3,13.3v40.5"/>
<path class="st7" d="M546.3,98.1l-2.3-9h1.2l1.1,4.6c0.3,1.1,0.5,2.2,0.7,3.1l0,0c0.2-0.9,0.4-2,0.7-3.1l1.2-4.5h1.2l1.1,4.6
	c0.2,1.1,0.5,2.1,0.6,3.1l0,0c0.2-1,0.4-2,0.7-3.1l1.2-4.5h1.3l-2.5,9h-1.2l-1.1-4.7c-0.3-1-0.5-1.9-0.6-2.9l0,0
	c-0.2,1-0.4,2-0.7,2.9l-1.3,4.7H546.3z"/>
<path class="st7" d="M556.3,95.1c-0.1,1.1,0.7,2.1,1.9,2.2c0.1,0,0.2,0,0.3,0c0.6,0,1.2-0.1,1.8-0.3l0.2,0.8
	c-0.7,0.3-1.4,0.4-2.2,0.4c-1.7,0.1-3.1-1.2-3.2-2.8c0-0.1,0-0.3,0-0.4c0-2,1.2-3.5,3-3.5c2.1,0,2.7,1.8,2.7,3c0,0.2,0,0.4,0,0.6
	L556.3,95.1z M559.7,94.2c0.1-0.9-0.5-1.8-1.4-1.9c-0.1,0-0.1,0-0.2,0c-1,0.1-1.8,0.9-1.8,1.9H559.7z"/>
<path class="st7" d="M562.3,98.1c0-0.4,0-1.1,0-1.7v-7.8h1.2v4l0,0c0.5-0.8,1.3-1.2,2.2-1.2c1.6,0,2.7,1.3,2.7,3.3
	c0,2.3-1.5,3.5-2.9,3.5c-0.9,0.1-1.7-0.4-2.2-1.2l0,0l-0.1,1.1L562.3,98.1z M563.5,95.5c0,0.1,0,0.3,0,0.4c0.2,0.8,0.9,1.4,1.8,1.4
	c1.2,0,2-1,2-2.5c0-1.3-0.7-2.4-1.9-2.4c-0.8,0-1.6,0.6-1.8,1.4c0,0.2-0.1,0.3-0.1,0.5L563.5,95.5z"/>
<path class="st7" d="M550.3,100.1v7.8c0,0.6,0,1.2,0,1.7h-1l-0.1-1.1l0,0c-0.4,0.8-1.3,1.3-2.2,1.3c-1.6,0-2.8-1.3-2.8-3.3
	c0-2.2,1.3-3.5,2.9-3.5c0.8,0,1.5,0.3,1.9,1l0,0v-3.8L550.3,100.1z M549.2,105.7c0-0.2,0-0.3,0-0.5c-0.2-0.8-0.9-1.4-1.7-1.3
	c-1.2,0-1.9,1.1-1.9,2.5s0.7,2.4,1.9,2.4c0.8,0,1.5-0.6,1.7-1.4c0-0.2,0.1-0.3,0.1-0.5L549.2,105.7z"/>
<path class="st7" d="M553,106.5c-0.1,1.1,0.7,2.1,1.9,2.2c0.1,0,0.2,0,0.3,0c0.6,0,1.2-0.1,1.8-0.3l0.2,0.8
	c-0.7,0.3-1.4,0.4-2.2,0.4c-1.7,0.1-3.1-1.1-3.2-2.8c0-0.2,0-0.3,0-0.5c0-2,1.2-3.5,3-3.5c2.1,0,2.7,1.8,2.7,3c0,0.2,0,0.4,0,0.6
	L553,106.5z M556.4,105.7c0.1-0.9-0.5-1.8-1.4-1.9c-0.1,0-0.1,0-0.2,0c-1,0.1-1.8,0.9-1.8,1.9H556.4z"/>
<path class="st7" d="M559.4,103.1l1.3,3.6c0.2,0.6,0.4,1.1,0.5,1.7l0,0c0.2-0.5,0.3-1.1,0.5-1.7l1.3-3.6h1.2l-2.5,6.5h-1.1l-2.5-6.5
	H559.4z"/>
<path class="st7" d="M565.9,106.5c-0.1,1.1,0.7,2.1,1.9,2.2c0.1,0,0.2,0,0.3,0c0.6,0,1.2-0.1,1.8-0.3l0.2,0.8
	c-0.7,0.3-1.4,0.4-2.2,0.4c-1.7,0.1-3.1-1.2-3.2-2.8c0-0.1,0-0.3,0-0.4c0-2,1.2-3.5,3-3.5c2.1,0,2.7,1.8,2.7,3c0,0.2,0,0.4,0,0.6
	L565.9,106.5z M569.4,105.7c0.1-0.9-0.5-1.8-1.4-1.9c-0.1,0-0.1,0-0.2,0c-1,0.1-1.8,0.9-1.8,1.9H569.4z"/>
<path class="st7" d="M572,100.1h1.2v9.5H572V100.1z"/>
<path class="st7" d="M581,106.3c0.1,1.7-1.1,3.3-2.9,3.4c-0.1,0-0.2,0-0.3,0c-1.7,0-3.1-1.3-3.1-3c0-0.1,0-0.2,0-0.3
	c-0.1-1.7,1.1-3.3,2.9-3.4c0.1,0,0.2,0,0.3,0c1.7,0,3.1,1.3,3.1,3C581,106.1,581,106.2,581,106.3z M575.9,106.3c0,1.4,0.8,2.5,2,2.5
	s2-1,2-2.5c0-1.1-0.5-2.5-1.9-2.5S575.8,105.1,575.9,106.3L575.9,106.3z"/>
<path class="st7" d="M582.4,105.2c0-0.8,0-1.5,0-2.1h1l0.1,1.1l0,0c0.5-0.8,1.4-1.3,2.3-1.2c1.6,0,2.7,1.3,2.7,3.3
	c0,2.3-1.4,3.5-2.9,3.5c-0.8,0-1.6-0.3-2-1l0,0v3.5h-1.2L582.4,105.2z M583.6,106.9c0,0.2,0,0.3,0,0.5c0.2,0.8,0.9,1.4,1.8,1.4
	c1.2,0,2-1,2-2.5c0-1.3-0.7-2.4-1.9-2.4c-0.9,0-1.6,0.6-1.8,1.4c0,0.2-0.1,0.3-0.1,0.5L583.6,106.9z"/>
<path class="st7" d="M590.7,106.5c-0.1,1.1,0.7,2.1,1.9,2.2c0.1,0,0.2,0,0.3,0c0.6,0,1.2-0.1,1.8-0.3l0.2,0.8
	c-0.7,0.3-1.4,0.4-2.2,0.4c-1.7,0.1-3.1-1.1-3.2-2.8c0-0.2,0-0.3,0-0.5c0-2,1.2-3.5,3-3.5c2.1,0,2.7,1.8,2.7,3c0,0.2,0,0.4,0,0.6
	L590.7,106.5z M594.1,105.7c0.1-0.9-0.5-1.8-1.4-1.9c-0.1,0-0.1,0-0.2,0c-1,0.1-1.8,0.9-1.8,1.9H594.1z"/>
<path class="st7" d="M596.7,105.1c0-0.8,0-1.4,0-2h1v1.3l0,0c0.2-0.8,1-1.4,1.8-1.4c0.1,0,0.2,0,0.3,0v1.1c-0.9-0.2-1.8,0.4-2,1.3
	c0,0.1,0,0.1,0,0.2c0,0.2,0,0.4,0,0.6v3.4h-1.2L596.7,105.1z"/>
<path class="st7" d="M550.3,111.5v7.8c0,0.6,0,1.2,0,1.7h-1l-0.1-1.1l0,0c-0.4,0.8-1.3,1.3-2.2,1.3c-1.6,0-2.8-1.3-2.8-3.3
	c0-2.2,1.3-3.5,2.9-3.5c0.8,0,1.5,0.3,1.9,1l0,0v-3.8L550.3,111.5z M549.2,117.2c0-0.2,0-0.3,0-0.5c-0.2-0.8-0.9-1.4-1.7-1.4
	c-1.2,0-1.9,1.1-1.9,2.5s0.7,2.4,1.9,2.4c0.8,0,1.5-0.6,1.7-1.4c0-0.2,0.1-0.3,0.1-0.5L549.2,117.2z"/>
<path class="st7" d="M553,118c-0.1,1.1,0.7,2.1,1.9,2.2c0.1,0,0.2,0,0.3,0c0.6,0,1.2-0.1,1.8-0.3l0.2,0.8c-0.7,0.3-1.4,0.4-2.2,0.4
	c-1.7,0.1-3.1-1.1-3.2-2.8c0-0.2,0-0.3,0-0.5c0-2,1.2-3.5,3-3.5c2.1,0,2.7,1.8,2.7,3c0,0.2,0,0.4,0,0.6L553,118z M556.4,117.1
	c0.1-0.9-0.5-1.8-1.4-1.9c-0.1,0-0.1,0-0.2,0c-1,0.1-1.8,0.9-1.8,1.9H556.4z"/>
<path class="st7" d="M564.6,114.5c0,0.5,0,1,0,1.8v3.8c0.1,1.1-0.2,2.2-0.9,3c-0.7,0.5-1.5,0.8-2.4,0.8c-0.8,0-1.5-0.2-2.2-0.5
	l0.3-0.9c0.6,0.3,1.2,0.5,1.9,0.5c1.2,0,2.1-0.6,2.1-2.3v-0.7l0,0c-0.4,0.7-1.2,1.1-2.1,1.1c-1.6-0.1-2.8-1.4-2.8-3c0,0,0-0.1,0-0.1
	c0-2.2,1.4-3.4,2.9-3.4c0.8,0,1.6,0.4,2,1.1l0,0v-1L564.6,114.5z M563.3,117.1c0-0.2,0-0.4-0.1-0.5c-0.2-0.7-0.9-1.3-1.7-1.2
	c-1.1,0-1.9,1-1.9,2.4c0,1.3,0.7,2.3,1.9,2.3c0.8,0,1.4-0.5,1.6-1.2c0.1-0.2,0.1-0.4,0.1-0.6V117.1z"/>
<path class="st7" d="M566.4,116.5c0-0.8,0-1.4,0-2h1v1.3l0,0c0.2-0.8,1-1.4,1.8-1.4c0.1,0,0.2,0,0.3,0v1.1c-0.9-0.2-1.8,0.4-2,1.3
	c0,0.1,0,0.1,0,0.2c0,0.2,0,0.4,0,0.6v3.5h-1.2L566.4,116.5z"/>
<path class="st7" d="M571.3,118c-0.1,1.1,0.7,2.1,1.9,2.2c0.1,0,0.2,0,0.3,0c0.6,0,1.2-0.1,1.8-0.3l0.2,0.8
	c-0.7,0.3-1.4,0.4-2.2,0.4c-1.7,0.1-3.1-1.1-3.2-2.8c0-0.2,0-0.3,0-0.5c0-2,1.2-3.5,3-3.5c2.1,0,2.7,1.8,2.7,3c0,0.2,0,0.4,0,0.6
	L571.3,118z M574.7,117.1c0.1-0.9-0.5-1.8-1.4-1.9c-0.1,0-0.1,0-0.2,0c-1,0.1-1.8,0.9-1.8,1.9H574.7z"/>
<path class="st7" d="M578,118c-0.1,1.1,0.7,2.1,1.9,2.2c0.1,0,0.2,0,0.3,0c0.6,0,1.2-0.1,1.8-0.3l0.2,0.8c-0.7,0.3-1.4,0.4-2.2,0.4
	c-1.7,0.1-3.1-1.1-3.2-2.8c0-0.2,0-0.3,0-0.5c0-2,1.2-3.5,3-3.5c2.1,0,2.7,1.8,2.7,3c0,0.2,0,0.4,0,0.6L578,118z M581.4,117.1
	c0.1-0.9-0.5-1.8-1.4-1.9c-0.1,0-0.1,0-0.2,0c-1,0.1-1.8,0.9-1.8,1.9H581.4z"/>
<line class="st4" x1="962.5" y1="131.4" x2="962.5" y2="17.1"/>
<path class="st2" d="M994.3,209.3h-37.2l0,0V132l0,0h53.9l0,0v71.7C1011,206.8,1003.5,209.3,994.3,209.3L994.3,209.3z"/>
<line class="st3" x1="998.8" y1="303.1" x2="998.8" y2="208.6"/>
<line class="st3" x1="1016.6" y1="303.5" x2="897.9" y2="303"/>
<g>
	<path class="st2" d="M899.1,308.9h5.8v1.2h-4.4v3.6h4.1v1.2h-4.1v4.9h-1.4V308.9z"/>
	<path class="st2" d="M906.9,309c0.7-0.1,1.7-0.2,2.7-0.2c1.5,0,2.5,0.3,3.1,0.9c0.5,0.5,0.8,1.2,0.8,2.1c0,1.4-0.9,2.4-2,2.7v0
		c0.8,0.3,1.3,1.1,1.6,2.2c0.4,1.5,0.6,2.5,0.8,3h-1.4c-0.2-0.3-0.4-1.2-0.7-2.6c-0.3-1.5-0.9-2-2.2-2.1h-1.3v4.7h-1.4V309z
		 M908.3,314h1.4c1.5,0,2.4-0.8,2.4-2c0-1.4-1-2-2.5-2c-0.7,0-1.1,0.1-1.4,0.1V314z"/>
	<path class="st2" d="M921.1,314.6h-4.2v3.9h4.7v1.2h-6.1v-10.8h5.8v1.2h-4.4v3.4h4.2V314.6z"/>
	<path class="st2" d="M929,314.6h-4.2v3.9h4.7v1.2h-6.1v-10.8h5.8v1.2h-4.4v3.4h4.2V314.6z"/>
	<path class="st2" d="M931.3,308.9h1.4v9.6h4.6v1.2h-6V308.9z"/>
	<path class="st2" d="M940.6,316.3l-1.1,3.4h-1.4l3.7-10.8h1.7l3.7,10.8h-1.5l-1.2-3.4H940.6z M944.2,315.2l-1.1-3.1
		c-0.2-0.7-0.4-1.3-0.6-2h0c-0.2,0.6-0.3,1.3-0.5,1.9l-1.1,3.1H944.2z"/>
	<path class="st2" d="M948.7,319.7v-10.8h1.5l3.5,5.5c0.8,1.3,1.4,2.4,1.9,3.5l0,0c-0.1-1.4-0.2-2.8-0.2-4.4v-4.5h1.3v10.8h-1.4
		l-3.4-5.5c-0.7-1.2-1.5-2.4-2-3.6l0,0c0.1,1.4,0.1,2.7,0.1,4.5v4.6H948.7z"/>
	<path class="st2" d="M966.7,319.3c-0.5,0.3-1.5,0.5-2.9,0.5c-3,0-5.3-1.9-5.3-5.5c0-3.4,2.3-5.7,5.6-5.7c1.3,0,2.2,0.3,2.6,0.5
		l-0.3,1.1c-0.5-0.2-1.3-0.4-2.2-0.4c-2.5,0-4.2,1.6-4.2,4.5c0,2.6,1.5,4.3,4.1,4.3c0.9,0,1.7-0.2,2.3-0.4L966.7,319.3z"/>
	<path class="st2" d="M974,314.6h-4.2v3.9h4.7v1.2h-6.1v-10.8h5.8v1.2h-4.4v3.4h4.2V314.6z"/>
	<path class="st2" d="M905.8,327.5v9.4c0,0.7,0,1.5,0.1,2h-1.3l-0.1-1.3h0c-0.4,0.9-1.4,1.5-2.6,1.5c-1.9,0-3.3-1.6-3.3-3.9
		c0-2.6,1.6-4.2,3.5-4.2c1.2,0,2,0.6,2.3,1.2h0v-4.6H905.8z M904.4,334.3c0-0.2,0-0.4-0.1-0.6c-0.2-0.9-1-1.6-2-1.6
		c-1.5,0-2.3,1.3-2.3,3c0,1.6,0.8,2.9,2.3,2.9c0.9,0,1.8-0.6,2.1-1.7c0-0.2,0.1-0.4,0.1-0.6V334.3z"/>
	<path class="st2" d="M912.4,338.9l-0.1-1h0c-0.4,0.6-1.3,1.2-2.4,1.2c-1.6,0-2.4-1.1-2.4-2.2c0-1.9,1.7-2.9,4.7-2.9v-0.2
		c0-0.6-0.2-1.8-1.8-1.8c-0.7,0-1.5,0.2-2,0.6l-0.3-0.9c0.6-0.4,1.6-0.7,2.6-0.7c2.4,0,2.9,1.6,2.9,3.2v2.9c0,0.7,0,1.3,0.1,1.9
		H912.4z M912.2,334.9c-1.5,0-3.3,0.2-3.3,1.7c0,0.9,0.6,1.3,1.3,1.3c1,0,1.7-0.6,1.9-1.3c0-0.1,0.1-0.3,0.1-0.4V334.9z"/>
	<path class="st2" d="M917.5,328.9v2.2h2v1.1h-2v4.2c0,1,0.3,1.5,1.1,1.5c0.4,0,0.6,0,0.8-0.1l0.1,1.1c-0.3,0.1-0.7,0.2-1.3,0.2
		c-0.6,0-1.2-0.2-1.5-0.6c-0.4-0.4-0.5-1.1-0.5-2v-4.2h-1.2v-1.1h1.2v-1.9L917.5,328.9z"/>
	<path class="st2" d="M925.4,338.9l-0.1-1h0c-0.4,0.6-1.3,1.2-2.4,1.2c-1.6,0-2.4-1.1-2.4-2.2c0-1.9,1.7-2.9,4.7-2.9v-0.2
		c0-0.6-0.2-1.8-1.8-1.8c-0.7,0-1.5,0.2-2,0.6l-0.3-0.9c0.6-0.4,1.6-0.7,2.6-0.7c2.4,0,2.9,1.6,2.9,3.2v2.9c0,0.7,0,1.3,0.1,1.9
		H925.4z M925.1,334.9c-1.5,0-3.3,0.2-3.3,1.7c0,0.9,0.6,1.3,1.3,1.3c1,0,1.7-0.6,1.9-1.3c0-0.1,0.1-0.3,0.1-0.4V334.9z"/>
	<path class="st2" d="M926.9,341.1c0.7,0,1.2-0.2,1.5-0.6c0.4-0.4,0.5-1,0.5-2.9v-6.5h1.4v7c0,1.5-0.2,2.5-0.9,3.2
		c-0.6,0.6-1.6,0.9-2.4,0.9L926.9,341.1z M930.5,329c0,0.5-0.3,0.9-0.9,0.9c-0.5,0-0.9-0.4-0.9-0.9c0-0.5,0.4-0.9,0.9-0.9
		C930.2,328.1,930.5,328.5,930.5,329z"/>
	<path class="st2" d="M939.7,334.9c0,2.9-2,4.1-3.8,4.1c-2.1,0-3.7-1.5-3.7-4c0-2.6,1.7-4.1,3.8-4.1
		C938.2,331,939.7,332.6,939.7,334.9z M933.5,335c0,1.7,1,3,2.3,3c1.3,0,2.4-1.3,2.4-3c0-1.3-0.7-3-2.3-3
		C934.2,332,933.5,333.6,933.5,335z"/>
	<path class="st2" d="M947.9,336.8c0,0.8,0,1.5,0.1,2.1h-1.2l-0.1-1.3h0c-0.4,0.6-1.2,1.4-2.6,1.4c-1.2,0-2.7-0.7-2.7-3.4v-4.5h1.4
		v4.3c0,1.5,0.5,2.5,1.7,2.5c0.9,0,1.6-0.7,1.9-1.3c0.1-0.2,0.1-0.5,0.1-0.7v-4.7h1.4V336.8z"/>
	<path class="st2" d="M950.3,333.6c0-0.9,0-1.7-0.1-2.4h1.2l0.1,1.5h0.1c0.4-1,1.2-1.7,2.2-1.7c0.2,0,0.3,0,0.4,0v1.3
		c-0.1,0-0.3,0-0.5,0c-1,0-1.7,0.7-1.9,1.8c0,0.2-0.1,0.4-0.1,0.7v4.1h-1.4V333.6z"/>
	<path class="st2" d="M955.6,333.2c0-0.8,0-1.4-0.1-2.1h1.2l0.1,1.3h0c0.4-0.7,1.3-1.4,2.6-1.4c1.1,0,2.7,0.6,2.7,3.3v4.6h-1.4v-4.5
		c0-1.3-0.5-2.3-1.8-2.3c-0.9,0-1.6,0.7-1.9,1.4c-0.1,0.2-0.1,0.4-0.1,0.7v4.7h-1.4V333.2z"/>
	<path class="st2" d="M968.7,338.9l-0.1-1h0c-0.4,0.6-1.3,1.2-2.4,1.2c-1.6,0-2.4-1.1-2.4-2.2c0-1.9,1.7-2.9,4.7-2.9v-0.2
		c0-0.6-0.2-1.8-1.8-1.8c-0.7,0-1.5,0.2-2,0.6l-0.3-0.9c0.6-0.4,1.6-0.7,2.6-0.7c2.4,0,2.9,1.6,2.9,3.2v2.9c0,0.7,0,1.3,0.1,1.9
		H968.7z M968.5,334.9c-1.5,0-3.3,0.2-3.3,1.7c0,0.9,0.6,1.3,1.3,1.3c1,0,1.7-0.6,1.9-1.3c0-0.1,0.1-0.3,0.1-0.4V334.9z"/>
	<path class="st2" d="M972.1,327.5h1.4v11.4h-1.4V327.5z"/>
	<path class="st2" d="M977.5,329c0,0.5-0.3,0.9-0.9,0.9c-0.5,0-0.9-0.4-0.9-0.9c0-0.5,0.4-0.9,0.9-0.9
		C977.2,328.1,977.5,328.5,977.5,329z M975.9,338.9v-7.7h1.4v7.7H975.9z"/>
	<path class="st2" d="M979.5,337.4c0.4,0.3,1.2,0.6,1.9,0.6c1,0,1.5-0.5,1.5-1.2c0-0.7-0.4-1-1.4-1.4c-1.4-0.5-2.1-1.3-2.1-2.2
		c0-1.2,1-2.3,2.7-2.3c0.8,0,1.5,0.2,1.9,0.5l-0.3,1c-0.3-0.2-0.9-0.5-1.6-0.5c-0.8,0-1.3,0.5-1.3,1.1c0,0.6,0.5,0.9,1.5,1.3
		c1.3,0.5,2,1.2,2,2.3c0,1.4-1.1,2.3-2.9,2.3c-0.8,0-1.6-0.2-2.2-0.5L979.5,337.4z"/>
	<path class="st2" d="M987.7,328.9v2.2h2v1.1h-2v4.2c0,1,0.3,1.5,1.1,1.5c0.4,0,0.6,0,0.8-0.1l0.1,1.1c-0.3,0.1-0.7,0.2-1.3,0.2
		c-0.6,0-1.2-0.2-1.5-0.6c-0.4-0.4-0.5-1.1-0.5-2v-4.2h-1.2v-1.1h1.2v-1.9L987.7,328.9z"/>
	<path class="st2" d="M905.8,346.7v9.4c0,0.7,0,1.5,0.1,2h-1.3l-0.1-1.3h0c-0.4,0.9-1.4,1.5-2.6,1.5c-1.9,0-3.3-1.6-3.3-3.9
		c0-2.6,1.6-4.2,3.5-4.2c1.2,0,2,0.6,2.3,1.2h0v-4.6H905.8z M904.4,353.5c0-0.2,0-0.4-0.1-0.6c-0.2-0.9-1-1.6-2-1.6
		c-1.5,0-2.3,1.3-2.3,3c0,1.6,0.8,2.9,2.3,2.9c0.9,0,1.8-0.6,2.1-1.7c0-0.2,0.1-0.4,0.1-0.6V353.5z"/>
	<path class="st2" d="M908.9,354.5c0,1.9,1.2,2.7,2.6,2.7c1,0,1.6-0.2,2.1-0.4l0.2,1c-0.5,0.2-1.4,0.5-2.6,0.5
		c-2.4,0-3.8-1.6-3.8-3.9c0-2.3,1.4-4.2,3.6-4.2c2.5,0,3.2,2.2,3.2,3.6c0,0.3,0,0.5,0,0.7H908.9z M913,353.5c0-0.9-0.4-2.3-1.9-2.3
		c-1.4,0-2,1.3-2.2,2.3H913z"/>
	<path class="st2" d="M916.7,350.3l1.5,4.3c0.3,0.7,0.5,1.4,0.6,2h0c0.2-0.6,0.4-1.3,0.6-2l1.5-4.3h1.5l-3,7.7h-1.3l-2.9-7.7H916.7z
		"/>
	<path class="st2" d="M924.5,354.5c0,1.9,1.2,2.7,2.6,2.7c1,0,1.6-0.2,2.1-0.4l0.2,1c-0.5,0.2-1.4,0.5-2.6,0.5
		c-2.4,0-3.8-1.6-3.8-3.9c0-2.3,1.4-4.2,3.6-4.2c2.5,0,3.2,2.2,3.2,3.6c0,0.3,0,0.5,0,0.7H924.5z M928.6,353.5
		c0-0.9-0.4-2.3-1.9-2.3c-1.4,0-2,1.3-2.2,2.3H928.6z"/>
	<path class="st2" d="M931.7,346.7h1.4v11.4h-1.4V346.7z"/>
	<path class="st2" d="M942.5,354.1c0,2.9-2,4.1-3.8,4.1c-2.1,0-3.7-1.5-3.7-4c0-2.6,1.7-4.1,3.8-4.1
		C941,350.2,942.5,351.8,942.5,354.1z M936.3,354.2c0,1.7,1,3,2.3,3c1.3,0,2.4-1.3,2.4-3c0-1.3-0.7-3-2.3-3
		C937,351.2,936.3,352.8,936.3,354.2z"/>
	<path class="st2" d="M944.2,352.9c0-1,0-1.8-0.1-2.5h1.3l0.1,1.3h0c0.6-0.9,1.5-1.5,2.7-1.5c1.9,0,3.3,1.6,3.3,3.9
		c0,2.8-1.7,4.2-3.5,4.2c-1,0-1.9-0.5-2.4-1.2h0v4.2h-1.4V352.9z M945.6,354.9c0,0.2,0,0.4,0.1,0.6c0.3,1,1.1,1.7,2.1,1.7
		c1.5,0,2.4-1.2,2.4-3c0-1.5-0.8-2.9-2.3-2.9c-1,0-1.9,0.7-2.1,1.7c0,0.2-0.1,0.4-0.1,0.6V354.9z"/>
	<path class="st2" d="M954.2,354.5c0,1.9,1.2,2.7,2.6,2.7c1,0,1.6-0.2,2.1-0.4l0.2,1c-0.5,0.2-1.4,0.5-2.6,0.5
		c-2.4,0-3.8-1.6-3.8-3.9c0-2.3,1.4-4.2,3.6-4.2c2.5,0,3.2,2.2,3.2,3.6c0,0.3,0,0.5,0,0.7H954.2z M958.3,353.5
		c0-0.9-0.4-2.3-1.9-2.3c-1.4,0-2,1.3-2.2,2.3H958.3z"/>
	<path class="st2" d="M961.4,352.8c0-0.9,0-1.7-0.1-2.4h1.2l0.1,1.5h0c0.4-1,1.2-1.7,2.2-1.7c0.2,0,0.3,0,0.4,0v1.3
		c-0.1,0-0.3,0-0.5,0c-1,0-1.7,0.7-1.9,1.8c0,0.2-0.1,0.4-0.1,0.7v4.1h-1.4V352.8z"/>
</g>
<line class="st3" x1="700.9" y1="307.1" x2="582.2" y2="306.6"/>
</svg>
