<?xml version="1.0" encoding="utf-8"?>
<!-- Generator: Adobe Illustrator 23.1.0, SVG Export Plug-In . SVG Version: 6.00 Build 0)  -->
<svg version="1.1" id="Calque_1" xmlns="http://www.w3.org/2000/svg" xmlns:xlink="http://www.w3.org/1999/xlink" x="0px" y="0px"
	 viewBox="0 0 337.5 881.3" style="enable-background:new 0 0 337.5 881.3;" xml:space="preserve">
<style type="text/css">
	.st0{fill:none;stroke:#488AA4;stroke-miterlimit:10;}
	.st1{fill:none;stroke:#EC6E6B;stroke-miterlimit:10;}
	.st2{fill:#488AA4;}
	.st3{opacity:0.35;fill:none;stroke:#325982;stroke-miterlimit:10;enable-background:new    ;}
	.st4{opacity:0.2;fill:none;stroke:#4789A4;stroke-miterlimit:10;enable-background:new    ;}
	.st5{fill:#4789A4;}
	.st6{fill:none;stroke:#E85522;stroke-miterlimit:10;}
	.st7{fill:#E85522;}
</style>
<title>timeline-mobile</title>
<circle class="st0" cx="209.1" cy="26.9" r="26.4"/>
<circle class="st1" cx="209.1" cy="26.9" r="12.4"/>
<path class="st2" d="M43.2,105.5H48v1h-3.6v3h3.4v0.9h-3.4v4h-1.2V105.5z"/>
<path class="st2" d="M49.7,105.6c0.7-0.1,1.5-0.2,2.2-0.2c0.9-0.1,1.8,0.2,2.6,0.7c0.5,0.4,0.7,1.1,0.7,1.7c0,1-0.7,2-1.7,2.3l0,0
	c0.7,0.3,1.2,1,1.3,1.8c0.2,0.8,0.4,1.7,0.7,2.4h-1.2c-0.3-0.7-0.5-1.4-0.6-2.1c-0.3-1.2-0.8-1.7-1.8-1.7h-1.1v3.9h-1.2V105.6z
	 M50.8,109.6H52c1.2,0,2-0.7,2-1.7s-0.8-1.7-2-1.7c-0.4,0-0.8,0-1.1,0.1L50.8,109.6z"/>
<path class="st2" d="M58.3,111.6l-0.9,2.8h-1.2l3-8.9h1.4l3,8.9h-1.2l-1-2.8H58.3z M61.2,110.7l-0.9-2.6c-0.2-0.6-0.3-1.1-0.5-1.6
	l0,0c-0.1,0.5-0.3,1.1-0.4,1.6l-0.9,2.6L61.2,110.7z"/>
<path class="st2" d="M64.9,114.4v-8.9h1.3L69,110c0.6,0.9,1.1,1.9,1.6,2.9l0,0c-0.1-1.2-0.1-2.3-0.1-3.7v-3.7h1.1v8.9h-1.1l-2.8-4.5
	c-0.6-1-1.2-2-1.7-3l0,0c0.1,1.1,0.1,2.2,0.1,3.7v3.8H64.9z"/>
<path class="st2" d="M79.8,114.1c-0.7,0.3-1.6,0.5-2.4,0.4c-2.3,0.1-4.3-1.6-4.4-3.9c0-0.2,0-0.4,0-0.6c-0.1-2.4,1.7-4.5,4.2-4.7
	c0.2,0,0.3,0,0.5,0c0.7,0,1.5,0.1,2.1,0.4l-0.3,0.9c-0.6-0.2-1.2-0.4-1.8-0.4c-2.1,0-3.5,1.3-3.5,3.7c-0.2,1.8,1.1,3.4,2.8,3.6
	c0.2,0,0.4,0,0.6,0c0.6,0,1.3-0.1,1.9-0.4L79.8,114.1z"/>
<path class="st2" d="M85.9,110.2h-3.4v3.2h3.9v1h-5v-8.9h4.8v1h-3.7v2.8h3.4V110.2z"/>
<path class="st2" d="M87.8,105.6c0.7-0.1,1.4-0.2,2.1-0.2c0.9-0.1,1.7,0.1,2.4,0.7c0.5,0.4,0.8,1,0.8,1.6c0,0.9-0.6,1.7-1.5,2l0,0
	c1.1,0.2,1.8,1.1,1.8,2.2c0,0.7-0.3,1.3-0.8,1.8c-0.9,0.7-2,1-3.1,0.8c-0.6,0-1.2,0-1.8-0.1L87.8,105.6z M88.9,109.2H90
	c1.2,0,1.9-0.6,1.9-1.5c0-1-0.8-1.4-2-1.4c-0.3,0-0.7,0-1,0.1V109.2z M88.9,113.5c0.3,0.1,0.7,0.1,1,0.1c1.2,0,2.3-0.4,2.3-1.7
	s-1-1.7-2.3-1.7h-1L88.9,113.5z"/>
<path class="st2" d="M94.9,105.5h1.2v7.9h3.8v1h-5L94.9,105.5z"/>
<path class="st2" d="M105.8,110.2h-3.4v3.2h3.9v1h-5v-8.9h4.8v1h-3.7v2.8h3.4L105.8,110.2z"/>
<path class="st2" d="M108.8,105.5v5.3c0,2,0.9,2.8,2.1,2.8s2.2-0.9,2.2-2.8v-5.3h1.2v5.2c0,2.7-1.4,3.8-3.4,3.8s-3.2-1-3.2-3.8v-5.2
	L108.8,105.5z"/>
<path class="st2" d="M42.9,121.4c0.7-0.1,1.4-0.2,2.1-0.2c0.9-0.1,1.7,0.1,2.4,0.6c0.5,0.4,0.8,1,0.8,1.6c0,0.9-0.6,1.7-1.5,2l0,0
	c1.1,0.2,1.8,1.1,1.8,2.2c0,0.7-0.3,1.3-0.8,1.8c-0.9,0.7-2,1-3.1,0.8c-0.6,0-1.2,0-1.8-0.1V121.4z M44.1,125.1h1
	c1.2,0,1.9-0.6,1.9-1.5c0-1-0.8-1.4-2-1.4c-0.3,0-0.7,0-1,0.1L44.1,125.1z M44.1,129.4c0.3,0,0.7,0,1,0c1.2,0,2.3-0.4,2.3-1.7
	c0-1.3-1.1-1.6-2.3-1.6h-1L44.1,129.4z"/>
<path class="st2" d="M57.7,125.7c0,3.1-1.9,4.7-4.1,4.7s-4-1.8-4-4.5c0-2.7,1.8-4.7,4.1-4.7S57.7,123,57.7,125.7z M50.8,125.8
	c0,1.9,1,3.6,2.8,3.6s2.9-1.7,2.9-3.7c0-1.8-0.9-3.6-2.8-3.6S50.8,123.9,50.8,125.8z"/>
<path class="st2" d="M60.3,121.3v5.3c0,2,0.9,2.8,2.1,2.8s2.2-0.9,2.2-2.8v-5.3h1.2v5.2c0,2.7-1.4,3.9-3.4,3.9s-3.2-1-3.2-3.8v-5.2
	L60.3,121.3z"/>
<path class="st2" d="M67.7,121.4c0.7-0.1,1.5-0.2,2.2-0.2c0.9-0.1,1.8,0.2,2.6,0.7c0.5,0.4,0.7,1.1,0.7,1.7c0,1.1-0.7,2-1.7,2.3l0,0
	c0.7,0.3,1.2,1,1.3,1.8c0.2,0.8,0.4,1.6,0.7,2.4h-1.2c-0.3-0.7-0.5-1.4-0.6-2.1c-0.3-1.2-0.7-1.7-1.8-1.7h-1.1v3.9h-1.2V121.4z
	 M68.9,125.4H70c1.2,0,2-0.7,2-1.7s-0.8-1.7-2-1.7c-0.4,0-0.8,0-1.1,0.1V125.4z"/>
<path class="st2" d="M81.6,129.8c-0.9,0.3-1.8,0.5-2.7,0.5c-2.3,0.2-4.3-1.4-4.6-3.7c0-0.2,0-0.5,0-0.7c-0.1-2.5,1.8-4.5,4.3-4.6
	c0.2,0,0.4,0,0.5,0c0.8,0,1.5,0.1,2.2,0.4l-0.3,0.9c-0.6-0.3-1.3-0.4-2-0.4c-1.8-0.1-3.4,1.2-3.6,3.1c0,0.2,0,0.3,0,0.5
	c-0.2,1.8,1.1,3.4,2.9,3.6c0.2,0,0.4,0,0.6,0c0.5,0,1-0.1,1.5-0.2v-2.7h-1.8v-0.9h2.9L81.6,129.8z"/>
<path class="st2" d="M91,125.7c0,3.1-1.9,4.7-4.1,4.7s-4-1.8-4-4.5c0-2.7,1.8-4.7,4.1-4.7S91,123,91,125.7z M84.1,125.8
	c0,1.9,1,3.6,2.8,3.6s2.8-1.7,2.8-3.7c0-1.8-0.9-3.6-2.8-3.6S84.1,123.9,84.1,125.8L84.1,125.8z"/>
<path class="st2" d="M99.3,129.8c-0.9,0.3-1.8,0.5-2.7,0.5c-2.3,0.2-4.3-1.5-4.5-3.8c0-0.2,0-0.5,0-0.7c-0.1-2.5,1.8-4.5,4.3-4.6
	c0.2,0,0.3,0,0.5,0c0.8,0,1.5,0.1,2.2,0.4l-0.3,0.9c-0.6-0.3-1.3-0.4-2-0.4c-1.8-0.1-3.4,1.2-3.6,3.1c0,0.2,0,0.3,0,0.5
	c-0.2,1.8,1.1,3.4,2.9,3.6c0.2,0,0.3,0,0.5,0c0.5,0,1-0.1,1.5-0.2v-2.7h-1.8v-0.9h2.9V129.8z"/>
<path class="st2" d="M101,130.2v-8.9h1.3l2.8,4.5c0.6,0.9,1.1,1.9,1.6,2.9l0,0c-0.1-1.2-0.1-2.3-0.1-3.7v-3.7h1.1v8.9h-1.2l-2.8-4.5
	c-0.6-1-1.2-2-1.7-3l0,0c0.1,1.1,0.1,2.2,0.1,3.7v3.8L101,130.2z"/>
<path class="st2" d="M114.3,126.1h-3.4v3.2h3.9v1h-5v-8.9h4.8v1h-3.7v2.8h3.4L114.3,126.1z"/>
<path class="st2" d="M56.5,147.9c0.5,0,0.9-0.2,1.3-0.5c0.3-0.4,0.4-0.9,0.4-2.4v-5.4h1.2v5.8c0.1,0.9-0.2,1.9-0.8,2.6
	c-0.6,0.5-1.3,0.7-2,0.7L56.5,147.9z M59.5,137.9c0,0.4-0.3,0.7-0.7,0.7c0,0,0,0-0.1,0c-0.4,0-0.7-0.3-0.7-0.7c0,0,0,0,0,0
	c0-0.4,0.3-0.7,0.7-0.7c0,0,0,0,0,0C59.1,137.2,59.4,137.5,59.5,137.9C59.5,137.9,59.5,137.9,59.5,137.9L59.5,137.9z"/>
<path class="st2" d="M67,142.8c0.1,1.7-1.1,3.2-2.8,3.4c-0.1,0-0.2,0-0.3,0c-1.7,0-3-1.3-3.1-2.9c0-0.1,0-0.3,0-0.4
	c-0.1-1.7,1.1-3.2,2.8-3.4c0.1,0,0.2,0,0.3,0c1.7-0.1,3,1.2,3.1,2.9C67,142.6,67,142.7,67,142.8z M61.9,142.9c0,1.4,0.8,2.5,1.9,2.5
	c1.1,0,2-1,2-2.5c0-1.1-0.6-2.4-1.9-2.4S61.9,141.7,61.9,142.9L61.9,142.9z"/>
<path class="st2" d="M73.8,144.3c0,0.7,0,1.2,0.1,1.7h-1l-0.1-1l0,0c-0.4,0.8-1.2,1.2-2.1,1.2c-1,0-2.2-0.6-2.2-2.8v-3.7h1.2v3.5
	c0,1.2,0.4,2.1,1.4,2.1c0.7,0,1.3-0.4,1.5-1.1c0.1-0.2,0.1-0.4,0.1-0.6v-3.9h1.2L73.8,144.3z"/>
<path class="st2" d="M75.8,141.7c0-0.8,0-1.4-0.1-2h1v1.3l0,0c0.2-0.8,0.9-1.4,1.8-1.4c0.1,0,0.2,0,0.3,0v1.1c-0.1,0-0.3,0-0.4,0
	c-0.8,0.1-1.4,0.7-1.4,1.5c0,0.2,0,0.4,0,0.5v3.4h-1.2V141.7z"/>
<path class="st2" d="M80.1,141.4c0-0.7,0-1.2,0-1.7h1l0.1,1.1l0,0c0.4-0.8,1.2-1.2,2.1-1.2c0.9,0,2.2,0.5,2.2,2.7v3.8h-1.1v-3.7
	c0-1-0.4-1.9-1.5-1.9c-0.7,0-1.4,0.5-1.6,1.2c-0.1,0.2-0.1,0.4-0.1,0.5v3.9h-1.2V141.4z"/>
<path class="st2" d="M91,146.1l-0.1-0.8l0,0c-0.5,0.6-1.2,1-2,0.9c-1,0.1-1.9-0.6-2-1.7c0-0.1,0-0.1,0-0.2c0-1.6,1.4-2.4,3.8-2.4
	v-0.1c0.1-0.7-0.4-1.4-1.1-1.5c-0.1,0-0.2,0-0.3,0c-0.6,0-1.2,0.2-1.7,0.5l-0.3-0.8c0.6-0.4,1.4-0.6,2.1-0.6c2,0,2.4,1.3,2.4,2.6
	v2.4c0,0.5,0,1,0.1,1.5L91,146.1z M90.8,142.8c-1.3,0-2.7,0.2-2.7,1.4c-0.1,0.5,0.3,1,0.9,1.1c0.1,0,0.1,0,0.2,0
	c0.7,0,1.3-0.4,1.6-1.1c0-0.1,0.1-0.2,0.1-0.4V142.8z"/>
<path class="st2" d="M93.8,136.7H95v9.4h-1.2V136.7z"/>
<path class="st2" d="M98.2,137.9c0,0.4-0.3,0.7-0.7,0.7c0,0,0,0-0.1,0c-0.4,0-0.7-0.3-0.7-0.7c0,0,0,0,0,0c0-0.4,0.3-0.7,0.7-0.7
	S98.3,137.5,98.2,137.9z M97,146.1v-6.4h1.2v6.4H97z"/>
<path class="st2" d="M99.9,144.9c0.5,0.3,1,0.4,1.5,0.5c0.8,0,1.2-0.4,1.2-1s-0.3-0.9-1.2-1.2c-1.2-0.4-1.7-1-1.7-1.8
	c0.1-1.1,1-1.9,2.1-1.9c0,0,0.1,0,0.1,0c0.5,0,1.1,0.1,1.6,0.4l-0.3,0.9c-0.4-0.2-0.8-0.4-1.3-0.4c-0.7,0-1.1,0.4-1.1,0.9
	s0.4,0.8,1.2,1.1c1.1,0.4,1.7,1,1.7,1.9c0,1.1-0.9,1.9-2.4,1.9c-0.6,0-1.2-0.1-1.8-0.4L99.9,144.9z"/>
<path class="st2" d="M106.7,137.9v1.8h1.7v0.9h-1.7v3.4c0,0.8,0.2,1.2,0.9,1.2c0.2,0,0.5,0,0.7-0.1v0.9c-0.3,0.1-0.7,0.2-1,0.2
	c-0.5,0-0.9-0.2-1.2-0.5c-0.3-0.5-0.5-1.1-0.4-1.7v-3.5h-1v-0.9h1v-1.5L106.7,137.9z"/>
<path class="st2" d="M110.2,143.1c-0.1,1.1,0.7,2.1,1.8,2.2c0.1,0,0.3,0,0.4,0c0.6,0,1.2-0.1,1.8-0.3l0.2,0.8
	c-0.7,0.3-1.4,0.4-2.1,0.4c-1.7,0.1-3.1-1.2-3.1-2.8c0-0.1,0-0.2,0-0.4c0-1.9,1.1-3.4,3-3.4c2.1,0,2.6,1.8,2.6,3c0,0.2,0,0.4,0,0.6
	H110.2z M113.6,142.3c0.1-0.9-0.5-1.7-1.4-1.9c-0.1,0-0.1,0-0.2,0c-1,0.1-1.8,0.9-1.8,1.9H113.6z"/>
<path class="st2" d="M141.5,147.1v-10.1l0,0h67l0,0v15.7l0,0h-61.4C144,152.7,141.5,150.2,141.5,147.1z"/>
<line class="st3" x1="119.2" y1="142.8" x2="141.5" y2="142.8"/>
<line id="timelinebar" class="st0" x1="208.8" y1="52.7" x2="208.8" y2="881.3"/>
<line class="st4" x1="287.5" y1="173.3" x2="307.8" y2="172.8"/>
<line class="st4" x1="255.4" y1="246.2" x2="307.8" y2="246.2"/>
<line class="st4" x1="245.6" y1="317.6" x2="307.8" y2="317.6"/>
<line class="st4" x1="257.3" y1="465.7" x2="307.8" y2="465.7"/>
<line class="st4" x1="250.3" y1="539.2" x2="307.8" y2="539.2"/>
<line class="st4" x1="208.8" y1="612.7" x2="307.8" y2="612.7"/>
<line class="st4" x1="208.8" y1="686.2" x2="307.8" y2="686.2"/>
<line class="st4" x1="208.8" y1="759.7" x2="307.8" y2="759.7"/>
<line class="st4" x1="251.7" y1="100.4" x2="307.8" y2="100.4"/>
<path class="st5" d="M314.5,104.3v-0.6l0.8-0.8c1.9-1.8,2.8-2.8,2.8-3.9c0.1-0.7-0.5-1.4-1.2-1.5c-0.1,0-0.2,0-0.3,0
	c-0.6,0-1.2,0.2-1.6,0.6l-0.3-0.7c0.6-0.5,1.3-0.8,2.1-0.8c1.2-0.1,2.2,0.8,2.3,1.9c0,0.1,0,0.2,0,0.3c0,1.4-1,2.5-2.6,4l-0.6,0.6
	l0,0h3.4v0.8L314.5,104.3z"/>
<path class="st5" d="M325.5,100.4c0,2.6-1,4-2.6,4c-1.5,0-2.5-1.4-2.5-3.9s1.1-3.9,2.6-3.9S325.5,98,325.5,100.4z M321.4,100.5
	c0,2,0.6,3.1,1.5,3.1s1.5-1.2,1.5-3.1s-0.5-3.1-1.5-3.1S321.4,98.5,321.4,100.5z"/>
<path class="st5" d="M328.6,97.7L328.6,97.7l-1.3,0.7l-0.2-0.8l1.6-0.9h0.9v7.5h-1L328.6,97.7z"/>
<path class="st5" d="M337.3,100.4c0,2.6-0.9,4-2.6,4c-1.5,0-2.5-1.4-2.5-3.9s1.1-3.9,2.6-3.9S337.3,98,337.3,100.4z M333.2,100.5
	c0,2,0.6,3.1,1.5,3.1s1.5-1.2,1.5-3.1s-0.5-3.1-1.5-3.1C333.9,97.4,333.2,98.5,333.2,100.5z"/>
<path class="st6" d="M209.6,100.4h77.9v117.2c0,7-8.7,12.7-19.3,12.7h-58.6"/>
<path class="st2" d="M141.5,178.3v-16.6l0,0h67l0,0v22.2l0,0h-61.4C144,183.9,141.5,181.4,141.5,178.3z"/>
<path class="st2" d="M141.5,224.6V208l0,0h67l0,0v22.2l0,0h-61.4C144,230.2,141.5,227.7,141.5,224.6z"/>
<path class="st2" d="M30.2,213.7h1.1v7.9h3.8v1h-5L30.2,213.7z"/>
<path class="st2" d="M41.1,218.5h-3.5v3.2h3.9v1h-5v-8.9h4.8v1h-3.7v2.8h3.5V218.5z"/>
<path class="st2" d="M45.8,213.9c0.7-0.1,1.4-0.2,2.1-0.2c0.9-0.1,1.7,0.1,2.5,0.6c0.5,0.4,0.8,1,0.7,1.6c0,0.9-0.6,1.7-1.5,2l0,0
	c1.1,0.2,1.8,1.2,1.8,2.2c0,0.7-0.3,1.3-0.8,1.8c-0.9,0.7-2,1-3.1,0.8c-0.6,0-1.2,0-1.8-0.1V213.9z M46.9,217.5H48
	c1.2,0,1.9-0.6,1.9-1.5c0-1-0.8-1.4-1.9-1.4c-0.3,0-0.7,0-1,0.1L46.9,217.5z M46.9,221.8c0.3,0,0.7,0.1,1,0.1c1.2,0,2.3-0.4,2.3-1.7
	s-1-1.7-2.3-1.7h-1L46.9,221.8z"/>
<path class="st2" d="M54.1,213.7v8.9h-1.2v-8.9H54.1z"/>
<path class="st2" d="M60.7,218.5h-3.4v3.2h3.9v1h-5v-8.9h4.8v1h-3.7v2.8h3.5L60.7,218.5z"/>
<path class="st2" d="M62.6,222.6v-8.9h1.3l2.9,4.5c0.6,0.9,1.1,1.9,1.6,2.9l0,0c-0.1-1.2-0.1-2.3-0.1-3.6v-3.7h1.1v8.9h-1.1
	l-2.8-4.5c-0.6-1-1.2-2-1.7-3l0,0c0.1,1.1,0.1,2.2,0.1,3.7v3.8L62.6,222.6z"/>
<path class="st2" d="M74.1,213.8c0.7-0.1,1.5-0.2,2.2-0.2c0.9-0.1,1.8,0.2,2.5,0.7c0.5,0.5,0.8,1.2,0.8,1.9c0,0.7-0.2,1.4-0.7,1.9
	c-0.7,0.7-1.7,1.1-2.7,1c-0.3,0-0.6,0-0.9-0.1v3.6h-1.1V213.8z M75.2,218.1c0.3,0.1,0.7,0.1,1,0.1c1.4,0,2.2-0.7,2.2-1.9
	s-0.8-1.8-2.1-1.8c-0.4,0-0.7,0-1.1,0.1L75.2,218.1z"/>
<path class="st2" d="M82.2,213.7v5.3c0,2,0.9,2.8,2.1,2.8s2.2-0.8,2.2-2.8v-5.3h1.2v5.2c0,2.7-1.4,3.9-3.4,3.9s-3.2-1-3.2-3.8v-5.2
	H82.2z"/>
<path class="st2" d="M89.7,213.9c0.7-0.1,1.4-0.2,2.1-0.2c0.9-0.1,1.7,0.1,2.4,0.6c0.5,0.4,0.8,1,0.7,1.6c0,0.9-0.6,1.7-1.5,2l0,0
	c1.1,0.2,1.8,1.2,1.8,2.2c0,0.7-0.3,1.3-0.8,1.8c-0.9,0.7-2,1-3.1,0.8c-0.6,0-1.2,0-1.8-0.1L89.7,213.9z M90.8,217.5h1
	c1.2,0,1.9-0.6,1.9-1.5c0-1-0.8-1.4-2-1.4c-0.3,0-0.7,0-1,0.1L90.8,217.5z M90.8,221.8c0.3,0,0.7,0.1,1,0.1c1.2,0,2.3-0.4,2.3-1.7
	s-1-1.7-2.3-1.7h-1L90.8,221.8z"/>
<path class="st2" d="M96.8,213.7H98v7.9h3.8v1h-5L96.8,213.7z"/>
<path class="st2" d="M104.2,213.7v8.9H103v-8.9H104.2z"/>
<path class="st2" d="M112.4,222.4c-0.7,0.3-1.6,0.4-2.4,0.4c-2.3,0.1-4.3-1.6-4.4-3.9c0-0.2,0-0.4,0-0.6c-0.1-2.4,1.7-4.5,4.2-4.7
	c0.2,0,0.3,0,0.5,0c0.7,0,1.5,0.1,2.1,0.4l-0.3,0.9c-0.6-0.2-1.2-0.4-1.8-0.4c-2.1,0-3.5,1.3-3.5,3.7c-0.2,1.8,1.1,3.4,2.8,3.6
	c0.2,0,0.4,0,0.6,0c0.6,0,1.3-0.1,1.9-0.4L112.4,222.4z"/>
<path class="st2" d="M54.1,240.3c0.5,0,0.9-0.2,1.3-0.5c0.3-0.4,0.5-0.9,0.5-2.4v-5.4H57v5.8c0.1,0.9-0.2,1.9-0.8,2.6
	c-0.6,0.5-1.3,0.7-2,0.7L54.1,240.3z M57.1,230.3c0,0.4-0.3,0.7-0.7,0.7c0,0,0,0-0.1,0c-0.4,0-0.7-0.3-0.7-0.7c0,0,0,0,0,0
	c0-0.4,0.3-0.7,0.7-0.7C56.8,229.6,57.1,229.9,57.1,230.3C57.1,230.3,57.1,230.3,57.1,230.3z"/>
<path class="st2" d="M64.7,235.2c0.1,1.7-1.1,3.2-2.8,3.4c-0.1,0-0.2,0-0.3,0c-1.7,0-3-1.3-3.1-2.9c0-0.1,0-0.3,0-0.4
	c-0.1-1.7,1.2-3.2,2.9-3.3c0.1,0,0.2,0,0.3,0c1.7,0,3,1.3,3.1,2.9C64.7,235,64.7,235.1,64.7,235.2z M59.6,235.3
	c0,1.4,0.8,2.5,1.9,2.5s1.9-1,1.9-2.5c0-1.1-0.5-2.4-1.9-2.4S59.6,234.1,59.6,235.3z"/>
<path class="st2" d="M71.5,236.7c0,0.7,0,1.2,0,1.7h-1l-0.1-1l0,0c-0.4,0.8-1.2,1.2-2.1,1.2c-1,0-2.2-0.6-2.2-2.8v-3.7h1.2v3.5
	c0,1.2,0.4,2,1.4,2c0.7,0,1.3-0.4,1.5-1.1c0.1-0.2,0.1-0.4,0.1-0.6v-3.9h1.2L71.5,236.7z"/>
<path class="st2" d="M73.4,234.1c0-0.8,0-1.4-0.1-2h1v1.3l0,0c0.2-0.8,1-1.3,1.8-1.4c0.1,0,0.2,0,0.3,0v1.1c-0.1,0-0.3,0-0.4,0
	c-0.8,0-1.5,0.7-1.6,1.5c0,0.2,0,0.4,0,0.5v3.4h-1.1V234.1z"/>
<path class="st2" d="M77.8,233.8c0-0.7,0-1.2,0-1.7h1l0.1,1l0,0c0.5-0.7,1.3-1.1,2.2-1.1c0.9,0,2.2,0.5,2.2,2.7v3.8h-1.2v-3.7
	c0-1-0.4-1.9-1.5-1.9c-0.7,0-1.4,0.5-1.6,1.2c-0.1,0.2-0.1,0.4-0.1,0.5v3.9h-1.1V233.8z"/>
<path class="st2" d="M88.7,238.5l-0.1-0.8l0,0c-0.5,0.6-1.2,1-2,0.9c-1,0.1-1.9-0.6-2-1.6c0-0.1,0-0.1,0-0.2c0-1.6,1.4-2.4,3.8-2.4
	v-0.1c0.1-0.7-0.4-1.4-1.1-1.5c-0.1,0-0.2,0-0.3,0c-0.6,0-1.2,0.2-1.7,0.5l-0.3-0.8c0.6-0.4,1.4-0.6,2.1-0.6c1.9,0,2.4,1.3,2.4,2.6
	v2.4c0,0.5,0,1,0.1,1.5L88.7,238.5z M88.5,235.2c-1.3,0-2.7,0.2-2.7,1.4c-0.1,0.5,0.3,1,0.9,1.1c0.1,0,0.1,0,0.2,0
	c0.7,0,1.3-0.4,1.6-1.1c0-0.1,0-0.2,0-0.4L88.5,235.2z"/>
<path class="st2" d="M91.5,229.1h1.2v9.4h-1.2V229.1z"/>
<path class="st2" d="M95.9,230.3c0,0.4-0.3,0.7-0.7,0.7s-0.7-0.3-0.7-0.7c0-0.4,0.3-0.7,0.7-0.7c0,0,0,0,0,0
	C95.6,229.5,95.9,229.8,95.9,230.3C95.9,230.2,95.9,230.3,95.9,230.3z M94.6,238.5v-6.4h1.2v6.4H94.6z"/>
<path class="st2" d="M97.5,237.3c0.5,0.3,1,0.4,1.5,0.5c0.8,0,1.2-0.4,1.2-1s-0.3-0.9-1.2-1.2c-1.2-0.4-1.7-1-1.7-1.8
	c0.1-1.1,1.1-1.9,2.2-1.8c0,0,0,0,0,0c0.5,0,1.1,0.1,1.6,0.4l-0.3,0.9c-0.4-0.2-0.9-0.4-1.3-0.4c-0.7,0-1,0.4-1,0.9s0.4,0.8,1.2,1.1
	c1.1,0.4,1.7,1,1.7,1.9c0,1.1-0.9,1.9-2.4,1.9c-0.6,0-1.2-0.1-1.8-0.4L97.5,237.3z"/>
<path class="st2" d="M104.3,230.2v1.8h1.7v0.9h-1.7v3.4c0,0.8,0.2,1.2,0.9,1.2c0.2,0,0.5,0,0.7-0.1v0.9c-0.3,0.1-0.7,0.2-1,0.2
	c-0.5,0-0.9-0.2-1.3-0.5c-0.3-0.5-0.5-1.1-0.4-1.7V233h-1v-0.9h1v-1.5L104.3,230.2z"/>
<path class="st2" d="M107.9,235.5c-0.1,1.1,0.7,2.1,1.8,2.2c0.1,0,0.3,0,0.4,0c0.6,0,1.2-0.1,1.8-0.3l0.2,0.8
	c-0.7,0.3-1.4,0.4-2.1,0.4c-1.7,0.1-3.1-1.2-3.1-2.8c0-0.1,0-0.2,0-0.4c0-1.9,1.1-3.4,3-3.4c2.1,0,2.6,1.8,2.6,3c0,0.2,0,0.4,0,0.6
	H107.9z M111.3,234.7c0.1-0.9-0.5-1.7-1.4-1.9c-0.1,0-0.1,0-0.2,0c-1,0.1-1.8,0.9-1.8,1.9H111.3z"/>
<line class="st3" x1="120" y1="217" x2="141.4" y2="217"/>
<path class="st2" d="M16.4,169.8h4.8v1h-3.6v3h3.4v1h-3.4v4h-1.2V169.8z"/>
<path class="st2" d="M22.8,169.9c0.7-0.1,1.5-0.2,2.2-0.2c0.9-0.1,1.8,0.2,2.6,0.7c0.5,0.4,0.7,1.1,0.7,1.7c0,1-0.7,2-1.7,2.3l0,0
	c0.7,0.3,1.2,1,1.3,1.8c0.2,0.8,0.4,1.7,0.7,2.4h-1.2c-0.3-0.7-0.5-1.4-0.6-2.1c-0.3-1.2-0.7-1.7-1.8-1.7h-1v3.9h-1.2V169.9z
	 M24,174h1.2c1.2,0,2-0.7,2-1.7s-0.8-1.7-2-1.7c-0.4,0-0.8,0-1.1,0.1L24,174z"/>
<path class="st2" d="M31.4,175.9l-0.9,2.8h-1.2l3-8.9h1.4l3,8.9h-1.2l-1-2.8H31.4z M34.3,175l-0.9-2.6c-0.2-0.6-0.3-1.1-0.5-1.6l0,0
	c-0.1,0.5-0.3,1.1-0.4,1.6l-0.9,2.6L34.3,175z"/>
<path class="st2" d="M38.1,178.7v-8.9h1.3l2.8,4.5c0.6,0.9,1.1,1.9,1.6,2.9l0,0c-0.1-1.2-0.1-2.3-0.1-3.7v-3.7h1.1v8.9h-1.1
	l-2.8-4.5c-0.6-1-1.2-2-1.7-3l0,0c0.1,1.1,0.1,2.2,0.1,3.7v3.8L38.1,178.7z"/>
<path class="st2" d="M53,178.4c-0.7,0.3-1.5,0.5-2.3,0.4c-2.3,0.1-4.3-1.6-4.4-3.9c0-0.2,0-0.4,0-0.6c-0.1-2.4,1.7-4.5,4.2-4.7
	c0.2,0,0.3,0,0.5,0c0.7,0,1.4,0.1,2.1,0.4l-0.3,0.9c-0.6-0.2-1.2-0.4-1.8-0.4c-2.1,0-3.5,1.3-3.5,3.7c-0.2,1.8,1.1,3.4,2.9,3.6
	c0.2,0,0.4,0,0.6,0c0.6,0,1.3-0.1,1.9-0.4L53,178.4z"/>
<path class="st2" d="M59,174.5h-3.4v3.2h3.9v1h-5v-8.9h4.8v1h-3.7v2.8H59V174.5z"/>
<path class="st2" d="M69.9,178.4c-0.7,0.3-1.6,0.5-2.4,0.4c-2.3,0.1-4.3-1.6-4.4-3.9c0-0.2,0-0.4,0-0.6c-0.1-2.4,1.7-4.5,4.2-4.7
	c0.2,0,0.3,0,0.5,0c0.7,0,1.5,0.1,2.1,0.4l-0.3,0.9c-0.6-0.2-1.2-0.4-1.8-0.4c-2.1,0-3.5,1.3-3.5,3.7c-0.2,1.8,1.1,3.4,2.8,3.6
	c0.2,0,0.4,0,0.6,0c0.6,0,1.3-0.1,1.9-0.4L69.9,178.4z"/>
<path class="st2" d="M72.5,169.8v5.3c0,2,0.9,2.8,2.1,2.8s2.2-0.9,2.2-2.8v-5.3h1.2v5.2c0,2.7-1.4,3.9-3.4,3.9s-3.2-1-3.2-3.8v-5.2
	H72.5z"/>
<path class="st2" d="M79.9,169.8h1.2v7.9h3.8v1h-5L79.9,169.8z"/>
<path class="st2" d="M86.7,170.8H84v-1h6.6v1h-2.8v7.9h-1.2V170.8z"/>
<path class="st2" d="M92.7,169.8v5.3c0,2,0.9,2.8,2.1,2.8s2.2-0.9,2.2-2.8v-5.3h1.2v5.2c0,2.7-1.4,3.9-3.4,3.9s-3.2-1-3.2-3.8v-5.2
	H92.7z"/>
<path class="st2" d="M100.1,169.9c0.7-0.1,1.5-0.2,2.2-0.2c0.9-0.1,1.8,0.2,2.6,0.7c0.5,0.4,0.7,1.1,0.7,1.7c0,1-0.7,2-1.7,2.3l0,0
	c0.7,0.3,1.2,1,1.3,1.8c0.2,0.8,0.4,1.7,0.7,2.4h-1.2c-0.3-0.7-0.5-1.4-0.6-2.1c-0.3-1.2-0.7-1.7-1.8-1.7h-1.1v3.9h-1.2V169.9z
	 M101.3,174h1.2c1.2,0,2-0.7,2-1.7s-0.8-1.7-2-1.7c-0.4,0-0.8,0-1.1,0.1L101.3,174z"/>
<path class="st2" d="M111.8,174.5h-3.4v3.2h3.9v1h-5v-8.9h4.8v1h-3.7v2.8h3.4L111.8,174.5z"/>
<path class="st2" d="M54,196.4c0.5,0,0.9-0.2,1.3-0.5c0.3-0.4,0.4-0.9,0.4-2.4v-5.4h1.2v5.8c0.1,0.9-0.2,1.9-0.8,2.6
	c-0.6,0.5-1.3,0.7-2,0.7L54,196.4z M57,186.4c0,0.4-0.3,0.7-0.7,0.7c0,0,0,0-0.1,0c-0.4,0-0.7-0.3-0.7-0.7c0,0,0,0,0,0
	c0-0.4,0.3-0.7,0.7-0.7c0,0,0,0,0,0C56.7,185.7,57,186,57,186.4L57,186.4z"/>
<path class="st2" d="M64.6,191.3c0.1,1.7-1.1,3.2-2.9,3.4c-0.1,0-0.2,0-0.3,0c-1.7,0-3-1.3-3.1-2.9c0-0.1,0-0.3,0-0.4
	c-0.2-1.7,1.1-3.2,2.8-3.4c0.1,0,0.2,0,0.4,0c1.7-0.1,3,1.2,3.1,2.9C64.6,191,64.6,191.2,64.6,191.3z M59.5,191.4
	c0,1.4,0.8,2.5,1.9,2.5s2-1,2-2.5c0-1.1-0.5-2.4-1.9-2.4S59.5,190.2,59.5,191.4z"/>
<path class="st2" d="M71.4,192.8c0,0.7,0,1.2,0.1,1.8h-1l-0.1-1l0,0c-0.4,0.8-1.2,1.2-2.1,1.2c-1,0-2.2-0.6-2.2-2.8v-3.7h1.2v3.5
	c0,1.2,0.4,2.1,1.4,2.1c0.7,0,1.3-0.4,1.5-1.1c0.1-0.2,0.1-0.4,0.1-0.6v-3.9h1.2L71.4,192.8z"/>
<path class="st2" d="M73.3,190.2c0-0.8,0-1.4-0.1-2h1v1.3l0,0c0.2-0.8,0.9-1.4,1.8-1.4c0.1,0,0.2,0,0.3,0v1.1c-0.1,0-0.3,0-0.4,0
	c-0.8,0-1.5,0.7-1.6,1.5c0,0.2,0,0.4,0,0.6v3.4h-1.1V190.2z"/>
<path class="st2" d="M77.7,189.9c0-0.7,0-1.2,0-1.7h1l0.1,1.1l0,0c0.4-0.8,1.2-1.2,2.1-1.2c0.9,0,2.2,0.5,2.2,2.7v3.8H82v-3.7
	c0-1-0.4-1.9-1.5-1.9c-0.7,0-1.4,0.5-1.6,1.2c-0.1,0.2-0.1,0.4-0.1,0.5v3.9h-1.2V189.9z"/>
<path class="st2" d="M88.6,194.6l-0.1-0.8l0,0c-0.5,0.6-1.2,1-2,1c-1,0.1-1.9-0.6-2-1.7c0-0.1,0-0.1,0-0.2c0-1.5,1.4-2.4,3.8-2.4
	v-0.1c0.1-0.7-0.4-1.4-1.1-1.5c-0.1,0-0.2,0-0.3,0c-0.6,0-1.2,0.2-1.7,0.5l-0.3-0.8c0.6-0.4,1.4-0.6,2.1-0.6c2,0,2.4,1.3,2.4,2.6
	v2.3c0,0.5,0,1,0.1,1.5L88.6,194.6z M88.4,191.3c-1.3,0-2.7,0.2-2.7,1.4c-0.1,0.5,0.3,1,0.9,1.1c0.1,0,0.1,0,0.2,0
	c0.7,0,1.3-0.4,1.6-1.1c0-0.1,0.1-0.2,0.1-0.4V191.3z"/>
<path class="st2" d="M91.4,185.2h1.2v9.4h-1.2V185.2z"/>
<path class="st2" d="M95.8,186.4c0,0.4-0.3,0.7-0.7,0.7c0,0,0,0-0.1,0c-0.4,0-0.7-0.3-0.7-0.7c0,0,0,0,0,0c0-0.4,0.3-0.7,0.7-0.7
	S95.8,186,95.8,186.4C95.8,186.4,95.8,186.4,95.8,186.4z M94.5,194.6v-6.4h1.2v6.4H94.5z"/>
<path class="st2" d="M97.4,193.4c0.5,0.3,1,0.4,1.5,0.4c0.8,0,1.2-0.4,1.2-1s-0.3-0.9-1.2-1.2c-1.2-0.4-1.7-1-1.7-1.8
	c0.1-1.1,1-1.9,2.1-1.9c0,0,0.1,0,0.1,0c0.5,0,1.1,0.1,1.6,0.4l-0.3,0.8c-0.4-0.2-0.8-0.4-1.3-0.4c-0.7,0-1.1,0.4-1.1,0.9
	s0.4,0.8,1.2,1.1c1.1,0.4,1.7,1,1.7,1.9c0,1.1-0.9,1.9-2.4,1.9c-0.6,0-1.2-0.1-1.8-0.4L97.4,193.4z"/>
<path class="st2" d="M104.2,186.3v1.8h1.7v0.9h-1.7v3.4c0,0.8,0.2,1.2,0.9,1.2c0.2,0,0.5,0,0.7-0.1v0.9c-0.3,0.1-0.7,0.2-1,0.2
	c-0.5,0-0.9-0.2-1.2-0.5c-0.3-0.5-0.5-1.1-0.4-1.7v-3.5h-1v-0.9h1v-1.5L104.2,186.3z"/>
<path class="st2" d="M107.8,191.6c-0.1,1.1,0.7,2.1,1.8,2.2c0.2,0,0.3,0,0.5,0c0.6,0,1.2-0.1,1.8-0.3l0.2,0.8
	c-0.7,0.3-1.4,0.4-2.1,0.4c-1.7,0.1-3.1-1.2-3.1-2.8c0-0.1,0-0.3,0-0.4c0-1.9,1.1-3.4,3-3.4c2.1,0,2.6,1.8,2.6,3c0,0.2,0,0.4,0,0.6
	L107.8,191.6z M111.2,190.7c0.1-0.9-0.5-1.7-1.4-1.9c-0.1,0-0.1,0-0.2,0c-1,0.1-1.8,0.9-1.8,1.9H111.2z"/>
<path class="st2" d="M141.5,314.1v-67.9l0,0h67l0,0v73.6l0,0h-61.4C144,319.8,141.5,317.2,141.5,314.1z"/>
<path class="st2" d="M0,276.8h1.2v7.9H5v1H0V276.8z"/>
<path class="st2" d="M10.8,281.5H7.4v3.2h3.9v1h-5v-8.9h4.8v1H7.4v2.8h3.5V281.5z"/>
<path class="st2" d="M15.5,276.9c0.8-0.1,1.6-0.2,2.4-0.2c1.3-0.1,2.6,0.3,3.6,1.1c0.9,0.8,1.3,2,1.3,3.2c0.1,1.3-0.4,2.5-1.3,3.5
	c-1.1,0.9-2.5,1.4-3.9,1.3c-0.7,0-1.4,0-2.1-0.1L15.5,276.9z M16.7,284.8c0.4,0,0.8,0.1,1.2,0.1c1.9,0.2,3.6-1.1,3.8-3
	c0-0.3,0-0.5,0-0.8c0-2.1-1.2-3.4-3.6-3.4c-0.5,0-0.9,0-1.4,0.1L16.7,284.8z"/>
<path class="st2" d="M25.6,282.9l-0.9,2.8h-1.2l3-8.9h1.4l3,8.9h-1.2l-1-2.8H25.6z M28.5,282l-0.9-2.6c-0.2-0.6-0.3-1.1-0.5-1.6l0,0
	c-0.1,0.5-0.3,1.1-0.4,1.6l-0.9,2.6L28.5,282z"/>
<path class="st2" d="M33,276.8v5.3c0,2,0.9,2.8,2.1,2.8s2.2-0.9,2.2-2.8v-5.3h1.2v5.2c0,2.7-1.4,3.9-3.4,3.9s-3.2-1-3.2-3.8v-5.2
	L33,276.8z"/>
<path class="st2" d="M40.4,276.9c0.7-0.1,1.5-0.2,2.2-0.2c0.9-0.1,1.8,0.2,2.5,0.7c0.5,0.5,0.8,1.2,0.8,1.9c0,0.7-0.2,1.4-0.7,1.9
	c-0.7,0.7-1.7,1.1-2.7,1c-0.3,0-0.6,0-0.9-0.1v3.6h-1.2V276.9z M41.6,281.2c0.3,0.1,0.7,0.1,1,0.1c1.4,0,2.2-0.7,2.2-1.9
	s-0.8-1.8-2.1-1.8c-0.4,0-0.7,0-1.1,0.1L41.6,281.2z"/>
<path class="st2" d="M48.6,276.8v3.7h4.3v-3.7h1.2v8.9h-1.2v-4.2h-4.3v4.2h-1.2v-8.9H48.6z"/>
<path class="st2" d="M57.2,276.8v8.9H56v-8.9H57.2z"/>
<path class="st2" d="M59.2,285.7v-8.9h1.3l2.8,4.5c0.6,0.9,1.1,1.9,1.6,2.9l0,0c-0.1-1.2-0.1-2.3-0.1-3.7v-3.7h1.1v8.9h-1.1
	l-2.8-4.5c-0.6-1-1.2-2-1.7-3l0,0c0.1,1.1,0.1,2.2,0.1,3.7v3.8L59.2,285.7z"/>
<path class="st2" d="M72.5,281.5h-3.5v3.2h3.9v1h-5v-8.9h4.8v1h-3.7v2.8h3.4L72.5,281.5z M72.3,274.8l-1.7,1.5h-0.9l1.2-1.5H72.3z"
	/>
<path class="st2" d="M77.2,276.8h1.2v7.9h3.8v1h-5L77.2,276.8z"/>
<path class="st2" d="M84.6,276.8v8.9h-1.2v-8.9H84.6z"/>
<path class="st2" d="M86.6,276.9c0.7-0.1,1.4-0.2,2.1-0.2c0.9-0.1,1.7,0.1,2.4,0.6c0.5,0.4,0.8,1,0.8,1.6c0,0.9-0.6,1.7-1.5,2l0,0
	c1.1,0.2,1.8,1.1,1.8,2.2c0,0.7-0.3,1.3-0.8,1.8c-0.9,0.7-2,1-3.1,0.8c-0.6,0-1.2,0-1.8-0.1L86.6,276.9z M87.8,280.6h1
	c1.2,0,1.9-0.6,1.9-1.5c0-1-0.8-1.5-2-1.5c-0.3,0-0.7,0-1,0.1L87.8,280.6z M87.8,284.8c0.3,0.1,0.7,0.1,1,0.1c1.2,0,2.3-0.4,2.3-1.7
	s-1.1-1.7-2.3-1.7h-1L87.8,284.8z"/>
<path class="st2" d="M98.4,281.5h-3.5v3.2h3.9v1h-5v-8.9h4.8v1h-3.7v2.8h3.4L98.4,281.5z M98.2,274.8l-1.7,1.5h-1l1.2-1.5H98.2z"/>
<path class="st2" d="M100.3,276.9c0.7-0.1,1.5-0.2,2.2-0.2c0.9-0.1,1.8,0.2,2.6,0.7c0.5,0.4,0.7,1.1,0.7,1.7c0,1-0.7,2-1.7,2.3l0,0
	c0.7,0.3,1.2,1,1.3,1.8c0.2,0.8,0.4,1.7,0.7,2.5h-1.2c-0.3-0.7-0.5-1.4-0.6-2.1c-0.3-1.2-0.7-1.7-1.8-1.7h-1.1v3.9h-1.2V276.9z
	 M101.4,281h1.2c1.2,0,2-0.7,2-1.7s-0.8-1.7-2-1.7c-0.4,0-0.8,0-1.1,0.1L101.4,281z"/>
<path class="st2" d="M112,281.5h-3.4v3.2h3.9v1h-5v-8.9h4.8v1h-3.7v2.8h3.4V281.5z M111.8,274.8l-1.7,1.5h-0.9l1.2-1.5H111.8z"/>
<path class="st2" d="M54.1,303.4c0.5,0,0.9-0.2,1.3-0.5c0.3-0.4,0.5-0.9,0.5-2.4v-5.4H57v5.8c0.1,0.9-0.2,1.9-0.8,2.6
	c-0.6,0.5-1.3,0.7-2,0.7L54.1,303.4z M57.1,293.4c0,0.4-0.3,0.7-0.7,0.7c0,0,0,0-0.1,0c-0.4,0-0.7-0.3-0.7-0.7c0,0,0,0,0,0
	c0-0.4,0.3-0.7,0.7-0.7S57.1,293,57.1,293.4C57.1,293.4,57.1,293.4,57.1,293.4z"/>
<path class="st2" d="M64.7,298.3c0.1,1.7-1.1,3.2-2.9,3.4c-0.1,0-0.2,0-0.3,0c-1.7,0-3-1.3-3.1-2.9c0-0.1,0-0.3,0-0.4
	c-0.2-1.7,1.1-3.2,2.8-3.4c0.1,0,0.3,0,0.4,0c1.7-0.1,3,1.2,3.1,2.9C64.7,298,64.7,298.2,64.7,298.3z M59.6,298.4
	c0,1.4,0.8,2.5,1.9,2.5s1.9-1,1.9-2.5c0-1.1-0.5-2.4-1.9-2.4S59.6,297.2,59.6,298.4L59.6,298.4z"/>
<path class="st2" d="M71.5,299.8c0,0.7,0,1.2,0,1.8h-1l-0.1-1l0,0c-0.4,0.8-1.2,1.2-2.1,1.2c-1,0-2.2-0.6-2.2-2.8v-3.7h1.2v3.5
	c0,1.2,0.4,2,1.4,2c0.7,0,1.3-0.4,1.5-1.1c0.1-0.2,0.1-0.4,0.1-0.6v-3.9h1.2L71.5,299.8z"/>
<path class="st2" d="M73.4,297.2c0-0.8,0-1.4-0.1-2h1v1.2l0,0c0.3-0.8,1-1.4,1.9-1.4c0.1,0,0.2,0,0.3,0v1.1c-0.1,0-0.3,0-0.4,0
	c-0.8,0-1.5,0.7-1.6,1.5c0,0.2,0,0.4,0,0.5v3.4h-1.2V297.2z"/>
<path class="st2" d="M77.8,296.9c0-0.7,0-1.2,0-1.7h1l0.1,1l0,0c0.4-0.8,1.3-1.3,2.2-1.2c0.9,0,2.2,0.5,2.2,2.7v3.8h-1.2v-3.7
	c0-1-0.4-1.9-1.5-1.9c-0.7,0-1.4,0.5-1.6,1.2c0,0.2-0.1,0.4-0.1,0.5v3.9h-1.1V296.9z"/>
<path class="st2" d="M88.7,301.6l-0.1-0.8l0,0c-0.5,0.6-1.2,1-2,1c-1,0.1-1.9-0.6-2-1.7c0-0.1,0-0.1,0-0.2c0-1.5,1.4-2.4,3.8-2.4
	v-0.1c0.1-0.7-0.4-1.4-1.1-1.5c-0.1,0-0.2,0-0.3,0c-0.6,0-1.2,0.2-1.7,0.5l-0.3-0.8c0.6-0.4,1.4-0.6,2.1-0.6c1.9,0,2.4,1.3,2.4,2.6
	v2.3c0,0.5,0,1,0.1,1.5L88.7,301.6z M88.5,298.3c-1.3,0-2.7,0.2-2.7,1.4c-0.1,0.5,0.3,1,0.9,1.1c0.1,0,0.1,0,0.2,0
	c0.7,0,1.3-0.4,1.6-1.1c0-0.1,0-0.2,0-0.4L88.5,298.3z"/>
<path class="st2" d="M91.5,292.2h1.2v9.4h-1.2V292.2z"/>
<path class="st2" d="M95.9,293.4c0,0.4-0.3,0.7-0.7,0.7s-0.7-0.3-0.7-0.7c0-0.4,0.3-0.7,0.7-0.7c0,0,0,0,0,0
	C95.6,292.6,95.9,292.9,95.9,293.4C95.9,293.3,95.9,293.4,95.9,293.4z M94.6,301.6v-6.4h1.2v6.4H94.6z"/>
<path class="st2" d="M97.5,300.4c0.5,0.3,1,0.4,1.5,0.5c0.8,0,1.2-0.4,1.2-1s-0.3-0.9-1.2-1.2c-1.2-0.4-1.7-1-1.7-1.8
	c0-1.1,1-2,2.1-1.9c0,0,0.1,0,0.1,0c0.5,0,1.1,0.1,1.6,0.4l-0.3,0.8c-0.4-0.2-0.9-0.4-1.3-0.4c-0.7,0-1,0.4-1,0.9s0.4,0.8,1.2,1.1
	c1.1,0.4,1.7,1,1.7,1.9c0,1.1-0.9,1.9-2.4,1.9c-0.6,0-1.2-0.1-1.8-0.5L97.5,300.4z"/>
<path class="st2" d="M104.3,293.3v1.8h1.7v0.9h-1.7v3.5c0,0.8,0.2,1.2,0.9,1.2c0.2,0,0.5,0,0.7-0.1v0.9c-0.3,0.1-0.7,0.2-1,0.2
	c-0.5,0-0.9-0.2-1.3-0.5c-0.3-0.5-0.5-1.1-0.4-1.7v-3.5h-1v-0.9h1v-1.5L104.3,293.3z"/>
<path class="st2" d="M107.9,298.6c-0.1,1.1,0.7,2.1,1.8,2.2c0.1,0,0.3,0,0.4,0c0.6,0,1.2-0.1,1.8-0.3l0.2,0.8
	c-0.7,0.3-1.4,0.4-2.1,0.4c-1.7,0.1-3.1-1.2-3.1-2.8c0-0.1,0-0.3,0-0.4c0-1.9,1.1-3.4,3-3.4c2.1,0,2.6,1.8,2.6,3c0,0.2,0,0.4,0,0.5
	L107.9,298.6z M111.3,297.8c0.1-0.9-0.5-1.7-1.4-1.9c-0.1,0-0.1,0-0.2,0c-1,0.1-1.8,0.9-1.8,1.9H111.3z"/>
<path class="st6" d="M209.6,246.2h77.9v64.4c0,3.8-8.7,7-19.3,7h-58.6"/>
<path class="st2" d="M141.4,435.4V328.8l0,0h67l0,0V441l0,0H147C143.9,441,141.4,438.4,141.4,435.4z"/>
<line class="st4" x1="209.6" y1="391.1" x2="307.8" y2="391.1"/>
<path class="st2" d="M141.5,456.9v-10.1l0,0h67l0,0v15.7l0,0h-61.4C144,462.5,141.5,460,141.5,456.9z"/>
<line class="st3" x1="120.1" y1="452.7" x2="141.5" y2="452.7"/>
<path class="st2" d="M67.1,457.1c-0.7,0.3-1.5,0.4-2.3,0.4c-2.3,0.1-4.3-1.6-4.4-3.9c0-0.2,0-0.4,0-0.7c-0.1-2.4,1.7-4.5,4.1-4.7
	c0.2,0,0.3,0,0.5,0c0.7,0,1.4,0.1,2.1,0.4l-0.3,0.9c-0.6-0.3-1.2-0.4-1.8-0.4c-2.1,0-3.5,1.3-3.5,3.7c-0.2,1.8,1.1,3.4,2.8,3.6
	c0.2,0,0.4,0,0.6,0c0.6,0,1.3-0.1,1.9-0.4L67.1,457.1z"/>
<path class="st2" d="M70.1,454.6l-0.9,2.8H68l3-8.9h1.4l3,8.9h-1.2l-1-2.8H70.1z M73,453.7l-0.9-2.6c-0.2-0.6-0.3-1.1-0.5-1.6l0,0
	c-0.1,0.5-0.3,1.1-0.4,1.6l-0.9,2.6L73,453.7z"/>
<path class="st2" d="M76.7,448.6c0.8-0.1,1.6-0.2,2.4-0.2c1.3-0.1,2.6,0.3,3.6,1.1c0.9,0.8,1.3,2,1.2,3.2c0.1,1.3-0.4,2.5-1.3,3.5
	c-1.1,0.9-2.5,1.4-3.9,1.3c-0.7,0-1.4,0-2.1-0.1L76.7,448.6z M77.9,456.5c0.4,0,0.8,0.1,1.2,0c1.9,0.2,3.6-1.1,3.8-3
	c0-0.3,0-0.5,0-0.8c0-2.1-1.2-3.4-3.6-3.4c-0.5,0-0.9,0-1.3,0.1L77.9,456.5z"/>
<path class="st2" d="M93.1,452.9c0,3.1-1.9,4.7-4.1,4.7s-4-1.8-4-4.5s1.7-4.7,4.1-4.7S93.1,450.2,93.1,452.9z M86.2,453
	c0,1.9,1,3.6,2.8,3.6s2.8-1.7,2.8-3.7c0-1.8-0.9-3.6-2.8-3.6S86.2,451.1,86.2,453L86.2,453z"/>
<path class="st2" d="M94.6,448.5h1.2v7.9h3.8v1h-5L94.6,448.5z"/>
<path class="st2" d="M105.5,453.2H102v3.2h3.9v1h-5v-8.9h4.8v1H102v2.8h3.4L105.5,453.2z"/>
<path class="st2" d="M107.2,456c0.6,0.4,1.3,0.6,2.1,0.6c1.2,0,1.9-0.6,1.9-1.5s-0.5-1.3-1.7-1.8c-1.4-0.5-2.3-1.3-2.3-2.5
	s1.2-2.4,2.9-2.4c0.7,0,1.4,0.1,2,0.4l-0.3,0.9c-0.5-0.3-1.1-0.4-1.7-0.4c-1.2,0-1.7,0.7-1.7,1.3c0,0.8,0.5,1.2,1.8,1.7
	c1.5,0.6,2.3,1.3,2.3,2.6s-1,2.6-3.1,2.6c-0.8,0-1.6-0.2-2.3-0.6L107.2,456z"/>
<path class="st2" d="M48.8,463.9v7.7c0,0.6,0,1.2,0,1.6h-1l-0.1-1.1l0,0c-0.4,0.8-1.3,1.3-2.2,1.2c-1.5,0-2.7-1.3-2.7-3.2
	c0-2.1,1.3-3.4,2.9-3.4c0.8,0,1.5,0.3,1.9,1l0,0v-3.8L48.8,463.9z M47.6,469.5c0-0.2,0-0.3,0-0.5c-0.2-0.8-0.9-1.3-1.7-1.3
	c-1.2,0-1.9,1.1-1.9,2.5s0.7,2.4,1.9,2.4c0.8,0,1.5-0.6,1.7-1.4c0-0.2,0.1-0.3,0.1-0.5L47.6,469.5z"/>
<path class="st2" d="M51.4,470.3c-0.1,1.1,0.7,2.1,1.8,2.2c0.1,0,0.3,0,0.4,0c0.6,0,1.2-0.1,1.8-0.3l0.2,0.8
	c-0.7,0.3-1.4,0.4-2.1,0.4c-1.7,0.1-3.1-1.2-3.2-2.8c0-0.1,0-0.3,0-0.4c0-1.9,1.1-3.5,3-3.5c2.1,0,2.6,1.8,2.6,3c0,0.2,0,0.4,0,0.5
	L51.4,470.3z M54.8,469.5c0.1-0.9-0.5-1.7-1.4-1.9c-0.1,0-0.1,0-0.2,0c-1,0.1-1.8,0.9-1.8,1.9H54.8z M55.1,464.1l-1.6,1.9h-0.8
	l1.2-1.9H55.1z"/>
<path class="st2" d="M57.8,466.9l1.2,3.6c0.2,0.5,0.4,1.1,0.5,1.6l0,0c0.2-0.5,0.3-1.1,0.5-1.6l1.2-3.6h1.2l-2.5,6.4H59l-2.4-6.4
	H57.8z"/>
<path class="st2" d="M64.2,470.3c-0.1,1.1,0.7,2.1,1.8,2.2c0.1,0,0.3,0,0.4,0c0.6,0,1.2-0.1,1.8-0.3l0.2,0.8
	c-0.7,0.3-1.4,0.4-2.1,0.4c-1.7,0.1-3.1-1.2-3.2-2.8c0-0.1,0-0.3,0-0.4c0-1.9,1.1-3.5,3-3.5c2.1,0,2.6,1.8,2.6,3c0,0.2,0,0.4,0,0.5
	L64.2,470.3z M67.6,469.5c0.1-0.9-0.5-1.7-1.4-1.9c-0.1,0-0.1,0-0.2,0c-1,0.1-1.8,0.9-1.8,1.9H67.6z"/>
<path class="st2" d="M70.2,463.9h1.2v9.4h-1.2V463.9z"/>
<path class="st2" d="M79.1,470c0.1,1.7-1.1,3.2-2.8,3.4c-0.1,0-0.2,0-0.3,0c-1.7,0-3-1.3-3.1-2.9c0-0.1,0-0.3,0-0.4
	c-0.1-1.7,1.1-3.2,2.8-3.4c0.1,0,0.2,0,0.3,0c1.7-0.1,3,1.2,3.1,2.9C79.1,469.7,79.1,469.9,79.1,470z M74,470.1
	c0,1.4,0.8,2.5,1.9,2.5s2-1,2-2.5c0-1.1-0.6-2.5-1.9-2.5S74,468.9,74,470.1L74,470.1z"/>
<path class="st2" d="M80.6,469c0-0.8,0-1.5,0-2.1h1l0.1,1.1l0,0c0.5-0.8,1.3-1.3,2.3-1.2c1.6,0,2.7,1.3,2.7,3.2
	c0,2.3-1.4,3.4-2.9,3.4c-0.8,0-1.6-0.3-2-1l0,0v3.5h-1.1V469z M81.7,470.7c0,0.2,0,0.3,0,0.5c0.2,0.8,0.9,1.4,1.7,1.4
	c1.2,0,1.9-1,1.9-2.5c0-1.3-0.7-2.4-1.9-2.4c-0.8,0-1.6,0.6-1.8,1.4c0,0.2-0.1,0.3-0.1,0.5L81.7,470.7z"/>
<path class="st2" d="M88.1,469c0-0.8,0-1.5,0-2.1h1l0.1,1.1l0,0c0.5-0.8,1.3-1.3,2.3-1.2c1.6,0,2.7,1.3,2.7,3.2
	c0,2.3-1.4,3.4-2.9,3.4c-0.8,0-1.6-0.3-2-1l0,0v3.5h-1.1V469z M89.2,470.7c0,0.2,0,0.3,0.1,0.5c0.2,0.8,0.9,1.3,1.7,1.3
	c1.2,0,2-1,2-2.5c0-1.3-0.7-2.4-1.9-2.4c-0.8,0-1.6,0.6-1.8,1.4c0,0.2-0.1,0.3-0.1,0.5L89.2,470.7z"/>
<path class="st2" d="M96.3,470.3c-0.1,1.1,0.7,2.1,1.8,2.2c0.1,0,0.3,0,0.4,0c0.6,0,1.2-0.1,1.8-0.3l0.2,0.8
	c-0.7,0.3-1.4,0.4-2.1,0.4c-1.7,0.1-3.1-1.2-3.1-2.8c0-0.1,0-0.3,0-0.4c0-1.9,1.1-3.5,3-3.5c2.1,0,2.6,1.8,2.6,3c0,0.2,0,0.4,0,0.5
	L96.3,470.3z M99.7,469.5c0.1-0.9-0.5-1.7-1.4-1.9c-0.1,0-0.1,0-0.2,0c-1,0.1-1.8,0.9-1.8,1.9H99.7z"/>
<path class="st2" d="M107.6,471.5c0,0.7,0,1.2,0.1,1.8h-1l-0.1-1l0,0c-0.4,0.8-1.2,1.2-2.1,1.2c-1,0-2.2-0.6-2.2-2.8v-3.7h1.2v3.5
	c0,1.2,0.4,2,1.4,2c0.7,0,1.3-0.4,1.5-1.1c0.1-0.2,0.1-0.4,0.1-0.6v-3.9h1.2L107.6,471.5z"/>
<path class="st2" d="M109.5,468.9c0-0.8,0-1.4-0.1-2h1v1.2l0,0c0.2-0.8,0.9-1.4,1.8-1.4c0.1,0,0.2,0,0.3,0v1.1c-0.1,0-0.3,0-0.4,0
	c-0.8,0-1.5,0.7-1.6,1.5c0,0.2,0,0.4,0,0.5v3.4h-1.2L109.5,468.9z"/>
<line class="st3" x1="119.3" y1="391.2" x2="140.8" y2="391.2"/>
<path class="st2" d="M28.3,385.3h1.2v7.9h3.8v1h-5L28.3,385.3z"/>
<path class="st2" d="M39.2,390h-3.4v3.2h3.9v1h-5v-8.9h4.8v1h-3.7v2.8h3.5L39.2,390z"/>
<path class="st2" d="M51.4,390.3c-0.1-1.2-0.2-2.7-0.2-3.8l0,0c-0.3,1-0.7,2.1-1.1,3.4l-1.6,4.3h-0.9l-1.5-4.2
	c-0.4-1.3-0.8-2.4-1-3.5l0,0c0,1.1-0.1,2.6-0.2,3.9l-0.2,3.8h-1.2l0.6-8.9h1.5l1.5,4.3c0.4,1.1,0.7,2.1,0.9,3l0,0
	c0.2-0.9,0.5-1.9,0.9-3l1.6-4.3h1.5l0.5,8.9h-1.1L51.4,390.3z"/>
<path class="st2" d="M55.6,385.3v8.9h-1.2v-8.9H55.6z"/>
<path class="st2" d="M57.6,385.4c0.7-0.1,1.5-0.2,2.2-0.2c0.9-0.1,1.8,0.2,2.6,0.7c0.5,0.4,0.7,1.1,0.7,1.7c0,1.1-0.7,2-1.7,2.3l0,0
	c0.7,0.3,1.2,1,1.3,1.8c0.2,0.8,0.4,1.7,0.7,2.5h-1.2c-0.3-0.7-0.5-1.4-0.6-2.1c-0.3-1.2-0.8-1.7-1.8-1.7h-1.1v3.9h-1.2V385.4z
	 M58.8,389.5H60c1.2,0,2-0.7,2-1.7s-0.8-1.7-2-1.7c-0.4,0-0.8,0-1.1,0.1L58.8,389.5z"/>
<path class="st2" d="M72.4,389.7c0,3-1.9,4.7-4.1,4.7s-4-1.8-4-4.5s1.7-4.7,4.1-4.7S72.4,387,72.4,389.7z M65.5,389.8
	c0,1.9,1,3.6,2.8,3.6s2.9-1.7,2.9-3.7c0-1.8-0.9-3.6-2.8-3.6S65.5,387.9,65.5,389.8L65.5,389.8z"/>
<path class="st2" d="M75,385.3v8.9h-1.1v-8.9H75z"/>
<path class="st2" d="M77,385.4c0.7-0.1,1.5-0.2,2.2-0.2c0.9-0.1,1.8,0.2,2.6,0.7c0.5,0.4,0.7,1.1,0.7,1.7c0,1.1-0.6,2-1.6,2.3l0,0
	c0.7,0.3,1.2,1,1.3,1.8c0.2,0.8,0.4,1.7,0.7,2.5h-1.2c-0.3-0.7-0.5-1.4-0.6-2.1c-0.3-1.2-0.7-1.7-1.8-1.7h-1.1v3.9H77V385.4z
	 M78.2,389.5h1.2c1.2,0,2-0.7,2-1.7s-0.8-1.7-2-1.7c-0.4,0-0.8,0-1.1,0.1L78.2,389.5z"/>
<path class="st2" d="M94.5,390.3c-0.1-1.2-0.2-2.7-0.1-3.8l0,0c-0.3,1-0.7,2.1-1.1,3.4l-1.6,4.3h-0.9l-1.4-4.2
	c-0.4-1.3-0.8-2.4-1-3.5l0,0c0,1.1-0.1,2.6-0.2,3.9l-0.2,3.8h-1.1l0.6-8.9h1.5l1.5,4.3c0.4,1.1,0.7,2.1,0.9,3l0,0
	c0.2-0.9,0.6-1.9,0.9-3l1.6-4.3h1.5l0.6,8.9h-1.2L94.5,390.3z"/>
<path class="st2" d="M98.9,391.4l-0.9,2.8h-1.2l3-8.9h1.4l3,8.9H103l-1-2.8H98.9z M101.8,390.5l-0.9-2.6c-0.2-0.6-0.3-1.1-0.5-1.6
	l0,0c-0.1,0.5-0.3,1.1-0.4,1.6l-0.9,2.6L101.8,390.5z"/>
<path class="st2" d="M112.1,393.8c-0.9,0.3-1.8,0.5-2.7,0.5c-2.3,0.2-4.3-1.5-4.6-3.8c0-0.2,0-0.5,0-0.7c-0.1-2.5,1.8-4.5,4.3-4.6
	c0.2,0,0.3,0,0.5,0c0.8,0,1.5,0.1,2.2,0.4l-0.3,0.9c-0.6-0.3-1.3-0.4-2-0.4c-1.8-0.1-3.4,1.2-3.6,3.1c0,0.2,0,0.3,0,0.5
	c-0.2,1.8,1.1,3.4,2.9,3.6c0.2,0,0.3,0,0.5,0c0.5,0,1-0.1,1.5-0.2v-2.7h-1.8v-0.9h2.9L112.1,393.8z"/>
<path class="st2" d="M43.4,409.9c-0.6,0.3-1.2,0.4-1.8,0.4c-1.7,0.1-3.1-1.1-3.2-2.8c0-0.1,0-0.3,0-0.4c-0.1-1.8,1.3-3.3,3.1-3.4
	c0.1,0,0.2,0,0.3,0c0.6,0,1.1,0.1,1.6,0.3l-0.3,0.9c-0.4-0.2-0.9-0.3-1.4-0.3c-1.2,0-2.2,1-2.3,2.2c0,0.1,0,0.2,0,0.2
	c-0.1,1.2,0.8,2.3,2,2.4c0.1,0,0.2,0,0.2,0c0.5,0,1-0.1,1.4-0.3L43.4,409.9z"/>
<path class="st2" d="M50.5,406.8c0.1,1.7-1.1,3.2-2.9,3.4c-0.1,0-0.2,0-0.3,0c-1.7,0-3-1.3-3.1-2.9c0-0.1,0-0.3,0-0.4
	c-0.1-1.7,1.1-3.2,2.8-3.4c0.1,0,0.2,0,0.3,0c1.7,0,3,1.3,3.1,2.9C50.5,406.6,50.5,406.7,50.5,406.8z M45.4,406.9
	c0,1.4,0.8,2.5,1.9,2.5s2-1,2-2.5c0-1.1-0.5-2.4-1.9-2.4S45.4,405.7,45.4,406.9z"/>
<path class="st2" d="M52,405.4c0-0.7,0-1.2,0-1.7h1l0.1,1l0,0c0.4-0.8,1.2-1.2,2.1-1.2c0.9,0,2.3,0.5,2.3,2.7v3.8h-1.2v-3.7
	c0-1-0.4-1.9-1.5-1.9c-0.7,0-1.4,0.5-1.6,1.2c-0.1,0.2-0.1,0.4-0.1,0.5v3.9H52V405.4z"/>
<path class="st2" d="M59.4,410.1v-5.5h-0.9v-0.9h0.9v-0.3c-0.1-0.8,0.2-1.6,0.7-2.2c0.4-0.4,1-0.6,1.5-0.6c0.3,0,0.7,0.1,1,0.2
	l-0.2,0.9c-0.2-0.1-0.5-0.1-0.7-0.1c-1,0-1.2,0.9-1.2,1.9v0.3h1.5v0.9h-1.5v5.5H59.4z"/>
<path class="st2" d="M68.8,406.8c0.2,1.7-1.1,3.2-2.8,3.4c-0.1,0-0.2,0-0.3,0c-1.7,0-3.1-1.3-3.1-3c0-0.1,0-0.2,0-0.3
	c-0.1-1.7,1.1-3.2,2.8-3.4c0.1,0,0.2,0,0.3,0c1.7,0,3,1.3,3.1,2.9C68.8,406.6,68.8,406.7,68.8,406.8z M63.7,406.9
	c0,1.4,0.8,2.5,1.9,2.5s1.9-1,1.9-2.5c0-1.1-0.5-2.4-1.9-2.4S63.7,405.7,63.7,406.9z"/>
<path class="st2" d="M70.2,405.4c0-0.7,0-1.2,0-1.7h1l0.1,1l0,0c0.4-0.8,1.2-1.2,2.1-1.2c0.9,0,2.2,0.5,2.2,2.7v3.8h-1.2v-3.7
	c0-1-0.4-1.9-1.5-1.9c-0.7,0-1.4,0.5-1.6,1.2c-0.1,0.2-0.1,0.4-0.1,0.5v3.9h-1.2V405.4z"/>
<path class="st2" d="M83.1,400.7v7.7c0,0.6,0,1.2,0.1,1.6h-1L82,409l0,0c-0.4,0.8-1.3,1.3-2.2,1.2c-1.6,0-2.7-1.3-2.7-3.2
	c0-2.1,1.3-3.4,2.9-3.4c0.8,0,1.5,0.3,1.9,1l0,0v-3.9H83.1z M81.9,406.3c0-0.2,0-0.3,0-0.5c-0.2-0.8-0.9-1.3-1.7-1.3
	c-1.2,0-1.9,1-1.9,2.5s0.7,2.4,1.9,2.4c0.8,0,1.5-0.6,1.7-1.4c0-0.2,0-0.3,0-0.5L81.9,406.3z"/>
<path class="st2" d="M88.6,410.1l-0.1-0.8l0,0c-0.5,0.6-1.2,1-2,1c-1,0.1-1.9-0.6-2-1.7c0-0.1,0-0.1,0-0.2c0-1.5,1.4-2.4,3.8-2.4
	v-0.1c0.1-0.7-0.4-1.4-1.1-1.5c-0.1,0-0.2,0-0.3,0c-0.6,0-1.2,0.2-1.7,0.5l-0.3-0.8c0.6-0.4,1.4-0.6,2.1-0.6c2,0,2.4,1.3,2.4,2.6
	v2.4c0,0.5,0,1,0.1,1.5L88.6,410.1z M88.4,406.8c-1.3,0-2.7,0.2-2.7,1.4c-0.1,0.5,0.3,1,0.9,1.1c0.1,0,0.1,0,0.2,0
	c0.7,0,1.3-0.4,1.6-1.1c0-0.1,0.1-0.2,0.1-0.4V406.8z"/>
<path class="st2" d="M92.7,401.9v1.8h1.7v0.9h-1.7v3.4c0,0.8,0.2,1.2,0.9,1.2c0.2,0,0.5,0,0.7-0.1v0.9c-0.3,0.1-0.7,0.2-1,0.2
	c-0.5,0-0.9-0.2-1.2-0.5c-0.3-0.5-0.5-1.1-0.4-1.7v-3.5h-1v-0.9h1v-1.5L92.7,401.9z"/>
<path class="st2" d="M96.3,407.1c-0.1,1.1,0.7,2.1,1.8,2.2c0.1,0,0.3,0,0.4,0c0.6,0,1.2-0.1,1.8-0.3l0.2,0.8
	c-0.7,0.3-1.4,0.4-2.1,0.4c-1.7,0.1-3.1-1.2-3.1-2.8c0-0.1,0-0.2,0-0.4c0-1.9,1.1-3.4,3-3.4c2.1,0,2.6,1.8,2.6,3c0,0.2,0,0.4,0,0.5
	L96.3,407.1z M99.7,406.3c0.1-0.9-0.5-1.7-1.4-1.9c-0.1,0-0.1,0-0.2,0c-1,0.1-1.8,0.9-1.8,1.9H99.7z"/>
<path class="st2" d="M107.6,408.3c0,0.7,0,1.2,0,1.8h-1l-0.1-1l0,0c-0.4,0.8-1.2,1.2-2.1,1.2c-1,0-2.2-0.6-2.2-2.8v-3.7h1.2v3.5
	c0,1.2,0.4,2,1.4,2c0.7,0,1.3-0.4,1.5-1.1c0.1-0.2,0.1-0.4,0.1-0.6v-3.9h1.2L107.6,408.3z"/>
<path class="st2" d="M109.5,405.7c0-0.8,0-1.4-0.1-2h1v1.2l0,0c0.2-0.8,1-1.4,1.8-1.4c0.1,0,0.2,0,0.3,0v1.1c-0.1,0-0.3,0-0.4,0
	c-0.8,0-1.5,0.7-1.6,1.5c0,0.2,0,0.4,0,0.5v3.4h-1.2L109.5,405.7z"/>
<path class="st2" d="M54.1,427.8c0.5,0,0.9-0.2,1.3-0.5c0.3-0.4,0.5-0.9,0.5-2.4v-5.4H57v5.8c0.1,1-0.2,1.9-0.8,2.7
	c-0.6,0.5-1.3,0.7-2,0.7L54.1,427.8z M57.1,417.8c0,0.4-0.3,0.7-0.7,0.7c0,0,0,0-0.1,0c-0.4,0-0.7-0.3-0.7-0.7c0,0,0,0,0,0
	c0-0.4,0.3-0.7,0.7-0.7S57.1,417.4,57.1,417.8C57.1,417.8,57.1,417.8,57.1,417.8z"/>
<path class="st2" d="M64.7,422.7c0.1,1.7-1.1,3.2-2.8,3.4c-0.1,0-0.2,0-0.3,0c-1.7,0-3-1.3-3.1-2.9c0-0.1,0-0.3,0-0.4
	c-0.1-1.7,1.1-3.2,2.8-3.4c0.1,0,0.2,0,0.3,0c1.7-0.1,3,1.2,3.1,2.9C64.7,422.4,64.7,422.6,64.7,422.7z M59.6,422.8
	c0,1.4,0.8,2.5,1.9,2.5s1.9-1,1.9-2.5c0-1.1-0.5-2.5-1.9-2.5S59.6,421.5,59.6,422.8z"/>
<path class="st2" d="M71.5,424.2c0,0.7,0,1.2,0,1.8h-1l-0.1-1l0,0c-0.4,0.8-1.2,1.2-2.1,1.2c-1,0-2.2-0.6-2.2-2.8v-3.7h1.2v3.5
	c0,1.2,0.4,2,1.4,2c0.7,0,1.3-0.4,1.5-1.1c0.1-0.2,0.1-0.4,0.1-0.6v-3.9h1.2L71.5,424.2z"/>
<path class="st2" d="M73.4,421.5c0-0.8,0-1.4-0.1-2h1v1.3l0,0c0.2-0.8,1-1.3,1.8-1.4c0.1,0,0.2,0,0.3,0v1.1c-0.1,0-0.3,0-0.4,0
	c-0.8,0.1-1.4,0.7-1.4,1.5c0,0.2,0,0.4,0,0.5v3.4h-1.2V421.5z"/>
<path class="st2" d="M77.8,421.3c0-0.7,0-1.2,0-1.7h1l0.1,1l0,0c0.4-0.8,1.3-1.2,2.2-1.1c0.9,0,2.2,0.5,2.2,2.7v3.8h-1.2v-3.7
	c0-1-0.4-1.9-1.5-1.9c-0.7,0-1.4,0.5-1.6,1.2c0,0.2-0.1,0.4-0.1,0.5v3.9h-1.1V421.3z"/>
<path class="st2" d="M88.7,425.9l-0.1-0.8l0,0c-0.5,0.6-1.2,1-2,1c-1,0.1-1.9-0.6-2-1.6c0-0.1,0-0.1,0-0.2c0-1.5,1.4-2.4,3.8-2.4
	v-0.1c0.1-0.7-0.4-1.4-1.1-1.5c-0.1,0-0.2,0-0.3,0c-0.6,0-1.2,0.2-1.7,0.5l-0.3-0.8c0.6-0.4,1.4-0.6,2.1-0.6c1.9,0,2.4,1.3,2.4,2.6
	v2.4c0,0.5,0,1,0.1,1.5L88.7,425.9z M88.5,422.7c-1.3,0-2.7,0.2-2.7,1.4c-0.1,0.5,0.3,1,0.9,1.1c0.1,0,0.1,0,0.2,0
	c0.7,0,1.3-0.4,1.6-1.1c0-0.1,0-0.2,0-0.4L88.5,422.7z"/>
<path class="st2" d="M91.5,416.5h1.2v9.4h-1.2V416.5z"/>
<path class="st2" d="M95.9,417.7c0,0.4-0.3,0.7-0.7,0.7s-0.7-0.3-0.7-0.7c0-0.4,0.3-0.7,0.7-0.7c0,0,0,0,0,0
	C95.6,417,95.9,417.3,95.9,417.7C95.9,417.7,95.9,417.7,95.9,417.7z M94.6,425.9v-6.4h1.2v6.4H94.6z"/>
<path class="st2" d="M97.5,424.8c0.5,0.3,1,0.4,1.5,0.5c0.8,0,1.2-0.4,1.2-1s-0.3-0.9-1.2-1.2c-1.2-0.4-1.7-1-1.7-1.8
	c0.1-1.1,1-1.9,2.1-1.9c0,0,0.1,0,0.1,0c0.5,0,1.1,0.1,1.6,0.4l-0.3,0.9c-0.4-0.2-0.9-0.4-1.3-0.4c-0.7,0-1,0.4-1,0.9
	s0.4,0.8,1.2,1.1c1.1,0.4,1.7,1,1.7,1.9c0,1.1-0.9,1.9-2.4,1.9c-0.6,0-1.2-0.1-1.8-0.4L97.5,424.8z"/>
<path class="st2" d="M104.3,417.7v1.8h1.7v0.9h-1.7v3.5c0,0.8,0.2,1.2,0.9,1.2c0.2,0,0.5,0,0.7-0.1v0.9c-0.3,0.1-0.7,0.2-1,0.2
	c-0.5,0-0.9-0.2-1.3-0.5c-0.3-0.5-0.5-1.1-0.4-1.7v-3.5h-1v-0.9h1V418L104.3,417.7z"/>
<path class="st2" d="M107.9,423c-0.1,1.1,0.7,2.1,1.8,2.2c0.1,0,0.3,0,0.4,0c0.6,0,1.2-0.1,1.8-0.3l0.2,0.8
	c-0.7,0.3-1.4,0.4-2.1,0.4c-1.7,0.1-3.1-1.2-3.1-2.8c0-0.1,0-0.2,0-0.4c0-1.9,1.1-3.5,3-3.5c2.1,0,2.6,1.8,2.6,3c0,0.2,0,0.4,0,0.5
	L107.9,423z M111.3,422.2c0.1-0.9-0.5-1.7-1.4-1.9c-0.1,0-0.1,0-0.2,0c-1,0.1-1.8,0.9-1.8,1.9H111.3z"/>
<path class="st2" d="M141.4,533.6v-10.1l0,0h67l0,0v15.7l0,0h-61.4C144,539.2,141.4,536.7,141.4,533.6z"/>
<path class="st2" d="M141.4,561.1v-16.6l0,0h67l0,0v22.2l0,0h-61.4C144,566.7,141.4,564.2,141.4,561.1
	C141.4,561.1,141.4,561.1,141.4,561.1z"/>
<path class="st2" d="M141.4,818.7V574.1l0,0h67l0,0v250.3l0,0h-61.4C144,824.4,141.4,821.8,141.4,818.7L141.4,818.7z"/>
<path class="st2" d="M50.4,533.3l-2.3-8.9h1.2l1.1,4.5c0.3,1.1,0.5,2.2,0.7,3.1l0,0c0.2-0.9,0.4-1.9,0.7-3.1l1.2-4.5h1.2l1.1,4.5
	c0.2,1.1,0.5,2.1,0.6,3.1l0,0c0.2-1,0.4-2,0.7-3.1l1.2-4.5H59l-2.5,8.9h-1.2l-1.1-4.6c-0.2-1-0.4-1.9-0.6-2.9l0,0
	c-0.2,1-0.4,2-0.7,2.9l-1.3,4.6H50.4z"/>
<path class="st2" d="M64.7,529.1h-3.5v3.2h3.9v1h-5v-8.9H65v1h-3.7v2.8h3.4L64.7,529.1z"/>
<path class="st2" d="M66.6,524.5c0.8-0.1,1.6-0.2,2.4-0.2c1.3-0.1,2.6,0.3,3.6,1.1c0.9,0.8,1.3,2,1.3,3.2c0.1,1.3-0.4,2.5-1.3,3.5
	c-1.1,0.9-2.6,1.4-4,1.3c-0.7,0-1.4,0-2.1-0.1L66.6,524.5z M67.8,532.4c0.4,0,0.8,0,1.2,0c1.9,0.2,3.6-1.1,3.8-3c0-0.3,0-0.5,0-0.8
	c0-2.1-1.2-3.4-3.6-3.4c-0.5,0-0.9,0-1.3,0.1L67.8,532.4z"/>
<path class="st2" d="M83,528.7c0,3.1-1.9,4.7-4.1,4.7s-4-1.8-4-4.5s1.8-4.7,4.1-4.7S83,526.1,83,528.7z M76.1,528.9
	c0,1.9,1,3.6,2.8,3.6s2.8-1.7,2.8-3.7c0-1.8-0.9-3.6-2.8-3.6S76.1,526.9,76.1,528.9L76.1,528.9z"/>
<path class="st2" d="M84.5,524.5c0.8-0.1,1.6-0.2,2.4-0.2c1.3-0.1,2.6,0.3,3.6,1.1c0.9,0.8,1.3,2,1.3,3.2c0.1,1.3-0.4,2.5-1.3,3.5
	c-1.1,0.9-2.5,1.4-3.9,1.3c-0.7,0-1.4,0-2.1-0.1V524.5z M85.7,532.4c0.4,0,0.8,0,1.2,0c1.9,0.2,3.6-1.1,3.8-3c0-0.3,0-0.5,0-0.8
	c0-2.1-1.2-3.4-3.6-3.4c-0.5,0-0.9,0-1.3,0.1L85.7,532.4z"/>
<path class="st2" d="M94.6,530.5l-0.9,2.8h-1.2l3-8.9h1.4l3,8.9h-1.2l-1-2.8H94.6z M97.5,529.6l-0.9-2.6c-0.2-0.6-0.3-1.1-0.5-1.6
	l0,0c-0.1,0.5-0.3,1.1-0.4,1.6l-0.9,2.6L97.5,529.6z"/>
<path class="st2" d="M101.9,525.3h-2.7v-1h6.6v1h-2.7v7.9h-1.2L101.9,525.3z"/>
<path class="st2" d="M107.2,530.5l-0.9,2.8h-1.2l3-8.9h1.4l3,8.9h-1.2l-1-2.8H107.2z M110.2,529.6l-0.9-2.6
	c-0.2-0.6-0.3-1.1-0.5-1.6l0,0c-0.1,0.5-0.3,1.1-0.4,1.6l-0.9,2.6H110.2z"/>
<path class="st2" d="M36.7,539.8v7.7c0,0.6,0,1.2,0.1,1.7h-1l-0.1-1.1l0,0c-0.4,0.8-1.3,1.3-2.2,1.2c-1.5,0-2.7-1.3-2.7-3.2
	c0-2.1,1.3-3.4,2.9-3.4c0.8,0,1.5,0.3,1.9,1l0,0v-3.8H36.7z M35.5,545.4c0-0.2,0-0.3,0-0.5c-0.2-0.8-0.9-1.3-1.7-1.3
	c-1.2,0-1.9,1.1-1.9,2.5s0.7,2.4,1.9,2.4c0.8,0,1.5-0.6,1.7-1.4c0-0.2,0.1-0.3,0.1-0.5L35.5,545.4z"/>
<path class="st2" d="M42.2,549.1l-0.1-0.8l0,0c-0.5,0.6-1.2,1-2,1c-1,0.1-1.9-0.6-2-1.6c0-0.1,0-0.1,0-0.2c0-1.5,1.4-2.4,3.8-2.4
	v-0.1c0.1-0.7-0.4-1.4-1.2-1.5c-0.1,0-0.2,0-0.3,0c-0.6,0-1.2,0.2-1.7,0.5l-0.3-0.8c0.6-0.4,1.4-0.6,2.1-0.6c2,0,2.4,1.3,2.4,2.6
	v2.4c0,0.5,0,1,0.1,1.5H42.2z M42,545.9c-1.3,0-2.7,0.2-2.7,1.4c-0.1,0.5,0.3,1,0.9,1.1c0.1,0,0.1,0,0.2,0c0.7,0,1.3-0.4,1.6-1.1
	c0-0.1,0-0.2,0-0.4L42,545.9z"/>
<path class="st2" d="M46.3,540.9v1.8H48v0.9h-1.7v3.4c0,0.8,0.2,1.2,0.9,1.2c0.2,0,0.5,0,0.7-0.1l0,0.9c-0.3,0.1-0.7,0.2-1,0.2
	c-0.5,0-0.9-0.2-1.2-0.5c-0.3-0.5-0.5-1.1-0.5-1.7v-3.5h-1v-0.9h1v-1.5L46.3,540.9z"/>
<path class="st2" d="M52.8,549.1l-0.1-0.8l0,0c-0.5,0.6-1.2,1-2,1c-1,0.1-1.9-0.6-2-1.7c0-0.1,0-0.1,0-0.2c0-1.5,1.4-2.4,3.8-2.4
	v-0.1c0.1-0.7-0.4-1.4-1.2-1.5c-0.1,0-0.2,0-0.3,0c-0.6,0-1.2,0.2-1.7,0.5l-0.3-0.8c0.6-0.4,1.4-0.6,2.1-0.6c2,0,2.4,1.3,2.4,2.6
	v2.4c0,0.5,0,1,0.1,1.5H52.8z M52.7,545.9c-1.3,0-2.7,0.2-2.7,1.4c-0.1,0.5,0.3,1,0.9,1.1c0.1,0,0.1,0,0.2,0c0.7,0,1.3-0.4,1.5-1.1
	c0-0.1,0.1-0.2,0.1-0.4V545.9z"/>
<path class="st2" d="M54.1,551c0.5,0,0.9-0.2,1.3-0.5c0.3-0.4,0.5-0.9,0.5-2.4v-5.3H57v5.8c0.1,0.9-0.2,1.9-0.8,2.6
	c-0.6,0.5-1.3,0.7-2,0.7L54.1,551z M57.1,541c0,0.4-0.3,0.7-0.7,0.7c0,0,0,0-0.1,0c-0.4,0-0.7-0.3-0.7-0.7c0,0,0,0,0,0
	c0-0.4,0.3-0.7,0.7-0.7S57.1,540.6,57.1,541C57.1,541,57.1,541,57.1,541z"/>
<path class="st2" d="M64.7,545.9c0.1,1.7-1.1,3.2-2.8,3.4c-0.1,0-0.2,0-0.3,0c-1.7,0-3-1.3-3.1-2.9c0-0.1,0-0.2,0-0.4
	c-0.1-1.7,1.1-3.2,2.8-3.4c0.1,0,0.2,0,0.3,0c1.7-0.1,3,1.3,3.1,2.9C64.7,545.6,64.7,545.8,64.7,545.9z M59.6,546
	c0,1.4,0.8,2.5,1.9,2.5s1.9-1,1.9-2.5c0-1.1-0.5-2.5-1.9-2.5S59.6,544.7,59.6,546L59.6,546z"/>
<path class="st2" d="M71.5,547.4c0,0.7,0,1.2,0,1.8h-1l-0.1-1l0,0c-0.4,0.8-1.2,1.2-2.1,1.2c-1,0-2.2-0.6-2.2-2.8v-3.7h1.2v3.5
	c0,1.2,0.4,2,1.4,2c0.7,0,1.3-0.4,1.5-1.1c0.1-0.2,0.1-0.4,0.1-0.6v-3.9h1.2L71.5,547.4z"/>
<path class="st2" d="M73.4,544.7c0-0.8,0-1.4-0.1-2h1v1.2l0,0c0.2-0.8,1-1.3,1.8-1.4c0.1,0,0.2,0,0.3,0v1.1c-0.1,0-0.3,0-0.4,0
	c-0.8,0-1.5,0.7-1.6,1.5c0,0.2,0,0.4,0,0.5v3.4h-1.1V544.7z"/>
<path class="st2" d="M77.8,544.5c0-0.7,0-1.2,0-1.7h1l0.1,1l0,0c0.4-0.8,1.3-1.2,2.2-1.2c0.9,0,2.2,0.5,2.2,2.7v3.8h-1.2v-3.7
	c0-1-0.4-1.9-1.5-1.9c-0.7,0-1.4,0.5-1.6,1.2c0,0.2-0.1,0.4-0.1,0.5v3.8h-1.1V544.5z"/>
<path class="st2" d="M88.7,549.1l-0.1-0.8l0,0c-0.5,0.6-1.2,1-2,1c-1,0.1-1.9-0.6-2-1.6c0-0.1,0-0.1,0-0.2c0-1.5,1.4-2.4,3.8-2.4
	v-0.1c0.1-0.7-0.4-1.4-1.1-1.5c-0.1,0-0.2,0-0.3,0c-0.6,0-1.2,0.2-1.7,0.5l-0.3-0.8c0.6-0.4,1.4-0.6,2.1-0.6c1.9,0,2.4,1.3,2.4,2.6
	v2.4c0,0.5,0,1,0.1,1.5H88.7z M88.5,545.9c-1.3,0-2.7,0.2-2.7,1.4c-0.1,0.5,0.3,1,0.9,1.1c0.1,0,0.1,0,0.2,0c0.7,0,1.3-0.4,1.6-1.1
	c0-0.1,0-0.2,0-0.4L88.5,545.9z"/>
<path class="st2" d="M91.5,539.8h1.2v9.4h-1.2V539.8z"/>
<path class="st2" d="M95.9,540.9c0,0.4-0.3,0.7-0.7,0.7s-0.7-0.3-0.7-0.7c0-0.4,0.3-0.7,0.7-0.7c0,0,0,0,0,0
	C95.6,540.2,95.9,540.5,95.9,540.9C95.9,540.9,95.9,540.9,95.9,540.9z M94.6,549.1v-6.4h1.2v6.4H94.6z"/>
<path class="st2" d="M97.5,548c0.5,0.3,1,0.4,1.5,0.5c0.8,0,1.2-0.4,1.2-1s-0.3-0.8-1.2-1.2c-1.2-0.4-1.7-1-1.7-1.8
	c0.1-1.1,1-1.9,2.1-1.9c0,0,0.1,0,0.1,0c0.5,0,1.1,0.1,1.6,0.4l-0.3,0.8c-0.4-0.2-0.9-0.4-1.3-0.4c-0.7,0-1,0.4-1,0.9
	s0.4,0.8,1.2,1.1c1.1,0.4,1.7,1,1.7,1.9c0,1.1-0.9,1.9-2.4,1.9c-0.6,0-1.2-0.1-1.8-0.5L97.5,548z"/>
<path class="st2" d="M104.3,540.9v1.8h1.7v0.9h-1.7v3.4c0,0.8,0.2,1.2,0.9,1.2c0.2,0,0.5,0,0.7-0.1v0.9c-0.3,0.1-0.7,0.2-1,0.2
	c-0.5,0-0.9-0.2-1.3-0.5c-0.3-0.5-0.5-1.1-0.4-1.7v-3.5h-1v-0.9h1v-1.5L104.3,540.9z"/>
<path class="st2" d="M107.9,546.2c-0.1,1.1,0.7,2.1,1.8,2.2c0.1,0,0.3,0,0.4,0c0.6,0,1.2-0.1,1.8-0.3l0.2,0.8
	c-0.7,0.3-1.4,0.4-2.1,0.4c-1.7,0.1-3.1-1.2-3.1-2.8c0-0.1,0-0.3,0-0.4c0-1.9,1.1-3.5,3-3.5c2.1,0,2.6,1.8,2.6,3c0,0.2,0,0.4,0,0.5
	L107.9,546.2z M111.3,545.3c0.1-0.9-0.5-1.7-1.4-1.9c-0.1,0-0.1,0-0.2,0c-1,0.1-1.8,0.9-1.8,1.9H111.3z"/>
<line class="st3" x1="118.9" y1="564.3" x2="142.8" y2="564.1"/>
<path class="st2" d="M49,560.3h1.2v7.9H54v1h-5L49,560.3z"/>
<path class="st2" d="M56.4,560.3v8.9h-1.1v-8.9H56.4z"/>
<path class="st2" d="M58.4,560.5c0.7-0.1,1.4-0.2,2.1-0.2c0.9-0.1,1.7,0.1,2.4,0.6c0.5,0.4,0.8,1,0.8,1.6c0,0.9-0.6,1.7-1.5,2l0,0
	c1.1,0.2,1.8,1.1,1.8,2.2c0,0.7-0.3,1.3-0.8,1.8c-0.9,0.7-2,1-3.1,0.8c-0.6,0-1.2,0-1.8-0.1L58.4,560.5z M59.6,564.1h1.1
	c1.2,0,1.9-0.6,1.9-1.5c0-1-0.8-1.5-2-1.5c-0.3,0-0.7,0-1,0.1L59.6,564.1z M59.6,568.4c0.3,0,0.7,0,1,0c1.2,0,2.3-0.4,2.3-1.7
	s-1-1.7-2.3-1.7h-1L59.6,568.4z"/>
<path class="st2" d="M70.2,565.1h-3.4v3.2h3.9v1h-5v-8.9h4.8v1h-3.7v2.8h3.4V565.1z M70,558.3l-1.7,1.5h-0.9l1.2-1.5H70z"/>
<path class="st2" d="M72.1,560.5c0.7-0.1,1.5-0.2,2.2-0.2c0.9-0.1,1.8,0.2,2.6,0.7c0.5,0.4,0.7,1.1,0.7,1.7c0,1.1-0.7,2-1.7,2.3l0,0
	c0.7,0.3,1.2,1,1.3,1.8c0.2,0.8,0.4,1.6,0.7,2.4h-1.2c-0.3-0.7-0.5-1.4-0.6-2.1c-0.3-1.2-0.8-1.7-1.8-1.7h-1.1v3.9h-1.2V560.5z
	 M73.2,564.5h1.2c1.2,0,2-0.7,2-1.7s-0.8-1.7-2-1.7c-0.4,0-0.8,0-1.1,0.1L73.2,564.5z"/>
<path class="st2" d="M80.7,566.4l-0.9,2.8h-1.2l3-8.9H83l3,8.9h-1.2l-1-2.8H80.7z M83.7,565.5l-0.9-2.5c-0.2-0.6-0.3-1.1-0.5-1.6
	l0,0c-0.1,0.5-0.3,1.1-0.4,1.6l-0.9,2.6H83.7z"/>
<path class="st2" d="M88.1,561.3h-2.7v-1h6.6v1h-2.7v7.9h-1.1V561.3z"/>
<path class="st2" d="M94.1,560.3v8.9h-1.2v-8.9H94.1z"/>
<path class="st2" d="M103.7,564.7c0,3-1.9,4.7-4.1,4.7s-4-1.8-4-4.5s1.8-4.7,4.1-4.7S103.7,562,103.7,564.7z M96.8,564.8
	c0,1.9,1,3.6,2.8,3.6s2.8-1.7,2.8-3.7c0-1.8-0.9-3.6-2.8-3.6S96.8,562.9,96.8,564.8z"/>
<path class="st2" d="M105.2,569.2v-8.9h1.3l2.8,4.5c0.6,0.9,1.1,1.9,1.6,2.9l0,0c-0.1-1.2-0.1-2.3-0.1-3.7v-3.7h1.1v8.9h-1.1
	l-2.8-4.5c-0.6-1-1.2-2-1.7-3l0,0c0.1,1.1,0.1,2.2,0.1,3.7v3.8L105.2,569.2z"/>
<path class="st2" d="M36.7,575.7v7.7c0,0.6,0,1.2,0.1,1.6h-1l-0.1-1.1l0,0c-0.4,0.8-1.3,1.3-2.2,1.2c-1.5,0-2.7-1.3-2.7-3.2
	c0-2.1,1.3-3.4,2.9-3.4c0.8,0,1.5,0.3,1.9,1l0,0v-3.8L36.7,575.7z M35.5,581.3c0-0.2,0-0.3,0-0.5c-0.2-0.8-0.9-1.3-1.7-1.3
	c-1.2,0-1.9,1.1-1.9,2.5s0.7,2.4,1.9,2.4c0.8,0,1.5-0.6,1.7-1.4c0-0.2,0.1-0.3,0.1-0.5L35.5,581.3z"/>
<path class="st2" d="M42.2,585.1l-0.1-0.8l0,0c-0.4,0.6-1.2,1-2,1c-1,0.1-1.9-0.6-2-1.6c0-0.1,0-0.1,0-0.2c0-1.5,1.4-2.4,3.8-2.4
	v-0.1c0.1-0.7-0.4-1.4-1.2-1.5c-0.1,0-0.2,0-0.3,0c-0.6,0-1.2,0.2-1.7,0.5l-0.3-0.8c0.6-0.4,1.4-0.6,2.1-0.6c2,0,2.4,1.3,2.4,2.6
	v2.4c0,0.5,0,1,0.1,1.5L42.2,585.1z M42,581.8c-1.3,0-2.7,0.2-2.7,1.4c-0.1,0.5,0.3,1,0.9,1.1c0.1,0,0.1,0,0.2,0
	c0.7,0,1.3-0.4,1.6-1.1c0-0.1,0-0.2,0-0.4L42,581.8z"/>
<path class="st2" d="M46.3,576.9v1.8H48v0.9h-1.7v3.4c0,0.8,0.2,1.2,0.9,1.2c0.2,0,0.5,0,0.7-0.1l0,0.9c-0.3,0.1-0.7,0.2-1,0.2
	c-0.5,0-0.9-0.2-1.2-0.5c-0.3-0.5-0.5-1.1-0.5-1.7v-3.5h-1v-0.9h1v-1.5L46.3,576.9z"/>
<path class="st2" d="M52.8,585.1l-0.1-0.8l0,0c-0.5,0.6-1.2,1-2,1c-1,0.1-1.9-0.6-2-1.7c0-0.1,0-0.1,0-0.2c0-1.5,1.4-2.4,3.8-2.4
	v-0.1c0.1-0.7-0.4-1.4-1.2-1.5c-0.1,0-0.2,0-0.3,0c-0.6,0-1.2,0.2-1.7,0.5l-0.3-0.8c0.6-0.4,1.4-0.6,2.1-0.6c2,0,2.4,1.3,2.4,2.6
	v2.4c0,0.5,0,1,0.1,1.5L52.8,585.1z M52.7,581.8c-1.3,0-2.7,0.2-2.7,1.4c-0.1,0.5,0.3,1,0.9,1.1c0.1,0,0.1,0,0.2,0
	c0.7,0,1.3-0.4,1.5-1.1c0-0.1,0.1-0.2,0.1-0.4V581.8z"/>
<path class="st2" d="M54.1,586.9c0.5,0,0.9-0.2,1.3-0.5c0.3-0.4,0.5-0.9,0.5-2.4v-5.3H57v5.8c0.1,0.9-0.2,1.9-0.8,2.6
	c-0.6,0.5-1.3,0.7-2,0.7L54.1,586.9z M57.1,576.9c0,0.4-0.3,0.7-0.7,0.7c0,0,0,0-0.1,0c-0.4,0-0.7-0.3-0.7-0.7c0,0,0,0,0,0
	c0-0.4,0.3-0.7,0.7-0.7S57.1,576.5,57.1,576.9C57.1,576.9,57.1,576.9,57.1,576.9z"/>
<path class="st2" d="M64.7,581.8c0.1,1.7-1.1,3.2-2.8,3.4c-0.1,0-0.2,0-0.3,0c-1.7,0-3-1.3-3.1-2.9c0-0.1,0-0.2,0-0.3
	c-0.1-1.7,1.1-3.2,2.8-3.4c0.1,0,0.2,0,0.3,0c1.7,0,3,1.3,3.1,2.9C64.7,581.6,64.7,581.7,64.7,581.8z M59.6,581.9
	c0,1.4,0.8,2.5,1.9,2.5s1.9-1,1.9-2.5c0-1.1-0.5-2.5-1.9-2.5S59.6,580.7,59.6,581.9L59.6,581.9z"/>
<path class="st2" d="M71.5,583.3c0,0.7,0,1.2,0,1.7h-1l-0.1-1l0,0c-0.4,0.8-1.2,1.2-2.1,1.2c-1,0-2.2-0.6-2.2-2.8v-3.8h1.2v3.5
	c0,1.2,0.4,2,1.4,2c0.7,0,1.3-0.4,1.5-1.1c0.1-0.2,0.1-0.4,0.1-0.6v-3.9h1.2L71.5,583.3z"/>
<path class="st2" d="M73.4,580.7c0-0.8,0-1.4-0.1-2h1v1.3l0,0c0.2-0.8,1-1.3,1.8-1.4c0.1,0,0.2,0,0.3,0v1.1c-0.1,0-0.3,0-0.4,0
	c-0.8,0-1.5,0.7-1.6,1.5c0,0.2,0,0.4,0,0.5v3.4h-1.1V580.7z"/>
<path class="st2" d="M77.8,580.4c0-0.7,0-1.2,0-1.7h1l0.1,1l0,0c0.5-0.7,1.3-1.2,2.2-1.1c0.9,0,2.2,0.5,2.2,2.7v3.8h-1.2v-3.7
	c0-1-0.4-1.9-1.5-1.9c-0.7,0-1.4,0.5-1.6,1.2c-0.1,0.2-0.1,0.4-0.1,0.5v3.8h-1.1V580.4z"/>
<path class="st2" d="M88.7,585.1l-0.1-0.8l0,0c-0.5,0.6-1.2,1-2,1c-1,0.1-1.9-0.6-2-1.6c0-0.1,0-0.1,0-0.2c0-1.5,1.4-2.4,3.8-2.4
	v-0.1c0.1-0.7-0.4-1.4-1.1-1.5c-0.1,0-0.2,0-0.3,0c-0.6,0-1.2,0.2-1.7,0.5l-0.3-0.8c0.6-0.4,1.4-0.6,2.1-0.6c1.9,0,2.4,1.3,2.4,2.6
	v2.4c0,0.5,0,1,0.1,1.5L88.7,585.1z M88.5,581.8c-1.3,0-2.7,0.2-2.7,1.4c-0.1,0.5,0.3,1,0.9,1.1c0.1,0,0.1,0,0.2,0
	c0.7,0,1.3-0.4,1.6-1.1c0-0.1,0-0.2,0-0.4L88.5,581.8z"/>
<path class="st2" d="M91.5,575.7h1.2v9.4h-1.2V575.7z"/>
<path class="st2" d="M95.9,576.9c0,0.4-0.3,0.7-0.7,0.7s-0.7-0.3-0.7-0.7c0-0.4,0.3-0.7,0.7-0.7c0,0,0,0,0,0
	C95.6,576.2,95.9,576.5,95.9,576.9C95.9,576.9,95.9,576.9,95.9,576.9z M94.6,585.1v-6.4h1.2v6.4H94.6z"/>
<path class="st2" d="M97.5,583.9c0.5,0.3,1,0.4,1.5,0.5c0.8,0,1.2-0.4,1.2-1s-0.3-0.8-1.2-1.2c-1.2-0.4-1.7-1-1.7-1.8
	c0.1-1.1,1-1.9,2.1-1.9c0,0,0.1,0,0.1,0c0.5,0,1.1,0.1,1.6,0.4l-0.3,0.8c-0.4-0.2-0.9-0.4-1.3-0.4c-0.7,0-1,0.4-1,0.9
	s0.4,0.8,1.2,1.1c1.1,0.4,1.7,1,1.7,1.9c0,1.1-0.9,1.9-2.4,1.9c-0.6,0-1.2-0.1-1.8-0.4L97.5,583.9z"/>
<path class="st2" d="M104.3,576.9v1.8h1.7v0.9h-1.7v3.4c0,0.8,0.2,1.2,0.9,1.2c0.2,0,0.5,0,0.7-0.1v0.9c-0.3,0.1-0.7,0.2-1,0.2
	c-0.5,0-0.9-0.2-1.3-0.5c-0.3-0.5-0.5-1.1-0.4-1.7v-3.5h-1v-0.9h1v-1.5L104.3,576.9z"/>
<path class="st2" d="M107.9,582.1c-0.1,1.1,0.7,2.1,1.8,2.2c0.1,0,0.3,0,0.4,0c0.6,0,1.2-0.1,1.8-0.3l0.2,0.8
	c-0.7,0.3-1.4,0.4-2.1,0.4c-1.7,0.1-3.1-1.2-3.1-2.8c0-0.1,0-0.2,0-0.4c0-1.9,1.1-3.5,3-3.5c2.1,0,2.6,1.8,2.6,3c0,0.2,0,0.4,0,0.5
	L107.9,582.1z M111.3,581.3c0.1-0.9-0.5-1.7-1.4-1.9c-0.1,0-0.1,0-0.2,0c-1,0.1-1.8,0.9-1.8,1.9H111.3z"/>
<line class="st3" x1="120.1" y1="679.8" x2="141.5" y2="679.8"/>
<path class="st2" d="M50.4,683.4l-2.3-8.9h1.2l1.1,4.5c0.3,1.1,0.5,2.2,0.7,3.1l0,0c0.2-0.9,0.4-2,0.7-3.1l1.2-4.5h1.2l1.1,4.5
	c0.2,1.1,0.5,2.1,0.6,3.1l0,0c0.2-1,0.4-2,0.7-3.1l1.2-4.5H59l-2.5,8.9h-1.2l-1.1-4.6c-0.3-1-0.4-1.9-0.6-2.9l0,0
	c-0.2,1-0.4,2-0.7,2.9l-1.3,4.6L50.4,683.4z"/>
<path class="st2" d="M64.7,679.2h-3.5v3.2h3.9v1h-5v-8.9H65v1h-3.7v2.8h3.4L64.7,679.2z"/>
<path class="st2" d="M66.6,674.6c0.8-0.1,1.6-0.2,2.4-0.2c1.3-0.1,2.6,0.3,3.6,1.1c0.9,0.8,1.3,2,1.3,3.2c0.1,1.3-0.4,2.5-1.3,3.5
	c-1.1,0.9-2.6,1.4-4,1.3c-0.7,0-1.4,0-2.1-0.1L66.6,674.6z M67.8,682.5c0.4,0,0.8,0.1,1.2,0.1c2.5,0,3.8-1.4,3.8-3.8
	c0-2.1-1.2-3.4-3.6-3.4c-0.5,0-0.9,0-1.3,0.1L67.8,682.5z"/>
<path class="st2" d="M83,678.9c0,3-1.9,4.7-4.1,4.7s-4-1.8-4-4.5s1.8-4.7,4.1-4.7S83,676.2,83,678.9z M76.1,679c0,1.9,1,3.6,2.8,3.6
	s2.8-1.7,2.8-3.7c0-1.8-0.9-3.6-2.8-3.6S76.1,677.1,76.1,679L76.1,679z"/>
<path class="st2" d="M84.5,674.6c0.8-0.1,1.6-0.2,2.4-0.2c1.3-0.1,2.6,0.3,3.6,1.1c0.9,0.8,1.3,2,1.3,3.2c0.1,1.3-0.4,2.5-1.3,3.5
	c-1.1,0.9-2.5,1.4-3.9,1.3c-0.7,0-1.4,0-2.1-0.1V674.6z M85.7,682.5c0.4,0,0.8,0.1,1.2,0.1c1.9,0.2,3.6-1.1,3.8-3c0-0.3,0-0.5,0-0.8
	c0-2.1-1.2-3.4-3.6-3.4c-0.5,0-0.9,0-1.3,0.1L85.7,682.5z"/>
<path class="st2" d="M94.6,680.6l-0.9,2.8h-1.2l3-8.9h1.4l3,8.9h-1.2l-1-2.8H94.6z M97.5,679.7l-0.9-2.6c-0.2-0.6-0.3-1.1-0.5-1.6
	l0,0c-0.1,0.5-0.3,1.1-0.4,1.6l-0.9,2.6H97.5z"/>
<path class="st2" d="M101.9,675.5h-2.7v-1h6.6v1h-2.7v7.9h-1.2L101.9,675.5z"/>
<path class="st2" d="M107.2,680.6l-0.9,2.8h-1.2l3-8.9h1.4l3,8.9h-1.2l-1-2.8H107.2z M110.2,679.7l-0.9-2.6
	c-0.2-0.6-0.3-1.1-0.5-1.6l0,0c-0.1,0.5-0.3,1.1-0.4,1.6l-0.9,2.6H110.2z"/>
<path class="st2" d="M36.7,689.9v7.7c0,0.6,0,1.2,0.1,1.7h-1l-0.1-1.1l0,0c-0.4,0.8-1.3,1.3-2.2,1.3c-1.5,0-2.7-1.3-2.7-3.2
	c0-2.1,1.3-3.4,2.9-3.4c0.8,0,1.5,0.3,1.9,1l0,0v-3.8H36.7z M35.5,695.5c0-0.2,0-0.3,0-0.5c-0.2-0.8-0.9-1.3-1.7-1.3
	c-1.2,0-1.9,1-1.9,2.5s0.7,2.4,1.9,2.4c0.8,0,1.5-0.6,1.7-1.4c0-0.2,0.1-0.3,0.1-0.5L35.5,695.5z"/>
<path class="st2" d="M42.2,699.3l-0.1-0.8l0,0c-0.4,0.6-1.2,1-2,1c-1,0.1-1.9-0.6-2-1.7c0-0.1,0-0.1,0-0.2c0-1.5,1.4-2.4,3.8-2.4
	v-0.1c0.1-0.7-0.4-1.4-1.1-1.5c-0.1,0-0.2,0-0.3,0c-0.6,0-1.2,0.2-1.7,0.5l-0.3-0.8c0.6-0.4,1.4-0.6,2.1-0.6c2,0,2.4,1.3,2.4,2.6
	v2.4c0,0.5,0,1,0.1,1.5L42.2,699.3z M42,696c-1.3,0-2.7,0.2-2.7,1.4c-0.1,0.5,0.3,1,0.9,1.1c0.1,0,0.1,0,0.2,0
	c0.7,0,1.3-0.4,1.6-1.1c0-0.1,0-0.2,0-0.4L42,696z"/>
<path class="st2" d="M46.3,691v1.8H48v0.9h-1.7v3.4c0,0.8,0.2,1.2,0.9,1.2c0.2,0,0.5,0,0.7-0.1l0,0.9c-0.3,0.1-0.7,0.2-1,0.2
	c-0.5,0-0.9-0.2-1.2-0.5c-0.3-0.5-0.5-1.1-0.5-1.7v-3.5h-1v-0.9h1v-1.5L46.3,691z"/>
<path class="st2" d="M52.8,699.3l-0.1-0.8l0,0c-0.5,0.6-1.2,1-2,1c-1,0.1-1.9-0.6-2-1.7c0-0.1,0-0.1,0-0.2c0-1.5,1.4-2.4,3.8-2.4
	v-0.1c0.1-0.7-0.4-1.4-1.1-1.5c-0.1,0-0.2,0-0.3,0c-0.6,0-1.2,0.2-1.7,0.5l-0.3-0.8c0.6-0.4,1.4-0.6,2.1-0.6c2,0,2.4,1.3,2.4,2.6
	v2.4c0,0.5,0,1,0.1,1.5L52.8,699.3z M52.7,696c-1.3,0-2.7,0.2-2.7,1.4c-0.1,0.5,0.3,1,0.9,1.1c0.1,0,0.1,0,0.2,0
	c0.7,0,1.3-0.4,1.5-1.1c0-0.1,0.1-0.2,0.1-0.4V696z"/>
<path class="st2" d="M54.1,701.1c0.5,0,0.9-0.2,1.3-0.5c0.3-0.4,0.5-0.9,0.5-2.4v-5.3H57v5.8c0.1,0.9-0.2,1.9-0.8,2.6
	c-0.6,0.5-1.3,0.7-2,0.7L54.1,701.1z M57.1,691.1c0,0.4-0.3,0.7-0.7,0.7c0,0,0,0-0.1,0c-0.4,0-0.7-0.3-0.7-0.7s0.3-0.7,0.7-0.7
	C56.8,690.4,57.1,690.7,57.1,691.1z"/>
<path class="st2" d="M64.7,696c0.1,1.7-1.1,3.2-2.9,3.4c-0.1,0-0.2,0-0.3,0c-1.7,0-3-1.3-3.1-2.9c0-0.1,0-0.3,0-0.4
	c-0.1-1.7,1.1-3.2,2.8-3.4c0.1,0,0.2,0,0.3,0c1.7-0.1,3,1.2,3.1,2.9C64.7,695.8,64.7,695.9,64.7,696z M59.6,696.1
	c0,1.4,0.8,2.5,1.9,2.5s1.9-1,1.9-2.5c0-1.1-0.5-2.4-1.9-2.4S59.6,694.9,59.6,696.1L59.6,696.1z"/>
<path class="st2" d="M71.5,697.5c0,0.7,0,1.2,0,1.8h-1l-0.1-1l0,0c-0.4,0.8-1.2,1.2-2.1,1.2c-1,0-2.2-0.6-2.2-2.8v-3.7h1.2v3.5
	c0,1.2,0.4,2,1.4,2c0.7,0,1.3-0.4,1.5-1.1c0.1-0.2,0.1-0.4,0.1-0.6v-3.9h1.2L71.5,697.5z"/>
<path class="st2" d="M73.4,694.9c0-0.8,0-1.4-0.1-2h1v1.2l0,0c0.2-0.8,1-1.3,1.8-1.4c0.1,0,0.2,0,0.3,0v1.1c-0.1,0-0.3,0-0.4,0
	c-0.8,0-1.5,0.7-1.6,1.5c0,0.2,0,0.4,0,0.5v3.4h-1.1V694.9z"/>
<path class="st2" d="M77.8,694.6c0-0.7,0-1.2,0-1.7h1l0.1,1l0,0c0.4-0.8,1.2-1.2,2.1-1.2c0.9,0,2.2,0.5,2.2,2.7v3.8h-1.2v-3.7
	c0-1-0.4-1.9-1.5-1.9c-0.7,0-1.4,0.5-1.6,1.2c0,0.2-0.1,0.4-0.1,0.5v3.8h-1.1V694.6z"/>
<path class="st2" d="M88.7,699.3l-0.1-0.8l0,0c-0.5,0.6-1.2,1-2,1c-1,0.1-1.9-0.6-2-1.7c0-0.1,0-0.1,0-0.2c0-1.5,1.4-2.4,3.8-2.4
	v-0.1c0.1-0.7-0.4-1.4-1.1-1.5c-0.1,0-0.2,0-0.3,0c-0.6,0-1.2,0.2-1.7,0.5l-0.3-0.8c0.6-0.4,1.4-0.6,2.1-0.6c1.9,0,2.4,1.3,2.4,2.6
	v2.4c0,0.5,0,1,0.1,1.5L88.7,699.3z M88.5,696c-1.3,0-2.7,0.2-2.7,1.4c-0.1,0.5,0.3,1,0.9,1.1c0.1,0,0.1,0,0.2,0
	c0.7,0,1.3-0.4,1.6-1.1c0-0.1,0-0.2,0-0.4L88.5,696z"/>
<path class="st2" d="M91.5,689.9h1.2v9.4h-1.2V689.9z"/>
<path class="st2" d="M95.9,691.1c0,0.4-0.3,0.7-0.7,0.7c-0.4,0-0.7-0.3-0.7-0.7c0-0.4,0.3-0.7,0.7-0.7c0,0,0,0,0,0
	C95.6,690.3,95.9,690.6,95.9,691.1C95.9,691,95.9,691.1,95.9,691.1z M94.6,699.3v-6.4h1.2v6.4H94.6z"/>
<path class="st2" d="M97.5,698.1c0.5,0.3,1,0.4,1.5,0.5c0.8,0,1.2-0.4,1.2-1s-0.3-0.8-1.2-1.2c-1.2-0.4-1.7-1-1.7-1.8
	c0.1-1.1,1-1.9,2.1-1.9c0,0,0.1,0,0.1,0c0.5,0,1.1,0.1,1.6,0.4l-0.3,0.8c-0.4-0.2-0.9-0.4-1.3-0.4c-0.7,0-1,0.4-1,0.9
	s0.4,0.8,1.2,1.1c1.1,0.4,1.7,1,1.7,1.9c0,1.1-0.9,1.9-2.4,1.9c-0.6,0-1.2-0.1-1.8-0.5L97.5,698.1z"/>
<path class="st2" d="M104.3,691v1.8h1.7v0.9h-1.7v3.4c0,0.8,0.2,1.2,0.9,1.2c0.2,0,0.5,0,0.7-0.1v0.9c-0.3,0.1-0.7,0.2-1,0.2
	c-0.5,0-0.9-0.2-1.3-0.5c-0.3-0.5-0.5-1.1-0.4-1.7v-3.5h-1v-0.9h1v-1.5L104.3,691z"/>
<path class="st2" d="M107.9,696.3c-0.1,1.1,0.7,2.1,1.8,2.2c0.1,0,0.3,0,0.4,0c0.6,0,1.2-0.1,1.8-0.3l0.2,0.8
	c-0.7,0.3-1.4,0.4-2.1,0.4c-1.7,0.1-3.1-1.2-3.1-2.8c0-0.1,0-0.3,0-0.4c0-1.9,1.1-3.5,3-3.5c2.1,0,2.6,1.8,2.6,3c0,0.2,0,0.4,0,0.5
	L107.9,696.3z M111.3,695.5c0.1-0.9-0.5-1.7-1.4-1.9c-0.1,0-0.1,0-0.2,0c-1,0.1-1.8,0.9-1.8,1.9H111.3z"/>
<path class="st2" d="M48.8,705.8v7.7c0,0.6,0,1.2,0,1.6h-1l-0.1-1.1l0,0c-0.4,0.8-1.3,1.3-2.2,1.2c-1.5,0-2.7-1.3-2.7-3.2
	c0-2.1,1.3-3.4,2.9-3.4c0.8,0,1.5,0.3,1.9,1l0,0v-3.8L48.8,705.8z M47.6,711.3c0-0.2,0-0.3,0-0.5c-0.2-0.8-0.9-1.3-1.7-1.3
	c-1.2,0-1.9,1-1.9,2.5s0.7,2.4,1.9,2.4c0.8,0,1.5-0.6,1.7-1.4c0-0.2,0.1-0.3,0.1-0.5L47.6,711.3z"/>
<path class="st2" d="M51.4,712.2c-0.1,1.1,0.7,2.1,1.8,2.2c0.1,0,0.3,0,0.4,0c0.6,0,1.2-0.1,1.8-0.3l0.2,0.8
	c-0.7,0.3-1.4,0.4-2.1,0.4c-1.7,0.1-3.1-1.2-3.2-2.8c0-0.1,0-0.3,0-0.4c0-1.9,1.1-3.5,3-3.5c2.1,0,2.6,1.8,2.6,3c0,0.2,0,0.4,0,0.5
	L51.4,712.2z M54.8,711.3c0.1-0.9-0.5-1.7-1.4-1.9c-0.1,0-0.1,0-0.2,0c-1,0.1-1.8,0.9-1.8,1.9H54.8z M55.1,706l-1.6,1.9h-0.8
	l1.2-1.9L55.1,706z"/>
<path class="st2" d="M57.8,708.7l1.2,3.6c0.2,0.5,0.4,1.1,0.5,1.7l0,0c0.2-0.5,0.3-1.1,0.5-1.7l1.2-3.6h1.2l-2.5,6.4H59l-2.4-6.4
	H57.8z"/>
<path class="st2" d="M64.2,712.2c-0.1,1.1,0.7,2.1,1.8,2.2c0.1,0,0.3,0,0.4,0c0.6,0,1.2-0.1,1.8-0.3l0.2,0.8
	c-0.7,0.3-1.4,0.4-2.1,0.4c-1.7,0.1-3.1-1.2-3.2-2.8c0-0.1,0-0.3,0-0.4c0-1.9,1.1-3.5,3-3.5c2.1,0,2.6,1.8,2.6,3c0,0.2,0,0.4,0,0.5
	L64.2,712.2z M67.6,711.3c0.1-0.9-0.5-1.7-1.4-1.9c-0.1,0-0.1,0-0.2,0c-1,0.1-1.8,0.9-1.8,1.9H67.6z"/>
<path class="st2" d="M70.2,705.8h1.2v9.4h-1.2V705.8z"/>
<path class="st2" d="M79.1,711.9c0.1,1.7-1.1,3.2-2.8,3.4c-0.1,0-0.2,0-0.3,0c-1.7,0-3-1.3-3.1-2.9c0-0.1,0-0.2,0-0.4
	c-0.2-1.7,1.1-3.2,2.8-3.4c0.1,0,0.2,0,0.3,0c1.7-0.1,3,1.2,3.1,2.9C79.1,711.6,79.1,711.7,79.1,711.9z M74,712
	c0,1.4,0.8,2.5,1.9,2.5s2-1,2-2.5c0-1.1-0.6-2.5-1.9-2.5S74,710.7,74,712z"/>
<path class="st2" d="M80.6,710.8c0-0.8,0-1.5,0-2.1h1l0.1,1.1l0,0c0.5-0.8,1.3-1.3,2.3-1.2c1.6,0,2.7,1.3,2.7,3.2
	c0,2.3-1.4,3.4-2.9,3.4c-0.8,0.1-1.6-0.3-2-1l0,0v3.5h-1.1V710.8z M81.7,712.5c0,0.2,0,0.3,0,0.5c0.2,0.8,0.9,1.4,1.7,1.4
	c1.2,0,1.9-1,1.9-2.5c0-1.3-0.7-2.4-1.9-2.4c-0.8,0-1.5,0.7-1.7,1.5c0,0.2-0.1,0.3-0.1,0.5V712.5z"/>
<path class="st2" d="M88.1,710.8c0-0.8,0-1.5,0-2.1h1l0.1,1.1l0,0c0.5-0.8,1.3-1.3,2.3-1.2c1.6,0,2.7,1.3,2.7,3.2
	c0,2.3-1.4,3.4-2.9,3.4c-0.8,0-1.6-0.3-2-1l0,0v3.5h-1.1V710.8z M89.2,712.5c0,0.2,0,0.3,0.1,0.5c0.2,0.8,0.9,1.4,1.7,1.4
	c1.2,0,2-1,2-2.5c0-1.3-0.7-2.4-1.9-2.4c-0.9,0-1.6,0.6-1.8,1.5c0,0.2-0.1,0.3-0.1,0.5L89.2,712.5z"/>
<path class="st2" d="M96.3,712.2c-0.1,1.1,0.7,2.1,1.8,2.2c0.1,0,0.3,0,0.4,0c0.6,0,1.2-0.1,1.8-0.3l0.2,0.8
	c-0.7,0.3-1.4,0.4-2.1,0.4c-1.7,0.1-3.1-1.2-3.1-2.8c0-0.1,0-0.2,0-0.4c0-1.9,1.1-3.5,3-3.5c2.1,0,2.6,1.8,2.6,3c0,0.2,0,0.4,0,0.5
	L96.3,712.2z M99.7,711.3c0.1-0.9-0.5-1.7-1.4-1.9c-0.1,0-0.1,0-0.2,0c-1,0.1-1.8,0.9-1.8,1.9H99.7z"/>
<path class="st2" d="M107.6,713.4c0,0.7,0,1.2,0.1,1.8h-1l-0.1-1l0,0c-0.4,0.8-1.2,1.2-2.1,1.2c-1,0-2.2-0.6-2.2-2.8v-3.7h1.2v3.5
	c0,1.2,0.4,2,1.4,2c0.7,0,1.3-0.4,1.5-1.1c0.1-0.2,0.1-0.4,0.1-0.6v-3.9h1.2L107.6,713.4z"/>
<path class="st2" d="M109.5,710.7c0-0.8,0-1.4-0.1-2h1v1.3l0,0c0.2-0.8,0.9-1.4,1.8-1.4c0.1,0,0.2,0,0.3,0v1.1c-0.1,0-0.3,0-0.4,0
	c-0.8,0-1.5,0.7-1.6,1.5c0,0.2,0,0.4,0,0.5v3.4h-1.2L109.5,710.7z"/>
<path class="st7" d="M215.5,130.3c0.8-0.1,1.6-0.2,2.4-0.2c1.3-0.1,2.6,0.3,3.6,1.1c0.9,0.8,1.3,2,1.3,3.2c0.1,1.3-0.4,2.5-1.3,3.5
	c-1.1,0.9-2.5,1.4-3.9,1.3c-0.7,0-1.4,0-2.1-0.1L215.5,130.3z M216.7,138.2c0.4,0,0.8,0.1,1.2,0.1c1.9,0.2,3.6-1.1,3.8-3
	c0-0.3,0-0.5,0-0.8c0-2.1-1.2-3.4-3.6-3.4c-0.5,0-0.9,0-1.4,0.1L216.7,138.2z"/>
<path class="st7" d="M225.5,130.2v5.3c0,2,0.9,2.8,2.1,2.8s2.2-0.9,2.2-2.8v-5.3h1.2v5.2c0,2.7-1.4,3.9-3.4,3.9s-3.2-1-3.2-3.8v-5.2
	H225.5z"/>
<path class="st7" d="M234.6,131.1h-2.7v-1h6.6v1h-2.7v7.9h-1.2L234.6,131.1z"/>
<path class="st7" d="M217.4,143.1h1.1v6c0,2.4-1.2,3.1-2.7,3.1c-0.4,0-0.8-0.1-1.2-0.2l0.2-0.9c0.3,0.1,0.7,0.2,1,0.2
	c1,0,1.6-0.5,1.6-2.2L217.4,143.1z"/>
<path class="st7" d="M226.2,148.8c0.1,1.7-1.1,3.2-2.9,3.4c-0.1,0-0.2,0-0.3,0c-1.7,0-3-1.3-3.1-2.9c0-0.1,0-0.3,0-0.4
	c-0.1-1.7,1.1-3.2,2.9-3.4c0.1,0,0.2,0,0.3,0c1.7-0.1,3,1.2,3.1,2.9C226.2,148.5,226.2,148.6,226.2,148.8z M221.1,148.8
	c0,1.4,0.8,2.5,1.9,2.5s2-1.1,2-2.5c0-1.1-0.6-2.4-1.9-2.4S221.1,147.6,221.1,148.8L221.1,148.8z"/>
<path class="st7" d="M233,150.3c0,0.7,0,1.2,0.1,1.8h-1l-0.1-1l0,0c-0.4,0.8-1.2,1.2-2.1,1.2c-1,0-2.2-0.6-2.2-2.8v-3.7h1.1v3.5
	c0,1.2,0.4,2.1,1.4,2.1c0.7,0,1.3-0.4,1.5-1.1c0.1-0.2,0.1-0.4,0.1-0.6v-3.9h1.1V150.3z"/>
<path class="st7" d="M234.9,147.6c0-0.8,0-1.4-0.1-2h1l0.1,1.2l0,0c0.2-0.8,1-1.3,1.8-1.4c0.1,0,0.2,0,0.3,0v1.1c-0.1,0-0.3,0-0.4,0
	c-0.8,0-1.5,0.7-1.6,1.5c0,0.2,0,0.4-0.1,0.6v3.4h-1.2L234.9,147.6z"/>
<path class="st7" d="M239.3,147.4c0-0.7,0-1.2,0-1.7h1l0.1,1.1l0,0c0.4-0.8,1.2-1.2,2.1-1.2c0.9,0,2.3,0.5,2.3,2.7v3.8h-1.2v-3.7
	c0-1-0.4-1.9-1.5-1.9c-0.7,0-1.4,0.5-1.6,1.2c-0.1,0.2-0.1,0.4-0.1,0.5v3.8h-1.2V147.4z"/>
<path class="st7" d="M250.2,152l-0.1-0.8l0,0c-0.5,0.6-1.2,1-2,1c-1,0.1-1.9-0.7-1.9-1.7c0,0,0-0.1,0-0.1c0-1.6,1.4-2.4,3.8-2.4
	v-0.1c0.1-0.7-0.4-1.4-1.1-1.5c-0.1,0-0.2,0-0.3,0c-0.6,0-1.2,0.2-1.7,0.5l-0.3-0.8c0.6-0.4,1.4-0.6,2.1-0.6c1.9,0,2.4,1.3,2.4,2.6
	v2.4c0,0.5,0,1,0.1,1.5L250.2,152z M250,148.7c-1.3,0-2.7,0.2-2.7,1.4c-0.1,0.5,0.3,1,0.9,1.1c0.1,0,0.1,0,0.2,0
	c0.7,0,1.3-0.4,1.6-1.1c0-0.1,0.1-0.2,0.1-0.4V148.7z"/>
<path class="st7" d="M253,142.6h1.2v9.4H253V142.6z"/>
<path class="st7" d="M257.4,143.8c0,0.4-0.3,0.7-0.7,0.7c0,0,0,0-0.1,0c-0.4,0-0.7-0.3-0.7-0.7c0,0,0,0,0-0.1c0-0.4,0.3-0.7,0.7-0.7
	S257.4,143.4,257.4,143.8L257.4,143.8z M256.1,152v-6.4h1.1v6.4L256.1,152z"/>
<path class="st7" d="M259.1,150.8c0.5,0.3,1,0.4,1.5,0.4c0.9,0,1.2-0.4,1.2-0.9s-0.3-0.9-1.2-1.2c-1.2-0.4-1.7-1-1.7-1.8
	c0.1-1.1,1-1.9,2.1-1.9c0,0,0.1,0,0.1,0c0.5,0,1.1,0.1,1.6,0.4l-0.3,0.8c-0.4-0.2-0.8-0.4-1.3-0.4c-0.7,0-1.1,0.4-1.1,0.9
	s0.4,0.8,1.2,1.1c1.1,0.4,1.7,1,1.7,1.9c0,1.1-0.9,1.9-2.4,1.9c-0.6,0-1.2-0.1-1.8-0.4L259.1,150.8z"/>
<path class="st7" d="M264.5,147.4c0-0.7,0-1.2,0-1.7h1l0.1,1l0,0c0.4-0.7,1.2-1.2,2-1.2c0.8,0,1.5,0.5,1.8,1.3l0,0
	c0.2-0.3,0.4-0.6,0.7-0.8c0.4-0.3,0.9-0.5,1.4-0.4c0.9,0,2.1,0.6,2.1,2.8v3.8h-1.1v-3.6c0-1.2-0.5-2-1.4-2c-0.6,0-1.2,0.4-1.4,1
	c-0.1,0.2-0.1,0.4-0.1,0.6v4h-1.1v-3.8c0-1-0.5-1.8-1.3-1.8c-0.7,0-1.3,0.5-1.5,1.2c-0.1,0.2-0.1,0.4-0.1,0.6v3.9h-1.1L264.5,147.4z
	"/>
<path class="st7" d="M276.1,149c-0.1,1.1,0.7,2.1,1.8,2.2c0.1,0,0.3,0,0.4,0c0.6,0,1.2-0.1,1.8-0.3l0.2,0.8
	c-0.7,0.3-1.4,0.4-2.1,0.4c-1.7,0.1-3.1-1.2-3.2-2.8c0-0.1,0-0.3,0-0.4c0-1.9,1.1-3.4,3-3.4c2.1,0,2.6,1.8,2.6,3c0,0.2,0,0.4,0,0.6
	L276.1,149z M279.5,148.2c0.1-0.9-0.5-1.7-1.4-1.9c-0.1,0-0.1,0-0.2,0c-1,0.1-1.8,0.9-1.8,1.9H279.5z"/>
<path class="st7" d="M216,162.4c-0.1,1,0.6,1.8,1.6,1.9c0.1,0,0.2,0,0.3,0c0.5,0,1.1-0.1,1.6-0.3l0.2,0.7c-0.6,0.3-1.2,0.4-1.9,0.4
	c-1.4,0.1-2.7-1-2.8-2.4c0-0.1,0-0.2,0-0.4c0-1.7,1-3,2.6-3c1.3,0,2.3,1.1,2.3,2.4c0,0.1,0,0.2,0,0.2c0,0.2,0,0.3,0,0.5L216,162.4z
	 M219,161.6c0.1-0.8-0.4-1.5-1.2-1.6c-0.1,0-0.1,0-0.2,0c-0.9,0.1-1.5,0.8-1.6,1.6H219z M219.2,157l-1.4,1.7H217l1-1.7H219.2z"/>
<path class="st7" d="M225.2,164.8c-0.5,0.2-1,0.3-1.6,0.3c-1.5,0.1-2.7-1.1-2.8-2.5c0-0.1,0-0.2,0-0.3c-0.1-1.6,1.1-2.9,2.7-3
	c0.1,0,0.2,0,0.3,0c0.5,0,1,0.1,1.4,0.3l-0.2,0.8c-0.4-0.2-0.8-0.3-1.2-0.3c-1.1,0-2,0.8-2,1.8c0,0.1,0,0.2,0,0.3
	c-0.1,1.1,0.7,2,1.7,2.1c0.1,0,0.2,0,0.2,0c0.4,0,0.9-0.1,1.3-0.2L225.2,164.8z"/>
<path class="st7" d="M231.4,162.1c0.1,1.5-1,2.8-2.5,3c-0.1,0-0.2,0-0.3,0c-1.5,0-2.7-1.2-2.7-2.6c0-0.1,0-0.2,0-0.3
	c-0.1-1.5,0.9-2.8,2.4-3c0.1,0,0.2,0,0.3,0c1.5,0,2.7,1.1,2.7,2.6C231.4,161.9,231.4,162,231.4,162.1z M226.9,162.2
	c0,1.2,0.7,2.2,1.7,2.2s1.7-0.9,1.7-2.2c0-0.9-0.5-2.1-1.7-2.1S226.9,161.1,226.9,162.2z"/>
<path class="st7" d="M232.6,156.8h1v8.2h-1V156.8z"/>
<path class="st7" d="M235.9,162.4c-0.1,1,0.6,1.8,1.6,1.9c0.1,0,0.2,0,0.3,0c0.5,0,1.1-0.1,1.6-0.3l0.2,0.7
	c-0.6,0.3-1.2,0.4-1.9,0.4c-1.4,0.1-2.7-1-2.8-2.4c0-0.1,0-0.3,0-0.4c0-1.7,1-3,2.6-3c1.3,0,2.3,1.1,2.3,2.4c0,0.1,0,0.2,0,0.2
	c0,0.2,0,0.3,0,0.5L235.9,162.4z M238.9,161.6c0.1-0.8-0.4-1.5-1.2-1.6c-0.1,0-0.1,0-0.2,0c-0.9,0.1-1.6,0.8-1.6,1.6H238.9z"/>
<path class="st7" d="M248.4,156.8v6.8c0,0.5,0,1.1,0.1,1.4h-0.9l-0.1-1l0,0c-0.4,0.7-1.1,1.1-1.9,1.1c-1.4-0.1-2.5-1.3-2.4-2.7
	c0,0,0-0.1,0-0.1c0-1.9,1.2-3,2.5-3c0.7,0,1.3,0.3,1.7,0.9l0,0v-3.3L248.4,156.8z M247.4,161.6c0-0.1,0-0.3,0-0.4
	c-0.2-0.7-0.8-1.2-1.5-1.2c-1,0-1.7,0.9-1.7,2.1s0.6,2.1,1.7,2.1c0.7,0,1.3-0.5,1.5-1.2c0-0.1,0-0.3,0.1-0.4L247.4,161.6z"/>
<path class="st7" d="M250.7,162.4c-0.1,1,0.6,1.9,1.6,1.9c0.1,0,0.2,0,0.3,0c0.5,0,1.1-0.1,1.6-0.3l0.2,0.7
	c-0.6,0.3-1.2,0.4-1.9,0.4c-1.4,0.1-2.7-1-2.8-2.4c0-0.1,0-0.3,0-0.4c0-1.7,1-3,2.6-3c1.3,0,2.3,1.1,2.3,2.4c0,0.1,0,0.2,0,0.2
	c0,0.2,0,0.3,0,0.5L250.7,162.4z M253.7,161.6c0.1-0.8-0.4-1.5-1.2-1.6c-0.1,0-0.1,0-0.2,0c-0.9,0.1-1.6,0.8-1.6,1.6H253.7z"/>
<path class="st7" d="M214,179.5c0.4,0,0.8-0.2,1.1-0.4c0.3-0.3,0.4-0.8,0.4-2.1v-4.7h1v5.1c0.1,0.8-0.1,1.7-0.7,2.3
	c-0.5,0.4-1.1,0.6-1.7,0.6L214,179.5z M216.6,170.7c0,0.3-0.3,0.6-0.6,0.6c0,0,0,0-0.1,0c-0.4,0-0.6-0.3-0.6-0.6s0.3-0.6,0.6-0.6
	C216.4,170.1,216.6,170.4,216.6,170.7z"/>
<path class="st7" d="M223.2,175.1c0.1,1.5-1,2.8-2.5,3c-0.1,0-0.2,0-0.3,0c-1.5,0-2.7-1.2-2.7-2.6c0-0.1,0-0.2,0-0.2
	c-0.1-1.5,0.9-2.8,2.4-3c0.1,0,0.2,0,0.3,0c1.5,0,2.7,1.1,2.7,2.6C223.3,174.9,223.3,175,223.2,175.1z M218.8,175.1
	c0,1.2,0.7,2.1,1.7,2.1s1.7-0.9,1.7-2.2c0-0.9-0.5-2.1-1.7-2.1S218.8,174.1,218.8,175.1z"/>
<path class="st7" d="M229.2,176.4c0,0.6,0,1.1,0,1.5h-0.9l-0.1-0.9l0,0c-0.4,0.7-1.1,1.1-1.9,1.1c-0.9,0-1.9-0.5-1.9-2.5v-3.3h1v3.1
	c0,1.1,0.3,1.8,1.2,1.8c0.6,0,1.1-0.4,1.3-0.9c0.1-0.2,0.1-0.3,0.1-0.5v-3.4h1L229.2,176.4z"/>
<path class="st7" d="M230.9,174.1c0-0.7,0-1.2,0-1.8h0.9v1.1l0,0c0.2-0.7,0.8-1.2,1.6-1.2c0.1,0,0.2,0,0.3,0v1c-0.1,0-0.2,0-0.3,0
	c-0.7,0-1.3,0.6-1.4,1.3c0,0.2,0,0.3,0,0.5v3h-1L230.9,174.1z"/>
<path class="st7" d="M234.7,173.8c0-0.6,0-1.1-0.1-1.5h0.9l0.1,0.9l0,0c0.4-0.6,1.1-1,1.9-1c0.8,0,2,0.5,2,2.4v3.3h-1v-3.2
	c0-0.9-0.3-1.7-1.3-1.7c-0.6,0-1.2,0.4-1.4,1.1c0,0.2-0.1,0.3-0.1,0.5v3.4h-1L234.7,173.8z"/>
<path class="st7" d="M244.3,177.9l-0.1-0.7l0,0c-0.4,0.5-1,0.9-1.7,0.8c-0.9,0.1-1.6-0.6-1.7-1.5c0,0,0-0.1,0-0.1
	c0-1.4,1.2-2.1,3.4-2.1v-0.1c0.1-0.6-0.3-1.2-1-1.3c-0.1,0-0.2,0-0.3,0c-0.5,0-1,0.1-1.5,0.4l-0.2-0.7c0.6-0.3,1.2-0.5,1.9-0.5
	c1.7,0,2.1,1.2,2.1,2.3v2.1c0,0.4,0,0.9,0.1,1.3L244.3,177.9z M244.1,175.1c-1.1,0-2.4,0.2-2.4,1.3c-0.1,0.5,0.3,0.9,0.8,1
	c0.1,0,0.1,0,0.2,0c0.6,0,1.2-0.4,1.4-0.9c0-0.1,0-0.2,0-0.3L244.1,175.1z"/>
<path class="st7" d="M246.7,169.7h1v8.2h-1V169.7z"/>
<path class="st7" d="M250.6,170.7c0,0.3-0.3,0.6-0.6,0.6c-0.3,0-0.6-0.3-0.6-0.6c0-0.3,0.3-0.6,0.6-0.6
	C250.3,170.1,250.6,170.4,250.6,170.7C250.6,170.7,250.6,170.7,250.6,170.7z M249.5,177.9v-5.6h1v5.6H249.5z"/>
<path class="st7" d="M252,176.9c0.4,0.2,0.9,0.4,1.3,0.4c0.8,0,1.1-0.4,1.1-0.8s-0.3-0.8-1-1c-1-0.4-1.5-0.9-1.5-1.6
	c0-1,0.9-1.7,1.8-1.7c0,0,0.1,0,0.1,0c0.5,0,1,0.1,1.4,0.3l-0.2,0.7c-0.3-0.2-0.7-0.3-1.1-0.3c-0.6,0-0.9,0.4-0.9,0.8
	s0.3,0.7,1.1,0.9c1,0.4,1.5,0.9,1.5,1.7c0,1-0.8,1.7-2.1,1.7c-0.5,0-1.1-0.1-1.6-0.4L252,176.9z"/>
<path class="st7" d="M256.8,173.8c0-0.6,0-1.1,0-1.5h0.9l0,0.9l0,0c0.4-0.6,1-1,1.8-1c0.7,0,1.3,0.4,1.6,1.1l0,0
	c0.2-0.3,0.4-0.5,0.6-0.7c0.4-0.3,0.8-0.4,1.2-0.4c0.7,0,1.8,0.5,1.8,2.4v3.3h-1v-3.2c0-1.1-0.4-1.7-1.2-1.7c-0.6,0-1,0.4-1.2,0.9
	c-0.1,0.2-0.1,0.3-0.1,0.5v3.5h-1v-3.4c0-0.9-0.4-1.5-1.2-1.5c-0.6,0-1.1,0.4-1.3,1c-0.1,0.2-0.1,0.3-0.1,0.5v3.4h-1L256.8,173.8z"
	/>
<path class="st7" d="M267,175.3c-0.1,1,0.6,1.9,1.6,1.9c0.1,0,0.2,0,0.3,0c0.5,0,1.1-0.1,1.5-0.3l0.2,0.7c-0.6,0.3-1.2,0.4-1.9,0.4
	c-1.4,0.1-2.7-1-2.8-2.5c0-0.1,0-0.2,0-0.4c0-1.7,1-3,2.6-3c1.3,0,2.3,1.1,2.3,2.4c0,0.1,0,0.2,0,0.2c0,0.2,0,0.3,0,0.5L267,175.3z
	 M270,174.6c0.1-0.8-0.4-1.5-1.2-1.6c-0.1,0-0.1,0-0.2,0c-0.9,0.1-1.5,0.8-1.6,1.6H270z"/>
<path class="st7" d="M220.2,182.6v6.8c0,0.5,0,1.1,0,1.4h-0.9v-1l0,0c-0.4,0.7-1.1,1.1-1.9,1.1c-1.4-0.1-2.5-1.3-2.4-2.7
	c0-0.1,0-0.1,0-0.2c0-1.9,1.1-3,2.5-3c0.7,0,1.3,0.3,1.7,0.8l0,0v-3.3L220.2,182.6z M219.2,187.5c0-0.1,0-0.3,0-0.4
	c-0.2-0.7-0.8-1.2-1.5-1.2c-1.1,0-1.7,0.9-1.7,2.2s0.6,2.1,1.7,2.1c0.7,0,1.3-0.5,1.5-1.2c0-0.1,0-0.3,0-0.4L219.2,187.5z"/>
<path class="st7" d="M222.5,188.2c-0.1,1,0.6,1.9,1.6,1.9c0.1,0,0.2,0,0.3,0c0.5,0,1.1-0.1,1.6-0.3l0.2,0.7
	c-0.6,0.3-1.2,0.4-1.9,0.4c-1.4,0.1-2.7-1-2.8-2.5c0-0.1,0-0.2,0-0.4c0-1.7,1-3,2.6-3c1.3,0,2.3,1.1,2.3,2.4c0,0.1,0,0.2,0,0.2
	c0,0.2,0,0.3,0,0.5L222.5,188.2z M225.5,187.5c0.1-0.8-0.4-1.5-1.2-1.6c-0.1,0-0.1,0-0.2,0c-0.9,0.1-1.6,0.8-1.6,1.6H225.5z"/>
<path class="st7" d="M235.6,190.6c-0.7,0.3-1.4,0.4-2.1,0.4c-2,0.1-3.7-1.4-3.9-3.4c0-0.2,0-0.4,0-0.6c-0.1-2.1,1.5-4,3.6-4.1
	c0.1,0,0.3,0,0.4,0c0.6,0,1.3,0.1,1.9,0.3l-0.2,0.8c-0.5-0.2-1-0.3-1.6-0.3c-1.6-0.1-3,1.2-3,2.8c0,0.1,0,0.3,0,0.4
	c-0.2,1.5,0.9,2.9,2.5,3.1c0.2,0,0.3,0,0.5,0c0.6,0,1.1-0.1,1.7-0.3L235.6,190.6z"/>
<path class="st7" d="M239.9,190.9l-0.1-0.7l0,0c-0.4,0.5-1,0.8-1.7,0.8c-0.9,0.1-1.6-0.6-1.7-1.5c0,0,0-0.1,0-0.1
	c0-1.4,1.2-2.1,3.4-2.1v-0.1c0.1-0.6-0.4-1.2-1-1.3c-0.1,0-0.2,0-0.3,0c-0.5,0-1,0.1-1.5,0.4l-0.2-0.7c0.6-0.3,1.2-0.5,1.8-0.5
	c1.7,0,2.1,1.2,2.1,2.3v2.1c0,0.4,0,0.9,0.1,1.3H239.9z M239.7,188c-1.1,0-2.4,0.2-2.4,1.3c-0.1,0.5,0.3,0.9,0.8,1
	c0.1,0,0.1,0,0.2,0c0.6,0,1.2-0.4,1.4-0.9c0-0.1,0.1-0.2,0.1-0.3V188z"/>
<path class="st7" d="M242.4,186.8c0-0.6,0-1,0-1.5h0.9l0.1,0.9l0,0c0.4-0.6,1.1-1,1.9-1c0.8,0,2,0.5,2,2.4v3.3h-1v-3.2
	c0-0.9-0.3-1.7-1.3-1.7c-0.6,0-1.2,0.4-1.4,1c0,0.2-0.1,0.3-0.1,0.5v3.4h-1L242.4,186.8z"/>
<path class="st7" d="M248.8,186.8c0-0.6,0-1-0.1-1.5h0.9l0.1,0.9l0,0c0.4-0.6,1.1-1,1.9-1c0.8,0,2,0.5,2,2.4v3.3h-1v-3.2
	c0-0.9-0.4-1.7-1.3-1.7c-0.6,0-1.2,0.4-1.4,1c0,0.2-0.1,0.3-0.1,0.5v3.4h-1L248.8,186.8z"/>
<path class="st7" d="M255.8,188.2c-0.1,1,0.6,1.9,1.6,1.9c0.1,0,0.2,0,0.3,0c0.5,0,1.1-0.1,1.5-0.3l0.2,0.7
	c-0.6,0.2-1.2,0.4-1.9,0.4c-1.4,0.1-2.7-1-2.8-2.5c0-0.1,0-0.2,0-0.4c0-1.7,1-3,2.6-3c1.3,0,2.3,1.1,2.3,2.4c0,0.1,0,0.2,0,0.2
	c0,0.2,0,0.3,0,0.5L255.8,188.2z M258.8,187.5c0.1-0.8-0.4-1.5-1.2-1.6c-0.1,0-0.1,0-0.2,0c-0.9,0.1-1.6,0.8-1.6,1.6H258.8z"/>
<path class="st7" d="M260.8,189.8c0.4,0.2,0.9,0.4,1.4,0.4c0.7,0,1.1-0.4,1.1-0.8s-0.3-0.8-1-1c-1-0.4-1.5-0.9-1.5-1.6
	c0-1,0.9-1.7,1.8-1.7c0,0,0.1,0,0.1,0c0.5,0,1,0.1,1.4,0.3l-0.2,0.7c-0.3-0.2-0.7-0.3-1.1-0.3c-0.6,0-0.9,0.4-0.9,0.8s0.3,0.7,1.1,1
	c1,0.4,1.5,0.9,1.5,1.7c0,1-0.8,1.7-2.1,1.7c-0.5,0-1.1-0.1-1.6-0.4L260.8,189.8z"/>
<path class="st7" d="M220.1,275.1h-3.4v3.2h3.9v1h-5v-8.9h4.8v1h-3.7v2.8h3.4L220.1,275.1z"/>
<path class="st7" d="M221.9,277.9c0.6,0.4,1.3,0.6,2.1,0.6c1.2,0,1.9-0.6,1.9-1.5s-0.5-1.3-1.7-1.8c-1.5-0.5-2.4-1.3-2.4-2.5
	s1.1-2.4,2.9-2.4c0.7,0,1.4,0.1,2,0.4l-0.3,0.9c-0.5-0.3-1.1-0.4-1.7-0.4c-1.2,0-1.7,0.7-1.7,1.3c0,0.8,0.6,1.2,1.8,1.7
	c1.5,0.6,2.3,1.3,2.3,2.6s-1,2.6-3.1,2.6c-0.8,0-1.6-0.2-2.3-0.6L221.9,277.9z"/>
<path class="st7" d="M230.4,270.4h1.2v6c0,2.4-1.2,3.1-2.7,3.1c-0.4,0-0.8-0.1-1.2-0.2l0.2-0.9c0.3,0.1,0.7,0.2,1,0.2
	c1,0,1.6-0.5,1.6-2.2L230.4,270.4z"/>
<path class="st7" d="M236.2,270.4h1.1v7.9h3.8v1h-5L236.2,270.4z"/>
<path class="st7" d="M243.7,271.1c0,0.4-0.3,0.7-0.7,0.7c0,0,0,0-0.1,0c-0.4,0-0.7-0.3-0.7-0.7c0,0,0,0,0,0c0-0.4,0.3-0.7,0.7-0.7
	S243.7,270.7,243.7,271.1L243.7,271.1z M242.4,279.3v-6.4h1.1v6.4H242.4z"/>
<path class="st7" d="M245.5,269.9h1.2v9.4h-1.2V269.9z"/>
<path class="st7" d="M248.6,269.9h1.1v9.4h-1.1V269.9z"/>
<path class="st7" d="M252.4,276.3c-0.1,1.1,0.7,2.1,1.8,2.2c0.1,0,0.3,0,0.4,0c0.6,0,1.2-0.1,1.8-0.3l0.2,0.8
	c-0.7,0.3-1.4,0.4-2.1,0.4c-1.7,0.1-3.1-1.2-3.1-2.8c0-0.1,0-0.2,0-0.4c0-1.9,1.1-3.5,3-3.5c2.1,0,2.6,1.8,2.6,3c0,0.2,0,0.4,0,0.5
	L252.4,276.3z M255.8,275.5c0.1-0.9-0.5-1.7-1.4-1.9c-0.1,0-0.1,0-0.2,0c-1,0.1-1.8,0.9-1.8,1.9H255.8z"/>
<path class="st7" d="M222,289.8c-0.1-1.1-0.1-2.4-0.1-3.4l0,0c-0.3,0.9-0.6,1.9-1,3l-1.4,3.8h-0.8l-1.3-3.7c-0.4-1.1-0.7-2.1-0.9-3
	l0,0c0,1-0.1,2.3-0.1,3.4l-0.2,3.3h-0.9l0.5-7.8h1.2l1.3,3.8c0.3,1,0.6,1.8,0.8,2.6l0,0c0.2-0.8,0.5-1.6,0.8-2.6l1.4-3.8h1.3
	l0.5,7.8h-1L222,289.8z"/>
<path class="st7" d="M229.8,290.3c0.1,1.5-1,2.8-2.5,3c-0.1,0-0.2,0-0.3,0c-1.5,0-2.7-1.2-2.7-2.6c0-0.1,0-0.2,0-0.3
	c-0.1-1.5,1-2.8,2.5-3c0.1,0,0.2,0,0.3,0c1.5,0,2.7,1.1,2.7,2.6C229.8,290.1,229.8,290.2,229.8,290.3z M225.4,290.4
	c0,1.2,0.7,2.1,1.7,2.1s1.7-0.9,1.7-2.2c0-1-0.5-2.1-1.7-2.1S225.4,289.3,225.4,290.4z"/>
<path class="st7" d="M231.1,289.1c0-0.6,0-1,0-1.5h0.9l0.1,0.9l0,0c0.4-0.7,1.1-1.1,1.9-1c0.8,0,2,0.5,2,2.4v3.3h-1V290
	c0-0.9-0.3-1.7-1.3-1.7c-0.6,0-1.2,0.4-1.4,1c0,0.2-0.1,0.3-0.1,0.5v3.4h-1L231.1,289.1z"/>
<path class="st7" d="M238.7,286v1.6h1.5v0.8h-1.5v3c0,0.7,0.2,1.1,0.8,1.1c0.2,0,0.4,0,0.6-0.1v0.8c-0.3,0.1-0.6,0.1-0.9,0.1
	c-0.4,0-0.8-0.1-1.1-0.4c-0.3-0.4-0.4-0.9-0.4-1.5v-3h-0.9v-0.8h0.9v-1.4L238.7,286z"/>
<path class="st7" d="M241.3,289.4c0-0.7,0-1.3-0.1-1.8h0.9l0.1,1l0,0c0.4-0.7,1.2-1.1,2-1.1c1.4,0,2.4,1.1,2.4,2.8c0,2-1.2,3-2.5,3
	c-0.7,0-1.3-0.3-1.7-0.9l0,0v3h-1L241.3,289.4z M242.3,290.9c0,0.1,0,0.3,0,0.4c0.2,0.7,0.8,1.2,1.5,1.2c1.1,0,1.7-0.9,1.7-2.2
	c0-1.1-0.6-2.1-1.7-2.1c-0.7,0-1.4,0.5-1.5,1.2c0,0.1-0.1,0.3-0.1,0.4L242.3,290.9z"/>
<path class="st7" d="M248.5,290.6c-0.1,1,0.6,1.8,1.6,1.9c0.1,0,0.2,0,0.3,0c0.5,0,1.1-0.1,1.6-0.3l0.2,0.7
	c-0.6,0.2-1.2,0.4-1.9,0.4c-1.4,0.1-2.7-1-2.8-2.5c0-0.1,0-0.2,0-0.4c-0.2-1.5,0.9-2.8,2.4-3c0.1,0,0.1,0,0.2,0
	c1.3,0,2.3,1.1,2.3,2.4c0,0.1,0,0.2,0,0.2c0,0.2,0,0.3,0,0.5L248.5,290.6z M251.5,289.8c0.1-0.8-0.4-1.5-1.2-1.6c-0.1,0-0.1,0-0.2,0
	c-0.9,0.1-1.5,0.8-1.6,1.6H251.5z"/>
<path class="st7" d="M253.7,285h1v8.2h-1V285z"/>
<path class="st7" d="M256.4,285h1v8.2h-1V285z"/>
<path class="st7" d="M260.3,286c0,0.3-0.3,0.6-0.6,0.6s-0.6-0.3-0.6-0.6c0-0.3,0.3-0.6,0.6-0.6c0,0,0,0,0,0
	C260,285.3,260.3,285.6,260.3,286C260.3,286,260.3,286,260.3,286z M259.1,293.2v-5.6h1v5.6H259.1z"/>
<path class="st7" d="M262.4,290.6c-0.1,1,0.6,1.8,1.6,1.9c0.1,0,0.2,0,0.3,0c0.5,0,1.1-0.1,1.5-0.3l0.2,0.7
	c-0.6,0.2-1.2,0.4-1.9,0.4c-1.4,0.1-2.7-1-2.8-2.5c0-0.1,0-0.2,0-0.4c-0.2-1.5,0.9-2.8,2.4-3c0.1,0,0.1,0,0.2,0
	c1.3,0,2.3,1.1,2.3,2.4c0,0.1,0,0.2,0,0.2c0,0.2,0,0.3,0,0.5L262.4,290.6z M265.4,289.8c0.1-0.8-0.4-1.5-1.2-1.6c-0.1,0-0.1,0-0.2,0
	c-0.9,0.1-1.6,0.8-1.6,1.6H265.4z"/>
<path class="st7" d="M267.6,289.3c0-0.7,0-1.2,0-1.7h0.9v1.1l0,0c0.2-0.7,0.8-1.2,1.6-1.2c0.1,0,0.2,0,0.3,0v1c-0.1,0-0.2,0-0.3,0
	c-0.7,0-1.3,0.6-1.4,1.3c0,0.2,0,0.3,0,0.5v3h-1L267.6,289.3z"/>
<path class="st6" d="M209.6,465.7h77.9V532c0,4-8.7,7.2-19.3,7.2h-58.6"/>
<path class="st7" d="M215.4,486.2h1v6.9h3.3v0.9h-4.4L215.4,486.2z"/>
<path class="st7" d="M222,486.8c0,0.3-0.3,0.6-0.6,0.6c0,0,0,0,0,0c-0.3,0-0.6-0.3-0.6-0.6c0,0,0,0,0,0c0-0.3,0.3-0.6,0.6-0.6
	C221.7,486.2,222,486.4,222,486.8z M220.8,494v-5.6h1v5.6H220.8z"/>
<path class="st7" d="M227.5,493.8c-0.5,0.2-1,0.3-1.6,0.3c-1.5,0.1-2.7-1.1-2.8-2.5c0-0.1,0-0.2,0-0.3c-0.1-1.6,1.1-2.9,2.7-3
	c0.1,0,0.2,0,0.3,0c0.5,0,1,0.1,1.4,0.3l-0.2,0.8c-0.4-0.2-0.8-0.3-1.2-0.3c-1.1,0-2,0.9-2,2c0,0,0,0.1,0,0.1
	c-0.1,1.1,0.7,2,1.7,2.1c0.1,0,0.2,0,0.3,0c0.4,0,0.9-0.1,1.2-0.3L227.5,493.8z"/>
<path class="st7" d="M229.2,491.4c-0.1,1,0.6,1.8,1.6,1.9c0.1,0,0.2,0,0.3,0c0.5,0,1.1-0.1,1.6-0.3l0.2,0.7
	c-0.6,0.2-1.2,0.4-1.9,0.4c-1.4,0.1-2.7-1-2.8-2.4c0-0.1,0-0.3,0-0.4c-0.2-1.5,0.9-2.8,2.4-3c0.1,0,0.1,0,0.2,0
	c1.3,0,2.3,1.1,2.3,2.4c0,0.1,0,0.2,0,0.2c0,0.2,0,0.3,0,0.5L229.2,491.4z M232.2,490.6c0.1-0.8-0.4-1.5-1.2-1.6c-0.1,0-0.1,0-0.2,0
	c-0.9,0.1-1.6,0.8-1.6,1.6H232.2z"/>
<path class="st7" d="M234.4,489.9c0-0.6,0-1,0-1.5h0.9l0.1,0.9l0,0c0.4-0.7,1.1-1.1,1.9-1c0.8,0,2,0.5,2,2.4v3.4h-1v-3.2
	c0-0.9-0.3-1.7-1.3-1.7c-0.6,0-1.2,0.4-1.4,1c0,0.2-0.1,0.3-0.1,0.5v3.4h-1L234.4,489.9z"/>
<path class="st7" d="M244.9,493.8c-0.5,0.2-1.1,0.3-1.6,0.3c-1.5,0.1-2.7-1.1-2.8-2.5c0-0.1,0-0.2,0-0.3c-0.1-1.6,1.1-2.9,2.7-3
	c0.1,0,0.2,0,0.3,0c0.5,0,1,0.1,1.4,0.3l-0.2,0.8c-0.4-0.2-0.8-0.3-1.2-0.3c-1.1,0-2,0.9-2,2c0,0,0,0.1,0,0.1
	c-0.1,1.1,0.7,2,1.8,2.1c0.1,0,0.1,0,0.2,0c0.4,0,0.9-0.1,1.2-0.3L244.9,493.8z"/>
<path class="st7" d="M246.6,491.4c-0.1,1,0.6,1.8,1.6,1.9c0.1,0,0.2,0,0.3,0c0.5,0,1-0.1,1.5-0.3l0.2,0.7c-0.6,0.2-1.2,0.4-1.9,0.4
	c-1.4,0.1-2.7-1-2.8-2.4c0-0.1,0-0.3,0-0.4c0-1.7,1-3,2.6-3c1.3,0,2.3,1.1,2.3,2.4c0,0.1,0,0.2,0,0.2c0,0.2,0,0.3,0,0.5L246.6,491.4
	z M249.6,490.6c0.1-0.8-0.4-1.5-1.2-1.6c-0.1,0-0.1,0-0.2,0c-0.9,0.1-1.6,0.8-1.6,1.6H249.6z"/>
<path class="st7" d="M220.2,495.7v6.8c0,0.5,0,1.1,0,1.5h-0.9v-1l0,0c-0.4,0.7-1.1,1.1-1.9,1.1c-1.4-0.1-2.5-1.3-2.4-2.7
	c0-0.1,0-0.1,0-0.2c0-1.9,1.1-3,2.5-3c0.7,0,1.3,0.3,1.7,0.8l0,0v-3.3L220.2,495.7z M219.2,500.6c0-0.1,0-0.3,0-0.4
	c-0.2-0.7-0.8-1.2-1.5-1.2c-1.1,0-1.7,0.9-1.7,2.2s0.6,2.1,1.7,2.1c0.7,0,1.3-0.5,1.5-1.2c0-0.1,0-0.3,0-0.4L219.2,500.6z"/>
<path class="st7" d="M222.5,501.3c-0.1,1,0.6,1.9,1.6,1.9c0.1,0,0.2,0,0.3,0c0.5,0,1.1-0.1,1.6-0.3l0.2,0.7
	c-0.6,0.3-1.2,0.4-1.9,0.4c-1.4,0.1-2.7-1-2.8-2.5c0-0.1,0-0.2,0-0.4c0-1.7,1-3,2.6-3c1.3,0,2.3,1.1,2.3,2.4c0,0.1,0,0.2,0,0.2
	c0,0.2,0,0.3,0,0.5L222.5,501.3z M225.5,500.5c0.1-0.8-0.4-1.5-1.2-1.6c-0.1,0-0.1,0-0.2,0c-0.9,0.1-1.6,0.8-1.6,1.6H225.5z
	 M225.7,495.9l-1.4,1.6h-0.7l1-1.6H225.7z"/>
<path class="st7" d="M228.1,498.3l1.1,3.1c0.2,0.5,0.3,1,0.4,1.4l0,0c0.1-0.5,0.3-0.9,0.5-1.4l1.1-3.1h1.1l-2.2,5.6h-1l-2.1-5.6
	H228.1z"/>
<path class="st7" d="M233.7,501.3c-0.1,1,0.6,1.9,1.6,1.9c0.1,0,0.2,0,0.3,0c0.5,0,1.1-0.1,1.6-0.3l0.2,0.7
	c-0.6,0.3-1.2,0.4-1.9,0.4c-1.4,0.1-2.7-1-2.8-2.5c0-0.1,0-0.2,0-0.4c-0.2-1.5,0.9-2.8,2.4-3c0.1,0,0.2,0,0.2,0
	c1.3,0,2.3,1.1,2.3,2.4c0,0.1,0,0.2,0,0.2c0,0.2,0,0.3,0,0.5L233.7,501.3z M236.7,500.5c0.1-0.8-0.4-1.5-1.2-1.6c-0.1,0-0.1,0-0.2,0
	c-0.9,0.1-1.6,0.8-1.6,1.6H236.7z"/>
<path class="st7" d="M238.9,495.7h1v8.2h-1V495.7z"/>
<path class="st7" d="M246.7,501c0.1,1.5-1,2.8-2.5,3c-0.1,0-0.2,0-0.3,0c-1.5,0-2.7-1.2-2.7-2.6c0-0.1,0-0.2,0-0.3
	c-0.1-1.5,0.9-2.8,2.4-3c0.1,0,0.2,0,0.3,0c1.5,0,2.7,1.1,2.7,2.6C246.7,500.8,246.7,500.9,246.7,501z M242.3,501.1
	c0,1.2,0.7,2.1,1.7,2.1s1.7-0.9,1.7-2.2c0-1-0.5-2.1-1.7-2.1S242.3,500,242.3,501.1L242.3,501.1z"/>
<path class="st7" d="M248,500.1c0-0.7,0-1.3-0.1-1.8h0.9l0.1,1l0,0c0.4-0.7,1.2-1.1,2-1.1c1.4,0,2.4,1.1,2.4,2.8c0,2-1.2,3-2.6,3
	c-0.7,0-1.3-0.3-1.7-0.9l0,0v3h-1L248,500.1z M249,501.6c0,0.1,0,0.3,0,0.4c0.2,0.7,0.8,1.2,1.5,1.2c1.1,0,1.7-0.9,1.7-2.2
	c0-1.1-0.6-2.1-1.7-2.1c-0.7,0-1.4,0.5-1.5,1.3c0,0.1-0.1,0.3-0.1,0.4L249,501.6z"/>
<path class="st7" d="M254.6,500.1c0-0.7,0-1.3,0-1.8h0.9v1l0,0c0.4-0.7,1.2-1.1,2-1.1c1.4,0,2.4,1.1,2.4,2.8c0,2-1.2,3-2.5,3
	c-0.7,0-1.3-0.3-1.7-0.9l0,0v3h-1L254.6,500.1z M255.6,501.6c0,0.1,0,0.3,0,0.4c0.2,0.7,0.8,1.2,1.5,1.2c1.1,0,1.7-0.9,1.7-2.2
	c0-1.1-0.6-2.1-1.7-2.1c-0.7,0-1.4,0.5-1.5,1.3c0,0.1-0.1,0.3-0.1,0.4L255.6,501.6z"/>
<path class="st7" d="M261.8,501.3c-0.1,1,0.6,1.9,1.6,1.9c0.1,0,0.2,0,0.3,0c0.5,0,1.1-0.1,1.5-0.3l0.2,0.7
	c-0.6,0.2-1.2,0.4-1.9,0.4c-1.4,0.1-2.7-1-2.8-2.5c0-0.1,0-0.2,0-0.4c-0.2-1.5,0.9-2.8,2.4-3c0.1,0,0.2,0,0.2,0
	c1.3,0,2.3,1.1,2.3,2.4c0,0.1,0,0.2,0,0.2c0,0.2,0,0.3,0,0.5L261.8,501.3z M264.8,500.5c0.1-0.8-0.4-1.5-1.2-1.6c-0.1,0-0.1,0-0.2,0
	c-0.9,0.1-1.6,0.8-1.6,1.6H264.8z"/>
<path class="st7" d="M271.7,502.3c0,0.6,0,1.1,0,1.5h-0.9l-0.1-0.9l0,0c-0.4,0.6-1.1,1-1.9,1c-0.9,0-1.9-0.5-1.9-2.5v-3.3h1v3.1
	c0,1.1,0.3,1.8,1.2,1.8c0.6,0,1.1-0.4,1.4-0.9c0.1-0.2,0.1-0.3,0.1-0.5v-3.4h1L271.7,502.3z"/>
<path class="st7" d="M273.4,500c0-0.7,0-1.2,0-1.7h0.9v1.1l0,0c0.2-0.7,0.8-1.2,1.6-1.2c0.1,0,0.2,0,0.3,0v1c-0.1,0-0.2,0-0.3,0
	c-0.7,0-1.3,0.6-1.4,1.3c0,0.2,0,0.3,0,0.5v3h-1L273.4,500z"/>
<path class="st7" d="M215.8,508.2l0.8,2.8c0.2,0.6,0.3,1.2,0.4,1.8l0,0c0.1-0.6,0.3-1.2,0.5-1.8l0.9-2.8h0.9l0.9,2.8
	c0.2,0.7,0.4,1.3,0.5,1.8l0,0c0.1-0.6,0.2-1.2,0.4-1.8l0.8-2.8h1l-1.8,5.6h-0.9l-0.9-2.7c-0.2-0.6-0.4-1.2-0.5-1.8l0,0
	c-0.1,0.6-0.3,1.2-0.5,1.9l-0.9,2.7h-0.9l-1.7-5.6L215.8,508.2z"/>
<path class="st7" d="M224.4,511.2c-0.1,1,0.6,1.8,1.6,1.9c0.1,0,0.2,0,0.3,0c0.5,0,1.1-0.1,1.6-0.3l0.2,0.7
	c-0.6,0.2-1.2,0.4-1.9,0.3c-1.4,0.1-2.7-1-2.8-2.4c0-0.1,0-0.3,0-0.4c0-1.7,1-3,2.6-3c1.3,0,2.3,1.1,2.3,2.4c0,0.1,0,0.2,0,0.2
	c0,0.2,0,0.3,0,0.5L224.4,511.2z M227.4,510.4c0.1-0.8-0.4-1.5-1.2-1.6c-0.1,0-0.1,0-0.2,0c-0.9,0.1-1.6,0.8-1.6,1.6H227.4z"/>
<path class="st7" d="M229.5,513.8c0-0.4,0-1,0-1.4v-6.8h1v3.5l0,0c0.4-0.7,1.1-1,1.9-1c1.4,0,2.4,1.1,2.4,2.9c0,2-1.3,3-2.5,3
	c-0.8,0.1-1.5-0.3-1.9-1l0,0v0.9L229.5,513.8z M230.6,511.5c0,0.1,0,0.2,0,0.4c0.2,0.7,0.8,1.2,1.5,1.2c1.1,0,1.7-0.9,1.7-2.1
	c0-1.1-0.6-2.1-1.7-2.1c-0.7,0-1.4,0.5-1.5,1.2c0,0.1-0.1,0.3-0.1,0.4L230.6,511.5z"/>
<line class="st4" x1="208.8" y1="833.4" x2="307.8" y2="833.4"/>
<line class="st3" x1="119.3" y1="172.7" x2="141.6" y2="172.7"/>
<line class="st3" x1="119.3" y1="282.1" x2="140.7" y2="282.1"/>
<line class="st3" x1="120.4" y1="528.6" x2="141.8" y2="528.6"/>
<path class="st5" d="M314.5,174.9v-0.6l0.8-0.8c1.9-1.8,2.8-2.8,2.8-3.9c0.1-0.7-0.5-1.4-1.2-1.5c-0.1,0-0.2,0-0.3,0
	c-0.6,0-1.2,0.2-1.6,0.6l-0.3-0.7c0.6-0.5,1.3-0.8,2.1-0.8c1.2-0.1,2.2,0.8,2.3,1.9c0,0.1,0,0.2,0,0.3c0,1.4-1,2.5-2.6,4l-0.6,0.6
	l0,0h3.4v0.9L314.5,174.9z"/>
<path class="st5" d="M325.5,171c0,2.6-1,4-2.6,4c-1.5,0-2.5-1.4-2.5-3.9s1.1-3.9,2.6-3.9S325.5,168.6,325.5,171z M321.4,171.1
	c0,2,0.6,3.1,1.5,3.1s1.5-1.2,1.5-3.1s-0.5-3-1.5-3S321.4,169.1,321.4,171.1L321.4,171.1z"/>
<path class="st5" d="M328.6,168.3L328.6,168.3l-1.3,0.7l-0.2-0.8l1.6-0.9h0.9v7.5h-1L328.6,168.3z"/>
<path class="st5" d="M334.5,168.3L334.5,168.3l-1.3,0.7l-0.2-0.8l1.6-0.9h0.9v7.5h-1L334.5,168.3z"/>
<path class="st5" d="M314.5,247.8v-0.6l0.8-0.8c1.9-1.8,2.8-2.8,2.8-3.9c0.1-0.7-0.5-1.4-1.2-1.5c-0.1,0-0.2,0-0.3,0
	c-0.6,0-1.2,0.2-1.6,0.6l-0.3-0.7c0.6-0.5,1.3-0.8,2.1-0.8c1.2-0.1,2.2,0.8,2.3,1.9c0,0.1,0,0.2,0,0.3c0,1.4-1,2.5-2.6,4l-0.6,0.6
	l0,0h3.4v0.9L314.5,247.8z"/>
<path class="st5" d="M325.5,244c0,2.6-1,4-2.6,4c-1.5,0-2.5-1.4-2.5-3.9s1.1-3.9,2.6-3.9S325.5,241.6,325.5,244z M321.4,244.1
	c0,2,0.6,3.1,1.5,3.1s1.5-1.2,1.5-3.1s-0.5-3-1.5-3S321.4,242.1,321.4,244.1L321.4,244.1z"/>
<path class="st5" d="M328.6,241.3L328.6,241.3l-1.3,0.7l-0.2-0.8l1.6-0.9h0.9v7.5h-1L328.6,241.3z"/>
<path class="st5" d="M332.3,247.8v-0.6l0.8-0.8c1.9-1.8,2.8-2.8,2.8-3.9c0.1-0.7-0.5-1.4-1.2-1.5c-0.1,0-0.2,0-0.3,0
	c-0.6,0-1.1,0.2-1.6,0.6l-0.3-0.7c0.6-0.5,1.4-0.8,2.1-0.8c1.2-0.1,2.2,0.7,2.3,1.9c0,0.1,0,0.2,0,0.3c0,1.4-1,2.5-2.6,4l-0.6,0.6
	l0,0h3.4v0.9L332.3,247.8z"/>
<path class="st5" d="M314.5,319.1v-0.6l0.8-0.8c1.9-1.8,2.8-2.8,2.8-3.9c0.1-0.7-0.5-1.4-1.2-1.5c-0.1,0-0.2,0-0.3,0
	c-0.6,0-1.2,0.2-1.6,0.6l-0.3-0.7c0.6-0.5,1.3-0.8,2.1-0.8c1.2-0.1,2.2,0.8,2.3,1.9c0,0.1,0,0.2,0,0.3c0,1.4-1,2.5-2.6,4l-0.6,0.6
	l0,0h3.4v0.9L314.5,319.1z"/>
<path class="st5" d="M325.5,315.3c0,2.5-1,4-2.6,4c-1.5,0-2.5-1.4-2.5-3.9s1.1-3.9,2.6-3.9S325.5,312.9,325.5,315.3z M321.4,315.4
	c0,2,0.6,3.1,1.5,3.1s1.5-1.2,1.5-3.1s-0.5-3.1-1.5-3.1S321.4,313.4,321.4,315.4L321.4,315.4z"/>
<path class="st5" d="M328.6,312.6L328.6,312.6l-1.3,0.7l-0.2-0.8l1.6-0.9h0.9v7.5h-1L328.6,312.6z"/>
<path class="st5" d="M332.6,318c0.5,0.3,1.1,0.5,1.7,0.5c1.3,0,1.7-0.8,1.7-1.5c0-1.1-1-1.5-2-1.5h-0.6v-0.8h0.6
	c0.7,0,1.7-0.4,1.7-1.3c0-0.6-0.4-1.1-1.3-1.1c-0.5,0-1.1,0.2-1.5,0.5l-0.3-0.7c0.6-0.4,1.3-0.6,2-0.6c1.5,0,2.1,0.9,2.1,1.8
	c0,0.8-0.6,1.6-1.4,1.8l0,0c0.9,0.2,1.6,1,1.7,1.9c0,1.2-0.9,2.2-2.7,2.2c-0.7,0-1.4-0.2-2-0.5L332.6,318z"/>
<path class="st5" d="M314.5,392.6V392l0.8-0.8c1.9-1.8,2.8-2.8,2.8-3.9c0.1-0.7-0.5-1.4-1.2-1.5c-0.1,0-0.2,0-0.3,0
	c-0.6,0-1.2,0.2-1.6,0.6l-0.3-0.7c0.6-0.5,1.3-0.8,2.1-0.8c1.2-0.1,2.2,0.8,2.3,1.9c0,0.1,0,0.2,0,0.3c0,1.4-1,2.5-2.6,4l-0.6,0.5
	l0,0h3.4v0.8L314.5,392.6z"/>
<path class="st5" d="M325.5,388.8c0,2.6-1,4-2.6,4c-1.5,0-2.5-1.4-2.5-3.9s1.1-3.9,2.6-3.9S325.5,386.4,325.5,388.8z M321.4,388.9
	c0,2,0.6,3.1,1.5,3.1s1.5-1.2,1.5-3.1s-0.5-3.1-1.5-3.1S321.4,386.9,321.4,388.9L321.4,388.9z"/>
<path class="st5" d="M328.6,386.1L328.6,386.1l-1.3,0.7l-0.2-0.8l1.6-0.9h0.9v7.5h-1L328.6,386.1z"/>
<path class="st5" d="M335.5,392.6v-2H332V390l3.4-4.8h1.1v4.7h1.1v0.8h-1.1v2H335.5z M335.5,389.8v-2.5c0-0.4,0-0.8,0-1.2l0,0
	c-0.2,0.4-0.4,0.8-0.6,1.1l-1.9,2.5l0,0L335.5,389.8z"/>
<path class="st5" d="M314.5,468.2v-0.6l0.8-0.8c1.9-1.8,2.8-2.8,2.8-3.9c0.1-0.7-0.5-1.4-1.2-1.5c-0.1,0-0.2,0-0.3,0
	c-0.6,0-1.2,0.2-1.6,0.6l-0.3-0.7c0.6-0.5,1.3-0.8,2.1-0.8c1.2-0.1,2.2,0.8,2.3,1.9c0,0.1,0,0.2,0,0.3c0,1.4-1,2.5-2.6,4l-0.6,0.6
	l0,0h3.4v0.9L314.5,468.2z"/>
<path class="st5" d="M325.5,464.4c0,2.5-1,4-2.6,4c-1.5,0-2.5-1.4-2.5-3.9s1.1-3.9,2.6-3.9S325.5,462,325.5,464.4z M321.4,464.5
	c0,2,0.6,3.1,1.5,3.1s1.5-1.2,1.5-3.1s-0.5-3.1-1.5-3.1S321.4,462.5,321.4,464.5L321.4,464.5z"/>
<path class="st5" d="M328.6,461.7L328.6,461.7l-1.3,0.7l-0.2-0.8l1.6-0.9h0.9v7.5h-1L328.6,461.7z"/>
<path class="st5" d="M336.8,461.6H334l-0.3,1.9c0.2,0,0.4,0,0.6,0c0.6,0,1.1,0.1,1.6,0.4c0.7,0.4,1.1,1.1,1.1,1.9
	c0,1.4-1.2,2.6-2.6,2.6c-0.1,0-0.1,0-0.2,0c-0.7,0-1.3-0.1-1.9-0.5l0.3-0.8c0.5,0.3,1,0.4,1.6,0.4c0.9,0.1,1.7-0.6,1.8-1.5
	c0,0,0-0.1,0-0.1c0-1-0.7-1.7-2.2-1.7c-0.3,0-0.7,0-1,0.1l0.5-3.6h3.6L336.8,461.6z"/>
<path class="st5" d="M314.5,540v-0.6l0.8-0.8c1.9-1.8,2.8-2.8,2.8-3.9c0.1-0.7-0.5-1.4-1.2-1.5c-0.1,0-0.2,0-0.3,0
	c-0.6,0-1.2,0.2-1.6,0.6l-0.3-0.7c0.6-0.5,1.3-0.8,2.1-0.8c1.2-0.1,2.2,0.8,2.3,1.9c0,0.1,0,0.2,0,0.3c0,1.4-1,2.5-2.6,4l-0.6,0.5
	l0,0h3.4v0.9H314.5z"/>
<path class="st5" d="M325.5,536.2c0,2.6-1,4-2.6,4c-1.5,0-2.5-1.4-2.5-3.9s1.1-3.9,2.6-3.9S325.5,533.8,325.5,536.2z M321.4,536.3
	c0,2,0.6,3.1,1.5,3.1s1.5-1.2,1.5-3.1s-0.5-3.1-1.5-3.1S321.4,534.3,321.4,536.3z"/>
<path class="st5" d="M328.6,533.5L328.6,533.5l-1.3,0.7l-0.2-0.8l1.6-0.9h0.9v7.5h-1L328.6,533.5z"/>
<path class="st5" d="M336.6,533.2c-0.3,0-0.5,0-0.8,0c-1.4,0.2-2.5,1.3-2.6,2.7l0,0c0.8-1,2.2-1.2,3.2-0.4c0.6,0.5,0.9,1.2,0.9,1.9
	c0.1,1.4-1,2.6-2.4,2.6c0,0-0.1,0-0.1,0c-1.6,0-2.7-1.2-2.7-3.2c0-1.3,0.4-2.5,1.3-3.4c0.7-0.6,1.5-1,2.4-1.1c0.2,0,0.5,0,0.7,0
	L336.6,533.2z M336.3,537.6c0.1-0.8-0.5-1.6-1.3-1.7c-0.1,0-0.2,0-0.2,0c-0.6,0-1.2,0.4-1.5,0.9c-0.1,0.1-0.1,0.3-0.1,0.5
	c0,1.2,0.6,2.2,1.6,2.2C335.8,539.4,336.3,538.7,336.3,537.6z"/>
<path class="st5" d="M314.5,614.7v-0.6l0.8-0.8c1.9-1.8,2.8-2.8,2.8-3.9c0.1-0.7-0.5-1.4-1.2-1.5c-0.1,0-0.2,0-0.3,0
	c-0.6,0-1.2,0.2-1.6,0.6l-0.3-0.7c0.6-0.5,1.3-0.8,2.1-0.8c1.2-0.1,2.2,0.8,2.3,1.9c0,0.1,0,0.2,0,0.3c0,1.4-1,2.5-2.6,4l-0.6,0.5
	l0,0h3.4v0.8L314.5,614.7z"/>
<path class="st5" d="M325.5,610.9c0,2.6-1,4-2.6,4c-1.5,0-2.5-1.4-2.5-3.9s1.1-3.9,2.6-3.9S325.5,608.5,325.5,610.9z M321.4,611
	c0,2,0.6,3.1,1.5,3.1s1.5-1.2,1.5-3.1s-0.5-3.1-1.5-3.1S321.4,608.9,321.4,611L321.4,611z"/>
<path class="st5" d="M328.6,608.1L328.6,608.1l-1.3,0.7l-0.2-0.8l1.6-0.9h0.9v7.5h-1L328.6,608.1z"/>
<path class="st5" d="M337.2,607.2v0.7l-3.2,6.9h-1.1l3.3-6.7l0,0h-3.7v-0.8L337.2,607.2z"/>
<path class="st5" d="M314.5,688v-0.6l0.8-0.8c1.9-1.8,2.8-2.8,2.8-3.9c0.1-0.7-0.5-1.4-1.2-1.5c-0.1,0-0.2,0-0.3,0
	c-0.6,0-1.2,0.2-1.6,0.6l-0.3-0.7c0.6-0.5,1.3-0.8,2.1-0.8c1.2-0.1,2.2,0.8,2.3,1.9c0,0.1,0,0.2,0,0.3c0,1.4-1,2.5-2.6,4l-0.6,0.5
	l0,0h3.4v0.9H314.5z"/>
<path class="st5" d="M325.5,684.1c0,2.6-1,4-2.6,4c-1.5,0-2.5-1.4-2.5-3.9s1.1-3.9,2.6-3.9S325.5,681.7,325.5,684.1z M321.4,684.2
	c0,2,0.6,3.1,1.5,3.1s1.5-1.2,1.5-3.1s-0.5-3.1-1.5-3.1S321.4,682.2,321.4,684.2z"/>
<path class="st5" d="M328.6,681.4L328.6,681.4l-1.3,0.7l-0.2-0.8l1.6-0.9h0.9v7.6h-1L328.6,681.4z"/>
<path class="st5" d="M332.2,686c0-0.9,0.6-1.7,1.5-2l0,0c-0.7-0.3-1.2-0.9-1.2-1.7c0-1.2,1-2.1,2.2-2c0,0,0.1,0,0.1,0
	c1.1-0.1,2,0.6,2.2,1.7c0,0.1,0,0.1,0,0.2c0,0.8-0.5,1.5-1.2,1.8l0,0c0.9,0.3,1.5,1,1.5,1.9c-0.1,1.3-1.1,2.3-2.4,2.2
	c0,0-0.1,0-0.1,0C333.2,688.1,332.2,687.1,332.2,686z M336.2,686c0-0.9-0.6-1.3-1.6-1.6c-0.8,0.1-1.3,0.8-1.4,1.5
	c0,0.8,0.6,1.4,1.3,1.4c0.1,0,0.1,0,0.2,0c0.7,0.1,1.4-0.4,1.5-1.2C336.3,686.1,336.3,686.1,336.2,686L336.2,686z M333.5,682.2
	c0,0.8,0.6,1.2,1.4,1.4c0.6-0.1,1.1-0.7,1.1-1.4c0.1-0.6-0.4-1.2-1.1-1.3c-0.1,0-0.1,0-0.2,0c-0.7-0.1-1.2,0.4-1.3,1.1
	C333.5,682.1,333.5,682.2,333.5,682.2L333.5,682.2z"/>
<path class="st5" d="M314.5,761.8v-0.6l0.8-0.8c1.9-1.8,2.8-2.8,2.8-3.9c0.1-0.7-0.5-1.4-1.2-1.5c-0.1,0-0.2,0-0.3,0
	c-0.6,0-1.2,0.2-1.6,0.6l-0.3-0.7c0.6-0.5,1.3-0.8,2.1-0.8c1.2-0.1,2.2,0.8,2.3,1.9c0,0.1,0,0.2,0,0.3c0,1.4-1,2.5-2.6,4L316,761
	l0,0h3.4v0.8L314.5,761.8z"/>
<path class="st5" d="M325.5,758c0,2.6-1,4-2.6,4c-1.5,0-2.5-1.4-2.5-3.9s1.1-3.9,2.6-3.9S325.5,755.6,325.5,758z M321.4,758.1
	c0,2,0.6,3.1,1.5,3.1s1.5-1.2,1.5-3.1s-0.5-3-1.5-3S321.4,756.1,321.4,758.1L321.4,758.1z"/>
<path class="st5" d="M328.6,755.3L328.6,755.3l-1.3,0.7l-0.2-0.8l1.6-0.9h0.9v7.5h-1L328.6,755.3z"/>
<path class="st5" d="M332.9,761.1c0.3,0,0.5,0,0.8,0c0.6-0.1,1.1-0.3,1.6-0.7c0.6-0.5,0.9-1.2,1-2l0,0c-0.8,1-2.2,1.1-3.2,0.3
	c-0.5-0.4-0.8-1.1-0.8-1.8c0-1.4,1.1-2.6,2.5-2.7c0,0,0.1,0,0.1,0c1.5,0,2.5,1.2,2.5,3.2c0.1,1.3-0.4,2.6-1.3,3.5
	c-0.6,0.6-1.4,0.9-2.2,1c-0.3,0.1-0.6,0.1-0.9,0.1L332.9,761.1z M333.3,756.8c-0.1,0.8,0.5,1.5,1.3,1.6c0.1,0,0.1,0,0.2,0
	c0.6,0,1.2-0.3,1.5-0.8c0.1-0.1,0.1-0.2,0.1-0.4c0-1.3-0.5-2.3-1.5-2.3C333.9,755,333.3,755.8,333.3,756.8z"/>
<path class="st5" d="M314.5,835.9v-0.6l0.8-0.8c1.9-1.8,2.8-2.8,2.8-3.9c0.1-0.7-0.5-1.4-1.2-1.5c-0.1,0-0.2,0-0.3,0
	c-0.6,0-1.2,0.2-1.6,0.6l-0.3-0.7c0.6-0.5,1.3-0.8,2.1-0.8c1.2-0.1,2.2,0.8,2.3,1.9c0,0.1,0,0.2,0,0.3c0,1.4-1,2.5-2.6,4L316,835
	l0,0h3.4v0.8L314.5,835.9z"/>
<path class="st5" d="M325.5,832c0,2.6-1,4-2.6,4c-1.5,0-2.5-1.4-2.5-3.9s1.1-3.9,2.6-3.9S325.5,829.6,325.5,832z M321.4,832.1
	c0,2,0.6,3.1,1.5,3.1s1.5-1.2,1.5-3.1s-0.5-3-1.5-3S321.4,830.1,321.4,832.1L321.4,832.1z"/>
<path class="st5" d="M326.4,835.9v-0.6l0.8-0.8c1.9-1.8,2.8-2.8,2.8-3.9c0.1-0.7-0.5-1.4-1.2-1.5c-0.1,0-0.2,0-0.3,0
	c-0.6,0-1.2,0.2-1.6,0.6l-0.3-0.7c0.6-0.5,1.4-0.8,2.1-0.8c1.2-0.1,2.2,0.7,2.3,1.9c0,0.1,0,0.2,0,0.3c0,1.4-1,2.5-2.6,4l-0.6,0.5
	l0,0h3.4v0.8L326.4,835.9z"/>
<path class="st5" d="M337.3,832c0,2.6-0.9,4-2.6,4c-1.5,0-2.5-1.4-2.5-3.9s1.1-3.9,2.6-3.9S337.3,829.6,337.3,832z M333.2,832.1
	c0,2,0.6,3.1,1.5,3.1s1.5-1.2,1.5-3.1s-0.5-3.1-1.5-3.1C333.9,829,333.2,830.1,333.2,832.1L333.2,832.1z"/>
<path class="st2" d="M141.8,862.4v-33.6l0,0h67l0,0v45l0,0h-61.4C144.4,873.8,141.8,868.7,141.8,862.4
	C141.8,862.4,141.8,862.4,141.8,862.4z"/>
<g>
	<path class="st2" d="M49.9,830.6h4.7v0.9H51v2.9h3.3v0.9H51v4h-1.1V830.6z"/>
	<path class="st2" d="M56.2,830.7c0.6-0.1,1.4-0.2,2.2-0.2c1.2,0,2,0.2,2.5,0.7c0.4,0.4,0.7,1,0.7,1.7c0,1.2-0.7,1.9-1.7,2.2v0
		c0.7,0.2,1.1,0.9,1.3,1.8c0.3,1.2,0.5,2.1,0.7,2.4h-1.2c-0.1-0.3-0.3-1-0.6-2.1c-0.3-1.2-0.7-1.7-1.8-1.7h-1.1v3.8h-1.1V830.7z
		 M57.4,834.7h1.2c1.2,0,2-0.7,2-1.7c0-1.1-0.8-1.6-2-1.6c-0.5,0-0.9,0.1-1.1,0.1V834.7z"/>
	<path class="st2" d="M67.8,835.2h-3.4v3.2h3.8v0.9h-4.9v-8.8H68v0.9h-3.6v2.8h3.4V835.2z"/>
	<path class="st2" d="M74.2,835.2h-3.4v3.2h3.8v0.9h-4.9v-8.8h4.7v0.9h-3.6v2.8h3.4V835.2z"/>
	<path class="st2" d="M76,830.6h1.1v7.8h3.7v1H76V830.6z"/>
	<path class="st2" d="M83.6,836.6l-0.9,2.8h-1.2l3-8.8h1.4l3,8.8h-1.2l-0.9-2.8H83.6z M86.5,835.7l-0.9-2.5
		c-0.2-0.6-0.3-1.1-0.5-1.6h0c-0.1,0.5-0.3,1-0.4,1.6l-0.9,2.5H86.5z"/>
	<path class="st2" d="M90.1,839.3v-8.8h1.2l2.8,4.4c0.6,1,1.1,1.9,1.6,2.9l0,0c-0.1-1.2-0.1-2.2-0.1-3.6v-3.7h1.1v8.8h-1.1l-2.8-4.4
		c-0.6-1-1.2-2-1.6-2.9l0,0c0.1,1.1,0.1,2.2,0.1,3.6v3.7H90.1z"/>
	<path class="st2" d="M104.8,839c-0.4,0.2-1.2,0.4-2.3,0.4c-2.5,0-4.3-1.6-4.3-4.4c0-2.8,1.9-4.6,4.6-4.6c1.1,0,1.8,0.2,2.1,0.4
		l-0.3,0.9c-0.4-0.2-1-0.4-1.8-0.4c-2.1,0-3.4,1.3-3.4,3.6c0,2.1,1.2,3.5,3.4,3.5c0.7,0,1.4-0.1,1.9-0.4L104.8,839z"/>
	<path class="st2" d="M110.8,835.2h-3.4v3.2h3.8v0.9h-4.9v-8.8h4.7v0.9h-3.6v2.8h3.4V835.2z"/>
	<path class="st2" d="M36.7,845.7v7.6c0,0.6,0,1.2,0.1,1.6h-1l-0.1-1.1h0c-0.3,0.7-1.1,1.2-2.1,1.2c-1.5,0-2.7-1.3-2.7-3.2
		c0-2.1,1.3-3.4,2.8-3.4c1,0,1.6,0.5,1.9,1h0v-3.8H36.7z M35.5,851.2c0-0.1,0-0.3,0-0.5c-0.2-0.7-0.8-1.3-1.7-1.3
		c-1.2,0-1.9,1-1.9,2.4c0,1.3,0.6,2.3,1.9,2.3c0.8,0,1.5-0.5,1.7-1.4c0-0.2,0.1-0.3,0.1-0.5V851.2z"/>
	<path class="st2" d="M42.1,854.9l-0.1-0.8h0c-0.3,0.5-1,0.9-1.9,0.9c-1.3,0-1.9-0.9-1.9-1.8c0-1.5,1.3-2.4,3.8-2.3v-0.1
		c0-0.5-0.1-1.5-1.4-1.5c-0.6,0-1.2,0.2-1.6,0.5l-0.3-0.8c0.5-0.3,1.3-0.6,2.1-0.6c1.9,0,2.4,1.3,2.4,2.6v2.4c0,0.5,0,1.1,0.1,1.5
		H42.1z M41.9,851.7c-1.2,0-2.7,0.2-2.7,1.4c0,0.8,0.5,1.1,1.1,1.1c0.8,0,1.3-0.5,1.5-1.1c0-0.1,0.1-0.3,0.1-0.4V851.7z"/>
	<path class="st2" d="M46.2,846.8v1.8h1.6v0.9h-1.6v3.4c0,0.8,0.2,1.2,0.9,1.2c0.3,0,0.5,0,0.7-0.1l0.1,0.9c-0.2,0.1-0.6,0.2-1,0.2
		c-0.5,0-1-0.2-1.2-0.5c-0.3-0.3-0.4-0.9-0.4-1.6v-3.4h-1v-0.9h1v-1.5L46.2,846.8z"/>
	<path class="st2" d="M52.6,854.9l-0.1-0.8h0c-0.3,0.5-1,0.9-1.9,0.9c-1.3,0-1.9-0.9-1.9-1.8c0-1.5,1.3-2.4,3.8-2.3v-0.1
		c0-0.5-0.1-1.5-1.4-1.5c-0.6,0-1.2,0.2-1.6,0.5L49,849c0.5-0.3,1.3-0.6,2.1-0.6c1.9,0,2.4,1.3,2.4,2.6v2.4c0,0.5,0,1.1,0.1,1.5
		H52.6z M52.4,851.7c-1.2,0-2.7,0.2-2.7,1.4c0,0.8,0.5,1.1,1.1,1.1c0.8,0,1.3-0.5,1.5-1.1c0-0.1,0.1-0.3,0.1-0.4V851.7z"/>
	<path class="st2" d="M53.8,856.7c0.5,0,1-0.2,1.2-0.5c0.3-0.4,0.4-0.9,0.4-2.4v-5.3h1.1v5.7c0,1.2-0.2,2-0.8,2.6
		c-0.5,0.5-1.3,0.7-2,0.7L53.8,856.7z M56.8,846.9c0,0.4-0.3,0.7-0.7,0.7c-0.4,0-0.7-0.3-0.7-0.7c0-0.4,0.3-0.7,0.7-0.7
		C56.5,846.1,56.8,846.5,56.8,846.9z"/>
	<path class="st2" d="M64.2,851.7c0,2.3-1.6,3.3-3.1,3.3c-1.7,0-3-1.2-3-3.2c0-2.1,1.4-3.3,3.1-3.3C63,848.5,64.2,849.8,64.2,851.7z
		 M59.2,851.8c0,1.4,0.8,2.4,1.9,2.4c1.1,0,1.9-1,1.9-2.5c0-1.1-0.5-2.4-1.9-2.4C59.8,849.3,59.2,850.6,59.2,851.8z"/>
	<path class="st2" d="M70.9,853.2c0,0.7,0,1.2,0.1,1.7h-1l-0.1-1h0c-0.3,0.5-1,1.2-2.1,1.2c-1,0-2.2-0.6-2.2-2.8v-3.7h1.1v3.5
		c0,1.2,0.4,2,1.4,2c0.8,0,1.3-0.5,1.5-1c0.1-0.2,0.1-0.4,0.1-0.6v-3.9h1.1V853.2z"/>
	<path class="st2" d="M72.8,850.6c0-0.7,0-1.4-0.1-2h1l0,1.2h0c0.3-0.8,1-1.4,1.8-1.4c0.1,0,0.2,0,0.3,0v1.1c-0.1,0-0.2,0-0.4,0
		c-0.8,0-1.4,0.6-1.5,1.5c0,0.2,0,0.3,0,0.5v3.4h-1.1V850.6z"/>
	<path class="st2" d="M77.1,850.3c0-0.7,0-1.2-0.1-1.7h1l0.1,1h0c0.3-0.6,1-1.2,2.1-1.2c0.9,0,2.2,0.5,2.2,2.7v3.8h-1.1v-3.6
		c0-1-0.4-1.9-1.5-1.9c-0.8,0-1.3,0.5-1.5,1.2c0,0.1-0.1,0.3-0.1,0.5v3.8h-1.1V850.3z"/>
	<path class="st2" d="M87.8,854.9l-0.1-0.8h0c-0.3,0.5-1,0.9-1.9,0.9c-1.3,0-1.9-0.9-1.9-1.8c0-1.5,1.3-2.4,3.8-2.3v-0.1
		c0-0.5-0.1-1.5-1.4-1.5c-0.6,0-1.2,0.2-1.6,0.5l-0.3-0.8c0.5-0.3,1.3-0.6,2.1-0.6c1.9,0,2.4,1.3,2.4,2.6v2.4c0,0.5,0,1.1,0.1,1.5
		H87.8z M87.6,851.7c-1.2,0-2.7,0.2-2.7,1.4c0,0.8,0.5,1.1,1.1,1.1c0.8,0,1.3-0.5,1.5-1.1c0-0.1,0.1-0.3,0.1-0.4V851.7z"/>
	<path class="st2" d="M90.6,845.7h1.1v9.2h-1.1V845.7z"/>
	<path class="st2" d="M94.9,846.9c0,0.4-0.3,0.7-0.7,0.7c-0.4,0-0.7-0.3-0.7-0.7c0-0.4,0.3-0.7,0.7-0.7
		C94.7,846.1,94.9,846.5,94.9,846.9z M93.7,854.9v-6.3h1.1v6.3H93.7z"/>
	<path class="st2" d="M96.5,853.8c0.3,0.2,0.9,0.4,1.5,0.4c0.8,0,1.2-0.4,1.2-0.9c0-0.5-0.3-0.8-1.2-1.2c-1.1-0.4-1.7-1-1.7-1.8
		c0-1,0.8-1.8,2.2-1.8c0.6,0,1.2,0.2,1.5,0.4l-0.3,0.8c-0.2-0.2-0.7-0.4-1.3-0.4c-0.7,0-1,0.4-1,0.9c0,0.5,0.4,0.8,1.2,1.1
		c1.1,0.4,1.6,1,1.6,1.9c0,1.1-0.9,1.9-2.4,1.9c-0.7,0-1.3-0.2-1.8-0.4L96.5,853.8z"/>
	<path class="st2" d="M103.2,846.8v1.8h1.6v0.9h-1.6v3.4c0,0.8,0.2,1.2,0.9,1.2c0.3,0,0.5,0,0.7-0.1l0.1,0.9c-0.2,0.1-0.6,0.2-1,0.2
		c-0.5,0-1-0.2-1.2-0.5c-0.3-0.3-0.4-0.9-0.4-1.6v-3.4h-1v-0.9h1v-1.5L103.2,846.8z"/>
	<path class="st2" d="M106.7,852c0,1.5,1,2.2,2.2,2.2c0.8,0,1.3-0.1,1.7-0.3l0.2,0.8c-0.4,0.2-1.1,0.4-2.1,0.4
		c-1.9,0-3.1-1.3-3.1-3.2c0-1.9,1.1-3.4,3-3.4c2.1,0,2.6,1.8,2.6,3c0,0.2,0,0.4,0,0.5H106.7z M110.1,851.2c0-0.7-0.3-1.9-1.6-1.9
		c-1.2,0-1.7,1.1-1.8,1.9H110.1z"/>
	<path class="st2" d="M48.6,861.3v7.6c0,0.6,0,1.2,0.1,1.6h-1l-0.1-1.1h0c-0.3,0.7-1.1,1.2-2.1,1.2c-1.5,0-2.7-1.3-2.7-3.2
		c0-2.1,1.3-3.4,2.8-3.4c1,0,1.6,0.5,1.9,1h0v-3.8H48.6z M47.5,866.8c0-0.1,0-0.3,0-0.5c-0.2-0.7-0.8-1.3-1.7-1.3
		c-1.2,0-1.9,1-1.9,2.4c0,1.3,0.6,2.3,1.9,2.3c0.8,0,1.5-0.5,1.7-1.4c0-0.2,0.1-0.3,0.1-0.5V866.8z"/>
	<path class="st2" d="M51.1,867.6c0,1.5,1,2.2,2.2,2.2c0.8,0,1.3-0.1,1.7-0.3l0.2,0.8c-0.4,0.2-1.1,0.4-2.1,0.4
		c-1.9,0-3.1-1.3-3.1-3.2c0-1.9,1.1-3.4,3-3.4c2.1,0,2.6,1.8,2.6,3c0,0.2,0,0.4,0,0.5H51.1z M54.5,866.8c0-0.7-0.3-1.9-1.6-1.9
		c-1.2,0-1.7,1.1-1.8,1.9H54.5z M54.8,861.5l-1.6,1.9h-0.8l1.1-1.9H54.8z"/>
	<path class="st2" d="M57.5,864.2l1.2,3.5c0.2,0.6,0.4,1.1,0.5,1.6h0c0.1-0.5,0.3-1,0.5-1.6l1.2-3.5h1.2l-2.5,6.3h-1.1l-2.4-6.3
		H57.5z"/>
	<path class="st2" d="M63.8,867.6c0,1.5,1,2.2,2.2,2.2c0.8,0,1.3-0.1,1.7-0.3l0.2,0.8c-0.4,0.2-1.1,0.4-2.1,0.4
		c-1.9,0-3.1-1.3-3.1-3.2c0-1.9,1.1-3.4,3-3.4c2.1,0,2.6,1.8,2.6,3c0,0.2,0,0.4,0,0.5H63.8z M67.1,866.8c0-0.7-0.3-1.9-1.6-1.9
		c-1.2,0-1.7,1.1-1.8,1.9H67.1z"/>
	<path class="st2" d="M69.6,861.3h1.1v9.2h-1.1V861.3z"/>
	<path class="st2" d="M78.4,867.3c0,2.3-1.6,3.3-3.1,3.3c-1.7,0-3-1.2-3-3.2c0-2.1,1.4-3.3,3.1-3.3
		C77.2,864.1,78.4,865.4,78.4,867.3z M73.4,867.4c0,1.4,0.8,2.4,1.9,2.4c1.1,0,1.9-1,1.9-2.5c0-1.1-0.5-2.4-1.9-2.4
		C74,864.9,73.4,866.2,73.4,867.4z"/>
	<path class="st2" d="M79.9,866.3c0-0.8,0-1.5-0.1-2h1l0.1,1.1h0c0.5-0.8,1.2-1.2,2.2-1.2c1.5,0,2.7,1.3,2.7,3.2
		c0,2.3-1.4,3.4-2.9,3.4c-0.8,0-1.6-0.4-1.9-1h0v3.4h-1.1V866.3z M81,868c0,0.2,0,0.3,0,0.5c0.2,0.8,0.9,1.3,1.7,1.3
		c1.2,0,1.9-1,1.9-2.4c0-1.3-0.7-2.3-1.9-2.3c-0.8,0-1.5,0.6-1.7,1.4c0,0.1-0.1,0.3-0.1,0.5V868z"/>
	<path class="st2" d="M87.2,866.3c0-0.8,0-1.5-0.1-2h1l0.1,1.1h0c0.5-0.8,1.2-1.2,2.2-1.2c1.5,0,2.7,1.3,2.7,3.2
		c0,2.3-1.4,3.4-2.9,3.4c-0.8,0-1.6-0.4-1.9-1h0v3.4h-1.1V866.3z M88.4,868c0,0.2,0,0.3,0,0.5c0.2,0.8,0.9,1.3,1.7,1.3
		c1.2,0,1.9-1,1.9-2.4c0-1.3-0.7-2.3-1.9-2.3c-0.8,0-1.5,0.6-1.7,1.4c0,0.1-0.1,0.3-0.1,0.5V868z"/>
	<path class="st2" d="M95.3,867.6c0,1.5,1,2.2,2.2,2.2c0.8,0,1.3-0.1,1.7-0.3l0.2,0.8c-0.4,0.2-1.1,0.4-2.1,0.4
		c-1.9,0-3.1-1.3-3.1-3.2c0-1.9,1.1-3.4,3-3.4c2.1,0,2.6,1.8,2.6,3c0,0.2,0,0.4,0,0.5H95.3z M98.6,866.8c0-0.7-0.3-1.9-1.6-1.9
		c-1.2,0-1.7,1.1-1.8,1.9H98.6z"/>
	<path class="st2" d="M106.4,868.8c0,0.7,0,1.2,0.1,1.7h-1l-0.1-1h0c-0.3,0.5-1,1.2-2.1,1.2c-1,0-2.2-0.6-2.2-2.8v-3.7h1.1v3.5
		c0,1.2,0.4,2,1.4,2c0.8,0,1.3-0.5,1.5-1c0.1-0.2,0.1-0.4,0.1-0.6v-3.9h1.1V868.8z"/>
	<path class="st2" d="M108.3,866.2c0-0.7,0-1.4-0.1-2h1l0,1.2h0c0.3-0.8,1-1.4,1.8-1.4c0.1,0,0.2,0,0.3,0v1.1c-0.1,0-0.2,0-0.4,0
		c-0.8,0-1.4,0.6-1.5,1.5c0,0.2,0,0.3,0,0.5v3.4h-1.1V866.2z"/>
</g>
<line class="st3" x1="120.5" y1="835.8" x2="141.9" y2="835.8"/>
</svg>
