<?xml version="1.0" encoding="utf-8"?>
<!-- Generator: Adobe Illustrator 23.1.0, SVG Export Plug-In . SVG Version: 6.00 Build 0)  -->
<svg version="1.1" id="Calque_1" xmlns="http://www.w3.org/2000/svg" xmlns:xlink="http://www.w3.org/1999/xlink" x="0px" y="0px"
	 viewBox="0 0 337.5 881.3" style="enable-background:new 0 0 337.5 881.3;" xml:space="preserve">
<style type="text/css">
	.st0{fill:none;stroke:#488AA4;stroke-miterlimit:10;}
	.st1{fill:none;stroke:#EC6E6B;stroke-miterlimit:10;}
	.st2{fill:#488AA4;}
	.st3{opacity:0.35;fill:none;stroke:#325982;stroke-miterlimit:10;enable-background:new    ;}
	.st4{opacity:0.2;fill:none;stroke:#4789A4;stroke-miterlimit:10;enable-background:new    ;}
	.st5{fill:#4789A4;}
	.st6{fill:none;stroke:#E85522;stroke-miterlimit:10;}
	.st7{fill:#E85522;}
</style>
<title>timeline-mobile-en</title>
<circle class="st0" cx="209.1" cy="26.9" r="26.4"/>
<circle class="st1" cx="209.1" cy="26.9" r="12.4"/>
<path class="st2" d="M43.2,105.5H48v1h-3.6v3h3.4v0.9h-3.4v4h-1.2V105.5z"/>
<path class="st2" d="M49.7,105.6c0.7-0.1,1.5-0.2,2.2-0.2c0.9-0.1,1.8,0.2,2.6,0.7c0.5,0.4,0.7,1.1,0.7,1.7c0,1-0.7,2-1.7,2.3l0,0
	c0.7,0.3,1.2,1,1.3,1.8c0.2,0.8,0.4,1.7,0.7,2.4h-1.2c-0.3-0.7-0.5-1.4-0.6-2.1c-0.3-1.2-0.8-1.7-1.8-1.7h-1.1v3.9h-1.2V105.6z
	 M50.8,109.6H52c1.2,0,2-0.7,2-1.7s-0.8-1.7-2-1.7c-0.4,0-0.8,0-1.1,0.1L50.8,109.6z"/>
<path class="st2" d="M58.3,111.6l-0.9,2.8h-1.2l3-8.9h1.4l3,8.9h-1.2l-1-2.8H58.3z M61.2,110.7l-0.9-2.6c-0.2-0.6-0.3-1.1-0.5-1.6
	l0,0c-0.1,0.5-0.3,1.1-0.4,1.6l-0.9,2.6L61.2,110.7z"/>
<path class="st2" d="M64.9,114.4v-8.9h1.3L69,110c0.6,0.9,1.1,1.9,1.6,2.9l0,0c-0.1-1.2-0.1-2.3-0.1-3.7v-3.7h1.1v8.9h-1.1l-2.8-4.5
	c-0.6-1-1.2-2-1.7-3l0,0c0.1,1.1,0.1,2.2,0.1,3.7v3.8H64.9z"/>
<path class="st2" d="M79.8,114.1c-0.7,0.3-1.6,0.5-2.4,0.4c-2.3,0.1-4.3-1.6-4.4-3.9c0-0.2,0-0.4,0-0.6c-0.1-2.4,1.7-4.5,4.2-4.7
	c0.2,0,0.3,0,0.5,0c0.7,0,1.5,0.1,2.1,0.4l-0.3,0.9c-0.6-0.2-1.2-0.4-1.8-0.4c-2.1,0-3.5,1.3-3.5,3.7c-0.2,1.8,1.1,3.4,2.8,3.6
	c0.2,0,0.4,0,0.6,0c0.6,0,1.3-0.1,1.9-0.4L79.8,114.1z"/>
<path class="st2" d="M85.9,110.2h-3.4v3.2h3.9v1h-5v-8.9h4.8v1h-3.7v2.8h3.4V110.2z"/>
<path class="st2" d="M87.8,105.6c0.7-0.1,1.4-0.2,2.1-0.2c0.9-0.1,1.7,0.1,2.4,0.7c0.5,0.4,0.8,1,0.8,1.6c0,0.9-0.6,1.7-1.5,2l0,0
	c1.1,0.2,1.8,1.1,1.8,2.2c0,0.7-0.3,1.3-0.8,1.8c-0.9,0.7-2,1-3.1,0.8c-0.6,0-1.2,0-1.8-0.1L87.8,105.6z M88.9,109.2H90
	c1.2,0,1.9-0.6,1.9-1.5c0-1-0.8-1.4-2-1.4c-0.3,0-0.7,0-1,0.1V109.2z M88.9,113.5c0.3,0.1,0.7,0.1,1,0.1c1.2,0,2.3-0.4,2.3-1.7
	s-1-1.7-2.3-1.7h-1L88.9,113.5z"/>
<path class="st2" d="M94.9,105.5h1.2v7.9h3.8v1h-5L94.9,105.5z"/>
<path class="st2" d="M105.8,110.2h-3.4v3.2h3.9v1h-5v-8.9h4.8v1h-3.7v2.8h3.4L105.8,110.2z"/>
<path class="st2" d="M108.8,105.5v5.3c0,2,0.9,2.8,2.1,2.8s2.2-0.9,2.2-2.8v-5.3h1.2v5.2c0,2.7-1.4,3.8-3.4,3.8s-3.2-1-3.2-3.8v-5.2
	L108.8,105.5z"/>
<path class="st2" d="M42.9,121.4c0.7-0.1,1.4-0.2,2.1-0.2c0.9-0.1,1.7,0.1,2.4,0.6c0.5,0.4,0.8,1,0.8,1.6c0,0.9-0.6,1.7-1.5,2l0,0
	c1.1,0.2,1.8,1.1,1.8,2.2c0,0.7-0.3,1.3-0.8,1.8c-0.9,0.7-2,1-3.1,0.8c-0.6,0-1.2,0-1.8-0.1V121.4z M44.1,125.1h1
	c1.2,0,1.9-0.6,1.9-1.5c0-1-0.8-1.4-2-1.4c-0.3,0-0.7,0-1,0.1L44.1,125.1z M44.1,129.4c0.3,0,0.7,0,1,0c1.2,0,2.3-0.4,2.3-1.7
	c0-1.3-1.1-1.6-2.3-1.6h-1L44.1,129.4z"/>
<path class="st2" d="M57.7,125.7c0,3.1-1.9,4.7-4.1,4.7s-4-1.8-4-4.5c0-2.7,1.8-4.7,4.1-4.7S57.7,123,57.7,125.7z M50.8,125.8
	c0,1.9,1,3.6,2.8,3.6s2.9-1.7,2.9-3.7c0-1.8-0.9-3.6-2.8-3.6S50.8,123.9,50.8,125.8z"/>
<path class="st2" d="M60.3,121.3v5.3c0,2,0.9,2.8,2.1,2.8s2.2-0.9,2.2-2.8v-5.3h1.2v5.2c0,2.7-1.4,3.9-3.4,3.9s-3.2-1-3.2-3.8v-5.2
	L60.3,121.3z"/>
<path class="st2" d="M67.7,121.4c0.7-0.1,1.5-0.2,2.2-0.2c0.9-0.1,1.8,0.2,2.6,0.7c0.5,0.4,0.7,1.1,0.7,1.7c0,1.1-0.7,2-1.7,2.3l0,0
	c0.7,0.3,1.2,1,1.3,1.8c0.2,0.8,0.4,1.6,0.7,2.4h-1.2c-0.3-0.7-0.5-1.4-0.6-2.1c-0.3-1.2-0.7-1.7-1.8-1.7h-1.1v3.9h-1.2V121.4z
	 M68.9,125.4H70c1.2,0,2-0.7,2-1.7s-0.8-1.7-2-1.7c-0.4,0-0.8,0-1.1,0.1V125.4z"/>
<path class="st2" d="M81.6,129.8c-0.9,0.3-1.8,0.5-2.7,0.5c-2.3,0.2-4.3-1.4-4.6-3.7c0-0.2,0-0.5,0-0.7c-0.1-2.5,1.8-4.5,4.3-4.6
	c0.2,0,0.4,0,0.5,0c0.8,0,1.5,0.1,2.2,0.4l-0.3,0.9c-0.6-0.3-1.3-0.4-2-0.4c-1.8-0.1-3.4,1.2-3.6,3.1c0,0.2,0,0.3,0,0.5
	c-0.2,1.8,1.1,3.4,2.9,3.6c0.2,0,0.4,0,0.6,0c0.5,0,1-0.1,1.5-0.2v-2.7h-1.8v-0.9h2.9L81.6,129.8z"/>
<path class="st2" d="M91,125.7c0,3.1-1.9,4.7-4.1,4.7s-4-1.8-4-4.5c0-2.7,1.8-4.7,4.1-4.7S91,123,91,125.7z M84.1,125.8
	c0,1.9,1,3.6,2.8,3.6s2.8-1.7,2.8-3.7c0-1.8-0.9-3.6-2.8-3.6S84.1,123.9,84.1,125.8L84.1,125.8z"/>
<path class="st2" d="M99.3,129.8c-0.9,0.3-1.8,0.5-2.7,0.5c-2.3,0.2-4.3-1.5-4.5-3.8c0-0.2,0-0.5,0-0.7c-0.1-2.5,1.8-4.5,4.3-4.6
	c0.2,0,0.3,0,0.5,0c0.8,0,1.5,0.1,2.2,0.4l-0.3,0.9c-0.6-0.3-1.3-0.4-2-0.4c-1.8-0.1-3.4,1.2-3.6,3.1c0,0.2,0,0.3,0,0.5
	c-0.2,1.8,1.1,3.4,2.9,3.6c0.2,0,0.3,0,0.5,0c0.5,0,1-0.1,1.5-0.2v-2.7h-1.8v-0.9h2.9V129.8z"/>
<path class="st2" d="M101,130.2v-8.9h1.3l2.8,4.5c0.6,0.9,1.1,1.9,1.6,2.9l0,0c-0.1-1.2-0.1-2.3-0.1-3.7v-3.7h1.1v8.9h-1.2l-2.8-4.5
	c-0.6-1-1.2-2-1.7-3l0,0c0.1,1.1,0.1,2.2,0.1,3.7v3.8L101,130.2z"/>
<path class="st2" d="M114.3,126.1h-3.4v3.2h3.9v1h-5v-8.9h4.8v1h-3.7v2.8h3.4L114.3,126.1z"/>
<path class="st2" d="M63,147.9c0.5,0,0.9-0.2,1.3-0.5c0.3-0.4,0.4-0.9,0.4-2.4v-5.4h1.2v5.8c0.1,0.9-0.2,1.9-0.8,2.6
	c-0.6,0.5-1.3,0.7-2,0.7L63,147.9z M66,137.9c0,0.4-0.3,0.7-0.7,0.7c0,0,0,0-0.1,0c-0.4,0-0.7-0.3-0.7-0.7c0,0,0,0,0,0
	c0-0.4,0.3-0.7,0.7-0.7c0,0,0,0,0,0C65.7,137.2,66,137.5,66,137.9C66,137.9,66,137.9,66,137.9L66,137.9z"/>
<path class="st2" d="M73.6,142.8c0.1,1.7-1.1,3.2-2.8,3.4c-0.1,0-0.2,0-0.3,0c-1.7,0-3-1.3-3.1-2.9c0-0.1,0-0.3,0-0.4
	c-0.1-1.7,1.1-3.2,2.8-3.4c0.1,0,0.2,0,0.3,0c1.7-0.1,3,1.2,3.1,2.9C73.6,142.6,73.6,142.7,73.6,142.8z M68.5,142.9
	c0,1.4,0.8,2.5,1.9,2.5s2-1,2-2.5c0-1.1-0.6-2.4-1.9-2.4S68.5,141.7,68.5,142.9L68.5,142.9z"/>
<path class="st2" d="M80.4,144.3c0,0.7,0,1.2,0.1,1.7h-1l-0.1-1l0,0c-0.4,0.8-1.2,1.2-2.1,1.2c-1,0-2.2-0.6-2.2-2.8v-3.7h1.2v3.5
	c0,1.2,0.4,2,1.4,2c0.7,0,1.3-0.4,1.5-1.1c0.1-0.2,0.1-0.4,0.1-0.6v-3.9h1.2L80.4,144.3z"/>
<path class="st2" d="M82.3,141.7c0-0.8,0-1.4-0.1-2h1v1.3l0,0c0.2-0.8,0.9-1.4,1.8-1.4c0.1,0,0.2,0,0.3,0v1.1c-0.1,0-0.3,0-0.4,0
	c-0.8,0-1.5,0.7-1.6,1.5c0,0.2,0,0.4,0,0.5v3.4h-1.1V141.7z"/>
<path class="st2" d="M86.7,141.4c0-0.7,0-1.2,0-1.7h1l0.1,1.1l0,0c0.4-0.8,1.2-1.2,2.1-1.2c0.9,0,2.2,0.5,2.2,2.7v3.8H91v-3.7
	c0-1-0.4-1.9-1.5-1.9c-0.7,0-1.4,0.5-1.6,1.2c-0.1,0.2-0.1,0.4-0.1,0.5v3.9h-1.2V141.4z"/>
<path class="st2" d="M97.6,146.1l-0.1-0.8l0,0c-0.5,0.6-1.2,1-2,0.9c-1,0.1-1.9-0.6-2-1.7c0-0.1,0-0.1,0-0.2c0-1.6,1.4-2.4,3.8-2.4
	v-0.1c0.1-0.7-0.4-1.4-1.1-1.5c-0.1,0-0.2,0-0.3,0c-0.6,0-1.2,0.2-1.7,0.5l-0.3-0.8c0.6-0.4,1.4-0.6,2.1-0.6c2,0,2.4,1.3,2.4,2.6
	v2.4c0,0.5,0,1,0.1,1.5L97.6,146.1z M97.4,142.8c-1.3,0-2.7,0.2-2.7,1.4c-0.1,0.5,0.3,1,0.9,1.1c0.1,0,0.1,0,0.2,0
	c0.7,0,1.3-0.4,1.6-1.1c0-0.1,0.1-0.2,0.1-0.4V142.8z"/>
<path class="st2" d="M100.4,136.7h1.2v9.4h-1.2V136.7z"/>
<path class="st2" d="M104.8,137.9c0,0.4-0.3,0.7-0.7,0.7c0,0,0,0-0.1,0c-0.4,0-0.7-0.3-0.7-0.7c0,0,0,0,0,0c0-0.4,0.3-0.7,0.7-0.7
	S104.8,137.5,104.8,137.9z M103.5,146.1v-6.4h1.2v6.4H103.5z"/>
<path class="st2" d="M106.4,144.9c0.5,0.3,1,0.4,1.5,0.5c0.8,0,1.2-0.4,1.2-1s-0.3-0.9-1.2-1.2c-1.2-0.4-1.7-1-1.7-1.8
	c0.1-1.1,1-1.9,2.1-1.9c0,0,0.1,0,0.1,0c0.5,0,1.1,0.1,1.6,0.4l-0.3,0.9c-0.4-0.2-0.8-0.4-1.3-0.4c-0.7,0-1.1,0.4-1.1,0.9
	s0.4,0.8,1.2,1.1c1.1,0.4,1.7,1,1.7,1.9c0,1.1-0.9,1.9-2.4,1.9c-0.6,0-1.2-0.1-1.8-0.4L106.4,144.9z"/>
<path class="st2" d="M113.2,137.9v1.8h1.7v0.9h-1.7v3.4c0,0.8,0.2,1.2,0.9,1.2c0.2,0,0.5,0,0.7-0.1v0.9c-0.3,0.1-0.7,0.2-1,0.2
	c-0.5,0-0.9-0.2-1.2-0.5c-0.3-0.5-0.5-1.1-0.4-1.7v-3.5h-1v-0.9h1v-1.5L113.2,137.9z"/>
<path class="st2" d="M141.5,147.1v-10.1l0,0h67l0,0v15.7l0,0h-61.4C144,152.8,141.4,150.2,141.5,147.1L141.5,147.1L141.5,147.1z"/>
<line class="st3" x1="119.2" y1="142.8" x2="141.5" y2="142.8"/>
<line id="timelinebar" class="st0" x1="208.8" y1="52.7" x2="208.8" y2="881.3"/>
<line class="st4" x1="287.5" y1="173.3" x2="307.8" y2="172.8"/>
<line class="st4" x1="255.4" y1="246.2" x2="307.8" y2="246.2"/>
<line class="st4" x1="245.6" y1="317.6" x2="307.8" y2="317.6"/>
<line class="st4" x1="257.3" y1="465.7" x2="307.8" y2="465.7"/>
<line class="st4" x1="250.3" y1="539.2" x2="307.8" y2="539.2"/>
<line class="st4" x1="208.8" y1="612.7" x2="307.8" y2="612.7"/>
<line class="st4" x1="208.8" y1="686.2" x2="307.8" y2="686.2"/>
<line class="st4" x1="208.8" y1="759.7" x2="307.8" y2="759.7"/>
<line class="st4" x1="251.7" y1="100.4" x2="307.8" y2="100.4"/>
<path class="st5" d="M314.5,104.3v-0.6l0.8-0.8c1.9-1.8,2.8-2.8,2.8-3.9c0.1-0.7-0.5-1.4-1.2-1.5c-0.1,0-0.2,0-0.3,0
	c-0.6,0-1.2,0.2-1.6,0.6l-0.3-0.7c0.6-0.5,1.3-0.8,2.1-0.8c1.2-0.1,2.2,0.7,2.3,1.9c0,0.1,0,0.2,0,0.3c0,1.4-1,2.5-2.6,4l-0.6,0.6
	l0,0h3.4v0.8L314.5,104.3z"/>
<path class="st5" d="M325.5,100.4c0,2.6-1,4-2.6,4c-1.5,0-2.5-1.4-2.5-3.9s1.1-3.9,2.6-3.9S325.5,98,325.5,100.4z M321.4,100.5
	c0,2,0.6,3.1,1.5,3.1s1.5-1.2,1.5-3.1s-0.5-3.1-1.5-3.1C322,97.4,321.4,98.5,321.4,100.5z"/>
<path class="st5" d="M328.6,97.7L328.6,97.7l-1.3,0.7l-0.2-0.8l1.6-0.9h0.9v7.5h-1L328.6,97.7z"/>
<path class="st5" d="M337.3,100.4c0,2.6-0.9,4-2.6,4c-1.5,0-2.5-1.4-2.5-3.9s1.1-3.9,2.6-3.9S337.3,98,337.3,100.4z M333.2,100.5
	c0,2,0.6,3.1,1.5,3.1s1.5-1.2,1.5-3.1s-0.5-3.1-1.5-3.1C333.9,97.4,333.2,98.5,333.2,100.5z"/>
<path class="st6" d="M209.6,100.4h77.9v117.2c0,7-8.7,12.7-19.3,12.7h-58.6"/>
<path class="st2" d="M141.5,178.3v-16.6l0,0h67l0,0v22.2l0,0h-61.4C144,183.9,141.5,181.4,141.5,178.3z"/>
<path class="st2" d="M141.5,224.6V208l0,0h67l0,0v22.2l0,0h-61.4C144,230.2,141.5,227.7,141.5,224.6z"/>
<path class="st2" d="M30.2,213.7h1.1v7.9h3.8v1h-5L30.2,213.7z"/>
<path class="st2" d="M41.1,218.5h-3.5v3.2h3.9v1h-5v-8.9h4.8v1h-3.7v2.8h3.5V218.5z"/>
<path class="st2" d="M45.8,213.9c0.7-0.1,1.4-0.2,2.1-0.2c0.9-0.1,1.7,0.1,2.5,0.6c0.5,0.4,0.8,1,0.7,1.6c0,0.9-0.6,1.7-1.5,2l0,0
	c1.1,0.2,1.8,1.2,1.8,2.2c0,0.7-0.3,1.3-0.8,1.8c-0.9,0.7-2,1-3.1,0.8c-0.6,0-1.2,0-1.8-0.1V213.9z M46.9,217.5H48
	c1.2,0,1.9-0.6,1.9-1.5c0-1-0.8-1.4-1.9-1.4c-0.3,0-0.7,0-1,0.1L46.9,217.5z M46.9,221.8c0.3,0,0.7,0.1,1,0.1c1.2,0,2.3-0.4,2.3-1.7
	s-1-1.7-2.3-1.7h-1L46.9,221.8z"/>
<path class="st2" d="M54.1,213.7v8.9h-1.2v-8.9H54.1z"/>
<path class="st2" d="M60.7,218.5h-3.4v3.2h3.9v1h-5v-8.9h4.8v1h-3.7v2.8h3.5L60.7,218.5z"/>
<path class="st2" d="M62.6,222.6v-8.9h1.3l2.9,4.5c0.6,0.9,1.1,1.9,1.6,2.9l0,0c-0.1-1.2-0.1-2.3-0.1-3.6v-3.7h1.1v8.9h-1.1
	l-2.8-4.5c-0.6-1-1.2-2-1.7-3l0,0c0.1,1.1,0.1,2.2,0.1,3.7v3.8L62.6,222.6z"/>
<path class="st2" d="M74.1,213.8c0.7-0.1,1.5-0.2,2.2-0.2c0.9-0.1,1.8,0.2,2.5,0.7c0.5,0.5,0.8,1.2,0.8,1.9c0,0.7-0.2,1.4-0.7,1.9
	c-0.7,0.7-1.7,1.1-2.7,1c-0.3,0-0.6,0-0.9-0.1v3.6h-1.1V213.8z M75.2,218.1c0.3,0.1,0.7,0.1,1,0.1c1.4,0,2.2-0.7,2.2-1.9
	s-0.8-1.8-2.1-1.8c-0.4,0-0.7,0-1.1,0.1L75.2,218.1z"/>
<path class="st2" d="M82.2,213.7v5.3c0,2,0.9,2.8,2.1,2.8s2.2-0.8,2.2-2.8v-5.3h1.2v5.2c0,2.7-1.4,3.9-3.4,3.9s-3.2-1-3.2-3.8v-5.2
	H82.2z"/>
<path class="st2" d="M89.7,213.9c0.7-0.1,1.4-0.2,2.1-0.2c0.9-0.1,1.7,0.1,2.4,0.6c0.5,0.4,0.8,1,0.7,1.6c0,0.9-0.6,1.7-1.5,2l0,0
	c1.1,0.2,1.8,1.2,1.8,2.2c0,0.7-0.3,1.3-0.8,1.8c-0.9,0.7-2,1-3.1,0.8c-0.6,0-1.2,0-1.8-0.1L89.7,213.9z M90.8,217.5h1
	c1.2,0,1.9-0.6,1.9-1.5c0-1-0.8-1.4-2-1.4c-0.3,0-0.7,0-1,0.1L90.8,217.5z M90.8,221.8c0.3,0,0.7,0.1,1,0.1c1.2,0,2.3-0.4,2.3-1.7
	s-1-1.7-2.3-1.7h-1L90.8,221.8z"/>
<path class="st2" d="M96.8,213.7H98v7.9h3.8v1h-5L96.8,213.7z"/>
<path class="st2" d="M104.2,213.7v8.9H103v-8.9H104.2z"/>
<path class="st2" d="M112.4,222.4c-0.7,0.3-1.6,0.4-2.4,0.4c-2.3,0.1-4.3-1.6-4.4-3.9c0-0.2,0-0.4,0-0.6c-0.1-2.4,1.7-4.5,4.2-4.7
	c0.2,0,0.3,0,0.5,0c0.7,0,1.5,0.1,2.1,0.4l-0.3,0.9c-0.6-0.2-1.2-0.4-1.8-0.4c-2.1,0-3.5,1.3-3.5,3.7c-0.2,1.8,1.1,3.4,2.8,3.6
	c0.2,0,0.4,0,0.6,0c0.6,0,1.3-0.1,1.9-0.4L112.4,222.4z"/>
<path class="st2" d="M60.6,240.3c0.5,0,0.9-0.2,1.3-0.5c0.3-0.4,0.5-0.9,0.5-2.4v-5.4h1.2v5.8c0.1,0.9-0.2,1.9-0.8,2.6
	c-0.6,0.5-1.3,0.7-2,0.7L60.6,240.3z M63.6,230.3c0,0.4-0.3,0.7-0.7,0.7c0,0,0,0-0.1,0c-0.4,0-0.7-0.3-0.7-0.7c0,0,0,0,0,0
	c0-0.4,0.3-0.7,0.7-0.7C63.3,229.6,63.6,229.9,63.6,230.3C63.6,230.3,63.6,230.3,63.6,230.3z"/>
<path class="st2" d="M71.2,235.2c0.1,1.7-1.1,3.2-2.8,3.4c-0.1,0-0.2,0-0.3,0c-1.7,0-3-1.3-3-3c0-0.1,0-0.2,0-0.3
	c-0.1-1.7,1.2-3.2,2.9-3.3c0.1,0,0.2,0,0.2,0c1.7,0,3,1.3,3.1,2.9C71.2,235,71.2,235.1,71.2,235.2z M66.1,235.3
	c0,1.4,0.8,2.5,1.9,2.5s1.9-1,1.9-2.5c0-1.1-0.5-2.4-1.9-2.4S66.1,234.1,66.1,235.3z"/>
<path class="st2" d="M78,236.7c0,0.7,0,1.2,0,1.7h-1l-0.1-1l0,0c-0.4,0.8-1.2,1.2-2.1,1.2c-1,0-2.2-0.6-2.2-2.8v-3.7h1.2v3.5
	c0,1.2,0.4,2,1.4,2c0.7,0,1.3-0.4,1.5-1.1c0.1-0.2,0.1-0.4,0.1-0.6v-3.9H78V236.7z"/>
<path class="st2" d="M79.9,234.1c0-0.8,0-1.4,0-2h1v1.3l0,0c0.2-0.8,1-1.3,1.8-1.4c0.1,0,0.2,0,0.3,0v1.1c-0.1,0-0.3,0-0.4,0
	c-0.8,0-1.5,0.7-1.6,1.5c0,0.2,0,0.4-0.1,0.5v3.4h-1.1V234.1z"/>
<path class="st2" d="M84.3,233.8c0-0.7,0-1.2,0-1.7h1l0.1,1l0,0c0.5-0.7,1.3-1.1,2.1-1.1c0.9,0,2.2,0.5,2.2,2.7v3.8h-1.2v-3.7
	c0-1-0.4-1.9-1.5-1.9c-0.7,0-1.4,0.5-1.6,1.2c-0.1,0.2-0.1,0.4-0.1,0.5v3.9h-1.1V233.8z"/>
<path class="st2" d="M95.2,238.5l-0.1-0.8l0,0c-0.5,0.6-1.2,1-2,0.9c-1,0.1-1.9-0.7-1.9-1.7c0,0,0-0.1,0-0.1c0-1.6,1.4-2.4,3.8-2.4
	v-0.1c0.1-0.7-0.4-1.4-1.1-1.5c-0.1,0-0.2,0-0.3,0c-0.6,0-1.2,0.2-1.7,0.5l-0.3-0.8c0.6-0.4,1.4-0.6,2.1-0.6c2,0,2.4,1.3,2.4,2.6
	v2.4c0,0.5,0,1,0.1,1.5L95.2,238.5z M95,235.2c-1.3,0-2.7,0.2-2.7,1.4c-0.1,0.5,0.3,1,0.9,1.1c0.1,0,0.1,0,0.2,0
	c0.7,0,1.4-0.4,1.6-1.1c0-0.1,0.1-0.2,0.1-0.4L95,235.2z"/>
<path class="st2" d="M98,229.1h1.2v9.4H98V229.1z"/>
<path class="st2" d="M102.4,230.3c0,0.4-0.3,0.7-0.7,0.7s-0.7-0.3-0.7-0.7c0-0.4,0.3-0.7,0.7-0.7c0,0,0,0,0,0
	C102.1,229.5,102.4,229.8,102.4,230.3C102.4,230.2,102.4,230.3,102.4,230.3z M101.1,238.5v-6.4h1.2v6.4H101.1z"/>
<path class="st2" d="M104.1,237.3c0.5,0.3,1,0.4,1.5,0.5c0.8,0,1.2-0.4,1.2-0.9s-0.3-0.9-1.2-1.2c-1.2-0.4-1.7-1-1.7-1.8
	c0.1-1.1,1-1.9,2.1-1.9c0,0,0.1,0,0.1,0c0.5,0,1.1,0.1,1.6,0.4l-0.3,0.9c-0.4-0.2-0.8-0.4-1.3-0.4c-0.7,0-1.1,0.4-1.1,0.9
	s0.4,0.8,1.2,1.1c1.1,0.4,1.7,1,1.7,1.9c0,1.1-0.9,1.9-2.4,1.9c-0.6,0-1.2-0.1-1.8-0.4L104.1,237.3z"/>
<path class="st2" d="M110.8,230.2v1.8h1.7v0.9h-1.7v3.4c0,0.8,0.2,1.2,0.9,1.2c0.2,0,0.5,0,0.7-0.1v0.9c-0.3,0.1-0.7,0.2-1,0.2
	c-0.5,0-0.9-0.2-1.2-0.5c-0.4-0.5-0.5-1.1-0.5-1.7V233h-1v-0.9h1v-1.5L110.8,230.2z"/>
<line class="st3" x1="120" y1="217" x2="141.4" y2="217"/>
<path class="st2" d="M16.4,169.8h4.8v1h-3.6v3h3.4v1h-3.4v4h-1.2V169.8z"/>
<path class="st2" d="M22.8,169.9c0.7-0.1,1.5-0.2,2.2-0.2c0.9-0.1,1.8,0.2,2.6,0.7c0.5,0.4,0.7,1.1,0.7,1.7c0,1-0.7,2-1.7,2.3l0,0
	c0.7,0.3,1.2,1,1.3,1.8c0.2,0.8,0.4,1.7,0.7,2.4h-1.2c-0.3-0.7-0.5-1.4-0.6-2.1c-0.3-1.2-0.7-1.7-1.8-1.7h-1v3.9h-1.2V169.9z
	 M24,174h1.2c1.2,0,2-0.7,2-1.7s-0.8-1.7-2-1.7c-0.4,0-0.8,0-1.1,0.1L24,174z"/>
<path class="st2" d="M31.4,175.9l-0.9,2.8h-1.2l3-8.9h1.4l3,8.9h-1.2l-1-2.8H31.4z M34.3,175l-0.9-2.6c-0.2-0.6-0.3-1.1-0.5-1.6l0,0
	c-0.1,0.5-0.3,1.1-0.4,1.6l-0.9,2.6L34.3,175z"/>
<path class="st2" d="M38.1,178.7v-8.9h1.3l2.8,4.5c0.6,0.9,1.1,1.9,1.6,2.9l0,0c-0.1-1.2-0.1-2.3-0.1-3.7v-3.7h1.1v8.9h-1.1
	l-2.8-4.5c-0.6-1-1.2-2-1.7-3l0,0c0.1,1.1,0.1,2.2,0.1,3.7v3.8L38.1,178.7z"/>
<path class="st2" d="M53,178.4c-0.7,0.3-1.5,0.5-2.3,0.4c-2.3,0.1-4.3-1.6-4.4-3.9c0-0.2,0-0.4,0-0.6c-0.1-2.4,1.7-4.5,4.2-4.7
	c0.2,0,0.3,0,0.5,0c0.7,0,1.4,0.1,2.1,0.4l-0.3,0.9c-0.6-0.2-1.2-0.4-1.8-0.4c-2.1,0-3.5,1.3-3.5,3.7c-0.2,1.8,1.1,3.4,2.9,3.6
	c0.2,0,0.4,0,0.6,0c0.6,0,1.3-0.1,1.9-0.4L53,178.4z"/>
<path class="st2" d="M59,174.5h-3.4v3.2h3.9v1h-5v-8.9h4.8v1h-3.7v2.8H59V174.5z"/>
<path class="st2" d="M69.9,178.4c-0.7,0.3-1.6,0.5-2.4,0.4c-2.3,0.1-4.3-1.6-4.4-3.9c0-0.2,0-0.4,0-0.6c-0.1-2.4,1.7-4.5,4.2-4.7
	c0.2,0,0.3,0,0.5,0c0.7,0,1.5,0.1,2.1,0.4l-0.3,0.9c-0.6-0.2-1.2-0.4-1.8-0.4c-2.1,0-3.5,1.3-3.5,3.7c-0.2,1.8,1.1,3.4,2.8,3.6
	c0.2,0,0.4,0,0.6,0c0.6,0,1.3-0.1,1.9-0.4L69.9,178.4z"/>
<path class="st2" d="M72.5,169.8v5.3c0,2,0.9,2.8,2.1,2.8s2.2-0.9,2.2-2.8v-5.3h1.2v5.2c0,2.7-1.4,3.9-3.4,3.9s-3.2-1-3.2-3.8v-5.2
	H72.5z"/>
<path class="st2" d="M79.9,169.8h1.2v7.9h3.8v1h-5L79.9,169.8z"/>
<path class="st2" d="M86.7,170.8H84v-1h6.6v1h-2.8v7.9h-1.2V170.8z"/>
<path class="st2" d="M92.7,169.8v5.3c0,2,0.9,2.8,2.1,2.8s2.2-0.9,2.2-2.8v-5.3h1.2v5.2c0,2.7-1.4,3.9-3.4,3.9s-3.2-1-3.2-3.8v-5.2
	H92.7z"/>
<path class="st2" d="M100.1,169.9c0.7-0.1,1.5-0.2,2.2-0.2c0.9-0.1,1.8,0.2,2.6,0.7c0.5,0.4,0.7,1.1,0.7,1.7c0,1-0.7,2-1.7,2.3l0,0
	c0.7,0.3,1.2,1,1.3,1.8c0.2,0.8,0.4,1.7,0.7,2.4h-1.2c-0.3-0.7-0.5-1.4-0.6-2.1c-0.3-1.2-0.7-1.7-1.8-1.7h-1.1v3.9h-1.2V169.9z
	 M101.3,174h1.2c1.2,0,2-0.7,2-1.7s-0.8-1.7-2-1.7c-0.4,0-0.8,0-1.1,0.1L101.3,174z"/>
<path class="st2" d="M111.8,174.5h-3.4v3.2h3.9v1h-5v-8.9h4.8v1h-3.7v2.8h3.4L111.8,174.5z"/>
<path class="st2" d="M60.5,196.4c0.5,0,0.9-0.2,1.3-0.5c0.3-0.4,0.4-0.9,0.4-2.4v-5.4h1.2v5.8c0.1,0.9-0.2,1.9-0.8,2.6
	c-0.6,0.5-1.3,0.7-2,0.7L60.5,196.4z M63.5,186.4c0,0.4-0.3,0.7-0.7,0.7c0,0,0,0-0.1,0c-0.4,0-0.7-0.3-0.7-0.7c0,0,0,0,0,0
	c0-0.4,0.3-0.7,0.7-0.7c0,0,0,0,0,0C63.2,185.7,63.5,186,63.5,186.4L63.5,186.4z"/>
<path class="st2" d="M71.1,191.3c0.1,1.7-1.1,3.2-2.8,3.4c-0.1,0-0.2,0-0.3,0c-1.7,0-3-1.3-3.1-2.9c0-0.1,0-0.3,0-0.4
	c-0.2-1.7,1.1-3.2,2.8-3.4c0.1,0,0.2,0,0.3,0c1.7-0.1,3.1,1.2,3.1,2.9C71.1,191,71.1,191.2,71.1,191.3z M66,191.4
	c0,1.4,0.8,2.5,1.9,2.5s2-1,2-2.5c0-1.1-0.6-2.4-1.9-2.4S66,190.2,66,191.4L66,191.4z"/>
<path class="st2" d="M77.9,192.8c0,0.7,0,1.2,0.1,1.8h-1l-0.1-1l0,0c-0.4,0.8-1.2,1.2-2.1,1.2c-1,0-2.2-0.6-2.2-2.8v-3.7h1.2v3.5
	c0,1.2,0.4,2.1,1.4,2.1c0.7,0,1.3-0.4,1.5-1.1c0.1-0.2,0.1-0.4,0.1-0.6v-3.9H78L77.9,192.8z"/>
<path class="st2" d="M79.9,190.2c0-0.8,0-1.4-0.1-2h1l0.1,1.3l0,0c0.2-0.8,0.9-1.4,1.8-1.4c0.1,0,0.2,0,0.3,0v1.1
	c-0.1,0-0.3,0-0.4,0c-0.8,0-1.5,0.7-1.6,1.5c0,0.2,0,0.4,0,0.6v3.4h-1.1V190.2z"/>
<path class="st2" d="M84.2,189.9c0-0.7,0-1.2,0-1.7h1l0.1,1.1l0,0c0.4-0.8,1.2-1.2,2.1-1.2c0.9,0,2.2,0.5,2.2,2.7v3.8h-1.2v-3.7
	c0-1-0.4-1.9-1.5-1.9c-0.7,0-1.4,0.5-1.6,1.2c-0.1,0.2-0.1,0.4-0.1,0.5v3.9h-1.2V189.9z"/>
<path class="st2" d="M95.1,194.6l-0.1-0.8l0,0c-0.5,0.6-1.2,1-2,1c-1,0.1-1.9-0.6-2-1.7c0-0.1,0-0.1,0-0.2c0-1.5,1.4-2.4,3.8-2.4
	v-0.1c0.1-0.7-0.4-1.4-1.1-1.5c-0.1,0-0.2,0-0.3,0c-0.6,0-1.2,0.2-1.7,0.5l-0.3-0.8c0.6-0.4,1.4-0.6,2.1-0.6c2,0,2.4,1.3,2.4,2.6
	v2.3c0,0.5,0,1,0.1,1.5L95.1,194.6z M94.9,191.3c-1.3,0-2.7,0.2-2.7,1.4c-0.1,0.5,0.3,1,0.9,1.1c0.1,0,0.1,0,0.2,0
	c0.7,0,1.3-0.4,1.6-1.1c0-0.1,0.1-0.2,0.1-0.4V191.3z"/>
<path class="st2" d="M97.9,185.2h1.2v9.4h-1.2V185.2z"/>
<path class="st2" d="M102.3,186.4c0,0.4-0.3,0.7-0.7,0.7c0,0,0,0-0.1,0c-0.4,0-0.7-0.3-0.7-0.7c0,0,0,0,0,0c0-0.4,0.3-0.7,0.7-0.7
	S102.4,186,102.3,186.4C102.4,186.4,102.4,186.4,102.3,186.4z M101,194.6v-6.4h1.2v6.4H101z"/>
<path class="st2" d="M104,193.4c0.5,0.3,1,0.4,1.6,0.4c0.8,0,1.2-0.4,1.2-1s-0.3-0.9-1.2-1.2c-1.2-0.4-1.7-1-1.7-1.8
	c0.1-1.1,1-1.9,2.1-1.9c0,0,0.1,0,0.1,0c0.5,0,1.1,0.1,1.6,0.4l-0.3,0.8c-0.4-0.2-0.8-0.4-1.3-0.4c-0.7,0-1.1,0.4-1.1,0.9
	s0.4,0.8,1.2,1.1c1.1,0.4,1.7,1,1.7,1.9c0,1.1-0.9,1.9-2.4,1.9c-0.6,0-1.2-0.1-1.8-0.4L104,193.4z"/>
<path class="st2" d="M110.8,186.3v1.8h1.7v0.9h-1.7v3.4c0,0.8,0.2,1.2,0.9,1.2c0.2,0,0.5,0,0.7-0.1l0.1,0.9c-0.3,0.1-0.7,0.2-1,0.2
	c-0.5,0-0.9-0.2-1.2-0.5c-0.3-0.5-0.5-1.1-0.4-1.7v-3.5h-1v-0.9h1v-1.5L110.8,186.3z"/>
<path class="st2" d="M141.5,314.1v-67.9l0,0h67l0,0v73.6l0,0h-61.4C144,319.8,141.5,317.2,141.5,314.1z"/>
<path class="st2" d="M0,276.8h1.2v7.9H5v1H0V276.8z"/>
<path class="st2" d="M10.8,281.5H7.4v3.2h3.9v1h-5v-8.9h4.8v1H7.4v2.8h3.5V281.5z"/>
<path class="st2" d="M15.5,276.9c0.8-0.1,1.6-0.2,2.4-0.2c1.3-0.1,2.6,0.3,3.6,1.1c0.9,0.8,1.3,2,1.3,3.2c0.1,1.3-0.4,2.5-1.3,3.5
	c-1.1,0.9-2.5,1.4-3.9,1.3c-0.7,0-1.4,0-2.1-0.1L15.5,276.9z M16.7,284.8c0.4,0,0.8,0.1,1.2,0.1c1.9,0.2,3.6-1.1,3.8-3
	c0-0.3,0-0.5,0-0.8c0-2.1-1.2-3.4-3.6-3.4c-0.5,0-0.9,0-1.4,0.1L16.7,284.8z"/>
<path class="st2" d="M25.6,282.9l-0.9,2.8h-1.2l3-8.9h1.4l3,8.9h-1.2l-1-2.8H25.6z M28.5,282l-0.9-2.6c-0.2-0.6-0.3-1.1-0.5-1.6l0,0
	c-0.1,0.5-0.3,1.1-0.4,1.6l-0.9,2.6L28.5,282z"/>
<path class="st2" d="M33,276.8v5.3c0,2,0.9,2.8,2.1,2.8s2.2-0.9,2.2-2.8v-5.3h1.2v5.2c0,2.7-1.4,3.9-3.4,3.9s-3.2-1-3.2-3.8v-5.2
	L33,276.8z"/>
<path class="st2" d="M40.4,276.9c0.7-0.1,1.5-0.2,2.2-0.2c0.9-0.1,1.8,0.2,2.5,0.7c0.5,0.5,0.8,1.2,0.8,1.9c0,0.7-0.2,1.4-0.7,1.9
	c-0.7,0.7-1.7,1.1-2.7,1c-0.3,0-0.6,0-0.9-0.1v3.6h-1.2V276.9z M41.6,281.2c0.3,0.1,0.7,0.1,1,0.1c1.4,0,2.2-0.7,2.2-1.9
	s-0.8-1.8-2.1-1.8c-0.4,0-0.7,0-1.1,0.1L41.6,281.2z"/>
<path class="st2" d="M48.6,276.8v3.7h4.3v-3.7h1.2v8.9h-1.2v-4.2h-4.3v4.2h-1.2v-8.9H48.6z"/>
<path class="st2" d="M57.2,276.8v8.9H56v-8.9H57.2z"/>
<path class="st2" d="M59.2,285.7v-8.9h1.3l2.8,4.5c0.6,0.9,1.1,1.9,1.6,2.9l0,0c-0.1-1.2-0.1-2.3-0.1-3.7v-3.7h1.1v8.9h-1.1
	l-2.8-4.5c-0.6-1-1.2-2-1.7-3l0,0c0.1,1.1,0.1,2.2,0.1,3.7v3.8L59.2,285.7z"/>
<path class="st2" d="M72.5,281.5h-3.5v3.2h3.9v1h-5v-8.9h4.8v1h-3.7v2.8h3.4L72.5,281.5z M72.3,274.8l-1.7,1.5h-0.9l1.2-1.5H72.3z"
	/>
<path class="st2" d="M77.2,276.8h1.2v7.9h3.8v1h-5L77.2,276.8z"/>
<path class="st2" d="M84.6,276.8v8.9h-1.2v-8.9H84.6z"/>
<path class="st2" d="M86.6,276.9c0.7-0.1,1.4-0.2,2.1-0.2c0.9-0.1,1.7,0.1,2.4,0.6c0.5,0.4,0.8,1,0.8,1.6c0,0.9-0.6,1.7-1.5,2l0,0
	c1.1,0.2,1.8,1.1,1.8,2.2c0,0.7-0.3,1.3-0.8,1.8c-0.9,0.7-2,1-3.1,0.8c-0.6,0-1.2,0-1.8-0.1L86.6,276.9z M87.8,280.6h1
	c1.2,0,1.9-0.6,1.9-1.5c0-1-0.8-1.5-2-1.5c-0.3,0-0.7,0-1,0.1L87.8,280.6z M87.8,284.8c0.3,0.1,0.7,0.1,1,0.1c1.2,0,2.3-0.4,2.3-1.7
	s-1.1-1.7-2.3-1.7h-1L87.8,284.8z"/>
<path class="st2" d="M98.4,281.5h-3.5v3.2h3.9v1h-5v-8.9h4.8v1h-3.7v2.8h3.4L98.4,281.5z M98.2,274.8l-1.7,1.5h-1l1.2-1.5H98.2z"/>
<path class="st2" d="M100.3,276.9c0.7-0.1,1.5-0.2,2.2-0.2c0.9-0.1,1.8,0.2,2.6,0.7c0.5,0.4,0.7,1.1,0.7,1.7c0,1-0.7,2-1.7,2.3l0,0
	c0.7,0.3,1.2,1,1.3,1.8c0.2,0.8,0.4,1.7,0.7,2.5h-1.2c-0.3-0.7-0.5-1.4-0.6-2.1c-0.3-1.2-0.7-1.7-1.8-1.7h-1.1v3.9h-1.2V276.9z
	 M101.4,281h1.2c1.2,0,2-0.7,2-1.7s-0.8-1.7-2-1.7c-0.4,0-0.8,0-1.1,0.1L101.4,281z"/>
<path class="st2" d="M112,281.5h-3.4v3.2h3.9v1h-5v-8.9h4.8v1h-3.7v2.8h3.4V281.5z M111.8,274.8l-1.7,1.5h-0.9l1.2-1.5H111.8z"/>
<path class="st2" d="M60.6,303.4c0.5,0,0.9-0.2,1.3-0.5c0.3-0.4,0.5-0.9,0.5-2.4v-5.4h1.2v5.8c0.1,0.9-0.2,1.9-0.8,2.6
	c-0.6,0.5-1.3,0.7-2,0.7L60.6,303.4z M63.6,293.4c0,0.4-0.3,0.7-0.7,0.7c0,0,0,0-0.1,0c-0.4,0-0.7-0.3-0.7-0.7c0,0,0,0,0,0
	c0-0.4,0.3-0.7,0.7-0.7S63.6,293,63.6,293.4C63.6,293.4,63.6,293.4,63.6,293.4z"/>
<path class="st2" d="M71.2,298.3c0.1,1.7-1.1,3.2-2.9,3.4c-0.1,0-0.2,0-0.3,0c-1.7,0-3-1.3-3-3c0-0.1,0-0.2,0-0.3
	c-0.2-1.7,1.1-3.2,2.8-3.4c0.1,0,0.2,0,0.3,0c1.7-0.1,3,1.2,3.1,2.9C71.2,298,71.2,298.2,71.2,298.3z M66.1,298.4
	c0,1.4,0.8,2.5,1.9,2.5s1.9-1,1.9-2.5c0-1.1-0.5-2.4-1.9-2.4S66.1,297.2,66.1,298.4L66.1,298.4z"/>
<path class="st2" d="M78,299.8c0,0.7,0,1.2,0,1.8h-1l-0.1-1l0,0c-0.4,0.8-1.2,1.2-2.1,1.2c-1,0-2.2-0.6-2.2-2.8v-3.7h1.2v3.5
	c0,1.2,0.4,2,1.4,2c0.7,0,1.3-0.4,1.5-1.1c0.1-0.2,0.1-0.4,0.1-0.6v-3.9H78V299.8z"/>
<path class="st2" d="M79.9,297.2c0-0.8,0-1.4,0-2h1v1.2l0,0c0.2-0.8,1-1.4,1.8-1.4c0.1,0,0.2,0,0.3,0v1.1c-0.1,0-0.3,0-0.4,0
	c-0.8,0-1.5,0.7-1.6,1.5c0,0.2,0,0.4-0.1,0.5v3.4h-1.2V297.2z"/>
<path class="st2" d="M84.3,296.9c0-0.7,0-1.2,0-1.7h1l0.1,1l0,0c0.4-0.8,1.2-1.2,2.1-1.2c0.9,0,2.2,0.5,2.2,2.7v3.8h-1.2v-3.7
	c0-1-0.4-1.9-1.5-1.9c-0.7,0-1.4,0.5-1.6,1.2c0,0.2-0.1,0.4-0.1,0.5v3.9h-1.1V296.9z"/>
<path class="st2" d="M95.2,301.6l-0.1-0.8l0,0c-0.5,0.6-1.2,1-2,1c-1,0.1-1.9-0.7-1.9-1.7c0,0,0-0.1,0-0.1c0-1.5,1.4-2.4,3.8-2.4
	v-0.1c0.1-0.7-0.4-1.4-1.1-1.5c-0.1,0-0.2,0-0.3,0c-0.6,0-1.2,0.2-1.7,0.5l-0.3-0.8c0.6-0.4,1.4-0.6,2.1-0.6c2,0,2.4,1.3,2.4,2.6
	v2.3c0,0.5,0,1,0.1,1.5L95.2,301.6z M95,298.3c-1.3,0-2.7,0.2-2.7,1.4c-0.1,0.5,0.3,1,0.9,1.1c0.1,0,0.1,0,0.2,0
	c0.7,0,1.4-0.4,1.6-1.1c0-0.1,0.1-0.2,0.1-0.4L95,298.3z"/>
<path class="st2" d="M98,292.2h1.2v9.4H98V292.2z"/>
<path class="st2" d="M102.4,293.4c0,0.4-0.3,0.7-0.7,0.7s-0.7-0.3-0.7-0.7c0-0.4,0.3-0.7,0.7-0.7c0,0,0,0,0,0
	C102.1,292.6,102.4,292.9,102.4,293.4C102.4,293.3,102.4,293.4,102.4,293.4z M101.1,301.6v-6.4h1.2v6.4H101.1z"/>
<path class="st2" d="M104.1,300.4c0.5,0.3,1,0.4,1.5,0.5c0.8,0,1.2-0.4,1.2-1s-0.3-0.9-1.2-1.2c-1.2-0.4-1.7-1-1.7-1.8
	c0.1-1.1,1-1.9,2.1-1.9c0,0,0.1,0,0.1,0c0.5,0,1.1,0.1,1.6,0.4l-0.3,0.8c-0.4-0.2-0.8-0.4-1.3-0.4c-0.7,0-1.1,0.4-1.1,0.9
	s0.4,0.8,1.2,1.1c1.1,0.4,1.7,1,1.7,1.9c0,1.1-0.9,1.9-2.4,1.9c-0.6,0-1.2-0.1-1.8-0.4L104.1,300.4z"/>
<path class="st2" d="M110.8,293.3v1.8h1.7v0.9h-1.7v3.5c0,0.8,0.2,1.2,0.9,1.2c0.2,0,0.5,0,0.7-0.1v0.9c-0.3,0.1-0.7,0.2-1,0.2
	c-0.5,0-0.9-0.2-1.2-0.5c-0.4-0.5-0.5-1.1-0.5-1.7v-3.5h-1v-0.9h1v-1.5L110.8,293.3z"/>
<path class="st6" d="M209.6,246.2h77.9v64.4c0,3.8-8.7,7-19.3,7h-58.6"/>
<path class="st2" d="M141.4,435.4V328.8l0,0h67l0,0V441l0,0H147C143.9,441,141.4,438.4,141.4,435.4z"/>
<line class="st4" x1="209.6" y1="391.1" x2="307.8" y2="391.1"/>
<path class="st2" d="M141.5,456.9v-10.1l0,0h67l0,0v15.7l0,0h-61.4C144,462.5,141.5,460,141.5,456.9z"/>
<line class="st3" x1="120.1" y1="452.7" x2="141.5" y2="452.7"/>
<path class="st2" d="M67.1,457.1c-0.7,0.3-1.5,0.4-2.3,0.4c-2.3,0.1-4.3-1.6-4.4-3.9c0-0.2,0-0.4,0-0.7c-0.1-2.4,1.7-4.5,4.2-4.7
	c0.2,0,0.3,0,0.5,0c0.7,0,1.4,0.1,2.1,0.4l-0.3,0.9c-0.6-0.3-1.2-0.4-1.8-0.4c-2.1,0-3.5,1.3-3.5,3.7c-0.2,1.8,1.1,3.4,2.8,3.6
	c0.2,0,0.4,0,0.6,0c0.6,0,1.3-0.1,1.9-0.4L67.1,457.1z"/>
<path class="st2" d="M70.1,454.6l-0.9,2.8H68l3-8.9h1.4l3,8.9h-1.2l-1-2.8H70.1z M73,453.7l-0.9-2.6c-0.2-0.6-0.3-1.1-0.5-1.6l0,0
	c-0.1,0.5-0.3,1.1-0.4,1.6l-0.9,2.6L73,453.7z"/>
<path class="st2" d="M76.7,448.6c0.8-0.1,1.6-0.2,2.4-0.2c1.3-0.1,2.6,0.3,3.6,1.1c0.9,0.8,1.3,2,1.2,3.2c0.1,1.3-0.4,2.5-1.3,3.5
	c-1.1,0.9-2.5,1.4-3.9,1.3c-0.7,0-1.4,0-2.1-0.1L76.7,448.6z M77.9,456.5c0.4,0,0.8,0.1,1.2,0c1.9,0.2,3.6-1.1,3.8-3
	c0-0.3,0-0.5,0-0.8c0-2.1-1.2-3.4-3.6-3.4c-0.5,0-0.9,0-1.3,0.1L77.9,456.5z"/>
<path class="st2" d="M93.1,452.9c0,3.1-1.9,4.7-4.1,4.7s-4-1.8-4-4.5s1.7-4.7,4.1-4.7S93.1,450.2,93.1,452.9z M86.2,453
	c0,1.9,1,3.6,2.8,3.6s2.8-1.7,2.8-3.7c0-1.8-0.9-3.6-2.8-3.6S86.2,451.1,86.2,453L86.2,453z"/>
<path class="st2" d="M94.6,448.5h1.2v7.9h3.8v1h-5L94.6,448.5z"/>
<path class="st2" d="M105.5,453.2H102v3.2h3.9v1h-5v-8.9h4.8v1H102v2.8h3.4L105.5,453.2z"/>
<path class="st2" d="M107.2,456c0.6,0.4,1.3,0.6,2.1,0.6c1.2,0,1.9-0.6,1.9-1.5s-0.5-1.3-1.7-1.8c-1.4-0.5-2.3-1.3-2.3-2.5
	s1.2-2.4,2.9-2.4c0.7,0,1.4,0.1,2,0.4l-0.3,0.9c-0.5-0.3-1.1-0.4-1.7-0.4c-1.2,0-1.7,0.7-1.7,1.3c0,0.8,0.5,1.2,1.8,1.7
	c1.5,0.6,2.3,1.3,2.3,2.6s-1,2.6-3.1,2.6c-0.8,0-1.6-0.2-2.3-0.6L107.2,456z"/>
<path class="st2" d="M63.6,463.9v7.7c0,0.6,0,1.2,0,1.6h-1l-0.1-1.1l0,0c-0.4,0.8-1.3,1.3-2.2,1.2c-1.5,0-2.7-1.3-2.7-3.2
	c0-2.1,1.3-3.4,2.9-3.4c0.8,0,1.5,0.3,1.9,1l0,0v-3.8L63.6,463.9z M62.4,469.5c0-0.2,0-0.3,0-0.5c-0.2-0.8-0.9-1.3-1.7-1.3
	c-1.2,0-1.9,1.1-1.9,2.5s0.6,2.4,1.9,2.4c0.8,0,1.5-0.6,1.7-1.4c0-0.2,0.1-0.3,0.1-0.5L62.4,469.5z"/>
<path class="st2" d="M66.2,470.3c-0.1,1.1,0.7,2.1,1.8,2.2c0.1,0,0.3,0,0.4,0c0.6,0,1.2-0.1,1.8-0.3l0.2,0.8
	c-0.7,0.3-1.4,0.4-2.1,0.4c-1.7,0.1-3.1-1.2-3.1-2.8c0-0.1,0-0.3,0-0.4c0-1.9,1.1-3.5,3-3.5c2.1,0,2.6,1.8,2.6,3c0,0.2,0,0.4,0,0.5
	L66.2,470.3z M69.6,469.5c0.1-0.9-0.5-1.7-1.4-1.9c-0.1,0-0.1,0-0.2,0c-1,0.1-1.8,0.9-1.8,1.9H69.6z"/>
<path class="st2" d="M72.6,466.9l1.2,3.6c0.2,0.5,0.4,1.1,0.5,1.6l0,0c0.2-0.5,0.3-1.1,0.5-1.6l1.2-3.6h1.2l-2.5,6.4h-1.1l-2.4-6.4
	H72.6z"/>
<path class="st2" d="M79,470.3c-0.1,1.1,0.7,2.1,1.8,2.2c0.1,0,0.3,0,0.4,0c0.6,0,1.2-0.1,1.8-0.3l0.2,0.8c-0.7,0.3-1.4,0.4-2.1,0.4
	c-1.7,0.1-3.1-1.2-3.1-2.8c0-0.1,0-0.3,0-0.4c0-1.9,1.1-3.5,3-3.5c2.1,0,2.6,1.8,2.6,3c0,0.2,0,0.4,0,0.5L79,470.3z M82.4,469.5
	c0.1-0.9-0.5-1.7-1.4-1.9c-0.1,0-0.1,0-0.2,0c-1,0.1-1.8,0.9-1.8,1.9H82.4z"/>
<path class="st2" d="M85,463.9h1.2v9.4H85V463.9z"/>
<path class="st2" d="M93.9,470c0.2,1.7-1.1,3.2-2.8,3.4c-0.1,0-0.2,0-0.3,0c-1.7,0.1-3-1.2-3.1-2.9c0-0.1,0-0.3,0-0.4
	c-0.1-1.7,1.1-3.2,2.8-3.4c0.1,0,0.2,0,0.3,0c1.7,0,3,1.3,3.1,2.9C93.9,469.8,93.9,469.9,93.9,470z M88.8,470.1
	c0,1.4,0.8,2.5,1.9,2.5s1.9-1,1.9-2.5c0-1.1-0.5-2.5-1.9-2.5S88.8,468.9,88.8,470.1L88.8,470.1z"/>
<path class="st2" d="M95.4,469c0-0.8,0-1.5,0-2.1h1l0.1,1.1l0,0c0.5-0.8,1.3-1.3,2.3-1.2c1.6,0,2.7,1.3,2.7,3.2
	c0,2.3-1.4,3.4-2.9,3.4c-0.8,0-1.6-0.3-2-1l0,0v3.5h-1.1V469z M96.5,470.7c0,0.2,0,0.3,0,0.5c0.2,0.8,0.9,1.4,1.7,1.4
	c1.2,0,2-1,2-2.5c0-1.3-0.7-2.4-1.9-2.4c-0.8,0-1.6,0.6-1.8,1.4c0,0.2-0.1,0.3-0.1,0.5V470.7z"/>
<path class="st2" d="M103.5,470.3c-0.1,1.1,0.7,2.1,1.8,2.2c0.1,0,0.3,0,0.4,0c0.6,0,1.2-0.1,1.8-0.3l0.2,0.8
	c-0.7,0.3-1.4,0.4-2.1,0.4c-1.7,0.1-3.1-1.2-3.1-2.8c0-0.1,0-0.3,0-0.4c0-1.9,1.1-3.5,3-3.5c2.1,0,2.6,1.8,2.6,3c0,0.2,0,0.4,0,0.5
	L103.5,470.3z M106.9,469.5c0.1-0.9-0.5-1.7-1.4-1.9c-0.1,0-0.1,0-0.2,0c-1,0.1-1.8,0.9-1.8,1.9H106.9z"/>
<path class="st2" d="M109.5,468.9c0-0.8,0-1.4-0.1-2h1v1.2l0,0c0.2-0.8,0.9-1.4,1.8-1.4c0.1,0,0.2,0,0.3,0v1.1c-0.1,0-0.3,0-0.4,0
	c-0.8,0-1.5,0.7-1.6,1.5c0,0.2,0,0.4,0,0.5v3.4h-1.2L109.5,468.9z"/>
<line class="st3" x1="119.3" y1="391.2" x2="140.8" y2="391.2"/>
<path class="st2" d="M28.3,385.3h1.2v7.9h3.8v1h-5L28.3,385.3z"/>
<path class="st2" d="M39.2,390h-3.4v3.2h3.9v1h-5v-8.9h4.8v1h-3.7v2.8h3.5L39.2,390z"/>
<path class="st2" d="M51.4,390.3c-0.1-1.2-0.2-2.7-0.2-3.8l0,0c-0.3,1-0.7,2.1-1.1,3.4l-1.6,4.3h-0.9l-1.5-4.2
	c-0.4-1.3-0.8-2.4-1-3.5l0,0c0,1.1-0.1,2.6-0.2,3.9l-0.2,3.8h-1.2l0.6-8.9h1.5l1.5,4.3c0.4,1.1,0.7,2.1,0.9,3l0,0
	c0.2-0.9,0.5-1.9,0.9-3l1.6-4.3h1.5l0.5,8.9h-1.1L51.4,390.3z"/>
<path class="st2" d="M55.6,385.3v8.9h-1.2v-8.9H55.6z"/>
<path class="st2" d="M57.6,385.4c0.7-0.1,1.5-0.2,2.2-0.2c0.9-0.1,1.8,0.2,2.6,0.7c0.5,0.4,0.7,1.1,0.7,1.7c0,1.1-0.7,2-1.7,2.3l0,0
	c0.7,0.3,1.2,1,1.3,1.8c0.2,0.8,0.4,1.7,0.7,2.5h-1.2c-0.3-0.7-0.5-1.4-0.6-2.1c-0.3-1.2-0.8-1.7-1.8-1.7h-1.1v3.9h-1.2V385.4z
	 M58.8,389.5H60c1.2,0,2-0.7,2-1.7s-0.8-1.7-2-1.7c-0.4,0-0.8,0-1.1,0.1L58.8,389.5z"/>
<path class="st2" d="M72.4,389.7c0,3-1.9,4.7-4.1,4.7s-4-1.8-4-4.5s1.7-4.7,4.1-4.7S72.4,387,72.4,389.7z M65.5,389.8
	c0,1.9,1,3.6,2.8,3.6s2.9-1.7,2.9-3.7c0-1.8-0.9-3.6-2.8-3.6S65.5,387.9,65.5,389.8L65.5,389.8z"/>
<path class="st2" d="M75,385.3v8.9h-1.1v-8.9H75z"/>
<path class="st2" d="M77,385.4c0.7-0.1,1.5-0.2,2.2-0.2c0.9-0.1,1.8,0.2,2.6,0.7c0.5,0.4,0.7,1.1,0.7,1.7c0,1.1-0.6,2-1.6,2.3l0,0
	c0.7,0.3,1.2,1,1.3,1.8c0.2,0.8,0.4,1.7,0.7,2.5h-1.2c-0.3-0.7-0.5-1.4-0.6-2.1c-0.3-1.2-0.7-1.7-1.8-1.7h-1.1v3.9H77V385.4z
	 M78.2,389.5h1.2c1.2,0,2-0.7,2-1.7s-0.8-1.7-2-1.7c-0.4,0-0.8,0-1.1,0.1L78.2,389.5z"/>
<path class="st2" d="M94.5,390.3c-0.1-1.2-0.2-2.7-0.1-3.8l0,0c-0.3,1-0.7,2.1-1.1,3.4l-1.6,4.3h-0.9l-1.4-4.2
	c-0.4-1.3-0.8-2.4-1-3.5l0,0c0,1.1-0.1,2.6-0.2,3.9l-0.2,3.8h-1.1l0.6-8.9h1.5l1.5,4.3c0.4,1.1,0.7,2.1,0.9,3l0,0
	c0.2-0.9,0.6-1.9,0.9-3l1.6-4.3h1.5l0.6,8.9h-1.2L94.5,390.3z"/>
<path class="st2" d="M98.9,391.4l-0.9,2.8h-1.2l3-8.9h1.4l3,8.9H103l-1-2.8H98.9z M101.8,390.5l-0.9-2.6c-0.2-0.6-0.3-1.1-0.5-1.6
	l0,0c-0.1,0.5-0.3,1.1-0.4,1.6l-0.9,2.6L101.8,390.5z"/>
<path class="st2" d="M112.1,393.8c-0.9,0.3-1.8,0.5-2.7,0.5c-2.3,0.2-4.3-1.5-4.6-3.8c0-0.2,0-0.5,0-0.7c-0.1-2.5,1.8-4.5,4.3-4.6
	c0.2,0,0.3,0,0.5,0c0.8,0,1.5,0.1,2.2,0.4l-0.3,0.9c-0.6-0.3-1.3-0.4-2-0.4c-1.8-0.1-3.4,1.2-3.6,3.1c0,0.2,0,0.3,0,0.5
	c-0.2,1.8,1.1,3.4,2.9,3.6c0.2,0,0.3,0,0.5,0c0.5,0,1-0.1,1.5-0.2v-2.7h-1.8v-0.9h2.9L112.1,393.8z"/>
<path class="st2" d="M61.4,409.9c-0.6,0.3-1.2,0.4-1.8,0.4c-1.7,0.1-3.1-1.1-3.2-2.8c0-0.1,0-0.3,0-0.4c-0.1-1.8,1.3-3.3,3.1-3.4
	c0.1,0,0.2,0,0.3,0c0.6,0,1.1,0.1,1.6,0.3l-0.3,0.9c-0.4-0.2-0.9-0.3-1.4-0.3c-1.2,0-2.2,1-2.3,2.2c0,0.1,0,0.2,0,0.2
	c-0.1,1.2,0.8,2.3,2,2.4c0.1,0,0.2,0,0.2,0c0.5,0,1-0.1,1.4-0.3L61.4,409.9z"/>
<path class="st2" d="M68.4,406.8c0.2,1.7-1.1,3.2-2.8,3.4c-0.1,0-0.2,0-0.3,0c-1.7,0-3.1-1.3-3.1-3c0-0.1,0-0.2,0-0.3
	c-0.1-1.7,1.1-3.2,2.8-3.4c0.1,0,0.2,0,0.3,0c1.7,0,3,1.3,3.1,2.9C68.4,406.6,68.4,406.7,68.4,406.8z M63.4,406.9
	c0,1.4,0.8,2.5,1.9,2.5s1.9-1,1.9-2.5c0-1.1-0.5-2.4-1.9-2.4S63.4,405.7,63.4,406.9z"/>
<path class="st2" d="M70,410.1v-5.5h-0.9v-0.9H70v-0.3c-0.1-0.8,0.2-1.6,0.8-2.2c0.4-0.4,1-0.6,1.6-0.6c0.3,0,0.7,0.1,1,0.2
	l-0.2,0.9c-0.2-0.1-0.5-0.1-0.8-0.1c-1,0-1.2,0.9-1.2,1.9v0.3h1.5v0.9h-1.5v5.5H70z"/>
<path class="st2" d="M79.4,406.8c0.1,1.7-1.1,3.2-2.9,3.4c-0.1,0-0.2,0-0.3,0c-1.7,0-3-1.3-3.1-2.9c0-0.1,0-0.3,0-0.4
	c-0.1-1.7,1.1-3.2,2.8-3.4c0.1,0,0.2,0,0.3,0c1.7,0,3,1.3,3.1,2.9C79.4,406.6,79.4,406.7,79.4,406.8z M74.3,406.9
	c0,1.4,0.8,2.5,1.9,2.5s2-1,2-2.5c0-1.1-0.6-2.4-1.9-2.4S74.3,405.7,74.3,406.9z"/>
<path class="st2" d="M86.2,408.3c0,0.7,0,1.2,0.1,1.8h-1l-0.1-1l0,0c-0.5,0.8-1.3,1.2-2.2,1.2c-1,0-2.2-0.6-2.2-2.8v-3.7H82v3.5
	c0,1.2,0.4,2,1.4,2c0.7,0,1.3-0.4,1.5-1.1c0.1-0.2,0.1-0.4,0.1-0.6v-3.9h1.2L86.2,408.3z"/>
<path class="st2" d="M88.1,405.4c0-0.7,0-1.2,0-1.7h1l0.1,1l0,0c0.4-0.8,1.2-1.2,2.1-1.2c0.9,0,2.2,0.5,2.2,2.7v3.8h-1.2v-3.7
	c0-1-0.4-1.9-1.5-1.9c-0.7,0-1.4,0.5-1.6,1.2c-0.1,0.2-0.1,0.4-0.1,0.5v3.9h-1.2V405.4z"/>
<path class="st2" d="M101,400.7v7.7c0,0.6,0,1.2,0.1,1.6h-1L100,409l0,0c-0.4,0.8-1.3,1.3-2.2,1.2c-1.6,0-2.7-1.3-2.7-3.2
	c0-2.1,1.3-3.4,2.9-3.4c0.8,0,1.5,0.3,1.9,1l0,0v-3.9H101z M99.8,406.3c0-0.2,0-0.3,0-0.5c-0.2-0.8-0.9-1.3-1.7-1.3
	c-1.2,0-1.9,1-1.9,2.5s0.6,2.4,1.9,2.4c0.8,0,1.5-0.6,1.7-1.4c0-0.2,0.1-0.3,0.1-0.5L99.8,406.3z"/>
<path class="st2" d="M103.5,407.1c-0.1,1.1,0.7,2.1,1.8,2.2c0.1,0,0.3,0,0.4,0c0.6,0,1.2-0.1,1.8-0.3l0.2,0.8
	c-0.7,0.3-1.4,0.4-2.1,0.4c-1.7,0.1-3.1-1.2-3.1-2.8c0-0.1,0-0.3,0-0.4c0-1.9,1.1-3.4,3-3.4c2.1,0,2.6,1.8,2.6,3c0,0.2,0,0.4,0,0.5
	L103.5,407.1z M106.9,406.3c0.1-0.9-0.5-1.7-1.4-1.9c-0.1,0-0.1,0-0.2,0c-1,0.1-1.8,0.9-1.8,1.9H106.9z"/>
<path class="st2" d="M109.5,405.7c0-0.8,0-1.4-0.1-2h1v1.2l0,0c0.2-0.8,1-1.4,1.8-1.4c0.1,0,0.2,0,0.3,0v1.1c-0.1,0-0.3,0-0.4,0
	c-0.8,0-1.5,0.7-1.6,1.5c0,0.2,0,0.4,0,0.5v3.4h-1.2L109.5,405.7z"/>
<path class="st2" d="M60.6,427.8c0.5,0,0.9-0.2,1.3-0.5c0.3-0.4,0.5-0.9,0.5-2.4v-5.4h1.2v5.8c0.1,0.9-0.2,1.9-0.8,2.6
	c-0.6,0.5-1.3,0.7-2,0.7L60.6,427.8z M63.6,417.8c0,0.4-0.3,0.7-0.7,0.7c0,0,0,0-0.1,0c-0.4,0-0.7-0.3-0.7-0.7c0,0,0,0,0,0
	c0-0.4,0.3-0.7,0.7-0.7S63.6,417.4,63.6,417.8C63.6,417.8,63.6,417.8,63.6,417.8z"/>
<path class="st2" d="M71.2,422.7c0.1,1.7-1.1,3.2-2.8,3.4c-0.1,0-0.2,0-0.3,0c-1.7,0-3-1.3-3-3c0-0.1,0-0.2,0-0.3
	c-0.1-1.7,1.1-3.2,2.8-3.4c0.1,0,0.2,0,0.3,0c1.7,0,3,1.3,3,3C71.2,422.5,71.2,422.6,71.2,422.7z M66.1,422.8c0,1.4,0.8,2.5,1.9,2.5
	s1.9-1,1.9-2.5c0-1.1-0.5-2.5-1.9-2.5S66.1,421.5,66.1,422.8z"/>
<path class="st2" d="M78,424.2c0,0.7,0,1.2,0,1.8h-1l-0.1-1l0,0c-0.4,0.8-1.2,1.2-2.1,1.2c-1,0-2.2-0.6-2.2-2.8v-3.7h1.2v3.5
	c0,1.2,0.4,2,1.4,2c0.7,0,1.3-0.4,1.5-1.1c0.1-0.2,0.1-0.4,0.1-0.6v-3.9H78V424.2z"/>
<path class="st2" d="M79.9,421.5c0-0.8,0-1.4,0-2h1v1.3l0,0c0.2-0.8,1-1.3,1.8-1.4c0.1,0,0.2,0,0.3,0v1.1c-0.1,0-0.3,0-0.4,0
	c-0.8,0.1-1.5,0.7-1.5,1.5c0,0.2,0,0.4-0.1,0.5v3.4h-1.2V421.5z"/>
<path class="st2" d="M84.3,421.3c0-0.7,0-1.2,0-1.7h1l0.1,1l0,0c0.4-0.8,1.2-1.2,2.1-1.2c0.9,0,2.2,0.5,2.2,2.7v3.8h-1.2v-3.7
	c0-1-0.4-1.9-1.5-1.9c-0.7,0-1.4,0.5-1.6,1.2c0,0.2-0.1,0.4-0.1,0.5v3.9h-1.1V421.3z"/>
<path class="st2" d="M95.2,425.9l-0.1-0.8l0,0c-0.5,0.6-1.2,1-2,1c-1,0.1-1.9-0.7-1.9-1.7c0,0,0-0.1,0-0.1c0-1.5,1.4-2.4,3.8-2.4
	v-0.1c0.1-0.7-0.4-1.4-1.1-1.5c-0.1,0-0.2,0-0.3,0c-0.6,0-1.2,0.2-1.7,0.5l-0.3-0.8c0.6-0.4,1.4-0.6,2.1-0.6c2,0,2.4,1.3,2.4,2.6
	v2.4c0,0.5,0,1,0.1,1.5L95.2,425.9z M95,422.7c-1.3,0-2.7,0.2-2.7,1.4c-0.1,0.5,0.3,1,0.9,1.1c0.1,0,0.1,0,0.2,0
	c0.7,0,1.4-0.4,1.6-1.1c0-0.1,0.1-0.2,0.1-0.4L95,422.7z"/>
<path class="st2" d="M98,416.5h1.2v9.4H98V416.5z"/>
<path class="st2" d="M102.4,417.7c0,0.4-0.3,0.7-0.7,0.7s-0.7-0.3-0.7-0.7c0-0.4,0.3-0.7,0.7-0.7c0,0,0,0,0,0
	C102.1,417,102.4,417.3,102.4,417.7C102.4,417.7,102.4,417.7,102.4,417.7z M101.1,425.9v-6.4h1.2v6.4H101.1z"/>
<path class="st2" d="M104.1,424.8c0.5,0.3,1,0.4,1.5,0.5c0.8,0,1.2-0.4,1.2-1s-0.3-0.9-1.2-1.2c-1.2-0.4-1.7-1-1.7-1.8
	c0.1-1.1,1-1.9,2.1-1.9c0,0,0.1,0,0.1,0c0.5,0,1.1,0.1,1.6,0.4l-0.3,0.9c-0.4-0.2-0.8-0.4-1.3-0.4c-0.7,0-1.1,0.4-1.1,0.9
	s0.4,0.8,1.2,1.1c1.1,0.4,1.7,1,1.7,1.9c0,1.1-0.9,1.9-2.4,1.9c-0.6,0-1.2-0.1-1.8-0.4L104.1,424.8z"/>
<path class="st2" d="M110.8,417.7v1.8h1.7v0.9h-1.7v3.5c0,0.8,0.2,1.2,0.9,1.2c0.2,0,0.5,0,0.7-0.1v0.9c-0.3,0.1-0.7,0.2-1,0.2
	c-0.5,0-0.9-0.2-1.2-0.5c-0.4-0.5-0.5-1.1-0.5-1.7v-3.5h-1v-0.9h1V418L110.8,417.7z"/>
<path class="st2" d="M141.4,533.6v-10.1l0,0h67l0,0v15.7l0,0h-61.4C144,539.2,141.4,536.7,141.4,533.6z"/>
<path class="st2" d="M141.4,561.1v-16.6l0,0h67l0,0v22.2l0,0h-61.4C144,566.7,141.4,564.2,141.4,561.1
	C141.4,561.1,141.4,561.1,141.4,561.1z"/>
<path class="st2" d="M141.4,818.7V574.1l0,0h67l0,0v250.3l0,0h-61.4C144,824.4,141.4,821.8,141.4,818.7L141.4,818.7z"/>
<path class="st2" d="M50.4,533.3l-2.3-8.9h1.2l1.1,4.5c0.3,1.1,0.5,2.2,0.7,3.1l0,0c0.2-0.9,0.4-1.9,0.7-3.1l1.2-4.5h1.2l1.1,4.5
	c0.2,1.1,0.5,2.1,0.6,3.1l0,0c0.2-1,0.4-2,0.7-3.1l1.2-4.5H59l-2.5,8.9h-1.2l-1.1-4.6c-0.2-1-0.4-1.9-0.6-2.9l0,0
	c-0.2,1-0.4,2-0.7,2.9l-1.3,4.6H50.4z"/>
<path class="st2" d="M64.7,529.1h-3.5v3.2h3.9v1h-5v-8.9H65v1h-3.7v2.8h3.4L64.7,529.1z"/>
<path class="st2" d="M66.6,524.5c0.8-0.1,1.6-0.2,2.4-0.2c1.3-0.1,2.6,0.3,3.6,1.1c0.9,0.8,1.3,2,1.3,3.2c0.1,1.3-0.4,2.5-1.3,3.5
	c-1.1,0.9-2.6,1.4-4,1.3c-0.7,0-1.4,0-2.1-0.1L66.6,524.5z M67.8,532.4c0.4,0,0.8,0,1.2,0c1.9,0.2,3.6-1.1,3.8-3c0-0.3,0-0.5,0-0.8
	c0-2.1-1.2-3.4-3.6-3.4c-0.5,0-0.9,0-1.3,0.1L67.8,532.4z"/>
<path class="st2" d="M83,528.7c0,3.1-1.9,4.7-4.1,4.7s-4-1.8-4-4.5s1.8-4.7,4.1-4.7S83,526.1,83,528.7z M76.1,528.9
	c0,1.9,1,3.6,2.8,3.6s2.8-1.7,2.8-3.7c0-1.8-0.9-3.6-2.8-3.6S76.1,526.9,76.1,528.9L76.1,528.9z"/>
<path class="st2" d="M84.5,524.5c0.8-0.1,1.6-0.2,2.4-0.2c1.3-0.1,2.6,0.3,3.6,1.1c0.9,0.8,1.3,2,1.3,3.2c0.1,1.3-0.4,2.5-1.3,3.5
	c-1.1,0.9-2.5,1.4-3.9,1.3c-0.7,0-1.4,0-2.1-0.1V524.5z M85.7,532.4c0.4,0,0.8,0,1.2,0c1.9,0.2,3.6-1.1,3.8-3c0-0.3,0-0.5,0-0.8
	c0-2.1-1.2-3.4-3.6-3.4c-0.5,0-0.9,0-1.3,0.1L85.7,532.4z"/>
<path class="st2" d="M94.6,530.5l-0.9,2.8h-1.2l3-8.9h1.4l3,8.9h-1.2l-1-2.8H94.6z M97.5,529.6l-0.9-2.6c-0.2-0.6-0.3-1.1-0.5-1.6
	l0,0c-0.1,0.5-0.3,1.1-0.4,1.6l-0.9,2.6L97.5,529.6z"/>
<path class="st2" d="M101.9,525.3h-2.7v-1h6.6v1h-2.7v7.9h-1.2L101.9,525.3z"/>
<path class="st2" d="M107.2,530.5l-0.9,2.8h-1.2l3-8.9h1.4l3,8.9h-1.2l-1-2.8H107.2z M110.2,529.6l-0.9-2.6
	c-0.2-0.6-0.3-1.1-0.5-1.6l0,0c-0.1,0.5-0.3,1.1-0.4,1.6l-0.9,2.6H110.2z"/>
<path class="st2" d="M43.2,539.8v7.7c0,0.6,0,1.2,0,1.7h-1l0-1.1l0,0c-0.4,0.8-1.3,1.3-2.2,1.3c-1.5,0-2.7-1.3-2.7-3.2
	c0-2.1,1.3-3.4,2.9-3.4c0.8,0,1.5,0.3,1.9,1l0,0v-3.8L43.2,539.8z M42.1,545.4c0-0.2,0-0.3,0-0.5c-0.2-0.8-0.9-1.3-1.7-1.3
	c-1.2,0-1.9,1.1-1.9,2.5s0.7,2.4,1.9,2.4c0.8,0,1.5-0.6,1.7-1.4c0-0.2,0.1-0.3,0.1-0.5L42.1,545.4z"/>
<path class="st2" d="M48.7,549.1l-0.1-0.8l0,0c-0.5,0.6-1.2,1-2,1c-1,0.1-1.9-0.6-2-1.6c0-0.1,0-0.1,0-0.2c0-1.5,1.4-2.4,3.8-2.4
	v-0.1c0.1-0.7-0.4-1.4-1.1-1.5c-0.1,0-0.2,0-0.3,0c-0.6,0-1.2,0.2-1.7,0.5l-0.3-0.8c0.6-0.4,1.4-0.6,2.1-0.6c2,0,2.4,1.3,2.4,2.6
	v2.4c0,0.5,0,1,0.1,1.5H48.7z M48.5,545.9c-1.3,0-2.7,0.2-2.7,1.4c-0.1,0.5,0.3,1,0.9,1.1c0.1,0,0.1,0,0.2,0c0.7,0,1.3-0.4,1.6-1.1
	c0-0.1,0-0.2,0-0.4L48.5,545.9z"/>
<path class="st2" d="M52.9,540.9v1.8h1.7v0.9h-1.7v3.4c0,0.8,0.2,1.2,0.9,1.2c0.2,0,0.5,0,0.7-0.1l0,0.9c-0.3,0.1-0.7,0.2-1,0.2
	c-0.5,0-0.9-0.2-1.2-0.5c-0.3-0.5-0.5-1.1-0.5-1.7v-3.5h-1v-0.9h1v-1.5L52.9,540.9z"/>
<path class="st2" d="M59.4,549.1l-0.1-0.8l0,0c-0.5,0.6-1.2,1-2,1c-1,0.1-1.9-0.6-2-1.7c0-0.1,0-0.1,0-0.2c0-1.5,1.4-2.4,3.8-2.4
	v-0.1c0.1-0.7-0.4-1.4-1.1-1.5c-0.1,0-0.2,0-0.3,0c-0.6,0-1.2,0.2-1.7,0.5l-0.3-0.8c0.6-0.4,1.4-0.6,2.1-0.6c2,0,2.4,1.3,2.4,2.6
	v2.4c0,0.5,0,1,0.1,1.5H59.4z M59.2,545.9c-1.3,0-2.7,0.2-2.7,1.4c-0.1,0.5,0.3,1,0.9,1.1c0.1,0,0.1,0,0.2,0c0.7,0,1.3-0.4,1.6-1.1
	c0-0.1,0.1-0.2,0.1-0.4L59.2,545.9z"/>
<path class="st2" d="M60.6,551c0.5,0,0.9-0.2,1.3-0.5c0.3-0.4,0.5-0.9,0.5-2.4v-5.3h1.2v5.8c0.1,0.9-0.2,1.9-0.8,2.6
	c-0.6,0.5-1.3,0.7-2,0.7L60.6,551z M63.6,541c0,0.4-0.3,0.7-0.7,0.7c0,0,0,0-0.1,0c-0.4,0-0.7-0.3-0.7-0.7c0,0,0,0,0,0
	c0-0.4,0.3-0.7,0.7-0.7S63.6,540.6,63.6,541C63.6,541,63.6,541,63.6,541z"/>
<path class="st2" d="M71.2,545.9c0.1,1.7-1.1,3.2-2.8,3.4c-0.1,0-0.2,0-0.3,0c-1.7,0-3-1.3-3-3c0-0.1,0-0.2,0-0.3
	c-0.1-1.7,1.1-3.2,2.8-3.4c0.1,0,0.2,0,0.3,0c1.7,0,3,1.3,3,3C71.2,545.7,71.2,545.8,71.2,545.9z M66.1,546c0,1.4,0.8,2.5,1.9,2.5
	s1.9-1,1.9-2.5c0-1.1-0.5-2.5-1.9-2.5S66.1,544.7,66.1,546L66.1,546z"/>
<path class="st2" d="M78,547.4c0,0.7,0,1.2,0,1.8h-1l-0.1-1l0,0c-0.4,0.8-1.2,1.2-2.1,1.2c-1,0-2.2-0.6-2.2-2.8v-3.7h1.2v3.5
	c0,1.2,0.4,2,1.4,2c0.7,0,1.3-0.4,1.5-1.1c0.1-0.2,0.1-0.4,0.1-0.6v-3.9H78V547.4z"/>
<path class="st2" d="M79.9,544.7c0-0.8,0-1.4,0-2h1L81,544l0,0c0.2-0.8,1-1.3,1.8-1.4c0.1,0,0.2,0,0.3,0v1.1c-0.1,0-0.3,0-0.4,0
	c-0.8,0-1.5,0.7-1.6,1.5c0,0.2,0,0.4-0.1,0.5v3.4h-1.2V544.7z"/>
<path class="st2" d="M84.3,544.5c0-0.7,0-1.2-0.1-1.7h1l0.1,1l0,0c0.4-0.8,1.2-1.2,2.1-1.2c0.9,0,2.2,0.5,2.2,2.7v3.8h-1.1v-3.7
	c0-1-0.4-1.9-1.5-1.9c-0.7,0-1.4,0.5-1.6,1.2c-0.1,0.2-0.1,0.4-0.1,0.5v3.8h-1.1V544.5z"/>
<path class="st2" d="M95.2,549.1l-0.1-0.8l0,0c-0.5,0.6-1.2,1-2,1c-1,0.1-1.9-0.7-1.9-1.7c0,0,0-0.1,0-0.1c0-1.5,1.4-2.4,3.8-2.4
	v-0.1c0.1-0.7-0.4-1.4-1.2-1.5c-0.1,0-0.2,0-0.3,0c-0.6,0-1.2,0.2-1.7,0.5l-0.3-0.8c0.6-0.4,1.4-0.6,2.1-0.6c2,0,2.4,1.3,2.4,2.6
	v2.4c0,0.5,0,1,0.1,1.5H95.2z M95,545.9c-1.3,0-2.7,0.2-2.7,1.4c-0.1,0.5,0.3,1,0.9,1.1c0.1,0,0.1,0,0.2,0c0.7,0,1.4-0.4,1.6-1.1
	c0-0.1,0-0.2,0-0.3V545.9z"/>
<path class="st2" d="M98,539.8h1.2v9.4H98V539.8z"/>
<path class="st2" d="M102.4,540.9c0,0.4-0.3,0.7-0.7,0.7s-0.7-0.3-0.7-0.7c0-0.4,0.3-0.7,0.7-0.7c0,0,0,0,0,0
	C102.1,540.2,102.4,540.5,102.4,540.9C102.4,540.9,102.4,540.9,102.4,540.9z M101.1,549.1v-6.4h1.2v6.4H101.1z"/>
<path class="st2" d="M104.1,548c0.5,0.3,1,0.4,1.5,0.5c0.8,0,1.2-0.4,1.2-1s-0.3-0.8-1.2-1.2c-1.2-0.4-1.7-1-1.7-1.8
	c0.1-1.1,1-1.9,2.1-1.9c0,0,0.1,0,0.1,0c0.5,0,1.1,0.1,1.6,0.4l-0.3,0.8c-0.4-0.2-0.8-0.4-1.3-0.4c-0.7,0-1,0.4-1,0.9
	s0.4,0.8,1.2,1.1c1.1,0.4,1.7,1,1.7,1.9c0,1.1-0.9,1.9-2.4,1.9c-0.6,0-1.2-0.1-1.8-0.5L104.1,548z"/>
<path class="st2" d="M110.8,540.9v1.8h1.7v0.9h-1.7v3.4c0,0.8,0.2,1.2,0.9,1.2c0.2,0,0.5,0,0.7-0.1l0.1,0.9c-0.3,0.1-0.7,0.2-1,0.2
	c-0.5,0-0.9-0.2-1.3-0.5c-0.3-0.5-0.5-1.1-0.4-1.7v-3.5h-1v-0.9h1v-1.5L110.8,540.9z"/>
<line class="st3" x1="118.9" y1="564.3" x2="142.8" y2="564.1"/>
<path class="st2" d="M49,560.3h1.2v7.9H54v1h-5L49,560.3z"/>
<path class="st2" d="M56.4,560.3v8.9h-1.1v-8.9H56.4z"/>
<path class="st2" d="M58.4,560.5c0.7-0.1,1.4-0.2,2.1-0.2c0.9-0.1,1.7,0.1,2.4,0.6c0.5,0.4,0.8,1,0.8,1.6c0,0.9-0.6,1.7-1.5,2l0,0
	c1.1,0.2,1.8,1.1,1.8,2.2c0,0.7-0.3,1.3-0.8,1.8c-0.9,0.7-2,1-3.1,0.8c-0.6,0-1.2,0-1.8-0.1L58.4,560.5z M59.6,564.1h1.1
	c1.2,0,1.9-0.6,1.9-1.5c0-1-0.8-1.5-2-1.5c-0.3,0-0.7,0-1,0.1L59.6,564.1z M59.6,568.4c0.3,0,0.7,0,1,0c1.2,0,2.3-0.4,2.3-1.7
	s-1-1.7-2.3-1.7h-1L59.6,568.4z"/>
<path class="st2" d="M70.2,565.1h-3.4v3.2h3.9v1h-5v-8.9h4.8v1h-3.7v2.8h3.4V565.1z M70,558.3l-1.7,1.5h-0.9l1.2-1.5H70z"/>
<path class="st2" d="M72.1,560.5c0.7-0.1,1.5-0.2,2.2-0.2c0.9-0.1,1.8,0.2,2.6,0.7c0.5,0.4,0.7,1.1,0.7,1.7c0,1.1-0.7,2-1.7,2.3l0,0
	c0.7,0.3,1.2,1,1.3,1.8c0.2,0.8,0.4,1.6,0.7,2.4h-1.2c-0.3-0.7-0.5-1.4-0.6-2.1c-0.3-1.2-0.8-1.7-1.8-1.7h-1.1v3.9h-1.2V560.5z
	 M73.2,564.5h1.2c1.2,0,2-0.7,2-1.7s-0.8-1.7-2-1.7c-0.4,0-0.8,0-1.1,0.1L73.2,564.5z"/>
<path class="st2" d="M80.7,566.4l-0.9,2.8h-1.2l3-8.9H83l3,8.9h-1.2l-1-2.8H80.7z M83.7,565.5l-0.9-2.5c-0.2-0.6-0.3-1.1-0.5-1.6
	l0,0c-0.1,0.5-0.3,1.1-0.4,1.6l-0.9,2.6H83.7z"/>
<path class="st2" d="M88.1,561.3h-2.7v-1h6.6v1h-2.7v7.9h-1.1V561.3z"/>
<path class="st2" d="M94.1,560.3v8.9h-1.2v-8.9H94.1z"/>
<path class="st2" d="M103.7,564.7c0,3.1-1.9,4.7-4.1,4.7s-4-1.8-4-4.5s1.8-4.7,4.1-4.7S103.7,562,103.7,564.7z M96.8,564.8
	c0,1.9,1,3.6,2.8,3.6s2.8-1.7,2.8-3.7c0-1.8-0.9-3.6-2.8-3.6S96.8,562.9,96.8,564.8z"/>
<path class="st2" d="M105.2,569.2v-8.9h1.3l2.8,4.5c0.6,0.9,1.1,1.9,1.6,2.9l0,0c-0.1-1.2-0.1-2.3-0.1-3.7v-3.7h1.1v8.9h-1.1
	l-2.8-4.5c-0.6-1-1.2-2-1.7-3l0,0c0.1,1.1,0.1,2.2,0.1,3.7v3.8L105.2,569.2z"/>
<path class="st2" d="M43.2,575.7v7.7c0,0.6,0,1.2,0,1.7h-1l0-1.1l0,0c-0.4,0.8-1.3,1.3-2.2,1.2c-1.5,0-2.7-1.3-2.7-3.2
	c0-2.1,1.3-3.4,2.9-3.4c0.8,0,1.5,0.3,1.9,1l0,0v-3.8L43.2,575.7z M42.1,581.3c0-0.2,0-0.3,0-0.5c-0.2-0.8-0.9-1.3-1.7-1.3
	c-1.2,0-1.9,1.1-1.9,2.5s0.7,2.4,1.9,2.4c0.8,0,1.5-0.6,1.7-1.4c0-0.2,0.1-0.3,0.1-0.5L42.1,581.3z"/>
<path class="st2" d="M48.7,585.1l-0.1-0.8l0,0c-0.4,0.6-1.2,1-2,1c-1,0.1-1.9-0.6-2-1.6c0-0.1,0-0.1,0-0.2c0-1.5,1.4-2.4,3.8-2.4
	v-0.1c0.1-0.7-0.4-1.4-1.1-1.5c-0.1,0-0.3,0-0.4,0c-0.6,0-1.2,0.2-1.7,0.5l-0.3-0.8c0.6-0.4,1.4-0.6,2.1-0.6c2,0,2.4,1.3,2.4,2.6
	v2.4c0,0.5,0,1,0.1,1.5H48.7z M48.5,581.8c-1.3,0-2.7,0.2-2.7,1.4c-0.1,0.5,0.3,1,0.9,1.1c0.1,0,0.1,0,0.2,0c0.7,0,1.3-0.4,1.6-1.1
	c0-0.1,0-0.2,0-0.4L48.5,581.8z"/>
<path class="st2" d="M52.9,576.9v1.8h1.7v0.9h-1.7v3.4c0,0.8,0.2,1.2,0.9,1.2c0.2,0,0.5,0,0.7-0.1l0,0.9c-0.3,0.1-0.7,0.2-1,0.2
	c-0.5,0-0.9-0.2-1.2-0.5c-0.3-0.5-0.5-1.1-0.5-1.7v-3.5h-1v-0.9h1v-1.5L52.9,576.9z"/>
<path class="st2" d="M59.4,585.1l-0.1-0.8l0,0c-0.5,0.6-1.2,1-2,1c-1,0.1-1.9-0.6-2-1.7c0-0.1,0-0.1,0-0.2c0-1.5,1.4-2.4,3.8-2.4
	v-0.1c0.1-0.7-0.4-1.4-1.1-1.5c-0.1,0-0.2,0-0.3,0c-0.6,0-1.2,0.2-1.7,0.5l-0.3-0.8c0.6-0.4,1.4-0.6,2.1-0.6c2,0,2.4,1.3,2.4,2.6
	v2.4c0,0.5,0,1,0.1,1.5L59.4,585.1z M59.2,581.8c-1.3,0-2.7,0.2-2.7,1.4c-0.1,0.5,0.3,1,0.9,1.1c0.1,0,0.1,0,0.2,0
	c0.7,0,1.3-0.4,1.6-1.1c0-0.1,0.1-0.2,0.1-0.4L59.2,581.8z"/>
<path class="st2" d="M60.6,586.9c0.5,0,0.9-0.2,1.3-0.5c0.3-0.4,0.5-0.9,0.5-2.4v-5.3h1.2v5.8c0.1,0.9-0.2,1.9-0.8,2.6
	c-0.6,0.5-1.3,0.7-2,0.7L60.6,586.9z M63.6,576.9c0,0.4-0.3,0.7-0.7,0.7c0,0,0,0-0.1,0c-0.4,0-0.7-0.3-0.7-0.7c0,0,0,0,0,0
	c0-0.4,0.3-0.7,0.7-0.7S63.6,576.5,63.6,576.9C63.6,576.9,63.6,576.9,63.6,576.9z"/>
<path class="st2" d="M71.2,581.8c0.1,1.7-1.1,3.2-2.8,3.4c-0.1,0-0.2,0-0.3,0c-1.7,0-3-1.3-3-3c0-0.1,0-0.2,0-0.3
	c-0.1-1.7,1.1-3.2,2.8-3.4c0.1,0,0.2,0,0.3,0c1.7,0,3,1.3,3,3C71.2,581.7,71.2,581.8,71.2,581.8z M66.1,581.9c0,1.4,0.8,2.5,1.9,2.5
	s1.9-1,1.9-2.5c0-1.1-0.5-2.5-1.9-2.5S66.1,580.7,66.1,581.9L66.1,581.9z"/>
<path class="st2" d="M78,583.3c0,0.7,0,1.2,0,1.8h-1v-1l0,0c-0.4,0.8-1.2,1.2-2.1,1.2c-1,0-2.2-0.6-2.2-2.8v-3.7h1.2v3.5
	c0,1.2,0.4,2,1.4,2c0.7,0,1.3-0.4,1.5-1.1c0.1-0.2,0.1-0.4,0.1-0.6v-3.9H78V583.3z"/>
<path class="st2" d="M79.9,580.7c0-0.8,0-1.4,0-2h1L81,580l0,0c0.2-0.8,1-1.3,1.8-1.4c0.1,0,0.2,0,0.3,0v1.1c-0.1,0-0.3,0-0.4,0
	c-0.8,0-1.5,0.7-1.6,1.5c0,0.2,0,0.4-0.1,0.5v3.4h-1.2V580.7z"/>
<path class="st2" d="M84.3,580.4c0-0.7,0-1.2-0.1-1.7h1l0.1,1.1l0,0c0.4-0.8,1.2-1.2,2.1-1.2c0.9,0,2.2,0.5,2.2,2.7v3.8h-1.1v-3.7
	c0-1-0.4-1.9-1.5-1.9c-0.9,0-1.7,0.8-1.7,1.7v3.9h-1.1V580.4z"/>
<path class="st2" d="M95.2,585.1l-0.1-0.8l0,0c-0.5,0.6-1.2,1-2,1c-1,0.1-1.9-0.7-1.9-1.7c0,0,0-0.1,0-0.1c0-1.5,1.4-2.4,3.8-2.4
	v-0.1c0.1-0.7-0.4-1.4-1.2-1.5c-0.1,0-0.2,0-0.3,0c-0.6,0-1.2,0.2-1.7,0.5l-0.3-0.8c0.6-0.4,1.4-0.6,2.1-0.6c2,0,2.4,1.3,2.4,2.6
	v2.4c0,0.5,0,1,0.1,1.5L95.2,585.1z M95,581.8c-1.3,0-2.7,0.2-2.7,1.4c-0.1,0.5,0.3,1,0.9,1.1c0.1,0,0.1,0,0.2,0
	c0.7,0,1.4-0.4,1.6-1.1c0-0.1,0.1-0.2,0.1-0.4L95,581.8z"/>
<path class="st2" d="M98,575.7h1.2v9.4H98V575.7z"/>
<path class="st2" d="M102.4,576.9c0,0.4-0.3,0.7-0.7,0.7s-0.7-0.3-0.7-0.7c0-0.4,0.3-0.7,0.7-0.7c0,0,0,0,0,0
	C102.1,576.2,102.4,576.5,102.4,576.9C102.4,576.9,102.4,576.9,102.4,576.9z M101.1,585.1v-6.4h1.2v6.4H101.1z"/>
<path class="st2" d="M104.1,583.9c0.5,0.3,1,0.4,1.5,0.5c0.8,0,1.2-0.4,1.2-1s-0.3-0.9-1.2-1.2c-1.2-0.4-1.7-1-1.7-1.8
	c0.1-1.1,1-1.9,2.1-1.9c0,0,0.1,0,0.1,0c0.5,0,1.1,0.1,1.6,0.4l-0.3,0.8c-0.4-0.2-0.8-0.4-1.3-0.4c-0.7,0-1,0.4-1,0.9
	s0.4,0.8,1.2,1.1c1.1,0.4,1.7,1,1.7,1.9c0,1.1-0.9,1.9-2.4,1.9c-0.6,0-1.2-0.1-1.8-0.4L104.1,583.9z"/>
<path class="st2" d="M110.8,576.9v1.8h1.7v0.9h-1.7v3.4c0,0.8,0.2,1.2,0.9,1.2c0.2,0,0.5,0,0.7-0.1l0.1,0.9c-0.3,0.1-0.7,0.2-1,0.2
	c-0.5,0-0.9-0.2-1.3-0.5c-0.3-0.5-0.5-1.1-0.4-1.7v-3.5h-1v-0.9h1v-1.5L110.8,576.9z"/>
<line class="st3" x1="120.1" y1="679.8" x2="141.5" y2="679.8"/>
<path class="st2" d="M50.4,683.4l-2.3-8.9h1.2l1.1,4.5c0.3,1.1,0.5,2.2,0.7,3.1l0,0c0.2-0.9,0.4-2,0.7-3.1l1.2-4.5h1.2l1.1,4.5
	c0.2,1.1,0.5,2.1,0.6,3.1l0,0c0.2-1,0.4-2,0.7-3.1l1.2-4.5H59l-2.5,8.9h-1.2l-1.1-4.6c-0.3-1-0.4-1.9-0.6-2.9l0,0
	c-0.2,1-0.4,2-0.7,2.9l-1.3,4.6L50.4,683.4z"/>
<path class="st2" d="M64.7,679.2h-3.5v3.2h3.9v1h-5v-8.9H65v1h-3.7v2.8h3.4L64.7,679.2z"/>
<path class="st2" d="M66.6,674.6c0.8-0.1,1.6-0.2,2.4-0.2c1.3-0.1,2.6,0.3,3.6,1.1c0.9,0.8,1.3,2,1.3,3.2c0.1,1.3-0.4,2.5-1.3,3.5
	c-1.1,0.9-2.5,1.4-4,1.3c-0.7,0-1.4,0-2.1-0.1L66.6,674.6z M67.8,682.5c0.4,0,0.8,0.1,1.2,0.1c2.5,0,3.8-1.4,3.8-3.8
	c0-2.1-1.2-3.4-3.6-3.4c-0.5,0-0.9,0-1.3,0.1L67.8,682.5z"/>
<path class="st2" d="M83,678.9c0,3-1.9,4.7-4.1,4.7s-4-1.8-4-4.5s1.8-4.7,4.1-4.7S83,676.2,83,678.9z M76.1,679c0,1.9,1,3.6,2.8,3.6
	s2.8-1.7,2.8-3.7c0-1.8-0.9-3.6-2.8-3.6S76.1,677.1,76.1,679L76.1,679z"/>
<path class="st2" d="M84.5,674.6c0.8-0.1,1.6-0.2,2.4-0.2c1.3-0.1,2.6,0.3,3.6,1.1c0.9,0.8,1.3,2,1.3,3.2c0.1,1.3-0.4,2.5-1.3,3.5
	c-1.1,0.9-2.5,1.4-3.9,1.3c-0.7,0-1.4,0-2.1-0.1V674.6z M85.7,682.5c0.4,0,0.8,0.1,1.2,0.1c1.9,0.2,3.6-1.1,3.8-3c0-0.3,0-0.5,0-0.8
	c0-2.1-1.2-3.4-3.6-3.4c-0.5,0-0.9,0-1.3,0.1L85.7,682.5z"/>
<path class="st2" d="M94.6,680.6l-0.9,2.8h-1.2l3-8.9h1.4l3,8.9h-1.2l-1-2.8H94.6z M97.5,679.7l-0.9-2.6c-0.2-0.6-0.3-1.1-0.5-1.6
	l0,0c-0.1,0.5-0.3,1.1-0.4,1.6l-0.9,2.6H97.5z"/>
<path class="st2" d="M101.9,675.5h-2.7v-1h6.6v1h-2.7v7.9h-1.2L101.9,675.5z"/>
<path class="st2" d="M107.2,680.6l-0.9,2.8h-1.2l3-8.9h1.4l3,8.9h-1.2l-1-2.8H107.2z M110.2,679.7l-0.9-2.6
	c-0.2-0.6-0.3-1.1-0.5-1.6l0,0c-0.1,0.5-0.3,1.1-0.4,1.6l-0.9,2.6H110.2z"/>
<path class="st2" d="M43.2,689.9v7.7c0,0.6,0,1.2,0,1.7h-1l-0.1-1.1l0,0c-0.4,0.8-1.3,1.3-2.1,1.2c-1.5,0-2.7-1.3-2.7-3.2
	c0-2.1,1.3-3.4,2.9-3.4c0.8,0,1.5,0.3,1.9,1l0,0v-3.8H43.2z M42.1,695.5c0-0.2,0-0.3-0.1-0.5c-0.2-0.8-0.9-1.3-1.7-1.3
	c-1.2,0-1.9,1-1.9,2.5s0.7,2.4,1.9,2.4c0.8,0,1.5-0.6,1.7-1.4c0-0.2,0.1-0.3,0.1-0.5L42.1,695.5z"/>
<path class="st2" d="M48.7,699.3l-0.1-0.8l0,0c-0.4,0.6-1.2,1-2,1c-1,0.1-1.9-0.6-2-1.7c0-0.1,0-0.1,0-0.2c0-1.5,1.4-2.4,3.8-2.4
	v-0.1c0.1-0.7-0.4-1.4-1.1-1.5c-0.1,0-0.2,0-0.4,0c-0.6,0-1.2,0.2-1.7,0.5l-0.3-0.8c0.6-0.4,1.4-0.6,2.1-0.6c2,0,2.4,1.3,2.4,2.6
	v2.4c0,0.5,0,1,0.1,1.5L48.7,699.3z M48.5,696c-1.3,0-2.7,0.2-2.7,1.4c-0.1,0.5,0.3,1,0.9,1.1c0.1,0,0.1,0,0.2,0
	c0.7,0,1.3-0.4,1.6-1.1c0-0.1,0-0.2,0-0.4L48.5,696z"/>
<path class="st2" d="M52.9,691v1.8h1.7v0.9h-1.7v3.4c0,0.8,0.2,1.2,0.9,1.2c0.2,0,0.5,0,0.7-0.1l0,0.9c-0.3,0.1-0.7,0.2-1,0.2
	c-0.5,0-0.9-0.2-1.2-0.5c-0.3-0.5-0.5-1.1-0.5-1.7v-3.5h-1v-0.9h1v-1.5L52.9,691z"/>
<path class="st2" d="M59.4,699.3l-0.1-0.8l0,0c-0.5,0.6-1.2,1-2,1c-1,0.1-1.9-0.6-2-1.7c0-0.1,0-0.1,0-0.2c0-1.5,1.4-2.4,3.8-2.4
	v-0.1c0.1-0.7-0.4-1.4-1.1-1.5c-0.1,0-0.2,0-0.3,0c-0.6,0-1.2,0.2-1.7,0.5l-0.3-0.8c0.6-0.4,1.4-0.6,2.1-0.6c2,0,2.4,1.3,2.4,2.6
	v2.4c0,0.5,0,1,0.1,1.5L59.4,699.3z M59.2,696c-1.3,0-2.7,0.2-2.7,1.4c-0.1,0.5,0.3,1,0.9,1.1c0.1,0,0.1,0,0.2,0
	c0.7,0,1.3-0.4,1.6-1.1c0-0.1,0.1-0.2,0.1-0.4L59.2,696z"/>
<path class="st2" d="M60.6,701.1c0.5,0,0.9-0.2,1.3-0.5c0.3-0.4,0.5-0.9,0.5-2.4v-5.3h1.2v5.8c0.1,0.9-0.2,1.9-0.8,2.6
	c-0.6,0.5-1.3,0.7-2,0.7L60.6,701.1z M63.6,691.1c0,0.4-0.3,0.7-0.7,0.7c0,0,0,0-0.1,0c-0.4,0-0.7-0.3-0.7-0.7s0.3-0.7,0.7-0.7
	C63.3,690.4,63.6,690.7,63.6,691.1z"/>
<path class="st2" d="M71.2,696c0.2,1.7-1.1,3.3-2.8,3.4c-0.1,0-0.2,0-0.4,0c-1.7,0-3-1.3-3.1-2.9c0-0.1,0-0.3,0-0.4
	c-0.1-1.7,1.1-3.2,2.8-3.4c0.1,0,0.2,0,0.3,0c1.7-0.1,3,1.2,3.1,2.9C71.2,695.8,71.2,695.9,71.2,696z M66.1,696.1
	c0,1.4,0.8,2.5,1.9,2.5s1.9-1,1.9-2.5c0-1.1-0.5-2.4-1.9-2.4S66.1,694.9,66.1,696.1L66.1,696.1z"/>
<path class="st2" d="M78,697.5c0,0.7,0,1.2,0,1.8h-1l-0.1-1l0,0c-0.4,0.8-1.2,1.2-2.1,1.2c-1,0-2.2-0.6-2.2-2.8v-3.7h1.2v3.5
	c0,1.2,0.4,2,1.4,2c0.7,0,1.3-0.4,1.5-1.1c0.1-0.2,0.1-0.4,0.1-0.6v-3.9H78V697.5z"/>
<path class="st2" d="M79.9,694.9c0-0.8,0-1.4,0-2h1v1.2l0,0c0.2-0.8,1-1.3,1.8-1.4c0.1,0,0.2,0,0.3,0v1.1c-0.1,0-0.3,0-0.4,0
	c-0.8,0-1.5,0.7-1.6,1.5c0,0.2,0,0.4-0.1,0.5v3.4h-1.1V694.9z"/>
<path class="st2" d="M84.3,694.6c0-0.7,0-1.2-0.1-1.7h1l0.1,1l0,0c0.4-0.8,1.2-1.2,2.1-1.2c0.9,0,2.2,0.5,2.2,2.7v3.8h-1.1v-3.7
	c0-1-0.4-1.9-1.5-1.9c-0.7,0-1.4,0.5-1.6,1.2c-0.1,0.2-0.1,0.4-0.1,0.5v3.8h-1.1V694.6z"/>
<path class="st2" d="M95.2,699.3l-0.1-0.8l0,0c-0.5,0.6-1.2,1-2,1c-1,0.1-1.9-0.7-1.9-1.7c0,0,0-0.1,0-0.1c0-1.5,1.4-2.4,3.8-2.4
	v-0.1c0.1-0.7-0.4-1.4-1.2-1.5c-0.1,0-0.2,0-0.3,0c-0.6,0-1.2,0.2-1.7,0.5l-0.3-0.8c0.6-0.4,1.4-0.6,2.1-0.6c2,0,2.4,1.3,2.4,2.6
	v2.4c0,0.5,0,1,0.1,1.5L95.2,699.3z M95,696c-1.3,0-2.7,0.2-2.7,1.4c-0.1,0.5,0.3,1,0.9,1.1c0.1,0,0.1,0,0.2,0c0.7,0,1.4-0.4,1.6-1
	c0-0.1,0.1-0.2,0.1-0.4L95,696z"/>
<path class="st2" d="M98,689.9h1.2v9.4H98V689.9z"/>
<path class="st2" d="M102.4,691.1c0,0.4-0.3,0.7-0.7,0.7s-0.7-0.3-0.7-0.7s0.3-0.7,0.7-0.7c0,0,0,0,0,0
	C102.1,690.3,102.4,690.6,102.4,691.1C102.4,691,102.4,691.1,102.4,691.1z M101.1,699.3v-6.4h1.2v6.4H101.1z"/>
<path class="st2" d="M104.1,698.1c0.5,0.3,1,0.4,1.5,0.5c0.8,0,1.2-0.4,1.2-1s-0.3-0.8-1.2-1.2c-1.2-0.4-1.7-1-1.7-1.8
	c0.1-1.1,1-1.9,2.1-1.9c0,0,0.1,0,0.1,0c0.5,0,1.1,0.1,1.6,0.4l-0.3,0.8c-0.4-0.2-0.8-0.4-1.3-0.4c-0.7,0-1,0.4-1,0.9
	s0.4,0.8,1.2,1.1c1.1,0.4,1.7,1,1.7,1.9c0,1.1-0.9,1.9-2.4,1.9c-0.6,0-1.2-0.1-1.8-0.5L104.1,698.1z"/>
<path class="st2" d="M110.8,691v1.8h1.7v0.9h-1.7v3.4c0,0.8,0.2,1.2,0.9,1.2c0.2,0,0.5,0,0.7-0.1l0.1,0.9c-0.3,0.1-0.7,0.2-1,0.2
	c-0.5,0-0.9-0.2-1.3-0.5c-0.3-0.5-0.5-1.1-0.4-1.7v-3.5h-1v-0.9h1v-1.5L110.8,691z"/>
<path class="st2" d="M63.6,705.8v7.7c0,0.6,0,1.2,0,1.7h-1l-0.1-1.1l0,0c-0.4,0.8-1.3,1.3-2.2,1.2c-1.5,0-2.7-1.3-2.7-3.2
	c0-2.1,1.3-3.4,2.9-3.4c0.8,0,1.5,0.3,1.9,1l0,0v-3.8L63.6,705.8z M62.4,711.3c0-0.2,0-0.3,0-0.5c-0.2-0.8-0.9-1.3-1.7-1.3
	c-1.2,0-1.9,1-1.9,2.5s0.6,2.4,1.9,2.4c0.8,0,1.5-0.6,1.6-1.3c0-0.2,0.1-0.3,0.1-0.5L62.4,711.3z"/>
<path class="st2" d="M66.2,712.2c-0.1,1.1,0.7,2.1,1.8,2.2c0.1,0,0.3,0,0.4,0c0.6,0,1.2-0.1,1.8-0.3l0.2,0.8
	c-0.7,0.3-1.4,0.4-2.1,0.4c-1.7,0.1-3.1-1.2-3.1-2.8c0-0.1,0-0.2,0-0.4c0-1.9,1.1-3.5,3-3.5c2.1,0,2.6,1.8,2.6,3c0,0.2,0,0.4,0,0.5
	L66.2,712.2z M69.6,711.3c0.1-0.9-0.5-1.7-1.4-1.9c-0.1,0-0.1,0-0.2,0c-1,0.1-1.8,0.9-1.8,1.9H69.6z"/>
<path class="st2" d="M72.6,708.7l1.2,3.6c0.2,0.5,0.4,1.1,0.5,1.7l0,0c0.2-0.5,0.3-1.1,0.5-1.7l1.2-3.6h1.2l-2.5,6.4h-1.1l-2.4-6.4
	H72.6z"/>
<path class="st2" d="M79,712.2c-0.1,1.1,0.7,2.1,1.8,2.2c0.1,0,0.3,0,0.4,0c0.6,0,1.2-0.1,1.8-0.4l0.2,0.8c-0.7,0.3-1.4,0.4-2.1,0.4
	c-1.7,0.1-3.1-1.2-3.1-2.8c0-0.1,0-0.2,0-0.4c0-1.9,1.1-3.5,3-3.5c2.1,0,2.6,1.8,2.6,3c0,0.2,0,0.4,0,0.5L79,712.2z M82.4,711.3
	c0.1-0.9-0.5-1.7-1.4-1.9c-0.1,0-0.1,0-0.2,0c-1,0.1-1.8,0.9-1.8,1.9H82.4z"/>
<path class="st2" d="M85,705.8h1.2v9.4H85V705.8z"/>
<path class="st2" d="M93.9,711.9c0.1,1.7-1.1,3.2-2.8,3.4c-0.1,0-0.2,0-0.3,0c-1.7,0.1-3-1.2-3.1-2.9c0-0.1,0-0.3,0-0.4
	c-0.1-1.7,1.1-3.2,2.8-3.4c0.1,0,0.2,0,0.3,0c1.7,0,3,1.3,3.1,2.9C93.9,711.6,93.9,711.8,93.9,711.9z M88.8,712
	c0,1.4,0.8,2.5,1.9,2.5s1.9-1,1.9-2.5c0-1.1-0.5-2.5-1.9-2.5S88.8,710.7,88.8,712L88.8,712z"/>
<path class="st2" d="M95.4,710.8c0-0.8,0-1.5,0-2.1h1l0.1,1.1l0,0c0.5-0.8,1.3-1.3,2.3-1.2c1.6,0,2.7,1.3,2.7,3.2
	c0,2.3-1.4,3.4-2.9,3.4c-0.8,0-1.6-0.3-2-1l0,0v3.5h-1.1V710.8z M96.5,712.5c0,0.2,0,0.3,0,0.5c0.2,0.8,0.9,1.4,1.7,1.4
	c1.2,0,2-1,2-2.5c0-1.3-0.7-2.4-1.9-2.4c-0.9,0-1.6,0.6-1.8,1.5c0,0.2-0.1,0.3-0.1,0.5L96.5,712.5z"/>
<path class="st2" d="M103.5,712.2c-0.1,1.1,0.7,2.1,1.8,2.2c0.1,0,0.3,0,0.4,0c0.6,0,1.2-0.1,1.8-0.3l0.2,0.8
	c-0.7,0.3-1.4,0.4-2.1,0.4c-1.7,0.1-3.1-1.2-3.1-2.8c0-0.1,0-0.2,0-0.4c0-1.9,1.1-3.5,3-3.5c2.1,0,2.6,1.8,2.6,3c0,0.2,0,0.4,0,0.5
	L103.5,712.2z M106.9,711.3c0.1-0.9-0.5-1.7-1.4-1.9c-0.1,0-0.1,0-0.2,0c-1,0.1-1.8,0.9-1.8,1.9H106.9z"/>
<path class="st2" d="M109.5,710.7c0-0.8,0-1.4-0.1-2h1v1.3l0,0c0.2-0.8,0.9-1.4,1.8-1.4c0.1,0,0.2,0,0.3,0v1.1c-0.1,0-0.3,0-0.4,0
	c-0.8,0-1.5,0.7-1.6,1.5c0,0.2,0,0.4,0,0.5v3.4h-1.2L109.5,710.7z"/>
<path class="st7" d="M217.4,130.2h1.1v6c0,2.4-1.2,3.1-2.7,3.1c-0.4,0-0.8-0.1-1.2-0.2l0.2-0.9c0.3,0.1,0.7,0.2,1,0.2
	c1,0,1.6-0.5,1.6-2.2L217.4,130.2z"/>
<path class="st7" d="M226.2,135.8c0.1,1.7-1.1,3.2-2.8,3.4c-0.1,0-0.2,0-0.3,0c-1.7,0-3-1.3-3.1-2.9c0-0.1,0-0.3,0-0.4
	c-0.1-1.7,1.1-3.2,2.8-3.4c0.1,0,0.2,0,0.3,0c1.7-0.1,3,1.2,3.1,2.9C226.2,135.6,226.2,135.7,226.2,135.8z M221.1,135.9
	c0,1.4,0.8,2.5,1.9,2.5s2-1,2-2.5c0-1.1-0.6-2.4-1.9-2.4S221.1,134.7,221.1,135.9L221.1,135.9z"/>
<path class="st7" d="M233,137.3c0,0.7,0,1.2,0.1,1.8h-1l-0.1-1l0,0c-0.4,0.8-1.2,1.2-2.1,1.2c-1,0-2.2-0.6-2.2-2.8v-3.7h1.1v3.5
	c0,1.2,0.4,2,1.4,2c0.7,0,1.3-0.4,1.5-1.1c0.1-0.2,0.1-0.4,0.1-0.6v-3.9h1.1V137.3z"/>
<path class="st7" d="M234.9,134.7c0-0.8,0-1.4-0.1-2h1l0.1,1.3l0,0c0.2-0.8,0.9-1.4,1.8-1.4c0.1,0,0.2,0,0.3,0v1.1
	c-0.1,0-0.3,0-0.4,0c-0.8,0-1.5,0.7-1.6,1.5c0,0.2,0,0.4-0.1,0.5v3.4h-1.2L234.9,134.7z"/>
<path class="st7" d="M239.3,134.4c0-0.7,0-1.2,0-1.7h1l0.1,1l0,0c0.4-0.8,1.2-1.2,2.1-1.2c0.9,0,2.3,0.5,2.3,2.7v3.8h-1.2v-3.7
	c0-1-0.4-1.9-1.5-1.9c-0.7,0-1.4,0.5-1.6,1.2c-0.1,0.2-0.1,0.4-0.1,0.5v3.9h-1.2V134.4z"/>
<path class="st7" d="M250.2,139.1l-0.1-0.8l0,0c-0.5,0.6-1.2,1-2,0.9c-1,0.1-1.9-0.7-1.9-1.7c0,0,0-0.1,0-0.1c0-1.5,1.4-2.4,3.8-2.4
	v-0.1c0.1-0.7-0.4-1.4-1.1-1.5c-0.1,0-0.2,0-0.3,0c-0.6,0-1.2,0.2-1.7,0.5l-0.3-0.8c0.6-0.4,1.4-0.6,2.1-0.6c1.9,0,2.4,1.3,2.4,2.6
	v2.4c0,0.5,0,1,0.1,1.5L250.2,139.1z M250,135.8c-1.2,0-2.7,0.2-2.7,1.4c-0.1,0.5,0.3,1,0.9,1.1c0.1,0,0.1,0,0.2,0
	c0.7,0,1.3-0.4,1.6-1.1c0-0.1,0-0.2,0-0.4L250,135.8z"/>
<path class="st7" d="M253,129.7h1.2v9.4H253V129.7z"/>
<path class="st7" d="M257.4,130.9c0,0.4-0.4,0.7-0.8,0.6c-0.3,0-0.6-0.3-0.6-0.6c0-0.4,0.3-0.7,0.7-0.7c0,0,0,0,0,0
	C257.1,130.1,257.4,130.5,257.4,130.9C257.4,130.9,257.4,130.9,257.4,130.9z M256.1,139.1v-6.4h1.1v6.4H256.1z"/>
<path class="st7" d="M259.1,137.9c0.5,0.3,1,0.4,1.5,0.5c0.9,0,1.2-0.4,1.2-1s-0.3-0.9-1.2-1.2c-1.2-0.4-1.7-1-1.7-1.8
	c0.1-1.1,1-1.9,2.1-1.9c0,0,0.1,0,0.1,0c0.5,0,1.1,0.1,1.6,0.4l-0.3,0.8c-0.4-0.2-0.8-0.4-1.3-0.4c-0.7,0-1.1,0.4-1.1,0.9
	s0.4,0.8,1.2,1.1c1.1,0.4,1.7,1,1.7,1.9c0,1.1-0.9,1.9-2.4,1.9c-0.6,0-1.2-0.1-1.8-0.4L259.1,137.9z"/>
<path class="st7" d="M264.5,134.4c0-0.7,0-1.2,0-1.7h1l0.1,1l0,0c0.4-0.7,1.2-1.2,2-1.2c0.8,0,1.5,0.5,1.8,1.3l0,0
	c0.2-0.3,0.4-0.6,0.7-0.8c0.4-0.3,0.9-0.5,1.4-0.4c0.9,0,2.1,0.6,2.1,2.8v3.8h-1.1v-3.6c0-1.2-0.5-2-1.4-2c-0.6,0-1.2,0.4-1.4,1
	c-0.1,0.2-0.1,0.4-0.1,0.6v3.9h-1.1v-3.8c0-1-0.5-1.8-1.3-1.8c-0.7,0-1.3,0.5-1.5,1.2c-0.1,0.2-0.1,0.4-0.1,0.6v3.9h-1.1
	L264.5,134.4z"/>
<path class="st7" d="M221,142.6v7.7c0,0.6,0,1.2,0,1.6h-1l-0.1-1.1l0,0c-0.4,0.8-1.3,1.3-2.2,1.2c-1.6,0-2.7-1.3-2.7-3.2
	c0-2.1,1.3-3.4,2.9-3.4c0.8,0,1.5,0.3,1.9,1l0,0v-3.8L221,142.6z M219.8,148.2c0-0.2,0-0.3-0.1-0.5c-0.2-0.8-0.9-1.3-1.7-1.3
	c-1.2,0-1.9,1-1.9,2.5s0.6,2.4,1.9,2.4c0.8,0,1.5-0.6,1.7-1.4c0-0.2,0.1-0.3,0.1-0.5V148.2z"/>
<path class="st7" d="M223.6,149c-0.1,1.1,0.7,2.1,1.8,2.2c0.1,0,0.3,0,0.4,0c0.6,0,1.2-0.1,1.8-0.3l0.2,0.8
	c-0.7,0.3-1.4,0.4-2.1,0.4c-1.7,0.1-3.1-1.2-3.1-2.8c0-0.1,0-0.3,0-0.4c0-1.9,1.1-3.4,3-3.4c2.1,0,2.6,1.8,2.6,3c0,0.2,0,0.4,0,0.6
	L223.6,149z M227,148.2c0.1-0.9-0.5-1.7-1.4-1.9c-0.1,0-0.1,0-0.2,0c-1,0.1-1.8,0.9-1.8,1.9H227z"/>
<path class="st7" d="M235.1,145.6c0,0.4-0.1,1-0.1,1.8v3.7c0.1,1.1-0.2,2.1-0.9,2.9c-0.7,0.5-1.5,0.8-2.3,0.8
	c-0.7,0-1.5-0.2-2.1-0.5l0.3-0.9c0.6,0.3,1.2,0.5,1.9,0.5c1.2,0,2.1-0.6,2.1-2.2v-0.7l0,0c-0.4,0.7-1.2,1.1-2,1.1
	c-1.6-0.1-2.8-1.4-2.7-3c0,0,0-0.1,0-0.1c0-2.2,1.4-3.4,2.9-3.4c0.8-0.1,1.6,0.4,2,1.1l0,0l0.1-1L235.1,145.6z M233.9,148.1
	c0-0.2,0-0.4-0.1-0.5c-0.2-0.7-0.9-1.2-1.6-1.2c-1.1,0-1.9,0.9-1.9,2.4c0,1.2,0.6,2.3,1.9,2.3c0.7,0,1.4-0.5,1.6-1.2
	c0.1-0.2,0.1-0.4,0.1-0.6V148.1z"/>
<path class="st7" d="M236.9,147.6c0-0.8,0-1.4-0.1-2h1v1.2l0,0c0.2-0.8,1-1.3,1.8-1.4c0.1,0,0.2,0,0.3,0v1.1c-0.1,0-0.3,0-0.4,0
	c-0.8,0-1.5,0.7-1.6,1.5c0,0.2,0,0.4-0.1,0.6v3.4h-1.2L236.9,147.6z"/>
<path class="st7" d="M241.7,149c-0.1,1.1,0.7,2.1,1.8,2.2c0.1,0,0.3,0,0.4,0c0.6,0,1.2-0.1,1.8-0.3l0.2,0.8
	c-0.7,0.3-1.4,0.4-2.1,0.4c-1.7,0.1-3.1-1.2-3.1-2.8c0-0.1,0-0.3,0-0.4c0-1.9,1.1-3.4,3-3.4c2.1,0,2.6,1.8,2.6,3c0,0.2,0,0.4,0,0.6
	L241.7,149z M245.1,148.2c0.1-0.9-0.5-1.7-1.4-1.9c-0.1,0-0.1,0-0.2,0c-1,0.1-1.8,0.9-1.8,1.9H245.1z"/>
<path class="st7" d="M248.3,149c-0.1,1.1,0.7,2.1,1.8,2.2c0.1,0,0.3,0,0.4,0c0.6,0,1.2-0.1,1.8-0.3l0.2,0.8
	c-0.7,0.3-1.4,0.4-2.1,0.4c-1.7,0.1-3.1-1.2-3.1-2.8c0-0.1,0-0.3,0-0.4c0-1.9,1.1-3.4,3-3.4c2.1,0,2.6,1.8,2.6,3c0,0.2,0,0.4,0,0.6
	L248.3,149z M251.7,148.2c0.1-0.9-0.5-1.7-1.4-1.9c-0.1,0-0.1,0-0.2,0c-1,0.1-1.8,0.9-1.8,1.9H251.7z"/>
<path class="st7" d="M214,166.6c0.4,0,0.8-0.2,1.1-0.4c0.3-0.3,0.4-0.8,0.4-2.1v-4.7h1v5.1c0.1,0.8-0.1,1.7-0.7,2.3
	c-0.5,0.4-1.1,0.6-1.7,0.6L214,166.6z M216.6,157.8c0,0.3-0.3,0.6-0.6,0.6c0,0,0,0-0.1,0c-0.3,0-0.6-0.3-0.6-0.6c0,0,0,0,0,0
	c0-0.4,0.2-0.7,0.6-0.7s0.7,0.2,0.7,0.6C216.6,157.7,216.6,157.7,216.6,157.8L216.6,157.8z"/>
<path class="st7" d="M223.2,162.1c0.1,1.5-1,2.8-2.5,3c-0.1,0-0.2,0-0.3,0c-1.5,0-2.7-1.2-2.7-2.6c0-0.1,0-0.2,0-0.2
	c-0.1-1.5,0.9-2.8,2.4-3c0.1,0,0.2,0,0.3,0c1.5,0,2.7,1.1,2.7,2.6C223.3,161.9,223.3,162,223.2,162.1z M218.8,162.2
	c0,1.2,0.7,2.2,1.7,2.2s1.7-0.9,1.7-2.2c0-0.9-0.5-2.1-1.7-2.1S218.8,161.1,218.8,162.2z"/>
<path class="st7" d="M229.2,163.4c0,0.6,0,1.1,0,1.5h-0.9l-0.1-0.9l0,0c-0.4,0.6-1.1,1-1.9,1c-0.9,0-1.9-0.5-1.9-2.4v-3.3h1v3.1
	c0,1.1,0.3,1.8,1.2,1.8c0.6,0,1.1-0.4,1.3-0.9c0.1-0.2,0.1-0.3,0.1-0.5v-3.4h1L229.2,163.4z"/>
<path class="st7" d="M230.9,161.1c0-0.7,0-1.2,0-1.7h0.9v1.1l0,0c0.2-0.7,0.8-1.2,1.6-1.2c0.1,0,0.2,0,0.3,0v0.9c-0.1,0-0.2,0-0.4,0
	c-0.7,0-1.3,0.6-1.4,1.3c0,0.2,0,0.3,0,0.5v3h-1L230.9,161.1z"/>
<path class="st7" d="M234.7,160.9c0-0.6,0-1-0.1-1.5h0.9l0.1,0.9l0,0c0.4-0.7,1.1-1.1,1.9-1.1c0.8,0,2,0.5,2,2.4v3.4h-1v-3.2
	c0-0.9-0.3-1.7-1.3-1.7c-0.6,0-1.2,0.4-1.4,1c0,0.2-0.1,0.3-0.1,0.5v3.4h-1L234.7,160.9z"/>
<path class="st7" d="M244.3,165l-0.1-0.7l0,0c-0.4,0.5-1,0.9-1.7,0.8c-0.9,0.1-1.6-0.6-1.7-1.5c0,0,0-0.1,0-0.1
	c0-1.4,1.2-2.1,3.4-2.1v-0.1c0.1-0.6-0.4-1.2-1-1.3c-0.1,0-0.2,0-0.3,0c-0.5,0-1,0.1-1.5,0.4l-0.2-0.7c0.6-0.3,1.2-0.5,1.9-0.5
	c1.7,0,2.1,1.2,2.1,2.3v2.1c0,0.4,0,0.9,0.1,1.3L244.3,165z M244.1,162.1c-1.1,0-2.4,0.2-2.4,1.3c-0.1,0.5,0.3,0.9,0.8,1
	c0.1,0,0.1,0,0.2,0c0.6,0,1.2-0.4,1.4-0.9c0-0.1,0-0.2,0-0.3L244.1,162.1z"/>
<path class="st7" d="M246.7,156.8h1v8.2h-1V156.8z"/>
<path class="st7" d="M250.6,157.8c0,0.3-0.3,0.6-0.6,0.6c0,0,0,0-0.1,0c-0.3,0-0.6-0.3-0.6-0.6c0,0,0,0,0,0c0-0.3,0.3-0.6,0.6-0.6
	c0,0,0,0,0,0C250.3,157.1,250.6,157.4,250.6,157.8C250.6,157.8,250.6,157.8,250.6,157.8z M249.5,165v-5.6h1v5.6H249.5z"/>
<path class="st7" d="M252,163.9c0.4,0.3,0.9,0.4,1.3,0.4c0.8,0,1.1-0.4,1.1-0.8s-0.3-0.8-1-1c-1-0.4-1.5-0.9-1.5-1.6
	c0-1,0.9-1.7,1.8-1.6c0,0,0.1,0,0.1,0c0.5,0,1,0.1,1.4,0.3l-0.2,0.7c-0.3-0.2-0.7-0.3-1.1-0.3c-0.6,0-0.9,0.4-0.9,0.8s0.3,0.7,1.1,1
	c1,0.4,1.5,0.8,1.5,1.7c0,1-0.8,1.7-2.1,1.7c-0.5,0-1.1-0.1-1.6-0.4L252,163.9z"/>
<path class="st7" d="M256.8,160.9c0-0.6,0-1,0-1.5h0.9l0,0.9l0,0c0.4-0.6,1-1,1.8-1c0.7,0,1.4,0.4,1.6,1.1l0,0
	c0.1-0.3,0.4-0.5,0.6-0.7c0.4-0.3,0.8-0.4,1.2-0.4c0.7,0,1.8,0.5,1.8,2.4v3.3h-1v-3.2c0-1.1-0.4-1.7-1.2-1.7c-0.6,0-1,0.4-1.2,0.9
	c-0.1,0.2-0.1,0.3-0.1,0.5v3.5h-1v-3.4c0-0.9-0.4-1.5-1.2-1.5c-0.6,0-1.1,0.4-1.3,1c-0.1,0.2-0.1,0.3-0.1,0.5v3.4h-1L256.8,160.9z"
	/>
<path class="st7" d="M215.2,176.9c0.4,0.2,0.9,0.4,1.3,0.4c0.8,0,1.1-0.4,1.1-0.8s-0.3-0.8-1-1c-1-0.4-1.5-0.9-1.5-1.6
	c0-1,0.9-1.7,1.8-1.7c0,0,0.1,0,0.1,0c0.5,0,1,0.1,1.4,0.3l-0.2,0.7c-0.3-0.2-0.7-0.3-1.1-0.3c-0.6,0-0.9,0.4-0.9,0.8
	s0.3,0.7,1.1,0.9c1,0.4,1.5,0.9,1.5,1.7c0,1-0.8,1.7-2.1,1.7c-0.5,0-1.1-0.1-1.6-0.4L215.2,176.9z"/>
<path class="st7" d="M224,177.7c-0.5,0.2-1.1,0.3-1.6,0.3c-1.5,0.1-2.7-1.1-2.8-2.5c0-0.1,0-0.2,0-0.3c-0.1-1.6,1.1-2.9,2.7-3
	c0.1,0,0.2,0,0.3,0c0.5,0,1,0.1,1.4,0.3l-0.2,0.8c-0.4-0.2-0.8-0.3-1.2-0.3c-1.1,0-2,0.9-2,2c0,0,0,0.1,0,0.1
	c-0.1,1.1,0.7,2,1.7,2.1c0.1,0,0.1,0,0.2,0c0.4,0,0.9-0.1,1.2-0.3L224,177.7z"/>
<path class="st7" d="M225.1,169.7h1v3.5l0,0c0.2-0.3,0.4-0.5,0.7-0.7c0.3-0.2,0.6-0.3,1-0.3c0.8,0,2,0.5,2,2.4v3.3h-1v-3.2
	c0-0.9-0.3-1.7-1.3-1.7c-0.6,0-1.2,0.4-1.4,1c-0.1,0.2-0.1,0.3-0.1,0.5v3.4h-1L225.1,169.7z"/>
<path class="st7" d="M236.6,175.1c0.1,1.5-1,2.8-2.5,3c-0.1,0-0.2,0-0.3,0c-1.5,0-2.7-1.2-2.7-2.6c0-0.1,0-0.2,0-0.2
	c-0.1-1.5,0.9-2.8,2.4-3c0.1,0,0.2,0,0.3,0c1.5,0,2.7,1.1,2.7,2.6C236.6,174.9,236.6,175,236.6,175.1z M232.2,175.1
	c0,1.2,0.7,2.1,1.7,2.1s1.7-0.9,1.7-2.2c0-0.9-0.5-2.1-1.7-2.1S232.2,174.1,232.2,175.1z"/>
<path class="st7" d="M243,175.1c0.1,1.5-1,2.8-2.5,3c-0.1,0-0.2,0-0.3,0c-1.5,0-2.7-1.2-2.7-2.6c0-0.1,0-0.2,0-0.2
	c-0.1-1.5,0.9-2.8,2.4-3c0.1,0,0.2,0,0.3,0c1.5,0,2.7,1.1,2.7,2.6C243,174.9,243,175,243,175.1z M238.6,175.1c0,1.2,0.7,2.1,1.7,2.1
	s1.7-0.9,1.7-2.2c0-0.9-0.5-2.1-1.7-2.1S238.6,174.1,238.6,175.1L238.6,175.1z"/>
<path class="st7" d="M244.3,169.7h1v8.2h-1V169.7z"/>
<path class="st7" d="M254.5,175.1c0.1,1.5-1,2.9-2.5,3c-0.1,0-0.2,0-0.3,0c-1.5,0-2.7-1.2-2.7-2.6c0-0.1,0-0.2,0-0.3
	c-0.1-1.5,0.9-2.8,2.4-3c0.1,0,0.2,0,0.3,0c1.5,0,2.7,1.1,2.7,2.6C254.5,174.9,254.5,175,254.5,175.1z M250.1,175.1
	c0,1.2,0.7,2.1,1.7,2.1s1.7-0.9,1.7-2.2c0-0.9-0.5-2.1-1.7-2.1S250.1,174.1,250.1,175.1z"/>
<path class="st7" d="M255.9,177.9v-4.8h-0.8v-0.8h0.8v-0.3c-0.1-0.7,0.2-1.5,0.6-2c0.4-0.3,0.9-0.5,1.4-0.5c0.3,0,0.6,0.1,0.9,0.2
	l-0.1,0.8c-0.2-0.1-0.4-0.1-0.7-0.1c-0.9,0-1.1,0.8-1.1,1.6v0.3h1.4v0.8h-1.4v4.8L255.9,177.9z"/>
<path class="st7" d="M220.9,190.6c-0.7,0.3-1.4,0.4-2.1,0.4c-2,0.1-3.7-1.4-3.9-3.4c0-0.2,0-0.4,0-0.6c-0.1-2.1,1.6-3.9,3.7-4
	c0.1,0,0.2,0,0.3,0c0.6,0,1.3,0.1,1.9,0.3l-0.2,0.8c-0.5-0.2-1-0.3-1.6-0.3c-1.6-0.1-3,1.2-3,2.8c0,0.1,0,0.3,0,0.4
	c-0.2,1.5,0.9,2.9,2.5,3.1c0.2,0,0.3,0,0.5,0c0.6,0,1.1-0.1,1.7-0.3L220.9,190.6z"/>
<path class="st7" d="M225.1,190.9l-0.1-0.7l0,0c-0.4,0.5-1,0.8-1.7,0.8c-0.9,0.1-1.6-0.6-1.7-1.5c0,0,0-0.1,0-0.1
	c0-1.4,1.2-2.1,3.4-2.1v-0.1c0.1-0.6-0.4-1.2-1-1.3c-0.1,0-0.2,0-0.3,0c-0.5,0-1,0.1-1.5,0.4l-0.2-0.7c0.6-0.3,1.2-0.5,1.8-0.5
	c1.7,0,2.1,1.2,2.1,2.3v2.1c0,0.4,0,0.9,0.1,1.3H225.1z M225,188c-1.1,0-2.4,0.2-2.4,1.3c-0.1,0.5,0.3,0.9,0.8,1c0.1,0,0.1,0,0.2,0
	c0.6,0,1.2-0.4,1.4-0.9c0-0.1,0-0.2,0-0.3L225,188z"/>
<path class="st7" d="M227.6,186.8c0-0.6,0-1,0-1.5h0.9l0.1,0.9l0,0c0.4-0.6,1.1-1,1.9-1c0.8,0,2,0.5,2,2.4v3.3h-1v-3.2
	c0-0.9-0.3-1.7-1.3-1.7c-0.6,0-1.2,0.4-1.4,1c0,0.2-0.1,0.3-0.1,0.5v3.4h-1L227.6,186.8z"/>
<path class="st7" d="M234,186.8c0-0.6,0-1-0.1-1.5h0.9l0.1,0.9l0,0c0.4-0.6,1.1-1,1.9-1c0.8,0,2,0.5,2,2.4v3.3h-1v-3.2
	c0-0.9-0.4-1.7-1.3-1.7c-0.6,0-1.2,0.4-1.4,1c0,0.2-0.1,0.3-0.1,0.5v3.4h-1L234,186.8z"/>
<path class="st7" d="M241,188.2c-0.1,1,0.6,1.9,1.6,1.9c0.1,0,0.2,0,0.3,0c0.5,0,1.1-0.1,1.6-0.3l0.2,0.7c-0.6,0.2-1.2,0.4-1.9,0.4
	c-1.4,0.1-2.7-1-2.8-2.5c0-0.1,0-0.2,0-0.4c0-1.7,1-3,2.6-3c1.3,0,2.3,1.1,2.3,2.4c0,0.1,0,0.2,0,0.2c0,0.2,0,0.3,0,0.5L241,188.2z
	 M244,187.5c0.1-0.8-0.4-1.5-1.2-1.6c-0.1,0-0.1,0-0.2,0c-0.9,0.1-1.6,0.8-1.6,1.6H244z"/>
<path class="st7" d="M246.1,189.8c0.4,0.2,0.9,0.4,1.4,0.4c0.7,0,1.1-0.4,1.1-0.8s-0.3-0.8-1-1c-1-0.4-1.5-0.9-1.5-1.6
	c0-1,0.9-1.7,1.8-1.7c0,0,0.1,0,0.1,0c0.5,0,1,0.1,1.4,0.3l-0.2,0.7c-0.3-0.2-0.7-0.3-1.1-0.3c-0.6,0-0.9,0.4-0.9,0.8s0.3,0.7,1.1,1
	c1,0.4,1.5,0.9,1.5,1.7c0,1-0.8,1.7-2.1,1.7c-0.6,0-1.1-0.1-1.6-0.4L246.1,189.8z"/>
<path class="st7" d="M220.1,275.1h-3.4v3.2h3.9v1h-5v-8.9h4.8v1h-3.7v2.8h3.4L220.1,275.1z"/>
<path class="st7" d="M221.9,277.9c0.6,0.4,1.3,0.6,2.1,0.6c1.2,0,1.9-0.6,1.9-1.5s-0.5-1.3-1.7-1.8c-1.5-0.5-2.4-1.3-2.4-2.5
	s1.1-2.4,2.9-2.4c0.7,0,1.4,0.1,2,0.4l-0.3,0.9c-0.5-0.3-1.1-0.4-1.7-0.4c-1.2,0-1.7,0.7-1.7,1.3c0,0.8,0.6,1.2,1.8,1.7
	c1.5,0.6,2.3,1.3,2.3,2.6s-1,2.6-3.1,2.6c-0.8,0-1.6-0.2-2.3-0.6L221.9,277.9z"/>
<path class="st7" d="M230.4,270.4h1.2v6c0,2.4-1.2,3.1-2.7,3.1c-0.4,0-0.8-0.1-1.2-0.2l0.2-0.9c0.3,0.1,0.7,0.2,1,0.2
	c1,0,1.6-0.5,1.6-2.2L230.4,270.4z"/>
<path class="st7" d="M236.2,270.4h1.2v7.9h3.8v1h-5L236.2,270.4z"/>
<path class="st7" d="M243.7,271.1c0,0.4-0.3,0.7-0.7,0.7c0,0,0,0-0.1,0c-0.4,0-0.7-0.3-0.7-0.7c0,0,0,0,0,0c0-0.4,0.3-0.7,0.7-0.7
	S243.7,270.7,243.7,271.1L243.7,271.1z M242.4,279.3v-6.4h1.1v6.4H242.4z"/>
<path class="st7" d="M245.5,269.9h1.1v9.4h-1.1V269.9z"/>
<path class="st7" d="M248.6,269.9h1.1v9.4h-1.1V269.9z"/>
<path class="st7" d="M252.4,276.3c-0.1,1.1,0.7,2.1,1.8,2.2c0.1,0,0.3,0,0.4,0c0.6,0,1.2-0.1,1.8-0.3l0.2,0.8
	c-0.7,0.3-1.4,0.4-2.1,0.4c-1.7,0.1-3.1-1.2-3.1-2.8c0-0.1,0-0.2,0-0.4c0-1.9,1.1-3.5,3-3.5c2.1,0,2.6,1.8,2.6,3c0,0.2,0,0.4,0,0.5
	L252.4,276.3z M255.8,275.5c0.1-0.9-0.5-1.7-1.4-1.9c-0.1,0-0.1,0-0.2,0c-1,0.1-1.8,0.9-1.8,1.9H255.8z"/>
<path class="st7" d="M222,289.8c-0.1-1.1-0.1-2.4-0.1-3.4l0,0c-0.3,0.9-0.6,1.9-1,3l-1.4,3.8h-0.8l-1.3-3.7c-0.4-1.1-0.7-2.1-0.9-3
	l0,0c0,1-0.1,2.3-0.1,3.4l-0.2,3.3h-0.9l0.5-7.8h1.2l1.3,3.8c0.3,1,0.6,1.8,0.8,2.6l0,0c0.2-0.8,0.5-1.6,0.8-2.6l1.4-3.8h1.3
	l0.5,7.8h-1L222,289.8z"/>
<path class="st7" d="M229.8,290.3c0.1,1.5-1,2.8-2.5,3c-0.1,0-0.2,0-0.3,0c-1.5,0-2.7-1.2-2.7-2.6c0-0.1,0-0.2,0-0.3
	c-0.1-1.5,1-2.8,2.5-3c0.1,0,0.2,0,0.3,0c1.5,0,2.7,1.1,2.7,2.6C229.8,290.1,229.8,290.2,229.8,290.3z M225.4,290.4
	c0,1.2,0.7,2.1,1.7,2.1s1.7-0.9,1.7-2.2c0-1-0.5-2.1-1.7-2.1S225.4,289.3,225.4,290.4z"/>
<path class="st7" d="M231.1,289.1c0-0.6,0-1,0-1.5h0.9l0.1,0.9l0,0c0.4-0.7,1.1-1.1,1.9-1c0.8,0,2,0.5,2,2.4v3.3h-1V290
	c0-0.9-0.3-1.7-1.3-1.7c-0.6,0-1.2,0.4-1.4,1c0,0.2-0.1,0.3-0.1,0.5v3.4h-1L231.1,289.1z"/>
<path class="st7" d="M238.7,286v1.6h1.5v0.8h-1.5v3c0,0.7,0.2,1.1,0.8,1.1c0.2,0,0.4,0,0.6-0.1v0.8c-0.3,0.1-0.6,0.1-0.9,0.1
	c-0.4,0-0.8-0.1-1.1-0.4c-0.3-0.4-0.4-0.9-0.4-1.5v-3h-0.9v-0.8h0.9v-1.4L238.7,286z"/>
<path class="st7" d="M241.3,289.4c0-0.7,0-1.3-0.1-1.8h0.9l0.1,1l0,0c0.4-0.7,1.2-1.1,2-1.1c1.4,0,2.4,1.1,2.4,2.8c0,2-1.2,3-2.5,3
	c-0.7,0-1.3-0.3-1.7-0.9l0,0v3h-1L241.3,289.4z M242.3,290.9c0,0.1,0,0.3,0,0.4c0.2,0.7,0.8,1.2,1.5,1.2c1.1,0,1.7-0.9,1.7-2.2
	c0-1.1-0.6-2.1-1.7-2.1c-0.7,0-1.4,0.5-1.5,1.3c0,0.1-0.1,0.3-0.1,0.4L242.3,290.9z"/>
<path class="st7" d="M248.5,290.6c-0.1,1,0.6,1.8,1.6,1.9c0.1,0,0.2,0,0.3,0c0.5,0,1.1-0.1,1.6-0.3l0.2,0.7
	c-0.6,0.2-1.2,0.4-1.9,0.4c-1.4,0.1-2.7-1-2.8-2.5c0-0.1,0-0.2,0-0.4c-0.2-1.5,0.9-2.8,2.4-3c0.1,0,0.1,0,0.2,0
	c1.3,0,2.3,1.1,2.3,2.4c0,0.1,0,0.2,0,0.2c0,0.2,0,0.3,0,0.5L248.5,290.6z M251.5,289.8c0.1-0.8-0.4-1.5-1.2-1.6c-0.1,0-0.1,0-0.2,0
	c-0.9,0.1-1.6,0.8-1.6,1.6H251.5z"/>
<path class="st7" d="M253.7,285h1v8.2h-1V285z"/>
<path class="st7" d="M256.4,285h1v8.2h-1V285z"/>
<path class="st7" d="M260.3,286c0,0.3-0.3,0.6-0.6,0.6c0,0,0,0-0.1,0c-0.3,0-0.6-0.2-0.6-0.6c0,0,0,0,0-0.1c0-0.3,0.3-0.6,0.6-0.6
	c0,0,0,0,0,0C260,285.3,260.3,285.6,260.3,286C260.3,286,260.3,286,260.3,286z M259.1,293.2v-5.6h1v5.6H259.1z"/>
<path class="st7" d="M262.4,290.6c-0.1,1,0.6,1.8,1.6,1.9c0.1,0,0.2,0,0.3,0c0.5,0,1.1-0.1,1.5-0.3l0.2,0.7
	c-0.6,0.2-1.2,0.4-1.9,0.4c-1.4,0.1-2.7-1-2.8-2.5c0-0.1,0-0.2,0-0.4c-0.2-1.5,0.9-2.8,2.4-3c0.1,0,0.1,0,0.2,0
	c1.3,0,2.3,1.1,2.3,2.4c0,0.1,0,0.2,0,0.2c0,0.2,0,0.3,0,0.5L262.4,290.6z M265.4,289.8c0.1-0.8-0.5-1.5-1.3-1.6c-0.1,0-0.1,0-0.2,0
	c-0.9,0.1-1.6,0.8-1.6,1.6H265.4z"/>
<path class="st7" d="M267.6,289.3c0-0.7,0-1.2,0-1.7h0.9v1.1l0,0c0.2-0.7,0.8-1.2,1.6-1.2c0.1,0,0.2,0,0.3,0v1c-0.1,0-0.2,0-0.3,0
	c-0.7,0-1.3,0.6-1.4,1.3c0,0.2,0,0.3,0,0.5v3h-1L267.6,289.3z"/>
<path class="st6" d="M209.6,465.7h77.9V532c0,4-8.7,7.2-19.3,7.2h-58.6"/>
<path class="st7" d="M216.7,494l-2-7.8h1.1l0.9,3.9c0.2,1,0.4,1.9,0.6,2.7l0,0c0.1-0.8,0.4-1.7,0.6-2.7l1-3.9h1l1,4
	c0.2,0.9,0.4,1.9,0.5,2.7l0,0c0.1-0.9,0.4-1.7,0.6-2.7l1-3.9h1l-2,7.8h-1l-1-4c-0.2-0.8-0.4-1.7-0.5-2.5l0,0
	c-0.2,0.9-0.4,1.7-0.6,2.5l-1.1,4H216.7z"/>
<path class="st7" d="M225.4,491.4c-0.1,1,0.6,1.8,1.6,1.9c0.1,0,0.2,0,0.3,0c0.5,0,1.1-0.1,1.5-0.3l0.2,0.7
	c-0.6,0.2-1.2,0.4-1.9,0.4c-1.4,0.1-2.7-1-2.8-2.4c0-0.1,0-0.3,0-0.4c0-1.7,1-3,2.6-3c1.3,0,2.3,1.1,2.3,2.4c0,0.1,0,0.2,0,0.2
	c0,0.2,0,0.3,0,0.5L225.4,491.4z M228.4,490.6c0.1-0.8-0.4-1.5-1.2-1.6c-0.1,0-0.1,0-0.2,0c-0.9,0.1-1.6,0.8-1.6,1.6H228.4z"/>
<path class="st7" d="M230.5,494c0-0.4,0-0.9,0-1.4v-6.8h1v3.5l0,0c0.4-0.7,1.1-1.1,1.9-1c1.4,0,2.4,1.2,2.4,2.9c0,2-1.3,3-2.5,3
	c-0.8,0.1-1.5-0.3-1.9-1l0,0l-0.1,0.9L230.5,494z M231.6,491.8c0,0.1,0,0.2,0,0.4c0.2,0.7,0.8,1.2,1.5,1.2c1.1,0,1.7-0.9,1.7-2.1
	c0-1.1-0.6-2.1-1.7-2.1c-0.7,0-1.4,0.5-1.5,1.2c0,0.1-0.1,0.3-0.1,0.4L231.6,491.8z"/>
<path class="st7" d="M220.2,495.7v6.8c0,0.5,0,1.1,0,1.5h-0.9v-1l0,0c-0.4,0.7-1.1,1.1-1.9,1.1c-1.4-0.1-2.5-1.3-2.4-2.7
	c0-0.1,0-0.1,0-0.2c0-1.9,1.1-3,2.5-3c0.7,0,1.3,0.3,1.7,0.8l0,0v-3.3L220.2,495.7z M219.2,500.6c0-0.1,0-0.3,0-0.4
	c-0.2-0.7-0.8-1.2-1.5-1.2c-1.1,0-1.7,0.9-1.7,2.2s0.6,2.1,1.7,2.1c0.7,0,1.3-0.5,1.5-1.2c0-0.1,0-0.3,0-0.4L219.2,500.6z"/>
<path class="st7" d="M222.5,501.3c-0.1,1,0.6,1.9,1.6,1.9c0.1,0,0.2,0,0.3,0c0.5,0,1.1-0.1,1.6-0.3l0.2,0.7
	c-0.6,0.3-1.2,0.4-1.9,0.4c-1.4,0.1-2.7-1-2.8-2.4c0-0.1,0-0.2,0-0.4c0-1.7,1-3,2.6-3c1.3,0,2.3,1.1,2.3,2.4c0,0.1,0,0.2,0,0.2
	c0,0.2,0,0.3,0,0.5L222.5,501.3z M225.5,500.5c0.1-0.8-0.4-1.5-1.2-1.6c-0.1,0-0.1,0-0.2,0c-0.9,0.1-1.6,0.8-1.6,1.6H225.5z"/>
<path class="st7" d="M228.1,498.3l1.1,3.1c0.2,0.5,0.3,1,0.4,1.4l0,0c0.1-0.5,0.3-0.9,0.5-1.4l1.1-3.1h1.1l-2.2,5.6h-1l-2.1-5.6
	H228.1z"/>
<path class="st7" d="M233.7,501.3c-0.1,1,0.6,1.9,1.6,1.9c0.1,0,0.2,0,0.3,0c0.5,0,1.1-0.1,1.6-0.3l0.2,0.7
	c-0.6,0.3-1.2,0.4-1.9,0.4c-1.4,0.1-2.7-1-2.8-2.5c0-0.1,0-0.2,0-0.4c0-1.7,1-3,2.6-3c1.3,0,2.3,1.1,2.3,2.4c0,0.1,0,0.2,0,0.2
	c0,0.2,0,0.3,0,0.5L233.7,501.3z M236.7,500.5c0.1-0.8-0.4-1.5-1.2-1.6c-0.1,0-0.1,0-0.2,0c-0.9,0.1-1.6,0.8-1.6,1.6H236.7z"/>
<path class="st7" d="M238.9,495.7h1v8.2h-1V495.7z"/>
<path class="st7" d="M246.7,501c0.1,1.5-1,2.8-2.5,3c-0.1,0-0.2,0-0.3,0c-1.5,0-2.7-1.2-2.7-2.6c0-0.1,0-0.2,0-0.3
	c-0.1-1.5,0.9-2.8,2.4-3c0.1,0,0.2,0,0.3,0c1.5,0,2.7,1.1,2.7,2.6C246.7,500.8,246.7,500.9,246.7,501z M242.3,501.1
	c0,1.2,0.7,2.1,1.7,2.1s1.7-0.9,1.7-2.2c0-1-0.5-2.1-1.7-2.1S242.3,500,242.3,501.1L242.3,501.1z"/>
<path class="st7" d="M248,500.1c0-0.7,0-1.3,0-1.8h0.9l0.1,1l0,0c0.4-0.7,1.2-1.1,2-1.1c1.4,0,2.4,1.1,2.4,2.8c0,2-1.2,3-2.6,3
	c-0.7,0-1.3-0.3-1.7-0.9l0,0v3h-1L248,500.1z M249,501.6c0,0.1,0,0.3,0,0.4c0.2,0.7,0.8,1.2,1.5,1.2c1.1,0,1.7-0.9,1.7-2.2
	c0-1.1-0.6-2.1-1.7-2.1c-0.7,0-1.4,0.5-1.5,1.3c0,0.1-0.1,0.3-0.1,0.4L249,501.6z"/>
<path class="st7" d="M255.2,501.3c-0.1,1,0.6,1.9,1.6,1.9c0.1,0,0.2,0,0.3,0c0.5,0,1.1-0.1,1.5-0.3l0.2,0.7
	c-0.6,0.2-1.2,0.4-1.8,0.4c-1.4,0.1-2.7-1-2.8-2.5c0-0.1,0-0.2,0-0.4c0-1.7,1-3,2.6-3c1.3,0,2.3,1.1,2.3,2.4c0,0.1,0,0.2,0,0.2
	c0,0.2,0,0.3,0,0.5L255.2,501.3z M258.2,500.5c0.1-0.8-0.4-1.5-1.2-1.6c-0.1,0-0.1,0-0.2,0c-0.9,0.1-1.6,0.8-1.6,1.6H258.2z"/>
<path class="st7" d="M260.4,500c0-0.7,0-1.2,0-1.7h0.9v1.1l0,0c0.2-0.7,0.8-1.2,1.6-1.2c0.1,0,0.2,0,0.3,0v1c-0.1,0-0.2,0-0.4,0
	c-0.7,0-1.3,0.6-1.4,1.3c0,0.2,0,0.3,0,0.5v3h-1L260.4,500z"/>
<path class="st7" d="M220.2,505.6v6.8c0,0.5,0,1,0,1.4h-0.9v-1l0,0c-0.4,0.7-1.1,1.1-1.9,1.1c-1.4-0.1-2.5-1.3-2.4-2.7
	c0,0,0-0.1,0-0.1c0-1.9,1.1-3,2.5-3c0.7,0,1.3,0.3,1.7,0.9l0,0v-3.3L220.2,505.6z M219.2,510.5c0-0.1,0-0.3,0-0.4
	c-0.2-0.7-0.8-1.2-1.5-1.2c-1.1,0-1.7,0.9-1.7,2.1c0,1.2,0.6,2.1,1.7,2.1c0.7,0,1.3-0.5,1.5-1.2c0-0.1,0-0.3,0-0.4L219.2,510.5z"/>
<path class="st7" d="M222.5,511.2c-0.1,1,0.6,1.9,1.6,1.9c0.1,0,0.2,0,0.3,0c0.5,0,1.1-0.1,1.6-0.3l0.2,0.7
	c-0.6,0.2-1.2,0.4-1.9,0.3c-1.4,0.1-2.7-1-2.8-2.4c0-0.1,0-0.2,0-0.4c0-1.7,1-3,2.6-3c1.3,0,2.3,1.1,2.3,2.4c0,0.1,0,0.2,0,0.2
	c0,0.2,0,0.3,0,0.5L222.5,511.2z M225.5,510.4c0.1-0.8-0.4-1.5-1.2-1.6c-0.1,0-0.1,0-0.2,0c-0.9,0.1-1.6,0.8-1.6,1.6H225.5z"/>
<path class="st7" d="M232.5,508.2c0,0.4,0,0.9,0,1.5v3.3c0.1,0.9-0.2,1.9-0.8,2.6c-0.6,0.5-1.3,0.7-2,0.7c-0.7,0-1.3-0.1-1.9-0.5
	l0.1-0.8c0.5,0.3,1.1,0.5,1.6,0.5c1,0,1.8-0.5,1.8-2v-0.6l0,0c-0.4,0.6-1.1,1-1.8,0.9c-1.4-0.1-2.4-1.2-2.4-2.6c0,0,0-0.1,0-0.1
	c-0.2-1.5,0.9-2.8,2.3-3c0.1,0,0.1,0,0.2,0c0.7,0,1.4,0.4,1.8,1l0,0v-0.8L232.5,508.2z M231.5,510.4c0-0.2,0-0.3-0.1-0.5
	c-0.2-0.6-0.8-1.1-1.4-1.1c-1,0-1.7,0.8-1.7,2.1c0,1.1,0.6,2,1.7,2c0.7,0,1.2-0.4,1.4-1c0.1-0.2,0.1-0.4,0.1-0.5L231.5,510.4z"/>
<path class="st7" d="M234.1,509.9c0-0.7,0-1.2-0.1-1.7h0.9v1.1l0,0c0.2-0.7,0.8-1.2,1.6-1.2c0.1,0,0.2,0,0.3,0v1c-0.1,0-0.2,0-0.4,0
	c-0.7,0-1.3,0.6-1.4,1.3c0,0.2,0,0.3,0,0.5v3h-1L234.1,509.9z"/>
<path class="st7" d="M238.3,511.2c-0.1,1,0.6,1.8,1.6,1.9c0.1,0,0.2,0,0.3,0c0.5,0,1.1-0.1,1.6-0.3l0.2,0.7
	c-0.6,0.2-1.2,0.4-1.9,0.3c-1.4,0.1-2.7-1-2.8-2.5c0-0.1,0-0.2,0-0.4c0-1.7,1-3,2.6-3c1.3,0,2.3,1.1,2.3,2.4c0,0.1,0,0.2,0,0.2
	c0,0.2,0,0.3,0,0.5L238.3,511.2z M241.3,510.4c0.1-0.8-0.4-1.5-1.2-1.6c-0.1,0-0.1,0-0.2,0c-0.9,0.1-1.6,0.8-1.6,1.6H241.3z"/>
<path class="st7" d="M244.1,511.2c-0.1,1,0.6,1.9,1.6,1.9c0.1,0,0.2,0,0.3,0c0.5,0,1.1-0.1,1.6-0.3l0.2,0.7
	c-0.6,0.2-1.2,0.4-1.9,0.3c-1.4,0.1-2.7-1-2.8-2.4c0-0.1,0-0.3,0-0.4c0-1.7,1-3,2.6-3c1.3,0,2.3,1.1,2.3,2.4c0,0.1,0,0.2,0,0.2
	c0,0.2,0,0.3,0,0.5L244.1,511.2z M247.1,510.4c0.1-0.8-0.4-1.5-1.2-1.6c-0.1,0-0.1,0-0.2,0c-0.9,0.1-1.6,0.8-1.6,1.6H247.1z"/>
<line class="st4" x1="208.8" y1="833.4" x2="307.8" y2="833.4"/>
<line class="st3" x1="119.3" y1="172.7" x2="141.6" y2="172.7"/>
<line class="st3" x1="119.3" y1="282.1" x2="140.7" y2="282.1"/>
<line class="st3" x1="120.4" y1="528.6" x2="141.8" y2="528.6"/>
<path class="st5" d="M314.5,174.9v-0.6l0.8-0.8c1.9-1.8,2.8-2.8,2.8-3.9c0.1-0.7-0.5-1.4-1.2-1.5c-0.1,0-0.2,0-0.3,0
	c-0.6,0-1.2,0.2-1.6,0.6l-0.3-0.7c0.6-0.5,1.3-0.8,2.1-0.8c1.2-0.1,2.2,0.7,2.3,1.9c0,0.1,0,0.2,0,0.3c0,1.4-1,2.5-2.6,4l-0.6,0.6
	l0,0h3.4v0.9L314.5,174.9z"/>
<path class="st5" d="M325.5,171c0,2.6-1,4-2.6,4c-1.5,0-2.5-1.4-2.5-3.9s1.1-3.9,2.6-3.9S325.5,168.6,325.5,171z M321.4,171.1
	c0,2,0.6,3.1,1.5,3.1s1.5-1.2,1.5-3.1s-0.5-3-1.5-3C322,168,321.4,169.1,321.4,171.1L321.4,171.1z"/>
<path class="st5" d="M328.6,168.3L328.6,168.3l-1.3,0.7l-0.2-0.8l1.6-0.9h0.9v7.5h-1L328.6,168.3z"/>
<path class="st5" d="M334.5,168.3L334.5,168.3l-1.3,0.7l-0.2-0.8l1.6-0.9h0.9v7.5h-1L334.5,168.3z"/>
<path class="st5" d="M314.5,247.8v-0.6l0.8-0.8c1.9-1.8,2.8-2.8,2.8-3.9c0.1-0.7-0.5-1.4-1.2-1.5c-0.1,0-0.2,0-0.3,0
	c-0.6,0-1.2,0.2-1.6,0.6l-0.3-0.7c0.6-0.5,1.3-0.8,2.1-0.8c1.2-0.1,2.2,0.7,2.3,1.9c0,0.1,0,0.2,0,0.3c0,1.4-1,2.5-2.6,4l-0.6,0.6
	l0,0h3.4v0.9L314.5,247.8z"/>
<path class="st5" d="M325.5,244c0,2.6-1,4-2.6,4c-1.5,0-2.5-1.4-2.5-3.9s1.1-3.9,2.6-3.9S325.5,241.6,325.5,244z M321.4,244.1
	c0,2,0.6,3.1,1.5,3.1s1.5-1.2,1.5-3.1s-0.5-3-1.5-3C322,241,321.4,242.1,321.4,244.1L321.4,244.1z"/>
<path class="st5" d="M328.6,241.3L328.6,241.3l-1.3,0.7l-0.2-0.8l1.6-0.9h0.9v7.5h-1L328.6,241.3z"/>
<path class="st5" d="M332.3,247.8v-0.6l0.8-0.8c1.9-1.8,2.8-2.8,2.8-3.9c0.1-0.7-0.5-1.4-1.2-1.5c-0.1,0-0.2,0-0.3,0
	c-0.6,0-1.1,0.2-1.6,0.6l-0.3-0.7c0.6-0.5,1.4-0.8,2.1-0.8c1.2-0.1,2.2,0.7,2.3,1.9c0,0.1,0,0.2,0,0.3c0,1.4-1,2.5-2.6,4l-0.6,0.6
	l0,0h3.4v0.9L332.3,247.8z"/>
<path class="st5" d="M314.5,319.1v-0.6l0.8-0.8c1.9-1.8,2.8-2.8,2.8-3.9c0.1-0.7-0.5-1.4-1.2-1.5c-0.1,0-0.2,0-0.3,0
	c-0.6,0-1.2,0.2-1.6,0.6l-0.3-0.7c0.6-0.5,1.3-0.8,2.1-0.8c1.2-0.1,2.2,0.7,2.3,1.9c0,0.1,0,0.2,0,0.3c0,1.4-1,2.5-2.6,4l-0.6,0.5
	l0,0h3.4v0.9L314.5,319.1z"/>
<path class="st5" d="M325.5,315.3c0,2.5-1,4-2.6,4c-1.5,0-2.5-1.4-2.5-3.9s1.1-3.9,2.6-3.9S325.5,312.9,325.5,315.3z M321.4,315.4
	c0,2,0.6,3.1,1.5,3.1s1.5-1.2,1.5-3.1s-0.5-3.1-1.5-3.1C322,312.3,321.4,313.4,321.4,315.4L321.4,315.4z"/>
<path class="st5" d="M328.6,312.6L328.6,312.6l-1.3,0.7l-0.2-0.8l1.6-0.9h0.9v7.5h-1L328.6,312.6z"/>
<path class="st5" d="M332.6,318c0.5,0.3,1.1,0.5,1.7,0.5c1.3,0,1.7-0.8,1.7-1.5c0-1.1-1-1.5-2-1.5h-0.6v-0.8h0.6
	c0.7,0,1.7-0.4,1.7-1.3c0-0.6-0.4-1.1-1.3-1.1c-0.5,0-1.1,0.2-1.5,0.5l-0.3-0.7c0.6-0.4,1.3-0.6,2-0.6c1.5,0,2.1,0.9,2.1,1.8
	c0,0.8-0.6,1.6-1.4,1.8l0,0c0.9,0.2,1.6,1,1.7,1.9c0,1.2-0.9,2.2-2.7,2.2c-0.7,0-1.4-0.2-2-0.5L332.6,318z"/>
<path class="st5" d="M314.5,392.6V392l0.8-0.8c1.9-1.8,2.8-2.8,2.8-3.9c0.1-0.7-0.5-1.4-1.2-1.5c-0.1,0-0.2,0-0.3,0
	c-0.6,0-1.2,0.2-1.6,0.6l-0.3-0.7c0.6-0.5,1.3-0.8,2.1-0.8c1.2-0.1,2.2,0.7,2.3,1.9c0,0.1,0,0.2,0,0.3c0,1.4-1,2.5-2.6,4l-0.6,0.5
	l0,0h3.4v0.8L314.5,392.6z"/>
<path class="st5" d="M325.5,388.8c0,2.6-1,4-2.6,4c-1.5,0-2.5-1.4-2.5-3.9s1.1-3.9,2.6-3.9S325.5,386.4,325.5,388.8z M321.4,388.9
	c0,2,0.6,3.1,1.5,3.1s1.5-1.2,1.5-3.1s-0.5-3.1-1.5-3.1C322,385.8,321.4,386.9,321.4,388.9L321.4,388.9z"/>
<path class="st5" d="M328.6,386.1L328.6,386.1l-1.3,0.7l-0.2-0.8l1.6-0.9h0.9v7.5h-1L328.6,386.1z"/>
<path class="st5" d="M335.5,392.6v-2H332V390l3.4-4.8h1.1v4.7h1.1v0.8h-1.1v2H335.5z M335.5,389.8v-2.5c0-0.4,0-0.8,0-1.2l0,0
	c-0.2,0.4-0.4,0.8-0.6,1.1l-1.9,2.5l0,0L335.5,389.8z"/>
<path class="st5" d="M314.5,468.2v-0.6l0.8-0.8c1.9-1.8,2.8-2.8,2.8-3.9c0.1-0.7-0.5-1.4-1.2-1.5c-0.1,0-0.2,0-0.3,0
	c-0.6,0-1.2,0.2-1.6,0.6l-0.3-0.7c0.6-0.5,1.3-0.8,2.1-0.8c1.2-0.1,2.2,0.7,2.3,1.9c0,0.1,0,0.2,0,0.3c0,1.4-1,2.5-2.6,4l-0.6,0.6
	l0,0h3.4v0.8L314.5,468.2z"/>
<path class="st5" d="M325.5,464.4c0,2.6-1,4-2.6,4c-1.5,0-2.5-1.4-2.5-3.9s1.1-3.9,2.6-3.9S325.5,462,325.5,464.4z M321.4,464.5
	c0,2,0.6,3.1,1.5,3.1s1.5-1.2,1.5-3.1s-0.5-3.1-1.5-3.1C322,461.4,321.4,462.5,321.4,464.5z"/>
<path class="st5" d="M328.6,461.7L328.6,461.7l-1.3,0.7l-0.2-0.8l1.6-0.9h0.9v7.5h-1L328.6,461.7z"/>
<path class="st5" d="M336.8,461.6H334l-0.3,1.9c0.2,0,0.4,0,0.6,0c0.6,0,1.1,0.1,1.6,0.4c0.7,0.4,1.1,1.1,1.1,1.9
	c0,1.4-1.2,2.6-2.6,2.6c-0.1,0-0.1,0-0.2,0c-0.7,0-1.3-0.1-1.9-0.5l0.3-0.8c0.5,0.3,1,0.4,1.6,0.4c0.9,0.1,1.7-0.6,1.8-1.5
	c0,0,0-0.1,0-0.1c0-1-0.7-1.7-2.2-1.7c-0.3,0-0.7,0-1,0.1l0.5-3.6h3.6L336.8,461.6z"/>
<path class="st5" d="M314.5,540v-0.6l0.8-0.8c1.9-1.8,2.8-2.8,2.8-3.9c0.1-0.7-0.5-1.4-1.2-1.5c-0.1,0-0.2,0-0.3,0
	c-0.6,0-1.2,0.2-1.6,0.6l-0.3-0.7c0.6-0.5,1.3-0.8,2.1-0.8c1.2-0.1,2.2,0.8,2.3,1.9c0,0.1,0,0.2,0,0.3c0,1.4-1,2.5-2.6,4l-0.6,0.5
	l0,0h3.4v0.9H314.5z"/>
<path class="st5" d="M325.5,536.2c0,2.6-1,4-2.6,4c-1.5,0-2.5-1.4-2.5-3.9s1.1-3.9,2.6-3.9S325.5,533.8,325.5,536.2z M321.4,536.3
	c0,2,0.6,3.1,1.5,3.1s1.5-1.2,1.5-3.1s-0.5-3.1-1.5-3.1C322,533.2,321.4,534.3,321.4,536.3z"/>
<path class="st5" d="M328.6,533.5L328.6,533.5l-1.3,0.7l-0.2-0.8l1.6-0.9h0.9v7.5h-1L328.6,533.5z"/>
<path class="st5" d="M336.6,533.2c-0.3,0-0.5,0-0.8,0c-1.4,0.2-2.5,1.3-2.6,2.7l0,0c0.8-1,2.2-1.2,3.2-0.4c0.6,0.5,0.9,1.2,0.9,1.9
	c0.1,1.4-1,2.6-2.4,2.6c0,0-0.1,0-0.1,0c-1.6,0-2.7-1.2-2.7-3.2c0-1.3,0.4-2.5,1.3-3.4c0.7-0.6,1.5-1,2.4-1.1c0.2,0,0.5,0,0.7,0
	L336.6,533.2z M336.3,537.6c0.1-0.8-0.5-1.6-1.3-1.7c-0.1,0-0.2,0-0.2,0c-0.6,0-1.2,0.4-1.5,0.9c-0.1,0.1-0.1,0.3-0.1,0.5
	c0,1.2,0.6,2.2,1.6,2.2C335.8,539.4,336.3,538.7,336.3,537.6z"/>
<path class="st5" d="M314.5,614.7v-0.6l0.8-0.8c1.9-1.8,2.8-2.8,2.8-3.9c0.1-0.7-0.5-1.4-1.2-1.5c-0.1,0-0.2,0-0.3,0
	c-0.6,0-1.2,0.2-1.6,0.6l-0.3-0.7c0.6-0.5,1.3-0.8,2.1-0.8c1.2-0.1,2.2,0.7,2.3,1.9c0,0.1,0,0.2,0,0.3c0,1.4-1,2.5-2.6,4l-0.6,0.6
	l0,0h3.4v0.8L314.5,614.7z"/>
<path class="st5" d="M325.5,610.9c0,2.6-1,4-2.6,4c-1.5,0-2.5-1.4-2.5-3.9s1.1-3.9,2.6-3.9S325.5,608.5,325.5,610.9z M321.4,611
	c0,2,0.6,3.1,1.5,3.1s1.5-1.2,1.5-3.1s-0.5-3.1-1.5-3.1C322,607.8,321.4,608.9,321.4,611L321.4,611z"/>
<path class="st5" d="M328.6,608.1L328.6,608.1l-1.3,0.7l-0.2-0.8l1.6-0.9h0.9v7.5h-1L328.6,608.1z"/>
<path class="st5" d="M337.2,607.2v0.7l-3.2,6.9h-1.1l3.3-6.7l0,0h-3.7v-0.8L337.2,607.2z"/>
<path class="st5" d="M314.5,688v-0.6l0.8-0.8c1.9-1.8,2.8-2.8,2.8-3.9c0.1-0.7-0.5-1.4-1.2-1.5c-0.1,0-0.2,0-0.3,0
	c-0.6,0-1.2,0.2-1.6,0.6l-0.3-0.7c0.6-0.5,1.3-0.8,2.1-0.8c1.2-0.1,2.2,0.7,2.3,1.9c0,0.1,0,0.2,0,0.3c0,1.4-1,2.5-2.6,4l-0.6,0.5
	l0,0h3.4v0.9H314.5z"/>
<path class="st5" d="M325.5,684.1c0,2.6-1,4-2.6,4c-1.5,0-2.5-1.4-2.5-3.9s1.1-3.9,2.6-3.9S325.5,681.7,325.5,684.1z M321.4,684.2
	c0,2,0.6,3.1,1.5,3.1s1.5-1.2,1.5-3.1s-0.5-3.1-1.5-3.1C322,681.1,321.4,682.2,321.4,684.2z"/>
<path class="st5" d="M328.6,681.4L328.6,681.4l-1.3,0.7l-0.2-0.8l1.6-0.9h0.9v7.6h-1L328.6,681.4z"/>
<path class="st5" d="M332.2,686c0-0.9,0.6-1.7,1.5-2l0,0c-0.7-0.3-1.2-0.9-1.2-1.7c0-1.2,1-2.1,2.2-2c0,0,0.1,0,0.1,0
	c1.1-0.1,2,0.6,2.2,1.7c0,0.1,0,0.1,0,0.2c0,0.8-0.5,1.5-1.2,1.8l0,0c0.9,0.3,1.5,1,1.5,1.9c-0.1,1.3-1.1,2.3-2.4,2.2
	c0,0-0.1,0-0.1,0C333.2,688.1,332.2,687.1,332.2,686z M336.3,686c0-0.9-0.6-1.4-1.6-1.7c-0.8,0.1-1.3,0.8-1.4,1.5
	c0,0.8,0.6,1.4,1.3,1.4c0.1,0,0.1,0,0.2,0c0.7,0.1,1.4-0.5,1.5-1.2C336.3,686.1,336.3,686,336.3,686L336.3,686z M333.5,682.2
	c0,0.8,0.6,1.2,1.4,1.4c0.6-0.1,1.1-0.7,1.1-1.4c0.1-0.6-0.4-1.2-1.1-1.3c-0.1,0-0.1,0-0.2,0c-0.7-0.1-1.2,0.4-1.3,1.1
	C333.5,682.1,333.5,682.2,333.5,682.2z"/>
<path class="st5" d="M314.5,761.8v-0.6l0.8-0.8c1.9-1.8,2.8-2.8,2.8-3.9c0.1-0.7-0.5-1.4-1.2-1.5c-0.1,0-0.2,0-0.3,0
	c-0.6,0-1.2,0.2-1.6,0.6l-0.3-0.7c0.6-0.5,1.3-0.8,2.1-0.8c1.2-0.1,2.2,0.7,2.3,1.9c0,0.1,0,0.2,0,0.3c0,1.4-1,2.5-2.6,4L316,761
	l0,0h3.4v0.8L314.5,761.8z"/>
<path class="st5" d="M325.5,758c0,2.6-1,4-2.6,4c-1.5,0-2.5-1.4-2.5-3.9s1.1-3.9,2.6-3.9S325.5,755.6,325.5,758z M321.4,758.1
	c0,2,0.6,3.1,1.5,3.1s1.5-1.2,1.5-3.1s-0.5-3-1.5-3C322,755,321.4,756.1,321.4,758.1L321.4,758.1z"/>
<path class="st5" d="M328.6,755.3L328.6,755.3l-1.3,0.7l-0.2-0.8l1.6-0.9h0.9v7.5h-1L328.6,755.3z"/>
<path class="st5" d="M332.9,761.1c0.3,0,0.5,0,0.8,0c0.6-0.1,1.1-0.3,1.6-0.7c0.6-0.5,0.9-1.2,1-2l0,0c-0.8,1-2.2,1.1-3.2,0.3
	c-0.5-0.4-0.8-1.1-0.8-1.8c0-1.4,1.1-2.6,2.5-2.7c0,0,0.1,0,0.1,0c1.5,0,2.5,1.2,2.5,3.2c0.1,1.3-0.4,2.6-1.3,3.5
	c-0.6,0.6-1.4,0.9-2.2,1c-0.3,0.1-0.6,0.1-0.9,0.1L332.9,761.1z M333.3,756.8c-0.1,0.8,0.5,1.5,1.3,1.6c0.1,0,0.1,0,0.2,0
	c0.6,0,1.2-0.3,1.5-0.8c0.1-0.1,0.1-0.2,0.1-0.4c0-1.3-0.5-2.3-1.5-2.3C333.9,755,333.3,755.8,333.3,756.8z"/>
<path class="st5" d="M314.5,835.9v-0.6l0.8-0.8c1.9-1.8,2.8-2.8,2.8-3.9c0.1-0.7-0.5-1.4-1.2-1.5c-0.1,0-0.2,0-0.3,0
	c-0.6,0-1.2,0.2-1.6,0.6l-0.3-0.7c0.6-0.5,1.3-0.8,2.1-0.8c1.2-0.1,2.2,0.7,2.3,1.9c0,0.1,0,0.2,0,0.3c0,1.4-1,2.5-2.6,4L316,835
	l0,0h3.4v0.8L314.5,835.9z"/>
<path class="st5" d="M325.5,832c0,2.6-1,4-2.6,4c-1.5,0-2.5-1.4-2.5-3.9s1.1-3.9,2.6-3.9S325.5,829.6,325.5,832z M321.4,832.1
	c0,2,0.6,3.1,1.5,3.1s1.5-1.2,1.5-3.1s-0.5-3-1.5-3C322,829,321.4,830.1,321.4,832.1L321.4,832.1z"/>
<path class="st5" d="M326.4,835.9v-0.6l0.8-0.8c1.9-1.8,2.8-2.8,2.8-3.9c0.1-0.7-0.5-1.4-1.2-1.5c-0.1,0-0.2,0-0.3,0
	c-0.6,0-1.2,0.2-1.6,0.6l-0.3-0.7c0.6-0.5,1.4-0.8,2.1-0.8c1.2-0.1,2.2,0.7,2.3,1.9c0,0.1,0,0.2,0,0.3c0,1.4-1,2.5-2.6,4l-0.6,0.5
	l0,0h3.4v0.8L326.4,835.9z"/>
<path class="st5" d="M337.3,832c0,2.6-0.9,4-2.6,4c-1.5,0-2.5-1.4-2.5-3.9s1.1-3.9,2.6-3.9S337.3,829.6,337.3,832z M333.2,832.1
	c0,2,0.6,3.1,1.5,3.1s1.5-1.2,1.5-3.1s-0.5-3.1-1.5-3.1C333.9,829,333.2,830.1,333.2,832.1L333.2,832.1z"/>
<path class="st2" d="M141.4,862.6V829l0,0h67l0,0v45l0,0h-61.4C144,874,141.4,868.9,141.4,862.6
	C141.4,862.6,141.4,862.6,141.4,862.6z"/>
<g>
	<path class="st2" d="M49.5,830.7h4.7v0.9h-3.6v2.9h3.3v0.9h-3.3v4h-1.1V830.7z"/>
	<path class="st2" d="M55.8,830.8c0.6-0.1,1.4-0.2,2.2-0.2c1.2,0,2,0.2,2.5,0.7c0.4,0.4,0.7,1,0.7,1.7c0,1.2-0.7,1.9-1.7,2.2v0
		c0.7,0.2,1.1,0.9,1.3,1.8c0.3,1.2,0.5,2.1,0.7,2.4h-1.2c-0.1-0.3-0.3-1-0.6-2.1c-0.3-1.2-0.7-1.7-1.8-1.7h-1.1v3.8h-1.1V830.8z
		 M56.9,834.8h1.2c1.2,0,2-0.7,2-1.7c0-1.1-0.8-1.6-2-1.6c-0.5,0-0.9,0.1-1.1,0.1V834.8z"/>
	<path class="st2" d="M67.3,835.4H64v3.2h3.8v0.9h-4.9v-8.8h4.7v0.9H64v2.8h3.4V835.4z"/>
	<path class="st2" d="M73.7,835.4h-3.4v3.2h3.8v0.9h-4.9v-8.8h4.7v0.9h-3.6v2.8h3.4V835.4z"/>
	<path class="st2" d="M75.6,830.7h1.1v7.8h3.7v1h-4.9V830.7z"/>
	<path class="st2" d="M83.2,836.7l-0.9,2.8h-1.2l3-8.8h1.4l3,8.8h-1.2l-0.9-2.8H83.2z M86.1,835.8l-0.9-2.5
		c-0.2-0.6-0.3-1.1-0.5-1.6h0c-0.1,0.5-0.3,1-0.4,1.6l-0.9,2.5H86.1z"/>
	<path class="st2" d="M89.7,839.5v-8.8H91l2.8,4.4c0.6,1,1.1,1.9,1.6,2.9l0,0c-0.1-1.2-0.1-2.2-0.1-3.6v-3.7h1.1v8.8h-1.1l-2.8-4.4
		c-0.6-1-1.2-2-1.6-2.9l0,0c0.1,1.1,0.1,2.2,0.1,3.6v3.7H89.7z"/>
	<path class="st2" d="M104.4,839.2c-0.4,0.2-1.2,0.4-2.3,0.4c-2.5,0-4.3-1.6-4.3-4.4c0-2.8,1.9-4.6,4.6-4.6c1.1,0,1.8,0.2,2.1,0.4
		l-0.3,0.9c-0.4-0.2-1-0.4-1.8-0.4c-2.1,0-3.4,1.3-3.4,3.6c0,2.1,1.2,3.5,3.4,3.5c0.7,0,1.4-0.1,1.9-0.4L104.4,839.2z"/>
	<path class="st2" d="M110.4,835.4H107v3.2h3.8v0.9h-4.9v-8.8h4.7v0.9H107v2.8h3.4V835.4z"/>
	<path class="st2" d="M42.7,845.9v7.6c0,0.6,0,1.2,0.1,1.6h-1l-0.1-1.1h0c-0.3,0.7-1.1,1.2-2.1,1.2c-1.5,0-2.7-1.3-2.7-3.2
		c0-2.1,1.3-3.4,2.8-3.4c1,0,1.6,0.5,1.9,1h0v-3.8H42.7z M41.5,851.4c0-0.1,0-0.3,0-0.5c-0.2-0.7-0.8-1.3-1.7-1.3
		c-1.2,0-1.9,1-1.9,2.4c0,1.3,0.6,2.3,1.9,2.3c0.8,0,1.5-0.5,1.7-1.4c0-0.2,0.1-0.3,0.1-0.5V851.4z"/>
	<path class="st2" d="M48.1,855.1l-0.1-0.8h0c-0.3,0.5-1,0.9-1.9,0.9c-1.3,0-1.9-0.9-1.9-1.8c0-1.5,1.3-2.4,3.8-2.3v-0.1
		c0-0.5-0.1-1.5-1.4-1.5c-0.6,0-1.2,0.2-1.6,0.5l-0.3-0.8c0.5-0.3,1.3-0.6,2.1-0.6c1.9,0,2.4,1.3,2.4,2.6v2.4c0,0.5,0,1.1,0.1,1.5
		H48.1z M47.9,851.9c-1.2,0-2.7,0.2-2.7,1.4c0,0.8,0.5,1.1,1.1,1.1c0.8,0,1.3-0.5,1.5-1.1c0-0.1,0.1-0.3,0.1-0.4V851.9z"/>
	<path class="st2" d="M52.2,847v1.8h1.6v0.9h-1.6v3.4c0,0.8,0.2,1.2,0.9,1.2c0.3,0,0.5,0,0.7-0.1l0.1,0.9c-0.2,0.1-0.6,0.2-1,0.2
		c-0.5,0-1-0.2-1.2-0.5c-0.3-0.3-0.4-0.9-0.4-1.6v-3.4h-1v-0.9h1v-1.5L52.2,847z"/>
	<path class="st2" d="M58.6,855.1l-0.1-0.8h0c-0.3,0.5-1,0.9-1.9,0.9c-1.3,0-1.9-0.9-1.9-1.8c0-1.5,1.3-2.4,3.8-2.3v-0.1
		c0-0.5-0.1-1.5-1.4-1.5c-0.6,0-1.2,0.2-1.6,0.5l-0.3-0.8c0.5-0.3,1.3-0.6,2.1-0.6c1.9,0,2.4,1.3,2.4,2.6v2.4c0,0.5,0,1.1,0.1,1.5
		H58.6z M58.4,851.9c-1.2,0-2.7,0.2-2.7,1.4c0,0.8,0.5,1.1,1.1,1.1c0.8,0,1.3-0.5,1.5-1.1c0-0.1,0.1-0.3,0.1-0.4V851.9z"/>
	<path class="st2" d="M59.8,856.9c0.5,0,1-0.2,1.2-0.5c0.3-0.4,0.4-0.9,0.4-2.4v-5.3h1.1v5.7c0,1.2-0.2,2-0.8,2.6
		c-0.5,0.5-1.3,0.7-2,0.7L59.8,856.9z M62.8,847c0,0.4-0.3,0.7-0.7,0.7c-0.4,0-0.7-0.3-0.7-0.7c0-0.4,0.3-0.7,0.7-0.7
		C62.5,846.3,62.8,846.6,62.8,847z"/>
	<path class="st2" d="M70.2,851.9c0,2.3-1.6,3.3-3.1,3.3c-1.7,0-3-1.2-3-3.2c0-2.1,1.4-3.3,3.1-3.3C69,848.7,70.2,850,70.2,851.9z
		 M65.2,852c0,1.4,0.8,2.4,1.9,2.4c1.1,0,1.9-1,1.9-2.5c0-1.1-0.5-2.4-1.9-2.4C65.8,849.5,65.2,850.8,65.2,852z"/>
	<path class="st2" d="M76.9,853.4c0,0.7,0,1.2,0.1,1.7h-1l-0.1-1h0c-0.3,0.5-1,1.2-2.1,1.2c-1,0-2.2-0.6-2.2-2.8v-3.7h1.1v3.5
		c0,1.2,0.4,2,1.4,2c0.8,0,1.3-0.5,1.5-1c0.1-0.2,0.1-0.4,0.1-0.6v-3.9h1.1V853.4z"/>
	<path class="st2" d="M78.8,850.8c0-0.7,0-1.4-0.1-2h1l0,1.2h0c0.3-0.8,1-1.4,1.8-1.4c0.1,0,0.2,0,0.3,0v1.1c-0.1,0-0.2,0-0.4,0
		c-0.8,0-1.4,0.6-1.5,1.5c0,0.2,0,0.3,0,0.5v3.4h-1.1V850.8z"/>
	<path class="st2" d="M83.1,850.5c0-0.7,0-1.2-0.1-1.7h1l0.1,1h0c0.3-0.6,1-1.2,2.1-1.2c0.9,0,2.2,0.5,2.2,2.7v3.8h-1.1v-3.6
		c0-1-0.4-1.9-1.5-1.9c-0.8,0-1.3,0.5-1.5,1.2c0,0.1-0.1,0.3-0.1,0.5v3.8h-1.1V850.5z"/>
	<path class="st2" d="M93.8,855.1l-0.1-0.8h0c-0.3,0.5-1,0.9-1.9,0.9c-1.3,0-1.9-0.9-1.9-1.8c0-1.5,1.3-2.4,3.8-2.3v-0.1
		c0-0.5-0.1-1.5-1.4-1.5c-0.6,0-1.2,0.2-1.6,0.5l-0.3-0.8c0.5-0.3,1.3-0.6,2.1-0.6c1.9,0,2.4,1.3,2.4,2.6v2.4c0,0.5,0,1.1,0.1,1.5
		H93.8z M93.7,851.9c-1.2,0-2.7,0.2-2.7,1.4c0,0.8,0.5,1.1,1.1,1.1c0.8,0,1.3-0.5,1.5-1.1c0-0.1,0.1-0.3,0.1-0.4V851.9z"/>
	<path class="st2" d="M96.6,845.9h1.1v9.2h-1.1V845.9z"/>
	<path class="st2" d="M101,847c0,0.4-0.3,0.7-0.7,0.7c-0.4,0-0.7-0.3-0.7-0.7c0-0.4,0.3-0.7,0.7-0.7C100.7,846.3,101,846.6,101,847z
		 M99.7,855.1v-6.3h1.1v6.3H99.7z"/>
	<path class="st2" d="M102.6,853.9c0.3,0.2,0.9,0.4,1.5,0.4c0.8,0,1.2-0.4,1.2-0.9c0-0.5-0.3-0.8-1.2-1.2c-1.1-0.4-1.7-1-1.7-1.8
		c0-1,0.8-1.8,2.2-1.8c0.6,0,1.2,0.2,1.5,0.4l-0.3,0.8c-0.2-0.2-0.7-0.4-1.3-0.4c-0.7,0-1,0.4-1,0.9c0,0.5,0.4,0.8,1.2,1.1
		c1.1,0.4,1.6,1,1.6,1.9c0,1.1-0.9,1.9-2.4,1.9c-0.7,0-1.3-0.2-1.8-0.4L102.6,853.9z"/>
	<path class="st2" d="M109.2,847v1.8h1.6v0.9h-1.6v3.4c0,0.8,0.2,1.2,0.9,1.2c0.3,0,0.5,0,0.7-0.1l0.1,0.9c-0.2,0.1-0.6,0.2-1,0.2
		c-0.5,0-1-0.2-1.2-0.5c-0.3-0.3-0.4-0.9-0.4-1.6v-3.4h-1v-0.9h1v-1.5L109.2,847z"/>
	<path class="st2" d="M62.7,861.5v7.6c0,0.6,0,1.2,0.1,1.6h-1l-0.1-1.1h0c-0.3,0.7-1.1,1.2-2.1,1.2c-1.5,0-2.7-1.3-2.7-3.2
		c0-2.1,1.3-3.4,2.8-3.4c1,0,1.6,0.5,1.9,1h0v-3.8H62.7z M61.6,867c0-0.1,0-0.3,0-0.5c-0.2-0.7-0.8-1.3-1.7-1.3
		c-1.2,0-1.9,1-1.9,2.4c0,1.3,0.6,2.3,1.9,2.3c0.8,0,1.5-0.5,1.7-1.4c0-0.2,0.1-0.3,0.1-0.5V867z"/>
	<path class="st2" d="M65.3,867.7c0,1.5,1,2.2,2.2,2.2c0.8,0,1.3-0.1,1.7-0.3l0.2,0.8c-0.4,0.2-1.1,0.4-2.1,0.4
		c-1.9,0-3.1-1.3-3.1-3.2c0-1.9,1.1-3.4,3-3.4c2.1,0,2.6,1.8,2.6,3c0,0.2,0,0.4,0,0.5H65.3z M68.6,866.9c0-0.7-0.3-1.9-1.6-1.9
		c-1.2,0-1.7,1.1-1.8,1.9H68.6z"/>
	<path class="st2" d="M71.6,864.4l1.2,3.5c0.2,0.6,0.4,1.1,0.5,1.6h0c0.1-0.5,0.3-1,0.5-1.6l1.2-3.5h1.2l-2.5,6.3h-1.1l-2.4-6.3
		H71.6z"/>
	<path class="st2" d="M77.9,867.7c0,1.5,1,2.2,2.2,2.2c0.8,0,1.3-0.1,1.7-0.3l0.2,0.8c-0.4,0.2-1.1,0.4-2.1,0.4
		c-1.9,0-3.1-1.3-3.1-3.2c0-1.9,1.1-3.4,3-3.4c2.1,0,2.6,1.8,2.6,3c0,0.2,0,0.4,0,0.5H77.9z M81.3,866.9c0-0.7-0.3-1.9-1.6-1.9
		c-1.2,0-1.7,1.1-1.8,1.9H81.3z"/>
	<path class="st2" d="M83.8,861.5h1.1v9.2h-1.1V861.5z"/>
	<path class="st2" d="M92.6,867.5c0,2.3-1.6,3.3-3.1,3.3c-1.7,0-3-1.2-3-3.2c0-2.1,1.4-3.3,3.1-3.3
		C91.3,864.3,92.6,865.6,92.6,867.5z M87.6,867.5c0,1.4,0.8,2.4,1.9,2.4c1.1,0,1.9-1,1.9-2.5c0-1.1-0.5-2.4-1.9-2.4
		C88.2,865.1,87.6,866.4,87.6,867.5z"/>
	<path class="st2" d="M94,866.4c0-0.8,0-1.5-0.1-2h1l0.1,1.1h0c0.5-0.8,1.2-1.2,2.2-1.2c1.5,0,2.7,1.3,2.7,3.2
		c0,2.3-1.4,3.4-2.9,3.4c-0.8,0-1.6-0.4-1.9-1h0v3.4H94V866.4z M95.1,868.1c0,0.2,0,0.3,0,0.5c0.2,0.8,0.9,1.3,1.7,1.3
		c1.2,0,1.9-1,1.9-2.4c0-1.3-0.7-2.3-1.9-2.3c-0.8,0-1.5,0.6-1.7,1.4c0,0.1-0.1,0.3-0.1,0.5V868.1z"/>
	<path class="st2" d="M102.1,867.7c0,1.5,1,2.2,2.2,2.2c0.8,0,1.3-0.1,1.7-0.3l0.2,0.8c-0.4,0.2-1.1,0.4-2.1,0.4
		c-1.9,0-3.1-1.3-3.1-3.2c0-1.9,1.1-3.4,3-3.4c2.1,0,2.6,1.8,2.6,3c0,0.2,0,0.4,0,0.5H102.1z M105.4,866.9c0-0.7-0.3-1.9-1.6-1.9
		c-1.2,0-1.7,1.1-1.8,1.9H105.4z"/>
	<path class="st2" d="M107.9,866.4c0-0.7,0-1.4-0.1-2h1l0,1.2h0c0.3-0.8,1-1.4,1.8-1.4c0.1,0,0.2,0,0.3,0v1.1c-0.1,0-0.2,0-0.4,0
		c-0.8,0-1.4,0.6-1.5,1.5c0,0.2,0,0.3,0,0.5v3.4h-1.1V866.4z"/>
</g>
<line class="st3" x1="120.1" y1="836" x2="141.5" y2="836"/>
</svg>
