<?xml version="1.0" encoding="utf-8"?>
<!-- Generator: Adobe Illustrator 23.1.0, SVG Export Plug-In . SVG Version: 6.00 Build 0)  -->
<svg version="1.1" id="Calque_1" xmlns="http://www.w3.org/2000/svg" xmlns:xlink="http://www.w3.org/1999/xlink" x="0px" y="0px"
	 viewBox="0 0 1017.7 380.2" style="enable-background:new 0 0 1017.7 380.2;" xml:space="preserve">
<style type="text/css">
	.st0{fill:none;stroke:#488AA4;stroke-miterlimit:10;}
	.st1{fill:none;stroke:#EC6E6B;stroke-miterlimit:10;}
	.st2{fill:#488AA4;}
	.st3{opacity:0.35;fill:none;stroke:#325982;stroke-miterlimit:10;enable-background:new    ;}
	.st4{opacity:0.2;fill:none;stroke:#4789A4;stroke-miterlimit:10;enable-background:new    ;}
	.st5{fill:#4789A4;}
	.st6{fill:none;stroke:#E85522;stroke-miterlimit:10;}
	.st7{fill:#E85522;}
</style>
<title>timeline</title>
<circle class="st0" cx="31.6" cy="133.4" r="30.4"/>
<circle class="st1" cx="31.6" cy="133.4" r="14.3"/>
<path class="st2" d="M1.9,247.4h5.5v1.1H3.2v3.4h3.9v1.1H3.2v4.6H1.9V247.4z"/>
<path class="st2" d="M9.3,247.5c0.8-0.2,1.7-0.2,2.6-0.2c1.1-0.1,2.1,0.2,3,0.8c0.6,0.5,0.8,1.2,0.8,2c0,1.2-0.8,2.3-1.9,2.6l0,0
	c0.8,0.4,1.4,1.2,1.5,2.1c0.2,1,0.4,1.9,0.8,2.8h-1.4c-0.3-0.8-0.5-1.6-0.7-2.5c-0.3-1.4-0.9-1.9-2.1-2h-1.2v4.4H9.3V247.5z
	 M10.6,252.2H12c1.4,0,2.3-0.8,2.3-1.9c0-1.3-1-1.9-2.4-1.9c-0.4,0-0.9,0-1.3,0.1L10.6,252.2z"/>
<path class="st2" d="M19.2,254.4l-1.1,3.2h-1.4l3.5-10.3h1.6l3.5,10.3H24l-1.1-3.2H19.2z M22.6,253.4l-1-2.9
	c-0.2-0.7-0.4-1.3-0.5-1.9l0,0c-0.1,0.6-0.3,1.2-0.5,1.9l-1,3L22.6,253.4z"/>
<path class="st2" d="M26.9,257.6v-10.3h1.5l3.3,5.2c0.7,1.1,1.3,2.2,1.8,3.3l0,0c-0.1-1.4-0.2-2.6-0.2-4.2v-4.3h1.3v10.3h-1.3
	l-3.3-5.2c-0.7-1.1-1.4-2.3-1.9-3.4l0,0c0.1,1.3,0.1,2.5,0.1,4.2v4.4L26.9,257.6z"/>
<path class="st2" d="M44.1,257.3c-0.9,0.4-1.8,0.5-2.7,0.5c-2.6,0.2-4.9-1.9-5.1-4.5c0-0.2,0-0.5,0-0.7c-0.2-2.8,2-5.2,4.8-5.4
	c0.2,0,0.4,0,0.6,0c0.8,0,1.7,0.1,2.4,0.4l-0.3,1.1c-0.6-0.3-1.4-0.4-2.1-0.4c-2.4,0-4,1.6-4,4.2c0,2.5,1.5,4.1,3.9,4.1
	c0.7,0,1.5-0.1,2.2-0.4L44.1,257.3z"/>
<path class="st2" d="M51.1,252.8h-4v3.7h4.5v1.1h-5.8v-10.3h5.5v1.1h-4.2v3.2h4L51.1,252.8z"/>
<path class="st2" d="M56.5,247.5c0.8-0.2,1.6-0.2,2.4-0.2c1-0.1,2,0.2,2.8,0.7c0.6,0.4,0.9,1.1,0.9,1.8c0,1-0.7,2-1.7,2.2l0,0
	c1.3,0.2,2.2,1.3,2.1,2.6c0,0.8-0.3,1.5-0.9,2c-1,0.8-2.3,1.1-3.5,1c-0.7,0-1.4,0-2.1-0.1L56.5,247.5z M57.8,251.7H59
	c1.4,0,2.2-0.7,2.2-1.7c0-1.2-0.9-1.7-2.2-1.7c-0.4,0-0.8,0-1.2,0.1L57.8,251.7z M57.8,256.6c0.4,0.1,0.7,0.1,1.1,0.1
	c1.4,0,2.7-0.5,2.7-2s-1.2-2-2.7-2h-1.1L57.8,256.6z"/>
<path class="st2" d="M64.8,247.4h1.3v9.1h4.4v1.1h-5.7V247.4z"/>
<path class="st2" d="M77.3,252.8h-4v3.7h4.5v1.1H72v-10.3h5.5v1.1h-4.2v3.2h4L77.3,252.8z"/>
<path class="st2" d="M80.8,247.4v6.1c0,2.3,1,3.3,2.4,3.3s2.5-1,2.5-3.3v-6.1H87v6c0,3.2-1.7,4.4-3.9,4.4s-3.7-1.2-3.7-4.4v-6.1
	L80.8,247.4z"/>
<path class="st2" d="M92.6,247.5c0.8-0.2,1.6-0.2,2.4-0.2c1-0.1,2,0.2,2.8,0.7c0.6,0.4,0.9,1.1,0.9,1.8c0,1-0.7,2-1.7,2.2l0,0
	c1.2,0.3,2.1,1.4,2.1,2.6c0,0.8-0.3,1.5-0.9,2c-1,0.8-2.3,1.1-3.5,1c-0.7,0-1.4,0-2.1-0.1L92.6,247.5z M93.9,251.7h1.2
	c1.4,0,2.2-0.7,2.2-1.7c0-1.2-0.9-1.7-2.2-1.7c-0.4,0-0.8,0-1.2,0.1V251.7z M93.9,256.6c0.4,0.1,0.7,0.1,1.1,0.1
	c1.4,0,2.7-0.5,2.7-2s-1.2-2-2.7-2h-1.1V256.6z"/>
<path class="st2" d="M109.6,252.4c0,3.5-2.2,5.4-4.8,5.4s-4.6-2.1-4.6-5.2s2-5.4,4.8-5.4S109.6,249.4,109.6,252.4z M101.6,252.6
	c0,2.2,1.2,4.2,3.3,4.2s3.3-1.9,3.3-4.3c0-2.1-1.1-4.2-3.3-4.2S101.6,250.3,101.6,252.6L101.6,252.6z"/>
<path class="st2" d="M112.6,247.4v6.1c0,2.3,1,3.3,2.4,3.3s2.5-1,2.5-3.3v-6.1h1.3v6c0,3.2-1.7,4.4-3.9,4.4s-3.7-1.2-3.7-4.4v-6.1
	L112.6,247.4z"/>
<path class="st2" d="M121.2,247.5c0.8-0.2,1.7-0.2,2.6-0.2c1.1-0.1,2.1,0.2,3,0.8c0.6,0.5,0.8,1.2,0.8,2c0,1.2-0.8,2.3-1.9,2.6l0,0
	c0.8,0.4,1.4,1.2,1.5,2.1c0.2,1,0.5,1.9,0.8,2.8h-1.4c-0.3-0.8-0.5-1.6-0.7-2.5c-0.3-1.4-0.9-1.9-2.1-2h-1.2v4.4h-1.3V247.5z
	 M122.5,252.2h1.3c1.4,0,2.3-0.8,2.3-1.9c0-1.3-1-1.9-2.4-1.9c-0.4,0-0.9,0-1.3,0.1V252.2z"/>
<path class="st2" d="M137.3,257.2c-1,0.4-2.1,0.6-3.2,0.6c-2.6,0.3-5-1.7-5.3-4.3c0-0.3,0-0.6,0-0.9c0-3.1,2.1-5.3,5.6-5.3
	c0.9,0,1.8,0.1,2.6,0.5l-0.3,1.1c-0.7-0.3-1.5-0.5-2.3-0.4c-2.1-0.2-4,1.4-4.1,3.5c0,0.2,0,0.4,0,0.6c0,2.6,1.6,4.2,4,4.2
	c0.6,0,1.2-0.1,1.8-0.3v-3.1h-2.1v-1.1h3.4L137.3,257.2z"/>
<path class="st2" d="M148.1,252.4c0,3.5-2.1,5.4-4.8,5.4s-4.6-2.1-4.6-5.2s2-5.4,4.8-5.4S148.1,249.4,148.1,252.4z M140.1,252.6
	c0,2.2,1.2,4.2,3.3,4.2s3.3-1.9,3.3-4.3c0-2.1-1.1-4.2-3.3-4.2S140.1,250.3,140.1,252.6L140.1,252.6z"/>
<path class="st2" d="M157.6,257.2c-1,0.4-2.1,0.6-3.2,0.6c-2.6,0.3-5-1.7-5.3-4.3c0-0.3,0-0.6,0-0.9c0-3.1,2.1-5.3,5.6-5.3
	c0.9,0,1.8,0.1,2.6,0.5l-0.3,1.1c-0.7-0.3-1.5-0.5-2.3-0.4c-2.1-0.2-4,1.4-4.1,3.5c0,0.2,0,0.4,0,0.6c0,2.6,1.6,4.2,4,4.2
	c0.6,0,1.2-0.1,1.8-0.3v-3.1h-2.1v-1.1h3.4L157.6,257.2z"/>
<path class="st2" d="M159.6,257.6v-10.3h1.5l3.3,5.2c0.7,1.1,1.3,2.2,1.8,3.3l0,0c-0.1-1.4-0.1-2.6-0.1-4.2v-4.3h1.2v10.3H166
	l-3.3-5.2c-0.7-1.1-1.3-2.3-1.9-3.4h-0.1c0.1,1.3,0.1,2.5,0.1,4.2v4.4L159.6,257.6z"/>
<path class="st2" d="M175,252.8h-4v3.7h4.4v1.1h-5.8v-10.3h5.6v1.1H171v3.2h4V252.8z"/>
<path class="st2" d="M0,278.1c0.5,0,1.1-0.2,1.5-0.6c0.4-0.4,0.5-1,0.5-2.8v-6.2h1.3v6.7c0.1,1.1-0.2,2.2-0.9,3
	c-0.6,0.5-1.5,0.8-2.3,0.8L0,278.1z M3.5,266.5c0,0.4-0.3,0.8-0.8,0.8c0,0-0.1,0-0.1,0c-0.4,0-0.8-0.3-0.8-0.8c0,0,0,0,0,0
	c0-0.4,0.3-0.8,0.8-0.8c0,0,0,0,0.1,0C3.1,265.6,3.5,266,3.5,266.5C3.5,266.4,3.5,266.5,3.5,266.5z"/>
<path class="st2" d="M12.2,272.2c0.2,2-1.3,3.7-3.3,3.9c-0.1,0-0.3,0-0.4,0c-1.9,0-3.5-1.5-3.5-3.5c0-0.1,0-0.2,0-0.3
	c-0.2-2,1.3-3.7,3.3-3.9c0.1,0,0.3,0,0.4,0c1.9,0,3.5,1.5,3.5,3.4C12.2,271.9,12.2,272.1,12.2,272.2z M6.3,272.3
	c0,1.6,0.9,2.8,2.2,2.8s2.2-1.2,2.2-2.9c0-1.2-0.6-2.8-2.2-2.8S6.3,270.9,6.3,272.3z"/>
<path class="st2" d="M20,273.9c0,0.8,0,1.4,0.1,2h-1.2l-0.1-1.2l0,0c-0.5,0.9-1.4,1.4-2.4,1.4c-1.1,0-2.5-0.6-2.5-3.2v-4.3h1.3v4.1
	c0,1.4,0.4,2.4,1.7,2.4c0.8,0,1.5-0.5,1.8-1.2c0.1-0.2,0.1-0.5,0.1-0.7v-4.5h1.3L20,273.9z"/>
<path class="st2" d="M22.3,270.9c0-0.9,0-1.6-0.1-2.3h1.2l0,1.5l0,0c0.3-0.9,1.1-1.6,2.1-1.6c0.1,0,0.2,0,0.4,0v1.3
	c-0.2,0-0.3,0-0.5,0c-0.9,0-1.7,0.8-1.8,1.7c0,0.2-0.1,0.4-0.1,0.6v4h-1.3V270.9z"/>
<path class="st2" d="M27.3,270.6c0-0.8,0-1.4-0.1-2h1.2l0.1,1.2l0,0c0.5-0.9,1.5-1.4,2.5-1.4c1,0,2.6,0.6,2.6,3.1v4.4h-1.3v-4.3
	c0-1.2-0.5-2.2-1.7-2.2c-0.8,0-1.6,0.6-1.8,1.4c-0.1,0.2-0.1,0.4-0.1,0.6v4.5h-1.3V270.6z"/>
<path class="st2" d="M39.9,276l-0.1-0.9l0,0c-0.5,0.7-1.4,1.1-2.2,1.1c-1.2,0.1-2.2-0.7-2.3-1.9c0-0.1,0-0.2,0-0.3
	c0-1.8,1.6-2.8,4.4-2.8v-0.1c0.1-0.8-0.5-1.6-1.3-1.7c-0.1,0-0.2,0-0.3,0c-0.7,0-1.3,0.2-1.9,0.5l-0.3-0.9c0.7-0.4,1.6-0.7,2.4-0.6
	c2.3,0,2.8,1.5,2.8,3v2.8c0,0.6,0,1.2,0.1,1.8L39.9,276z M39.7,272.2c-1.5,0-3.1,0.2-3.1,1.7c-0.1,0.6,0.4,1.2,1.1,1.3
	c0.1,0,0.1,0,0.2,0c0.8,0,1.5-0.5,1.8-1.2c0-0.1,0.1-0.3,0.1-0.4V272.2z"/>
<path class="st2" d="M43.1,265.1h1.3V276h-1.3V265.1z"/>
<path class="st2" d="M48.2,266.5c0,0.4-0.3,0.8-0.8,0.8c0,0,0,0-0.1,0c-0.4,0-0.8-0.3-0.8-0.8c0,0,0,0,0-0.1c0-0.5,0.4-0.8,0.8-0.8
	C47.9,265.7,48.2,266,48.2,266.5z M46.7,276v-7.4h1.3v7.4H46.7z"/>
<path class="st2" d="M50.1,274.6c0.5,0.3,1.1,0.5,1.8,0.5c1,0,1.4-0.5,1.4-1.1s-0.4-1-1.4-1.4c-1.3-0.5-2-1.2-2-2.1
	c0.1-1.3,1.1-2.2,2.4-2.2c0.1,0,0.1,0,0.2,0c0.6,0,1.3,0.1,1.8,0.5l-0.3,1c-0.5-0.3-1-0.4-1.5-0.4c-0.8,0-1.2,0.5-1.2,1
	s0.4,0.9,1.4,1.3c1.3,0.5,1.9,1.1,1.9,2.2c0,1.3-1,2.2-2.8,2.2c-0.7,0-1.4-0.2-2.1-0.5L50.1,274.6z"/>
<path class="st2" d="M58,266.5v2.1h1.9v1H58v4c0,0.9,0.3,1.4,1,1.4c0.3,0,0.5,0,0.8-0.1l0.1,1c-0.4,0.1-0.8,0.2-1.2,0.2
	c-0.5,0-1.1-0.2-1.5-0.6c-0.4-0.6-0.6-1.2-0.5-1.9v-4h-1.2v-1h1.1v-1.8L58,266.5z"/>
<path class="st2" d="M62,272.5c-0.1,1.3,0.8,2.4,2.1,2.6c0.1,0,0.3,0,0.4,0c0.7,0,1.4-0.1,2-0.4l0.2,1c-0.8,0.3-1.6,0.5-2.5,0.5
	c-1.9,0.1-3.5-1.3-3.6-3.2c0-0.2,0-0.3,0-0.5c0-2.2,1.3-4,3.5-4c2.4,0,3,2.1,3,3.5c0,0.2,0,0.4,0,0.6L62,272.5z M66,271.5
	c0.2-1-0.6-2-1.6-2.1c-0.1,0-0.2,0-0.3,0c-1.1,0.1-2,1-2,2.2H66z"/>
<path class="st2" d="M171.3,211.4h-12.5l0,0v-77.3l0,0h18.1l0,0v71.7C176.9,208.9,174.4,211.4,171.3,211.4
	C171.3,211.4,171.3,211.4,171.3,211.4L171.3,211.4z"/>
<line class="st3" x1="165.4" y1="237.2" x2="165.4" y2="211.4"/>
<line id="timelinebar" class="st0" x1="61.5" y1="133.8" x2="1017.7" y2="133.8"/>
<line class="st4" x1="200" y1="79" x2="200" y2="19.5"/>
<line class="st4" x1="284.8" y1="80" x2="284.8" y2="19.5"/>
<line class="st4" x1="367.2" y1="91.3" x2="367.2" y2="19.5"/>
<line class="st4" x1="538.1" y1="77.8" x2="538.1" y2="19.5"/>
<line class="st4" x1="623" y1="85.8" x2="623" y2="19.5"/>
<line class="st4" x1="707.8" y1="133.8" x2="707.8" y2="19.5"/>
<line class="st4" x1="792.6" y1="133.8" x2="792.6" y2="19.5"/>
<line class="st4" x1="877.4" y1="133.8" x2="877.4" y2="19.5"/>
<line class="st4" x1="116.5" y1="84.2" x2="116.5" y2="19.5"/>
<path class="st5" d="M99.8,11.2v-0.7l0.9-0.9c2.2-2.1,3.2-3.2,3.2-4.5c0.1-0.9-0.5-1.6-1.4-1.7c-0.1,0-0.2,0-0.3,0
	c-0.7,0-1.3,0.3-1.8,0.7L100,3.2c0.7-0.6,1.6-0.9,2.5-0.9c1.3-0.1,2.5,0.9,2.7,2.2c0,0.1,0,0.2,0,0.3c0,1.6-1.2,2.9-3,4.7l-0.7,0.6
	l0,0h3.9v1H99.8z"/>
<path class="st5" d="M112.4,6.7c0,2.9-1.1,4.6-3,4.6c-1.7,0-2.8-1.6-2.9-4.5s1.2-4.5,3-4.5S112.4,4,112.4,6.7z M107.7,6.9
	c0,2.3,0.7,3.5,1.8,3.5c1.2,0,1.8-1.4,1.8-3.6s-0.6-3.5-1.8-3.5C108.4,3.2,107.7,4.5,107.7,6.9z"/>
<path class="st5" d="M116,3.6L116,3.6l-1.5,0.8l-0.2-0.9l1.9-1h1v8.7H116V3.6z"/>
<path class="st5" d="M126.1,6.7c0,2.9-1.1,4.6-3,4.6c-1.7,0-2.8-1.6-2.9-4.5s1.3-4.5,3-4.5S126.1,4,126.1,6.7z M121.4,6.9
	c0,2.3,0.7,3.5,1.8,3.5s1.8-1.4,1.8-3.6s-0.5-3.5-1.8-3.5C122.1,3.2,121.4,4.5,121.4,6.9z"/>
<path class="st5" d="M185.3,11.2v-0.7l0.9-0.9c2.2-2.1,3.2-3.2,3.2-4.5c0.1-0.9-0.5-1.6-1.4-1.7c-0.1,0-0.2,0-0.3,0
	c-0.7,0-1.3,0.3-1.8,0.7l-0.4-0.8c0.7-0.6,1.6-0.9,2.5-0.9c1.3-0.1,2.5,0.9,2.7,2.2c0,0.1,0,0.2,0,0.3c0,1.6-1.2,2.9-3,4.7l-0.7,0.6
	l0,0h3.9v1L185.3,11.2z"/>
<path class="st5" d="M197.9,6.7c0,2.9-1.1,4.6-3,4.6c-1.7,0-2.9-1.6-2.9-4.5s1.2-4.5,3-4.5S197.9,4,197.9,6.7z M193.2,6.9
	c0,2.3,0.7,3.5,1.8,3.5c1.2,0,1.8-1.4,1.8-3.6s-0.6-3.5-1.8-3.5C193.9,3.2,193.2,4.5,193.2,6.9z"/>
<path class="st5" d="M201.5,3.6L201.5,3.6L200,4.4l-0.2-0.9l1.9-1h1v8.7h-1.2V3.6z"/>
<path class="st5" d="M208.4,3.6L208.4,3.6l-1.5,0.8l-0.2-0.9l1.9-1h1v8.7h-1.1L208.4,3.6z"/>
<path class="st5" d="M270.1,11.2v-0.7l0.9-0.9c2.2-2.1,3.2-3.2,3.2-4.5c0.1-0.9-0.5-1.6-1.4-1.7c-0.1,0-0.2,0-0.3,0
	c-0.7,0-1.3,0.3-1.8,0.7l-0.4-0.8c0.7-0.6,1.6-0.9,2.5-0.9c1.3-0.1,2.5,0.9,2.7,2.2c0,0.1,0,0.2,0,0.3c0,1.6-1.2,2.9-3,4.7l-0.7,0.6
	l0,0h3.9v1L270.1,11.2z"/>
<path class="st5" d="M282.7,6.7c0,2.9-1.1,4.6-3,4.6c-1.7,0-2.9-1.6-2.9-4.5s1.2-4.5,3-4.5S282.7,4,282.7,6.7z M278,6.9
	c0,2.3,0.7,3.5,1.8,3.5s1.8-1.4,1.8-3.6s-0.5-3.5-1.8-3.5C278.8,3.2,278,4.5,278,6.9z"/>
<path class="st5" d="M286.4,3.6L286.4,3.6l-1.5,0.8l-0.2-0.9l1.9-1h1v8.7h-1.1L286.4,3.6z"/>
<path class="st5" d="M290.7,11.2v-0.7l0.9-0.9c2.2-2.1,3.2-3.2,3.2-4.5c0.1-0.9-0.5-1.6-1.4-1.7c-0.1,0-0.2,0-0.3,0
	c-0.7,0-1.3,0.3-1.8,0.7l-0.4-0.8c0.7-0.6,1.6-0.9,2.5-0.9c1.3-0.1,2.5,0.9,2.7,2.2c0,0.1,0,0.2,0,0.3c0,1.6-1.2,2.9-3,4.7l-0.7,0.6
	l0,0h3.9v1H290.7z"/>
<path class="st5" d="M353.5,11.2v-0.7l0.9-0.9c2.2-2.1,3.2-3.2,3.2-4.5c0.1-0.9-0.5-1.6-1.4-1.7c-0.1,0-0.2,0-0.3,0
	c-0.7,0-1.3,0.3-1.8,0.7l-0.4-0.8c0.7-0.6,1.6-0.9,2.5-0.9c1.3-0.1,2.5,0.9,2.7,2.2c0,0.1,0,0.2,0,0.3c0,1.6-1.2,2.9-3,4.7l-0.7,0.6
	l0,0h3.9v1L353.5,11.2z"/>
<path class="st5" d="M366.1,6.7c0,2.9-1.1,4.6-3,4.6c-1.7,0-2.8-1.6-2.9-4.5s1.3-4.5,3-4.5S366.1,4,366.1,6.7z M361.4,6.9
	c0,2.3,0.7,3.5,1.8,3.5s1.8-1.4,1.8-3.6s-0.5-3.5-1.8-3.5C362.1,3.2,361.4,4.5,361.4,6.9L361.4,6.9z"/>
<path class="st5" d="M369.7,3.6L369.7,3.6l-1.5,0.8L368,3.5l1.9-1h1v8.7h-1.2V3.6z"/>
<path class="st5" d="M374.3,9.8c0.6,0.4,1.2,0.5,1.9,0.6c1.5,0,2-1,2-1.7c0-1.2-1.1-1.7-2.2-1.7h-0.7V6.1h0.7c0.9,0,1.9-0.4,1.9-1.5
	c0-0.7-0.4-1.3-1.5-1.3c-0.6,0-1.2,0.2-1.7,0.6L374.3,3c0.7-0.4,1.5-0.7,2.3-0.7c1.7,0,2.5,1,2.5,2.1c0,0.9-0.7,1.8-1.6,2l0,0
	c1.1,0.2,1.9,1.1,1.9,2.2c0,1.4-1.1,2.6-3.2,2.6c-0.8,0-1.6-0.2-2.2-0.6L374.3,9.8z"/>
<path class="st5" d="M439.8,11.2v-0.7l0.9-0.9c2.2-2.1,3.2-3.2,3.2-4.5c0.1-0.9-0.5-1.6-1.4-1.7c-0.1,0-0.2,0-0.3,0
	c-0.7,0-1.3,0.3-1.8,0.7L440,3.2c0.7-0.6,1.6-0.9,2.5-0.9c1.3-0.1,2.5,0.9,2.7,2.2c0,0.1,0,0.2,0,0.3c0,1.6-1.2,2.9-3,4.7l-0.7,0.6
	l0,0h3.9v1H439.8z"/>
<path class="st5" d="M452.4,6.7c0,2.9-1.1,4.6-3,4.6c-1.7,0-2.8-1.6-2.9-4.5s1.3-4.5,3-4.5S452.4,4,452.4,6.7z M447.7,6.9
	c0,2.3,0.7,3.5,1.8,3.5s1.8-1.4,1.8-3.6s-0.5-3.5-1.8-3.5C448.4,3.2,447.7,4.5,447.7,6.9z"/>
<path class="st5" d="M456,3.6L456,3.6l-1.5,0.8l-0.2-0.9l1.9-1h1v8.7H456V3.6z"/>
<path class="st5" d="M463.9,11.2V8.8h-4V8l3.9-5.5h1.3v5.4h1.2v0.9h-1.2v2.4L463.9,11.2z M463.9,7.9V5c0-0.4,0-0.9,0-1.4l0,0
	c-0.3,0.5-0.5,0.9-0.7,1.3l-2.1,3l0,0L463.9,7.9z"/>
<path class="st5" d="M525.4,11.2v-0.7l0.9-0.9c2.2-2.1,3.2-3.2,3.2-4.5c0.1-0.9-0.5-1.6-1.4-1.7c-0.1,0-0.2,0-0.3,0
	c-0.7,0-1.3,0.3-1.8,0.7l-0.4-0.8c0.7-0.6,1.6-0.9,2.5-0.9c1.3-0.1,2.5,0.9,2.7,2.2c0,0.1,0,0.2,0,0.3c0,1.6-1.2,2.9-3,4.7l-0.7,0.6
	l0,0h3.9v1L525.4,11.2z"/>
<path class="st5" d="M538,6.7c0,2.9-1.1,4.6-3,4.6c-1.7,0-2.8-1.6-2.9-4.5s1.3-4.5,3-4.5S538,4,538,6.7z M533.3,6.9
	c0,2.3,0.7,3.5,1.8,3.5s1.8-1.4,1.8-3.6s-0.5-3.5-1.8-3.5C534,3.2,533.3,4.5,533.3,6.9L533.3,6.9z"/>
<path class="st5" d="M541.6,3.6L541.6,3.6l-1.5,0.8l-0.2-0.9l1.9-1h1v8.7h-1.1L541.6,3.6z"/>
<path class="st5" d="M551.1,3.5h-3.3l-0.3,2.2c0.2,0,0.5,0,0.7,0c0.7,0,1.3,0.1,1.9,0.5c0.8,0.5,1.3,1.3,1.2,2.2c0,1.7-1.3,3-3,3
	c-0.1,0-0.2,0-0.2,0c-0.8,0-1.5-0.2-2.2-0.5l0.3-0.9c0.6,0.3,1.2,0.5,1.9,0.5c1.1,0.1,2-0.7,2-1.8c0,0,0-0.1,0-0.1
	c0-1.1-0.8-1.9-2.5-1.9c-0.4,0-0.8,0-1.2,0.1l0.6-4.2h4.2L551.1,3.5z"/>
<path class="st5" d="M608,11.2v-0.7l0.9-0.9c2.2-2.1,3.2-3.2,3.2-4.5c0.1-0.9-0.5-1.6-1.4-1.7c-0.1,0-0.2,0-0.3,0
	c-0.7,0-1.3,0.3-1.8,0.7l-0.4-0.8c0.7-0.6,1.6-0.9,2.5-0.9c1.3-0.1,2.5,0.9,2.6,2.2c0,0.1,0,0.2,0,0.3c0,1.6-1.2,2.9-3,4.7l-0.7,0.6
	l0,0h3.9v1L608,11.2z"/>
<path class="st5" d="M620.6,6.7c0,2.9-1.1,4.6-3,4.6c-1.7,0-2.8-1.6-2.9-4.5s1.3-4.5,3-4.5S620.6,4,620.6,6.7z M615.9,6.9
	c0,2.3,0.7,3.5,1.8,3.5s1.8-1.4,1.8-3.6s-0.5-3.5-1.8-3.5C616.6,3.2,615.9,4.5,615.9,6.9L615.9,6.9z"/>
<path class="st5" d="M624.2,3.6L624.2,3.6l-1.5,0.8l-0.2-0.9l1.9-1h1v8.7h-1.1L624.2,3.6z"/>
<path class="st5" d="M633.5,3.3c-0.3,0-0.6,0-0.9,0.1c-1.6,0.2-2.8,1.5-3,3.1l0,0c0.9-1.1,2.6-1.3,3.7-0.4c0.7,0.5,1.1,1.4,1,2.2
	c0.1,1.6-1.1,3-2.7,3.1c0,0-0.1,0-0.1,0c-1.8,0-3.1-1.4-3.1-3.7c-0.1-1.4,0.5-2.9,1.5-3.9c0.8-0.7,1.7-1.2,2.8-1.3
	c0.3,0,0.6-0.1,0.8-0.1L633.5,3.3z M633.1,8.3c0.1-1-0.6-1.9-1.5-2c-0.1,0-0.2,0-0.3,0c-0.7,0-1.4,0.4-1.7,1.1
	c-0.1,0.2-0.1,0.3-0.1,0.5c0,1.4,0.7,2.5,1.9,2.5C632.5,10.4,633.2,9.6,633.1,8.3L633.1,8.3z"/>
<path class="st5" d="M692.8,11.2v-0.7l0.9-0.9c2.2-2.1,3.2-3.2,3.3-4.6c0.1-0.9-0.5-1.6-1.4-1.7c-0.1,0-0.2,0-0.3,0
	c-0.7,0-1.3,0.3-1.8,0.7L693,3.2c0.7-0.6,1.6-0.9,2.5-0.9c1.3-0.1,2.5,0.9,2.7,2.2c0,0.1,0,0.2,0,0.3c0,1.6-1.2,2.9-3,4.7l-0.7,0.6
	l0,0h3.9v1H692.8z"/>
<path class="st5" d="M705.4,6.7c0,2.9-1.1,4.6-3,4.6c-1.7,0-2.8-1.6-2.9-4.5s1.3-4.5,3-4.5S705.4,4,705.4,6.7z M700.7,6.9
	c0,2.3,0.7,3.5,1.8,3.5s1.8-1.4,1.8-3.6s-0.5-3.5-1.8-3.5C701.5,3.2,700.7,4.5,700.7,6.9L700.7,6.9z"/>
<path class="st5" d="M709,3.6L709,3.6l-1.5,0.8l-0.2-0.9l1.9-1h1v8.7h-1.1L709,3.6z"/>
<path class="st5" d="M719,2.5v0.8l-3.8,7.9H714l3.8-7.7l0,0h-4.2v-1L719,2.5z"/>
<path class="st5" d="M779,11.2v-0.7l0.9-0.9c2.2-2.1,3.2-3.2,3.2-4.5c0.1-0.9-0.5-1.6-1.4-1.7c-0.1,0-0.2,0-0.3,0
	c-0.7,0-1.3,0.3-1.8,0.7l-0.4-0.8c0.7-0.6,1.6-0.9,2.5-0.9c1.3-0.1,2.5,0.9,2.6,2.2c0,0.1,0,0.2,0,0.3c0,1.6-1.2,2.9-3,4.7l-0.7,0.6
	l0,0h3.9v1L779,11.2z"/>
<path class="st5" d="M791.6,6.7c0,2.9-1.1,4.6-3,4.6c-1.7,0-2.8-1.6-2.9-4.5s1.3-4.5,3-4.5S791.6,4,791.6,6.7z M786.9,6.9
	c0,2.3,0.7,3.5,1.8,3.5s1.8-1.4,1.8-3.6s-0.5-3.5-1.8-3.5C787.6,3.2,786.9,4.5,786.9,6.9z"/>
<path class="st5" d="M795.2,3.6L795.2,3.6l-1.5,0.8l-0.2-0.9l1.9-1h1v8.7h-1.1L795.2,3.6z"/>
<path class="st5" d="M799.4,9c0-1.1,0.7-2,1.7-2.3l0,0c-0.8-0.3-1.4-1.1-1.4-1.9c0.1-1.3,1.2-2.4,2.5-2.3c0.1,0,0.1,0,0.2,0
	c1.2-0.2,2.3,0.7,2.5,1.9c0,0.1,0,0.1,0,0.2c0,0.9-0.6,1.7-1.4,2l0,0c1,0.3,1.7,1.2,1.8,2.2c-0.1,1.5-1.3,2.6-2.8,2.5
	c-0.1,0-0.1,0-0.2,0C800.5,11.3,799.4,10.2,799.4,9z M804.1,8.9c0-1.1-0.7-1.6-1.9-1.9c-0.9,0.2-1.5,0.9-1.6,1.8
	c0,0.9,0.7,1.6,1.5,1.7c0.1,0,0.1,0,0.2,0c0.9,0.1,1.6-0.5,1.7-1.4C804.1,9,804.1,9,804.1,8.9L804.1,8.9z M800.8,4.6
	c0,0.9,0.7,1.3,1.7,1.6c0.7-0.2,1.3-0.8,1.3-1.6c0-0.7-0.5-1.4-1.3-1.4c-0.1,0-0.1,0-0.2,0c-0.8-0.1-1.4,0.5-1.5,1.2
	C800.8,4.5,800.8,4.5,800.8,4.6L800.8,4.6z"/>
<path class="st5" d="M862.4,11.2v-0.7l0.9-0.9c2.2-2.1,3.2-3.2,3.2-4.5c0.1-0.9-0.5-1.6-1.4-1.7c-0.1,0-0.2,0-0.3,0
	c-0.7,0-1.3,0.3-1.8,0.7l-0.4-0.8c0.7-0.6,1.6-0.9,2.5-0.9c1.3-0.1,2.5,0.9,2.7,2.2c0,0.1,0,0.2,0,0.3c0,1.6-1.2,2.9-3,4.7l-0.7,0.6
	l0,0h3.9v1L862.4,11.2z"/>
<path class="st5" d="M875,6.7c0,2.9-1.1,4.6-3,4.6c-1.7,0-2.8-1.6-2.9-4.5s1.2-4.5,3-4.5S875,4,875,6.7z M870.3,6.9
	c0,2.3,0.7,3.5,1.8,3.5s1.8-1.4,1.8-3.6s-0.5-3.5-1.8-3.5C871.1,3.2,870.3,4.5,870.3,6.9L870.3,6.9z"/>
<path class="st5" d="M878.7,3.6L878.7,3.6l-1.5,0.8l-0.2-0.9l1.9-1h1v8.7h-1.1L878.7,3.6z"/>
<path class="st5" d="M883.7,10.3c0.3,0,0.7,0,1,0c0.7-0.1,1.3-0.4,1.8-0.8c0.6-0.6,1.1-1.4,1.2-2.3l0,0c-0.9,1.1-2.6,1.3-3.7,0.3
	c-0.6-0.5-1-1.3-0.9-2.1c0-1.7,1.3-3,2.9-3.1c0,0,0.1,0,0.1,0c1.8,0,2.9,1.4,2.9,3.7c0.1,1.5-0.5,3-1.5,4.1
	c-0.7,0.7-1.6,1.1-2.5,1.2c-0.4,0.1-0.7,0.1-1.1,0.1L883.7,10.3z M884.1,5.3c-0.1,0.9,0.6,1.7,1.5,1.8c0.1,0,0.1,0,0.2,0
	c0.7,0,1.3-0.3,1.7-0.9c0.1-0.1,0.1-0.3,0.1-0.4c0-1.5-0.5-2.6-1.8-2.6C884.8,3.2,884.1,4.1,884.1,5.3L884.1,5.3z"/>
<path class="st5" d="M947.7,11.2v-0.7l0.9-0.9c2.2-2.1,3.2-3.2,3.2-4.5c0.1-0.9-0.5-1.6-1.4-1.7c-0.1,0-0.2,0-0.3,0
	c-0.7,0-1.3,0.3-1.8,0.7L948,3.2c0.7-0.6,1.6-0.9,2.5-0.9c1.3-0.1,2.5,0.9,2.7,2.2c0,0.1,0,0.2,0,0.3c0,1.6-1.2,2.9-3,4.7l-0.7,0.6
	l0,0h3.9v1H947.7z"/>
<path class="st5" d="M960.3,6.7c0,2.9-1.1,4.6-3,4.6c-1.7,0-2.8-1.6-2.9-4.5s1.2-4.5,3-4.5S960.3,4,960.3,6.7z M955.6,6.9
	c0,2.3,0.7,3.5,1.8,3.5s1.8-1.4,1.8-3.6s-0.5-3.5-1.8-3.5C956.4,3.2,955.6,4.5,955.6,6.9z"/>
<path class="st5" d="M961.4,11.2v-0.7l0.9-0.9c2.2-2.1,3.2-3.2,3.2-4.5c0.1-0.9-0.5-1.6-1.4-1.7c-0.1,0-0.2,0-0.3,0
	c-0.7,0-1.3,0.3-1.8,0.7l-0.4-0.8c0.7-0.6,1.6-0.9,2.5-0.9c1.3-0.1,2.5,0.9,2.6,2.2c0,0.1,0,0.2,0,0.3c0,1.6-1.2,2.9-3,4.7l-0.7,0.6
	l0,0h3.9v1L961.4,11.2z"/>
<path class="st5" d="M974,6.7c0,2.9-1.1,4.6-3,4.6c-1.7,0-2.8-1.6-2.9-4.5s1.3-4.5,3-4.5S974,4,974,6.7z M969.3,6.9
	c0,2.3,0.7,3.5,1.8,3.5s1.8-1.4,1.8-3.6s-0.5-3.5-1.8-3.5C970.1,3.2,969.3,4.5,969.3,6.9L969.3,6.9z"/>
<path class="st6" d="M116.5,132.8V79h135.2c8.1,0,14.6,6,14.6,13.3v40.5"/>
<line class="st3" x1="181.6" y1="238.2" x2="1.7" y2="237.2"/>
<path class="st2" d="M207.2,211.4h-20l0,0v-77.3l0,0h25.6l0,0v71.7C212.9,208.9,210.3,211.4,207.2,211.4
	C207.2,211.4,207.2,211.4,207.2,211.4z"/>
<path class="st2" d="M260.7,211.4h-20l0,0v-77.3l0,0h25.6l0,0v71.7C266.3,208.9,263.8,211.4,260.7,211.4
	C260.7,211.4,260.7,211.4,260.7,211.4z"/>
<line class="st3" x1="198.1" y1="315.6" x2="198.1" y2="213.2"/>
<line class="st3" x1="266.3" y1="316.2" x2="154.4" y2="316.2"/>
<path class="st2" d="M153.4,326.9h1.3v9.1h4.4v1.1h-5.7V326.9z"/>
<path class="st2" d="M166,332.3h-4v3.7h4.5v1.1h-5.8v-10.2h5.6v1.1H162v3.2h4V332.3z"/>
<path class="st2" d="M171.4,327c0.8-0.2,1.6-0.2,2.4-0.2c1-0.1,2,0.2,2.8,0.8c0.6,0.4,0.9,1.1,0.9,1.8c0,1-0.7,2-1.7,2.2l0,0
	c1.2,0.2,2.1,1.3,2.1,2.6c0,0.8-0.3,1.5-0.9,2c-1,0.8-2.3,1.1-3.6,1c-0.7,0-1.4,0-2.1-0.1L171.4,327z M172.7,331.2h1.2
	c1.4,0,2.2-0.7,2.2-1.7c0-1.2-0.9-1.7-2.2-1.7c-0.4,0-0.8,0-1.2,0.1L172.7,331.2z M172.7,336.1c0.4,0.1,0.7,0.1,1.1,0.1
	c1.4,0,2.6-0.5,2.6-2s-1.2-2-2.7-2h-1.1L172.7,336.1z"/>
<path class="st2" d="M181,326.9v10.3h-1.3v-10.3H181z"/>
<path class="st2" d="M188.6,332.3h-4v3.7h4.4v1.1h-5.8v-10.2h5.6v1.1h-4.2v3.2h4V332.3z"/>
<path class="st2" d="M190.8,337.1v-10.3h1.5l3.3,5.2c0.7,1.1,1.3,2.2,1.8,3.3l0,0c-0.1-1.4-0.1-2.6-0.1-4.2v-4.3h1.2v10.3h-1.4
	l-3.3-5.2c-0.7-1.1-1.3-2.3-1.8-3.5l0,0c0.1,1.3,0.1,2.5,0.1,4.2v4.4L190.8,337.1z"/>
<path class="st2" d="M204,327c0.8-0.1,1.7-0.2,2.6-0.2c1-0.1,2.1,0.2,2.9,0.9c0.6,0.5,0.9,1.3,0.9,2.1c0,0.8-0.2,1.6-0.8,2.2
	c-0.9,0.8-2,1.2-3.1,1.1c-0.4,0-0.7,0-1.1-0.1v4.1H204V327z M205.3,332c0.4,0.1,0.7,0.1,1.1,0.1c1.6,0,2.6-0.8,2.6-2.2s-1-2-2.4-2
	c-0.4,0-0.8,0-1.3,0.1L205.3,332z"/>
<path class="st2" d="M213.5,326.9v6.1c0,2.3,1,3.3,2.4,3.3s2.5-1,2.5-3.3v-6.1h1.3v6c0,3.2-1.7,4.5-3.9,4.5s-3.7-1.2-3.7-4.4v-6.1
	L213.5,326.9z"/>
<path class="st2" d="M222,327c0.8-0.2,1.6-0.2,2.4-0.2c1-0.1,2,0.2,2.8,0.8c0.6,0.4,0.9,1.1,0.9,1.8c0,1-0.7,2-1.7,2.2l0,0
	c1.2,0.2,2.1,1.3,2.1,2.6c0,0.8-0.3,1.5-0.9,2c-1,0.8-2.3,1.1-3.6,1c-0.7,0-1.4,0-2.1-0.1L222,327z M223.3,331.2h1.2
	c1.4,0,2.2-0.7,2.2-1.7c0-1.2-0.9-1.7-2.2-1.7c-0.4,0-0.8,0-1.2,0.1L223.3,331.2z M223.3,336.1c0.4,0.1,0.7,0.1,1.1,0.1
	c1.4,0,2.6-0.5,2.6-2s-1.2-2-2.7-2h-1.1L223.3,336.1z"/>
<path class="st2" d="M230.3,326.9h1.3v9.1h4.4v1.1h-5.7V326.9z"/>
<path class="st2" d="M238.8,326.9v10.3h-1.3v-10.3H238.8z"/>
<path class="st2" d="M248.3,336.8c-0.9,0.4-1.8,0.5-2.7,0.5c-2.9,0-5.1-1.8-5.1-5.2c-0.2-2.8,2-5.2,4.8-5.4c0.2,0,0.4,0,0.6,0
	c0.8,0,1.7,0.1,2.4,0.5l-0.3,1.1c-0.6-0.3-1.4-0.4-2.1-0.4c-2.4,0-4,1.5-4,4.2c0,2.5,1.4,4.1,3.9,4.1c0.7,0,1.5-0.1,2.2-0.4
	L248.3,336.8z"/>
<path class="st2" d="M151.6,357.6c0.5,0,1.1-0.2,1.5-0.6c0.4-0.4,0.5-1,0.5-2.8v-6.2h1.3v6.7c0.1,1.1-0.2,2.2-0.9,3
	c-0.6,0.5-1.5,0.8-2.3,0.8L151.6,357.6z M155.1,346c0,0.5-0.4,0.8-0.8,0.8s-0.8-0.4-0.8-0.8c0-0.5,0.3-0.8,0.8-0.8c0,0,0,0,0,0
	C154.7,345.1,155,345.5,155.1,346C155.1,346,155.1,346,155.1,346z"/>
<path class="st2" d="M163.8,351.7c0.2,2-1.3,3.7-3.3,3.9c-0.1,0-0.3,0-0.4,0c-1.9,0-3.5-1.5-3.6-3.5c0-0.1,0-0.2,0-0.3
	c-0.2-2,1.3-3.7,3.3-3.9c0.1,0,0.2,0,0.4,0c1.9,0,3.5,1.5,3.6,3.4C163.8,351.4,163.8,351.6,163.8,351.7z M157.9,351.8
	c0,1.6,0.9,2.8,2.2,2.8s2.2-1.2,2.2-2.9c0-1.2-0.6-2.8-2.2-2.8S157.9,350.4,157.9,351.8L157.9,351.8z"/>
<path class="st2" d="M171.6,353.4c0,0.8,0,1.4,0.1,2h-1.2l-0.1-1.2l0,0c-0.5,0.9-1.4,1.4-2.4,1.4c-1.1,0-2.5-0.6-2.5-3.2v-4.3h1.3
	v4.1c0,1.4,0.4,2.4,1.6,2.4c0.8,0,1.5-0.5,1.8-1.2c0.1-0.2,0.1-0.4,0.1-0.7v-4.5h1.3L171.6,353.4z"/>
<path class="st2" d="M173.9,350.4c0-0.9,0-1.6-0.1-2.3h1.2l0.1,1.5h0.1c0.3-0.9,1.1-1.6,2.1-1.6c0.1,0,0.2,0,0.4,0v1.3
	c-0.2,0-0.3,0-0.5,0c-0.9,0-1.7,0.8-1.8,1.7c0,0.2-0.1,0.4-0.1,0.6v3.9h-1.3L173.9,350.4z"/>
<path class="st2" d="M178.9,350.1c0-0.8,0-1.4-0.1-2h1.1l0.1,1.2l0,0c0.5-0.9,1.4-1.4,2.4-1.4c1,0,2.6,0.6,2.6,3.1v4.4h-1.3v-4.2
	c0-1.2-0.4-2.2-1.7-2.2c-1.1,0.1-1.9,0.9-1.9,2v4.4h-1.3L178.9,350.1z"/>
<path class="st2" d="M191.5,355.4l-0.1-0.9l0,0c-0.5,0.7-1.4,1.1-2.3,1.1c-1.2,0.1-2.2-0.8-2.2-2c0,0,0-0.1,0-0.1
	c0-1.8,1.6-2.8,4.4-2.8v-0.2c0.1-0.8-0.5-1.6-1.3-1.7c-0.1,0-0.2,0-0.4,0c-0.7,0-1.3,0.2-1.9,0.5l-0.3-0.9c0.7-0.4,1.6-0.7,2.4-0.6
	c2.3,0,2.8,1.5,2.8,3v2.8c0,0.6,0,1.2,0.1,1.8L191.5,355.4z M191.3,351.7c-1.4,0-3.1,0.2-3.1,1.6c-0.1,0.7,0.4,1.2,1.1,1.3
	c0.1,0,0.1,0,0.2,0c0.8,0,1.5-0.5,1.8-1.2c0-0.1,0.1-0.3,0.1-0.4V351.7z"/>
<path class="st2" d="M194.7,344.6h1.3v10.8h-1.3V344.6z"/>
<path class="st2" d="M199.8,346c-0.1,0.5-0.5,0.8-0.9,0.7c-0.4,0-0.7-0.4-0.7-0.7c0-0.5,0.4-0.8,0.8-0.8c0,0,0,0,0,0
	C199.4,345.1,199.8,345.5,199.8,346C199.8,346,199.8,346,199.8,346z M198.3,355.5v-7.4h1.3v7.4H198.3z"/>
<path class="st2" d="M201.7,354.1c0.5,0.3,1.1,0.5,1.8,0.5c1,0,1.4-0.5,1.4-1.1s-0.4-1-1.4-1.4c-1.3-0.5-2-1.2-1.9-2.1
	c0.1-1.3,1.1-2.2,2.4-2.2c0.1,0,0.1,0,0.2,0c0.6,0,1.3,0.1,1.8,0.5l-0.3,1c-0.5-0.3-1-0.4-1.5-0.4c-0.8,0-1.2,0.5-1.2,1
	s0.4,0.9,1.4,1.3c1.3,0.5,1.9,1.1,1.9,2.2c0,1.3-1,2.2-2.8,2.2c-0.7,0-1.4-0.2-2.1-0.5L201.7,354.1z"/>
<path class="st2" d="M209.5,346v2.1h1.9v1h-1.9v4c0,0.9,0.3,1.4,1,1.4c0.3,0,0.5,0,0.8-0.1l0.1,1c-0.4,0.1-0.8,0.2-1.2,0.2
	c-0.5,0-1.1-0.2-1.4-0.6c-0.4-0.6-0.6-1.2-0.5-1.9v-4h-1.1v-1h1.1v-1.9L209.5,346z"/>
<path class="st2" d="M213.6,352c-0.1,1.3,0.8,2.4,2.1,2.6c0.1,0,0.3,0,0.4,0c0.7,0,1.4-0.1,2-0.4l0.2,1c-0.8,0.3-1.6,0.5-2.5,0.5
	c-1.9,0.1-3.5-1.3-3.6-3.2c0-0.2,0-0.3,0-0.5c0-2.2,1.3-4,3.5-4c2.4,0,3,2.1,3,3.5c0,0.2,0,0.4,0,0.6L213.6,352z M217.6,351
	c0.2-1-0.6-2-1.6-2.2c-0.1,0-0.2,0-0.3,0c-1.2,0.1-2,1-2.1,2.2H217.6z"/>
<line class="st3" x1="251.1" y1="236.2" x2="251.1" y2="211.5"/>
<line class="st3" x1="346.5" y1="236.9" x2="227.8" y2="236.9"/>
<path class="st2" d="M228.9,247.4h5.5v1.1h-4.2v3.4h3.9v1.1h-3.9v4.6h-1.3V247.4z"/>
<path class="st2" d="M236.4,247.5c0.8-0.2,1.7-0.2,2.6-0.2c1.1-0.1,2.1,0.2,3,0.8c0.5,0.5,0.8,1.2,0.8,2c0,1.2-0.8,2.3-1.9,2.6l0,0
	c0.8,0.4,1.4,1.2,1.5,2.1c0.2,1,0.4,1.9,0.8,2.8h-1.4c-0.3-0.8-0.5-1.6-0.7-2.5c-0.3-1.4-0.9-1.9-2.1-2h-1.3v4.4h-1.3L236.4,247.5z
	 M237.7,252.2h1.4c1.4,0,2.3-0.8,2.3-1.9c0-1.3-1-1.9-2.4-1.9c-0.4,0-0.9,0-1.3,0.1V252.2z"/>
<path class="st2" d="M246.3,254.4l-1.1,3.2h-1.4l3.5-10.3h1.6l3.5,10.3h-1.4l-1.1-3.2H246.3z M249.7,253.4l-1-2.9
	c-0.2-0.7-0.4-1.3-0.5-1.9l0,0c-0.1,0.6-0.3,1.2-0.5,1.9l-1,3L249.7,253.4z"/>
<path class="st2" d="M254,257.6v-10.3h1.5l3.3,5.2c0.7,1.1,1.3,2.2,1.8,3.3l0,0c-0.1-1.4-0.1-2.6-0.1-4.2v-4.3h1.2v10.3h-1.4
	l-3.3-5.2c-0.7-1.1-1.3-2.3-1.9-3.4h-0.1c0.1,1.3,0.1,2.5,0.1,4.2v4.4L254,257.6z"/>
<path class="st2" d="M271.2,257.3c-0.9,0.4-1.8,0.5-2.7,0.5c-2.6,0.2-4.9-1.9-5.1-4.5c0-0.2,0-0.5,0-0.7c-0.2-2.8,2-5.2,4.8-5.4
	c0.2,0,0.4,0,0.6,0c0.8,0,1.7,0.1,2.4,0.4l-0.3,1.1c-0.7-0.3-1.4-0.4-2.1-0.4c-2.4,0-4,1.6-4,4.2c0,2.5,1.5,4.1,3.9,4.1
	c0.7,0,1.5-0.1,2.2-0.4L271.2,257.3z"/>
<path class="st2" d="M278.2,252.8h-4v3.7h4.5v1.1h-5.8v-10.3h5.6v1.1h-4.2v3.2h4V252.8z"/>
<path class="st2" d="M290.8,257.3c-0.9,0.4-1.8,0.5-2.7,0.5c-2.6,0.2-4.9-1.9-5.1-4.5c0-0.2,0-0.5,0-0.7c-0.2-2.8,2-5.2,4.8-5.4
	c0.2,0,0.4,0,0.6,0c0.8,0,1.7,0.1,2.4,0.4l-0.3,1.1c-0.6-0.3-1.4-0.4-2.1-0.4c-2.4,0-4,1.6-4,4.2c0,2.5,1.5,4.1,3.9,4.1
	c0.7,0,1.5-0.1,2.2-0.4L290.8,257.3z"/>
<path class="st2" d="M293.8,247.4v6.1c0,2.3,1,3.3,2.4,3.3s2.5-1,2.5-3.3v-6.1h1.3v6c0,3.2-1.7,4.4-3.9,4.4s-3.7-1.2-3.7-4.4v-6.1
	L293.8,247.4z"/>
<path class="st2" d="M302.3,247.4h1.3v9.1h4.4v1.1h-5.7L302.3,247.4z"/>
<path class="st2" d="M310.1,248.5H307v-1.1h7.6v1.1h-3.1v9.1h-1.3L310.1,248.5z"/>
<path class="st2" d="M317,247.4v6.1c0,2.3,1,3.3,2.4,3.3s2.5-1,2.5-3.3v-6.1h1.3v6c0,3.2-1.7,4.4-3.9,4.4s-3.7-1.2-3.7-4.4v-6.1
	L317,247.4z"/>
<path class="st2" d="M325.6,247.5c0.8-0.2,1.7-0.2,2.5-0.2c1.1-0.1,2.1,0.2,3,0.8c0.6,0.5,0.8,1.2,0.8,2c0,1.2-0.8,2.3-1.9,2.6l0,0
	c0.8,0.4,1.4,1.2,1.5,2.1c0.2,1,0.4,1.9,0.8,2.8h-1.4c-0.3-0.8-0.5-1.6-0.7-2.5c-0.3-1.4-0.9-1.9-2.1-2h-1.2v4.4h-1.3L325.6,247.5z
	 M326.9,252.2h1.4c1.4,0,2.3-0.8,2.3-1.9c0-1.3-1-1.9-2.4-1.9c-0.4,0-0.9,0-1.3,0.1L326.9,252.2z"/>
<path class="st2" d="M339.1,252.8h-4v3.7h4.5v1.1h-5.8v-10.3h5.6v1.1h-4.2v3.2h4V252.8z"/>
<path class="st2" d="M227.1,278.1c0.5,0,1.1-0.2,1.5-0.6c0.4-0.4,0.5-1,0.5-2.8v-6.2h1.3v6.7c0.1,1.1-0.2,2.2-0.9,3
	c-0.6,0.5-1.5,0.8-2.3,0.8L227.1,278.1z M230.6,266.5c0,0.4-0.3,0.8-0.8,0.8c0,0-0.1,0-0.1,0c-0.4,0-0.8-0.3-0.8-0.8c0,0,0,0,0-0.1
	c0-0.4,0.3-0.8,0.8-0.8c0,0,0,0,0.1,0C230.2,265.6,230.6,266,230.6,266.5C230.6,266.5,230.6,266.5,230.6,266.5z"/>
<path class="st2" d="M239.3,272.2c0.2,2-1.3,3.7-3.3,3.9c-0.1,0-0.3,0-0.4,0c-1.9,0-3.5-1.5-3.6-3.5c0-0.1,0-0.2,0-0.3
	c-0.2-2,1.3-3.7,3.3-3.9c0.1,0,0.3,0,0.4,0c1.9,0,3.5,1.5,3.6,3.4C239.3,271.9,239.3,272.1,239.3,272.2z M233.4,272.3
	c0,1.6,0.9,2.8,2.2,2.8s2.2-1.2,2.2-2.9c0-1.2-0.6-2.8-2.2-2.8S233.4,270.9,233.4,272.3z"/>
<path class="st2" d="M247.1,273.9c0,0.8,0,1.4,0.1,2H246l-0.1-1.2l0,0c-0.5,0.9-1.4,1.4-2.4,1.4c-1.1,0-2.5-0.6-2.5-3.2v-4.3h1.3
	v4.1c0,1.4,0.4,2.4,1.6,2.4c0.8,0,1.5-0.5,1.8-1.2c0.1-0.2,0.1-0.5,0.1-0.7v-4.5h1.3L247.1,273.9z"/>
<path class="st2" d="M249.4,270.9c0-0.9,0-1.6-0.1-2.3h1.2v1.5h0.1c0.3-1.1,1.3-1.8,2.4-1.6v1.3c-0.2,0-0.3,0-0.5,0
	c-0.9,0-1.7,0.8-1.8,1.7c0,0.2-0.1,0.4-0.1,0.6v4h-1.3L249.4,270.9z"/>
<path class="st2" d="M254.4,270.6c0-0.8,0-1.4-0.1-2h1.2l0.1,1.2l0,0c0.5-0.9,1.4-1.4,2.4-1.4c1,0,2.6,0.6,2.6,3.1v4.5h-1.3v-4.3
	c0-1.2-0.4-2.2-1.7-2.2c-0.8,0-1.6,0.6-1.8,1.4c-0.1,0.2-0.1,0.4-0.1,0.6v4.5h-1.3L254.4,270.6z"/>
<path class="st2" d="M267,276l-0.1-0.9l0,0c-0.5,0.7-1.4,1.1-2.3,1.1c-1.2,0.1-2.2-0.8-2.2-1.9c0-0.1,0-0.1,0-0.2
	c0-1.8,1.6-2.8,4.4-2.8v-0.1c0.1-0.8-0.5-1.6-1.3-1.7c-0.1,0-0.2,0-0.4,0c-0.7,0-1.3,0.2-1.9,0.5l-0.3-0.9c0.7-0.4,1.6-0.7,2.4-0.6
	c2.3,0,2.8,1.5,2.8,3v2.8c0,0.6,0,1.2,0.1,1.8L267,276z M266.8,272.2c-1.5,0-3.1,0.2-3.1,1.7c-0.1,0.6,0.4,1.2,1.1,1.3
	c0.1,0,0.1,0,0.2,0c0.8,0,1.5-0.5,1.8-1.2c0-0.1,0.1-0.3,0.1-0.4L266.8,272.2z"/>
<path class="st2" d="M270.2,265.1h1.3V276h-1.3V265.1z"/>
<path class="st2" d="M275.3,266.5c0,0.5-0.4,0.8-0.8,0.8c-0.5,0-0.8-0.4-0.8-0.8c0-0.4,0.3-0.8,0.8-0.8c0,0,0,0,0.1,0
	C274.9,265.6,275.3,266,275.3,266.5C275.3,266.4,275.3,266.5,275.3,266.5z M273.8,276v-7.4h1.3v7.4H273.8z"/>
<path class="st2" d="M277.2,274.6c0.5,0.3,1.2,0.5,1.8,0.5c1,0,1.4-0.5,1.4-1.1s-0.4-1-1.4-1.4c-1.3-0.5-2-1.2-2-2.1
	c0.1-1.3,1.1-2.2,2.4-2.2c0.1,0,0.1,0,0.2,0c0.6,0,1.3,0.1,1.8,0.5l-0.3,1c-0.5-0.3-1-0.4-1.5-0.4c-0.8,0-1.2,0.5-1.2,1
	s0.4,0.9,1.4,1.3c1.3,0.5,1.9,1.1,1.9,2.2c0,1.3-1,2.2-2.8,2.2c-0.7,0-1.4-0.2-2.1-0.5L277.2,274.6z"/>
<path class="st2" d="M285,266.5v2.1h2v1h-1.9v4c0,0.9,0.3,1.4,1,1.4c0.3,0,0.5,0,0.8-0.1l0.1,1c-0.4,0.1-0.8,0.2-1.2,0.2
	c-0.5,0-1.1-0.2-1.5-0.6c-0.4-0.6-0.6-1.2-0.5-1.9v-4h-1.1v-1h1.1v-1.8L285,266.5z"/>
<path class="st2" d="M289.1,272.5c-0.1,1.3,0.8,2.4,2.1,2.6c0.1,0,0.3,0,0.4,0c0.7,0,1.4-0.1,2-0.4l0.2,1c-0.8,0.3-1.6,0.5-2.5,0.5
	c-1.9,0.1-3.5-1.3-3.6-3.2c0-0.2,0-0.3,0-0.5c0-2.2,1.3-4,3.5-4c2.4,0,3,2.1,3,3.5c0,0.2,0,0.4,0,0.6L289.1,272.5z M293.1,271.5
	c0.1-1-0.6-2-1.6-2.2c-0.1,0-0.2,0-0.2,0c-1.1,0.1-2,1-2.1,2.2H293.1z"/>
<path class="st2" d="M364.1,211.4h-79.3l0,0v-77.3l0,0h84.9l0,0v71.7C369.7,208.9,367.2,211.4,364.1,211.4z"/>
<line class="st3" x1="358.3" y1="315.1" x2="358.3" y2="211.4"/>
<line class="st3" x1="492.9" y1="316.9" x2="340.2" y2="315.6"/>
<path class="st2" d="M339.9,326.9h1.3v9.1h4.4v1.1h-5.7V326.9z"/>
<path class="st2" d="M352.4,332.3h-4v3.7h4.5v1.1h-5.8v-10.2h5.5v1.1h-4.2v3.2h4L352.4,332.3z"/>
<path class="st2" d="M357.8,327c0.9-0.2,1.9-0.2,2.8-0.2c1.5-0.1,3,0.3,4.2,1.3c1,1,1.5,2.3,1.5,3.7c0.1,1.5-0.5,2.9-1.5,4
	c-1.3,1.1-2.9,1.6-4.5,1.5c-0.8,0-1.6,0-2.4-0.1L357.8,327z M359.1,336.1c0.4,0.1,0.9,0.1,1.3,0.1c2.8,0,4.4-1.6,4.4-4.4
	c0-2.4-1.4-4-4.1-4c-0.5,0-1,0-1.6,0.1V336.1z"/>
<path class="st2" d="M369.4,333.9l-1.1,3.2H367l3.5-10.3h1.6l3.5,10.3h-1.4l-1.1-3.2H369.4z M372.8,332.9l-1-3
	c-0.2-0.7-0.4-1.3-0.5-1.9l0,0c-0.1,0.6-0.3,1.2-0.5,1.9l-1,3L372.8,332.9z"/>
<path class="st2" d="M378,326.9v6.1c0,2.3,1,3.3,2.4,3.3s2.5-1,2.5-3.3v-6.1h1.3v6c0,3.2-1.7,4.5-3.9,4.5s-3.7-1.2-3.7-4.4v-6.1
	L378,326.9z"/>
<path class="st2" d="M386.5,327c0.8-0.1,1.7-0.2,2.5-0.2c1-0.1,2.1,0.2,2.9,0.9c0.6,0.5,0.9,1.3,0.9,2.1c0,0.8-0.2,1.6-0.8,2.2
	c-0.9,0.8-2,1.2-3.1,1.1c-0.4,0-0.7,0-1.1-0.1v4.1h-1.3V327z M387.9,332c0.4,0.1,0.7,0.1,1.1,0.1c1.6,0,2.6-0.8,2.6-2.2s-1-2-2.4-2
	c-0.4,0-0.8,0-1.2,0.1V332z"/>
<path class="st2" d="M396,326.9v4.3h5v-4.3h1.3v10.3H401v-4.8h-5v4.8h-1.3v-10.3H396z"/>
<path class="st2" d="M405.9,326.9v10.3h-1.3v-10.3H405.9z"/>
<path class="st2" d="M408.2,337.1v-10.3h1.5l3.3,5.2c0.7,1.1,1.3,2.2,1.8,3.3l0,0c-0.1-1.4-0.1-2.6-0.1-4.2v-4.3h1.3v10.3h-1.4
	l-3.3-5.2c-0.7-1.1-1.3-2.3-1.9-3.4l0,0c0.1,1.3,0.1,2.5,0.1,4.2v4.4L408.2,337.1z"/>
<path class="st2" d="M423.6,332.3h-4v3.7h4.5v1.1h-5.8v-10.2h5.5v1.1h-4.2v3.2h4L423.6,332.3z M423.3,324.5l-2,1.8h-1.1l1.4-1.8
	H423.3z"/>
<path class="st2" d="M429,326.9h1.3v9.1h4.4v1.1H429V326.9z"/>
<path class="st2" d="M437.5,326.9v10.3h-1.3v-10.3H437.5z"/>
<path class="st2" d="M439.8,327c0.8-0.2,1.6-0.2,2.4-0.2c1-0.1,2,0.2,2.8,0.8c0.6,0.4,0.9,1.1,0.9,1.8c0,1-0.7,2-1.7,2.2l0,0
	c1.2,0.2,2.1,1.3,2.1,2.6c0,0.8-0.3,1.5-0.9,2c-1,0.8-2.3,1.1-3.5,1c-0.7,0-1.4,0-2.1-0.1V327z M441.2,331.2h1.2
	c1.4,0,2.2-0.7,2.2-1.7c0-1.2-0.9-1.7-2.2-1.7c-0.4,0-0.8,0-1.2,0.1V331.2z M441.2,336.1c0.4,0.1,0.7,0.1,1.1,0.1
	c1.4,0,2.6-0.5,2.6-2s-1.2-2-2.7-2h-1.1V336.1z"/>
<path class="st2" d="M453.4,332.3h-4v3.7h4.5v1.1h-5.8v-10.2h5.5v1.1h-4.2v3.2h4L453.4,332.3z M453.2,324.5l-1.9,1.8h-1.1l1.4-1.8
	H453.2z"/>
<path class="st2" d="M455.6,327c0.8-0.2,1.7-0.2,2.5-0.2c1.1-0.1,2.1,0.2,3,0.9c0.5,0.5,0.8,1.2,0.8,2c0,1.2-0.8,2.3-1.9,2.6l0,0
	c0.8,0.4,1.4,1.2,1.5,2.1c0.2,1,0.4,1.9,0.8,2.8h-1.4c-0.3-0.8-0.5-1.6-0.7-2.5c-0.3-1.4-0.9-2-2.1-2h-1.3v4.5h-1.3V327z
	 M456.9,331.7h1.4c1.4,0,2.3-0.8,2.3-2s-1-1.9-2.4-1.9c-0.4,0-0.9,0-1.3,0.1V331.7z"/>
<path class="st2" d="M469.1,332.3h-4v3.7h4.5v1.1h-5.8v-10.2h5.5v1.1h-4.2v3.2h4L469.1,332.3z M468.9,324.5l-1.9,1.8h-1.1l1.4-1.8
	H468.9z"/>
<path class="st2" d="M338,357.6c0.5,0,1.1-0.2,1.5-0.6c0.4-0.4,0.5-1,0.5-2.8v-6.2h1.3v6.7c0.1,1.1-0.2,2.2-0.9,3
	c-0.6,0.5-1.5,0.8-2.3,0.8L338,357.6z M341.5,346c0,0.4-0.3,0.8-0.8,0.8c0,0-0.1,0-0.1,0c-0.4,0-0.8-0.3-0.8-0.8c0,0,0,0,0-0.1
	c0-0.5,0.3-0.8,0.8-0.8c0,0,0,0,0,0C341.1,345.1,341.5,345.5,341.5,346C341.5,346,341.5,346,341.5,346z"/>
<path class="st2" d="M350.2,351.7c0.2,2-1.3,3.7-3.3,3.9c-0.1,0-0.3,0-0.4,0c-1.9,0-3.5-1.5-3.6-3.5c0-0.1,0-0.2,0-0.3
	c-0.2-2,1.3-3.7,3.3-3.9c0.1,0,0.3,0,0.4,0c1.9,0,3.5,1.5,3.6,3.4C350.2,351.4,350.2,351.6,350.2,351.7z M344.4,351.8
	c0,1.6,0.9,2.8,2.2,2.8s2.2-1.2,2.2-2.9c0-1.2-0.6-2.8-2.2-2.8S344.4,350.4,344.4,351.8z"/>
<path class="st2" d="M358.1,353.4c0,0.8,0,1.4,0.1,2H357l-0.1-1.2l0,0c-0.5,0.9-1.4,1.4-2.4,1.4c-1.1,0-2.5-0.6-2.5-3.2v-4.3h1.3
	v4.1c0,1.4,0.4,2.4,1.6,2.4c0.8,0,1.5-0.5,1.8-1.2c0.1-0.2,0.1-0.4,0.1-0.7v-4.5h1.3L358.1,353.4z"/>
<path class="st2" d="M360.3,350.4c0-0.9,0-1.6-0.1-2.3h1.2l0,1.5h0c0.3-0.9,1.1-1.6,2-1.6c0.1,0,0.3,0,0.4,0v1.3c-0.2,0-0.3,0-0.5,0
	c-0.9,0-1.7,0.8-1.8,1.7c0,0.2,0,0.4,0,0.6v3.9h-1.3L360.3,350.4z"/>
<path class="st2" d="M365.4,350.1c0-0.8,0-1.4-0.1-2h1.2l0.1,1.2l0,0c0.5-0.9,1.4-1.4,2.4-1.4c1,0,2.6,0.6,2.6,3.1v4.4h-1.3v-4.2
	c0-1.2-0.5-2.2-1.7-2.2c-0.8,0-1.6,0.6-1.8,1.4c-0.1,0.2-0.1,0.4-0.1,0.6v4.4h-1.3L365.4,350.1z"/>
<path class="st2" d="M377.9,355.4l-0.1-0.9l0,0c-0.5,0.7-1.4,1.1-2.3,1.1c-1.2,0.1-2.2-0.8-2.2-1.9c0-0.1,0-0.1,0-0.2
	c0-1.8,1.6-2.8,4.4-2.8v-0.2c0.1-0.8-0.5-1.6-1.3-1.7c-0.1,0-0.2,0-0.4,0c-0.7,0-1.3,0.2-1.9,0.5l-0.3-0.9c0.7-0.4,1.6-0.7,2.4-0.6
	c2.2,0,2.8,1.5,2.8,3v2.8c0,0.6,0,1.2,0.1,1.8L377.9,355.4z M377.7,351.7c-1.5,0-3.1,0.2-3.1,1.6c-0.1,0.7,0.4,1.2,1.1,1.3
	c0.1,0,0.1,0,0.2,0c0.8,0,1.5-0.5,1.8-1.2c0-0.1,0.1-0.3,0.1-0.4L377.7,351.7z"/>
<path class="st2" d="M381.2,344.6h1.3v10.8h-1.3V344.6z"/>
<path class="st2" d="M386.3,346c0,0.5-0.4,0.8-0.8,0.8c-0.5,0-0.8-0.4-0.8-0.8c0-0.5,0.3-0.8,0.8-0.8c0,0,0,0,0,0
	C385.9,345.1,386.3,345.5,386.3,346C386.3,346,386.3,346,386.3,346z M384.8,355.5v-7.4h1.3v7.4H384.8z"/>
<path class="st2" d="M388.2,354.1c0.5,0.3,1.2,0.5,1.8,0.5c1,0,1.4-0.5,1.4-1.1s-0.4-1-1.4-1.4c-1.3-0.5-2-1.2-2-2.1
	c0.1-1.3,1.1-2.2,2.4-2.2c0.1,0,0.1,0,0.2,0c0.6,0,1.3,0.1,1.8,0.5l-0.3,1c-0.5-0.3-1-0.4-1.5-0.4c-0.8,0-1.2,0.5-1.2,1
	s0.4,0.9,1.4,1.3c1.3,0.5,1.9,1.1,1.9,2.2c0,1.3-1,2.2-2.8,2.2c-0.7,0-1.4-0.2-2.1-0.5L388.2,354.1z"/>
<path class="st2" d="M396,346v2.1h1.9v1H396v4c0,0.9,0.3,1.4,1,1.4c0.3,0,0.5,0,0.8-0.1l0.1,1c-0.4,0.1-0.8,0.2-1.2,0.2
	c-0.5,0-1.1-0.2-1.4-0.6c-0.4-0.6-0.6-1.2-0.5-1.9v-4h-1.1v-1h1.1v-1.9L396,346z"/>
<path class="st2" d="M400.1,352c-0.1,1.3,0.8,2.4,2.1,2.6c0.1,0,0.3,0,0.4,0c0.7,0,1.4-0.1,2-0.4l0.2,1c-0.8,0.3-1.6,0.5-2.5,0.5
	c-1.9,0.1-3.5-1.3-3.6-3.2c0-0.2,0-0.3,0-0.5c0-2.2,1.3-4,3.5-4c2.4,0,3,2.1,3,3.5c0,0.2,0,0.4,0,0.6L400.1,352z M404,351
	c0.1-1-0.6-2-1.6-2.2c-0.1,0-0.2,0-0.2,0c-1.2,0.1-2,1-2.1,2.2H404z"/>
<path class="st6" d="M284.8,132.8V79h74.3c4.4,0,8.1,6,8.1,13.3v40.5"/>
<path class="st2" d="M503.9,211.5H380.1l0,0v-77.3l0,0h129.4l0,0v71.7C509.5,209,507,211.5,503.9,211.5L503.9,211.5z"/>
<line class="st4" x1="452" y1="132.8" x2="452" y2="19.5"/>
<path class="st2" d="M528.8,211.5h-12.5l0,0v-77.3l0,0h18.1l0,0v71.7C534.4,209,531.9,211.5,528.8,211.5z"/>
<line class="st3" x1="523" y1="236.1" x2="523" y2="211.4"/>
<line class="st3" x1="597.9" y1="238.2" x2="506.8" y2="237.2"/>
<path class="st2" d="M515.1,257.3c-0.9,0.4-1.8,0.5-2.7,0.5c-2.6,0.2-4.9-1.9-5.1-4.5c0-0.2,0-0.5,0-0.7c-0.2-2.8,2-5.2,4.8-5.4
	c0.2,0,0.4,0,0.6,0c0.8,0,1.7,0.1,2.4,0.4l-0.3,1.1c-0.6-0.3-1.4-0.4-2.1-0.4c-2.4,0-4,1.6-4,4.2c0,2.5,1.4,4.1,3.9,4.1
	c0.7,0,1.5-0.1,2.2-0.4L515.1,257.3z"/>
<path class="st2" d="M518.5,254.4l-1.1,3.2H516l3.5-10.3h1.6l3.5,10.3h-1.4l-1.1-3.2H518.5z M521.8,253.4l-1-2.9
	c-0.2-0.7-0.4-1.3-0.5-1.9l0,0c-0.2,0.6-0.3,1.2-0.5,1.9l-1,3L521.8,253.4z"/>
<path class="st2" d="M526.1,247.5c0.9-0.2,1.9-0.2,2.8-0.2c1.5-0.1,3,0.3,4.2,1.3c1,1,1.5,2.3,1.5,3.7c0.1,1.5-0.5,2.9-1.5,4
	c-1.3,1.1-2.9,1.6-4.5,1.5c-0.8,0-1.6,0-2.4-0.1L526.1,247.5z M527.5,256.6c0.4,0,0.9,0.1,1.3,0.1c2.8,0,4.4-1.6,4.4-4.4
	c0-2.4-1.3-4-4.2-4c-0.5,0-1,0-1.6,0.1V256.6z"/>
<path class="st2" d="M545.1,252.4c0,3.5-2.2,5.4-4.8,5.4s-4.6-2.1-4.6-5.2s2-5.4,4.8-5.4S545.1,249.4,545.1,252.4z M537.1,252.6
	c0,2.2,1.2,4.2,3.3,4.2s3.3-1.9,3.3-4.3c0-2.1-1.1-4.2-3.3-4.2S537.1,250.3,537.1,252.6L537.1,252.6z"/>
<path class="st2" d="M546.8,247.4h1.3v9.1h4.4v1.1h-5.7V247.4z"/>
<path class="st2" d="M559.3,252.8h-4v3.7h4.5v1.1H554v-10.3h5.5v1.1h-4.2v3.2h4L559.3,252.8z"/>
<path class="st2" d="M561.3,256c0.7,0.4,1.5,0.7,2.4,0.7c1.3,0,2.2-0.7,2.2-1.8s-0.6-1.5-1.9-2c-1.7-0.6-2.7-1.5-2.7-2.9
	c0-1.6,1.3-2.8,3.3-2.8c0.8,0,1.6,0.1,2.3,0.5l-0.4,1.1c-0.6-0.3-1.3-0.5-1.9-0.5c-1.4,0-2,0.8-2,1.5c0,1,0.6,1.4,2,2
	c1.7,0.7,2.6,1.5,2.6,3c0,1.5-1.2,3-3.6,3c-0.9,0-1.8-0.2-2.6-0.7L561.3,256z"/>
<path class="st2" d="M514.2,265.1v8.9c0,0.7,0,1.4,0.1,1.9h-1.2l-0.1-1.3l0,0c-0.5,0.9-1.5,1.5-2.5,1.4c-1.8,0-3.2-1.5-3.2-3.7
	c0-2.5,1.5-4,3.3-4c0.9-0.1,1.7,0.4,2.2,1.1l0,0V265L514.2,265.1z M512.9,271.6c0-0.2,0-0.4-0.1-0.6c-0.2-0.9-1-1.5-1.9-1.5
	c-1.4,0-2.2,1.2-2.2,2.8s0.7,2.7,2.2,2.7c1,0,1.8-0.7,2-1.6c0-0.2,0.1-0.4,0.1-0.6L512.9,271.6z"/>
<path class="st2" d="M517.2,272.5c-0.1,1.3,0.8,2.4,2.1,2.6c0.1,0,0.3,0,0.4,0c0.7,0,1.4-0.1,2-0.4l0.2,1c-0.8,0.3-1.6,0.5-2.5,0.5
	c-1.9,0.1-3.5-1.3-3.6-3.2c0-0.2,0-0.3,0-0.5c0-2.2,1.3-4,3.5-4c2.4,0,3,2.1,3,3.5c0,0.2,0,0.4,0,0.6L517.2,272.5z M521.1,271.5
	c0.1-1-0.6-2-1.6-2.2c-0.1,0-0.2,0-0.2,0c-1.1,0.1-2,1-2.1,2.2H521.1z M521.4,265.3l-1.9,2.2h-1l1.3-2.2H521.4z"/>
<path class="st2" d="M524.6,268.6l1.5,4.1c0.2,0.7,0.4,1.3,0.6,1.9l0,0c0.2-0.6,0.4-1.2,0.6-1.9l1.4-4.1h1.4l-2.9,7.4H526l-2.8-7.4
	H524.6z"/>
<path class="st2" d="M532,272.5c-0.1,1.3,0.8,2.4,2.1,2.6c0.1,0,0.3,0,0.4,0c0.7,0,1.4-0.1,2-0.4l0.2,1c-0.8,0.3-1.6,0.5-2.5,0.5
	c-1.9,0.1-3.5-1.3-3.6-3.2c0-0.2,0-0.3,0-0.5c0-2.2,1.3-4,3.5-4c2.4,0,3,2.1,3,3.5c0,0.2,0,0.4,0,0.6L532,272.5z M535.9,271.5
	c0.1-1-0.6-2-1.6-2.2c-0.1,0-0.2,0-0.2,0c-1.1,0.1-2,1-2.1,2.2H535.9z"/>
<path class="st2" d="M538.9,265.1h1.3V276h-1.3V265.1z"/>
<path class="st2" d="M549.2,272.2c0.2,2-1.3,3.7-3.3,3.9c-0.1,0-0.3,0-0.4,0c-1.9,0-3.5-1.5-3.6-3.5c0-0.1,0-0.2,0-0.3
	c-0.2-2,1.3-3.7,3.3-3.9c0.1,0,0.2,0,0.4,0c1.9,0,3.5,1.5,3.6,3.4C549.2,271.9,549.2,272.1,549.2,272.2z M543.3,272.3
	c0,1.6,0.9,2.8,2.2,2.8s2.2-1.2,2.2-2.9c0-1.2-0.6-2.8-2.2-2.8S543.3,270.9,543.3,272.3z"/>
<path class="st2" d="M550.9,271c0-0.9,0-1.7-0.1-2.4h1.2l0.1,1.3l0,0c0.5-0.9,1.6-1.5,2.6-1.4c1.8,0,3.1,1.5,3.1,3.7
	c0,2.6-1.6,4-3.4,4c-0.9,0-1.8-0.4-2.3-1.2l0,0v4h-1.3L550.9,271z M552.2,273c0,0.2,0,0.4,0.1,0.5c0.2,0.9,1.1,1.6,2,1.6
	c1.4,0,2.2-1.2,2.2-2.9c0-1.5-0.8-2.7-2.2-2.7c-1,0-1.8,0.7-2,1.7c-0.1,0.2-0.1,0.4-0.1,0.5L552.2,273z"/>
<path class="st2" d="M559.6,271c0-0.9,0-1.7-0.1-2.4h1.2l0.1,1.3l0,0c0.5-0.9,1.5-1.5,2.6-1.4c1.8,0,3.1,1.5,3.1,3.7
	c0,2.6-1.6,4-3.3,4c-0.9,0-1.8-0.4-2.3-1.2l0,0v4h-1.3V271z M560.9,273c0,0.2,0,0.4,0.1,0.5c0.2,0.9,1.1,1.6,2,1.6
	c1.4,0,2.2-1.2,2.2-2.9c0-1.5-0.8-2.7-2.2-2.7c-1,0-1.8,0.7-2,1.7c0,0.2-0.1,0.4-0.1,0.5L560.9,273z"/>
<path class="st2" d="M569,272.5c-0.1,1.3,0.8,2.4,2.1,2.6c0.1,0,0.3,0,0.4,0c0.7,0,1.4-0.1,2-0.4l0.2,1c-0.8,0.3-1.6,0.5-2.5,0.5
	c-1.9,0.1-3.5-1.3-3.6-3.2c0-0.2,0-0.3,0-0.5c0-2.2,1.3-4,3.5-4c2.4,0,3,2.1,3,3.5c0,0.2,0,0.4,0,0.6L569,272.5z M572.9,271.5
	c0.2-1-0.6-2-1.6-2.1c-0.1,0-0.2,0-0.3,0c-1.1,0.1-2,1-2.1,2.2H572.9z"/>
<path class="st2" d="M582.1,273.9c0,0.8,0,1.4,0.1,2h-1.2l-0.1-1.2l0,0c-0.5,0.9-1.4,1.4-2.4,1.4c-1.2,0-2.5-0.6-2.5-3.2v-4.3h1.3
	v4.1c0,1.4,0.4,2.4,1.7,2.4c0.8,0,1.5-0.5,1.8-1.2c0.1-0.2,0.1-0.5,0.1-0.7v-4.5h1.3L582.1,273.9z"/>
<path class="st2" d="M584.3,270.9c0-0.9,0-1.6-0.1-2.3h1.2l0,1.5l0,0c0.3-0.9,1.1-1.6,2-1.6c0.1,0,0.2,0,0.4,0v1.3
	c-0.1,0-0.3,0-0.5,0c-0.9,0-1.7,0.8-1.8,1.7c0,0.2,0,0.4,0,0.6v4h-1.3L584.3,270.9z"/>
<line class="st3" x1="482" y1="235.6" x2="482" y2="210.9"/>
<line class="st3" x1="495.1" y1="236.6" x2="376.4" y2="236.6"/>
<path class="st2" d="M377.6,245.1h1.3v9.1h4.4v1.1h-5.7V245.1z"/>
<path class="st2" d="M390.1,250.6h-4v3.7h4.5v1.1h-5.8v-10.3h5.5v1.1h-4.2v3.3h4L390.1,250.6z"/>
<path class="st2" d="M404.2,250.9c-0.1-1.4-0.2-3.2-0.2-4.4l0,0c-0.4,1.2-0.8,2.5-1.3,3.9l-1.8,5h-1l-1.7-4.9
	c-0.5-1.4-0.9-2.8-1.2-4l0,0c0,1.3-0.1,3-0.2,4.5l-0.3,4.4h-1.3l0.7-10.3h1.7l1.8,5c0.4,1.3,0.8,2.4,1,3.5l0,0
	c0.3-1,0.6-2.2,1.1-3.5l1.8-5h1.7l0.6,10.3h-1.3L404.2,250.9z"/>
<path class="st2" d="M409.1,245.1v10.3h-1.3v-10.3H409.1z"/>
<path class="st2" d="M411.4,245.2c0.8-0.2,1.7-0.2,2.6-0.2c1.1-0.1,2.1,0.2,3,0.8c0.5,0.5,0.8,1.2,0.8,1.9c0,1.2-0.8,2.3-1.9,2.6
	l0,0c0.8,0.4,1.4,1.2,1.5,2.1c0.2,1,0.4,1.9,0.8,2.8h-1.4c-0.3-0.8-0.5-1.6-0.7-2.5c-0.3-1.4-0.9-1.9-2.1-2h-1.3v4.4h-1.3
	L411.4,245.2z M412.8,249.9h1.4c1.4,0,2.3-0.8,2.3-1.9c0-1.3-1-1.9-2.4-1.9c-0.4,0-0.9,0-1.3,0.1V249.9z"/>
<path class="st2" d="M428.5,250.1c0,3.5-2.1,5.4-4.8,5.4s-4.6-2.1-4.6-5.2s2-5.4,4.8-5.4S428.5,247.1,428.5,250.1z M420.5,250.3
	c0,2.2,1.2,4.2,3.3,4.2s3.3-1.9,3.3-4.3c0-2.1-1.1-4.2-3.3-4.2S420.5,248.1,420.5,250.3L420.5,250.3z"/>
<path class="st2" d="M431.5,245.1v10.3h-1.3v-10.3H431.5z"/>
<path class="st2" d="M433.8,245.2c0.8-0.2,1.7-0.2,2.6-0.2c1.1-0.1,2.1,0.2,3,0.8c0.5,0.5,0.8,1.2,0.8,1.9c0,1.2-0.8,2.3-1.9,2.6
	l0,0c0.8,0.4,1.4,1.2,1.5,2.1c0.2,1,0.4,1.9,0.8,2.8h-1.4c-0.3-0.8-0.5-1.6-0.7-2.5c-0.3-1.4-0.9-1.9-2.1-2h-1.3v4.4h-1.3
	L433.8,245.2z M435.1,249.9h1.4c1.4,0,2.3-0.8,2.3-1.9c0-1.3-1-1.9-2.4-1.9c-0.4,0-0.9,0-1.3,0.1V249.9z"/>
<path class="st2" d="M453.9,250.9c-0.1-1.4-0.2-3.2-0.2-4.4l0,0c-0.4,1.2-0.8,2.5-1.3,3.9l-1.8,5h-1l-1.7-4.9
	c-0.5-1.4-0.9-2.8-1.2-4l0,0c0,1.3-0.1,3-0.2,4.5l-0.3,4.4H445l0.7-10.3h1.7l1.8,5c0.4,1.3,0.8,2.4,1,3.5l0,0c0.3-1,0.6-2.2,1.1-3.5
	l1.8-5h1.7l0.6,10.3h-1.3L453.9,250.9z"/>
<path class="st2" d="M459,252.1l-1,3.2h-1.4l3.5-10.3h1.6l3.5,10.3h-1.4l-1.1-3.2H459z M462.4,251.1l-1-2.9
	c-0.2-0.7-0.4-1.3-0.5-1.9l0,0c-0.1,0.6-0.3,1.2-0.5,1.9l-1,3L462.4,251.1z"/>
<path class="st2" d="M474.3,254.9c-1,0.4-2.1,0.6-3.2,0.6c-2.6,0.3-5-1.7-5.3-4.3c0-0.3,0-0.6,0-0.9c0-3.1,2.1-5.3,5.5-5.3
	c0.9,0,1.8,0.1,2.6,0.5l-0.3,1.1c-0.7-0.3-1.5-0.5-2.3-0.4c-2.1-0.2-4,1.4-4.1,3.5c0,0.2,0,0.4,0,0.6c0,2.6,1.6,4.1,4,4.1
	c0.6,0,1.2-0.1,1.8-0.3V251h-2.1v-1h3.4L474.3,254.9z"/>
<path class="st2" d="M382.8,273.4c-0.7,0.3-1.4,0.4-2.1,0.4c-1.9,0.1-3.6-1.4-3.7-3.3c0-0.1,0-0.3,0-0.4c-0.1-2.1,1.5-3.8,3.6-3.9
	c0.1,0,0.3,0,0.4,0c0.6,0,1.3,0.1,1.9,0.4l-0.3,1c-0.5-0.2-1-0.4-1.6-0.4c-1.5,0.1-2.7,1.4-2.6,2.9c0.1,1.4,1.2,2.5,2.6,2.6
	c0.6,0,1.1-0.1,1.6-0.4L382.8,273.4z"/>
<path class="st2" d="M391,269.9c0.2,2-1.3,3.7-3.3,3.9c-0.1,0-0.3,0-0.4,0c-1.9,0-3.5-1.5-3.6-3.4c0-0.1,0-0.2,0-0.3
	c-0.2-2,1.3-3.7,3.3-3.9c0.1,0,0.3,0,0.4,0c1.9,0,3.5,1.5,3.6,3.4C391,269.7,391,269.8,391,269.9z M385.1,270c0,1.6,0.9,2.8,2.2,2.8
	s2.2-1.2,2.2-2.9c0-1.2-0.6-2.8-2.2-2.8S385.1,268.6,385.1,270L385.1,270z"/>
<path class="st2" d="M392.7,268.3c0-0.8,0-1.4-0.1-2h1.2l0.1,1.2l0,0c0.5-0.9,1.4-1.4,2.4-1.4c1,0,2.6,0.6,2.6,3.1v4.4h-1.3v-4.2
	c0-1.2-0.5-2.2-1.7-2.2c-0.8,0-1.6,0.6-1.8,1.4c-0.1,0.2-0.1,0.4-0.1,0.6v4.5h-1.3V268.3z"/>
<path class="st2" d="M401.3,273.7v-6.4h-1v-1h1V266c-0.1-0.9,0.2-1.9,0.9-2.6c0.5-0.5,1.1-0.7,1.8-0.7c0.4,0,0.8,0.1,1.1,0.2l-0.2,1
	c-0.3-0.1-0.6-0.2-0.9-0.2c-1.1,0-1.4,1-1.4,2.1v0.4h1.8v1h-1.8v6.4L401.3,273.7z"/>
<path class="st2" d="M412,269.9c0.2,2-1.3,3.7-3.3,3.9c-0.1,0-0.3,0-0.4,0c-1.9,0-3.5-1.5-3.6-3.5c0-0.1,0-0.2,0-0.3
	c-0.2-2,1.3-3.7,3.3-3.9c0.1,0,0.3,0,0.4,0c1.9,0,3.5,1.5,3.6,3.4C412.1,269.7,412.1,269.8,412,269.9z M406.2,270
	c0,1.6,0.9,2.8,2.2,2.8s2.2-1.2,2.2-2.9c0-1.2-0.6-2.8-2.2-2.8S406.2,268.6,406.2,270z"/>
<path class="st2" d="M413.8,268.3c0-0.8,0-1.4-0.1-2h1.2l0.1,1.2l0,0c0.5-0.9,1.4-1.4,2.4-1.4c1,0,2.6,0.6,2.6,3.1v4.4h-1.3v-4.2
	c0-1.2-0.5-2.2-1.7-2.2c-0.8,0-1.6,0.6-1.8,1.4c-0.1,0.2-0.1,0.4-0.1,0.6v4.5h-1.3L413.8,268.3z"/>
<path class="st2" d="M428.6,262.8v8.9c0,0.6,0,1.4,0.1,1.9h-1.2l-0.1-1.3l0,0c-0.5,0.9-1.5,1.5-2.5,1.4c-1.8,0-3.2-1.5-3.2-3.7
	c0-2.5,1.5-4,3.3-4c0.9-0.1,1.7,0.4,2.2,1.1l0,0v-4.4L428.6,262.8z M427.2,269.3c0-0.2,0-0.4,0-0.6c-0.2-0.9-1-1.5-1.9-1.5
	c-1.4,0-2.2,1.2-2.2,2.8s0.7,2.7,2.2,2.7c1,0,1.8-0.7,2-1.6c0-0.2,0.1-0.4,0.1-0.6L427.2,269.3z"/>
<path class="st2" d="M434.9,273.7l-0.1-0.9l0,0c-0.5,0.7-1.4,1.1-2.2,1.1c-1.2,0.1-2.2-0.8-2.3-1.9c0-0.1,0-0.1,0-0.2
	c0-1.8,1.6-2.8,4.4-2.8v-0.1c0.1-0.8-0.5-1.6-1.3-1.7c-0.1,0-0.2,0-0.4,0c-0.7,0-1.3,0.2-1.9,0.5l-0.3-0.9c0.7-0.4,1.6-0.7,2.4-0.6
	c2.2,0,2.8,1.5,2.8,3v2.8c0,0.6,0,1.2,0.1,1.8L434.9,273.7z M434.7,269.9c-1.5,0-3.1,0.2-3.1,1.7c-0.1,0.6,0.4,1.2,1.1,1.3
	c0.1,0,0.1,0,0.2,0c0.8,0,1.5-0.5,1.8-1.2c0-0.1,0.1-0.3,0.1-0.4V269.9z"/>
<path class="st2" d="M439.7,264.2v2.1h1.9v1h-1.9v4c0,0.9,0.3,1.4,1,1.4c0.3,0,0.5,0,0.8-0.1l0.1,1c-0.4,0.1-0.8,0.2-1.2,0.2
	c-0.5,0-1.1-0.2-1.4-0.6c-0.4-0.6-0.6-1.2-0.5-1.9v-4h-1.1v-1h1.1v-1.8L439.7,264.2z"/>
<path class="st2" d="M443.8,270.2c-0.1,1.3,0.8,2.4,2.1,2.6c0.1,0,0.3,0,0.4,0c0.7,0,1.4-0.1,2-0.4l0.2,1c-0.8,0.3-1.6,0.5-2.5,0.5
	c-1.9,0.1-3.5-1.3-3.6-3.2c0-0.2,0-0.3,0-0.5c0-2.2,1.3-4,3.5-4c2.4,0,3,2.1,3,3.5c0,0.2,0,0.4,0,0.6L443.8,270.2z M447.7,269.2
	c0.1-1-0.6-2-1.6-2.2c-0.1,0-0.2,0-0.2,0c-1.1,0.1-2,1-2.1,2.2H447.7z"/>
<path class="st2" d="M456.9,271.6c0,0.8,0,1.4,0.1,2h-1.2l-0.1-1.2l0,0c-0.5,0.9-1.4,1.4-2.4,1.4c-1.2,0-2.5-0.6-2.5-3.2v-4.3h1.3
	v4.1c0,1.4,0.4,2.4,1.6,2.4c0.8,0,1.5-0.5,1.8-1.2c0.1-0.2,0.1-0.5,0.1-0.7v-4.5h1.3L456.9,271.6z"/>
<path class="st2" d="M459.1,268.6c0-0.9,0-1.6-0.1-2.3h1.2l0,1.5h0c0.3-0.9,1.1-1.6,2-1.6c0.1,0,0.2,0,0.4,0v1.3c-0.2,0-0.3,0-0.5,0
	c-0.9,0-1.7,0.8-1.8,1.7c0,0.2,0,0.4,0,0.6v3.9h-1.3L459.1,268.6z"/>
<path class="st2" d="M375.8,294.1c0.5,0,1.1-0.2,1.5-0.6c0.4-0.4,0.5-1,0.5-2.8v-6.2h1.3v6.7c0.1,1.1-0.2,2.2-0.9,3
	c-0.6,0.6-1.4,0.9-2.3,0.8L375.8,294.1z M379.2,282.5c0,0.5-0.4,0.8-0.8,0.8c-0.5,0-0.8-0.4-0.8-0.8c0-0.5,0.3-0.8,0.8-0.8
	c0,0,0,0,0,0C378.8,281.7,379.2,282,379.2,282.5C379.2,282.5,379.2,282.5,379.2,282.5z"/>
<path class="st2" d="M387.9,288.2c0.2,2-1.3,3.7-3.3,3.9c-0.1,0-0.3,0-0.4,0c-1.9,0-3.5-1.5-3.6-3.5c0-0.1,0-0.2,0-0.3
	c-0.2-2,1.3-3.7,3.3-3.9c0.1,0,0.2,0,0.4,0c1.9,0,3.5,1.5,3.6,3.4C387.9,288,387.9,288.1,387.9,288.2z M382.1,288.3
	c0,1.6,0.9,2.8,2.2,2.8s2.2-1.2,2.2-2.9c0-1.2-0.6-2.8-2.2-2.8S382.1,286.9,382.1,288.3L382.1,288.3z"/>
<path class="st2" d="M395.8,289.9c0,0.8,0,1.4,0.1,2h-1.2l-0.1-1.2l0,0c-0.5,0.9-1.4,1.4-2.4,1.4c-1.1,0-2.5-0.6-2.5-3.2v-4.3h1.3
	v4.1c0,1.4,0.4,2.4,1.6,2.4c0.8,0,1.5-0.5,1.8-1.2c0.1-0.2,0.1-0.4,0.1-0.7v-4.5h1.3L395.8,289.9z"/>
<path class="st2" d="M398,286.9c0-0.9,0-1.6-0.1-2.3h1.2l0,1.5h0c0.3-0.9,1.1-1.6,2.1-1.6c0.1,0,0.2,0,0.4,0v1.3c-0.2,0-0.3,0-0.5,0
	c-0.9,0-1.7,0.8-1.8,1.7c0,0.2-0.1,0.4-0.1,0.6v4H398V286.9z"/>
<path class="st2" d="M403.1,286.6c0-0.8,0-1.4-0.1-2h1.2l0.1,1.2l0,0c0.5-0.9,1.4-1.4,2.4-1.4c1,0,2.6,0.6,2.6,3.1v4.5H408v-4.2
	c0-1.2-0.5-2.2-1.7-2.2c-1.1,0.1-1.9,0.9-1.9,2v4.4h-1.3L403.1,286.6z"/>
<path class="st2" d="M415.6,292l-0.1-0.9l0,0c-0.5,0.7-1.4,1.1-2.3,1.1c-1.2,0.1-2.2-0.8-2.2-2c0-0.1,0-0.1,0-0.2
	c0-1.8,1.6-2.8,4.4-2.8v-0.2c0.1-0.8-0.5-1.6-1.3-1.7c-0.1,0-0.3,0-0.4,0c-0.7,0-1.3,0.2-1.9,0.5l-0.3-0.9c0.7-0.4,1.6-0.7,2.4-0.6
	c2.3,0,2.8,1.5,2.8,3v2.8c0,0.6,0,1.2,0.1,1.8L415.6,292z M415.4,288.2c-1.5,0-3.1,0.2-3.1,1.6c-0.1,0.7,0.4,1.2,1.1,1.3
	c0.1,0,0.1,0,0.2,0c0.8,0,1.5-0.5,1.8-1.2c0-0.1,0.1-0.3,0.1-0.4V288.2z"/>
<path class="st2" d="M418.9,281.1h1.3V292h-1.3V281.1z"/>
<path class="st2" d="M424,282.5c-0.1,0.5-0.5,0.8-0.9,0.7c-0.4,0-0.7-0.4-0.7-0.7c0-0.5,0.4-0.8,0.8-0.8c0,0,0,0,0,0
	C423.6,281.7,424,282,424,282.5C424,282.5,424,282.5,424,282.5z M422.5,292v-7.4h1.3v7.4L422.5,292z"/>
<path class="st2" d="M425.9,290.6c0.5,0.3,1.1,0.5,1.8,0.5c1,0,1.4-0.5,1.4-1.1s-0.4-1-1.4-1.3c-1.3-0.5-2-1.2-2-2.1
	c0.1-1.3,1.1-2.2,2.4-2.2c0.1,0,0.1,0,0.2,0c0.6,0,1.3,0.1,1.8,0.5l-0.3,1c-0.5-0.3-1-0.4-1.5-0.4c-0.8,0-1.2,0.5-1.2,1
	s0.4,0.9,1.4,1.3c1.3,0.5,1.9,1.1,1.9,2.2c0,1.3-1,2.2-2.8,2.2c-0.7,0-1.4-0.2-2.1-0.5L425.9,290.6z"/>
<path class="st2" d="M433.7,282.5v2.1h1.9v1h-1.9v4c0,0.9,0.3,1.4,1,1.4c0.3,0,0.5,0,0.8-0.1l0.1,1c-0.4,0.1-0.8,0.2-1.2,0.2
	c-0.5,0-1.1-0.2-1.5-0.6c-0.4-0.6-0.6-1.2-0.5-1.9v-4h-1.1v-1h1.1v-1.8L433.7,282.5z"/>
<path class="st2" d="M437.8,288.5c-0.1,1.3,0.8,2.4,2.1,2.6c0.1,0,0.3,0,0.4,0c0.7,0,1.4-0.1,2-0.4l0.2,1c-0.8,0.3-1.6,0.5-2.5,0.5
	c-1.9,0.1-3.5-1.3-3.6-3.2c0-0.2,0-0.3,0-0.5c0-2.2,1.3-4,3.5-4c2.4,0,3,2.1,3,3.5c0,0.2,0,0.4,0,0.6L437.8,288.5z M441.7,287.5
	c0.1-1-0.6-2-1.6-2.2c-0.1,0-0.2,0-0.2,0c-1.1,0.1-2,1-2.1,2.2H441.7z"/>
<path class="st2" d="M617.3,211.5h-12.5l0,0v-77.3l0,0H623l0,0v71.7C623,209,620.4,211.5,617.3,211.5L617.3,211.5z"/>
<path class="st2" d="M649,211.5h-20l0,0v-77.3l0,0h25.6l0,0v71.7C654.6,209,652.1,211.5,649,211.5z"/>
<path class="st2" d="M946.4,211.5H663.1l0,0v-77.3l0,0H952l0,0v71.7C952,209,949.5,211.5,946.4,211.5L946.4,211.5z"/>
<line class="st3" x1="611.3" y1="312.7" x2="611.3" y2="210.9"/>
<path class="st2" d="M594.6,334.9l-2.6-10.3h1.4l1.2,5.2c0.3,1.3,0.6,2.5,0.8,3.5l0,0c0.2-1,0.5-2.2,0.8-3.6l1.4-5.2h1.4l1.3,5.2
	c0.3,1.2,0.6,2.5,0.7,3.5l0,0c0.2-1.1,0.5-2.3,0.8-3.5l1.4-5.2h1.4l-2.9,10.3h-1.4l-1.2-5.3c-0.3-1.1-0.5-2.2-0.7-3.4l0,0
	c-0.2,1.1-0.5,2.3-0.8,3.4l-1.5,5.3H594.6z"/>
<path class="st2" d="M611.2,330h-4v3.7h4.5v1.1h-5.8v-10.2h5.5v1.1h-4.2v3.3h4L611.2,330z"/>
<path class="st2" d="M613.3,324.7c0.9-0.1,1.9-0.2,2.8-0.2c1.5-0.1,3,0.3,4.2,1.3c1,0.9,1.5,2.3,1.5,3.7c0.1,1.5-0.5,2.9-1.5,4
	c-1.3,1.1-2.9,1.6-4.5,1.5c-0.8,0-1.6,0-2.4-0.1L613.3,324.7z M614.7,333.8c0.4,0,0.9,0.1,1.3,0.1c2.8,0,4.4-1.6,4.4-4.4
	c0-2.4-1.3-4-4.2-4c-0.5,0-1,0-1.6,0.1V333.8z"/>
<path class="st2" d="M632.3,329.6c0,3.5-2.2,5.4-4.8,5.4s-4.6-2.1-4.6-5.2c0-3.3,2-5.4,4.8-5.4S632.3,326.6,632.3,329.6z
	 M624.3,329.8c0,2.2,1.2,4.2,3.3,4.2s3.3-1.9,3.3-4.3c0-2-1.1-4.2-3.3-4.2S624.3,327.5,624.3,329.8L624.3,329.8z"/>
<path class="st2" d="M634,324.7c0.9-0.1,1.9-0.2,2.8-0.2c1.5-0.1,3,0.3,4.2,1.3c1,0.9,1.5,2.3,1.5,3.7c0.1,1.5-0.5,2.9-1.5,4
	c-1.3,1.1-2.9,1.6-4.5,1.5c-0.8,0-1.6,0-2.4-0.1L634,324.7z M635.3,333.8c0.4,0,0.9,0.1,1.3,0.1c2.8,0,4.4-1.6,4.4-4.4
	c0-2.4-1.3-4-4.2-4c-0.5,0-1,0-1.6,0.1V333.8z"/>
<path class="st2" d="M645.6,331.6l-1.1,3.2h-1.4l3.5-10.3h1.6l3.5,10.3h-1.4l-1.1-3.2H645.6z M649,330.6l-1-3
	c-0.2-0.7-0.4-1.3-0.5-1.9l0,0c-0.2,0.6-0.3,1.2-0.5,1.9l-1,3L649,330.6z"/>
<path class="st2" d="M654,325.7h-3.1v-1.1h7.6v1.1h-3.2v9.1H654L654,325.7z"/>
<path class="st2" d="M660.2,331.6l-1.1,3.2h-1.4l3.5-10.3h1.6l3.5,10.3h-1.4l-1.1-3.2H660.2z M663.6,330.6l-1-3
	c-0.2-0.7-0.4-1.3-0.5-1.9l0,0c-0.2,0.6-0.3,1.2-0.5,1.9l-1,3L663.6,330.6z"/>
<path class="st2" d="M599.3,342.3v8.9c0,0.6,0,1.4,0.1,1.9h-1.2l-0.1-1.3l0,0c-0.5,0.9-1.5,1.5-2.5,1.5c-1.8,0-3.2-1.5-3.2-3.8
	c0-2.5,1.5-4,3.3-4c0.9-0.1,1.7,0.4,2.2,1.1l0,0v-4.4L599.3,342.3z M597.9,348.8c0-0.2,0-0.4,0-0.6c-0.2-0.9-1.1-1.6-2-1.5
	c-1.4,0-2.2,1.2-2.2,2.8s0.7,2.7,2.2,2.7c1,0,1.8-0.7,2-1.6c0-0.2,0.1-0.4,0.1-0.6L597.9,348.8z"/>
<path class="st2" d="M605.6,353.1l-0.1-0.9l0,0c-0.5,0.7-1.4,1.1-2.2,1.1c-1.2,0.1-2.2-0.8-2.3-2c0-0.1,0-0.1,0-0.2
	c0-1.8,1.6-2.8,4.4-2.8v-0.1c0.1-0.8-0.5-1.6-1.3-1.7c-0.1,0-0.2,0-0.4,0c-0.7,0-1.3,0.2-1.9,0.5l-0.3-0.9c0.7-0.4,1.6-0.7,2.4-0.6
	c2.3,0,2.8,1.5,2.8,3v2.8c0,0.6,0,1.2,0.1,1.8L605.6,353.1z M605.4,349.4c-1.5,0-3.1,0.2-3.1,1.7c-0.1,0.6,0.4,1.2,1.1,1.3
	c0.1,0,0.1,0,0.2,0c0.8,0,1.5-0.5,1.8-1.2c0-0.1,0.1-0.3,0.1-0.4V349.4z"/>
<path class="st2" d="M610.4,343.6v2.1h1.9v1h-1.9v4c0,0.9,0.3,1.4,1,1.4c0.3,0,0.5,0,0.8-0.1l0.1,1c-0.4,0.1-0.8,0.2-1.2,0.2
	c-0.5,0-1.1-0.2-1.4-0.6c-0.4-0.6-0.6-1.2-0.5-1.9v-4h-1.2v-1h1.2V344L610.4,343.6z"/>
<path class="st2" d="M617.9,353.1l-0.1-0.9l0,0c-0.5,0.7-1.4,1.1-2.3,1.1c-1.2,0.1-2.2-0.8-2.2-1.9c0-0.1,0-0.1,0-0.2
	c0-1.8,1.6-2.8,4.4-2.8v-0.1c0.1-0.8-0.5-1.6-1.3-1.7c-0.1,0-0.2,0-0.4,0c-0.7,0-1.3,0.2-1.9,0.5l-0.3-0.9c0.7-0.4,1.6-0.7,2.4-0.6
	c2.2,0,2.8,1.5,2.8,3v2.8c0,0.6,0,1.2,0.1,1.8L617.9,353.1z M617.7,349.4c-1.5,0-3.1,0.2-3.1,1.7c-0.1,0.6,0.4,1.2,1.1,1.3
	c0.1,0,0.1,0,0.2,0c0.8,0,1.5-0.5,1.8-1.2c0-0.1,0.1-0.3,0.1-0.4V349.4z"/>
<path class="st2" d="M619.4,355.3c0.5,0,1.1-0.2,1.5-0.6c0.4-0.4,0.5-1,0.5-2.8v-6.2h1.3v6.7c0.1,1.1-0.2,2.2-0.9,3
	c-0.6,0.5-1.5,0.8-2.3,0.8L619.4,355.3z M622.8,343.7c0,0.4-0.3,0.8-0.8,0.8c0,0-0.1,0-0.1,0c-0.4,0-0.8-0.3-0.8-0.8c0,0,0,0,0-0.1
	c0-0.4,0.3-0.8,0.8-0.8c0,0,0,0,0.1,0C622.5,342.8,622.8,343.2,622.8,343.7C622.8,343.7,622.8,343.7,622.8,343.7L622.8,343.7z"/>
<path class="st2" d="M631.5,349.4c0.2,2-1.3,3.7-3.3,3.9c-0.1,0-0.3,0-0.4,0c-1.9,0-3.5-1.5-3.6-3.5c0-0.1,0-0.2,0-0.3
	c-0.2-2,1.3-3.7,3.3-3.9c0.1,0,0.3,0,0.4,0c1.9,0,3.5,1.5,3.6,3.4C631.6,349.1,631.6,349.3,631.5,349.4z M625.7,349.5
	c0,1.6,0.9,2.8,2.2,2.8s2.2-1.2,2.2-2.9c0-1.2-0.6-2.8-2.2-2.8S625.7,348.1,625.7,349.5L625.7,349.5z"/>
<path class="st2" d="M639.4,351.1c0,0.8,0,1.4,0.1,2h-1.2l-0.1-1.2l0,0c-0.5,0.9-1.4,1.4-2.4,1.4c-1.2,0-2.5-0.6-2.5-3.2v-4.3h1.3
	v4.1c0,1.4,0.4,2.4,1.7,2.4c0.8,0,1.5-0.5,1.8-1.2c0.1-0.2,0.1-0.5,0.1-0.7v-4.5h1.3L639.4,351.1z"/>
<path class="st2" d="M641.7,348.1c0-0.9,0-1.6-0.1-2.3h1.2v1.4h0c0.3-0.9,1.1-1.5,2-1.6c0.1,0,0.3,0,0.4,0v1.3c-0.2,0-0.3,0-0.5,0
	c-0.9,0-1.7,0.8-1.8,1.7c0,0.2-0.1,0.4-0.1,0.6v3.9h-1.3L641.7,348.1z"/>
<path class="st2" d="M646.7,347.8c0-0.8,0-1.4-0.1-2h1.2l0.1,1.2l0,0c0.5-0.9,1.4-1.4,2.4-1.4c1,0,2.6,0.6,2.6,3.1v4.4h-1.3v-4.2
	c0-1.2-0.4-2.2-1.7-2.2c-0.8,0-1.6,0.6-1.8,1.4c-0.1,0.2-0.1,0.4-0.1,0.6v4.4h-1.3V347.8z"/>
<path class="st2" d="M659.2,353.1l-0.1-0.9l0,0c-0.5,0.7-1.4,1.1-2.3,1.1c-1.2,0.1-2.2-0.8-2.2-1.9c0-0.1,0-0.1,0-0.2
	c0-1.8,1.6-2.8,4.4-2.8v-0.1c0.1-0.8-0.5-1.6-1.3-1.7c-0.1,0-0.2,0-0.4,0c-0.7,0-1.3,0.2-1.9,0.5l-0.3-0.9c0.7-0.4,1.6-0.7,2.4-0.6
	c2.3,0,2.8,1.5,2.8,3v2.8c0,0.6,0,1.2,0.1,1.8L659.2,353.1z M659,349.4c-1.5,0-3.1,0.2-3.1,1.7c-0.1,0.6,0.4,1.2,1.1,1.3
	c0.1,0,0.1,0,0.2,0c0.8,0,1.5-0.5,1.8-1.2c0-0.1,0.1-0.3,0.1-0.4V349.4z"/>
<path class="st2" d="M662.5,342.3h1.3v10.8h-1.3V342.3z"/>
<path class="st2" d="M667.6,343.7c0,0.5-0.4,0.8-0.8,0.8c-0.5,0-0.8-0.4-0.8-0.8c0,0,0,0,0,0c0-0.4,0.3-0.8,0.8-0.8c0,0,0,0,0.1,0
	C667.2,342.8,667.6,343.2,667.6,343.7C667.6,343.6,667.6,343.7,667.6,343.7z M666.1,353.1v-7.4h1.3v7.4H666.1z"/>
<path class="st2" d="M669.5,351.8c0.5,0.3,1.2,0.5,1.8,0.5c1,0,1.4-0.5,1.4-1.1s-0.4-1-1.4-1.4c-1.3-0.5-2-1.2-2-2.1
	c0.1-1.3,1.1-2.2,2.4-2.2c0.1,0,0.1,0,0.2,0c0.6,0,1.3,0.1,1.8,0.5l-0.3,1c-0.5-0.3-1-0.4-1.5-0.4c-0.8,0-1.2,0.5-1.2,1
	s0.4,0.9,1.4,1.3c1.3,0.5,1.9,1.1,1.9,2.2c0,1.3-1,2.2-2.8,2.2c-0.7,0-1.4-0.2-2.1-0.5L669.5,351.8z"/>
<path class="st2" d="M677.3,343.6v2.1h1.9v1h-1.9v4c0,0.9,0.3,1.4,1,1.4c0.3,0,0.5,0,0.8-0.1l0.1,1c-0.4,0.1-0.8,0.2-1.2,0.2
	c-0.5,0-1.1-0.2-1.5-0.6c-0.4-0.6-0.6-1.2-0.5-1.9v-4h-1.1v-1h1.2V344L677.3,343.6z"/>
<path class="st2" d="M681.4,349.7c-0.1,1.3,0.8,2.4,2.1,2.6c0.1,0,0.3,0,0.4,0c0.7,0,1.4-0.1,2-0.4l0.2,1c-0.8,0.3-1.6,0.5-2.5,0.5
	c-1.9,0.1-3.5-1.3-3.6-3.2c0-0.2,0-0.3,0-0.5c0-2.2,1.3-4,3.5-4c2.4,0,3,2.1,3,3.5c0,0.2,0,0.4,0,0.6L681.4,349.7z M685.3,348.7
	c0.1-1-0.6-2-1.6-2.2c-0.1,0-0.2,0-0.2,0c-1.1,0.1-2,1-2.1,2.2H685.3z"/>
<line class="st3" x1="639.6" y1="236.1" x2="639.6" y2="211.4"/>
<line class="st3" x1="714.4" y1="238.2" x2="623.3" y2="237.2"/>
<path class="st2" d="M624.5,247.4h1.3v9.1h4.4v1.1h-5.7L624.5,247.4z"/>
<path class="st2" d="M633,247.4v10.3h-1.3v-10.3H633z"/>
<path class="st2" d="M635.3,247.5c0.8-0.2,1.6-0.2,2.4-0.2c1-0.1,2,0.2,2.8,0.7c0.6,0.4,0.9,1.1,0.9,1.8c0,1-0.7,2-1.7,2.2l0,0
	c1.2,0.2,2.1,1.3,2.1,2.6c0,0.8-0.3,1.5-0.9,2c-1,0.8-2.3,1.1-3.5,1c-0.7,0-1.4,0-2.1-0.1V247.5z M636.7,251.7h1.2
	c1.4,0,2.2-0.7,2.2-1.7c0-1.2-0.9-1.7-2.2-1.7c-0.4,0-0.8,0-1.2,0.1V251.7z M636.7,256.6c0.4,0.1,0.7,0.1,1.1,0.1
	c1.4,0,2.6-0.5,2.6-2s-1.2-2-2.7-2h-1.1V256.6z"/>
<path class="st2" d="M648.9,252.8h-4v3.7h4.5v1.1h-5.8v-10.3h5.5v1.1h-4.2v3.2h4L648.9,252.8z M648.7,245.1l-2,1.8h-1.1l1.4-1.8
	H648.7z"/>
<path class="st2" d="M651.1,247.5c0.8-0.2,1.7-0.2,2.5-0.2c1.1-0.1,2.1,0.2,3,0.8c0.6,0.5,0.8,1.2,0.8,2c0,1.2-0.8,2.3-1.9,2.6l0,0
	c0.8,0.4,1.4,1.2,1.5,2.1c0.2,1,0.4,1.9,0.8,2.8h-1.4c-0.3-0.8-0.5-1.6-0.7-2.5c-0.3-1.4-0.9-1.9-2.1-2h-1.2v4.4h-1.3L651.1,247.5z
	 M652.4,252.2h1.3c1.4,0,2.3-0.8,2.3-1.9c0-1.3-1-1.9-2.4-1.9c-0.4,0-0.9,0-1.3,0.1V252.2z"/>
<path class="st2" d="M661,254.4l-1,3.2h-1.4l3.5-10.3h1.6l3.5,10.3h-1.4l-1.1-3.2H661z M664.4,253.4l-1-2.9
	c-0.2-0.7-0.4-1.3-0.5-1.9l0,0c-0.2,0.6-0.3,1.2-0.5,1.9l-1,3L664.4,253.4z"/>
<path class="st2" d="M669.5,248.5h-3.1v-1.1h7.6v1.1h-3.2v9.1h-1.3L669.5,248.5z"/>
<path class="st2" d="M676.4,247.4v10.3h-1.3v-10.3H676.4z"/>
<path class="st2" d="M687.5,252.4c0,3.5-2.1,5.4-4.8,5.4s-4.6-2.1-4.6-5.2s2-5.4,4.8-5.4S687.5,249.4,687.5,252.4z M679.5,252.6
	c0,2.2,1.2,4.2,3.3,4.2s3.3-1.9,3.3-4.3c0-2.1-1.1-4.2-3.3-4.2S679.5,250.3,679.5,252.6L679.5,252.6z"/>
<path class="st2" d="M689.2,257.6v-10.3h1.5l3.3,5.2c0.7,1.1,1.3,2.2,1.8,3.3l0,0c-0.1-1.4-0.1-2.6-0.1-4.2v-4.3h1.3v10.3h-1.3
	l-3.3-5.2c-0.7-1.1-1.3-2.3-1.9-3.4h0c0.1,1.3,0.1,2.5,0.1,4.2v4.4L689.2,257.6z"/>
<path class="st2" d="M630.8,265.1v8.9c0,0.7,0,1.4,0.1,1.9h-1.2l-0.1-1.3l0,0c-0.5,0.9-1.5,1.5-2.5,1.4c-1.8,0-3.2-1.5-3.2-3.7
	c0-2.5,1.5-4,3.3-4c0.9-0.1,1.7,0.4,2.2,1.1l0,0V265L630.8,265.1z M629.5,271.6c0-0.2,0-0.4-0.1-0.6c-0.2-0.9-1-1.5-1.9-1.5
	c-1.4,0-2.2,1.2-2.2,2.8s0.7,2.7,2.2,2.7c1,0,1.8-0.7,2-1.6c0-0.2,0.1-0.4,0.1-0.6L629.5,271.6z"/>
<path class="st2" d="M637.1,276l-0.1-1l0,0c-0.5,0.7-1.4,1.1-2.2,1.1c-1.2,0.1-2.2-0.8-2.2-1.9c0-0.1,0-0.1,0-0.2
	c0-1.8,1.6-2.8,4.4-2.8v-0.1c0.1-0.8-0.5-1.6-1.3-1.7c-0.1,0-0.2,0-0.4,0c-0.7,0-1.3,0.2-1.9,0.5L633,269c0.7-0.4,1.6-0.7,2.4-0.6
	c2.2,0,2.8,1.5,2.8,3v2.8c0,0.6,0,1.2,0.1,1.8L637.1,276z M636.9,272.2c-1.5,0-3.1,0.2-3.1,1.7c-0.1,0.6,0.4,1.2,1.1,1.3
	c0.1,0,0.1,0,0.2,0c0.8,0,1.5-0.5,1.8-1.2c0-0.1,0.1-0.3,0.1-0.4V272.2z"/>
<path class="st2" d="M641.9,266.5v2.1h1.9v1h-1.9v4c0,0.9,0.3,1.4,1,1.4c0.3,0,0.5,0,0.8-0.1l0.1,1c-0.4,0.1-0.8,0.2-1.2,0.2
	c-0.5,0-1.1-0.2-1.5-0.6c-0.4-0.6-0.6-1.2-0.5-1.9v-4h-1.1v-1h1.1v-1.8L641.9,266.5z"/>
<path class="st2" d="M649.5,276l-0.1-0.9l0,0c-0.5,0.7-1.4,1.1-2.3,1.1c-1.2,0.1-2.2-0.7-2.3-1.9c0-0.1,0-0.2,0-0.3
	c0-1.8,1.6-2.8,4.4-2.8v-0.1c0.1-0.8-0.5-1.6-1.3-1.7c-0.1,0-0.2,0-0.4,0c-0.7,0-1.3,0.2-1.9,0.5l-0.3-0.9c0.7-0.4,1.6-0.7,2.4-0.6
	c2.3,0,2.8,1.5,2.8,3v2.8c0,0.6,0,1.2,0.1,1.8L649.5,276z M649.3,272.2c-1.5,0-3.1,0.2-3.1,1.7c-0.1,0.6,0.4,1.2,1.1,1.3
	c0.1,0,0.1,0,0.2,0c0.8,0,1.5-0.5,1.8-1.2c0-0.1,0.1-0.3,0.1-0.4V272.2z"/>
<path class="st2" d="M650.9,278.1c0.5,0,1.1-0.2,1.5-0.6c0.4-0.4,0.5-1,0.5-2.8v-6.2h1.3v6.7c0.1,1.1-0.2,2.2-0.9,3
	c-0.6,0.5-1.5,0.8-2.3,0.8L650.9,278.1z M654.4,266.5c0,0.5-0.4,0.8-0.8,0.8c-0.5,0-0.8-0.4-0.8-0.8c0,0,0,0,0,0
	c0-0.4,0.3-0.8,0.8-0.8c0,0,0,0,0.1,0C654,265.6,654.4,266,654.4,266.5C654.4,266.4,654.4,266.5,654.4,266.5L654.4,266.5z"/>
<path class="st2" d="M663.1,272.2c0.2,2-1.3,3.7-3.3,3.9c-0.1,0-0.3,0-0.4,0c-1.9,0-3.5-1.5-3.6-3.4c0-0.1,0-0.2,0-0.3
	c-0.2-2,1.3-3.7,3.3-3.9c0.1,0,0.3,0,0.4,0c1.9,0,3.5,1.5,3.6,3.4C663.1,271.9,663.1,272.1,663.1,272.2z M657.3,272.3
	c0,1.6,0.9,2.8,2.2,2.8s2.2-1.2,2.2-2.9c0-1.2-0.6-2.8-2.2-2.8S657.3,270.9,657.3,272.3z"/>
<path class="st2" d="M671,273.9c0,0.8,0,1.4,0.1,2h-1.2l-0.1-1.2l0,0c-0.5,0.9-1.4,1.4-2.4,1.4c-1.2,0-2.5-0.6-2.5-3.2v-4.3h1.3v4.1
	c0,1.4,0.4,2.4,1.7,2.4c0.8,0,1.5-0.5,1.8-1.2c0.1-0.2,0.1-0.5,0.1-0.7v-4.5h1.3V273.9z"/>
<path class="st2" d="M673.2,270.9c0-0.9,0-1.6-0.1-2.3h1.2v1.5l0,0c0.3-0.9,1.1-1.6,2.1-1.6c0.1,0,0.2,0,0.4,0v1.3
	c-0.2,0-0.3,0-0.5,0c-0.9,0-1.7,0.8-1.8,1.7c0,0.2,0,0.4,0,0.6v4h-1.2V270.9z"/>
<path class="st2" d="M678.2,270.6c0-0.8,0-1.4-0.1-2h1.2l0.1,1.2l0,0c0.5-0.9,1.4-1.4,2.4-1.4c1,0,2.6,0.6,2.6,3.1v4.5h-1.3v-4.3
	c0-1.2-0.5-2.2-1.7-2.2c-0.8,0-1.6,0.6-1.8,1.4c-0.1,0.2-0.1,0.4-0.1,0.6v4.5h-1.3L678.2,270.6z"/>
<path class="st2" d="M690.8,276l-0.1-0.9l0,0c-0.5,0.7-1.4,1.1-2.2,1.1c-1.2,0.1-2.2-0.8-2.2-1.9c0-0.1,0-0.1,0-0.2
	c0-1.8,1.6-2.8,4.4-2.8v-0.1c0.1-0.8-0.5-1.6-1.3-1.7c-0.1,0-0.2,0-0.4,0c-0.7,0-1.3,0.2-1.9,0.5l-0.3-0.9c0.7-0.4,1.6-0.7,2.4-0.6
	c2.2,0,2.8,1.5,2.8,3v2.8c0,0.6,0,1.2,0.1,1.8H690.8z M690.6,272.2c-1.5,0-3.1,0.2-3.1,1.7c-0.1,0.6,0.4,1.2,1.1,1.3
	c0.1,0,0.1,0,0.2,0c0.8,0,1.5-0.5,1.8-1.2c0-0.1,0.1-0.3,0.1-0.4V272.2z"/>
<path class="st2" d="M694.1,265.1h1.3V276h-1.3V265.1z"/>
<path class="st2" d="M699.2,266.5c0,0.4-0.3,0.8-0.8,0.8c0,0-0.1,0-0.1,0c-0.4,0-0.8-0.3-0.8-0.8c0,0,0,0,0-0.1
	c0-0.5,0.4-0.8,0.8-0.8C698.8,265.7,699.2,266,699.2,266.5z M697.7,275.9v-7.4h1.3v7.4L697.7,275.9z"/>
<path class="st2" d="M701,274.6c0.5,0.3,1.1,0.5,1.8,0.5c1,0,1.4-0.5,1.4-1.1s-0.4-1-1.4-1.4c-1.3-0.5-2-1.2-2-2.1
	c0.1-1.3,1.1-2.2,2.4-2.2c0.1,0,0.1,0,0.2,0c0.6,0,1.3,0.1,1.8,0.5l-0.3,1c-0.5-0.3-1-0.4-1.5-0.4c-0.8,0-1.2,0.5-1.2,1
	s0.4,0.9,1.4,1.3c1.3,0.5,1.9,1.1,1.9,2.2c0,1.3-1,2.2-2.8,2.2c-0.7,0-1.4-0.2-2.1-0.5L701,274.6z"/>
<path class="st2" d="M708.9,266.5v2.1h1.9v1h-1.9v4c0,0.9,0.3,1.4,1,1.4c0.3,0,0.5,0,0.8-0.1l0.1,1c-0.4,0.1-0.8,0.2-1.2,0.2
	c-0.5,0-1.1-0.2-1.5-0.6c-0.4-0.6-0.6-1.2-0.5-1.9v-4h-1.1v-1h1.1v-1.8L708.9,266.5z"/>
<path class="st2" d="M713,272.5c-0.1,1.3,0.8,2.4,2.1,2.6c0.1,0,0.3,0,0.4,0c0.7,0,1.4-0.1,2-0.4l0.2,1c-0.8,0.3-1.6,0.5-2.5,0.5
	c-1.9,0.1-3.5-1.3-3.6-3.2c0-0.2,0-0.3,0-0.5c0-2.2,1.3-4,3.5-4c2.4,0,3,2.1,3,3.5c0,0.2,0,0.4,0,0.6L713,272.5z M716.9,271.5
	c0.2-1-0.6-2-1.6-2.1c-0.1,0-0.2,0-0.3,0c-1.2,0.1-2.1,1-2.1,2.2H716.9z"/>
<line class="st3" x1="785.1" y1="236.1" x2="785.1" y2="211.4"/>
<line class="st3" x1="887.5" y1="237.7" x2="768.8" y2="237.2"/>
<path class="st2" d="M771.7,257.6l-2.6-10.3h1.4l1.2,5.2c0.3,1.3,0.6,2.6,0.8,3.5l0,0c0.2-1,0.5-2.2,0.8-3.6l1.4-5.2h1.4l1.3,5.2
	c0.3,1.2,0.6,2.4,0.7,3.5l0,0c0.2-1.1,0.5-2.3,0.8-3.6l1.4-5.2h1.4l-2.9,10.3h-1.4l-1.2-5.3c-0.3-1.1-0.5-2.2-0.7-3.4l0,0
	c-0.2,1.1-0.5,2.3-0.8,3.4l-1.5,5.3H771.7z"/>
<path class="st2" d="M788.2,252.8h-4v3.7h4.5v1.1h-5.8v-10.3h5.5v1.1h-4.2v3.3h4L788.2,252.8z"/>
<path class="st2" d="M790.4,247.5c0.9-0.1,1.9-0.2,2.8-0.2c1.5-0.1,3,0.3,4.2,1.3c1,1,1.5,2.3,1.5,3.7c0.1,1.5-0.5,2.9-1.5,4
	c-1.3,1.1-2.9,1.6-4.5,1.5c-0.8,0-1.6,0-2.4-0.1L790.4,247.5z M791.7,256.6c0.4,0,0.9,0.1,1.3,0.1c2.8,0,4.4-1.6,4.4-4.4
	c0-2.4-1.3-4-4.2-4c-0.5,0-1,0-1.6,0.1V256.6z"/>
<path class="st2" d="M809.3,252.4c0,3.5-2.2,5.4-4.8,5.4s-4.6-2.1-4.6-5.2c0-3.3,2-5.4,4.8-5.4S809.3,249.4,809.3,252.4z
	 M801.3,252.6c0,2.2,1.2,4.2,3.3,4.2s3.3-1.9,3.3-4.3c0-2-1.1-4.2-3.3-4.2S801.3,250.3,801.3,252.6L801.3,252.6z"/>
<path class="st2" d="M811,247.5c0.9-0.1,1.9-0.2,2.8-0.2c1.5-0.1,3,0.3,4.2,1.3c1,1,1.5,2.3,1.5,3.7c0.1,1.5-0.5,2.9-1.5,4
	c-1.3,1.1-2.9,1.6-4.5,1.5c-0.8,0-1.6,0-2.4-0.1L811,247.5z M812.4,256.6c0.4,0,0.9,0.1,1.3,0.1c2.8,0,4.4-1.6,4.4-4.4
	c0-2.4-1.4-4-4.2-4c-0.5,0-1,0-1.6,0.1V256.6z"/>
<path class="st2" d="M822.7,254.4l-1.1,3.2h-1.4l3.5-10.3h1.6l3.5,10.3h-1.4l-1.1-3.2H822.7z M826,253.4l-1-3
	c-0.2-0.7-0.4-1.3-0.5-1.9l0,0c-0.2,0.6-0.3,1.2-0.5,1.9l-1,3L826,253.4z"/>
<path class="st2" d="M831.1,248.5H828v-1.1h7.6v1.1h-3.2v9.1h-1.3L831.1,248.5z"/>
<path class="st2" d="M837.2,254.4l-1.1,3.2h-1.4l3.5-10.3h1.6l3.5,10.3H842l-1.1-3.2H837.2z M840.6,253.4l-1-3
	c-0.2-0.7-0.4-1.3-0.5-1.9l0,0c-0.2,0.6-0.3,1.2-0.5,1.9l-1,3L840.6,253.4z"/>
<path class="st2" d="M776.3,265.1v8.9c0,0.6,0,1.4,0.1,1.9h-1.2l-0.1-1.3l0,0c-0.5,0.9-1.5,1.5-2.5,1.4c-1.8,0-3.2-1.5-3.2-3.8
	c0-2.5,1.5-4,3.3-4c0.9-0.1,1.7,0.4,2.2,1.1l0,0v-4.4L776.3,265.1z M775,271.6c0-0.2,0-0.4-0.1-0.6c-0.2-0.9-1-1.5-1.9-1.5
	c-1.4,0-2.2,1.2-2.2,2.8s0.7,2.7,2.2,2.7c1,0,1.8-0.7,2-1.6c0-0.2,0.1-0.4,0.1-0.6L775,271.6z"/>
<path class="st2" d="M782.6,276l-0.1-0.9l0,0c-0.5,0.7-1.4,1.1-2.3,1.1c-1.2,0.1-2.2-0.8-2.3-1.9c0-0.1,0-0.2,0-0.2
	c0-1.8,1.6-2.8,4.4-2.7v-0.2c0.1-0.8-0.5-1.6-1.3-1.7c-0.1,0-0.2,0-0.4,0c-0.7,0-1.3,0.2-1.9,0.5l-0.3-0.9c0.7-0.4,1.6-0.7,2.4-0.6
	c2.3,0,2.8,1.5,2.8,3v2.8c0,0.6,0,1.2,0.1,1.8L782.6,276z M782.4,272.2c-1.5,0-3.1,0.2-3.1,1.6c-0.1,0.6,0.4,1.2,1.1,1.3
	c0.1,0,0.1,0,0.2,0c0.8,0,1.5-0.5,1.8-1.2c0-0.1,0.1-0.3,0.1-0.4V272.2z"/>
<path class="st2" d="M787.5,266.5v2.1h1.9v1h-1.9v4c0,0.9,0.3,1.4,1,1.4c0.3,0,0.5,0,0.8-0.1l0.1,1c-0.4,0.1-0.8,0.2-1.2,0.2
	c-0.5,0-1.1-0.2-1.5-0.6c-0.4-0.6-0.6-1.2-0.5-1.9v-4H785v-1h1.1v-1.8L787.5,266.5z"/>
<path class="st2" d="M795,276l-0.1-0.9l0,0c-0.5,0.7-1.4,1.1-2.2,1.1c-1.2,0.1-2.2-0.8-2.2-1.9c0-0.1,0-0.1,0-0.2
	c0-1.8,1.6-2.8,4.4-2.7v-0.2c0.1-0.8-0.5-1.6-1.3-1.7c-0.1,0-0.2,0-0.4,0c-0.7,0-1.3,0.2-1.9,0.5l-0.3-0.9c0.7-0.4,1.6-0.7,2.4-0.6
	c2.2,0,2.8,1.5,2.8,3v2.8c0,0.6,0,1.2,0.1,1.8L795,276z M794.8,272.2c-1.5,0-3.1,0.2-3.1,1.6c-0.1,0.6,0.4,1.2,1.1,1.3
	c0.1,0,0.1,0,0.2,0c0.8,0,1.5-0.5,1.8-1.2c0-0.1,0.1-0.3,0.1-0.4V272.2z"/>
<path class="st2" d="M796.4,278.1c0.5,0,1.1-0.2,1.5-0.6c0.4-0.4,0.5-1,0.5-2.8v-6.2h1.3v6.7c0.1,1.1-0.2,2.2-0.9,3
	c-0.6,0.5-1.5,0.8-2.3,0.8L796.4,278.1z M799.9,266.5c0,0.4-0.3,0.8-0.8,0.8c0,0,0,0-0.1,0c-0.4,0-0.8-0.3-0.8-0.8c0,0,0,0,0-0.1
	c0-0.4,0.3-0.8,0.8-0.8c0,0,0,0,0.1,0C799.5,265.6,799.9,266,799.9,266.5C799.9,266.5,799.9,266.5,799.9,266.5L799.9,266.5z"/>
<path class="st2" d="M808.6,272.2c0.2,2-1.3,3.7-3.3,3.9c-0.1,0-0.3,0-0.4,0c-1.9,0-3.5-1.5-3.6-3.5c0-0.1,0-0.2,0-0.3
	c-0.2-2,1.3-3.7,3.3-3.9c0.1,0,0.3,0,0.4,0c1.9,0,3.5,1.5,3.6,3.4C808.6,271.9,808.6,272.1,808.6,272.2z M802.8,272.3
	c0,1.6,0.9,2.8,2.2,2.8s2.2-1.2,2.2-2.9c0-1.2-0.6-2.8-2.2-2.8S802.8,270.9,802.8,272.3z"/>
<path class="st2" d="M816.5,273.9c0,0.8,0,1.4,0.1,2h-1.2l-0.1-1.2l0,0c-0.5,0.9-1.4,1.4-2.4,1.4c-1.2,0-2.5-0.6-2.5-3.2v-4.3h1.3
	v4.1c0,1.4,0.4,2.4,1.7,2.4c0.8,0,1.5-0.5,1.8-1.2c0.1-0.2,0.1-0.5,0.1-0.7v-4.5h1.3L816.5,273.9z"/>
<path class="st2" d="M818.7,270.9c0-0.9,0-1.6-0.1-2.3h1.2v1.4l0,0c0.3-0.9,1.1-1.6,2-1.6c0.1,0,0.2,0,0.4,0v1.3c-0.1,0-0.3,0-0.5,0
	c-0.9,0-1.7,0.8-1.8,1.7c0,0.2,0,0.4,0,0.6v4h-1.3L818.7,270.9z"/>
<path class="st2" d="M823.8,270.6c0-0.8,0-1.4-0.1-2h1.2l0.1,1.2l0,0c0.5-0.9,1.4-1.4,2.4-1.4c1,0,2.6,0.6,2.6,3.1v4.5h-1.3v-4.3
	c0-1.2-0.5-2.2-1.7-2.2c-0.8,0-1.6,0.6-1.8,1.4c-0.1,0.2-0.1,0.4-0.1,0.6v4.5h-1.3L823.8,270.6z"/>
<path class="st2" d="M836.3,276l-0.1-0.9l0,0c-0.5,0.7-1.4,1.1-2.3,1.1c-1.2,0.1-2.2-0.8-2.2-1.9c0-0.1,0-0.1,0-0.2
	c0-1.8,1.6-2.8,4.4-2.7v-0.2c0.1-0.8-0.5-1.6-1.3-1.7c-0.1,0-0.2,0-0.4,0c-0.7,0-1.3,0.2-1.9,0.5l-0.3-0.9c0.7-0.4,1.6-0.7,2.4-0.6
	c2.2,0,2.8,1.5,2.8,3v2.8c0,0.6,0,1.2,0.1,1.8L836.3,276z M836.1,272.2c-1.5,0-3.1,0.2-3.1,1.6c-0.1,0.6,0.4,1.2,1.1,1.3
	c0.1,0,0.1,0,0.2,0c0.8,0,1.5-0.5,1.8-1.2c0-0.1,0.1-0.3,0.1-0.4V272.2z"/>
<path class="st2" d="M839.6,265.1h1.3V276h-1.3V265.1z"/>
<path class="st2" d="M844.7,266.5c0,0.4-0.3,0.8-0.8,0.8c0,0,0,0-0.1,0c-0.4,0-0.8-0.3-0.8-0.8c0,0,0,0,0-0.1c0-0.4,0.3-0.8,0.8-0.8
	c0,0,0,0,0,0C844.3,265.6,844.6,266,844.7,266.5C844.7,266.4,844.7,266.5,844.7,266.5z M843.2,275.9v-7.4h1.3v7.4L843.2,275.9z"/>
<path class="st2" d="M846.5,274.6c0.5,0.3,1.2,0.5,1.8,0.5c1,0,1.4-0.5,1.4-1.1s-0.4-1-1.4-1.4c-1.3-0.5-2-1.2-2-2.1
	c0.1-1.3,1.1-2.2,2.4-2.2c0.1,0,0.1,0,0.2,0c0.6,0,1.3,0.1,1.8,0.5l-0.3,1c-0.5-0.3-1-0.4-1.5-0.4c-0.8,0-1.2,0.5-1.2,1
	s0.4,0.9,1.4,1.2c1.3,0.5,1.9,1.1,1.9,2.2c0,1.3-1,2.2-2.8,2.2c-0.7,0-1.4-0.2-2.1-0.5L846.5,274.6z"/>
<path class="st2" d="M854.4,266.5v2.1h1.9v1h-1.9v4c0,0.9,0.3,1.4,1,1.4c0.3,0,0.5,0,0.8-0.1l0.1,1c-0.4,0.1-0.8,0.2-1.2,0.2
	c-0.5,0-1.1-0.2-1.4-0.6c-0.4-0.6-0.6-1.2-0.5-1.9v-4h-1.2v-1h1.2v-1.8L854.4,266.5z"/>
<path class="st2" d="M858.5,272.5c-0.1,1.3,0.8,2.4,2.1,2.5c0.1,0,0.3,0,0.4,0c0.7,0,1.4-0.1,2-0.4l0.2,1c-0.8,0.3-1.6,0.5-2.5,0.5
	c-1.9,0.1-3.5-1.3-3.6-3.2c0-0.2,0-0.3,0-0.5c0-2.2,1.3-4,3.5-4c2.4,0,3,2.1,3,3.5c0,0.2,0,0.4,0,0.6L858.5,272.5z M862.4,271.5
	c0.1-1-0.6-2-1.6-2.2c-0.1,0-0.1,0-0.2,0c-1.1,0.1-2,1-2.1,2.2H862.4z"/>
<path class="st2" d="M776.3,283.4v8.9c0,0.7,0,1.4,0.1,1.9h-1.2l-0.1-1.3l0,0c-0.5,0.9-1.5,1.5-2.5,1.4c-1.8,0-3.2-1.5-3.2-3.7
	c0-2.5,1.5-4,3.3-4c0.9-0.1,1.7,0.4,2.2,1.1l0,0v-4.4L776.3,283.4z M775,289.9c0-0.2,0-0.4-0.1-0.6c-0.2-0.9-1-1.5-1.9-1.5
	c-1.4,0-2.2,1.2-2.2,2.8s0.8,2.7,2.2,2.7c1,0,1.8-0.7,2-1.6c0-0.2,0.1-0.4,0.1-0.6L775,289.9z"/>
<path class="st2" d="M779.3,290.8c-0.1,1.3,0.8,2.4,2.1,2.6c0.1,0,0.3,0,0.4,0c0.7,0,1.4-0.1,2-0.4l0.2,1c-0.8,0.3-1.6,0.5-2.5,0.5
	c-1.9,0.1-3.5-1.3-3.6-3.2c0-0.2,0-0.3,0-0.5c0-2.2,1.3-4,3.5-4c2.4,0,3,2.1,3,3.5c0,0.2,0,0.4,0,0.6L779.3,290.8z M783.2,289.8
	c0.2-1-0.6-2-1.6-2.1c-0.1,0-0.2,0-0.3,0c-1.1,0.1-2,1-2,2.2H783.2z M783.5,283.6l-1.9,2.2h-1l1.3-2.2H783.5z"/>
<path class="st2" d="M786.7,286.9l1.5,4.1c0.2,0.7,0.4,1.3,0.6,1.9l0,0c0.2-0.6,0.4-1.2,0.6-1.9l1.4-4.1h1.4l-2.9,7.4H788l-2.8-7.4
	H786.7z"/>
<path class="st2" d="M794.1,290.8c-0.1,1.3,0.8,2.4,2.1,2.6c0.1,0,0.3,0,0.4,0c0.7,0,1.4-0.1,2-0.4l0.2,1c-0.8,0.3-1.6,0.5-2.5,0.5
	c-1.9,0.1-3.5-1.3-3.6-3.2c0-0.2,0-0.3,0-0.5c0-2.2,1.3-4,3.5-4c2.4,0,3,2.1,3,3.5c0,0.2,0,0.4,0,0.6L794.1,290.8z M798,289.8
	c0.2-1-0.6-2-1.6-2.1c-0.1,0-0.2,0-0.3,0c-1.1,0.1-2,1-2,2.2H798z"/>
<path class="st2" d="M801,283.4h1.3v10.8H801V283.4z"/>
<path class="st2" d="M811.3,290.5c0.2,2-1.3,3.7-3.3,3.9c-0.1,0-0.3,0-0.4,0c-1.9,0-3.5-1.5-3.6-3.4c0-0.1,0-0.2,0-0.3
	c-0.2-2,1.3-3.7,3.3-3.9c0.1,0,0.3,0,0.4,0c1.9,0,3.5,1.5,3.6,3.4C811.3,290.2,811.3,290.4,811.3,290.5z M805.4,290.6
	c0,1.6,0.9,2.8,2.2,2.8s2.2-1.2,2.2-2.9c0-1.2-0.6-2.8-2.2-2.8S805.4,289.2,805.4,290.6L805.4,290.6z"/>
<path class="st2" d="M813,289.3c0-0.9,0-1.7-0.1-2.4h1.2l0.1,1.3l0,0c0.5-0.9,1.5-1.5,2.6-1.4c1.8,0,3.1,1.5,3.1,3.7
	c0,2.6-1.6,4-3.3,4c-0.9,0-1.8-0.4-2.3-1.2l0,0v4H813V289.3z M814.3,291.3c0,0.2,0,0.4,0,0.5c0.2,0.9,1.1,1.6,2,1.6
	c1.4,0,2.2-1.2,2.2-2.9c0-1.5-0.8-2.7-2.2-2.7c-1,0-1.8,0.7-2,1.7c0,0.2-0.1,0.4-0.1,0.5L814.3,291.3z"/>
<path class="st2" d="M821.7,289.3c0-0.9,0-1.7-0.1-2.4h1.2l0.1,1.3l0,0c0.5-0.9,1.6-1.5,2.6-1.4c1.8,0,3.1,1.5,3.1,3.7
	c0,2.6-1.6,4-3.4,4c-0.9,0-1.8-0.4-2.3-1.2l0,0v4h-1.3V289.3z M823,291.3c0,0.2,0,0.4,0.1,0.5c0.2,0.9,1.1,1.6,2,1.6
	c1.4,0,2.2-1.2,2.2-2.9c0-1.5-0.8-2.7-2.2-2.7c-1,0-1.8,0.7-2,1.7c-0.1,0.2-0.1,0.4-0.1,0.5L823,291.3z"/>
<path class="st2" d="M831.1,290.8c-0.1,1.3,0.8,2.4,2.1,2.6c0.1,0,0.3,0,0.4,0c0.7,0,1.4-0.1,2-0.4l0.2,1c-0.8,0.3-1.6,0.5-2.5,0.5
	c-1.9,0.1-3.5-1.3-3.6-3.2c0-0.2,0-0.3,0-0.5c0-2.2,1.3-4,3.5-4c2.4,0,3,2.1,3,3.5c0,0.2,0,0.4,0,0.6L831.1,290.8z M835,289.8
	c0.1-1-0.6-2-1.6-2.2c-0.1,0-0.2,0-0.2,0c-1.1,0.1-2,1-2.1,2.2H835z"/>
<path class="st2" d="M844.2,292.2c0,0.8,0,1.4,0.1,2H843V293l0,0c-0.5,0.9-1.4,1.4-2.4,1.4c-1.2,0-2.5-0.6-2.5-3.2v-4.3h1.3v4.2
	c0,1.4,0.4,2.4,1.7,2.4c0.8,0,1.5-0.5,1.8-1.2c0.1-0.2,0.1-0.5,0.1-0.7v-4.5h1.3L844.2,292.2z"/>
<path class="st2" d="M846.4,289.2c0-0.9,0-1.6-0.1-2.3h1.2v1.5h0c0.3-0.9,1.1-1.6,2.1-1.6c0.1,0,0.2,0,0.4,0v1.3c-0.2,0-0.3,0-0.5,0
	c-0.9,0-1.7,0.8-1.8,1.7c0,0.2-0.1,0.4-0.1,0.6v3.9h-1.3L846.4,289.2z"/>
<path class="st7" d="M125,91.8c0.9-0.2,1.9-0.2,2.8-0.2c1.5-0.1,3,0.3,4.2,1.3c1,1,1.5,2.3,1.4,3.7c0.1,1.5-0.5,2.9-1.5,4
	c-1.3,1.1-2.9,1.6-4.5,1.5c-0.8,0-1.6,0-2.4-0.1L125,91.8z M126.3,100.9c0.4,0.1,0.9,0.1,1.3,0.1c2.8,0,4.4-1.6,4.4-4.4
	c0-2.4-1.4-4-4.2-4c-0.5,0-1,0-1.6,0.1L126.3,100.9z"/>
<path class="st7" d="M136.4,91.6v6.1c0,2.3,1,3.3,2.4,3.3s2.5-1,2.5-3.3v-6.1h1.3v6c0,3.2-1.7,4.4-3.9,4.4s-3.7-1.2-3.7-4.4v-6.1
	H136.4z"/>
<path class="st7" d="M146.9,92.8h-3.1v-1.1h7.6v1.1h-3.1v9.2h-1.3V92.8z"/>
<path class="st7" d="M157.9,91.6h1.3v6.9c0,2.7-1.3,3.6-3.1,3.6c-0.5,0-1-0.1-1.4-0.2l0.2-1.1c0.4,0.1,0.7,0.2,1.1,0.2
	c1.2,0,1.9-0.5,1.9-2.6V91.6z"/>
<path class="st7" d="M168.1,98.2c0.2,2-1.3,3.7-3.3,3.9c-0.1,0-0.2,0-0.4,0c-1.9,0-3.5-1.5-3.6-3.5c0-0.1,0-0.2,0-0.3
	c-0.2-2,1.3-3.7,3.3-3.9c0.1,0,0.3,0,0.4,0c1.9,0,3.5,1.5,3.6,3.4C168.1,97.9,168.1,98,168.1,98.2z M162.2,98.2
	c0,1.6,0.9,2.8,2.2,2.8s2.2-1.2,2.2-2.9c0-1.2-0.6-2.8-2.2-2.8S162.2,96.8,162.2,98.2z"/>
<path class="st7" d="M176,99.9c0,0.8,0,1.4,0.1,2h-1.2l-0.1-1.2l0,0c-0.5,0.9-1.4,1.4-2.4,1.4c-1.1,0-2.5-0.7-2.5-3.2v-4.3h1.3v4.1
	c0,1.4,0.4,2.4,1.6,2.4c0.8,0,1.5-0.5,1.8-1.2c0.1-0.2,0.1-0.5,0.1-0.7v-4.5h1.3V99.9z"/>
<path class="st7" d="M178.2,96.8c0-0.9,0-1.6-0.1-2.3h1.2l0.1,1.4l0,0c0.3-0.9,1.1-1.6,2.1-1.6c0.1,0,0.2,0,0.4,0v1.3
	c-0.2,0-0.3,0-0.5,0c-0.9,0-1.7,0.8-1.8,1.7c0,0.2-0.1,0.4-0.1,0.6v3.9h-1.3L178.2,96.8z"/>
<path class="st7" d="M183.2,96.5c0-0.8,0-1.4-0.1-2h1.2l0.1,1.2l0,0c0.5-0.9,1.4-1.4,2.4-1.4c1,0,2.6,0.6,2.6,3.1v4.4h-1.3v-4.2
	c0-1.2-0.4-2.2-1.7-2.2c-0.8,0-1.6,0.6-1.8,1.4c-0.1,0.2-0.1,0.4-0.1,0.6v4.4h-1.3L183.2,96.5z"/>
<path class="st7" d="M195.8,101.9l-0.1-0.9l0,0c-0.5,0.7-1.4,1.1-2.2,1.1c-1.2,0.1-2.2-0.8-2.3-2c0-0.1,0-0.1,0-0.2
	c0-1.8,1.6-2.8,4.4-2.8v-0.2c0.1-0.8-0.5-1.6-1.3-1.7c-0.1,0-0.2,0-0.4,0c-0.7,0-1.3,0.2-1.9,0.6l-0.3-0.9c0.7-0.4,1.6-0.7,2.4-0.6
	c2.3,0,2.8,1.5,2.8,3v2.8c0,0.6,0,1.2,0.1,1.8L195.8,101.9z M195.6,98.1c-1.4,0-3.1,0.2-3.1,1.7c-0.1,0.6,0.4,1.2,1.1,1.3
	c0.1,0,0.1,0,0.2,0c0.8,0,1.5-0.5,1.8-1.2c0-0.1,0.1-0.3,0.1-0.4V98.1z"/>
<path class="st7" d="M199.1,91.1h1.3v10.8h-1.3V91.1z"/>
<path class="st7" d="M204.1,92.5c0,0.4-0.3,0.8-0.8,0.8c0,0,0,0-0.1,0c-0.4,0-0.8-0.3-0.8-0.8c0,0,0,0,0-0.1c0-0.5,0.4-0.8,0.8-0.8
	S204.1,92,204.1,92.5z M202.6,101.9v-7.4h1.4v7.4L202.6,101.9z"/>
<path class="st7" d="M206,100.5c0.5,0.3,1.1,0.5,1.8,0.5c1,0,1.4-0.5,1.4-1.1s-0.4-1-1.4-1.3c-1.3-0.5-2-1.2-2-2.1
	c0.1-1.3,1.1-2.2,2.4-2.2c0.1,0,0.1,0,0.2,0c0.6,0,1.3,0.1,1.8,0.4l-0.3,1c-0.5-0.3-1-0.4-1.5-0.4c-0.8,0-1.2,0.5-1.2,1
	s0.4,0.9,1.4,1.3c1.3,0.5,1.9,1.1,1.9,2.2c0,1.3-1,2.2-2.8,2.2c-0.7,0-1.4-0.2-2.1-0.5L206,100.5z"/>
<path class="st7" d="M212.2,96.5c0-0.8,0-1.4-0.1-2h1.2l0.1,1.2l0,0c0.5-0.9,1.4-1.4,2.3-1.3c0.9,0,1.8,0.6,2.1,1.5l0,0
	c0.2-0.4,0.5-0.7,0.8-1c0.5-0.4,1-0.5,1.6-0.5c1,0,2.4,0.6,2.4,3.2v4.3h-1.3v-4.1c0-1.4-0.5-2.3-1.6-2.3c-0.7,0-1.4,0.5-1.6,1.2
	c-0.1,0.2-0.1,0.4-0.1,0.7v4.6h-1.3v-4.4c0-1.2-0.5-2-1.5-2c-0.8,0-1.5,0.6-1.7,1.3c-0.1,0.2-0.1,0.4-0.1,0.7v4.4h-1.3L212.2,96.5z"
	/>
<path class="st7" d="M225.7,98.5c-0.1,1.3,0.8,2.4,2.1,2.6c0.1,0,0.3,0,0.4,0c0.7,0,1.4-0.1,2-0.4l0.2,1c-0.8,0.3-1.6,0.5-2.5,0.5
	c-1.9,0.1-3.5-1.3-3.6-3.2c0-0.2,0-0.3,0-0.5c0-2.2,1.3-4,3.5-4c2.4,0,3,2.1,3,3.5c0,0.2,0,0.4-0.1,0.6L225.7,98.5z M229.6,97.5
	c0.1-1-0.6-2-1.6-2.2c-0.1,0-0.2,0-0.2,0c-1.1,0.1-2,1-2.1,2.2H229.6z"/>
<path class="st7" d="M125.4,110.3c-0.1,1.1,0.7,2.1,1.9,2.2c0.1,0,0.2,0,0.3,0c0.6,0,1.2-0.1,1.8-0.3l0.2,0.8
	c-0.7,0.3-1.4,0.4-2.2,0.4c-1.7,0.1-3.1-1.1-3.2-2.8c0-0.2,0-0.3,0-0.5c0-2,1.2-3.5,3-3.5c2.1,0,2.7,1.8,2.7,3c0,0.2,0,0.4,0,0.6
	L125.4,110.3z M128.9,109.5c0.1-0.9-0.5-1.8-1.4-1.9c-0.1,0-0.1,0-0.2,0c-1,0.1-1.8,0.9-1.8,1.9H128.9z M129.2,104.1l-1.6,1.9h-0.8
	l1.2-1.9L129.2,104.1z"/>
<path class="st7" d="M136.1,113.1c-0.6,0.3-1.2,0.4-1.9,0.4c-1.7,0.1-3.1-1.2-3.2-2.9c0-0.1,0-0.2,0-0.4c-0.1-1.8,1.3-3.4,3.1-3.4
	c0.1,0,0.2,0,0.3,0c0.6,0,1.1,0.1,1.6,0.3l-0.3,0.9c-0.4-0.2-0.9-0.3-1.4-0.3c-1.2,0-2.3,1-2.3,2.2c0,0.1,0,0.2,0,0.3
	c-0.1,1.2,0.8,2.3,2,2.4c0.1,0,0.2,0,0.2,0c0.5,0,1-0.1,1.4-0.3L136.1,113.1z"/>
<path class="st7" d="M143.2,110.1c0.1,1.7-1.1,3.3-2.9,3.4c-0.1,0-0.2,0-0.3,0c-1.7,0-3.1-1.3-3.1-3c0-0.1,0-0.2,0-0.3
	c-0.1-1.7,1.1-3.3,2.9-3.4c0.1,0,0.2,0,0.3,0c1.7,0,3.1,1.3,3.1,3C143.2,109.9,143.2,110,143.2,110.1z M138.1,110.1
	c0,1.4,0.8,2.5,2,2.5s2-1.1,2-2.5c0-1.1-0.6-2.5-2-2.5S138.1,108.9,138.1,110.1z"/>
<path class="st7" d="M144.7,103.9h1.2v9.5h-1.2V103.9z"/>
<path class="st7" d="M148.5,110.3c-0.1,1.1,0.7,2.1,1.9,2.2c0.1,0,0.2,0,0.3,0c0.6,0,1.2-0.1,1.8-0.3l0.2,0.8
	c-0.7,0.3-1.4,0.4-2.1,0.4c-1.7,0.1-3.1-1.1-3.2-2.8c0-0.2,0-0.3,0-0.5c0-2,1.1-3.5,3-3.5c2.1,0,2.6,1.8,2.6,3c0,0.2,0,0.4,0,0.6
	L148.5,110.3z M151.9,109.5c0.1-0.9-0.5-1.8-1.4-1.9c-0.1,0-0.1,0-0.2,0c-1,0.1-1.8,0.9-1.8,1.9H151.9z"/>
<path class="st7" d="M162.9,103.9v7.8c0,0.6,0,1.2,0.1,1.7h-1l-0.1-1.1l0,0c-0.4,0.8-1.3,1.3-2.2,1.3c-1.6,0-2.8-1.3-2.8-3.3
	c0-2.2,1.3-3.5,2.9-3.5c0.8,0,1.5,0.3,1.9,1l0,0v-3.8L162.9,103.9z M161.8,109.5c0-0.2,0-0.3-0.1-0.5c-0.2-0.8-0.9-1.4-1.7-1.3
	c-1.2,0-1.9,1.1-1.9,2.5s0.6,2.4,1.9,2.4c0.8,0,1.5-0.6,1.7-1.4c0-0.2,0.1-0.3,0.1-0.5V109.5z"/>
<path class="st7" d="M165.6,110.3c-0.1,1.1,0.7,2.1,1.9,2.2c0.1,0,0.2,0,0.3,0c0.6,0,1.2-0.1,1.8-0.3l0.2,0.8
	c-0.7,0.3-1.4,0.4-2.1,0.4c-1.7,0.1-3.1-1.1-3.2-2.8c0-0.2,0-0.3,0-0.5c0-2,1.1-3.5,3-3.5c2.1,0,2.7,1.8,2.7,3c0,0.2,0,0.4,0,0.6
	L165.6,110.3z M169,109.5c0.1-0.9-0.5-1.8-1.4-1.9c-0.1,0-0.1,0-0.2,0c-1,0.1-1.8,0.9-1.8,1.9H169z"/>
<path class="st7" d="M172.8,115.2c0.5,0,0.9-0.2,1.3-0.5c0.3-0.4,0.4-0.9,0.4-2.4v-5.4h1.2v5.8c0.1,1-0.2,1.9-0.8,2.7
	c-0.6,0.5-1.3,0.7-2,0.7L172.8,115.2z M175.8,105.1c0,0.4-0.3,0.7-0.7,0.7s-0.7-0.3-0.7-0.7c0-0.4,0.3-0.7,0.7-0.7c0,0,0,0,0,0
	C175.5,104.3,175.8,104.6,175.8,105.1C175.9,105,175.9,105,175.8,105.1L175.8,105.1z"/>
<path class="st7" d="M183.5,110.1c0.1,1.7-1.1,3.3-2.9,3.4c-0.1,0-0.2,0-0.3,0c-1.7,0-3.1-1.3-3.1-3c0-0.1,0-0.2,0-0.3
	c-0.1-1.7,1.1-3.3,2.9-3.4c0.1,0,0.2,0,0.3,0c1.7,0,3.1,1.3,3.1,3C183.5,109.9,183.5,110,183.5,110.1z M178.4,110.1
	c0,1.4,0.8,2.5,2,2.5s2-1.1,2-2.5c0-1.1-0.6-2.5-1.9-2.5S178.4,108.9,178.4,110.1z"/>
<path class="st7" d="M190.4,111.6c0,0.7,0,1.3,0.1,1.8h-1l-0.1-1.1l0,0c-0.4,0.8-1.3,1.2-2.1,1.2c-1,0-2.2-0.6-2.2-2.8v-3.8h1.2v3.6
	c0,1.2,0.4,2.1,1.4,2.1c0.7,0,1.3-0.4,1.6-1.1c0.1-0.2,0.1-0.4,0.1-0.6v-4h1.2L190.4,111.6z"/>
<path class="st7" d="M192.3,108.9c0-0.8,0-1.4-0.1-2h1v1.3l0,0c0.2-0.8,1-1.4,1.8-1.4c0.1,0,0.2,0,0.3,0v1.1c-0.1,0-0.3,0-0.4,0
	c-0.8,0-1.5,0.7-1.6,1.5c0,0.2,0,0.4-0.1,0.6v3.4h-1.2L192.3,108.9z"/>
<path class="st7" d="M196.8,108.6c0-0.7,0-1.2-0.1-1.8h1l0.1,1.1l0,0c0.4-0.8,1.3-1.2,2.1-1.2c0.9,0,2.3,0.5,2.3,2.8v3.8H201v-3.7
	c0-1-0.4-1.9-1.5-1.9c-0.7,0-1.4,0.5-1.6,1.2c-0.1,0.2-0.1,0.4-0.1,0.6v3.9h-1.2L196.8,108.6z"/>
<path class="st7" d="M207.7,113.4l-0.1-0.8l0,0c-0.5,0.6-1.2,1-2,1c-1,0.1-1.9-0.7-2-1.7c0-0.1,0-0.1,0-0.2c0-1.6,1.4-2.4,3.9-2.4
	v-0.1c0.1-0.7-0.4-1.4-1.1-1.5c-0.1,0-0.2,0-0.3,0c-0.6,0-1.2,0.2-1.7,0.5l-0.3-0.8c0.6-0.4,1.4-0.6,2.1-0.6c2,0,2.4,1.3,2.4,2.7
	v2.4c0,0.5,0,1,0.1,1.6L207.7,113.4z M207.6,110.1c-1.3,0-2.7,0.2-2.7,1.4c-0.1,0.5,0.3,1.1,0.9,1.1c0.1,0,0.2,0,0.2,0
	c0.7,0,1.3-0.4,1.6-1.1c0-0.1,0.1-0.2,0.1-0.4L207.6,110.1z"/>
<path class="st7" d="M210.6,103.9h1.2v9.5h-1.2V103.9z"/>
<path class="st7" d="M215.1,105.1c0,0.4-0.3,0.7-0.7,0.7c0,0,0,0-0.1,0c-0.4,0-0.7-0.3-0.7-0.7c0,0,0,0,0,0c0-0.4,0.3-0.7,0.7-0.7
	C214.7,104.3,215.1,104.7,215.1,105.1z M213.7,113.4v-6.5h1.2v6.5H213.7z"/>
<path class="st7" d="M216.7,112.2c0.5,0.3,1,0.4,1.6,0.5c0.9,0,1.2-0.4,1.2-1s-0.3-0.9-1.2-1.2c-1.2-0.4-1.7-1.1-1.7-1.8
	c0-1.1,1-2,2.1-1.9c0,0,0.1,0,0.1,0c0.6,0,1.1,0.1,1.6,0.4l-0.3,0.9c-0.4-0.3-0.9-0.4-1.3-0.4c-0.7,0-1.1,0.4-1.1,0.9
	s0.4,0.8,1.2,1.1c1.1,0.4,1.7,1,1.7,1.9c0,1.2-0.9,2-2.4,2c-0.6,0-1.3-0.1-1.8-0.4L216.7,112.2z"/>
<path class="st7" d="M222.1,108.6c0-0.7,0-1.2-0.1-1.8h1l0.1,1l0,0c0.4-0.7,1.2-1.2,2-1.2c0.8,0,1.6,0.5,1.8,1.3l0,0
	c0.2-0.3,0.4-0.6,0.7-0.8c0.4-0.3,0.9-0.5,1.4-0.5c0.9,0,2.1,0.6,2.1,2.8v3.8h-1.1v-3.7c0-1.2-0.5-2-1.4-2c-0.6,0-1.2,0.4-1.4,1
	c-0.1,0.2-0.1,0.4-0.1,0.6v4h-1.1v-3.9c0-1-0.4-1.8-1.3-1.8c-0.7,0-1.3,0.5-1.5,1.2c-0.1,0.2-0.1,0.4-0.1,0.6v3.9H222L222.1,108.6z"
	/>
<path class="st7" d="M233.9,110.3c-0.1,1.1,0.7,2.1,1.9,2.2c0.1,0,0.2,0,0.3,0c0.6,0,1.2-0.1,1.8-0.3l0.2,0.8
	c-0.7,0.3-1.4,0.4-2.2,0.4c-1.7,0.1-3.1-1.1-3.2-2.8c0-0.2,0-0.3,0-0.5c0-2,1.2-3.5,3-3.5c2.1,0,2.7,1.8,2.7,3c0,0.2,0,0.4,0,0.6
	L233.9,110.3z M237.4,109.5c0.1-0.9-0.5-1.8-1.4-1.9c-0.1,0-0.1,0-0.2,0c-1,0.1-1.8,0.9-1.8,1.9H237.4z"/>
<path class="st7" d="M130.4,115.3v7.8c0,0.6,0,1.2,0,1.7h-1l-0.1-1.1l0,0c-0.4,0.8-1.3,1.3-2.2,1.3c-1.6,0-2.8-1.3-2.8-3.3
	c0-2.2,1.3-3.5,2.9-3.5c0.8,0,1.5,0.3,1.9,1l0,0v-3.8L130.4,115.3z M129.2,121c0-0.2,0-0.3-0.1-0.5c-0.2-0.8-0.9-1.4-1.7-1.3
	c-1.2,0-1.9,1.1-1.9,2.5s0.7,2.4,1.9,2.4c0.8,0,1.5-0.6,1.7-1.4c0-0.2,0.1-0.3,0.1-0.5V121z"/>
<path class="st7" d="M133,121.8c-0.1,1.1,0.7,2.1,1.9,2.2c0.1,0,0.2,0,0.3,0c0.6,0,1.2-0.1,1.8-0.3l0.2,0.8
	c-0.7,0.3-1.4,0.4-2.1,0.4c-1.7,0.1-3.1-1.1-3.2-2.8c0-0.2,0-0.3,0-0.5c0-2,1.1-3.5,3-3.5c2.1,0,2.7,1.8,2.7,3c0,0.2,0,0.4,0,0.6
	L133,121.8z M136.4,120.9c0.1-0.9-0.5-1.8-1.4-1.9c-0.1,0-0.1,0-0.2,0c-1,0.1-1.8,0.9-1.8,1.9H136.4z"/>
<path class="st7" d="M148.1,124.5c-0.8,0.3-1.6,0.5-2.4,0.4c-2.3,0.1-4.3-1.6-4.4-3.9c0-0.2,0-0.4,0-0.6c-0.1-2.5,1.7-4.6,4.2-4.7
	c0.2,0,0.3,0,0.5,0c0.7,0,1.5,0.1,2.1,0.4l-0.3,0.9c-0.6-0.3-1.2-0.4-1.8-0.4c-2.1,0-3.5,1.3-3.5,3.7c-0.2,1.8,1,3.4,2.8,3.6
	c0.2,0,0.4,0,0.6,0c0.7,0,1.3-0.1,1.9-0.4L148.1,124.5z"/>
<path class="st7" d="M153.1,124.8L153,124l0,0c-0.5,0.6-1.2,1-2,1c-1,0.1-1.9-0.7-2-1.7c0-0.1,0-0.1,0-0.2c0-1.6,1.4-2.4,3.9-2.4
	v-0.1c0.1-0.7-0.4-1.4-1.2-1.5c-0.1,0-0.2,0-0.3,0c-0.6,0-1.2,0.2-1.7,0.5l-0.3-0.8c0.6-0.4,1.4-0.6,2.1-0.6c2,0,2.5,1.3,2.5,2.6
	v2.4c0,0.5,0,1,0.1,1.6L153.1,124.8z M152.9,121.5c-1.3,0-2.7,0.2-2.7,1.4c-0.1,0.5,0.3,1.1,0.9,1.1c0.1,0,0.2,0,0.2,0
	c0.7,0,1.3-0.4,1.6-1.1c0-0.1,0.1-0.3,0.1-0.4V121.5z"/>
<path class="st7" d="M155.9,120.1c0-0.7,0-1.2,0-1.8h1l0.1,1.1l0,0c0.4-0.8,1.3-1.2,2.1-1.2c0.9,0,2.3,0.5,2.3,2.8v3.8h-1.2v-3.7
	c0-1-0.4-1.9-1.5-1.9c-0.7,0-1.4,0.5-1.6,1.2c-0.1,0.2-0.1,0.4-0.1,0.6v3.9h-1.2L155.9,120.1z"/>
<path class="st7" d="M163.3,120.1c0-0.7,0-1.2-0.1-1.8h1l0.1,1.1l0,0c0.4-0.8,1.3-1.2,2.1-1.2c0.9,0,2.3,0.5,2.3,2.8v3.8h-1.2v-3.7
	c0-1-0.4-1.9-1.5-1.9c-0.7,0-1.4,0.5-1.6,1.2c-0.1,0.2-0.1,0.4-0.1,0.6v3.9h-1.2L163.3,120.1z"/>
<path class="st7" d="M171.4,121.8c-0.1,1.1,0.7,2.1,1.9,2.2c0.1,0,0.2,0,0.3,0c0.6,0,1.2-0.1,1.8-0.3l0.2,0.8
	c-0.7,0.3-1.4,0.4-2.2,0.4c-1.7,0.1-3.1-1.2-3.2-2.8c0-0.1,0-0.3,0-0.4c0-2,1.1-3.5,3-3.5c2.1,0,2.7,1.8,2.7,3c0,0.2,0,0.4,0,0.6
	L171.4,121.8z M174.8,120.9c0.1-0.9-0.5-1.8-1.4-1.9c-0.1,0-0.1,0-0.2,0c-1,0.1-1.8,0.9-1.8,1.9H174.8z"/>
<path class="st7" d="M177.2,123.6c0.5,0.3,1,0.4,1.6,0.5c0.9,0,1.3-0.4,1.3-1s-0.3-0.9-1.2-1.2c-1.2-0.4-1.7-1.1-1.7-1.8
	c0.1-1.1,1-2,2.1-1.9c0,0,0.1,0,0.1,0c0.6,0,1.1,0.1,1.6,0.4l-0.3,0.9c-0.4-0.2-0.9-0.4-1.3-0.4c-0.7,0-1.1,0.4-1.1,0.9
	s0.4,0.8,1.2,1.1c1.1,0.4,1.7,1,1.7,1.9c0,1.2-0.9,2-2.4,2c-0.6,0-1.3-0.1-1.8-0.4L177.2,123.6z"/>
<path class="st7" d="M300,99.1h-4v3.7h4.5v1.1h-5.8V93.7h5.5v1.1H296V98h4V99.1z"/>
<path class="st7" d="M302,102.3c0.7,0.4,1.5,0.7,2.4,0.7c1.4,0,2.2-0.7,2.2-1.8s-0.6-1.5-2-2c-1.7-0.6-2.7-1.5-2.7-2.9
	c0-1.6,1.3-2.8,3.3-2.8c0.8,0,1.6,0.1,2.3,0.5l-0.4,1.1c-0.6-0.3-1.3-0.5-1.9-0.5c-1.4,0-1.9,0.8-1.9,1.5c0,1,0.6,1.4,2,2
	c1.7,0.7,2.6,1.5,2.6,3s-1.2,3-3.6,3c-0.9,0-1.8-0.2-2.6-0.7L302,102.3z"/>
<path class="st7" d="M311.8,93.7h1.3v6.9c0,2.7-1.3,3.6-3.1,3.6c-0.5,0-1-0.1-1.4-0.2l0.2-1.1c0.4,0.1,0.7,0.2,1.1,0.2
	c1.2,0,1.9-0.5,1.9-2.6L311.8,93.7z"/>
<path class="st7" d="M318.6,93.7h1.3v9.2h4.4v1.1h-5.7V93.7z"/>
<path class="st7" d="M327.2,94.5c0,0.5-0.4,0.8-0.8,0.8c-0.5,0-0.8-0.4-0.8-0.8c0-0.5,0.4-0.8,0.8-0.8c0,0,0,0,0,0
	C326.9,93.6,327.2,94,327.2,94.5C327.3,94.4,327.3,94.4,327.2,94.5z M325.8,103.9v-7.4h1.3v7.4H325.8z"/>
<path class="st7" d="M329.3,93.1h1.3v10.8h-1.3V93.1z"/>
<path class="st7" d="M332.9,93.1h1.3v10.8h-1.3V93.1z"/>
<path class="st7" d="M337.3,100.5c-0.1,1.3,0.8,2.4,2.1,2.5c0.1,0,0.3,0,0.4,0c0.7,0,1.4-0.1,2-0.4l0.2,1c-0.8,0.3-1.6,0.5-2.5,0.5
	c-1.9,0.1-3.5-1.3-3.6-3.2c0-0.2,0-0.3,0-0.5c0-2.2,1.3-4,3.5-4c2.4,0,3,2.1,3,3.5c0,0.2,0,0.4,0,0.6L337.3,100.5z M341.2,99.5
	c0.1-1-0.6-2-1.6-2.2c-0.1,0-0.1,0-0.2,0c-1.1,0.1-2,1-2.1,2.2H341.2z"/>
<path class="st7" d="M302.1,116c-0.1-1.2-0.1-2.8-0.1-3.9l0,0c-0.3,1-0.7,2.2-1.1,3.4l-1.6,4.4h-0.9l-1.5-4.3
	c-0.4-1.3-0.8-2.4-1-3.5l0,0c0,1.1-0.1,2.6-0.2,4l-0.2,3.9h-1.1l0.6-9h1.5l1.5,4.3c0.4,1.1,0.7,2.1,0.9,3l0,0c0.2-0.9,0.5-1.9,1-3
	l1.6-4.3h1.5l0.6,9h-1.1L302.1,116z"/>
<path class="st7" d="M311.2,116.7c0.1,1.7-1.1,3.3-2.9,3.4c-0.1,0-0.2,0-0.3,0c-1.7,0-3.1-1.3-3.1-3c0-0.1,0-0.2,0-0.3
	c-0.1-1.7,1.1-3.3,2.9-3.4c0.1,0,0.2,0,0.3,0c1.7,0,3.1,1.3,3.1,3C311.2,116.4,311.2,116.6,311.2,116.7z M306.1,116.7
	c0,1.4,0.8,2.5,2,2.5s2-1,2-2.5c0-1.1-0.5-2.5-1.9-2.5S306.1,115.5,306.1,116.7z"/>
<path class="st7" d="M312.7,115.2c0-0.7,0-1.2,0-1.7h1l0.1,1.1l0,0c0.4-0.8,1.3-1.2,2.1-1.2c0.9,0,2.3,0.5,2.3,2.8v3.9H317v-3.7
	c0-1-0.4-1.9-1.5-1.9c-0.7,0-1.4,0.5-1.6,1.2c-0.1,0.2-0.1,0.4-0.1,0.6v3.9h-1.2L312.7,115.2z"/>
<path class="st7" d="M321.4,111.6v1.9h1.7v0.9h-1.7v3.5c0,0.8,0.2,1.3,0.9,1.3c0.2,0,0.5,0,0.7-0.1l0.1,0.9c-0.3,0.1-0.7,0.2-1,0.2
	c-0.5,0-0.9-0.2-1.3-0.5c-0.3-0.5-0.5-1.1-0.5-1.7v-3.5h-1v-0.9h1v-1.6L321.4,111.6z"/>
<path class="st7" d="M324.4,115.6c0-0.8,0-1.5,0-2.1h1l0.1,1.1l0,0c0.5-0.8,1.4-1.3,2.3-1.2c1.6,0,2.7,1.3,2.7,3.3
	c0,2.3-1.4,3.5-2.9,3.5c-0.8,0-1.6-0.3-2-1l0,0v3.5h-1.2L324.4,115.6z M325.6,117.3c0,0.2,0,0.3,0,0.5c0.2,0.8,0.9,1.4,1.8,1.4
	c1.2,0,2-1,2-2.5c0-1.3-0.7-2.4-1.9-2.4c-0.9,0-1.6,0.6-1.8,1.4c0,0.2-0.1,0.3-0.1,0.5L325.6,117.3z"/>
<path class="st7" d="M332.7,116.9c-0.1,1.1,0.7,2.1,1.9,2.2c0.1,0,0.2,0,0.3,0c0.6,0,1.2-0.1,1.8-0.3l0.2,0.8
	c-0.7,0.3-1.4,0.4-2.1,0.4c-1.7,0.1-3.1-1.1-3.2-2.8c0-0.2,0-0.3,0-0.5c0-2,1.1-3.5,3-3.5c2.1,0,2.7,1.8,2.7,3c0,0.2,0,0.4,0,0.6
	L332.7,116.9z M336.1,116.1c0.1-0.9-0.5-1.8-1.4-1.9c-0.1,0-0.1,0-0.2,0c-1,0.1-1.8,0.9-1.8,1.9H336.1z"/>
<path class="st7" d="M338.7,110.5h1.2v9.5h-1.2V110.5z"/>
<path class="st7" d="M341.9,110.5h1.2v9.5h-1.2V110.5z"/>
<path class="st7" d="M346.3,111.7c0,0.4-0.3,0.7-0.7,0.7s-0.7-0.3-0.7-0.7c0-0.4,0.3-0.7,0.7-0.7C346,110.9,346.3,111.2,346.3,111.7
	C346.3,111.6,346.3,111.6,346.3,111.7z M345,120v-6.5h1.2v6.5H345z"/>
<path class="st7" d="M348.8,116.9c-0.1,1.1,0.7,2.1,1.9,2.2c0.1,0,0.2,0,0.3,0c0.6,0,1.2-0.1,1.8-0.3l0.2,0.8
	c-0.7,0.3-1.4,0.4-2.1,0.4c-1.7,0.1-3.1-1.1-3.2-2.8c0-0.2,0-0.3,0-0.5c0-2,1.1-3.5,3-3.5c2.1,0,2.7,1.8,2.7,3c0,0.2,0,0.4,0,0.6
	L348.8,116.9z M352.2,116.1c0.1-0.9-0.5-1.8-1.4-1.9c-0.1,0-0.1,0-0.2,0c-1,0.1-1.8,0.9-1.8,1.9H352.2z"/>
<path class="st7" d="M354.8,115.5c0-0.8,0-1.4-0.1-2h1l0,1.3l0,0c0.2-0.8,1-1.4,1.8-1.4c0.1,0,0.2,0,0.3,0v1.1c-0.1,0-0.3,0-0.4,0
	c-0.8,0-1.5,0.7-1.6,1.5c0,0.2,0,0.4,0,0.6v3.5h-1.2L354.8,115.5z"/>
<path class="st6" d="M538.1,132.8V79h76.5c4.6,0,8.3,6,8.3,13.3v40.5"/>
<path class="st7" d="M544.8,91.5h1.2v8h3.8v1h-5L544.8,91.5z"/>
<path class="st7" d="M552.4,92.2c0,0.4-0.3,0.7-0.7,0.7c0,0,0,0-0.1,0c-0.4,0-0.7-0.3-0.7-0.7c0,0,0,0,0,0c0-0.4,0.3-0.7,0.7-0.7
	C552.1,91.4,552.4,91.8,552.4,92.2z M551.1,100.5V94h1.2v6.5H551.1z"/>
<path class="st7" d="M558.8,100.2c-0.6,0.3-1.2,0.4-1.8,0.4c-1.7,0.1-3.1-1.2-3.2-2.9c0-0.1,0-0.3,0-0.4c-0.1-1.8,1.3-3.4,3.1-3.4
	c0.1,0,0.2,0,0.4,0c0.6,0,1.1,0.1,1.6,0.3l-0.3,0.9c-0.4-0.2-0.9-0.3-1.4-0.3c-1.3,0.1-2.3,1.3-2.2,2.7c0.1,1.2,1,2.1,2.2,2.2
	c0.5,0,1-0.1,1.4-0.3L558.8,100.2z"/>
<path class="st7" d="M560.8,97.4c-0.1,1.1,0.7,2.1,1.9,2.2c0.1,0,0.2,0,0.4,0c0.6,0,1.2-0.1,1.8-0.3l0.2,0.8
	c-0.7,0.3-1.4,0.4-2.2,0.4c-1.7,0.1-3.1-1.2-3.2-2.8c0-0.1,0-0.3,0-0.4c0-2,1.2-3.5,3-3.5c2.1,0,2.7,1.8,2.7,3c0,0.2,0,0.4,0,0.6
	L560.8,97.4z M564.2,96.6c0.1-0.9-0.5-1.8-1.4-1.9c-0.1,0-0.1,0-0.2,0c-1,0.1-1.8,0.9-1.8,1.9H564.2z"/>
<path class="st7" d="M566.8,95.7c0-0.7,0-1.2,0-1.8h1l0.1,1.1l0,0c0.4-0.8,1.3-1.2,2.2-1.2c0.9,0,2.3,0.5,2.3,2.8v3.8h-1.2v-3.7
	c0-1-0.4-1.9-1.5-1.9c-0.7,0-1.4,0.5-1.6,1.2c-0.1,0.2-0.1,0.4-0.1,0.5v3.9h-1.2L566.8,95.7z"/>
<path class="st7" d="M578.8,100.2c-0.6,0.3-1.2,0.4-1.9,0.4c-1.7,0.1-3.1-1.2-3.2-2.9c0-0.1,0-0.2,0-0.4c-0.1-1.8,1.3-3.4,3.1-3.4
	c0.1,0,0.2,0,0.3,0c0.6,0,1.1,0.1,1.6,0.3l-0.3,0.9c-0.4-0.2-0.9-0.3-1.4-0.3c-1.2,0-2.3,1-2.3,2.2c0,0.1,0,0.2,0,0.2
	c-0.1,1.2,0.8,2.3,2,2.4c0.1,0,0.2,0,0.2,0c0.5,0,1-0.1,1.4-0.3L578.8,100.2z"/>
<path class="st7" d="M580.8,97.4c-0.1,1.1,0.7,2.1,1.9,2.2c0.1,0,0.3,0,0.4,0c0.6,0,1.2-0.1,1.8-0.3l0.2,0.8
	c-0.7,0.3-1.4,0.4-2.2,0.4c-1.7,0.1-3.1-1.1-3.2-2.8c0-0.2,0-0.3,0-0.5c0-2,1.2-3.5,3-3.5c2.1,0,2.7,1.8,2.7,3c0,0.2,0,0.4,0,0.6
	L580.8,97.4z M584.2,96.6c0.1-0.9-0.5-1.8-1.4-1.9c-0.1,0-0.1,0-0.2,0c-1,0.1-1.8,0.9-1.8,1.9H584.2z"/>
<path class="st7" d="M550.3,102.4v7.8c0,0.6,0,1.2,0,1.7h-1l-0.1-1.1l0,0c-0.4,0.8-1.3,1.3-2.2,1.3c-1.6,0-2.8-1.3-2.8-3.3
	c0-2.2,1.3-3.5,2.9-3.5c0.8,0,1.5,0.3,1.9,1l0,0v-3.9L550.3,102.4z M549.2,108.1c0-0.2,0-0.3,0-0.5c-0.2-0.8-0.9-1.4-1.7-1.3
	c-1.2,0-1.9,1.1-1.9,2.5s0.7,2.4,1.9,2.4c0.8,0,1.5-0.6,1.7-1.4c0-0.2,0.1-0.3,0.1-0.5L549.2,108.1z"/>
<path class="st7" d="M553,108.9c-0.1,1.1,0.7,2.1,1.9,2.2c0.1,0,0.2,0,0.3,0c0.6,0,1.2-0.1,1.8-0.3l0.2,0.8
	c-0.7,0.3-1.4,0.4-2.2,0.4c-1.7,0.1-3.1-1.1-3.2-2.8c0-0.2,0-0.3,0-0.5c0-2,1.2-3.5,3-3.5c2.1,0,2.7,1.8,2.7,3c0,0.2,0,0.4,0,0.6
	L553,108.9z M556.4,108c0.1-0.9-0.5-1.8-1.4-1.9c-0.1,0-0.1,0-0.2,0c-1,0.1-1.8,0.9-1.8,1.9L556.4,108z M556.7,102.6l-1.7,1.9h-0.8
	l1.2-1.9H556.7z"/>
<path class="st7" d="M559.4,105.4l1.3,3.6c0.2,0.6,0.4,1.1,0.5,1.7l0,0c0.2-0.5,0.3-1.1,0.5-1.7l1.3-3.6h1.2l-2.5,6.4h-1.1l-2.5-6.4
	H559.4z"/>
<path class="st7" d="M565.9,108.9c-0.1,1.1,0.7,2.1,1.9,2.2c0.1,0,0.2,0,0.3,0c0.6,0,1.2-0.1,1.8-0.3l0.2,0.8
	c-0.7,0.3-1.4,0.4-2.1,0.4c-1.7,0.1-3.1-1.2-3.2-2.8c0-0.1,0-0.3,0-0.4c0-2,1.2-3.5,3-3.5c2.1,0,2.7,1.8,2.7,3c0,0.2,0,0.4,0,0.6
	L565.9,108.9z M569.4,108c0.1-0.9-0.5-1.8-1.4-1.9c-0.1,0-0.1,0-0.2,0c-1,0.1-1.7,0.9-1.8,1.9L569.4,108z"/>
<path class="st7" d="M572,102.4h1.2v9.5H572V102.4z"/>
<path class="st7" d="M581,108.6c0.1,1.7-1.1,3.3-2.9,3.4c-0.1,0-0.2,0-0.3,0c-1.7,0-3.1-1.3-3.1-3c0-0.1,0-0.2,0-0.3
	c-0.1-1.7,1.1-3.3,2.9-3.4c0.1,0,0.2,0,0.3,0c1.7,0,3.1,1.3,3.1,3C581,108.4,581,108.5,581,108.6z M575.9,108.7c0,1.4,0.8,2.5,2,2.5
	s2-1,2-2.5c0-1.1-0.5-2.5-1.9-2.5S575.8,107.5,575.9,108.7L575.9,108.7z"/>
<path class="st7" d="M582.4,107.5c0-0.8,0-1.5,0-2.1h1l0.1,1.1l0,0c0.5-0.8,1.4-1.3,2.3-1.2c1.6,0,2.7,1.3,2.7,3.3
	c0,2.3-1.4,3.5-2.9,3.5c-0.8,0-1.6-0.3-2-1l0,0v3.5h-1.2L582.4,107.5z M583.6,109.3c0,0.2,0,0.3,0,0.5c0.2,0.8,0.9,1.4,1.8,1.4
	c1.2,0,2-1,2-2.5c0-1.3-0.7-2.4-1.9-2.4c-0.9,0-1.6,0.6-1.8,1.4c0,0.2-0.1,0.3-0.1,0.5L583.6,109.3z"/>
<path class="st7" d="M590,107.5c0-0.8,0-1.5,0-2.1h1l0.1,1.1l0,0c0.5-0.8,1.4-1.3,2.3-1.2c1.6,0,2.7,1.3,2.7,3.3
	c0,2.3-1.4,3.5-2.9,3.5c-0.8,0-1.6-0.3-2-1l0,0v3.5H590V107.5z M591.2,109.3c0,0.2,0,0.3,0,0.5c0.2,0.8,0.9,1.4,1.8,1.4
	c1.2,0,2-1,2-2.5c0-1.3-0.7-2.4-1.9-2.4c-0.9,0-1.6,0.6-1.8,1.4c0,0.2-0.1,0.3-0.1,0.5L591.2,109.3z"/>
<path class="st7" d="M598.3,108.9c-0.1,1.1,0.7,2.1,1.9,2.2c0.1,0,0.2,0,0.3,0c0.6,0,1.2-0.1,1.8-0.3l0.2,0.8
	c-0.7,0.3-1.4,0.4-2.2,0.4c-1.7,0.1-3.1-1.1-3.2-2.8c0-0.2,0-0.3,0-0.5c0-2,1.2-3.5,3-3.5c2.1,0,2.7,1.8,2.7,3c0,0.2,0,0.4,0,0.6
	L598.3,108.9z M601.7,108c0.1-0.9-0.5-1.8-1.4-1.9c-0.1,0-0.1,0-0.2,0c-1,0.1-1.8,0.9-1.8,1.9H601.7z"/>
<path class="st7" d="M609.7,110.1c0,0.7,0,1.3,0,1.8h-1l-0.1-1.1l0,0c-0.4,0.8-1.3,1.2-2.1,1.2c-1,0-2.2-0.6-2.2-2.8v-3.8h1.2v3.6
	c0,1.2,0.4,2.1,1.4,2.1c0.7,0,1.3-0.4,1.5-1.1c0.1-0.2,0.1-0.4,0.1-0.6v-4h1.2L609.7,110.1z"/>
<path class="st7" d="M611.7,107.5c0-0.8,0-1.4,0-2h1v1.3l0,0c0.2-0.8,1-1.4,1.8-1.4c0.1,0,0.2,0,0.3,0v1.1c-0.1,0-0.3,0-0.4,0
	c-0.8,0-1.5,0.7-1.6,1.5c0,0.2,0,0.4,0,0.6v3.4h-1.2L611.7,107.5z"/>
<path class="st7" d="M545.2,116.9l0.9,3.3c0.2,0.7,0.3,1.4,0.5,2.1l0,0c0.2-0.7,0.4-1.3,0.6-2l1.1-3.3h1l1,3.2
	c0.2,0.8,0.4,1.4,0.6,2.1l0,0c0.1-0.7,0.3-1.3,0.5-2.1l0.9-3.2h1.2l-2.1,6.4h-1.1l-1-3.1c-0.2-0.7-0.4-1.4-0.6-2.1l0,0
	c-0.2,0.7-0.3,1.4-0.6,2.1l-1,3.1H546l-2-6.4L545.2,116.9z"/>
<path class="st7" d="M555.1,120.3c-0.1,1.1,0.7,2.1,1.9,2.2c0.1,0,0.2,0,0.3,0c0.6,0,1.2-0.1,1.8-0.3l0.2,0.8
	c-0.7,0.3-1.4,0.4-2.2,0.4c-1.7,0.1-3.1-1.1-3.2-2.8c0-0.2,0-0.3,0-0.5c0-2,1.2-3.5,3-3.5c2.1,0,2.7,1.8,2.7,3c0,0.2,0,0.4,0,0.6
	L555.1,120.3z M558.6,119.5c0.1-0.9-0.5-1.8-1.4-1.9c-0.1,0-0.1,0-0.2,0c-1,0.1-1.8,0.9-1.8,1.9H558.6z"/>
<path class="st7" d="M561.1,123.3c0-0.4,0-1.1,0-1.7v-7.8h1.2v4.1l0,0c0.5-0.8,1.3-1.2,2.2-1.2c1.6,0,2.7,1.3,2.7,3.3
	c0,2.3-1.5,3.5-2.9,3.5c-0.9,0-1.7-0.4-2.2-1.2l0,0l-0.1,1.1L561.1,123.3z M562.3,120.7c0,0.1,0,0.3,0,0.4c0.2,0.8,0.9,1.4,1.8,1.4
	c1.2,0,2-1,2-2.5c0-1.3-0.7-2.4-1.9-2.4c-0.9,0-1.6,0.6-1.8,1.4c0,0.2-0.1,0.3-0.1,0.5L562.3,120.7z"/>
<line class="st4" x1="962.5" y1="133.8" x2="962.5" y2="19.5"/>
<path class="st2" d="M992.5,211.5h-37.2l0,0v-77.3l0,0h53.9l0,0v71.7C1009.2,209,1001.7,211.5,992.5,211.5L992.5,211.5z"/>
<line class="st3" x1="997" y1="314.3" x2="997" y2="212.4"/>
<line class="st3" x1="1014.8" y1="314.6" x2="896.1" y2="314.1"/>
<g>
	<path class="st2" d="M897.3,320h5.8v1.2h-4.4v3.6h4.1v1.2h-4.1v4.9h-1.4V320z"/>
	<path class="st2" d="M905.1,320.2c0.7-0.1,1.7-0.2,2.7-0.2c1.5,0,2.5,0.3,3.1,0.9c0.5,0.5,0.8,1.2,0.8,2.1c0,1.4-0.9,2.4-2,2.7v0
		c0.8,0.3,1.3,1.1,1.6,2.2c0.4,1.5,0.6,2.5,0.8,3h-1.4c-0.2-0.3-0.4-1.2-0.7-2.6c-0.3-1.5-0.9-2-2.2-2.1h-1.3v4.7h-1.4V320.2z
		 M906.5,325.1h1.4c1.5,0,2.4-0.8,2.4-2c0-1.4-1-2-2.5-2c-0.7,0-1.1,0.1-1.4,0.1V325.1z"/>
	<path class="st2" d="M919.3,325.8h-4.2v3.9h4.7v1.2h-6.1V320h5.8v1.2h-4.4v3.4h4.2V325.8z"/>
	<path class="st2" d="M927.1,325.8H923v3.9h4.7v1.2h-6.1V320h5.8v1.2H923v3.4h4.2V325.8z"/>
	<path class="st2" d="M929.4,320h1.4v9.6h4.6v1.2h-6V320z"/>
	<path class="st2" d="M938.8,327.4l-1.1,3.4h-1.4l3.7-10.8h1.7l3.7,10.8h-1.5l-1.2-3.4H938.8z M942.3,326.4l-1.1-3.1
		c-0.2-0.7-0.4-1.3-0.6-2h0c-0.2,0.6-0.3,1.3-0.5,1.9l-1.1,3.1H942.3z"/>
	<path class="st2" d="M946.8,330.8V320h1.5l3.5,5.5c0.8,1.3,1.4,2.4,1.9,3.5l0,0c-0.1-1.4-0.2-2.8-0.2-4.4V320h1.3v10.8h-1.4
		l-3.4-5.5c-0.7-1.2-1.5-2.4-2-3.6l0,0c0.1,1.4,0.1,2.7,0.1,4.5v4.6H946.8z"/>
	<path class="st2" d="M964.9,330.5c-0.5,0.3-1.5,0.5-2.9,0.5c-3,0-5.3-1.9-5.3-5.5c0-3.4,2.3-5.7,5.6-5.7c1.3,0,2.2,0.3,2.6,0.5
		l-0.3,1.1c-0.5-0.2-1.3-0.4-2.2-0.4c-2.5,0-4.2,1.6-4.2,4.5c0,2.6,1.5,4.3,4.1,4.3c0.9,0,1.7-0.2,2.3-0.4L964.9,330.5z"/>
	<path class="st2" d="M972.2,325.8H968v3.9h4.7v1.2h-6.1V320h5.8v1.2H968v3.4h4.2V325.8z"/>
	<path class="st2" d="M903.9,338.7v9.4c0,0.7,0,1.5,0.1,2h-1.3l-0.1-1.3h0c-0.4,0.9-1.4,1.5-2.6,1.5c-1.9,0-3.3-1.6-3.3-3.9
		c0-2.6,1.6-4.2,3.5-4.2c1.2,0,2,0.6,2.3,1.2h0v-4.6H903.9z M902.5,345.4c0-0.2,0-0.4-0.1-0.6c-0.2-0.9-1-1.6-2-1.6
		c-1.5,0-2.3,1.3-2.3,3c0,1.6,0.8,2.9,2.3,2.9c0.9,0,1.8-0.6,2.1-1.7c0-0.2,0.1-0.4,0.1-0.6V345.4z"/>
	<path class="st2" d="M910.6,350l-0.1-1h0c-0.4,0.6-1.3,1.2-2.4,1.2c-1.6,0-2.4-1.1-2.4-2.2c0-1.9,1.7-2.9,4.7-2.9v-0.2
		c0-0.6-0.2-1.8-1.8-1.8c-0.7,0-1.5,0.2-2,0.6l-0.3-0.9c0.6-0.4,1.6-0.7,2.6-0.7c2.4,0,2.9,1.6,2.9,3.2v2.9c0,0.7,0,1.3,0.1,1.9
		H910.6z M910.3,346.1c-1.5,0-3.3,0.2-3.3,1.7c0,0.9,0.6,1.3,1.3,1.3c1,0,1.7-0.6,1.9-1.3c0-0.1,0.1-0.3,0.1-0.4V346.1z"/>
	<path class="st2" d="M915.6,340.1v2.2h2v1.1h-2v4.2c0,1,0.3,1.5,1.1,1.5c0.4,0,0.6,0,0.8-0.1l0.1,1.1c-0.3,0.1-0.7,0.2-1.3,0.2
		c-0.6,0-1.2-0.2-1.5-0.6c-0.4-0.4-0.5-1.1-0.5-2v-4.2H913v-1.1h1.2v-1.9L915.6,340.1z"/>
	<path class="st2" d="M923.5,350l-0.1-1h0c-0.4,0.6-1.3,1.2-2.4,1.2c-1.6,0-2.4-1.1-2.4-2.2c0-1.9,1.7-2.9,4.7-2.9v-0.2
		c0-0.6-0.2-1.8-1.8-1.8c-0.7,0-1.5,0.2-2,0.6l-0.3-0.9c0.6-0.4,1.6-0.7,2.6-0.7c2.4,0,2.9,1.6,2.9,3.2v2.9c0,0.7,0,1.3,0.1,1.9
		H923.5z M923.3,346.1c-1.5,0-3.3,0.2-3.3,1.7c0,0.9,0.6,1.3,1.3,1.3c1,0,1.7-0.6,1.9-1.3c0-0.1,0.1-0.3,0.1-0.4V346.1z"/>
	<path class="st2" d="M925,352.3c0.7,0,1.2-0.2,1.5-0.6c0.4-0.4,0.5-1,0.5-2.9v-6.5h1.4v7c0,1.5-0.2,2.5-0.9,3.2
		c-0.6,0.6-1.6,0.9-2.4,0.9L925,352.3z M928.7,340.1c0,0.5-0.3,0.9-0.9,0.9c-0.5,0-0.9-0.4-0.9-0.9c0-0.5,0.4-0.9,0.9-0.9
		C928.3,339.2,928.7,339.6,928.7,340.1z"/>
	<path class="st2" d="M937.8,346.1c0,2.9-2,4.1-3.8,4.1c-2.1,0-3.7-1.5-3.7-4c0-2.6,1.7-4.1,3.8-4.1
		C936.3,342.1,937.8,343.7,937.8,346.1z M931.7,346.2c0,1.7,1,3,2.3,3c1.3,0,2.4-1.3,2.4-3c0-1.3-0.7-3-2.3-3
		C932.4,343.2,931.7,344.7,931.7,346.2z"/>
	<path class="st2" d="M946.1,347.9c0,0.8,0,1.5,0.1,2.1h-1.2l-0.1-1.3h0c-0.4,0.6-1.2,1.4-2.6,1.4c-1.2,0-2.7-0.7-2.7-3.4v-4.5h1.4
		v4.3c0,1.5,0.5,2.5,1.7,2.5c0.9,0,1.6-0.7,1.9-1.3c0.1-0.2,0.1-0.5,0.1-0.7v-4.7h1.4V347.9z"/>
	<path class="st2" d="M948.4,344.7c0-0.9,0-1.7-0.1-2.4h1.2l0.1,1.5h0c0.4-1,1.2-1.7,2.2-1.7c0.2,0,0.3,0,0.4,0v1.3
		c-0.1,0-0.3,0-0.5,0c-1,0-1.7,0.7-1.9,1.8c0,0.2-0.1,0.4-0.1,0.7v4.1h-1.4V344.7z"/>
	<path class="st2" d="M953.7,344.4c0-0.8,0-1.4-0.1-2.1h1.2l0.1,1.3h0c0.4-0.7,1.3-1.4,2.6-1.4c1.1,0,2.7,0.6,2.7,3.3v4.6h-1.4v-4.5
		c0-1.3-0.5-2.3-1.8-2.3c-0.9,0-1.6,0.7-1.9,1.4c-0.1,0.2-0.1,0.4-0.1,0.7v4.7h-1.4V344.4z"/>
	<path class="st2" d="M966.9,350l-0.1-1h0c-0.4,0.6-1.3,1.2-2.4,1.2c-1.6,0-2.4-1.1-2.4-2.2c0-1.9,1.7-2.9,4.7-2.9v-0.2
		c0-0.6-0.2-1.8-1.8-1.8c-0.7,0-1.5,0.2-2,0.6l-0.3-0.9c0.6-0.4,1.6-0.7,2.6-0.7c2.4,0,2.9,1.6,2.9,3.2v2.9c0,0.7,0,1.3,0.1,1.9
		H966.9z M966.7,346.1c-1.5,0-3.3,0.2-3.3,1.7c0,0.9,0.6,1.3,1.3,1.3c1,0,1.7-0.6,1.9-1.3c0-0.1,0.1-0.3,0.1-0.4V346.1z"/>
	<path class="st2" d="M970.3,338.7h1.4V350h-1.4V338.7z"/>
	<path class="st2" d="M975.7,340.1c0,0.5-0.3,0.9-0.9,0.9c-0.5,0-0.9-0.4-0.9-0.9c0-0.5,0.4-0.9,0.9-0.9
		C975.3,339.2,975.6,339.6,975.7,340.1z M974.1,350v-7.7h1.4v7.7H974.1z"/>
	<path class="st2" d="M977.6,348.6c0.4,0.3,1.2,0.6,1.9,0.6c1,0,1.5-0.5,1.5-1.2c0-0.7-0.4-1-1.4-1.4c-1.4-0.5-2.1-1.3-2.1-2.2
		c0-1.2,1-2.3,2.7-2.3c0.8,0,1.5,0.2,1.9,0.5l-0.3,1c-0.3-0.2-0.9-0.5-1.6-0.5c-0.8,0-1.3,0.5-1.3,1.1c0,0.6,0.5,0.9,1.5,1.3
		c1.3,0.5,2,1.2,2,2.3c0,1.4-1.1,2.3-2.9,2.3c-0.8,0-1.6-0.2-2.2-0.5L977.6,348.6z"/>
	<path class="st2" d="M985.8,340.1v2.2h2v1.1h-2v4.2c0,1,0.3,1.5,1.1,1.5c0.4,0,0.6,0,0.8-0.1l0.1,1.1c-0.3,0.1-0.7,0.2-1.3,0.2
		c-0.6,0-1.2-0.2-1.5-0.6c-0.4-0.4-0.5-1.1-0.5-2v-4.2h-1.2v-1.1h1.2v-1.9L985.8,340.1z"/>
	<path class="st2" d="M990.1,346.4c0,1.9,1.2,2.7,2.6,2.7c1,0,1.6-0.2,2.1-0.4l0.2,1c-0.5,0.2-1.4,0.5-2.6,0.5
		c-2.4,0-3.8-1.6-3.8-3.9c0-2.3,1.4-4.2,3.6-4.2c2.5,0,3.2,2.2,3.2,3.6c0,0.3,0,0.5,0,0.7H990.1z M994.3,345.4
		c0-0.9-0.4-2.3-1.9-2.3c-1.4,0-2,1.3-2.2,2.3H994.3z"/>
	<path class="st2" d="M903.9,357.9v9.4c0,0.7,0,1.5,0.1,2h-1.3l-0.1-1.3h0c-0.4,0.9-1.4,1.5-2.6,1.5c-1.9,0-3.3-1.6-3.3-3.9
		c0-2.6,1.6-4.2,3.5-4.2c1.2,0,2,0.6,2.3,1.2h0v-4.6H903.9z M902.5,364.6c0-0.2,0-0.4-0.1-0.6c-0.2-0.9-1-1.6-2-1.6
		c-1.5,0-2.3,1.3-2.3,3c0,1.6,0.8,2.9,2.3,2.9c0.9,0,1.8-0.6,2.1-1.7c0-0.2,0.1-0.4,0.1-0.6V364.6z"/>
	<path class="st2" d="M907.1,365.6c0,1.9,1.2,2.7,2.6,2.7c1,0,1.6-0.2,2.1-0.4l0.2,1c-0.5,0.2-1.4,0.5-2.6,0.5
		c-2.4,0-3.8-1.6-3.8-3.9c0-2.3,1.4-4.2,3.6-4.2c2.5,0,3.2,2.2,3.2,3.6c0,0.3,0,0.5,0,0.7H907.1z M911.2,364.6
		c0-0.9-0.4-2.3-1.9-2.3c-1.4,0-2,1.3-2.2,2.3H911.2z M911.5,358.1l-2,2.3h-1l1.4-2.3H911.5z"/>
	<path class="st2" d="M914.8,361.5l1.5,4.3c0.3,0.7,0.5,1.4,0.6,2h0c0.2-0.6,0.4-1.3,0.6-2l1.5-4.3h1.5l-3,7.7h-1.3l-2.9-7.7H914.8z
		"/>
	<path class="st2" d="M922.6,365.6c0,1.9,1.2,2.7,2.6,2.7c1,0,1.6-0.2,2.1-0.4l0.2,1c-0.5,0.2-1.4,0.5-2.6,0.5
		c-2.4,0-3.8-1.6-3.8-3.9c0-2.3,1.4-4.2,3.6-4.2c2.5,0,3.2,2.2,3.2,3.6c0,0.3,0,0.5,0,0.7H922.6z M926.7,364.6
		c0-0.9-0.4-2.3-1.9-2.3c-1.4,0-2,1.3-2.2,2.3H926.7z"/>
	<path class="st2" d="M929.8,357.9h1.4v11.4h-1.4V357.9z"/>
	<path class="st2" d="M940.6,365.3c0,2.9-2,4.1-3.8,4.1c-2.1,0-3.7-1.5-3.7-4c0-2.6,1.7-4.1,3.8-4.1
		C939.1,361.3,940.6,362.9,940.6,365.3z M934.5,365.4c0,1.7,1,3,2.3,3c1.3,0,2.4-1.3,2.4-3c0-1.3-0.7-3-2.3-3
		C935.2,362.4,934.5,363.9,934.5,365.4z"/>
	<path class="st2" d="M942.4,364c0-1,0-1.8-0.1-2.5h1.3l0.1,1.3h0c0.6-0.9,1.5-1.5,2.7-1.5c1.9,0,3.3,1.6,3.3,3.9
		c0,2.8-1.7,4.2-3.5,4.2c-1,0-1.9-0.5-2.4-1.2h0v4.2h-1.4V364z M943.8,366.1c0,0.2,0,0.4,0.1,0.6c0.3,1,1.1,1.7,2.1,1.7
		c1.5,0,2.4-1.2,2.4-3c0-1.5-0.8-2.9-2.3-2.9c-1,0-1.9,0.7-2.1,1.7c0,0.2-0.1,0.4-0.1,0.6V366.1z"/>
	<path class="st2" d="M951.5,364c0-1,0-1.8-0.1-2.5h1.3l0.1,1.3h0c0.6-0.9,1.5-1.5,2.7-1.5c1.9,0,3.3,1.6,3.3,3.9
		c0,2.8-1.7,4.2-3.5,4.2c-1,0-1.9-0.5-2.4-1.2h0v4.2h-1.4V364z M952.9,366.1c0,0.2,0,0.4,0.1,0.6c0.3,1,1.1,1.7,2.1,1.7
		c1.5,0,2.4-1.2,2.4-3c0-1.5-0.8-2.9-2.3-2.9c-1,0-1.9,0.7-2.1,1.7c0,0.2-0.1,0.4-0.1,0.6V366.1z"/>
	<path class="st2" d="M961.4,365.6c0,1.9,1.2,2.7,2.6,2.7c1,0,1.6-0.2,2.1-0.4l0.2,1c-0.5,0.2-1.4,0.5-2.6,0.5
		c-2.4,0-3.8-1.6-3.8-3.9c0-2.3,1.4-4.2,3.6-4.2c2.5,0,3.2,2.2,3.2,3.6c0,0.3,0,0.5,0,0.7H961.4z M965.5,364.6
		c0-0.9-0.4-2.3-1.9-2.3c-1.4,0-2,1.3-2.2,2.3H965.5z"/>
	<path class="st2" d="M975.1,367.1c0,0.8,0,1.5,0.1,2.1h-1.2l-0.1-1.3h0c-0.4,0.6-1.2,1.4-2.6,1.4c-1.2,0-2.7-0.7-2.7-3.4v-4.5h1.4
		v4.3c0,1.5,0.5,2.5,1.7,2.5c0.9,0,1.6-0.7,1.9-1.3c0.1-0.2,0.1-0.5,0.1-0.7v-4.7h1.4V367.1z"/>
	<path class="st2" d="M977.5,363.9c0-0.9,0-1.7-0.1-2.4h1.2l0.1,1.5h0.1c0.4-1,1.2-1.7,2.2-1.7c0.2,0,0.3,0,0.4,0v1.3
		c-0.1,0-0.3,0-0.5,0c-1,0-1.7,0.7-1.9,1.8c0,0.2-0.1,0.4-0.1,0.7v4.1h-1.4V363.9z"/>
</g>
<line class="st3" x1="710.4" y1="313.8" x2="591.8" y2="313.3"/>
</svg>
