<svg id="Calque_1" data-name="Calque 1" xmlns="http://www.w3.org/2000/svg" viewBox="0 0 1017.69 380.2"><defs><style>.cls-1,.cls-2,.cls-4,.cls-5,.cls-7{fill:none;stroke-miterlimit:10;}.cls-1{stroke:#488aa4;}.cls-2{stroke:#ec6e6b;}.cls-3{fill:#488aa4;}.cls-4{stroke:#325982;opacity:0.35;}.cls-5{stroke:#4789a4;opacity:0.2;}.cls-6{fill:#4789a4;}.cls-7{stroke:#e85522;}.cls-8{fill:#e85522;}</style></defs><title>timeline</title><circle class="cls-1" cx="31.65" cy="133.39" r="30.44"/><circle class="cls-2" cx="31.65" cy="133.39" r="14.28"/><path class="cls-3" d="M1.85,247.38H7.38v1.1H3.18v3.42H7.06V253H3.18v4.65H1.85Z"/><path class="cls-3" d="M9.27,247.52a13.61,13.61,0,0,1,2.55-.22,4.23,4.23,0,0,1,3,.84,2.56,2.56,0,0,1,.81,2,2.72,2.72,0,0,1-1.94,2.62v0a2.61,2.61,0,0,1,1.51,2.08,16.15,16.15,0,0,0,.79,2.82H14.59a13.78,13.78,0,0,1-.67-2.46c-.31-1.41-.87-1.95-2.07-2H10.6v4.45H9.27Zm1.33,4.67H12c1.42,0,2.32-.77,2.32-1.95,0-1.33-1-1.91-2.36-1.91a6.42,6.42,0,0,0-1.31.11Z"/><path class="cls-3" d="M19.22,254.42l-1.06,3.23H16.78l3.49-10.27h1.6l3.51,10.27H24l-1.1-3.23Zm3.37-1-1-2.95c-.22-.68-.37-1.29-.53-1.88h0c-.15.6-.31,1.23-.51,1.86l-1,3Z"/><path class="cls-3" d="M26.88,257.65V247.38h1.46l3.29,5.19a28.48,28.48,0,0,1,1.83,3.34h0c-.12-1.37-.15-2.63-.15-4.22v-4.3H34.6v10.27H33.26L30,252.44A32.21,32.21,0,0,1,28.08,249l0,0c.08,1.3.1,2.54.1,4.24v4.39Z"/><path class="cls-3" d="M44.09,257.32a6.56,6.56,0,0,1-2.71.49,4.8,4.8,0,0,1-5.07-5.2,5.1,5.1,0,0,1,5.37-5.39,5.48,5.48,0,0,1,2.44.45l-.33,1.08a4.84,4.84,0,0,0-2.07-.43c-2.41,0-4,1.55-4,4.24,0,2.52,1.45,4.12,3.94,4.12a5.36,5.36,0,0,0,2.18-.42Z"/><path class="cls-3" d="M51.07,252.83h-4v3.71h4.45v1.11H45.76V247.38h5.55v1.1H47.09v3.25h4Z"/><path class="cls-3" d="M56.49,247.52a12.26,12.26,0,0,1,2.42-.22,4.2,4.2,0,0,1,2.82.74,2.17,2.17,0,0,1,.86,1.82,2.42,2.42,0,0,1-1.74,2.25v0A2.64,2.64,0,0,1,63,254.73a2.72,2.72,0,0,1-.88,2,5.12,5.12,0,0,1-3.55,1,18.39,18.39,0,0,1-2.06-.11Zm1.33,4.21H59c1.39,0,2.21-.74,2.21-1.74,0-1.19-.9-1.67-2.24-1.67a5.4,5.4,0,0,0-1.18.09Zm0,4.91a6.42,6.42,0,0,0,1.11.07c1.38,0,2.65-.51,2.65-2s-1.21-2-2.66-2h-1.1Z"/><path class="cls-3" d="M64.75,247.38h1.34v9.15h4.39v1.12H64.75Z"/><path class="cls-3" d="M77.27,252.83h-4v3.71h4.46v1.11H72V247.38H77.5v1.1H73.28v3.25h4Z"/><path class="cls-3" d="M80.78,247.38v6.09c0,2.29,1,3.26,2.4,3.26s2.5-1,2.5-3.26v-6.09H87v6c0,3.16-1.66,4.45-3.88,4.45s-3.68-1.2-3.68-4.39v-6.05Z"/><path class="cls-3" d="M92.55,247.52A12.19,12.19,0,0,1,95,247.3a4.23,4.23,0,0,1,2.82.74,2.19,2.19,0,0,1,.86,1.82,2.42,2.42,0,0,1-1.74,2.25v0A2.63,2.63,0,0,1,99,254.73a2.68,2.68,0,0,1-.88,2,5.07,5.07,0,0,1-3.54,1,18.23,18.23,0,0,1-2.06-.11Zm1.32,4.21h1.22c1.39,0,2.21-.74,2.21-1.74,0-1.19-.9-1.67-2.25-1.67a5.54,5.54,0,0,0-1.18.09Zm0,4.91a6.55,6.55,0,0,0,1.12.07c1.38,0,2.65-.51,2.65-2s-1.21-2-2.66-2H93.87Z"/><path class="cls-3" d="M109.6,252.41c0,3.53-2.15,5.41-4.77,5.41s-4.62-2.11-4.62-5.22,2-5.39,4.76-5.39S109.6,249.36,109.6,252.41Zm-8,.16c0,2.2,1.19,4.17,3.28,4.17s3.29-1.94,3.29-4.27c0-2.05-1.06-4.18-3.27-4.18S101.62,250.32,101.62,252.57Z"/><path class="cls-3" d="M112.64,247.38v6.09c0,2.29,1,3.26,2.41,3.26s2.49-1,2.49-3.26v-6.09h1.34v6c0,3.16-1.66,4.45-3.89,4.45s-3.68-1.2-3.68-4.39v-6.05Z"/><path class="cls-3" d="M121.18,247.52a13.61,13.61,0,0,1,2.55-.22,4.23,4.23,0,0,1,3,.84,2.56,2.56,0,0,1,.81,2,2.72,2.72,0,0,1-1.94,2.62v0a2.59,2.59,0,0,1,1.5,2.08,16.81,16.81,0,0,0,.8,2.82H126.5a13.46,13.46,0,0,1-.68-2.46c-.3-1.41-.86-1.95-2.06-2h-1.25v4.45h-1.33Zm1.33,4.67h1.35c1.42,0,2.32-.77,2.32-1.95,0-1.33-1-1.91-2.36-1.91a6.42,6.42,0,0,0-1.31.11Z"/><path class="cls-3" d="M137.26,257.19a9.52,9.52,0,0,1-3.16.56,4.81,4.81,0,0,1-5.27-5.17c0-3.06,2.11-5.31,5.55-5.31a6.46,6.46,0,0,1,2.57.47l-.33,1.09a5.19,5.19,0,0,0-2.27-.44,3.83,3.83,0,0,0-4.12,4.12c0,2.6,1.56,4.15,4,4.15a4.37,4.37,0,0,0,1.77-.28v-3.06h-2.08v-1.06h3.38Z"/><path class="cls-3" d="M148.06,252.41c0,3.53-2.14,5.41-4.76,5.41s-4.62-2.11-4.62-5.22,2-5.39,4.76-5.39S148.06,249.36,148.06,252.41Zm-8,.16c0,2.2,1.2,4.17,3.29,4.17s3.29-1.94,3.29-4.27c0-2.05-1.07-4.18-3.27-4.18S140.08,250.32,140.08,252.57Z"/><path class="cls-3" d="M157.61,257.19a9.41,9.41,0,0,1-3.16.56,4.81,4.81,0,0,1-5.27-5.17c0-3.06,2.12-5.31,5.56-5.31a6.46,6.46,0,0,1,2.57.47l-.33,1.09a5.26,5.26,0,0,0-2.27-.44,3.84,3.84,0,0,0-4.13,4.12c0,2.6,1.56,4.15,4,4.15a4.35,4.35,0,0,0,1.76-.28v-3.06h-2.08v-1.06h3.38Z"/><path class="cls-3" d="M159.63,257.65V247.38h1.46l3.29,5.19a28.48,28.48,0,0,1,1.83,3.34h0c-.12-1.37-.15-2.63-.15-4.22v-4.3h1.25v10.27H166l-3.27-5.21a32.21,32.21,0,0,1-1.91-3.44l-.05,0c.08,1.3.1,2.54.1,4.24v4.39Z"/><path class="cls-3" d="M175,252.83h-4v3.71h4.45v1.11h-5.79V247.38h5.56v1.1H171v3.25h4Z"/><path class="cls-3" d="M0,278.08a2.17,2.17,0,0,0,1.46-.57c.37-.42.52-1,.52-2.77v-6.17H3.31v6.69a4.1,4.1,0,0,1-.88,3,3.41,3.41,0,0,1-2.29.83Zm3.47-11.59a.8.8,0,0,1-.85.83.8.8,0,0,1-.81-.83.81.81,0,0,1,.85-.83A.79.79,0,0,1,3.47,266.49Z"/><path class="cls-3" d="M12.19,272.19a3.61,3.61,0,0,1-3.67,3.92A3.5,3.5,0,0,1,5,272.32a3.6,3.6,0,0,1,3.66-3.91A3.48,3.48,0,0,1,12.19,272.19Zm-5.85.08c0,1.62.93,2.84,2.23,2.84s2.25-1.2,2.25-2.88c0-1.24-.63-2.82-2.22-2.82S6.34,270.88,6.34,272.27Z"/><path class="cls-3" d="M20.05,273.93c0,.77,0,1.43.06,2H18.92l-.07-1.21h0a2.73,2.73,0,0,1-2.44,1.37c-1.15,0-2.53-.64-2.53-3.23v-4.31h1.33v4.08c0,1.4.44,2.36,1.65,2.36a2,2,0,0,0,1.77-1.23,2.12,2.12,0,0,0,.12-.69v-4.52h1.34Z"/><path class="cls-3" d="M22.28,270.87c0-.87,0-1.61-.06-2.3H23.4l.05,1.45h0a2.24,2.24,0,0,1,2.06-1.61,2.13,2.13,0,0,1,.37,0v1.26a3,3,0,0,0-.46,0,1.87,1.87,0,0,0-1.79,1.71,3.13,3.13,0,0,0-.06.63V276H22.28Z"/><path class="cls-3" d="M27.33,270.56c0-.76,0-1.37-.06-2h1.18l.08,1.22h0A2.7,2.7,0,0,1,31,268.41c1,0,2.6.61,2.6,3.14V276H32.27V271.7c0-1.2-.45-2.19-1.71-2.19a1.92,1.92,0,0,0-1.8,1.37,2,2,0,0,0-.1.62V276H27.33Z"/><path class="cls-3" d="M39.88,276l-.12-.93h0a2.74,2.74,0,0,1-2.25,1.09A2.1,2.1,0,0,1,35.21,274c0-1.79,1.59-2.77,4.44-2.75v-.15A1.52,1.52,0,0,0,38,269.4a3.59,3.59,0,0,0-1.92.54l-.31-.89a4.66,4.66,0,0,1,2.43-.64c2.26,0,2.81,1.54,2.81,3v2.76a12,12,0,0,0,.11,1.77Zm-.21-3.77c-1.45,0-3.11.23-3.11,1.66a1.18,1.18,0,0,0,1.25,1.28,1.86,1.86,0,0,0,1.8-1.23,1.71,1.71,0,0,0,.06-.43Z"/><path class="cls-3" d="M43.14,265.12h1.34V276H43.14Z"/><path class="cls-3" d="M48.24,266.49a.81.81,0,0,1-.86.83.79.79,0,0,1-.8-.83.83.83,0,0,1,1.66,0ZM46.74,276v-7.38h1.33V276Z"/><path class="cls-3" d="M50.12,274.58a3.66,3.66,0,0,0,1.77.53c1,0,1.44-.49,1.44-1.1s-.39-1-1.37-1.35c-1.34-.48-2-1.21-2-2.09a2.27,2.27,0,0,1,2.55-2.16,3.55,3.55,0,0,1,1.8.45l-.33,1a3,3,0,0,0-1.51-.43c-.79,0-1.22.46-1.22,1s.43.88,1.4,1.26c1.27.47,1.93,1.11,1.93,2.21,0,1.31-1,2.23-2.76,2.23a4.17,4.17,0,0,1-2.07-.52Z"/><path class="cls-3" d="M58,266.45v2.12h1.93v1H58v4c0,.92.27,1.44,1,1.44a2.43,2.43,0,0,0,.77-.1l.07,1a3.48,3.48,0,0,1-1.2.19,1.89,1.89,0,0,1-1.45-.57,2.84,2.84,0,0,1-.52-1.93v-4H55.5v-1h1.14V266.8Z"/><path class="cls-3" d="M62.05,272.5a2.36,2.36,0,0,0,2.52,2.56,4.85,4.85,0,0,0,2-.38l.24,1a6,6,0,0,1-2.46.47,3.44,3.44,0,0,1-3.63-3.72c0-2.24,1.32-4,3.47-4,2.41,0,3,2.11,3,3.46a3.17,3.17,0,0,1,0,.63Zm3.92-1a1.89,1.89,0,0,0-1.85-2.17,2.19,2.19,0,0,0-2.05,2.17Z"/><path class="cls-3" d="M164.43,134.12h12.5a0,0,0,0,1,0,0v77.31a0,0,0,0,1,0,0H158.8a0,0,0,0,1,0,0V139.75a5.63,5.63,0,0,1,5.63-5.63Z" transform="translate(335.73 345.54) rotate(180)"/><line class="cls-4" x1="165.38" y1="237.17" x2="165.38" y2="211.42"/><line id="timelinebar" class="cls-1" x1="61.47" y1="133.75" x2="1017.69" y2="133.75"/><line class="cls-5" x1="200.04" y1="78.98" x2="200.04" y2="19.47"/><line class="cls-5" x1="284.79" y1="80" x2="284.79" y2="19.47"/><line class="cls-5" x1="367.18" y1="91.28" x2="367.18" y2="19.47"/><line class="cls-5" x1="538.13" y1="77.76" x2="538.13" y2="19.47"/><line class="cls-5" x1="622.95" y1="85.85" x2="622.95" y2="19.47"/><line class="cls-5" x1="707.77" y1="133.75" x2="707.77" y2="19.47"/><line class="cls-5" x1="792.59" y1="133.75" x2="792.59" y2="19.47"/><line class="cls-5" x1="877.4" y1="133.75" x2="877.4" y2="19.47"/><line class="cls-5" x1="116.46" y1="84.25" x2="116.46" y2="19.47"/><path class="cls-6" d="M99.78,11.17v-.72l.92-.89c2.22-2.11,3.22-3.23,3.23-4.54a1.55,1.55,0,0,0-1.72-1.7,2.91,2.91,0,0,0-1.84.74L100,3.23a3.8,3.8,0,0,1,2.46-.88,2.44,2.44,0,0,1,2.66,2.52c0,1.6-1.16,2.9-3,4.66l-.7.64v0h3.9v1Z"/><path class="cls-6" d="M112.39,6.74c0,2.95-1.09,4.58-3,4.58-1.7,0-2.85-1.59-2.87-4.46s1.25-4.51,3-4.51S112.39,4,112.39,6.74Zm-4.71.13c0,2.26.7,3.54,1.76,3.54,1.21,0,1.78-1.4,1.78-3.62s-.55-3.54-1.76-3.54C108.43,3.25,107.68,4.51,107.68,6.87Z"/><path class="cls-6" d="M116,3.59h0l-1.51.81-.23-.89,1.9-1h1v8.68H116Z"/><path class="cls-6" d="M126.09,6.74c0,2.95-1.1,4.58-3,4.58-1.69,0-2.84-1.59-2.87-4.46s1.26-4.51,3-4.51S126.09,4,126.09,6.74Zm-4.71.13c0,2.26.69,3.54,1.76,3.54s1.77-1.4,1.77-3.62-.54-3.54-1.76-3.54C122.12,3.25,121.38,4.51,121.38,6.87Z"/><path class="cls-6" d="M185.26,11.17v-.72l.92-.89c2.22-2.11,3.22-3.23,3.23-4.54a1.55,1.55,0,0,0-1.72-1.7,2.91,2.91,0,0,0-1.84.74l-.38-.83a3.8,3.8,0,0,1,2.46-.88,2.44,2.44,0,0,1,2.66,2.52c0,1.6-1.16,2.9-3,4.66l-.7.64v0h3.9v1Z"/><path class="cls-6" d="M197.88,6.74c0,2.95-1.1,4.58-3,4.58-1.7,0-2.85-1.59-2.87-4.46s1.25-4.51,3-4.51S197.88,4,197.88,6.74Zm-4.72.13c0,2.26.7,3.54,1.76,3.54,1.21,0,1.78-1.4,1.78-3.62s-.55-3.54-1.76-3.54C193.91,3.25,193.16,4.51,193.16,6.87Z"/><path class="cls-6" d="M201.5,3.59h0L200,4.4l-.23-.89,1.9-1h1v8.68H201.5Z"/><path class="cls-6" d="M208.35,3.59h0l-1.5.81-.23-.89,1.9-1h1v8.68h-1.14Z"/><path class="cls-6" d="M270.13,11.17v-.72l.92-.89c2.22-2.11,3.22-3.23,3.23-4.54a1.55,1.55,0,0,0-1.72-1.7,2.91,2.91,0,0,0-1.84.74l-.38-.83a3.8,3.8,0,0,1,2.46-.88,2.44,2.44,0,0,1,2.66,2.52c0,1.6-1.17,2.9-3,4.66l-.7.64v0h3.9v1Z"/><path class="cls-6" d="M282.74,6.74c0,2.95-1.09,4.58-3,4.58-1.7,0-2.85-1.59-2.87-4.46s1.25-4.51,3-4.51S282.74,4,282.74,6.74ZM278,6.87c0,2.26.7,3.54,1.76,3.54s1.78-1.4,1.78-3.62-.55-3.54-1.76-3.54C278.78,3.25,278,4.51,278,6.87Z"/><path class="cls-6" d="M286.37,3.59h0l-1.51.81-.23-.89,1.9-1h1v8.68h-1.14Z"/><path class="cls-6" d="M290.67,11.17v-.72l.92-.89c2.22-2.11,3.22-3.23,3.23-4.54a1.55,1.55,0,0,0-1.72-1.7,2.91,2.91,0,0,0-1.84.74l-.38-.83a3.8,3.8,0,0,1,2.46-.88A2.44,2.44,0,0,1,296,4.87c0,1.6-1.16,2.9-3,4.66l-.7.64v0h3.9v1Z"/><path class="cls-6" d="M353.45,11.17v-.72l.93-.89c2.21-2.11,3.21-3.23,3.23-4.54a1.56,1.56,0,0,0-1.73-1.7,2.93,2.93,0,0,0-1.84.74l-.37-.83a3.78,3.78,0,0,1,2.45-.88,2.44,2.44,0,0,1,2.66,2.52c0,1.6-1.16,2.9-3,4.66l-.69.64v0H359v1Z"/><path class="cls-6" d="M366.07,6.74c0,2.95-1.09,4.58-3,4.58-1.69,0-2.84-1.59-2.87-4.46s1.26-4.51,3-4.51S366.07,4,366.07,6.74Zm-4.71.13c0,2.26.69,3.54,1.76,3.54S364.9,9,364.9,6.79s-.55-3.54-1.77-3.54C362.1,3.25,361.36,4.51,361.36,6.87Z"/><path class="cls-6" d="M369.7,3.59h0l-1.51.81-.22-.89,1.89-1h1v8.68H369.7Z"/><path class="cls-6" d="M374.28,9.82a3.81,3.81,0,0,0,1.92.55c1.51,0,2-1,2-1.68,0-1.22-1.11-1.74-2.24-1.74h-.66V6.07h.66c.85,0,1.93-.44,1.93-1.47,0-.69-.44-1.31-1.52-1.31a3.15,3.15,0,0,0-1.73.58L374.29,3a4.13,4.13,0,0,1,2.27-.66c1.71,0,2.48,1,2.48,2.07a2.15,2.15,0,0,1-1.6,2v0a2.25,2.25,0,0,1,1.94,2.22c0,1.39-1.08,2.61-3.17,2.61a4.38,4.38,0,0,1-2.25-.59Z"/><path class="cls-6" d="M439.76,11.17v-.72l.93-.89c2.21-2.11,3.21-3.23,3.23-4.54a1.56,1.56,0,0,0-1.73-1.7,2.93,2.93,0,0,0-1.84.74L440,3.23a3.78,3.78,0,0,1,2.45-.88,2.44,2.44,0,0,1,2.66,2.52c0,1.6-1.16,2.9-3,4.66l-.69.64v0h3.89v1Z"/><path class="cls-6" d="M452.38,6.74c0,2.95-1.1,4.58-3,4.58-1.69,0-2.84-1.59-2.87-4.46s1.26-4.51,3-4.51S452.38,4,452.38,6.74Zm-4.71.13c0,2.26.69,3.54,1.76,3.54S451.2,9,451.2,6.79s-.54-3.54-1.76-3.54C448.41,3.25,447.67,4.51,447.67,6.87Z"/><path class="cls-6" d="M456,3.59h0l-1.51.81-.22-.89,1.89-1h1v8.68H456Z"/><path class="cls-6" d="M463.94,11.17V8.81h-4V8l3.88-5.54h1.27v5.4h1.21v.92h-1.21v2.36Zm0-3.28V5c0-.45,0-.91,0-1.36h0c-.27.51-.48.88-.72,1.28l-2.13,3v0Z"/><path class="cls-6" d="M525.4,11.17v-.72l.92-.89c2.21-2.11,3.21-3.23,3.23-4.54a1.56,1.56,0,0,0-1.73-1.7,2.93,2.93,0,0,0-1.84.74l-.37-.83a3.78,3.78,0,0,1,2.45-.88,2.44,2.44,0,0,1,2.66,2.52c0,1.6-1.16,2.9-3,4.66l-.69.64v0h3.9v1Z"/><path class="cls-6" d="M538,6.74c0,2.95-1.09,4.58-3,4.58-1.69,0-2.84-1.59-2.87-4.46s1.26-4.51,3-4.51S538,4,538,6.74Zm-4.71.13c0,2.26.69,3.54,1.76,3.54s1.78-1.4,1.78-3.62-.55-3.54-1.77-3.54C534,3.25,533.3,4.51,533.3,6.87Z"/><path class="cls-6" d="M541.64,3.59h0l-1.51.81-.22-.89,1.89-1h1v8.68h-1.13Z"/><path class="cls-6" d="M551.12,3.48h-3.31l-.34,2.23a4.34,4.34,0,0,1,.71,0,3.65,3.65,0,0,1,1.87.46,2.48,2.48,0,0,1,1.24,2.23,3,3,0,0,1-3.23,3,4.3,4.3,0,0,1-2.16-.53l.29-.9a3.94,3.94,0,0,0,1.86.48,1.91,1.91,0,0,0,2.05-1.88c0-1.12-.76-1.92-2.5-1.92a9.09,9.09,0,0,0-1.2.09L547,2.49h4.16Z"/><path class="cls-6" d="M608,11.17v-.72l.93-.89c2.21-2.11,3.21-3.23,3.23-4.54a1.55,1.55,0,0,0-1.72-1.7,2.94,2.94,0,0,0-1.85.74l-.37-.83a3.78,3.78,0,0,1,2.46-.88,2.44,2.44,0,0,1,2.65,2.52c0,1.6-1.16,2.9-3,4.66l-.69.64v0h3.9v1Z"/><path class="cls-6" d="M620.6,6.74c0,2.95-1.09,4.58-3,4.58-1.69,0-2.84-1.59-2.87-4.46s1.26-4.51,3-4.51S620.6,4,620.6,6.74Zm-4.71.13c0,2.26.69,3.54,1.76,3.54s1.78-1.4,1.78-3.62-.55-3.54-1.77-3.54C616.64,3.25,615.89,4.51,615.89,6.87Z"/><path class="cls-6" d="M624.23,3.59h0l-1.51.81-.22-.89,1.89-1h1v8.68h-1.13Z"/><path class="cls-6" d="M633.48,3.32a4.06,4.06,0,0,0-.88.06,3.52,3.52,0,0,0-3,3.08h0a2.64,2.64,0,0,1,4.71,1.8,2.9,2.9,0,0,1-2.88,3.06c-1.85,0-3.07-1.44-3.07-3.7a5.42,5.42,0,0,1,1.47-3.91,4.68,4.68,0,0,1,2.78-1.28,4.88,4.88,0,0,1,.85-.07Zm-.33,5a1.77,1.77,0,0,0-1.79-2,1.92,1.92,0,0,0-1.68,1.07,1,1,0,0,0-.14.52c0,1.43.68,2.48,1.91,2.48C632.47,10.41,633.15,9.57,633.15,8.33Z"/><path class="cls-6" d="M692.8,11.17v-.72l.93-.89C695.94,7.45,696.94,6.33,697,5a1.56,1.56,0,0,0-1.73-1.7,2.93,2.93,0,0,0-1.84.74L693,3.23a3.78,3.78,0,0,1,2.45-.88,2.44,2.44,0,0,1,2.66,2.52c0,1.6-1.16,2.9-3,4.66l-.69.64v0h3.89v1Z"/><path class="cls-6" d="M705.42,6.74c0,2.95-1.1,4.58-3,4.58-1.69,0-2.84-1.59-2.87-4.46s1.26-4.51,3-4.51S705.42,4,705.42,6.74Zm-4.71.13c0,2.26.69,3.54,1.76,3.54s1.77-1.4,1.77-3.62-.54-3.54-1.76-3.54C701.45,3.25,700.71,4.51,700.71,6.87Z"/><path class="cls-6" d="M709.05,3.59h0l-1.51.81-.22-.89,1.89-1h1v8.68h-1.13Z"/><path class="cls-6" d="M719,2.49v.78l-3.78,7.9H714l3.76-7.67v0h-4.24v-1Z"/><path class="cls-6" d="M779,11.17v-.72l.92-.89c2.21-2.11,3.21-3.23,3.23-4.54a1.55,1.55,0,0,0-1.72-1.7,2.94,2.94,0,0,0-1.85.74l-.37-.83a3.78,3.78,0,0,1,2.46-.88,2.43,2.43,0,0,1,2.65,2.52c0,1.6-1.16,2.9-3,4.66l-.69.64v0h3.9v1Z"/><path class="cls-6" d="M791.58,6.74c0,2.95-1.09,4.58-3,4.58-1.69,0-2.84-1.59-2.87-4.46s1.26-4.51,3-4.51S791.58,4,791.58,6.74Zm-4.71.13c0,2.26.69,3.54,1.76,3.54s1.78-1.4,1.78-3.62-.55-3.54-1.77-3.54C787.62,3.25,786.87,4.51,786.87,6.87Z"/><path class="cls-6" d="M795.21,3.59h0l-1.5.81-.23-.89,1.89-1h1v8.68h-1.14Z"/><path class="cls-6" d="M799.4,9a2.48,2.48,0,0,1,1.72-2.32v0a2.17,2.17,0,0,1-1.38-1.95,2.43,2.43,0,0,1,2.69-2.31,2.24,2.24,0,0,1,2.52,2.13,2.2,2.2,0,0,1-1.43,2v0a2.41,2.41,0,0,1,1.75,2.24,2.67,2.67,0,0,1-3,2.53C800.5,11.32,799.4,10.24,799.4,9Zm4.67-.05c0-1.06-.73-1.57-1.91-1.9a1.88,1.88,0,0,0-1.56,1.79,1.6,1.6,0,0,0,1.74,1.65A1.56,1.56,0,0,0,804.07,8.92Zm-3.23-4.34c0,.86.66,1.33,1.66,1.6a1.71,1.71,0,0,0,1.32-1.58,1.35,1.35,0,0,0-1.47-1.41A1.38,1.38,0,0,0,800.84,4.58Z"/><path class="cls-6" d="M862.44,11.17v-.72l.92-.89c2.22-2.11,3.22-3.23,3.23-4.54a1.55,1.55,0,0,0-1.72-1.7,2.91,2.91,0,0,0-1.84.74l-.38-.83a3.8,3.8,0,0,1,2.46-.88,2.44,2.44,0,0,1,2.66,2.52c0,1.6-1.17,2.9-3,4.66l-.69.64v0H868v1Z"/><path class="cls-6" d="M875.05,6.74c0,2.95-1.09,4.58-3,4.58-1.7,0-2.85-1.59-2.87-4.46s1.25-4.51,3-4.51S875.05,4,875.05,6.74Zm-4.71.13c0,2.26.69,3.54,1.76,3.54s1.78-1.4,1.78-3.62-.55-3.54-1.76-3.54C871.09,3.25,870.34,4.51,870.34,6.87Z"/><path class="cls-6" d="M878.68,3.59h0l-1.51.81-.23-.89,1.9-1h1v8.68h-1.14Z"/><path class="cls-6" d="M883.66,10.34a4.68,4.68,0,0,0,1,0,3.2,3.2,0,0,0,1.81-.84,3.77,3.77,0,0,0,1.15-2.31h0a2.6,2.6,0,0,1-4.6-1.72,3,3,0,0,1,3-3.08c1.78,0,2.87,1.44,2.87,3.65a5.52,5.52,0,0,1-1.49,4.08,4.39,4.39,0,0,1-2.53,1.16,5.52,5.52,0,0,1-1.08.07Zm.43-5a1.67,1.67,0,0,0,1.67,1.84,2,2,0,0,0,1.71-.9.88.88,0,0,0,.1-.43c0-1.48-.54-2.62-1.77-2.62C884.8,3.24,884.09,4.12,884.09,5.35Z"/><path class="cls-6" d="M947.73,11.17v-.72l.92-.89c2.22-2.11,3.22-3.23,3.23-4.54a1.55,1.55,0,0,0-1.72-1.7,2.91,2.91,0,0,0-1.84.74L948,3.23a3.78,3.78,0,0,1,2.45-.88,2.44,2.44,0,0,1,2.66,2.52c0,1.6-1.16,2.9-3,4.66l-.7.64v0h3.9v1Z"/><path class="cls-6" d="M960.35,6.74c0,2.95-1.1,4.58-3,4.58-1.7,0-2.84-1.59-2.87-4.46s1.25-4.51,3-4.51S960.35,4,960.35,6.74Zm-4.72.13c0,2.26.7,3.54,1.77,3.54s1.77-1.4,1.77-3.62-.54-3.54-1.76-3.54C956.38,3.25,955.63,4.51,955.63,6.87Z"/><path class="cls-6" d="M961.43,11.17v-.72l.92-.89c2.21-2.11,3.22-3.23,3.23-4.54a1.55,1.55,0,0,0-1.72-1.7,2.94,2.94,0,0,0-1.85.74l-.37-.83a3.8,3.8,0,0,1,2.46-.88,2.43,2.43,0,0,1,2.65,2.52c0,1.6-1.16,2.9-3,4.66l-.69.64v0H967v1Z"/><path class="cls-6" d="M974,6.74c0,2.95-1.09,4.58-3,4.58-1.69,0-2.84-1.59-2.87-4.46s1.26-4.51,3-4.51S974,4,974,6.74Zm-4.71.13c0,2.26.69,3.54,1.76,3.54s1.78-1.4,1.78-3.62-.55-3.54-1.77-3.54C970.08,3.25,969.33,4.51,969.33,6.87Z"/><path class="cls-7" d="M116.46,132.77V79H251.67c8.05,0,14.64,6,14.64,13.33v40.46"/><line class="cls-4" x1="181.59" y1="238.16" x2="1.69" y2="237.17"/><path class="cls-3" d="M192.83,134.12h20a0,0,0,0,1,0,0v77.31a0,0,0,0,1,0,0H187.2a0,0,0,0,1,0,0V139.75A5.63,5.63,0,0,1,192.83,134.12Z" transform="translate(400.07 345.54) rotate(180)"/><path class="cls-3" d="M246.28,134.12h20a0,0,0,0,1,0,0v77.31a0,0,0,0,1,0,0H240.65a0,0,0,0,1,0,0V139.75A5.63,5.63,0,0,1,246.28,134.12Z" transform="translate(506.96 345.54) rotate(180)"/><line class="cls-4" x1="198.08" y1="324.59" x2="198.08" y2="211.68"/><line class="cls-4" x1="266.31" y1="325.25" x2="154.38" y2="325.25"/><path class="cls-3" d="M153.43,335.87h1.34V345h4.39v1.12h-5.73Z"/><path class="cls-3" d="M166,341.33h-4V345h4.46v1.11h-5.79V335.87h5.55V337H162v3.25h4Z"/><path class="cls-3" d="M171.36,336a12.29,12.29,0,0,1,2.43-.23,4.23,4.23,0,0,1,2.82.75,2.18,2.18,0,0,1,.86,1.82,2.42,2.42,0,0,1-1.74,2.25v0a2.63,2.63,0,0,1,2.12,2.58,2.7,2.7,0,0,1-.88,2,5,5,0,0,1-3.55,1,17.86,17.86,0,0,1-2.06-.12Zm1.33,4.2h1.22c1.38,0,2.21-.74,2.21-1.73,0-1.19-.91-1.68-2.25-1.68a5.33,5.33,0,0,0-1.18.1Zm0,4.92a6.55,6.55,0,0,0,1.12.07c1.38,0,2.64-.51,2.64-2s-1.21-2-2.66-2h-1.1Z"/><path class="cls-3" d="M181,335.87v10.28h-1.33V335.87Z"/><path class="cls-3" d="M188.59,341.33h-4V345h4.45v1.11h-5.79V335.87h5.56V337h-4.22v3.25h4Z"/><path class="cls-3" d="M190.77,346.15V335.87h1.46l3.29,5.2a30.22,30.22,0,0,1,1.84,3.34h0c-.12-1.38-.14-2.63-.14-4.22v-4.31h1.25v10.28h-1.35l-3.27-5.21A32.21,32.21,0,0,1,192,337.5l0,0c.07,1.3.09,2.54.09,4.23v4.4Z"/><path class="cls-3" d="M204,336a14.86,14.86,0,0,1,2.55-.21,4.23,4.23,0,0,1,2.88.86,2.77,2.77,0,0,1,.9,2.15,3,3,0,0,1-.79,2.2,4.26,4.26,0,0,1-3.14,1.12,4.45,4.45,0,0,1-1.08-.09v4.12H204Zm1.32,4.95a4.39,4.39,0,0,0,1.1.11c1.61,0,2.58-.79,2.58-2.19s-1-2-2.42-2a6.38,6.38,0,0,0-1.26.11Z"/><path class="cls-3" d="M213.48,335.87V342c0,2.29,1,3.27,2.4,3.27s2.5-1,2.5-3.27v-6.09h1.33v6c0,3.16-1.66,4.45-3.89,4.45s-3.68-1.2-3.68-4.39v-6.06Z"/><path class="cls-3" d="M222,336a12.29,12.29,0,0,1,2.43-.23,4.23,4.23,0,0,1,2.82.75,2.18,2.18,0,0,1,.86,1.82,2.44,2.44,0,0,1-1.74,2.25v0a2.63,2.63,0,0,1,2.12,2.58,2.7,2.7,0,0,1-.88,2,5,5,0,0,1-3.55,1,17.86,17.86,0,0,1-2.06-.12Zm1.33,4.2h1.21c1.39,0,2.22-.74,2.22-1.73,0-1.19-.91-1.68-2.25-1.68a5.26,5.26,0,0,0-1.18.1Zm0,4.92a6.55,6.55,0,0,0,1.12.07c1.37,0,2.64-.51,2.64-2s-1.21-2-2.66-2h-1.1Z"/><path class="cls-3" d="M230.28,335.87h1.33V345H236v1.12h-5.72Z"/><path class="cls-3" d="M238.81,335.87v10.28h-1.34V335.87Z"/><path class="cls-3" d="M248.3,345.82a6.65,6.65,0,0,1-2.72.49c-2.89,0-5.06-1.83-5.06-5.21a5.1,5.1,0,0,1,5.36-5.39,5.43,5.43,0,0,1,2.44.46l-.33,1.08a4.82,4.82,0,0,0-2.06-.43c-2.42,0-4,1.54-4,4.24,0,2.52,1.45,4.12,3.94,4.12a5.34,5.34,0,0,0,2.17-.42Z"/><path class="cls-3" d="M151.59,366.57a2.12,2.12,0,0,0,1.46-.56c.37-.42.52-1,.52-2.77v-6.17h1.33v6.68a4.12,4.12,0,0,1-.88,3.05,3.46,3.46,0,0,1-2.29.83ZM155.06,355a.83.83,0,1,1-1.66,0,.82.82,0,0,1,.84-.84A.8.8,0,0,1,155.06,355Z"/><path class="cls-3" d="M163.77,360.69a3.6,3.6,0,0,1-3.66,3.92,3.52,3.52,0,0,1-3.55-3.8,3.61,3.61,0,0,1,3.66-3.91A3.49,3.49,0,0,1,163.77,360.69Zm-5.84.08c0,1.62.92,2.84,2.23,2.84s2.25-1.2,2.25-2.88c0-1.24-.63-2.82-2.22-2.82S157.93,359.38,157.93,360.77Z"/><path class="cls-3" d="M171.64,362.43c0,.77,0,1.43.06,2h-1.19l-.07-1.2h0a2.76,2.76,0,0,1-2.44,1.37c-1.15,0-2.54-.65-2.54-3.23v-4.31h1.34v4.08c0,1.4.44,2.36,1.65,2.36a2,2,0,0,0,1.77-1.24,2,2,0,0,0,.12-.68v-4.52h1.34Z"/><path class="cls-3" d="M173.87,359.37c0-.87,0-1.61-.06-2.3H175l.05,1.45h.05a2.25,2.25,0,0,1,2.06-1.62,1.45,1.45,0,0,1,.37,0v1.26a2.07,2.07,0,0,0-.46,0,1.88,1.88,0,0,0-1.79,1.72,3.13,3.13,0,0,0-.06.63v3.93h-1.33Z"/><path class="cls-3" d="M178.92,359.06c0-.77,0-1.38-.06-2H180l.08,1.21h0a2.74,2.74,0,0,1,2.44-1.38c1,0,2.6.61,2.6,3.15v4.39h-1.33v-4.25c0-1.19-.45-2.19-1.71-2.19a2,2,0,0,0-1.9,2v4.44h-1.33Z"/><path class="cls-3" d="M191.47,364.44l-.12-.93h0a2.73,2.73,0,0,1-2.26,1.1,2.11,2.11,0,0,1-2.25-2.11c0-1.79,1.59-2.77,4.43-2.75v-.16a1.52,1.52,0,0,0-1.68-1.7,3.65,3.65,0,0,0-1.92.55l-.3-.89a4.66,4.66,0,0,1,2.43-.65c2.26,0,2.81,1.54,2.81,3v2.76a10.57,10.57,0,0,0,.11,1.76Zm-.21-3.76c-1.45,0-3.11.23-3.11,1.65a1.19,1.19,0,0,0,1.25,1.29,1.85,1.85,0,0,0,1.8-1.24,1.58,1.58,0,0,0,.06-.42Z"/><path class="cls-3" d="M194.73,353.62h1.33v10.82h-1.33Z"/><path class="cls-3" d="M199.83,355a.84.84,0,0,1-1.67,0,.83.83,0,0,1,.84-.84A.81.81,0,0,1,199.83,355Zm-1.5,9.45v-7.37h1.33v7.37Z"/><path class="cls-3" d="M201.71,363.08a3.63,3.63,0,0,0,1.77.52c1,0,1.44-.48,1.44-1.09s-.4-1-1.38-1.35c-1.33-.49-2-1.21-1.95-2.09a2.28,2.28,0,0,1,2.55-2.17,3.55,3.55,0,0,1,1.8.46l-.33,1a2.86,2.86,0,0,0-1.51-.43c-.79,0-1.22.45-1.22,1s.43.88,1.39,1.26c1.28.47,1.94,1.11,1.94,2.21,0,1.31-1,2.22-2.76,2.22a4.17,4.17,0,0,1-2.07-.51Z"/><path class="cls-3" d="M209.54,355v2.12h1.93v1h-1.93v4c0,.92.27,1.44,1,1.44a2.43,2.43,0,0,0,.77-.1l.06,1a3.45,3.45,0,0,1-1.19.18,1.89,1.89,0,0,1-1.45-.56,2.84,2.84,0,0,1-.52-1.93v-4h-1.14v-1h1.14V355.3Z"/><path class="cls-3" d="M213.64,361a2.35,2.35,0,0,0,2.52,2.56,4.85,4.85,0,0,0,2-.38l.24.95a5.86,5.86,0,0,1-2.46.47,3.43,3.43,0,0,1-3.63-3.72c0-2.23,1.32-4,3.47-4,2.4,0,3,2.11,3,3.47a3.41,3.41,0,0,1,0,.63Zm3.92-1a1.9,1.9,0,0,0-1.85-2.18,2.21,2.21,0,0,0-2.06,2.18Z"/><line class="cls-4" x1="251.1" y1="236.22" x2="251.1" y2="211.49"/><line class="cls-4" x1="346.47" y1="236.93" x2="227.79" y2="236.93"/><path class="cls-3" d="M228.94,247.38h5.54v1.1h-4.2v3.42h3.88V253h-3.88v4.65h-1.34Z"/><path class="cls-3" d="M236.37,247.52a13.61,13.61,0,0,1,2.55-.22,4.23,4.23,0,0,1,3,.84,2.59,2.59,0,0,1,.8,2,2.71,2.71,0,0,1-1.93,2.62v0a2.6,2.6,0,0,1,1.5,2.08,17.14,17.14,0,0,0,.79,2.82h-1.37a13.46,13.46,0,0,1-.68-2.46c-.3-1.41-.86-1.95-2.06-2h-1.26v4.45h-1.32Zm1.32,4.67h1.36c1.42,0,2.32-.77,2.32-1.95,0-1.33-1-1.91-2.36-1.91a6.54,6.54,0,0,0-1.32.11Z"/><path class="cls-3" d="M246.31,254.42l-1.06,3.23h-1.37l3.49-10.27H249l3.51,10.27h-1.42l-1.1-3.23Zm3.38-1-1-2.95c-.22-.68-.38-1.29-.53-1.88h0c-.15.6-.31,1.23-.51,1.86l-1,3Z"/><path class="cls-3" d="M254,257.65V247.38h1.46l3.29,5.19a28.48,28.48,0,0,1,1.83,3.34h0c-.12-1.37-.15-2.63-.15-4.22v-4.3h1.25v10.27h-1.35l-3.26-5.21a32.21,32.21,0,0,1-1.91-3.44l-.05,0c.08,1.3.1,2.54.1,4.24v4.39Z"/><path class="cls-3" d="M271.19,257.32a6.59,6.59,0,0,1-2.71.49,4.8,4.8,0,0,1-5.07-5.2,5.1,5.1,0,0,1,5.36-5.39,5.48,5.48,0,0,1,2.44.45l-.32,1.08a4.87,4.87,0,0,0-2.07-.43c-2.41,0-4,1.55-4,4.24,0,2.52,1.45,4.12,3.94,4.12a5.39,5.39,0,0,0,2.18-.42Z"/><path class="cls-3" d="M278.17,252.83h-4v3.71h4.45v1.11h-5.79V247.38h5.56v1.1h-4.22v3.25h4Z"/><path class="cls-3" d="M290.77,257.32a6.65,6.65,0,0,1-2.72.49,4.79,4.79,0,0,1-5.06-5.2,5.09,5.09,0,0,1,5.36-5.39,5.48,5.48,0,0,1,2.44.45l-.33,1.08a4.82,4.82,0,0,0-2.06-.43c-2.42,0-4,1.55-4,4.24,0,2.52,1.45,4.12,3.94,4.12a5.34,5.34,0,0,0,2.17-.42Z"/><path class="cls-3" d="M293.76,247.38v6.09c0,2.29,1,3.26,2.4,3.26s2.5-1,2.5-3.26v-6.09H300v6c0,3.16-1.66,4.45-3.89,4.45s-3.68-1.2-3.68-4.39v-6.05Z"/><path class="cls-3" d="M302.29,247.38h1.34v9.15H308v1.12h-5.73Z"/><path class="cls-3" d="M310.11,248.5H307v-1.12h7.61v1.12h-3.15v9.15h-1.33Z"/><path class="cls-3" d="M317.05,247.38v6.09c0,2.29,1,3.26,2.41,3.26s2.5-1,2.5-3.26v-6.09h1.33v6c0,3.16-1.66,4.45-3.89,4.45s-3.68-1.2-3.68-4.39v-6.05Z"/><path class="cls-3" d="M325.59,247.52a13.61,13.61,0,0,1,2.55-.22,4.23,4.23,0,0,1,3,.84,2.56,2.56,0,0,1,.81,2,2.72,2.72,0,0,1-1.94,2.62v0a2.61,2.61,0,0,1,1.51,2.08,16.15,16.15,0,0,0,.79,2.82h-1.38a14.39,14.39,0,0,1-.68-2.46c-.3-1.41-.86-1.95-2.06-2h-1.25v4.45h-1.33Zm1.33,4.67h1.35c1.42,0,2.32-.77,2.32-1.95,0-1.33-1-1.91-2.36-1.91a6.42,6.42,0,0,0-1.31.11Z"/><path class="cls-3" d="M339.11,252.83h-4v3.71h4.45v1.11h-5.79V247.38h5.56v1.1h-4.22v3.25h4Z"/><path class="cls-3" d="M227.1,278.08a2.17,2.17,0,0,0,1.46-.57c.37-.42.51-1,.51-2.77v-6.17h1.34v6.69a4.1,4.1,0,0,1-.88,3,3.41,3.41,0,0,1-2.29.83Zm3.47-11.59a.8.8,0,0,1-.85.83.79.79,0,0,1-.81-.83.81.81,0,0,1,.84-.83A.8.8,0,0,1,230.57,266.49Z"/><path class="cls-3" d="M239.28,272.19a3.6,3.6,0,0,1-3.66,3.92,3.51,3.51,0,0,1-3.55-3.79,3.6,3.6,0,0,1,3.66-3.91A3.48,3.48,0,0,1,239.28,272.19Zm-5.84.08c0,1.62.92,2.84,2.23,2.84s2.25-1.2,2.25-2.88c0-1.24-.63-2.82-2.22-2.82S233.44,270.88,233.44,272.27Z"/><path class="cls-3" d="M247.14,273.93c0,.77,0,1.43.07,2H246l-.07-1.21h0a2.76,2.76,0,0,1-2.44,1.37c-1.15,0-2.54-.64-2.54-3.23v-4.31h1.34v4.08c0,1.4.43,2.36,1.64,2.36a2,2,0,0,0,1.78-1.23,2.12,2.12,0,0,0,.12-.69v-4.52h1.33Z"/><path class="cls-3" d="M249.38,270.87c0-.87,0-1.61-.06-2.3h1.17l0,1.45h.05a2.14,2.14,0,0,1,2.43-1.58v1.26a3,3,0,0,0-.46,0,1.87,1.87,0,0,0-1.79,1.71,3.13,3.13,0,0,0-.06.63V276h-1.33Z"/><path class="cls-3" d="M254.43,270.56c0-.76,0-1.37-.06-2h1.18l.08,1.22h0a2.7,2.7,0,0,1,2.44-1.38c1,0,2.6.61,2.6,3.14V276h-1.34V271.7c0-1.2-.44-2.19-1.7-2.19a1.93,1.93,0,0,0-1.81,1.37,2.31,2.31,0,0,0-.09.62V276h-1.33Z"/><path class="cls-3" d="M267,276l-.12-.93h0a2.76,2.76,0,0,1-2.26,1.09,2.1,2.1,0,0,1-2.25-2.11c0-1.79,1.58-2.77,4.43-2.75v-.15a1.52,1.52,0,0,0-1.68-1.7,3.65,3.65,0,0,0-1.92.54l-.3-.89a4.66,4.66,0,0,1,2.43-.64c2.26,0,2.8,1.54,2.8,3v2.76a10.71,10.71,0,0,0,.12,1.77Zm-.21-3.77c-1.45,0-3.11.23-3.11,1.66a1.18,1.18,0,0,0,1.25,1.28,1.83,1.83,0,0,0,1.79-1.23,1.38,1.38,0,0,0,.07-.43Z"/><path class="cls-3" d="M270.24,265.12h1.33V276h-1.33Z"/><path class="cls-3" d="M275.33,266.49a.83.83,0,1,1-1.66,0,.81.81,0,0,1,.84-.83A.79.79,0,0,1,275.33,266.49ZM273.84,276v-7.38h1.33V276Z"/><path class="cls-3" d="M277.21,274.58a3.7,3.7,0,0,0,1.78.53c1,0,1.43-.49,1.43-1.1s-.39-1-1.37-1.35c-1.33-.48-2-1.21-2-2.09a2.28,2.28,0,0,1,2.56-2.16,3.55,3.55,0,0,1,1.8.45l-.33,1a3,3,0,0,0-1.51-.43c-.8,0-1.23.46-1.23,1s.44.88,1.4,1.26c1.27.47,1.93,1.11,1.94,2.21,0,1.31-1,2.23-2.76,2.23a4.14,4.14,0,0,1-2.07-.52Z"/><path class="cls-3" d="M285.05,266.45v2.12H287v1h-1.93v4c0,.92.27,1.44,1,1.44a2.45,2.45,0,0,0,.78-.1l.06,1a3.41,3.41,0,0,1-1.19.19,1.89,1.89,0,0,1-1.45-.57,2.84,2.84,0,0,1-.52-1.93v-4H282.6v-1h1.14V266.8Z"/><path class="cls-3" d="M289.15,272.5a2.35,2.35,0,0,0,2.52,2.56,4.85,4.85,0,0,0,2-.38l.24,1a6,6,0,0,1-2.46.47,3.44,3.44,0,0,1-3.63-3.72c0-2.24,1.32-4,3.47-4,2.4,0,3,2.11,3,3.46a3.34,3.34,0,0,1,0,.63Zm3.92-1a1.9,1.9,0,0,0-1.85-2.17,2.2,2.2,0,0,0-2.06,2.17Z"/><path class="cls-3" d="M290.41,134.12h79.26a0,0,0,0,1,0,0v77.31a0,0,0,0,1,0,0H284.79a0,0,0,0,1,0,0V139.75A5.63,5.63,0,0,1,290.41,134.12Z" transform="translate(654.46 345.54) rotate(180)"/><line class="cls-4" x1="358.29" y1="324" x2="358.29" y2="211.67"/><line class="cls-4" x1="492.9" y1="325.92" x2="340.19" y2="324.59"/><path class="cls-3" d="M339.89,335.87h1.34V345h4.39v1.12h-5.73Z"/><path class="cls-3" d="M352.41,341.33h-4V345h4.46v1.11h-5.79V335.87h5.55V337h-4.22v3.25h4Z"/><path class="cls-3" d="M357.82,336a17,17,0,0,1,2.83-.23,5.88,5.88,0,0,1,4.16,1.29,4.71,4.71,0,0,1,1.45,3.68,5.45,5.45,0,0,1-1.48,4,6.4,6.4,0,0,1-4.54,1.48,20.74,20.74,0,0,1-2.42-.12Zm1.33,9.08a8.66,8.66,0,0,0,1.34.07c2.84,0,4.37-1.58,4.37-4.36,0-2.43-1.35-4-4.15-4a8.06,8.06,0,0,0-1.56.14Z"/><path class="cls-3" d="M369.43,342.92l-1.06,3.23H367l3.5-10.28h1.59l3.51,10.28h-1.42l-1.1-3.23Zm3.37-1-1-3c-.23-.67-.38-1.28-.53-1.87h0c-.15.6-.31,1.23-.51,1.86l-1,3Z"/><path class="cls-3" d="M378,335.87V342c0,2.29,1,3.27,2.4,3.27s2.5-1,2.5-3.27v-6.09h1.33v6c0,3.16-1.66,4.45-3.89,4.45s-3.68-1.2-3.68-4.39v-6.06Z"/><path class="cls-3" d="M386.53,336a14.86,14.86,0,0,1,2.55-.21,4.21,4.21,0,0,1,2.88.86,2.78,2.78,0,0,1,.91,2.15,3,3,0,0,1-.8,2.2,4.25,4.25,0,0,1-3.14,1.12,4.36,4.36,0,0,1-1.07-.09v4.12h-1.33Zm1.33,4.95a4.29,4.29,0,0,0,1.1.11c1.61,0,2.58-.79,2.58-2.19s-1-2-2.43-2a6.26,6.26,0,0,0-1.25.11Z"/><path class="cls-3" d="M396,335.87v4.31h5v-4.31h1.34v10.28h-1.34v-4.82h-5v4.82h-1.34V335.87Z"/><path class="cls-3" d="M405.92,335.87v10.28h-1.34V335.87Z"/><path class="cls-3" d="M408.23,346.15V335.87h1.46l3.29,5.2a28.48,28.48,0,0,1,1.83,3.34h0c-.12-1.38-.14-2.63-.14-4.22v-4.31H416v10.28H414.6l-3.26-5.21a34.21,34.21,0,0,1-1.92-3.44l0,0c.08,1.3.1,2.54.1,4.23v4.4Z"/><path class="cls-3" d="M423.58,341.33h-4V345h4.46v1.11h-5.79V335.87h5.55V337h-4.22v3.25h4Zm-.25-7.78-1.95,1.77H420.3l1.41-1.77Z"/><path class="cls-3" d="M429,335.87h1.34V345h4.39v1.12H429Z"/><path class="cls-3" d="M437.52,335.87v10.28h-1.33V335.87Z"/><path class="cls-3" d="M439.83,336a12.29,12.29,0,0,1,2.43-.23,4.23,4.23,0,0,1,2.82.75,2.18,2.18,0,0,1,.86,1.82,2.44,2.44,0,0,1-1.74,2.25v0a2.63,2.63,0,0,1,2.12,2.58,2.7,2.7,0,0,1-.88,2,5,5,0,0,1-3.55,1,17.86,17.86,0,0,1-2.06-.12Zm1.33,4.2h1.22c1.38,0,2.21-.74,2.21-1.73,0-1.19-.91-1.68-2.25-1.68a5.33,5.33,0,0,0-1.18.1Zm0,4.92a6.55,6.55,0,0,0,1.12.07c1.38,0,2.64-.51,2.64-2s-1.21-2-2.66-2h-1.1Z"/><path class="cls-3" d="M453.41,341.33h-4V345h4.46v1.11H448.1V335.87h5.55V337h-4.22v3.25h4Zm-.25-7.78-1.94,1.77h-1.09l1.41-1.77Z"/><path class="cls-3" d="M455.6,336a13.54,13.54,0,0,1,2.55-.23,4.23,4.23,0,0,1,3,.85,2.59,2.59,0,0,1,.8,1.95,2.71,2.71,0,0,1-1.93,2.62v0a2.59,2.59,0,0,1,1.5,2.08,17.46,17.46,0,0,0,.79,2.82h-1.37a13.46,13.46,0,0,1-.68-2.46c-.3-1.41-.86-1.95-2.06-2h-1.26v4.45H455.6Zm1.32,4.67h1.36c1.42,0,2.32-.77,2.32-1.95s-1-1.91-2.36-1.92a5.68,5.68,0,0,0-1.32.12Z"/><path class="cls-3" d="M469.12,341.33h-4V345h4.46v1.11H463.8V335.87h5.55V337h-4.22v3.25h4Zm-.25-7.78-1.94,1.77h-1.09l1.41-1.77Z"/><path class="cls-3" d="M338.05,366.57a2.12,2.12,0,0,0,1.46-.56c.36-.42.51-1,.51-2.77v-6.17h1.34v6.68a4.12,4.12,0,0,1-.88,3.05,3.46,3.46,0,0,1-2.29.83ZM341.52,355a.8.8,0,0,1-.85.83.79.79,0,0,1-.81-.83.82.82,0,0,1,.84-.84A.8.8,0,0,1,341.52,355Z"/><path class="cls-3" d="M350.23,360.69a3.61,3.61,0,0,1-3.67,3.92,3.51,3.51,0,0,1-3.54-3.8,3.6,3.6,0,0,1,3.66-3.91A3.49,3.49,0,0,1,350.23,360.69Zm-5.84.08c0,1.62.92,2.84,2.23,2.84s2.25-1.2,2.25-2.88c0-1.24-.63-2.82-2.23-2.82S344.39,359.38,344.39,360.77Z"/><path class="cls-3" d="M358.09,362.43c0,.77,0,1.43.06,2H357l-.07-1.2h0a2.76,2.76,0,0,1-2.44,1.37c-1.15,0-2.54-.65-2.54-3.23v-4.31h1.34v4.08c0,1.4.43,2.36,1.64,2.36a2,2,0,0,0,1.78-1.24,2,2,0,0,0,.12-.68v-4.52h1.33Z"/><path class="cls-3" d="M360.33,359.37c0-.87,0-1.61-.06-2.3h1.17l.05,1.45h.05a2.24,2.24,0,0,1,2-1.62,1.53,1.53,0,0,1,.38,0v1.26a2.13,2.13,0,0,0-.46,0,1.89,1.89,0,0,0-1.8,1.72,4.13,4.13,0,0,0,0,.63v3.93h-1.33Z"/><path class="cls-3" d="M365.38,359.06c0-.77,0-1.38-.06-2h1.18l.07,1.21h0a2.72,2.72,0,0,1,2.44-1.38c1,0,2.6.61,2.6,3.15v4.39h-1.34v-4.25c0-1.19-.45-2.19-1.7-2.19a1.94,1.94,0,0,0-1.81,1.38,2.25,2.25,0,0,0-.09.62v4.44h-1.33Z"/><path class="cls-3" d="M377.93,364.44l-.12-.93h0a2.74,2.74,0,0,1-2.26,1.1,2.1,2.1,0,0,1-2.25-2.11c0-1.79,1.58-2.77,4.43-2.75v-.16a1.52,1.52,0,0,0-1.68-1.7,3.65,3.65,0,0,0-1.92.55l-.3-.89a4.66,4.66,0,0,1,2.43-.65c2.25,0,2.8,1.54,2.8,3v2.76a11.77,11.77,0,0,0,.11,1.76Zm-.21-3.76c-1.45,0-3.12.23-3.12,1.65a1.19,1.19,0,0,0,1.26,1.29,1.83,1.83,0,0,0,1.79-1.24,1.28,1.28,0,0,0,.07-.42Z"/><path class="cls-3" d="M381.19,353.62h1.33v10.82h-1.33Z"/><path class="cls-3" d="M386.28,355a.83.83,0,1,1-1.66,0,.82.82,0,0,1,.83-.84A.8.8,0,0,1,386.28,355Zm-1.49,9.45v-7.37h1.33v7.37Z"/><path class="cls-3" d="M388.16,363.08a3.7,3.7,0,0,0,1.78.52c1,0,1.43-.48,1.43-1.09s-.39-1-1.37-1.35c-1.33-.49-2-1.21-2-2.09a2.29,2.29,0,0,1,2.55-2.17,3.59,3.59,0,0,1,1.81.46l-.33,1a2.93,2.93,0,0,0-1.52-.43c-.79,0-1.22.45-1.22,1s.44.88,1.4,1.26c1.27.47,1.93,1.11,1.94,2.21,0,1.31-1,2.22-2.76,2.22a4.14,4.14,0,0,1-2.07-.51Z"/><path class="cls-3" d="M396,355v2.12h1.93v1H396v4c0,.92.26,1.44,1,1.44a2.5,2.5,0,0,0,.78-.1l.06,1a3.52,3.52,0,0,1-1.2.18,1.88,1.88,0,0,1-1.44-.56,2.84,2.84,0,0,1-.52-1.93v-4h-1.15v-1h1.15V355.3Z"/><path class="cls-3" d="M400.1,361a2.35,2.35,0,0,0,2.52,2.56,4.85,4.85,0,0,0,2-.38l.24.95a5.86,5.86,0,0,1-2.46.47,3.43,3.43,0,0,1-3.63-3.72c0-2.23,1.31-4,3.47-4,2.4,0,3,2.11,3,3.47a4.61,4.61,0,0,1,0,.63Zm3.92-1a1.91,1.91,0,0,0-1.85-2.18,2.21,2.21,0,0,0-2.06,2.18Z"/><path class="cls-7" d="M284.79,132.77V79h74.33c4.43,0,8.06,6,8.06,13.33v40.46"/><path class="cls-3" d="M385.74,134.19H509.55a0,0,0,0,1,0,0v77.31a0,0,0,0,1,0,0H380.11a0,0,0,0,1,0,0V139.82A5.63,5.63,0,0,1,385.74,134.19Z" transform="translate(889.66 345.68) rotate(180)"/><line class="cls-5" x1="452.04" y1="132.77" x2="452.04" y2="19.47"/><path class="cls-3" d="M521.91,134.19h12.5a0,0,0,0,1,0,0v77.31a0,0,0,0,1,0,0H516.28a0,0,0,0,1,0,0V139.82A5.63,5.63,0,0,1,521.91,134.19Z" transform="translate(1050.68 345.68) rotate(180)"/><line class="cls-4" x1="523.03" y1="236.15" x2="523.03" y2="211.42"/><line class="cls-4" x1="597.86" y1="238.16" x2="506.75" y2="237.16"/><path class="cls-3" d="M515.09,257.32a6.65,6.65,0,0,1-2.72.49,4.79,4.79,0,0,1-5.06-5.2,5.09,5.09,0,0,1,5.36-5.39,5.48,5.48,0,0,1,2.44.45l-.33,1.08a4.84,4.84,0,0,0-2.07-.43c-2.41,0-4,1.55-4,4.24,0,2.52,1.44,4.12,3.93,4.12a5.36,5.36,0,0,0,2.18-.42Z"/><path class="cls-3" d="M518.48,254.42l-1.07,3.23H516l3.49-10.27h1.6l3.51,10.27h-1.42l-1.1-3.23Zm3.37-1-1-2.95c-.22-.68-.37-1.29-.53-1.88h0c-.15.6-.31,1.23-.51,1.86l-1,3Z"/><path class="cls-3" d="M526.14,247.52a16.91,16.91,0,0,1,2.82-.22,5.91,5.91,0,0,1,4.17,1.29,4.71,4.71,0,0,1,1.45,3.67,5.48,5.48,0,0,1-1.48,4,6.38,6.38,0,0,1-4.55,1.48,23.3,23.3,0,0,1-2.41-.11Zm1.33,9.09a10.34,10.34,0,0,0,1.34.06c2.84,0,4.37-1.58,4.37-4.36,0-2.42-1.35-4-4.15-4a8.06,8.06,0,0,0-1.56.14Z"/><path class="cls-3" d="M545.08,252.41c0,3.53-2.15,5.41-4.77,5.41s-4.61-2.11-4.61-5.22,2-5.39,4.75-5.39S545.08,249.36,545.08,252.41Zm-8,.16c0,2.2,1.19,4.17,3.29,4.17s3.29-1.94,3.29-4.27c0-2.05-1.07-4.18-3.28-4.18S537.1,250.32,537.1,252.57Z"/><path class="cls-3" d="M546.8,247.38h1.33v9.15h4.4v1.12H546.8Z"/><path class="cls-3" d="M559.31,252.83h-4v3.71h4.45v1.11H554V247.38h5.55v1.1h-4.22v3.25h4Z"/><path class="cls-3" d="M561.32,256a4.67,4.67,0,0,0,2.38.67c1.35,0,2.15-.71,2.15-1.75s-.56-1.51-1.94-2c-1.68-.6-2.72-1.48-2.72-2.92,0-1.6,1.33-2.78,3.33-2.78a4.81,4.81,0,0,1,2.27.49l-.37,1.09a4,4,0,0,0-1.94-.49c-1.41,0-2,.84-2,1.54,0,1,.63,1.42,2.05,2,1.74.68,2.62,1.52,2.62,3s-1.16,3-3.6,3a5.23,5.23,0,0,1-2.62-.67Z"/><path class="cls-3" d="M514.23,265.12V274c0,.66,0,1.4.06,1.91H513.1l-.07-1.28h0a2.7,2.7,0,0,1-2.5,1.44c-1.78,0-3.16-1.51-3.16-3.74,0-2.47,1.52-4,3.31-4a2.47,2.47,0,0,1,2.22,1.11h0v-4.4Zm-1.33,6.45a2.83,2.83,0,0,0-.06-.57,2,2,0,0,0-1.94-1.54c-1.39,0-2.22,1.22-2.22,2.84s.74,2.74,2.19,2.74a2,2,0,0,0,2-1.61,2.15,2.15,0,0,0,.07-.58Z"/><path class="cls-3" d="M517.22,272.5a2.35,2.35,0,0,0,2.52,2.56,4.88,4.88,0,0,0,2-.38l.24,1a6,6,0,0,1-2.46.47,3.44,3.44,0,0,1-3.63-3.72c0-2.24,1.31-4,3.47-4,2.4,0,3,2.11,3,3.46a4.49,4.49,0,0,1,0,.63Zm3.92-1a1.9,1.9,0,0,0-1.85-2.17,2.2,2.2,0,0,0-2.06,2.17Zm.31-6.16-1.86,2.18h-1l1.34-2.18Z"/><path class="cls-3" d="M524.62,268.57l1.45,4.14c.24.68.43,1.29.6,1.9h0c.17-.61.38-1.22.62-1.9l1.44-4.14h1.4l-2.9,7.38H526l-2.81-7.38Z"/><path class="cls-3" d="M532,272.5a2.36,2.36,0,0,0,2.53,2.56,4.88,4.88,0,0,0,2-.38l.23,1a5.93,5.93,0,0,1-2.45.47,3.44,3.44,0,0,1-3.63-3.72c0-2.24,1.31-4,3.47-4,2.4,0,3,2.11,3,3.46a3.17,3.17,0,0,1,0,.63Zm3.93-1a1.9,1.9,0,0,0-1.85-2.17,2.2,2.2,0,0,0-2.06,2.17Z"/><path class="cls-3" d="M538.92,265.12h1.34V276h-1.34Z"/><path class="cls-3" d="M549.19,272.19a3.6,3.6,0,0,1-3.66,3.92,3.51,3.51,0,0,1-3.55-3.79,3.61,3.61,0,0,1,3.67-3.91A3.47,3.47,0,0,1,549.19,272.19Zm-5.84.08c0,1.62.93,2.84,2.23,2.84s2.25-1.2,2.25-2.88c0-1.24-.63-2.82-2.22-2.82S543.35,270.88,543.35,272.27Z"/><path class="cls-3" d="M550.89,271c0-.94,0-1.71-.06-2.41H552l.07,1.26h0a2.88,2.88,0,0,1,2.62-1.42c1.78,0,3.13,1.5,3.13,3.74,0,2.65-1.63,4-3.36,4a2.58,2.58,0,0,1-2.27-1.16h0v4h-1.33Zm1.33,2a2.42,2.42,0,0,0,.06.54,2.05,2.05,0,0,0,2,1.57c1.43,0,2.25-1.16,2.25-2.85,0-1.47-.77-2.74-2.19-2.74a2.12,2.12,0,0,0-2,1.66,2,2,0,0,0-.09.54Z"/><path class="cls-3" d="M559.56,271c0-.94,0-1.71-.06-2.41h1.2l.08,1.26h0a2.86,2.86,0,0,1,2.61-1.42c1.79,0,3.13,1.5,3.13,3.74,0,2.65-1.62,4-3.35,4a2.57,2.57,0,0,1-2.27-1.16h0v4h-1.34Zm1.34,2a2.42,2.42,0,0,0,.06.54,2.05,2.05,0,0,0,2,1.57c1.42,0,2.24-1.16,2.24-2.85,0-1.47-.77-2.74-2.19-2.74a2.14,2.14,0,0,0-2,1.66,2.43,2.43,0,0,0-.08.54Z"/><path class="cls-3" d="M569,272.5a2.35,2.35,0,0,0,2.52,2.56,4.85,4.85,0,0,0,2-.38l.24,1a6,6,0,0,1-2.46.47,3.44,3.44,0,0,1-3.63-3.72c0-2.24,1.32-4,3.47-4,2.4,0,3,2.11,3,3.46a3.34,3.34,0,0,1,0,.63Zm3.92-1a1.89,1.89,0,0,0-1.85-2.17,2.2,2.2,0,0,0-2.06,2.17Z"/><path class="cls-3" d="M582.06,273.93c0,.77,0,1.43.06,2h-1.18l-.07-1.21h0a2.76,2.76,0,0,1-2.44,1.37c-1.16,0-2.54-.64-2.54-3.23v-4.31h1.33v4.08c0,1.4.44,2.36,1.65,2.36a1.94,1.94,0,0,0,1.77-1.23,2.12,2.12,0,0,0,.13-.69v-4.52h1.33Z"/><path class="cls-3" d="M584.29,270.87c0-.87,0-1.61-.06-2.3h1.18l.05,1.45h0a2.22,2.22,0,0,1,2-1.61,2.05,2.05,0,0,1,.37,0v1.26a2.9,2.9,0,0,0-.45,0,1.87,1.87,0,0,0-1.8,1.71,4.13,4.13,0,0,0,0,.63V276h-1.34Z"/><line class="cls-4" x1="481.96" y1="235.65" x2="481.96" y2="210.92"/><line class="cls-4" x1="495.13" y1="236.65" x2="376.44" y2="236.65"/><path class="cls-3" d="M377.59,245.1h1.34v9.15h4.39v1.12h-5.73Z"/><path class="cls-3" d="M390.11,250.55h-4v3.72h4.46v1.1h-5.79V245.1h5.55v1.1h-4.22v3.26h4Z"/><path class="cls-3" d="M404.19,250.86c-.08-1.43-.17-3.16-.16-4.43h0c-.35,1.19-.78,2.48-1.29,3.89l-1.82,5h-1l-1.67-4.9c-.49-1.45-.89-2.77-1.18-4h0c0,1.28-.1,3-.2,4.53l-.27,4.41h-1.26L396,245.1h1.7l1.75,5c.42,1.26.77,2.39,1,3.46h0c.27-1,.63-2.17,1.09-3.46l1.83-5h1.7l.64,10.27h-1.31Z"/><path class="cls-3" d="M409.12,245.1v10.27h-1.34V245.1Z"/><path class="cls-3" d="M411.43,245.24A13.61,13.61,0,0,1,414,245a4.23,4.23,0,0,1,3,.84,2.59,2.59,0,0,1,.8,1.95,2.71,2.71,0,0,1-1.93,2.62v0a2.6,2.6,0,0,1,1.5,2.08,17.14,17.14,0,0,0,.79,2.82h-1.37a12.65,12.65,0,0,1-.68-2.46c-.3-1.41-.86-1.95-2.06-2h-1.26v4.45h-1.32Zm1.32,4.67h1.36c1.42,0,2.32-.77,2.32-1.95,0-1.33-1-1.91-2.36-1.91a6.54,6.54,0,0,0-1.32.11Z"/><path class="cls-3" d="M428.46,250.13c0,3.53-2.15,5.41-4.77,5.41s-4.61-2.11-4.61-5.22,2-5.39,4.75-5.39S428.46,247.08,428.46,250.13Zm-8,.16c0,2.2,1.19,4.17,3.29,4.17s3.29-1.94,3.29-4.27c0-2.05-1.07-4.18-3.28-4.18S420.48,248.05,420.48,250.29Z"/><path class="cls-3" d="M431.51,245.1v10.27h-1.33V245.1Z"/><path class="cls-3" d="M433.82,245.24a13.72,13.72,0,0,1,2.56-.22,4.22,4.22,0,0,1,3,.84,2.56,2.56,0,0,1,.81,1.95,2.71,2.71,0,0,1-1.94,2.62v0a2.59,2.59,0,0,1,1.51,2.08,17.14,17.14,0,0,0,.79,2.82h-1.38a13.78,13.78,0,0,1-.67-2.46c-.31-1.41-.86-1.95-2.06-2h-1.26v4.45h-1.33Zm1.33,4.67h1.36c1.42,0,2.32-.77,2.32-1.95,0-1.33-1-1.91-2.37-1.91a6.42,6.42,0,0,0-1.31.11Z"/><path class="cls-3" d="M453.93,250.86c-.08-1.43-.17-3.16-.17-4.43h0c-.35,1.19-.78,2.48-1.29,3.89l-1.81,5h-1l-1.67-4.9c-.49-1.45-.89-2.77-1.18-4h0c0,1.28-.11,3-.2,4.53l-.28,4.41H445l.72-10.27h1.69l1.75,5c.42,1.26.77,2.39,1,3.46h0c.27-1,.62-2.17,1.08-3.46l1.84-5h1.69l.64,10.27h-1.3Z"/><path class="cls-3" d="M459,252.14,458,255.37h-1.38l3.5-10.27h1.59l3.51,10.27h-1.42l-1.1-3.23Zm3.38-1-1-2.95c-.22-.67-.38-1.29-.53-1.88h0c-.14.6-.3,1.23-.51,1.86l-1,3Z"/><path class="cls-3" d="M474.3,254.91a9.52,9.52,0,0,1-3.16.56,4.81,4.81,0,0,1-5.27-5.17c0-3.06,2.11-5.31,5.55-5.31a6.46,6.46,0,0,1,2.57.47l-.33,1.09a5.22,5.22,0,0,0-2.27-.44,3.84,3.84,0,0,0-4.13,4.12c0,2.61,1.57,4.15,4,4.15a4.27,4.27,0,0,0,1.76-.28V251h-2.08V250h3.39Z"/><path class="cls-3" d="M382.81,273.4a5.09,5.09,0,0,1-2.11.43,3.51,3.51,0,0,1-3.68-3.77,3.76,3.76,0,0,1,4-3.93,4.34,4.34,0,0,1,1.86.39l-.3,1a3.29,3.29,0,0,0-1.56-.35,2.78,2.78,0,0,0,0,5.55,3.81,3.81,0,0,0,1.65-.36Z"/><path class="cls-3" d="M391,269.91a3.61,3.61,0,0,1-3.67,3.92,3.5,3.5,0,0,1-3.54-3.79,3.6,3.6,0,0,1,3.66-3.91A3.48,3.48,0,0,1,391,269.91Zm-5.85.09c0,1.61.93,2.83,2.24,2.83s2.24-1.2,2.24-2.87c0-1.25-.63-2.83-2.22-2.83S385.12,268.6,385.12,270Z"/><path class="cls-3" d="M392.67,268.29c0-.77,0-1.38-.07-2h1.19l.07,1.22h0a2.7,2.7,0,0,1,2.44-1.38c1,0,2.6.61,2.6,3.14v4.4H397.6v-4.25c0-1.2-.45-2.19-1.7-2.19a1.93,1.93,0,0,0-1.81,1.37,2.31,2.31,0,0,0-.09.62v4.45h-1.33Z"/><path class="cls-3" d="M401.26,273.67v-6.36h-1v-1h1v-.35a3.51,3.51,0,0,1,.86-2.58,2.53,2.53,0,0,1,1.79-.68,3,3,0,0,1,1.14.21l-.17,1a2.08,2.08,0,0,0-.87-.17c-1.13,0-1.43,1-1.43,2.15v.39h1.79v1h-1.78v6.36Z"/><path class="cls-3" d="M412.05,269.91a3.6,3.6,0,0,1-3.66,3.92,3.51,3.51,0,0,1-3.55-3.79,3.6,3.6,0,0,1,3.66-3.91A3.48,3.48,0,0,1,412.05,269.91Zm-5.84.09c0,1.61.93,2.83,2.23,2.83s2.25-1.2,2.25-2.87c0-1.25-.63-2.83-2.22-2.83S406.21,268.6,406.21,270Z"/><path class="cls-3" d="M413.75,268.29c0-.77,0-1.38-.06-2h1.19l.07,1.22h0a2.7,2.7,0,0,1,2.43-1.38c1,0,2.6.61,2.6,3.14v4.4h-1.33v-4.25c0-1.2-.45-2.19-1.71-2.19a1.92,1.92,0,0,0-1.8,1.37,2,2,0,0,0-.09.62v4.45h-1.34Z"/><path class="cls-3" d="M428.58,262.84v8.93c0,.65,0,1.39.06,1.9h-1.19l-.07-1.28h0a2.69,2.69,0,0,1-2.5,1.44c-1.79,0-3.16-1.51-3.16-3.74,0-2.47,1.51-4,3.31-4a2.45,2.45,0,0,1,2.22,1.12h0v-4.41Zm-1.34,6.45a2.81,2.81,0,0,0-.05-.57,2,2,0,0,0-1.94-1.54c-1.39,0-2.22,1.22-2.22,2.84s.74,2.74,2.19,2.74a2,2,0,0,0,2-1.61,2.15,2.15,0,0,0,.06-.58Z"/><path class="cls-3" d="M434.9,273.67l-.12-.93h0a2.74,2.74,0,0,1-2.25,1.09,2.1,2.1,0,0,1-2.26-2.11c0-1.79,1.59-2.77,4.44-2.75v-.15a1.52,1.52,0,0,0-1.68-1.7,3.59,3.59,0,0,0-1.92.54l-.31-.89a4.7,4.7,0,0,1,2.44-.64c2.25,0,2.8,1.54,2.8,3v2.76a12,12,0,0,0,.11,1.77Zm-.21-3.77c-1.45,0-3.11.23-3.11,1.66a1.18,1.18,0,0,0,1.25,1.28,1.86,1.86,0,0,0,1.8-1.23,1.71,1.71,0,0,0,.06-.43Z"/><path class="cls-3" d="M439.71,264.17v2.12h1.93v1h-1.93v4c0,.92.26,1.44,1,1.44a2.5,2.5,0,0,0,.78-.1l.06,1a3.43,3.43,0,0,1-1.2.19,1.89,1.89,0,0,1-1.44-.57,2.82,2.82,0,0,1-.52-1.92v-4h-1.15v-1h1.15v-1.77Z"/><path class="cls-3" d="M443.81,270.22a2.35,2.35,0,0,0,2.52,2.56,4.85,4.85,0,0,0,2-.38l.24,1a6,6,0,0,1-2.46.47,3.44,3.44,0,0,1-3.63-3.72c0-2.24,1.31-4,3.47-4,2.4,0,3,2.11,3,3.46a4.37,4.37,0,0,1,0,.63Zm3.92-1a1.9,1.9,0,0,0-1.85-2.17,2.2,2.2,0,0,0-2.06,2.17Z"/><path class="cls-3" d="M456.86,271.65c0,.77,0,1.43.06,2h-1.19l-.07-1.21h0a2.76,2.76,0,0,1-2.44,1.37c-1.16,0-2.54-.64-2.54-3.23v-4.31H452v4.08c0,1.4.44,2.36,1.65,2.36a2,2,0,0,0,1.77-1.23,2.12,2.12,0,0,0,.12-.69v-4.52h1.34Z"/><path class="cls-3" d="M459.09,268.59c0-.87,0-1.61-.06-2.3h1.18l.05,1.45h.05a2.22,2.22,0,0,1,2.05-1.61,2.13,2.13,0,0,1,.37,0v1.27a2.07,2.07,0,0,0-.46,0,1.87,1.87,0,0,0-1.79,1.71,4.13,4.13,0,0,0-.05.63v3.94h-1.34Z"/><path class="cls-3" d="M375.75,294.09a2.12,2.12,0,0,0,1.46-.56c.37-.42.52-1,.52-2.77v-6.17h1.33v6.68a4.07,4.07,0,0,1-.88,3,3.42,3.42,0,0,1-2.29.84Zm3.47-11.58a.83.83,0,1,1-1.66,0,.82.82,0,0,1,.84-.84A.8.8,0,0,1,379.22,282.51Z"/><path class="cls-3" d="M387.93,288.21a3.6,3.6,0,0,1-3.66,3.92,3.52,3.52,0,0,1-3.55-3.8,3.61,3.61,0,0,1,3.66-3.91A3.49,3.49,0,0,1,387.93,288.21Zm-5.84.08c0,1.62.92,2.84,2.23,2.84s2.25-1.21,2.25-2.88c0-1.25-.63-2.82-2.22-2.82S382.09,286.89,382.09,288.29Z"/><path class="cls-3" d="M395.8,289.94c0,.78,0,1.44.06,2h-1.19l-.07-1.2h0a2.76,2.76,0,0,1-2.44,1.37c-1.15,0-2.54-.65-2.54-3.23v-4.31h1.34v4.07c0,1.41.44,2.36,1.65,2.36a1.94,1.94,0,0,0,1.77-1.23,2,2,0,0,0,.12-.68v-4.52h1.34Z"/><path class="cls-3" d="M398,286.89c0-.87,0-1.62-.06-2.3h1.17l.05,1.45h.05a2.25,2.25,0,0,1,2.06-1.62,1.45,1.45,0,0,1,.37,0v1.26a2.07,2.07,0,0,0-.46,0,1.88,1.88,0,0,0-1.79,1.72,3.11,3.11,0,0,0-.06.62V292H398Z"/><path class="cls-3" d="M403.08,286.58c0-.77,0-1.38-.06-2h1.18l.08,1.21h0a2.74,2.74,0,0,1,2.44-1.38c1,0,2.6.61,2.6,3.14V292H408v-4.25c0-1.19-.45-2.19-1.71-2.19a2,2,0,0,0-1.9,2V292h-1.33Z"/><path class="cls-3" d="M415.63,292l-.12-.93h0a2.73,2.73,0,0,1-2.26,1.1A2.11,2.11,0,0,1,411,290c0-1.79,1.59-2.77,4.43-2.75v-.16a1.51,1.51,0,0,0-1.68-1.7,3.65,3.65,0,0,0-1.92.55l-.3-.89a4.66,4.66,0,0,1,2.43-.65c2.26,0,2.81,1.54,2.81,3v2.76a10.57,10.57,0,0,0,.11,1.76Zm-.21-3.76c-1.45,0-3.11.23-3.11,1.65a1.19,1.19,0,0,0,1.25,1.29,1.85,1.85,0,0,0,1.8-1.24,1.58,1.58,0,0,0,.06-.42Z"/><path class="cls-3" d="M418.89,281.14h1.33V292h-1.33Z"/><path class="cls-3" d="M424,282.51a.84.84,0,0,1-1.67,0,.83.83,0,0,1,.84-.84A.81.81,0,0,1,424,282.51Zm-1.5,9.45v-7.37h1.33V292Z"/><path class="cls-3" d="M425.87,290.6a3.66,3.66,0,0,0,1.77.52c1,0,1.44-.48,1.44-1.1s-.39-1-1.37-1.34c-1.34-.49-2-1.21-2-2.1a2.28,2.28,0,0,1,2.55-2.16,3.55,3.55,0,0,1,1.8.46l-.33,1a2.86,2.86,0,0,0-1.51-.43c-.79,0-1.22.45-1.22,1s.43.88,1.4,1.26c1.27.47,1.93,1.11,1.93,2.21,0,1.31-1,2.22-2.76,2.22a4.28,4.28,0,0,1-2.07-.51Z"/><path class="cls-3" d="M433.7,282.47v2.12h1.93v1H433.7v4c0,.92.27,1.44,1,1.44a2.76,2.76,0,0,0,.77-.1l.06,1a3.45,3.45,0,0,1-1.19.18,1.89,1.89,0,0,1-1.45-.56,2.84,2.84,0,0,1-.52-1.93v-4h-1.14v-1h1.14v-1.78Z"/><path class="cls-3" d="M437.8,288.52a2.35,2.35,0,0,0,2.52,2.56,4.85,4.85,0,0,0,2-.38l.24.95a5.86,5.86,0,0,1-2.46.47,3.44,3.44,0,0,1-3.63-3.72c0-2.23,1.32-4,3.47-4,2.4,0,3,2.11,3,3.47a3.41,3.41,0,0,1,0,.63Zm3.92-1a1.9,1.9,0,0,0-1.85-2.17,2.21,2.21,0,0,0-2.06,2.17Z"/><path class="cls-3" d="M610.45,134.19H623a0,0,0,0,1,0,0v77.31a0,0,0,0,1,0,0H604.82a0,0,0,0,1,0,0V139.82A5.63,5.63,0,0,1,610.45,134.19Z" transform="translate(1227.77 345.68) rotate(180)"/><path class="cls-3" d="M634.6,134.19h20a0,0,0,0,1,0,0v77.31a0,0,0,0,1,0,0H629a0,0,0,0,1,0,0V139.82A5.63,5.63,0,0,1,634.6,134.19Z" transform="translate(1283.61 345.68) rotate(180)"/><path class="cls-3" d="M668.78,134.19H952a0,0,0,0,1,0,0v77.31a0,0,0,0,1,0,0H663.15a0,0,0,0,1,0,0V139.82a5.63,5.63,0,0,1,5.63-5.63Z" transform="translate(1615.14 345.68) rotate(180)"/><line class="cls-4" x1="611.33" y1="321.45" x2="611.33" y2="209.13"/><line class="cls-4" x1="714.44" y1="325.25" x2="593.23" y2="322.3"/><path class="cls-3" d="M594.61,343.85,592,333.58h1.41l1.22,5.2c.3,1.28.57,2.55.76,3.55h0c.17-1,.49-2.25.84-3.57l1.38-5.18H599l1.26,5.2c.29,1.24.56,2.45.72,3.53h0c.21-1.13.49-2.27.81-3.55l1.36-5.18h1.36l-2.91,10.27h-1.39L599,338.51a30.78,30.78,0,0,1-.68-3.36h0a28.53,28.53,0,0,1-.79,3.35L596,343.85Z"/><path class="cls-3" d="M611.15,339h-4v3.71h4.46v1.1h-5.79V333.58h5.55v1.1h-4.22v3.26h4Z"/><path class="cls-3" d="M613.33,333.72a18.15,18.15,0,0,1,2.82-.22,5.89,5.89,0,0,1,4.17,1.29,4.68,4.68,0,0,1,1.45,3.67,5.44,5.44,0,0,1-1.48,4,6.37,6.37,0,0,1-4.54,1.48,21,21,0,0,1-2.42-.11Zm1.33,9.09a10.34,10.34,0,0,0,1.34.06c2.84,0,4.37-1.58,4.37-4.35,0-2.43-1.35-4-4.15-4a8.22,8.22,0,0,0-1.56.13Z"/><path class="cls-3" d="M632.27,338.61c0,3.53-2.15,5.41-4.76,5.41s-4.62-2.11-4.62-5.21c0-3.26,2-5.4,4.76-5.4S632.27,335.56,632.27,338.61Zm-8,.16c0,2.2,1.19,4.17,3.29,4.17s3.29-1.94,3.29-4.27c0-2-1.07-4.18-3.28-4.18S624.29,336.53,624.29,338.77Z"/><path class="cls-3" d="M634,333.72a18.15,18.15,0,0,1,2.82-.22,5.89,5.89,0,0,1,4.17,1.29,4.68,4.68,0,0,1,1.45,3.67,5.48,5.48,0,0,1-1.48,4,6.38,6.38,0,0,1-4.55,1.48,20.91,20.91,0,0,1-2.41-.11Zm1.33,9.09a10.34,10.34,0,0,0,1.34.06c2.84,0,4.37-1.58,4.37-4.35,0-2.43-1.35-4-4.15-4a8.22,8.22,0,0,0-1.56.13Z"/><path class="cls-3" d="M645.6,340.62l-1.06,3.23h-1.38l3.5-10.27h1.59l3.51,10.27h-1.42l-1.1-3.23Zm3.37-1-1-3c-.23-.67-.38-1.29-.53-1.88h0c-.15.6-.31,1.23-.51,1.86l-1,3Z"/><path class="cls-3" d="M654.05,334.7h-3.13v-1.12h7.61v1.12h-3.15v9.15h-1.33Z"/><path class="cls-3" d="M660.19,340.62l-1.06,3.23h-1.38l3.5-10.27h1.59l3.51,10.27h-1.42l-1.1-3.23Zm3.37-1-1-3c-.23-.67-.38-1.29-.53-1.88h0c-.15.6-.31,1.23-.51,1.86l-1,3Z"/><path class="cls-3" d="M599.26,351.32v8.93c0,.65,0,1.39.06,1.9h-1.2l-.06-1.28h0a2.7,2.7,0,0,1-2.5,1.45c-1.79,0-3.16-1.51-3.16-3.75,0-2.46,1.51-4,3.31-4a2.45,2.45,0,0,1,2.22,1.12h0v-4.41Zm-1.34,6.46a2.84,2.84,0,0,0,0-.58,2,2,0,0,0-2-1.54c-1.38,0-2.21,1.22-2.21,2.84s.74,2.74,2.19,2.74a2,2,0,0,0,2-1.61,2.65,2.65,0,0,0,.06-.58Z"/><path class="cls-3" d="M605.58,362.15l-.12-.93h0a2.75,2.75,0,0,1-2.25,1.1,2.11,2.11,0,0,1-2.26-2.12c0-1.79,1.59-2.77,4.43-2.75v-.15a1.51,1.51,0,0,0-1.67-1.7,3.51,3.51,0,0,0-1.92.55l-.31-.9a4.66,4.66,0,0,1,2.43-.64c2.26,0,2.81,1.54,2.81,3v2.75a12,12,0,0,0,.11,1.77Zm-.21-3.77c-1.45,0-3.11.23-3.11,1.66a1.18,1.18,0,0,0,1.25,1.28,1.86,1.86,0,0,0,1.8-1.23,1.64,1.64,0,0,0,.06-.42Z"/><path class="cls-3" d="M610.39,352.65v2.13h1.92v1h-1.92v4c0,.91.26,1.43,1,1.43a2.5,2.5,0,0,0,.78-.1l.06,1a3.25,3.25,0,0,1-1.2.19,1.87,1.87,0,0,1-1.44-.57,2.82,2.82,0,0,1-.52-1.92v-4h-1.15v-1h1.15V353Z"/><path class="cls-3" d="M617.91,362.15l-.11-.93h0a2.77,2.77,0,0,1-2.26,1.1,2.1,2.1,0,0,1-2.25-2.12c0-1.79,1.58-2.77,4.43-2.75v-.15a1.52,1.52,0,0,0-1.68-1.7,3.54,3.54,0,0,0-1.92.55l-.31-.9a4.72,4.72,0,0,1,2.44-.64c2.25,0,2.8,1.54,2.8,3v2.75a12,12,0,0,0,.11,1.77Zm-.21-3.77c-1.45,0-3.11.23-3.11,1.66a1.18,1.18,0,0,0,1.25,1.28,1.85,1.85,0,0,0,1.8-1.23,1.29,1.29,0,0,0,.06-.42Z"/><path class="cls-3" d="M619.37,364.28a2.08,2.08,0,0,0,1.46-.57c.37-.41.52-1,.52-2.77v-6.16h1.33v6.68a4.1,4.1,0,0,1-.88,3,3.41,3.41,0,0,1-2.29.83Zm3.47-11.59a.8.8,0,0,1-.85.83.79.79,0,0,1-.81-.83.81.81,0,0,1,.84-.83A.8.8,0,0,1,622.84,352.69Z"/><path class="cls-3" d="M631.55,358.39a3.61,3.61,0,0,1-3.66,3.93,3.52,3.52,0,0,1-3.55-3.8,3.6,3.6,0,0,1,3.66-3.91A3.49,3.49,0,0,1,631.55,358.39Zm-5.84.09c0,1.61.92,2.83,2.23,2.83s2.25-1.2,2.25-2.87c0-1.25-.63-2.83-2.22-2.83S625.71,357.08,625.71,358.48Z"/><path class="cls-3" d="M639.41,360.13c0,.77,0,1.43.07,2h-1.19l-.07-1.21h0a2.75,2.75,0,0,1-2.44,1.38c-1.15,0-2.54-.65-2.54-3.24v-4.3h1.34v4.07c0,1.4.43,2.36,1.65,2.36A2,2,0,0,0,638,360a2,2,0,0,0,.12-.69v-4.51h1.33Z"/><path class="cls-3" d="M641.65,357.07c0-.87,0-1.61-.06-2.29h1.17l0,1.44h.05a2.24,2.24,0,0,1,2-1.61,1.53,1.53,0,0,1,.38,0v1.26a2.07,2.07,0,0,0-.46,0,1.87,1.87,0,0,0-1.79,1.71,3.13,3.13,0,0,0-.06.63v3.94h-1.33Z"/><path class="cls-3" d="M646.7,356.77c0-.77,0-1.38-.06-2h1.18l.08,1.21h0a2.74,2.74,0,0,1,2.44-1.38c1,0,2.6.61,2.6,3.14v4.4h-1.34V357.9c0-1.19-.44-2.19-1.7-2.19a1.93,1.93,0,0,0-1.81,1.37,2.33,2.33,0,0,0-.09.63v4.44H646.7Z"/><path class="cls-3" d="M659.25,362.15l-.12-.93h0a2.77,2.77,0,0,1-2.26,1.1,2.1,2.1,0,0,1-2.25-2.12c0-1.79,1.58-2.77,4.43-2.75v-.15a1.52,1.52,0,0,0-1.68-1.7,3.56,3.56,0,0,0-1.92.55l-.3-.9a4.66,4.66,0,0,1,2.43-.64c2.26,0,2.81,1.54,2.81,3v2.75a10.77,10.77,0,0,0,.11,1.77Zm-.21-3.77c-1.45,0-3.11.23-3.11,1.66a1.18,1.18,0,0,0,1.25,1.28,1.86,1.86,0,0,0,1.8-1.23,1.64,1.64,0,0,0,.06-.42Z"/><path class="cls-3" d="M662.51,351.32h1.33v10.83h-1.33Z"/><path class="cls-3" d="M667.6,352.69a.83.83,0,1,1-1.66,0,.81.81,0,0,1,.84-.83A.79.79,0,0,1,667.6,352.69Zm-1.49,9.46v-7.37h1.33v7.37Z"/><path class="cls-3" d="M669.48,360.78a3.6,3.6,0,0,0,1.78.53c1,0,1.43-.48,1.43-1.1s-.39-1-1.37-1.35c-1.33-.48-2-1.21-2-2.09a2.28,2.28,0,0,1,2.56-2.16,3.55,3.55,0,0,1,1.8.45l-.33,1a2.91,2.91,0,0,0-1.51-.44c-.8,0-1.23.46-1.23,1s.44.89,1.4,1.26c1.27.48,1.93,1.12,1.94,2.22,0,1.3-1,2.22-2.76,2.22a4.14,4.14,0,0,1-2.07-.52Z"/><path class="cls-3" d="M677.32,352.65v2.13h1.93v1h-1.93v4c0,.91.27,1.43,1,1.43a2.43,2.43,0,0,0,.77-.1l.06,1a3.19,3.19,0,0,1-1.19.19,1.89,1.89,0,0,1-1.45-.57,2.82,2.82,0,0,1-.52-1.92v-4h-1.14v-1H676V353Z"/><path class="cls-3" d="M681.42,358.7a2.34,2.34,0,0,0,2.52,2.56,5,5,0,0,0,2-.37l.24.95a6,6,0,0,1-2.46.47,3.44,3.44,0,0,1-3.63-3.72c0-2.24,1.32-4,3.47-4,2.4,0,3,2.11,3,3.47a3.22,3.22,0,0,1,0,.62Zm3.92-1a1.9,1.9,0,0,0-1.85-2.17,2.21,2.21,0,0,0-2.06,2.17Z"/><line class="cls-4" x1="639.61" y1="236.15" x2="639.61" y2="211.42"/><line class="cls-4" x1="714.44" y1="238.16" x2="623.33" y2="237.16"/><path class="cls-3" d="M624.48,247.38h1.34v9.15h4.39v1.12h-5.73Z"/><path class="cls-3" d="M633,247.38v10.27h-1.34V247.38Z"/><path class="cls-3" d="M635.33,247.52a12.19,12.19,0,0,1,2.42-.22,4.23,4.23,0,0,1,2.82.74,2.19,2.19,0,0,1,.86,1.82,2.42,2.42,0,0,1-1.74,2.25v0a2.63,2.63,0,0,1,2.12,2.58,2.72,2.72,0,0,1-.88,2,5.07,5.07,0,0,1-3.54,1,18.23,18.23,0,0,1-2.06-.11Zm1.32,4.21h1.22c1.39,0,2.21-.74,2.21-1.74,0-1.19-.9-1.67-2.25-1.67a5.54,5.54,0,0,0-1.18.09Zm0,4.91a6.55,6.55,0,0,0,1.12.07c1.38,0,2.64-.51,2.64-2s-1.21-2-2.65-2h-1.11Z"/><path class="cls-3" d="M648.91,252.83h-4v3.71h4.46v1.11h-5.79V247.38h5.55v1.1h-4.22v3.25h4Zm-.25-7.78-1.95,1.78h-1.08l1.4-1.78Z"/><path class="cls-3" d="M651.09,247.52a13.61,13.61,0,0,1,2.55-.22,4.23,4.23,0,0,1,3,.84,2.56,2.56,0,0,1,.81,2,2.72,2.72,0,0,1-1.94,2.62v0a2.61,2.61,0,0,1,1.51,2.08,16.15,16.15,0,0,0,.79,2.82h-1.38a14.39,14.39,0,0,1-.68-2.46c-.3-1.41-.86-1.95-2.06-2h-1.25v4.45h-1.33Zm1.33,4.67h1.35c1.42,0,2.32-.77,2.32-1.95,0-1.33-1-1.91-2.36-1.91a6.42,6.42,0,0,0-1.31.11Z"/><path class="cls-3" d="M661,254.42,660,257.65H658.6l3.49-10.27h1.6l3.51,10.27h-1.42l-1.1-3.23Zm3.37-1-1-2.95c-.22-.68-.37-1.29-.53-1.88h0c-.15.6-.31,1.23-.51,1.86l-1,3Z"/><path class="cls-3" d="M669.49,248.5h-3.13v-1.12H674v1.12h-3.15v9.15h-1.33Z"/><path class="cls-3" d="M676.44,247.38v10.27H675.1V247.38Z"/><path class="cls-3" d="M687.53,252.41c0,3.53-2.14,5.41-4.76,5.41s-4.62-2.11-4.62-5.22,2-5.39,4.76-5.39S687.53,249.36,687.53,252.41Zm-8,.16c0,2.2,1.2,4.17,3.29,4.17s3.29-1.94,3.29-4.27c0-2.05-1.07-4.18-3.27-4.18S679.55,250.32,679.55,252.57Z"/><path class="cls-3" d="M689.25,257.65V247.38h1.46l3.29,5.19a30.22,30.22,0,0,1,1.84,3.34h0c-.12-1.37-.14-2.63-.14-4.22v-4.3H697v10.27h-1.35l-3.27-5.21a32.21,32.21,0,0,1-1.91-3.44l-.05,0c.08,1.3.1,2.54.1,4.24v4.39Z"/><path class="cls-3" d="M630.81,265.12V274c0,.66,0,1.4.06,1.91h-1.19l-.07-1.28h0a2.7,2.7,0,0,1-2.5,1.44c-1.78,0-3.16-1.51-3.16-3.74,0-2.47,1.52-4,3.31-4a2.47,2.47,0,0,1,2.22,1.11h0v-4.4Zm-1.33,6.45a2.83,2.83,0,0,0-.06-.57,2,2,0,0,0-1.94-1.54c-1.39,0-2.22,1.22-2.22,2.84S626,275,627.45,275a2,2,0,0,0,2-1.61,2.15,2.15,0,0,0,.07-.58Z"/><path class="cls-3" d="M637.13,276,637,275h0a2.74,2.74,0,0,1-2.25,1.09,2.1,2.1,0,0,1-2.25-2.11c0-1.79,1.58-2.77,4.43-2.75v-.15a1.52,1.52,0,0,0-1.68-1.7,3.62,3.62,0,0,0-1.92.54l-.31-.89a4.7,4.7,0,0,1,2.44-.64c2.25,0,2.8,1.54,2.8,3v2.76a12,12,0,0,0,.11,1.77Zm-.21-3.77c-1.45,0-3.11.23-3.11,1.66a1.18,1.18,0,0,0,1.25,1.28,1.85,1.85,0,0,0,1.8-1.23,1.35,1.35,0,0,0,.06-.43Z"/><path class="cls-3" d="M641.94,266.45v2.12h1.93v1h-1.93v4c0,.92.27,1.44,1,1.44a2.43,2.43,0,0,0,.77-.1l.06,1a3.41,3.41,0,0,1-1.19.19,1.89,1.89,0,0,1-1.45-.57,2.84,2.84,0,0,1-.52-1.93v-4h-1.14v-1h1.14V266.8Z"/><path class="cls-3" d="M649.47,276l-.12-.93h0a2.76,2.76,0,0,1-2.26,1.09A2.1,2.1,0,0,1,644.8,274c0-1.79,1.58-2.77,4.43-2.75v-.15a1.52,1.52,0,0,0-1.68-1.7,3.65,3.65,0,0,0-1.92.54l-.3-.89a4.66,4.66,0,0,1,2.43-.64c2.26,0,2.8,1.54,2.8,3v2.76a10.71,10.71,0,0,0,.12,1.77Zm-.21-3.77c-1.45,0-3.11.23-3.11,1.66a1.18,1.18,0,0,0,1.25,1.28,1.83,1.83,0,0,0,1.79-1.23,1.38,1.38,0,0,0,.07-.43Z"/><path class="cls-3" d="M650.92,278.08a2.17,2.17,0,0,0,1.46-.57c.37-.42.52-1,.52-2.77v-6.17h1.33v6.69a4.1,4.1,0,0,1-.88,3,3.41,3.41,0,0,1-2.29.83Zm3.47-11.59a.83.83,0,1,1-1.66,0,.81.81,0,0,1,.85-.83A.79.79,0,0,1,654.39,266.49Z"/><path class="cls-3" d="M663.11,272.19a3.61,3.61,0,0,1-3.67,3.92,3.5,3.5,0,0,1-3.54-3.79,3.6,3.6,0,0,1,3.66-3.91A3.48,3.48,0,0,1,663.11,272.19Zm-5.85.08c0,1.62.93,2.84,2.23,2.84s2.25-1.2,2.25-2.88c0-1.24-.63-2.82-2.22-2.82S657.26,270.88,657.26,272.27Z"/><path class="cls-3" d="M671,273.93c0,.77,0,1.43.06,2h-1.19l-.07-1.21h0a2.76,2.76,0,0,1-2.44,1.37c-1.16,0-2.54-.64-2.54-3.23v-4.31h1.33v4.08c0,1.4.44,2.36,1.65,2.36a2,2,0,0,0,1.77-1.23,2.12,2.12,0,0,0,.12-.69v-4.52H671Z"/><path class="cls-3" d="M673.2,270.87c0-.87,0-1.61-.06-2.3h1.18l0,1.45h0a2.24,2.24,0,0,1,2.06-1.61,2.13,2.13,0,0,1,.37,0v1.26a3,3,0,0,0-.46,0,1.87,1.87,0,0,0-1.79,1.71,4.13,4.13,0,0,0-.05.63V276H673.2Z"/><path class="cls-3" d="M678.25,270.56c0-.76,0-1.37-.06-2h1.18l.08,1.22h0a2.7,2.7,0,0,1,2.43-1.38c1,0,2.6.61,2.6,3.14V276h-1.33V271.7c0-1.2-.45-2.19-1.71-2.19a1.92,1.92,0,0,0-1.8,1.37,2,2,0,0,0-.09.62V276h-1.34Z"/><path class="cls-3" d="M690.8,276l-.12-.93h0a2.74,2.74,0,0,1-2.25,1.09,2.1,2.1,0,0,1-2.25-2.11c0-1.79,1.58-2.77,4.43-2.75v-.15a1.52,1.52,0,0,0-1.68-1.7,3.59,3.59,0,0,0-1.92.54l-.31-.89a4.7,4.7,0,0,1,2.44-.64c2.25,0,2.8,1.54,2.8,3v2.76A12,12,0,0,0,692,276Zm-.21-3.77c-1.45,0-3.11.23-3.11,1.66a1.18,1.18,0,0,0,1.25,1.28,1.86,1.86,0,0,0,1.8-1.23,1.71,1.71,0,0,0,.06-.43Z"/><path class="cls-3" d="M694.06,265.12h1.34V276h-1.34Z"/><path class="cls-3" d="M699.16,266.49a.8.8,0,0,1-.85.83.79.79,0,0,1-.81-.83.83.83,0,0,1,1.66,0Zm-1.5,9.46v-7.38H699V276Z"/><path class="cls-3" d="M701,274.58a3.66,3.66,0,0,0,1.77.53c1,0,1.44-.49,1.44-1.1s-.39-1-1.37-1.35c-1.33-.48-2-1.21-2-2.09a2.27,2.27,0,0,1,2.55-2.16,3.55,3.55,0,0,1,1.8.45l-.33,1a3,3,0,0,0-1.51-.43c-.79,0-1.22.46-1.22,1s.43.88,1.4,1.26c1.27.47,1.93,1.11,1.93,2.21,0,1.31-1,2.23-2.76,2.23a4.17,4.17,0,0,1-2.07-.52Z"/><path class="cls-3" d="M708.87,266.45v2.12h1.93v1h-1.93v4c0,.92.27,1.44,1,1.44a2.5,2.5,0,0,0,.78-.1l.06,1a3.48,3.48,0,0,1-1.2.19,1.89,1.89,0,0,1-1.45-.57,2.84,2.84,0,0,1-.52-1.93v-4h-1.14v-1h1.14V266.8Z"/><path class="cls-3" d="M713,272.5a2.36,2.36,0,0,0,2.52,2.56,4.94,4.94,0,0,0,2-.38l.23,1a6,6,0,0,1-2.46.47,3.44,3.44,0,0,1-3.63-3.72c0-2.24,1.32-4,3.47-4,2.41,0,3,2.11,3,3.46a3.17,3.17,0,0,1-.05.63Zm3.92-1a1.89,1.89,0,0,0-1.84-2.17,2.19,2.19,0,0,0-2.06,2.17Z"/><line class="cls-4" x1="785.12" y1="236.15" x2="785.12" y2="211.42"/><line class="cls-4" x1="887.52" y1="237.66" x2="768.84" y2="237.16"/><path class="cls-3" d="M771.66,257.65l-2.6-10.27h1.41l1.22,5.2c.3,1.28.57,2.56.75,3.55h0c.17-1,.49-2.25.83-3.57l1.38-5.18h1.38l1.26,5.21c.28,1.23.56,2.44.72,3.52h0c.2-1.13.49-2.27.81-3.55l1.36-5.18h1.36l-2.91,10.27h-1.39L776,252.31a30.31,30.31,0,0,1-.68-3.36h0a29.12,29.12,0,0,1-.79,3.36l-1.46,5.34Z"/><path class="cls-3" d="M788.2,252.84h-4v3.71h4.46v1.1h-5.79V247.38h5.55v1.1h-4.22v3.26h4Z"/><path class="cls-3" d="M790.39,247.52a18,18,0,0,1,2.82-.22,5.91,5.91,0,0,1,4.17,1.29,4.72,4.72,0,0,1,1.45,3.68,5.47,5.47,0,0,1-1.48,4,6.38,6.38,0,0,1-4.55,1.48,20.8,20.8,0,0,1-2.41-.11Zm1.33,9.09a10.34,10.34,0,0,0,1.34.06c2.84,0,4.37-1.58,4.37-4.35,0-2.43-1.35-4-4.15-4a8.22,8.22,0,0,0-1.56.13Z"/><path class="cls-3" d="M809.33,252.41c0,3.53-2.15,5.41-4.77,5.41s-4.62-2.11-4.62-5.21c0-3.26,2-5.4,4.76-5.4S809.33,249.36,809.33,252.41Zm-8,.17c0,2.19,1.19,4.16,3.29,4.16s3.29-1.93,3.29-4.27c0-2-1.07-4.18-3.28-4.18S801.35,250.33,801.35,252.58Z"/><path class="cls-3" d="M811.05,247.52a18,18,0,0,1,2.82-.22,5.87,5.87,0,0,1,4.16,1.29,4.69,4.69,0,0,1,1.46,3.68,5.47,5.47,0,0,1-1.48,4,6.38,6.38,0,0,1-4.55,1.48,20.8,20.8,0,0,1-2.41-.11Zm1.33,9.09a10.34,10.34,0,0,0,1.34.06c2.84,0,4.37-1.58,4.37-4.35,0-2.43-1.36-4-4.15-4a8.14,8.14,0,0,0-1.56.13Z"/><path class="cls-3" d="M822.66,254.42l-1.06,3.23h-1.38l3.49-10.27h1.6l3.51,10.27H827.4l-1.1-3.23Zm3.37-1-1-3c-.22-.67-.37-1.28-.53-1.87h0c-.15.6-.31,1.22-.51,1.85l-1,3Z"/><path class="cls-3" d="M831.11,248.5H828v-1.12h7.61v1.12h-3.15v9.15h-1.33Z"/><path class="cls-3" d="M837.25,254.42l-1.06,3.23h-1.38l3.5-10.27h1.59l3.51,10.27H842l-1.1-3.23Zm3.37-1-1-3c-.22-.67-.37-1.28-.52-1.87h0c-.15.6-.31,1.22-.51,1.85l-1,3Z"/><path class="cls-3" d="M776.31,265.13v8.92c0,.65,0,1.39.06,1.9h-1.19l-.07-1.27h0a2.71,2.71,0,0,1-2.5,1.44c-1.79,0-3.17-1.51-3.17-3.75,0-2.46,1.52-4,3.32-4a2.45,2.45,0,0,1,2.22,1.12h0v-4.4ZM775,271.58a2.86,2.86,0,0,0-.06-.58,2,2,0,0,0-1.94-1.54c-1.39,0-2.22,1.22-2.22,2.84S771.51,275,773,275a2,2,0,0,0,2-1.61,2.15,2.15,0,0,0,.07-.58Z"/><path class="cls-3" d="M782.64,276l-.12-.93h0a2.77,2.77,0,0,1-2.26,1.1A2.1,2.1,0,0,1,778,274c0-1.78,1.58-2.76,4.43-2.74v-.16a1.52,1.52,0,0,0-1.68-1.7,3.56,3.56,0,0,0-1.92.55l-.3-.89a4.57,4.57,0,0,1,2.43-.65c2.26,0,2.8,1.54,2.8,3v2.76a10.66,10.66,0,0,0,.12,1.76Zm-.21-3.76c-1.45,0-3.11.23-3.11,1.65a1.18,1.18,0,0,0,1.25,1.28,1.83,1.83,0,0,0,1.79-1.23,1.28,1.28,0,0,0,.07-.42Z"/><path class="cls-3" d="M787.45,266.46v2.12h1.92v1h-1.92v4c0,.91.26,1.43,1,1.43a2.91,2.91,0,0,0,.78-.09l.06,1a3.52,3.52,0,0,1-1.2.18,1.86,1.86,0,0,1-1.45-.57,2.81,2.81,0,0,1-.52-1.92v-4H785v-1h1.14V266.8Z"/><path class="cls-3" d="M795,276l-.12-.93h0a2.75,2.75,0,0,1-2.25,1.1,2.1,2.1,0,0,1-2.25-2.12c0-1.78,1.58-2.76,4.43-2.74v-.16a1.52,1.52,0,0,0-1.68-1.7,3.51,3.51,0,0,0-1.92.55l-.31-.89a4.6,4.6,0,0,1,2.44-.65c2.25,0,2.8,1.54,2.8,3v2.76a12,12,0,0,0,.11,1.76Zm-.21-3.76c-1.45,0-3.11.23-3.11,1.65a1.18,1.18,0,0,0,1.25,1.28,1.86,1.86,0,0,0,1.8-1.23,1.26,1.26,0,0,0,.06-.42Z"/><path class="cls-3" d="M796.43,278.08a2.08,2.08,0,0,0,1.46-.57c.36-.41.51-1,.51-2.76v-6.17h1.34v6.68a4.09,4.09,0,0,1-.88,3,3.47,3.47,0,0,1-2.29.84Zm3.47-11.59a.81.81,0,0,1-.85.84.8.8,0,0,1-.81-.84.81.81,0,0,1,.84-.83A.8.8,0,0,1,799.9,266.49Z"/><path class="cls-3" d="M808.61,272.19a3.61,3.61,0,0,1-3.67,3.93,3.51,3.51,0,0,1-3.54-3.8,3.6,3.6,0,0,1,3.66-3.91A3.49,3.49,0,0,1,808.61,272.19Zm-5.85.09c0,1.62.93,2.83,2.24,2.83s2.25-1.2,2.25-2.87c0-1.25-.63-2.83-2.23-2.83S802.76,270.88,802.76,272.28Z"/><path class="cls-3" d="M816.47,273.93c0,.78,0,1.44.06,2h-1.18l-.07-1.21h0a2.75,2.75,0,0,1-2.44,1.38c-1.15,0-2.54-.65-2.54-3.23v-4.31h1.33v4.07c0,1.41.44,2.36,1.65,2.36a2,2,0,0,0,1.78-1.23,2,2,0,0,0,.12-.69v-4.51h1.33Z"/><path class="cls-3" d="M818.71,270.87c0-.87,0-1.61-.06-2.29h1.17l0,1.44h0a2.23,2.23,0,0,1,2.05-1.61,1.4,1.4,0,0,1,.37,0v1.26a2,2,0,0,0-.45,0,1.88,1.88,0,0,0-1.8,1.72,3.89,3.89,0,0,0-.05.62V276h-1.33Z"/><path class="cls-3" d="M823.76,270.57c0-.77,0-1.38-.07-2h1.19l.07,1.21h0a2.72,2.72,0,0,1,2.44-1.38c1,0,2.6.61,2.6,3.14V276h-1.34V271.7c0-1.19-.45-2.19-1.7-2.19a1.94,1.94,0,0,0-1.81,1.38,2.25,2.25,0,0,0-.09.62V276h-1.33Z"/><path class="cls-3" d="M836.31,276l-.12-.93h0a2.77,2.77,0,0,1-2.26,1.1,2.1,2.1,0,0,1-2.25-2.12c0-1.78,1.58-2.76,4.43-2.74v-.16a1.52,1.52,0,0,0-1.68-1.7,3.56,3.56,0,0,0-1.92.55l-.3-.89a4.57,4.57,0,0,1,2.43-.65c2.25,0,2.8,1.54,2.8,3v2.76a12,12,0,0,0,.11,1.76Zm-.21-3.76c-1.45,0-3.12.23-3.12,1.65a1.18,1.18,0,0,0,1.26,1.28,1.83,1.83,0,0,0,1.79-1.23,1.28,1.28,0,0,0,.07-.42Z"/><path class="cls-3" d="M839.57,265.13h1.33V276h-1.33Z"/><path class="cls-3" d="M844.66,266.49a.81.81,0,0,1-.85.84.8.8,0,0,1-.81-.84.81.81,0,0,1,.83-.83A.8.8,0,0,1,844.66,266.49Zm-1.5,9.46v-7.37h1.34V276Z"/><path class="cls-3" d="M846.54,274.58a3.6,3.6,0,0,0,1.78.53c1,0,1.43-.48,1.43-1.1s-.39-1-1.37-1.35c-1.33-.48-2-1.2-2-2.09a2.28,2.28,0,0,1,2.55-2.16,3.59,3.59,0,0,1,1.81.45l-.33,1a2.92,2.92,0,0,0-1.52-.44c-.79,0-1.22.46-1.22,1s.44.88,1.4,1.25c1.27.48,1.93,1.12,1.94,2.22,0,1.3-1,2.22-2.76,2.22a4.25,4.25,0,0,1-2.07-.51Z"/><path class="cls-3" d="M854.38,266.46v2.12h1.93v1h-1.93v4c0,.91.26,1.43,1,1.43a2.91,2.91,0,0,0,.78-.09l.06,1a3.52,3.52,0,0,1-1.2.18,1.84,1.84,0,0,1-1.44-.57,2.81,2.81,0,0,1-.52-1.92v-4h-1.15v-1h1.15V266.8Z"/><path class="cls-3" d="M858.48,272.51a2.34,2.34,0,0,0,2.52,2.55,5.08,5.08,0,0,0,2-.37l.23.95a6,6,0,0,1-2.46.47,3.43,3.43,0,0,1-3.62-3.72c0-2.24,1.31-4,3.47-4,2.4,0,3,2.11,3,3.47a4.61,4.61,0,0,1,0,.63Zm3.92-1a1.91,1.91,0,0,0-1.85-2.17,2.21,2.21,0,0,0-2.06,2.17Z"/><path class="cls-3" d="M776.31,283.42v8.92c0,.66,0,1.4.06,1.91h-1.19l-.07-1.28h0a2.71,2.71,0,0,1-2.5,1.44c-1.79,0-3.17-1.51-3.17-3.74,0-2.47,1.52-4,3.32-4a2.47,2.47,0,0,1,2.22,1.11h0v-4.4ZM775,289.87a2.83,2.83,0,0,0-.06-.57,2,2,0,0,0-1.94-1.54c-1.39,0-2.22,1.22-2.22,2.84s.75,2.74,2.19,2.74a2,2,0,0,0,2-1.61,2.15,2.15,0,0,0,.07-.58Z"/><path class="cls-3" d="M779.3,290.8a2.36,2.36,0,0,0,2.52,2.56,4.85,4.85,0,0,0,2-.38l.24,1a6,6,0,0,1-2.46.47,3.44,3.44,0,0,1-3.63-3.72c0-2.24,1.32-4,3.47-4,2.41,0,3,2.11,3,3.46a3.17,3.17,0,0,1,0,.63Zm3.92-1a1.89,1.89,0,0,0-1.85-2.17,2.19,2.19,0,0,0-2,2.17Zm.32-6.16-1.86,2.18h-.95l1.33-2.18Z"/><path class="cls-3" d="M786.7,286.87l1.45,4.14c.25.68.44,1.29.6,1.9h0c.17-.61.38-1.22.62-1.9l1.44-4.14h1.41l-2.91,7.38h-1.27l-2.81-7.38Z"/><path class="cls-3" d="M794.12,290.8a2.36,2.36,0,0,0,2.52,2.56,4.85,4.85,0,0,0,2-.38l.24,1a6,6,0,0,1-2.46.47,3.44,3.44,0,0,1-3.63-3.72c0-2.24,1.32-4,3.47-4,2.41,0,3,2.11,3,3.46a3.34,3.34,0,0,1,0,.63Zm3.92-1a1.89,1.89,0,0,0-1.85-2.17,2.19,2.19,0,0,0-2.05,2.17Z"/><path class="cls-3" d="M801,283.42h1.33v10.83H801Z"/><path class="cls-3" d="M811.28,290.49a3.61,3.61,0,0,1-3.67,3.92,3.5,3.5,0,0,1-3.54-3.79,3.6,3.6,0,0,1,3.66-3.91A3.48,3.48,0,0,1,811.28,290.49Zm-5.85.08c0,1.62.93,2.84,2.24,2.84s2.24-1.2,2.24-2.88c0-1.24-.62-2.82-2.22-2.82S805.43,289.18,805.43,290.57Z"/><path class="cls-3" d="M813,289.27c0-.93,0-1.7-.06-2.4h1.2l.08,1.26h0a2.85,2.85,0,0,1,2.61-1.42c1.79,0,3.13,1.5,3.13,3.74,0,2.65-1.62,4-3.35,4a2.57,2.57,0,0,1-2.27-1.16h0v4H813Zm1.34,2a3.19,3.19,0,0,0,.05.54,2.07,2.07,0,0,0,2,1.57c1.42,0,2.24-1.16,2.24-2.85,0-1.47-.77-2.74-2.19-2.74a2.14,2.14,0,0,0-2,1.66,2.43,2.43,0,0,0-.08.54Z"/><path class="cls-3" d="M821.65,289.27c0-.93,0-1.7-.06-2.4h1.2l.07,1.26h0a2.88,2.88,0,0,1,2.62-1.42c1.78,0,3.13,1.5,3.13,3.74,0,2.65-1.63,4-3.36,4a2.58,2.58,0,0,1-2.27-1.16h0v4h-1.33Zm1.33,2a2.42,2.42,0,0,0,.06.54,2.05,2.05,0,0,0,2,1.57c1.43,0,2.25-1.16,2.25-2.85,0-1.47-.77-2.74-2.19-2.74a2.12,2.12,0,0,0-2,1.66,2,2,0,0,0-.09.54Z"/><path class="cls-3" d="M831.09,290.8a2.36,2.36,0,0,0,2.53,2.56,4.92,4.92,0,0,0,2-.38l.23,1a6,6,0,0,1-2.46.47,3.43,3.43,0,0,1-3.62-3.72c0-2.24,1.31-4,3.46-4,2.41,0,3,2.11,3,3.46a3.17,3.17,0,0,1,0,.63Zm3.93-1a1.9,1.9,0,0,0-1.85-2.17,2.2,2.2,0,0,0-2.06,2.17Z"/><path class="cls-3" d="M844.15,292.23c0,.77,0,1.43.06,2H843L843,293h0a2.76,2.76,0,0,1-2.44,1.37c-1.15,0-2.54-.64-2.54-3.23v-4.31h1.34V291c0,1.4.44,2.36,1.65,2.36a2,2,0,0,0,1.77-1.23,2.12,2.12,0,0,0,.12-.69v-4.52h1.34Z"/><path class="cls-3" d="M846.38,289.17c0-.87,0-1.61-.06-2.3h1.17l0,1.45h.05a2.24,2.24,0,0,1,2.06-1.61,2.13,2.13,0,0,1,.37,0V288a3,3,0,0,0-.46,0,1.87,1.87,0,0,0-1.79,1.71,3.13,3.13,0,0,0-.06.63v3.94h-1.33Z"/><path class="cls-8" d="M125,91.79a17,17,0,0,1,2.83-.23A5.88,5.88,0,0,1,132,92.85a4.71,4.71,0,0,1,1.45,3.68,5.45,5.45,0,0,1-1.48,4,6.4,6.4,0,0,1-4.54,1.48,20.74,20.74,0,0,1-2.42-.12Zm1.33,9.08a8.66,8.66,0,0,0,1.34.07c2.84,0,4.37-1.58,4.37-4.36,0-2.43-1.35-4-4.15-4a8.06,8.06,0,0,0-1.56.14Z"/><path class="cls-8" d="M136.44,91.64v6.09c0,2.29,1,3.27,2.41,3.27s2.5-1,2.5-3.27V91.64h1.33v6c0,3.16-1.66,4.45-3.89,4.45s-3.68-1.2-3.68-4.39V91.64Z"/><path class="cls-8" d="M146.94,92.76h-3.13V91.64h7.61v1.12h-3.14v9.16h-1.34Z"/><path class="cls-8" d="M157.89,91.64h1.34v6.87c0,2.74-1.34,3.58-3.11,3.58a4.42,4.42,0,0,1-1.42-.24l.19-1.09a3.12,3.12,0,0,0,1.12.2c1.19,0,1.88-.54,1.88-2.56Z"/><path class="cls-8" d="M168.1,98.16a3.62,3.62,0,0,1-3.67,3.93,3.51,3.51,0,0,1-3.54-3.8,3.6,3.6,0,0,1,3.66-3.91A3.49,3.49,0,0,1,168.1,98.16Zm-5.85.09c0,1.61.93,2.83,2.23,2.83s2.25-1.2,2.25-2.87c0-1.25-.63-2.83-2.22-2.83S162.25,96.85,162.25,98.25Z"/><path class="cls-8" d="M176,99.9c0,.77,0,1.43.06,2h-1.19l-.07-1.21h0a2.75,2.75,0,0,1-2.45,1.38c-1.15,0-2.53-.65-2.53-3.24v-4.3h1.33v4.07c0,1.4.44,2.36,1.65,2.36a2,2,0,0,0,1.77-1.23,2,2,0,0,0,.12-.69V94.55H176Z"/><path class="cls-8" d="M178.19,96.84c0-.87,0-1.61-.06-2.29h1.18l.05,1.44h0a2.24,2.24,0,0,1,2.06-1.61,1.45,1.45,0,0,1,.37,0v1.26a2.07,2.07,0,0,0-.46,0,1.87,1.87,0,0,0-1.79,1.71,3.13,3.13,0,0,0-.06.63v3.94h-1.33Z"/><path class="cls-8" d="M183.24,96.54c0-.77,0-1.38-.06-2h1.18l.08,1.21h0a2.72,2.72,0,0,1,2.43-1.38c1,0,2.6.61,2.6,3.14v4.4h-1.33V97.67c0-1.19-.45-2.19-1.71-2.19a1.92,1.92,0,0,0-1.8,1.37,2,2,0,0,0-.1.63v4.44h-1.33Z"/><path class="cls-8" d="M195.79,101.92l-.12-.93h0a2.75,2.75,0,0,1-2.25,1.1,2.11,2.11,0,0,1-2.26-2.12c0-1.79,1.59-2.77,4.44-2.75v-.15a1.52,1.52,0,0,0-1.68-1.7,3.51,3.51,0,0,0-1.92.55l-.31-.9a4.66,4.66,0,0,1,2.43-.64c2.26,0,2.81,1.54,2.81,3v2.75a12,12,0,0,0,.11,1.77Zm-.21-3.77c-1.45,0-3.11.23-3.11,1.66a1.18,1.18,0,0,0,1.25,1.28,1.86,1.86,0,0,0,1.8-1.23,1.64,1.64,0,0,0,.06-.42Z"/><path class="cls-8" d="M199.05,91.09h1.34v10.83h-1.34Z"/><path class="cls-8" d="M204.15,92.46a.81.81,0,0,1-.86.83.79.79,0,0,1-.8-.83.83.83,0,0,1,1.66,0Zm-1.5,9.46V94.55H204v7.37Z"/><path class="cls-8" d="M206,100.55a3.56,3.56,0,0,0,1.77.53c1,0,1.44-.48,1.44-1.1s-.39-1-1.37-1.35c-1.33-.48-2-1.21-2-2.09a2.27,2.27,0,0,1,2.55-2.16,3.55,3.55,0,0,1,1.8.45l-.33,1a2.85,2.85,0,0,0-1.51-.44c-.79,0-1.22.46-1.22,1s.43.89,1.4,1.26c1.27.48,1.93,1.12,1.93,2.22,0,1.3-1,2.22-2.76,2.22a4.17,4.17,0,0,1-2.07-.52Z"/><path class="cls-8" d="M212.25,96.54c0-.77,0-1.38-.06-2h1.17l.07,1.18h0a2.53,2.53,0,0,1,2.32-1.35,2.17,2.17,0,0,1,2.08,1.48h0a3.07,3.07,0,0,1,.83-1,2.51,2.51,0,0,1,1.63-.52c1,0,2.43.63,2.43,3.2v4.34h-1.31V97.75c0-1.43-.52-2.27-1.6-2.27a1.72,1.72,0,0,0-1.59,1.2,2.09,2.09,0,0,0-.11.67v4.57h-1.31V97.49c0-1.17-.52-2-1.53-2a1.84,1.84,0,0,0-1.67,1.33,2,2,0,0,0-.11.66v4.45h-1.31Z"/><path class="cls-8" d="M225.72,98.47a2.35,2.35,0,0,0,2.52,2.56,5.13,5.13,0,0,0,2-.37l.23,1a6,6,0,0,1-2.46.47,3.44,3.44,0,0,1-3.63-3.72c0-2.24,1.32-4,3.47-4,2.41,0,3,2.11,3,3.47a3.06,3.06,0,0,1-.05.62Zm3.92-1a1.9,1.9,0,0,0-1.84-2.17,2.2,2.2,0,0,0-2.06,2.17Z"/><path class="cls-8" d="M125.44,110.34a2.06,2.06,0,0,0,2.21,2.24,4.34,4.34,0,0,0,1.79-.33l.21.84a5.4,5.4,0,0,1-2.16.41,3,3,0,0,1-3.18-3.26c0-2,1.16-3.49,3-3.49,2.11,0,2.66,1.85,2.66,3a2.56,2.56,0,0,1,0,.55Zm3.44-.84a1.66,1.66,0,0,0-1.62-1.9,1.92,1.92,0,0,0-1.8,1.9Zm.27-5.4L127.52,106h-.83l1.17-1.91Z"/><path class="cls-8" d="M136.08,113.12a4.34,4.34,0,0,1-1.86.38,3.08,3.08,0,0,1-3.22-3.3,3.29,3.29,0,0,1,3.47-3.44,3.75,3.75,0,0,1,1.63.34l-.26.9a2.91,2.91,0,0,0-1.37-.31,2.24,2.24,0,0,0-2.28,2.45,2.21,2.21,0,0,0,2.25,2.41,3.35,3.35,0,0,0,1.44-.31Z"/><path class="cls-8" d="M143.22,110.07A3.16,3.16,0,0,1,140,113.5a3.07,3.07,0,0,1-3.1-3.32,3.16,3.16,0,0,1,3.21-3.43A3.06,3.06,0,0,1,143.22,110.07Zm-5.12.07c0,1.42.81,2.48,2,2.48s2-1.05,2-2.51c0-1.09-.55-2.48-2-2.48S138.1,108.92,138.1,110.14Z"/><path class="cls-8" d="M144.7,103.88h1.17v9.48H144.7Z"/><path class="cls-8" d="M148.51,110.34a2.06,2.06,0,0,0,2.21,2.24,4.29,4.29,0,0,0,1.78-.33l.21.84a5.34,5.34,0,0,1-2.15.41,3,3,0,0,1-3.18-3.26c0-2,1.15-3.49,3-3.49,2.1,0,2.65,1.85,2.65,3a2.56,2.56,0,0,1,0,.55Zm3.43-.84a1.66,1.66,0,0,0-1.62-1.9,1.92,1.92,0,0,0-1.8,1.9Z"/><path class="cls-8" d="M162.94,103.88v7.81c0,.58,0,1.22.05,1.67h-1l-.06-1.12h0a2.37,2.37,0,0,1-2.19,1.26c-1.57,0-2.78-1.32-2.78-3.28,0-2.15,1.33-3.47,2.91-3.47a2.15,2.15,0,0,1,1.94,1h0v-3.85Zm-1.17,5.65a2.12,2.12,0,0,0-.05-.5,1.74,1.74,0,0,0-1.7-1.35c-1.22,0-1.94,1.06-1.94,2.48s.65,2.4,1.92,2.4a1.77,1.77,0,0,0,1.71-1.41,2,2,0,0,0,.06-.5Z"/><path class="cls-8" d="M165.55,110.34a2.06,2.06,0,0,0,2.21,2.24,4.38,4.38,0,0,0,1.79-.33l.2.84a5.34,5.34,0,0,1-2.15.41,3,3,0,0,1-3.18-3.26c0-2,1.15-3.49,3-3.49,2.11,0,2.66,1.85,2.66,3a3.45,3.45,0,0,1,0,.55Zm3.44-.84a1.67,1.67,0,0,0-1.62-1.9,1.94,1.94,0,0,0-1.81,1.9Z"/><path class="cls-8" d="M172.83,115.22a1.82,1.82,0,0,0,1.28-.49c.32-.37.45-.88.45-2.43v-5.4h1.17v5.85a3.59,3.59,0,0,1-.77,2.67,3,3,0,0,1-2,.73Zm3-10.14a.73.73,0,1,1-.72-.73A.7.7,0,0,1,175.87,105.08Z"/><path class="cls-8" d="M183.5,110.07a3.16,3.16,0,0,1-3.21,3.43,3.07,3.07,0,0,1-3.11-3.32,3.16,3.16,0,0,1,3.21-3.43A3.06,3.06,0,0,1,183.5,110.07Zm-5.12.07c0,1.42.81,2.48,2,2.48s2-1.05,2-2.51c0-1.09-.55-2.48-1.94-2.48S178.38,108.92,178.38,110.14Z"/><path class="cls-8" d="M190.38,111.59c0,.68,0,1.26.05,1.77h-1l-.07-1.06h0a2.41,2.41,0,0,1-2.14,1.2c-1,0-2.22-.56-2.22-2.82V106.9h1.17v3.57c0,1.23.38,2.07,1.44,2.07a1.69,1.69,0,0,0,1.55-1.08,1.6,1.6,0,0,0,.11-.6v-4h1.17Z"/><path class="cls-8" d="M192.33,108.91c0-.76,0-1.41-.05-2h1l0,1.27h0a2,2,0,0,1,1.8-1.42,1.15,1.15,0,0,1,.33,0v1.1a2.33,2.33,0,0,0-.4,0,1.63,1.63,0,0,0-1.57,1.5,3.21,3.21,0,0,0-.05.55v3.45h-1.17Z"/><path class="cls-8" d="M196.75,108.65c0-.68,0-1.21-.05-1.75h1l.06,1.06h0a2.4,2.4,0,0,1,2.14-1.21c.89,0,2.28.54,2.28,2.76v3.85h-1.17v-3.72c0-1-.4-1.92-1.5-1.92a1.69,1.69,0,0,0-1.58,1.2,1.82,1.82,0,0,0-.08.55v3.89h-1.17Z"/><path class="cls-8" d="M207.74,113.36l-.1-.82h0a2.37,2.37,0,0,1-2,1,1.84,1.84,0,0,1-2-1.85c0-1.56,1.39-2.42,3.88-2.4v-.14a1.32,1.32,0,0,0-1.47-1.49,3.15,3.15,0,0,0-1.68.48l-.26-.78a4.08,4.08,0,0,1,2.13-.57c2,0,2.45,1.35,2.45,2.65v2.41a10.35,10.35,0,0,0,.1,1.55Zm-.18-3.3c-1.27,0-2.73.2-2.73,1.45a1,1,0,0,0,1.1,1.13,1.62,1.62,0,0,0,1.57-1.09,1.19,1.19,0,0,0,.06-.37Z"/><path class="cls-8" d="M210.59,103.88h1.17v9.48h-1.17Z"/><path class="cls-8" d="M215.06,105.08a.71.71,0,0,1-.75.73.7.7,0,0,1-.71-.73.73.73,0,1,1,1.46,0Zm-1.32,8.28V106.9h1.17v6.46Z"/><path class="cls-8" d="M216.7,112.16a3.2,3.2,0,0,0,1.56.46c.85,0,1.25-.42,1.25-1s-.34-.86-1.2-1.18c-1.16-.42-1.72-1.06-1.71-1.83a2,2,0,0,1,2.23-1.9,3.1,3.1,0,0,1,1.58.4l-.29.86a2.5,2.5,0,0,0-1.33-.39c-.69,0-1.06.41-1.06.89s.37.77,1.22,1.1c1.11.42,1.69,1,1.7,1.94,0,1.15-.89,2-2.42,2a3.61,3.61,0,0,1-1.81-.45Z"/><path class="cls-8" d="M222.15,108.65c0-.68,0-1.21-.05-1.75h1l.06,1h0a2.25,2.25,0,0,1,2-1.19,1.9,1.9,0,0,1,1.82,1.3h0a2.55,2.55,0,0,1,.73-.84,2.22,2.22,0,0,1,1.42-.46c.86,0,2.13.56,2.13,2.81v3.8h-1.15v-3.65c0-1.25-.46-2-1.4-2a1.52,1.52,0,0,0-1.39,1,1.82,1.82,0,0,0-.1.59v4h-1.15v-3.88c0-1-.45-1.76-1.34-1.76a1.61,1.61,0,0,0-1.46,1.17,1.76,1.76,0,0,0-.09.58v3.89h-1.15Z"/><path class="cls-8" d="M233.94,110.34a2.06,2.06,0,0,0,2.21,2.24,4.34,4.34,0,0,0,1.79-.33l.21.84a5.4,5.4,0,0,1-2.16.41,3,3,0,0,1-3.18-3.26c0-2,1.16-3.49,3-3.49,2.11,0,2.66,1.85,2.66,3a2.56,2.56,0,0,1,0,.55Zm3.44-.84a1.66,1.66,0,0,0-1.62-1.9,1.92,1.92,0,0,0-1.8,1.9Z"/><path class="cls-8" d="M130.36,115.32v7.81c0,.58,0,1.22,0,1.67h-1l-.06-1.12h0a2.38,2.38,0,0,1-2.19,1.27c-1.57,0-2.78-1.33-2.78-3.28,0-2.16,1.33-3.47,2.91-3.47a2.15,2.15,0,0,1,1.94,1h0v-3.85ZM129.19,121a2.12,2.12,0,0,0-.05-.5,1.74,1.74,0,0,0-1.7-1.35c-1.22,0-1.94,1.06-1.94,2.48s.65,2.4,1.92,2.4a1.77,1.77,0,0,0,1.71-1.41,2,2,0,0,0,.06-.5Z"/><path class="cls-8" d="M133,121.78a2.06,2.06,0,0,0,2.21,2.24,4.38,4.38,0,0,0,1.79-.33l.2.84a5.34,5.34,0,0,1-2.15.41,3,3,0,0,1-3.18-3.26c0-2,1.15-3.48,3-3.48,2.11,0,2.66,1.84,2.66,3a3.35,3.35,0,0,1,0,.55Zm3.44-.84a1.67,1.67,0,0,0-1.62-1.9,1.94,1.94,0,0,0-1.81,1.9Z"/><path class="cls-8" d="M148.15,124.51a5.79,5.79,0,0,1-2.38.43,4.2,4.2,0,0,1-4.43-4.56,4.47,4.47,0,0,1,4.7-4.72,4.81,4.81,0,0,1,2.13.4l-.28.94a4.3,4.3,0,0,0-1.82-.37c-2.11,0-3.51,1.35-3.51,3.71A3.26,3.26,0,0,0,146,124a4.64,4.64,0,0,0,1.91-.37Z"/><path class="cls-8" d="M153.06,124.8,153,124h0a2.4,2.4,0,0,1-2,1,1.85,1.85,0,0,1-2-1.86c0-1.56,1.39-2.42,3.88-2.4v-.14a1.33,1.33,0,0,0-1.47-1.49,3.15,3.15,0,0,0-1.68.48l-.27-.78a4.13,4.13,0,0,1,2.13-.56c2,0,2.46,1.34,2.46,2.64v2.41a9.17,9.17,0,0,0,.1,1.55Zm-.19-3.3c-1.27,0-2.72.2-2.72,1.45a1,1,0,0,0,1.09,1.13,1.63,1.63,0,0,0,1.58-1.08,1.28,1.28,0,0,0,.05-.38Z"/><path class="cls-8" d="M155.91,120.09c0-.68,0-1.21,0-1.75h1l.07,1.06h0a2.4,2.4,0,0,1,2.14-1.2c.88,0,2.27.53,2.27,2.75v3.85h-1.17v-3.72c0-1-.39-1.92-1.49-1.92a1.69,1.69,0,0,0-1.58,1.2,1.82,1.82,0,0,0-.08.55v3.89h-1.17Z"/><path class="cls-8" d="M163.32,120.09c0-.68,0-1.21-.06-1.75h1l.07,1.06h0a2.39,2.39,0,0,1,2.13-1.2c.89,0,2.28.53,2.28,2.75v3.85h-1.17v-3.72c0-1-.39-1.92-1.49-1.92a1.69,1.69,0,0,0-1.58,1.2,1.82,1.82,0,0,0-.08.55v3.89h-1.17Z"/><path class="cls-8" d="M171.38,121.78a2.06,2.06,0,0,0,2.21,2.24,4.34,4.34,0,0,0,1.79-.33l.21.84a5.36,5.36,0,0,1-2.16.41,3,3,0,0,1-3.17-3.26c0-2,1.15-3.48,3-3.48,2.11,0,2.66,1.84,2.66,3a2.51,2.51,0,0,1,0,.55Zm3.44-.84a1.66,1.66,0,0,0-1.62-1.9,1.92,1.92,0,0,0-1.8,1.9Z"/><path class="cls-8" d="M177.25,123.6a3.19,3.19,0,0,0,1.55.46c.86,0,1.26-.42,1.26-1s-.34-.86-1.2-1.18c-1.17-.42-1.72-1.06-1.72-1.83a2,2,0,0,1,2.24-1.89,3.14,3.14,0,0,1,1.58.39l-.29.86a2.54,2.54,0,0,0-1.33-.38c-.69,0-1.07.4-1.07.88s.38.77,1.23,1.1c1.11.42,1.69,1,1.69,1.94,0,1.15-.89,2-2.41,2a3.68,3.68,0,0,1-1.82-.45Z"/><path class="cls-8" d="M300,99.11h-4v3.71h4.46v1.11H294.7V93.66h5.55v1.1H296V98h4Z"/><path class="cls-8" d="M302,102.31a4.63,4.63,0,0,0,2.37.67c1.36,0,2.16-.71,2.16-1.75s-.56-1.52-1.95-2c-1.67-.6-2.71-1.48-2.71-2.92,0-1.6,1.33-2.78,3.33-2.78a4.76,4.76,0,0,1,2.26.49l-.37,1.09a3.9,3.9,0,0,0-1.94-.49c-1.41,0-1.94.84-1.94,1.54,0,1,.62,1.42,2,2,1.74.68,2.62,1.52,2.62,3s-1.16,3-3.59,3a5.27,5.27,0,0,1-2.63-.67Z"/><path class="cls-8" d="M311.82,93.66h1.33v6.86c0,2.74-1.34,3.58-3.1,3.58a4.42,4.42,0,0,1-1.42-.24l.19-1.09a3.12,3.12,0,0,0,1.12.2c1.19,0,1.88-.54,1.88-2.55Z"/><path class="cls-8" d="M318.59,93.66h1.34v9.15h4.39v1.12h-5.73Z"/><path class="cls-8" d="M327.25,94.47a.84.84,0,1,1-.83-.83A.8.8,0,0,1,327.25,94.47Zm-1.5,9.46V96.56h1.33v7.37Z"/><path class="cls-8" d="M329.32,93.11h1.33v10.82h-1.33Z"/><path class="cls-8" d="M332.92,93.11h1.33v10.82h-1.33Z"/><path class="cls-8" d="M337.26,100.49a2.35,2.35,0,0,0,2.53,2.55,5.08,5.08,0,0,0,2-.37l.23,1a6,6,0,0,1-2.46.47,3.43,3.43,0,0,1-3.62-3.72c0-2.24,1.31-4,3.46-4,2.41,0,3,2.11,3,3.47a3.24,3.24,0,0,1-.05.63Zm3.93-1a1.91,1.91,0,0,0-1.85-2.17,2.21,2.21,0,0,0-2.06,2.17Z"/><path class="cls-8" d="M302.15,116c-.07-1.25-.15-2.77-.14-3.89h0c-.31,1-.68,2.18-1.13,3.41l-1.59,4.37h-.88l-1.46-4.29c-.43-1.27-.78-2.42-1-3.49h0c0,1.12-.09,2.62-.17,4l-.24,3.87h-1.11l.63-9h1.49L298,115.3c.37,1.11.67,2.1.9,3h0c.24-.91.55-1.9.95-3l1.61-4.35H303l.56,9h-1.14Z"/><path class="cls-8" d="M311.18,116.66a3.16,3.16,0,0,1-3.21,3.43,3.07,3.07,0,0,1-3.11-3.32,3.16,3.16,0,0,1,3.21-3.43A3.06,3.06,0,0,1,311.18,116.66Zm-5.12.07c0,1.42.81,2.48,2,2.48s2-1,2-2.51c0-1.1-.55-2.48-1.94-2.48S306.06,115.51,306.06,116.73Z"/><path class="cls-8" d="M312.66,115.23c0-.67,0-1.21-.05-1.74h1l.06,1.06h0a2.38,2.38,0,0,1,2.14-1.21c.89,0,2.27.54,2.27,2.75V120H317v-3.73c0-1-.4-1.91-1.5-1.91a1.68,1.68,0,0,0-1.58,1.2,1.77,1.77,0,0,0-.08.55V120h-1.17Z"/><path class="cls-8" d="M321.43,111.63v1.86h1.68v.89h-1.68v3.48c0,.8.23,1.26.88,1.26A2.18,2.18,0,0,0,323,119l.06.89a3,3,0,0,1-1.05.17,1.65,1.65,0,0,1-1.27-.5,2.5,2.5,0,0,1-.45-1.68v-3.53h-1v-.89h1v-1.56Z"/><path class="cls-8" d="M324.43,115.59c0-.82,0-1.49-.05-2.1h1.05l.06,1.1h0a2.52,2.52,0,0,1,2.29-1.25c1.56,0,2.74,1.32,2.74,3.28,0,2.33-1.42,3.47-2.93,3.47a2.24,2.24,0,0,1-2-1h0v3.51h-1.17Zm1.17,1.73a2.52,2.52,0,0,0,0,.48,1.8,1.8,0,0,0,1.76,1.37c1.24,0,2-1,2-2.5,0-1.29-.68-2.39-1.92-2.39a1.87,1.87,0,0,0-1.78,1.44,2.78,2.78,0,0,0-.07.48Z"/><path class="cls-8" d="M332.7,116.93a2.06,2.06,0,0,0,2.21,2.24,4.38,4.38,0,0,0,1.79-.33l.2.83a5.14,5.14,0,0,1-2.15.42,3,3,0,0,1-3.18-3.26c0-2,1.15-3.49,3-3.49,2.11,0,2.66,1.85,2.66,3a3.45,3.45,0,0,1,0,.55Zm3.44-.85a1.67,1.67,0,0,0-1.62-1.9,1.94,1.94,0,0,0-1.81,1.9Z"/><path class="cls-8" d="M338.73,110.47h1.17V120h-1.17Z"/><path class="cls-8" d="M341.88,110.47h1.17V120h-1.17Z"/><path class="cls-8" d="M346.34,111.66a.73.73,0,1,1-.73-.73A.71.71,0,0,1,346.34,111.66ZM345,120v-6.46h1.17V120Z"/><path class="cls-8" d="M348.81,116.93a2.06,2.06,0,0,0,2.21,2.24,4.38,4.38,0,0,0,1.79-.33l.2.83a5.14,5.14,0,0,1-2.15.42,3,3,0,0,1-3.18-3.26c0-2,1.15-3.49,3-3.49,2.11,0,2.66,1.85,2.66,3a3.45,3.45,0,0,1,0,.55Zm3.44-.85a1.67,1.67,0,0,0-1.62-1.9,1.94,1.94,0,0,0-1.81,1.9Z"/><path class="cls-8" d="M354.84,115.5c0-.76,0-1.41-.06-2h1l.05,1.27h0a2,2,0,0,1,1.8-1.42,1.08,1.08,0,0,1,.32,0v1.1a2.25,2.25,0,0,0-.4,0,1.64,1.64,0,0,0-1.57,1.5,3.12,3.12,0,0,0-.05.55V120h-1.16Z"/><path class="cls-7" d="M538.13,132.77V79h76.53c4.56,0,8.29,6,8.29,13.33v40.46"/><path class="cls-8" d="M544.81,91.46H546v8h3.84v1h-5Z"/><path class="cls-8" d="M552.39,92.18a.71.71,0,0,1-.75.73.7.7,0,0,1-.71-.73.73.73,0,0,1,1.46,0Zm-1.32,8.28V94h1.17v6.46Z"/><path class="cls-8" d="M558.8,100.23a4.47,4.47,0,0,1-1.85.37,3.07,3.07,0,0,1-3.22-3.3,3.28,3.28,0,0,1,3.47-3.44,3.94,3.94,0,0,1,1.63.34l-.26.91a2.8,2.8,0,0,0-1.38-.31,2.44,2.44,0,0,0,0,4.86,3.45,3.45,0,0,0,1.43-.31Z"/><path class="cls-8" d="M560.75,97.45A2.07,2.07,0,0,0,563,99.69a4.34,4.34,0,0,0,1.79-.33l.21.83a5.19,5.19,0,0,1-2.16.41,3,3,0,0,1-3.17-3.26c0-2,1.15-3.48,3-3.48,2.11,0,2.66,1.85,2.66,3a2.67,2.67,0,0,1,0,.56Zm3.44-.85a1.66,1.66,0,0,0-1.62-1.9,1.92,1.92,0,0,0-1.8,1.9Z"/><path class="cls-8" d="M566.78,95.75c0-.67,0-1.21,0-1.75h1l.06,1.07h0A2.36,2.36,0,0,1,570,93.86c.89,0,2.28.53,2.28,2.75v3.85h-1.17V96.74c0-1-.4-1.92-1.49-1.92A1.7,1.7,0,0,0,568,96a1.75,1.75,0,0,0-.08.54v3.89h-1.17Z"/><path class="cls-8" d="M578.8,100.23a4.53,4.53,0,0,1-1.86.37,3.08,3.08,0,0,1-3.22-3.3,3.29,3.29,0,0,1,3.47-3.44,3.9,3.9,0,0,1,1.63.34l-.26.91a2.79,2.79,0,0,0-1.37-.31,2.24,2.24,0,0,0-2.28,2.44,2.22,2.22,0,0,0,2.25,2.42,3.47,3.47,0,0,0,1.44-.31Z"/><path class="cls-8" d="M580.75,97.45A2.06,2.06,0,0,0,583,99.69a4.38,4.38,0,0,0,1.79-.33l.2.83a5.17,5.17,0,0,1-2.15.41,3,3,0,0,1-3.18-3.26c0-2,1.15-3.48,3-3.48,2.11,0,2.66,1.85,2.66,3a3.6,3.6,0,0,1,0,.56Zm3.44-.85a1.67,1.67,0,0,0-1.62-1.9,1.94,1.94,0,0,0-1.81,1.9Z"/><path class="cls-8" d="M550.35,102.42v7.82c0,.57,0,1.22,0,1.66h-1l-.06-1.11h0a2.37,2.37,0,0,1-2.19,1.26c-1.57,0-2.78-1.32-2.78-3.28,0-2.16,1.33-3.47,2.91-3.47a2.13,2.13,0,0,1,1.94,1h0v-3.86Zm-1.17,5.65a2.12,2.12,0,0,0,0-.5,1.74,1.74,0,0,0-1.7-1.35c-1.22,0-1.94,1.07-1.94,2.49s.65,2.4,1.92,2.4a1.78,1.78,0,0,0,1.71-1.41,2,2,0,0,0,.06-.51Z"/><path class="cls-8" d="M553,108.89a2.06,2.06,0,0,0,2.21,2.24,4.38,4.38,0,0,0,1.79-.33l.2.83A5.17,5.17,0,0,1,555,112a3,3,0,0,1-3.18-3.26c0-2,1.15-3.48,3-3.48,2.11,0,2.66,1.85,2.66,3a3.6,3.6,0,0,1,0,.56Zm3.44-.85a1.67,1.67,0,0,0-1.62-1.9A1.94,1.94,0,0,0,553,108Zm.27-5.4L555,104.56h-.83l1.17-1.92Z"/><path class="cls-8" d="M559.44,105.45l1.27,3.62c.22.59.38,1.13.53,1.66h0c.15-.53.33-1.07.54-1.66l1.27-3.62h1.22l-2.54,6.45h-1.12l-2.46-6.45Z"/><path class="cls-8" d="M565.93,108.89a2.07,2.07,0,0,0,2.21,2.24,4.34,4.34,0,0,0,1.79-.33l.21.83A5.19,5.19,0,0,1,568,112a3,3,0,0,1-3.17-3.26c0-2,1.15-3.48,3-3.48,2.11,0,2.66,1.85,2.66,3a2.67,2.67,0,0,1,0,.56Zm3.44-.85a1.66,1.66,0,0,0-1.62-1.9A1.92,1.92,0,0,0,566,108Z"/><path class="cls-8" d="M572,102.42h1.17v9.48H572Z"/><path class="cls-8" d="M581,108.61a3.17,3.17,0,0,1-3.21,3.44,3.08,3.08,0,0,1-3.11-3.33,3.15,3.15,0,0,1,3.21-3.42A3.05,3.05,0,0,1,581,108.61Zm-5.12.08c0,1.41.81,2.48,2,2.48s2-1,2-2.52c0-1.09-.55-2.47-1.94-2.47S575.84,107.46,575.84,108.69Z"/><path class="cls-8" d="M582.44,107.55c0-.82,0-1.5-.05-2.1h1l.07,1.1h0a2.52,2.52,0,0,1,2.29-1.25c1.56,0,2.74,1.32,2.74,3.28,0,2.32-1.42,3.47-2.94,3.47a2.27,2.27,0,0,1-2-1h0v3.52h-1.17Zm1.17,1.72a1.86,1.86,0,0,0,0,.48,1.8,1.8,0,0,0,1.75,1.38c1.25,0,2-1,2-2.5,0-1.29-.68-2.4-1.92-2.4a1.87,1.87,0,0,0-1.78,1.45,1.92,1.92,0,0,0-.07.48Z"/><path class="cls-8" d="M590,107.55c0-.82,0-1.5,0-2.1h1l.06,1.1h0a2.52,2.52,0,0,1,2.29-1.25c1.57,0,2.74,1.32,2.74,3.28,0,2.32-1.42,3.47-2.93,3.47a2.25,2.25,0,0,1-2-1h0v3.52H590Zm1.17,1.72a2.44,2.44,0,0,0,0,.48,1.81,1.81,0,0,0,1.76,1.38c1.24,0,2-1,2-2.5,0-1.29-.67-2.4-1.92-2.4a1.86,1.86,0,0,0-1.77,1.45,1.93,1.93,0,0,0-.08.48Z"/><path class="cls-8" d="M598.3,108.89a2.06,2.06,0,0,0,2.21,2.24,4.38,4.38,0,0,0,1.79-.33l.2.83a5.13,5.13,0,0,1-2.15.41,3,3,0,0,1-3.18-3.26c0-2,1.16-3.48,3-3.48,2.11,0,2.66,1.85,2.66,3a3.6,3.6,0,0,1,0,.56Zm3.44-.85a1.67,1.67,0,0,0-1.62-1.9,1.94,1.94,0,0,0-1.81,1.9Z"/><path class="cls-8" d="M609.73,110.13c0,.68,0,1.26,0,1.77h-1l-.06-1.05h0a2.41,2.41,0,0,1-2.14,1.2c-1,0-2.22-.57-2.22-2.83v-3.77h1.17V109c0,1.23.38,2.07,1.44,2.07a1.69,1.69,0,0,0,1.55-1.08,1.6,1.6,0,0,0,.11-.6v-4h1.17Z"/><path class="cls-8" d="M611.68,107.46c0-.77,0-1.42,0-2h1l0,1.26h0a2,2,0,0,1,1.8-1.41,1.69,1.69,0,0,1,.33,0v1.11a1.59,1.59,0,0,0-.4,0,1.64,1.64,0,0,0-1.57,1.5,3.21,3.21,0,0,0,0,.55v3.45h-1.17Z"/><path class="cls-8" d="M545.23,116.89l.87,3.27c.19.72.35,1.4.48,2.06h0c.15-.65.36-1.35.58-2l1.06-3.28h1l1,3.23c.23.76.42,1.45.57,2.1h0c.12-.65.29-1.33.5-2.09l.92-3.24h1.16l-2.08,6.45h-1.07l-1-3.08a18.51,18.51,0,0,1-.57-2.13h0a18,18,0,0,1-.59,2.14l-1,3.07H546l-2-6.45Z"/><path class="cls-8" d="M555.12,120.33a2.07,2.07,0,0,0,2.21,2.24,4.34,4.34,0,0,0,1.79-.33l.21.83a5.19,5.19,0,0,1-2.16.41,3,3,0,0,1-3.18-3.26c0-2,1.16-3.48,3-3.48,2.11,0,2.66,1.85,2.66,3a2.62,2.62,0,0,1,0,.55Zm3.44-.85a1.66,1.66,0,0,0-1.62-1.9,1.92,1.92,0,0,0-1.8,1.9Z"/><path class="cls-8" d="M561.1,123.34c0-.44,0-1.09,0-1.66v-7.82h1.17v4.06h0a2.41,2.41,0,0,1,2.21-1.18c1.6,0,2.73,1.33,2.72,3.29,0,2.31-1.47,3.46-2.91,3.46a2.33,2.33,0,0,1-2.16-1.21h0l-.06,1.06Zm1.22-2.59a1.49,1.49,0,0,0,0,.43,1.8,1.8,0,0,0,1.76,1.37c1.23,0,2-1,2-2.48,0-1.3-.67-2.41-1.93-2.41a1.89,1.89,0,0,0-1.78,1.45,2.25,2.25,0,0,0-.06.48Z"/><line class="cls-5" x1="962.46" y1="133.75" x2="962.46" y2="19.47"/></svg>