<svg id="Calque_1" data-name="Calque 1" xmlns="http://www.w3.org/2000/svg" viewBox="0 0 1017.69 365.28"><defs><style>.cls-1,.cls-2,.cls-4,.cls-5,.cls-7{fill:none;stroke-miterlimit:10;}.cls-1{stroke:#488aa4;}.cls-2{stroke:#ec6e6b;}.cls-3{fill:#488aa4;}.cls-4{stroke:#325982;opacity:0.35;}.cls-5{stroke:#4789a4;opacity:0.2;}.cls-6{fill:#4789a4;}.cls-7{stroke:#e85522;}.cls-8{fill:#e85522;}</style></defs><title>timeline-en</title><circle class="cls-1" cx="31.65" cy="131.04" r="30.44"/><circle class="cls-2" cx="31.65" cy="131.04" r="14.28"/><path class="cls-3" d="M1.85,245H7.38v1.1H3.18v3.43H7.06v1.09H3.18v4.65H1.85Z"/><path class="cls-3" d="M9.27,245.17a14.6,14.6,0,0,1,2.55-.22,4.28,4.28,0,0,1,3,.84,2.59,2.59,0,0,1,.81,2,2.71,2.71,0,0,1-1.94,2.62v0a2.63,2.63,0,0,1,1.51,2.08A16.15,16.15,0,0,0,16,255.3H14.59a13.51,13.51,0,0,1-.67-2.46c-.31-1.4-.87-2-2.07-2H10.6v4.45H9.27Zm1.33,4.68H12c1.42,0,2.32-.78,2.32-1.95,0-1.34-1-1.92-2.36-1.92a5.58,5.58,0,0,0-1.31.12Z"/><path class="cls-3" d="M19.22,252.07l-1.06,3.23H16.78L20.27,245h1.6l3.51,10.27H24l-1.1-3.23Zm3.37-1-1-3c-.22-.67-.37-1.28-.53-1.87h0c-.15.6-.31,1.22-.51,1.85l-1,3Z"/><path class="cls-3" d="M26.88,255.3V245h1.46l3.29,5.19a29.38,29.38,0,0,1,1.83,3.35l0,0c-.12-1.37-.15-2.62-.15-4.21V245H34.6V255.3H33.26L30,250.1a34.27,34.27,0,0,1-1.91-3.44h0c.08,1.3.1,2.54.1,4.24v4.39Z"/><path class="cls-3" d="M44.09,255a6.56,6.56,0,0,1-2.71.49,4.79,4.79,0,0,1-5.06-5.2,5.1,5.1,0,0,1,5.36-5.39,5.63,5.63,0,0,1,2.44.45l-.33,1.08a4.85,4.85,0,0,0-2.07-.42c-2.41,0-4,1.54-4,4.24,0,2.51,1.45,4.12,3.94,4.12a5.53,5.53,0,0,0,2.18-.42Z"/><path class="cls-3" d="M51.07,250.49h-4v3.71h4.45v1.1H45.76V245h5.55v1.1H47.09v3.26h4Z"/><path class="cls-3" d="M56.49,245.17a12.26,12.26,0,0,1,2.42-.22,4.14,4.14,0,0,1,2.82.75,2.15,2.15,0,0,1,.86,1.81,2.42,2.42,0,0,1-1.73,2.25v.05A2.63,2.63,0,0,1,63,252.38a2.7,2.7,0,0,1-.88,2.05,5.12,5.12,0,0,1-3.55,1,18.39,18.39,0,0,1-2.06-.11Zm1.33,4.21H59c1.39,0,2.21-.74,2.21-1.74,0-1.19-.9-1.67-2.24-1.67a5.19,5.19,0,0,0-1.18.1Zm0,4.91a5.55,5.55,0,0,0,1.11.07c1.38,0,2.65-.5,2.65-2s-1.21-2-2.66-2h-1.1Z"/><path class="cls-3" d="M64.75,245h1.34v9.15h4.39v1.12H64.75Z"/><path class="cls-3" d="M77.27,250.49h-4v3.71h4.46v1.1H72V245H77.5v1.1H73.28v3.26h4Z"/><path class="cls-3" d="M80.78,245v6.09c0,2.29,1,3.26,2.4,3.26s2.5-1,2.5-3.26V245H87v6c0,3.16-1.66,4.45-3.88,4.45s-3.68-1.2-3.68-4.39V245Z"/><path class="cls-3" d="M92.55,245.17A12.19,12.19,0,0,1,95,245a4.17,4.17,0,0,1,2.82.75,2.18,2.18,0,0,1,.86,1.81,2.41,2.41,0,0,1-1.74,2.25v.05A2.62,2.62,0,0,1,99,252.38a2.7,2.7,0,0,1-.87,2.05,5.12,5.12,0,0,1-3.55,1,18.23,18.23,0,0,1-2.06-.11Zm1.32,4.21h1.22c1.39,0,2.21-.74,2.21-1.74,0-1.19-.9-1.67-2.25-1.67a5.33,5.33,0,0,0-1.18.1Zm0,4.91a5.66,5.66,0,0,0,1.12.07c1.38,0,2.65-.5,2.65-2s-1.21-2-2.66-2H93.87Z"/><path class="cls-3" d="M109.6,250.06c0,3.53-2.15,5.41-4.77,5.41s-4.62-2.11-4.62-5.21c0-3.26,2-5.4,4.76-5.4S109.6,247,109.6,250.06Zm-8,.17c0,2.19,1.19,4.16,3.28,4.16s3.29-1.93,3.29-4.27c0-2-1.06-4.18-3.27-4.18S101.62,248,101.62,250.23Z"/><path class="cls-3" d="M112.64,245v6.09c0,2.29,1,3.26,2.41,3.26s2.49-1,2.49-3.26V245h1.34v6c0,3.16-1.66,4.45-3.89,4.45s-3.68-1.2-3.68-4.39V245Z"/><path class="cls-3" d="M121.18,245.17a14.51,14.51,0,0,1,2.55-.22,4.28,4.28,0,0,1,3,.84,2.59,2.59,0,0,1,.81,2,2.72,2.72,0,0,1-1.94,2.62v0a2.6,2.6,0,0,1,1.5,2.08,16.81,16.81,0,0,0,.8,2.82H126.5a14.09,14.09,0,0,1-.68-2.46c-.3-1.4-.86-2-2.06-2h-1.25v4.45h-1.33Zm1.33,4.68h1.35c1.42,0,2.32-.78,2.32-1.95,0-1.34-1-1.92-2.36-1.92a5.58,5.58,0,0,0-1.31.12Z"/><path class="cls-3" d="M137.26,254.84a9.22,9.22,0,0,1-3.16.57,4.82,4.82,0,0,1-5.27-5.18c0-3.06,2.11-5.3,5.55-5.3a6.46,6.46,0,0,1,2.57.47l-.33,1.08a5.19,5.19,0,0,0-2.27-.44,3.84,3.84,0,0,0-4.12,4.13c0,2.6,1.56,4.14,4,4.14A4.2,4.2,0,0,0,136,254V251h-2.08v-1.06h3.38Z"/><path class="cls-3" d="M148.06,250.06c0,3.53-2.14,5.41-4.76,5.41s-4.62-2.11-4.62-5.21c0-3.26,2-5.4,4.76-5.4S148.06,247,148.06,250.06Zm-8,.17c0,2.19,1.2,4.16,3.29,4.16s3.29-1.93,3.29-4.27c0-2-1.07-4.18-3.27-4.18S140.08,248,140.08,250.23Z"/><path class="cls-3" d="M157.61,254.84a9.12,9.12,0,0,1-3.16.57,4.82,4.82,0,0,1-5.27-5.18c0-3.06,2.12-5.3,5.56-5.3a6.46,6.46,0,0,1,2.57.47l-.33,1.08a5.26,5.26,0,0,0-2.27-.44,3.84,3.84,0,0,0-4.13,4.13c0,2.6,1.56,4.14,4,4.14a4.18,4.18,0,0,0,1.76-.28V251h-2.08v-1.06h3.38Z"/><path class="cls-3" d="M159.63,255.3V245h1.46l3.29,5.19a29.38,29.38,0,0,1,1.83,3.35l0,0c-.12-1.37-.15-2.62-.15-4.21V245h1.25V255.3H166l-3.27-5.2a34.27,34.27,0,0,1-1.91-3.44h-.05c.08,1.3.1,2.54.1,4.24v4.39Z"/><path class="cls-3" d="M175,250.49h-4v3.71h4.45v1.1h-5.79V245h5.56v1.1H171v3.26h4Z"/><path class="cls-3" d="M0,275.73a2.08,2.08,0,0,0,1.46-.57c.37-.41.52-1,.52-2.76v-6.17H3.31v6.68a4.09,4.09,0,0,1-.88,3,3.47,3.47,0,0,1-2.29.84Zm3.47-11.59a.81.81,0,0,1-.85.84.84.84,0,0,1,0-1.67A.79.79,0,0,1,3.47,264.14Z"/><path class="cls-3" d="M12.19,269.84a3.62,3.62,0,0,1-3.67,3.93A3.51,3.51,0,0,1,5,270a3.6,3.6,0,0,1,3.66-3.91A3.49,3.49,0,0,1,12.19,269.84Zm-5.85.09c0,1.62.93,2.83,2.23,2.83s2.25-1.2,2.25-2.87c0-1.25-.63-2.83-2.22-2.83S6.34,268.53,6.34,269.93Z"/><path class="cls-3" d="M20.05,271.58c0,.78,0,1.44.06,2H18.92l-.07-1.21h0a2.75,2.75,0,0,1-2.44,1.38c-1.16,0-2.54-.65-2.54-3.23v-4.31h1.33v4.07c0,1.41.44,2.36,1.65,2.36a2,2,0,0,0,1.77-1.23,2,2,0,0,0,.12-.69v-4.51h1.34Z"/><path class="cls-3" d="M22.28,268.52c0-.87,0-1.61-.06-2.29H23.4l.05,1.44h0a2.24,2.24,0,0,1,2.06-1.61,1.45,1.45,0,0,1,.37,0v1.26a2.07,2.07,0,0,0-.46,0A1.87,1.87,0,0,0,23.67,269a3,3,0,0,0-.05.62v3.94H22.28Z"/><path class="cls-3" d="M27.33,268.22c0-.77,0-1.38-.06-2h1.18l.08,1.21h0A2.72,2.72,0,0,1,31,266.06c1,0,2.6.61,2.6,3.14v4.4H32.27v-4.25c0-1.19-.45-2.19-1.71-2.19a2,2,0,0,0-1.89,2v4.44H27.33Z"/><path class="cls-3" d="M39.88,273.6l-.12-.93h0a2.75,2.75,0,0,1-2.25,1.1,2.11,2.11,0,0,1-2.26-2.12c0-1.78,1.59-2.76,4.44-2.74v-.16a1.52,1.52,0,0,0-1.68-1.7,3.51,3.51,0,0,0-1.92.55l-.31-.89a4.59,4.59,0,0,1,2.43-.65c2.26,0,2.81,1.54,2.81,3v2.76a12,12,0,0,0,.11,1.76Zm-.21-3.77c-1.45,0-3.11.24-3.11,1.66a1.18,1.18,0,0,0,1.25,1.28,1.86,1.86,0,0,0,1.8-1.23,1.58,1.58,0,0,0,.06-.42Z"/><path class="cls-3" d="M43.14,262.78h1.34V273.6H43.14Z"/><path class="cls-3" d="M48.24,264.14a.81.81,0,0,1-.86.84.79.79,0,0,1-.8-.84.83.83,0,0,1,1.66,0Zm-1.5,9.46v-7.37h1.33v7.37Z"/><path class="cls-3" d="M50.12,272.23a3.56,3.56,0,0,0,1.77.53c1,0,1.44-.48,1.44-1.1s-.39-1-1.37-1.35c-1.34-.48-2-1.2-2-2.09a2.27,2.27,0,0,1,2.55-2.16,3.55,3.55,0,0,1,1.8.45l-.33,1a2.85,2.85,0,0,0-1.51-.44c-.79,0-1.22.46-1.22,1s.43.88,1.4,1.25c1.27.48,1.93,1.12,1.93,2.22,0,1.3-1,2.22-2.76,2.22a4.28,4.28,0,0,1-2.07-.51Z"/><path class="cls-3" d="M58,264.11v2.12h1.93v1H58v4c0,.91.27,1.43,1,1.43a2.91,2.91,0,0,0,.78-.09l.06,1a3.52,3.52,0,0,1-1.2.18,1.86,1.86,0,0,1-1.45-.57,2.81,2.81,0,0,1-.52-1.92v-4H55.5v-1h1.14v-1.78Z"/><path class="cls-3" d="M164.43,131.77h12.5a0,0,0,0,1,0,0v77.31a0,0,0,0,1,0,0H158.8a0,0,0,0,1,0,0V137.4a5.63,5.63,0,0,1,5.63-5.63Z" transform="translate(335.73 340.85) rotate(180)"/><line class="cls-4" x1="165.38" y1="234.82" x2="165.38" y2="209.08"/><line id="timelinebar" class="cls-1" x1="61.47" y1="131.41" x2="1017.69" y2="131.41"/><line class="cls-5" x1="200.04" y1="76.63" x2="200.04" y2="17.12"/><line class="cls-5" x1="284.79" y1="77.66" x2="284.79" y2="17.12"/><line class="cls-5" x1="367.18" y1="88.94" x2="367.18" y2="17.12"/><line class="cls-5" x1="538.13" y1="75.41" x2="538.13" y2="17.12"/><line class="cls-5" x1="622.95" y1="83.5" x2="622.95" y2="17.12"/><line class="cls-5" x1="707.77" y1="131.41" x2="707.77" y2="17.12"/><line class="cls-5" x1="792.59" y1="131.41" x2="792.59" y2="17.12"/><line class="cls-5" x1="877.4" y1="131.41" x2="877.4" y2="17.12"/><line class="cls-5" x1="116.46" y1="81.9" x2="116.46" y2="17.12"/><path class="cls-6" d="M99.78,8.83V8.1l.92-.89c2.22-2.11,3.22-3.23,3.23-4.54A1.55,1.55,0,0,0,102.21,1a3,3,0,0,0-1.84.74L100,.88A3.8,3.8,0,0,1,102.45,0a2.44,2.44,0,0,1,2.66,2.52c0,1.6-1.16,2.9-3,4.66l-.7.64v0h3.9v1Z"/><path class="cls-6" d="M112.39,4.39c0,3-1.09,4.58-3,4.58-1.7,0-2.85-1.59-2.87-4.46s1.25-4.51,3-4.51S112.39,1.63,112.39,4.39Zm-4.71.14c0,2.25.7,3.53,1.76,3.53,1.21,0,1.78-1.4,1.78-3.61S110.67.91,109.46.91C108.43.91,107.68,2.16,107.68,4.53Z"/><path class="cls-6" d="M116,1.24h0l-1.51.82-.23-.9,1.9-1h1V8.83H116Z"/><path class="cls-6" d="M126.09,4.39c0,3-1.1,4.58-3,4.58-1.69,0-2.84-1.59-2.87-4.46s1.26-4.51,3-4.51S126.09,1.63,126.09,4.39Zm-4.71.14c0,2.25.69,3.53,1.76,3.53s1.77-1.4,1.77-3.61S124.37.91,123.15.91C122.12.91,121.38,2.16,121.38,4.53Z"/><path class="cls-6" d="M185.26,8.83V8.1l.92-.89C188.4,5.1,189.4,4,189.41,2.67A1.55,1.55,0,0,0,187.69,1a3,3,0,0,0-1.84.74l-.38-.83A3.8,3.8,0,0,1,187.93,0a2.44,2.44,0,0,1,2.66,2.52c0,1.6-1.16,2.9-3,4.66l-.7.64v0h3.9v1Z"/><path class="cls-6" d="M197.88,4.39c0,3-1.1,4.58-3,4.58C193.16,9,192,7.38,192,4.51S193.24,0,195,0,197.88,1.63,197.88,4.39Zm-4.72.14c0,2.25.7,3.53,1.76,3.53,1.21,0,1.78-1.4,1.78-3.61S196.15.91,194.94.91C193.91.91,193.16,2.16,193.16,4.53Z"/><path class="cls-6" d="M201.5,1.24h0L200,2.06l-.23-.9,1.9-1h1V8.83H201.5Z"/><path class="cls-6" d="M208.35,1.24h0l-1.51.82-.23-.9,1.9-1h1V8.83h-1.14Z"/><path class="cls-6" d="M270.13,8.83V8.1l.92-.89c2.22-2.11,3.22-3.23,3.23-4.54A1.55,1.55,0,0,0,272.56,1a3,3,0,0,0-1.84.74l-.38-.83A3.8,3.8,0,0,1,272.8,0a2.44,2.44,0,0,1,2.66,2.52c0,1.6-1.17,2.9-3,4.66l-.7.64v0h3.9v1Z"/><path class="cls-6" d="M282.74,4.39c0,3-1.09,4.58-3,4.58-1.7,0-2.85-1.59-2.87-4.46s1.25-4.51,3-4.51S282.74,1.63,282.74,4.39ZM278,4.53c0,2.25.7,3.53,1.76,3.53s1.78-1.4,1.78-3.61S281,.91,279.81.91C278.78.91,278,2.16,278,4.53Z"/><path class="cls-6" d="M286.37,1.24h0l-1.51.82-.23-.9,1.9-1h1V8.83h-1.14Z"/><path class="cls-6" d="M290.67,8.83V8.1l.92-.89c2.22-2.11,3.22-3.23,3.23-4.54A1.55,1.55,0,0,0,293.1,1a3,3,0,0,0-1.84.74l-.38-.83A3.8,3.8,0,0,1,293.34,0,2.44,2.44,0,0,1,296,2.52c0,1.6-1.16,2.9-3,4.66l-.7.64v0h3.9v1Z"/><path class="cls-6" d="M353.46,8.83V8.1l.92-.89c2.21-2.11,3.21-3.23,3.23-4.54A1.56,1.56,0,0,0,355.88,1a3,3,0,0,0-1.84.74l-.37-.83A3.78,3.78,0,0,1,356.12,0a2.44,2.44,0,0,1,2.66,2.52c0,1.6-1.16,2.9-3,4.66l-.69.64v0H359v1Z"/><path class="cls-6" d="M366.07,4.39c0,3-1.09,4.58-3,4.58-1.69,0-2.84-1.59-2.87-4.46S361.44,0,363.2,0,366.07,1.63,366.07,4.39Zm-4.71.14c0,2.25.69,3.53,1.76,3.53s1.78-1.4,1.78-3.61S364.35.91,363.13.91C362.1.91,361.36,2.16,361.36,4.53Z"/><path class="cls-6" d="M369.7,1.24h0l-1.51.82-.22-.9,1.89-1h1V8.83H369.7Z"/><path class="cls-6" d="M374.28,7.48A3.93,3.93,0,0,0,376.2,8c1.51,0,2-1,2-1.68,0-1.21-1.11-1.73-2.24-1.73h-.66V3.72h.66c.85,0,1.94-.44,1.94-1.46,0-.7-.45-1.31-1.53-1.31a3.14,3.14,0,0,0-1.73.57l-.31-.85A4.05,4.05,0,0,1,376.56,0C378.27,0,379,1,379,2.07a2.15,2.15,0,0,1-1.6,2v0a2.26,2.26,0,0,1,1.94,2.23c0,1.39-1.08,2.6-3.17,2.6A4.28,4.28,0,0,1,374,8.38Z"/><path class="cls-6" d="M439.76,8.83V8.1l.93-.89C442.9,5.1,443.9,4,443.92,2.67A1.56,1.56,0,0,0,442.19,1a3,3,0,0,0-1.84.74L440,.88A3.78,3.78,0,0,1,442.43,0a2.44,2.44,0,0,1,2.66,2.52c0,1.6-1.16,2.9-3,4.66l-.69.64v0h3.89v1Z"/><path class="cls-6" d="M452.38,4.39c0,3-1.1,4.58-3,4.58-1.69,0-2.84-1.59-2.87-4.46s1.26-4.51,3-4.51S452.38,1.63,452.38,4.39Zm-4.71.14c0,2.25.69,3.53,1.76,3.53s1.77-1.4,1.77-3.61S450.66.91,449.44.91C448.41.91,447.67,2.16,447.67,4.53Z"/><path class="cls-6" d="M456,1.24h0l-1.51.82-.22-.9,1.89-1h1V8.83H456Z"/><path class="cls-6" d="M463.94,8.83V6.46h-4V5.69L463.78.15h1.27V5.54h1.21v.92h-1.21V8.83Zm0-3.29V2.64c0-.45,0-.9,0-1.36h0c-.27.51-.48.88-.72,1.28l-2.13,2.95v0Z"/><path class="cls-6" d="M525.4,8.83V8.1l.92-.89c2.21-2.11,3.21-3.23,3.23-4.54A1.55,1.55,0,0,0,527.83,1a3,3,0,0,0-1.85.74l-.37-.83A3.78,3.78,0,0,1,528.07,0a2.44,2.44,0,0,1,2.65,2.52c0,1.6-1.16,2.9-3,4.66l-.69.64v0h3.9v1Z"/><path class="cls-6" d="M538,4.39c0,3-1.09,4.58-3,4.58-1.69,0-2.84-1.59-2.87-4.46s1.26-4.51,3-4.51S538,1.63,538,4.39Zm-4.71.14c0,2.25.69,3.53,1.76,3.53s1.78-1.4,1.78-3.61S536.29.91,535.07.91C534,.91,533.3,2.16,533.3,4.53Z"/><path class="cls-6" d="M541.64,1.24h0l-1.51.82-.22-.9,1.89-1h1V8.83h-1.13Z"/><path class="cls-6" d="M551.12,1.13h-3.31l-.34,2.23a5.86,5.86,0,0,1,.71,0,3.66,3.66,0,0,1,1.87.47A2.47,2.47,0,0,1,551.29,6a3,3,0,0,1-3.23,3,4.19,4.19,0,0,1-2.16-.53l.29-.9a3.82,3.82,0,0,0,1.86.48,1.91,1.91,0,0,0,2.05-1.88c0-1.12-.76-1.92-2.49-1.92a9.12,9.12,0,0,0-1.21.09L547,.15h4.16Z"/><path class="cls-6" d="M608,8.83V8.1l.92-.89c2.21-2.11,3.21-3.23,3.23-4.54A1.55,1.55,0,0,0,610.42,1a3,3,0,0,0-1.85.74L608.2.88A3.78,3.78,0,0,1,610.66,0a2.43,2.43,0,0,1,2.65,2.52c0,1.6-1.16,2.9-3,4.66l-.69.64v0h3.9v1Z"/><path class="cls-6" d="M620.6,4.39c0,3-1.09,4.58-3,4.58-1.69,0-2.84-1.59-2.87-4.46S616,0,617.73,0,620.6,1.63,620.6,4.39Zm-4.71.14c0,2.25.69,3.53,1.76,3.53s1.78-1.4,1.78-3.61S618.88.91,617.66.91C616.64.91,615.89,2.16,615.89,4.53Z"/><path class="cls-6" d="M624.23,1.24h0l-1.5.82-.23-.9,1.89-1h1V8.83h-1.14Z"/><path class="cls-6" d="M633.48,1a4.06,4.06,0,0,0-.88.06,3.52,3.52,0,0,0-3,3.08h0a2.64,2.64,0,0,1,4.71,1.81A2.9,2.9,0,0,1,631.45,9c-1.85,0-3.07-1.44-3.07-3.7a5.48,5.48,0,0,1,1.47-3.91A4.68,4.68,0,0,1,632.63.08a6.11,6.11,0,0,1,.85-.07Zm-.33,5a1.77,1.77,0,0,0-1.79-2,1.92,1.92,0,0,0-1.68,1.07,1,1,0,0,0-.14.52c0,1.43.68,2.48,1.91,2.48C632.47,8.06,633.15,7.22,633.15,6Z"/><path class="cls-6" d="M692.8,8.83V8.1l.93-.89C695.94,5.1,696.94,4,697,2.67A1.56,1.56,0,0,0,695.23,1a3,3,0,0,0-1.84.74L693,.88A3.78,3.78,0,0,1,695.47,0a2.44,2.44,0,0,1,2.66,2.52c0,1.6-1.16,2.9-3,4.66l-.69.64v0h3.89v1Z"/><path class="cls-6" d="M705.42,4.39c0,3-1.1,4.58-3,4.58-1.69,0-2.84-1.59-2.87-4.46s1.26-4.51,3-4.51S705.42,1.63,705.42,4.39Zm-4.71.14c0,2.25.69,3.53,1.76,3.53s1.77-1.4,1.77-3.61S703.7.91,702.48.91C701.45.91,700.71,2.16,700.71,4.53Z"/><path class="cls-6" d="M709.05,1.24h0l-1.51.82-.22-.9,1.89-1h1V8.83h-1.13Z"/><path class="cls-6" d="M719,.15V.92L715.2,8.83H714l3.76-7.68v0h-4.24v-1Z"/><path class="cls-6" d="M779,8.83V8.1l.92-.89c2.21-2.11,3.22-3.23,3.23-4.54A1.55,1.55,0,0,0,781.4,1a3,3,0,0,0-1.85.74l-.37-.83A3.78,3.78,0,0,1,781.64,0a2.43,2.43,0,0,1,2.65,2.52c0,1.6-1.16,2.9-3,4.66l-.69.64v0h3.9v1Z"/><path class="cls-6" d="M791.58,4.39c0,3-1.09,4.58-3,4.58-1.69,0-2.84-1.59-2.87-4.46S787,0,788.71,0,791.58,1.63,791.58,4.39Zm-4.71.14c0,2.25.69,3.53,1.76,3.53s1.78-1.4,1.78-3.61S789.86.91,788.64.91C787.62.91,786.87,2.16,786.87,4.53Z"/><path class="cls-6" d="M795.21,1.24h0l-1.5.82-.23-.9,1.89-1h1V8.83h-1.14Z"/><path class="cls-6" d="M799.4,6.62a2.48,2.48,0,0,1,1.72-2.32v0a2.16,2.16,0,0,1-1.38-1.95A2.43,2.43,0,0,1,802.42,0a2.24,2.24,0,0,1,2.52,2.14,2.21,2.21,0,0,1-1.43,2v0a2.39,2.39,0,0,1,1.75,2.24,2.67,2.67,0,0,1-3,2.52C800.5,9,799.4,7.89,799.4,6.62Zm4.67,0c0-1.06-.73-1.56-1.9-1.9a1.89,1.89,0,0,0-1.57,1.79,1.61,1.61,0,0,0,1.74,1.66A1.57,1.57,0,0,0,804.07,6.57Zm-3.23-4.34c0,.87.66,1.33,1.66,1.6a1.7,1.7,0,0,0,1.32-1.57A1.35,1.35,0,0,0,802.35.84,1.38,1.38,0,0,0,800.84,2.23Z"/><path class="cls-6" d="M862.44,8.83V8.1l.92-.89c2.22-2.11,3.22-3.23,3.23-4.54A1.55,1.55,0,0,0,864.87,1a3,3,0,0,0-1.84.74l-.38-.83A3.8,3.8,0,0,1,865.11,0a2.44,2.44,0,0,1,2.66,2.52c0,1.6-1.17,2.9-3,4.66l-.7.64v0H868v1Z"/><path class="cls-6" d="M875.05,4.39c0,3-1.09,4.58-3,4.58-1.7,0-2.85-1.59-2.87-4.46s1.25-4.51,3-4.51S875.05,1.63,875.05,4.39Zm-4.71.14c0,2.25.7,3.53,1.76,3.53s1.78-1.4,1.78-3.61S873.33.91,872.12.91C871.09.91,870.34,2.16,870.34,4.53Z"/><path class="cls-6" d="M878.68,1.24h0l-1.51.82-.23-.9,1.9-1h1V8.83h-1.14Z"/><path class="cls-6" d="M883.66,8a5.52,5.52,0,0,0,1,0,3.34,3.34,0,0,0,1.81-.84,3.8,3.8,0,0,0,1.15-2.31h0a2.56,2.56,0,0,1-2,.93,2.51,2.51,0,0,1-2.56-2.66,3,3,0,0,1,3-3.08c1.78,0,2.87,1.44,2.87,3.66a5.5,5.5,0,0,1-1.49,4.07,4.33,4.33,0,0,1-2.53,1.16,5.47,5.47,0,0,1-1.08.07Zm.43-5a1.67,1.67,0,0,0,1.67,1.85,2,2,0,0,0,1.71-.91.85.85,0,0,0,.1-.43C887.57,2,887,.89,885.8.89,884.8.89,884.09,1.78,884.09,3Z"/><path class="cls-6" d="M947.73,8.83V8.1l.92-.89c2.22-2.11,3.22-3.23,3.23-4.54A1.55,1.55,0,0,0,950.16,1a3,3,0,0,0-1.84.74L948,.88A3.78,3.78,0,0,1,950.4,0a2.44,2.44,0,0,1,2.66,2.52c0,1.6-1.16,2.9-3,4.66l-.69.64v0h3.89v1Z"/><path class="cls-6" d="M960.35,4.39c0,3-1.1,4.58-3,4.58-1.7,0-2.84-1.59-2.87-4.46s1.25-4.51,3-4.51S960.35,1.63,960.35,4.39Zm-4.72.14c0,2.25.7,3.53,1.77,3.53s1.77-1.4,1.77-3.61S958.63.91,957.41.91C956.38.91,955.63,2.16,955.63,4.53Z"/><path class="cls-6" d="M961.43,8.83V8.1l.92-.89c2.21-2.11,3.22-3.23,3.23-4.54A1.55,1.55,0,0,0,963.86,1a3,3,0,0,0-1.85.74l-.37-.83A3.8,3.8,0,0,1,964.1,0a2.43,2.43,0,0,1,2.65,2.52c0,1.6-1.16,2.9-3,4.66l-.69.64v0H967v1Z"/><path class="cls-6" d="M974,4.39C974,7.34,973,9,971,9c-1.69,0-2.84-1.59-2.87-4.46s1.26-4.51,3-4.51S974,1.63,974,4.39Zm-4.71.14c0,2.25.69,3.53,1.76,3.53s1.78-1.4,1.78-3.61S972.32.91,971.1.91C970.08.91,969.33,2.16,969.33,4.53Z"/><path class="cls-7" d="M116.46,130.43V76.63H251.67c8.05,0,14.64,6,14.64,13.33v40.47"/><line class="cls-4" x1="181.59" y1="235.81" x2="1.69" y2="234.82"/><path class="cls-3" d="M192.83,131.77h20a0,0,0,0,1,0,0v77.31a0,0,0,0,1,0,0H187.21a0,0,0,0,1,0,0V137.4a5.63,5.63,0,0,1,5.63-5.63Z" transform="translate(400.08 340.85) rotate(180)"/><path class="cls-3" d="M246.28,131.77h20a0,0,0,0,1,0,0v77.31a0,0,0,0,1,0,0H240.65a0,0,0,0,1,0,0V137.4A5.63,5.63,0,0,1,246.28,131.77Z" transform="translate(506.96 340.85) rotate(180)"/><line class="cls-4" x1="198.08" y1="322.25" x2="198.08" y2="209.33"/><line class="cls-4" x1="266.31" y1="322.91" x2="154.38" y2="322.91"/><path class="cls-3" d="M153.43,333.53h1.34v9.15h4.39v1.12h-5.73Z"/><path class="cls-3" d="M166,339h-4v3.71h4.46v1.1h-5.79V333.53h5.55v1.1H162v3.26h4Z"/><path class="cls-3" d="M171.36,333.67a12.38,12.38,0,0,1,2.43-.22,4.23,4.23,0,0,1,2.82.74,2.21,2.21,0,0,1,.86,1.82,2.42,2.42,0,0,1-1.74,2.25v0a2.63,2.63,0,0,1,2.12,2.58,2.7,2.7,0,0,1-.88,2.05,5.1,5.1,0,0,1-3.55,1,18.39,18.39,0,0,1-2.06-.11Zm1.33,4.21h1.22c1.38,0,2.21-.74,2.21-1.74,0-1.19-.91-1.67-2.25-1.67a5.54,5.54,0,0,0-1.18.09Zm0,4.91a5.66,5.66,0,0,0,1.12.07c1.38,0,2.64-.51,2.64-2s-1.21-2-2.66-2h-1.1Z"/><path class="cls-3" d="M181,333.53V343.8h-1.33V333.53Z"/><path class="cls-3" d="M188.59,339h-4v3.71h4.45v1.1h-5.79V333.53h5.56v1.1h-4.22v3.26h4Z"/><path class="cls-3" d="M190.77,343.8V333.53h1.46l3.29,5.19a31.23,31.23,0,0,1,1.84,3.35l0,0c-.12-1.37-.14-2.62-.14-4.22v-4.3h1.25V343.8h-1.35l-3.27-5.21a32.21,32.21,0,0,1-1.91-3.44l0,0c.07,1.3.09,2.54.09,4.24v4.39Z"/><path class="cls-3" d="M204,333.65a15,15,0,0,1,2.55-.2,4.23,4.23,0,0,1,2.88.85,2.79,2.79,0,0,1,.91,2.15,3,3,0,0,1-.8,2.2,4.27,4.27,0,0,1-3.14,1.13,4.41,4.41,0,0,1-1.08-.1v4.12H204Zm1.32,5a3.93,3.93,0,0,0,1.1.12c1.61,0,2.58-.79,2.58-2.2s-1-2-2.42-2a6.6,6.6,0,0,0-1.26.1Z"/><path class="cls-3" d="M213.48,333.53v6.09c0,2.29,1,3.26,2.4,3.26s2.5-1,2.5-3.26v-6.09h1.33v6c0,3.16-1.66,4.45-3.89,4.45s-3.68-1.2-3.68-4.39v-6.05Z"/><path class="cls-3" d="M222,333.67a12.38,12.38,0,0,1,2.43-.22,4.23,4.23,0,0,1,2.82.74,2.21,2.21,0,0,1,.86,1.82,2.44,2.44,0,0,1-1.74,2.25v0a2.63,2.63,0,0,1,2.12,2.58,2.7,2.7,0,0,1-.88,2.05,5.1,5.1,0,0,1-3.55,1,18.39,18.39,0,0,1-2.06-.11Zm1.33,4.21h1.21c1.39,0,2.22-.74,2.22-1.74,0-1.19-.91-1.67-2.25-1.67a5.54,5.54,0,0,0-1.18.09Zm0,4.91a5.66,5.66,0,0,0,1.12.07c1.37,0,2.64-.51,2.64-2s-1.21-2-2.66-2h-1.1Z"/><path class="cls-3" d="M230.28,333.53h1.33v9.15H236v1.12h-5.72Z"/><path class="cls-3" d="M238.81,333.53V343.8h-1.34V333.53Z"/><path class="cls-3" d="M248.3,343.47a6.65,6.65,0,0,1-2.72.49,4.79,4.79,0,0,1-5.06-5.2,5.09,5.09,0,0,1,5.36-5.39,5.63,5.63,0,0,1,2.44.45L248,334.9a4.83,4.83,0,0,0-2.06-.42c-2.42,0-4,1.54-4,4.24,0,2.51,1.45,4.12,3.94,4.12a5.33,5.33,0,0,0,2.17-.43Z"/><path class="cls-3" d="M151.59,364.23a2.08,2.08,0,0,0,1.46-.57c.37-.41.52-1,.52-2.77v-6.16h1.33v6.68a4.1,4.1,0,0,1-.88,3,3.41,3.41,0,0,1-2.29.83Zm3.47-11.59a.83.83,0,1,1-1.66,0,.81.81,0,0,1,.84-.83A.8.8,0,0,1,155.06,352.64Z"/><path class="cls-3" d="M163.77,358.34a3.61,3.61,0,0,1-3.66,3.93,3.52,3.52,0,0,1-3.55-3.8,3.6,3.6,0,0,1,3.66-3.91A3.49,3.49,0,0,1,163.77,358.34Zm-5.84.09c0,1.61.92,2.83,2.23,2.83s2.25-1.2,2.25-2.87c0-1.25-.63-2.83-2.22-2.83S157.93,357,157.93,358.43Z"/><path class="cls-3" d="M171.64,360.08c0,.77,0,1.43.06,2h-1.19l-.07-1.21h0a2.75,2.75,0,0,1-2.44,1.38c-1.15,0-2.54-.65-2.54-3.24v-4.3h1.34v4.07c0,1.4.44,2.36,1.65,2.36a2,2,0,0,0,1.77-1.23,2,2,0,0,0,.12-.69v-4.51h1.34Z"/><path class="cls-3" d="M173.87,357c0-.87,0-1.61-.06-2.29H175l.06,1.44h0a2.24,2.24,0,0,1,2.06-1.61,1.45,1.45,0,0,1,.37,0v1.26a2.07,2.07,0,0,0-.46,0,1.87,1.87,0,0,0-1.79,1.71,3.13,3.13,0,0,0-.06.63v3.94h-1.33Z"/><path class="cls-3" d="M178.92,356.72c0-.77,0-1.38-.06-2H180l.08,1.21h0a2.74,2.74,0,0,1,2.44-1.38c1,0,2.6.61,2.6,3.14v4.4h-1.33v-4.25c0-1.19-.45-2.19-1.71-2.19a1.92,1.92,0,0,0-1.8,1.37,2,2,0,0,0-.1.63v4.44h-1.33Z"/><path class="cls-3" d="M191.47,362.1l-.12-.93h0a2.75,2.75,0,0,1-2.26,1.1,2.11,2.11,0,0,1-2.25-2.12c0-1.79,1.59-2.77,4.43-2.75v-.15a1.51,1.51,0,0,0-1.68-1.7,3.56,3.56,0,0,0-1.92.55l-.3-.9a4.66,4.66,0,0,1,2.43-.64c2.26,0,2.81,1.54,2.81,3v2.75a10.77,10.77,0,0,0,.11,1.77Zm-.21-3.77c-1.45,0-3.11.23-3.11,1.66a1.18,1.18,0,0,0,1.25,1.28,1.86,1.86,0,0,0,1.8-1.23,1.64,1.64,0,0,0,.06-.42Z"/><path class="cls-3" d="M194.73,351.27h1.33V362.1h-1.33Z"/><path class="cls-3" d="M199.83,352.64a.84.84,0,0,1-1.67,0,.82.82,0,0,1,.84-.83A.8.8,0,0,1,199.83,352.64Zm-1.5,9.46v-7.37h1.33v7.37Z"/><path class="cls-3" d="M201.71,360.73a3.56,3.56,0,0,0,1.77.53c1,0,1.44-.48,1.44-1.1s-.39-1-1.38-1.35c-1.33-.48-2-1.21-1.95-2.09a2.27,2.27,0,0,1,2.55-2.16,3.55,3.55,0,0,1,1.8.45l-.33,1a2.85,2.85,0,0,0-1.51-.44c-.79,0-1.22.46-1.22,1s.43.89,1.4,1.26c1.27.47,1.93,1.12,1.93,2.22,0,1.3-1,2.22-2.76,2.22a4.17,4.17,0,0,1-2.07-.52Z"/><path class="cls-3" d="M209.54,352.6v2.13h1.93v1h-1.93v4c0,.92.27,1.44,1,1.44a2.43,2.43,0,0,0,.77-.1l.06,1a3.19,3.19,0,0,1-1.19.19,1.89,1.89,0,0,1-1.45-.57,2.82,2.82,0,0,1-.52-1.92v-4h-1.14v-1h1.14V353Z"/><line class="cls-4" x1="251.1" y1="233.88" x2="251.1" y2="209.15"/><line class="cls-4" x1="346.47" y1="234.59" x2="227.79" y2="234.59"/><path class="cls-3" d="M228.94,245h5.54v1.1h-4.2v3.43h3.88v1.09h-3.88v4.65h-1.34Z"/><path class="cls-3" d="M236.37,245.17a14.51,14.51,0,0,1,2.55-.22,4.28,4.28,0,0,1,3,.84,2.58,2.58,0,0,1,.8,2,2.71,2.71,0,0,1-1.93,2.62v0a2.62,2.62,0,0,1,1.5,2.08,18.26,18.26,0,0,0,.79,2.82h-1.37a13.2,13.2,0,0,1-.68-2.46c-.3-1.4-.86-2-2.06-2h-1.26v4.45h-1.32Zm1.32,4.68h1.36c1.42,0,2.32-.78,2.32-1.95,0-1.34-1-1.92-2.36-1.92a5.68,5.68,0,0,0-1.32.12Z"/><path class="cls-3" d="M246.31,252.07l-1.06,3.23h-1.37L247.37,245H249l3.51,10.27h-1.42l-1.1-3.23Zm3.38-1-1-3c-.22-.67-.38-1.28-.53-1.87h0c-.15.6-.31,1.22-.51,1.85l-1,3Z"/><path class="cls-3" d="M254,255.3V245h1.46l3.29,5.19a29.38,29.38,0,0,1,1.83,3.35l0,0c-.12-1.37-.15-2.62-.15-4.21V245h1.25V255.3h-1.35l-3.26-5.2a34.27,34.27,0,0,1-1.91-3.44h-.05c.08,1.3.1,2.54.1,4.24v4.39Z"/><path class="cls-3" d="M271.19,255a6.59,6.59,0,0,1-2.71.49,4.8,4.8,0,0,1-5.07-5.2,5.11,5.11,0,0,1,5.37-5.39,5.61,5.61,0,0,1,2.43.45l-.32,1.08a4.88,4.88,0,0,0-2.07-.42c-2.41,0-4,1.54-4,4.24,0,2.51,1.45,4.12,3.94,4.12a5.53,5.53,0,0,0,2.18-.42Z"/><path class="cls-3" d="M278.17,250.49h-4v3.71h4.45v1.1h-5.79V245h5.56v1.1h-4.22v3.26h4Z"/><path class="cls-3" d="M290.77,255a6.65,6.65,0,0,1-2.72.49,4.79,4.79,0,0,1-5.06-5.2,5.1,5.1,0,0,1,5.36-5.39,5.63,5.63,0,0,1,2.44.45l-.33,1.08a4.83,4.83,0,0,0-2.06-.42c-2.42,0-4,1.54-4,4.24,0,2.51,1.45,4.12,3.94,4.12a5.51,5.51,0,0,0,2.17-.42Z"/><path class="cls-3" d="M293.76,245v6.09c0,2.29,1,3.26,2.4,3.26s2.5-1,2.5-3.26V245H300v6c0,3.16-1.66,4.45-3.89,4.45s-3.68-1.2-3.68-4.39V245Z"/><path class="cls-3" d="M302.29,245h1.34v9.15H308v1.12h-5.73Z"/><path class="cls-3" d="M310.11,246.15H307V245h7.61v1.12h-3.15v9.15h-1.33Z"/><path class="cls-3" d="M317.05,245v6.09c0,2.29,1,3.26,2.41,3.26s2.5-1,2.5-3.26V245h1.33v6c0,3.16-1.66,4.45-3.89,4.45s-3.68-1.2-3.68-4.39V245Z"/><path class="cls-3" d="M325.59,245.17a14.51,14.51,0,0,1,2.55-.22,4.28,4.28,0,0,1,3,.84,2.59,2.59,0,0,1,.81,2,2.72,2.72,0,0,1-1.94,2.62v0a2.63,2.63,0,0,1,1.51,2.08,16.15,16.15,0,0,0,.79,2.82h-1.38a14.09,14.09,0,0,1-.68-2.46c-.3-1.4-.86-2-2.06-2h-1.25v4.45h-1.33Zm1.33,4.68h1.35c1.42,0,2.32-.78,2.32-1.95,0-1.34-1-1.92-2.36-1.92a5.58,5.58,0,0,0-1.31.12Z"/><path class="cls-3" d="M339.11,250.49h-4v3.71h4.45v1.1h-5.79V245h5.56v1.1h-4.22v3.26h4Z"/><path class="cls-3" d="M227.1,275.73a2.08,2.08,0,0,0,1.46-.57c.37-.41.52-1,.52-2.76v-6.17h1.33v6.68a4.09,4.09,0,0,1-.88,3,3.47,3.47,0,0,1-2.29.84Zm3.47-11.59a.81.81,0,0,1-.85.84.8.8,0,0,1-.81-.84.81.81,0,0,1,.84-.83A.8.8,0,0,1,230.57,264.14Z"/><path class="cls-3" d="M239.28,269.84a3.61,3.61,0,0,1-3.66,3.93,3.52,3.52,0,0,1-3.55-3.8,3.6,3.6,0,0,1,3.66-3.91A3.49,3.49,0,0,1,239.28,269.84Zm-5.84.09c0,1.62.92,2.83,2.23,2.83s2.25-1.2,2.25-2.87c0-1.25-.63-2.83-2.22-2.83S233.44,268.53,233.44,269.93Z"/><path class="cls-3" d="M247.14,271.58c0,.78,0,1.44.07,2H246l-.07-1.21h0a2.75,2.75,0,0,1-2.44,1.38c-1.15,0-2.54-.65-2.54-3.23v-4.31h1.34v4.07c0,1.41.43,2.36,1.65,2.36a2,2,0,0,0,1.77-1.23,2,2,0,0,0,.12-.69v-4.51h1.33Z"/><path class="cls-3" d="M249.38,268.52c0-.87,0-1.61-.06-2.29h1.17l0,1.44h.05a2.24,2.24,0,0,1,2-1.61,1.53,1.53,0,0,1,.38,0v1.26a2.07,2.07,0,0,0-.46,0,1.87,1.87,0,0,0-1.79,1.72,3,3,0,0,0-.06.62v3.94h-1.33Z"/><path class="cls-3" d="M254.43,268.22c0-.77,0-1.38-.06-2h1.18l.08,1.21h0a2.74,2.74,0,0,1,2.44-1.38c1,0,2.6.61,2.6,3.14v4.4h-1.34v-4.25c0-1.19-.44-2.19-1.7-2.19a1.94,1.94,0,0,0-1.81,1.38,2.25,2.25,0,0,0-.09.62v4.44h-1.33Z"/><path class="cls-3" d="M267,273.6l-.12-.93h0a2.77,2.77,0,0,1-2.26,1.1,2.1,2.1,0,0,1-2.25-2.12c0-1.78,1.58-2.76,4.43-2.74v-.16a1.52,1.52,0,0,0-1.68-1.7,3.56,3.56,0,0,0-1.92.55l-.3-.89a4.57,4.57,0,0,1,2.43-.65c2.26,0,2.81,1.54,2.81,3v2.76a10.72,10.72,0,0,0,.11,1.76Zm-.21-3.77c-1.45,0-3.11.24-3.11,1.66a1.18,1.18,0,0,0,1.25,1.28,1.86,1.86,0,0,0,1.8-1.23,1.58,1.58,0,0,0,.06-.42Z"/><path class="cls-3" d="M270.24,262.78h1.33V273.6h-1.33Z"/><path class="cls-3" d="M275.33,264.14a.83.83,0,1,1-.82-.83A.79.79,0,0,1,275.33,264.14Zm-1.49,9.46v-7.37h1.33v7.37Z"/><path class="cls-3" d="M277.21,272.23a3.6,3.6,0,0,0,1.78.53c1,0,1.43-.48,1.43-1.1s-.39-1-1.37-1.35c-1.33-.48-2-1.2-2-2.09a2.28,2.28,0,0,1,2.56-2.16,3.55,3.55,0,0,1,1.8.45l-.33,1a2.91,2.91,0,0,0-1.51-.44c-.8,0-1.23.46-1.23,1s.44.88,1.4,1.25c1.27.48,1.93,1.12,1.94,2.22,0,1.3-1,2.22-2.76,2.22a4.25,4.25,0,0,1-2.07-.51Z"/><path class="cls-3" d="M285.05,264.11v2.12H287v1h-1.93v4c0,.91.27,1.43,1,1.43a2.83,2.83,0,0,0,.77-.09l.06,1a3.45,3.45,0,0,1-1.19.18,1.86,1.86,0,0,1-1.45-.57,2.81,2.81,0,0,1-.52-1.92v-4H282.6v-1h1.14v-1.78Z"/><path class="cls-3" d="M290.42,131.77h79.26a0,0,0,0,1,0,0v77.31a0,0,0,0,1,0,0H284.79a0,0,0,0,1,0,0V137.4A5.63,5.63,0,0,1,290.42,131.77Z" transform="translate(654.46 340.85) rotate(180)"/><line class="cls-4" x1="358.29" y1="321.65" x2="358.29" y2="209.33"/><line class="cls-4" x1="492.9" y1="323.57" x2="340.19" y2="322.25"/><path class="cls-3" d="M339.89,333.53h1.34v9.15h4.39v1.12h-5.73Z"/><path class="cls-3" d="M352.41,339h-4v3.71h4.46v1.1h-5.79V333.53h5.55v1.1h-4.22v3.26h4Z"/><path class="cls-3" d="M357.82,333.67a18.18,18.18,0,0,1,2.83-.22,5.88,5.88,0,0,1,4.16,1.29,4.68,4.68,0,0,1,1.45,3.67,5.44,5.44,0,0,1-1.48,4,6.35,6.35,0,0,1-4.54,1.48,21.1,21.1,0,0,1-2.42-.11Zm1.33,9.09a10.34,10.34,0,0,0,1.34.06c2.84,0,4.37-1.58,4.37-4.36,0-2.42-1.35-3.95-4.15-3.95a8.22,8.22,0,0,0-1.56.13Z"/><path class="cls-3" d="M369.43,340.57l-1.06,3.23H367l3.5-10.27h1.59l3.51,10.27h-1.42l-1.1-3.23Zm3.37-1-1-3c-.23-.67-.38-1.29-.53-1.88h0c-.15.6-.31,1.23-.51,1.86l-1,3Z"/><path class="cls-3" d="M378,333.53v6.09c0,2.29,1,3.26,2.4,3.26s2.5-1,2.5-3.26v-6.09h1.33v6c0,3.16-1.66,4.45-3.89,4.45s-3.68-1.2-3.68-4.39v-6.05Z"/><path class="cls-3" d="M386.53,333.65a15,15,0,0,1,2.55-.2,4.21,4.21,0,0,1,2.88.85,2.79,2.79,0,0,1,.91,2.15,3,3,0,0,1-.8,2.2,4.25,4.25,0,0,1-3.14,1.13,4.33,4.33,0,0,1-1.07-.1v4.12h-1.33Zm1.33,5a3.85,3.85,0,0,0,1.1.12c1.61,0,2.58-.79,2.58-2.2s-1-2-2.43-2a6.47,6.47,0,0,0-1.25.1Z"/><path class="cls-3" d="M396,333.53v4.3h5v-4.3h1.34V343.8h-1.34V339h-5v4.82h-1.34V333.53Z"/><path class="cls-3" d="M405.92,333.53V343.8h-1.34V333.53Z"/><path class="cls-3" d="M408.23,343.8V333.53h1.46l3.29,5.19a29.38,29.38,0,0,1,1.83,3.35l0,0c-.12-1.37-.14-2.62-.14-4.22v-4.3H416V343.8H414.6l-3.26-5.21a34.21,34.21,0,0,1-1.92-3.44l0,0c.08,1.3.1,2.54.1,4.24v4.39Z"/><path class="cls-3" d="M423.58,339h-4v3.71h4.46v1.1h-5.79V333.53h5.55v1.1h-4.22v3.26h4Zm-.25-7.79L421.38,333H420.3l1.41-1.78Z"/><path class="cls-3" d="M429,333.53h1.34v9.15h4.39v1.12H429Z"/><path class="cls-3" d="M437.52,333.53V343.8h-1.33V333.53Z"/><path class="cls-3" d="M439.83,333.67a12.38,12.38,0,0,1,2.43-.22,4.23,4.23,0,0,1,2.82.74,2.21,2.21,0,0,1,.86,1.82,2.44,2.44,0,0,1-1.74,2.25v0a2.63,2.63,0,0,1,2.12,2.58,2.7,2.7,0,0,1-.88,2.05,5.1,5.1,0,0,1-3.55,1,18.39,18.39,0,0,1-2.06-.11Zm1.33,4.21h1.22c1.38,0,2.21-.74,2.21-1.74,0-1.19-.91-1.67-2.25-1.67a5.54,5.54,0,0,0-1.18.09Zm0,4.91a5.66,5.66,0,0,0,1.12.07c1.38,0,2.64-.51,2.64-2s-1.21-2-2.66-2h-1.1Z"/><path class="cls-3" d="M453.41,339h-4v3.71h4.46v1.1H448.1V333.53h5.55v1.1h-4.22v3.26h4Zm-.25-7.79L451.22,333h-1.09l1.41-1.78Z"/><path class="cls-3" d="M455.6,333.67a13.61,13.61,0,0,1,2.55-.22,4.28,4.28,0,0,1,3,.84,2.6,2.6,0,0,1,.8,2,2.7,2.7,0,0,1-1.93,2.61v0a2.62,2.62,0,0,1,1.5,2.08,17.14,17.14,0,0,0,.79,2.82h-1.37a13.46,13.46,0,0,1-.68-2.46c-.3-1.4-.86-1.95-2.06-2h-1.26v4.45H455.6Zm1.32,4.68h1.36c1.42,0,2.32-.78,2.32-2s-1-1.91-2.36-1.91a6.54,6.54,0,0,0-1.32.11Z"/><path class="cls-3" d="M469.12,339h-4v3.71h4.46v1.1H463.8V333.53h5.56v1.1h-4.23v3.26h4Zm-.25-7.79L466.93,333h-1.09l1.41-1.78Z"/><path class="cls-3" d="M338.05,364.23a2.08,2.08,0,0,0,1.46-.57c.37-.41.51-1,.51-2.77v-6.16h1.34v6.68a4.1,4.1,0,0,1-.88,3,3.41,3.41,0,0,1-2.29.83Zm3.47-11.59a.8.8,0,0,1-.85.83.79.79,0,0,1-.81-.83.81.81,0,0,1,.84-.83A.8.8,0,0,1,341.52,352.64Z"/><path class="cls-3" d="M350.23,358.34a3.61,3.61,0,0,1-3.66,3.93,3.52,3.52,0,0,1-3.55-3.8,3.6,3.6,0,0,1,3.66-3.91A3.49,3.49,0,0,1,350.23,358.34Zm-5.84.09c0,1.61.92,2.83,2.23,2.83s2.25-1.2,2.25-2.87c0-1.25-.63-2.83-2.23-2.83S344.39,357,344.39,358.43Z"/><path class="cls-3" d="M358.09,360.08c0,.77,0,1.43.06,2H357l-.07-1.21h0a2.75,2.75,0,0,1-2.44,1.38c-1.15,0-2.54-.65-2.54-3.24v-4.3h1.34v4.07c0,1.4.43,2.36,1.64,2.36a2,2,0,0,0,1.78-1.23,2,2,0,0,0,.12-.69v-4.51h1.33Z"/><path class="cls-3" d="M360.33,357c0-.87,0-1.61-.06-2.29h1.17l.05,1.44h.05a2.23,2.23,0,0,1,2-1.61,1.53,1.53,0,0,1,.38,0v1.26a2.13,2.13,0,0,0-.46,0,1.88,1.88,0,0,0-1.8,1.71,4.13,4.13,0,0,0,0,.63v3.94h-1.33Z"/><path class="cls-3" d="M365.38,356.72c0-.77,0-1.38-.06-2h1.18l.07,1.21h0a2.72,2.72,0,0,1,2.44-1.38c1,0,2.6.61,2.6,3.14v4.4h-1.34v-4.25c0-1.19-.45-2.19-1.7-2.19A1.93,1.93,0,0,0,366.8,357a2.33,2.33,0,0,0-.09.63v4.44h-1.33Z"/><path class="cls-3" d="M377.93,362.1l-.12-.93h0a2.77,2.77,0,0,1-2.26,1.1,2.1,2.1,0,0,1-2.25-2.12c0-1.79,1.58-2.77,4.43-2.75v-.15a1.52,1.52,0,0,0-1.68-1.7,3.56,3.56,0,0,0-1.92.55l-.3-.9a4.66,4.66,0,0,1,2.43-.64c2.25,0,2.8,1.54,2.8,3v2.75a12,12,0,0,0,.11,1.77Zm-.21-3.77c-1.45,0-3.11.23-3.11,1.66a1.17,1.17,0,0,0,1.25,1.28,1.83,1.83,0,0,0,1.79-1.23,1.32,1.32,0,0,0,.07-.42Z"/><path class="cls-3" d="M381.19,351.27h1.33V362.1h-1.33Z"/><path class="cls-3" d="M386.28,352.64a.83.83,0,1,1-1.66,0,.81.81,0,0,1,.84-.83A.79.79,0,0,1,386.28,352.64Zm-1.49,9.46v-7.37h1.33v7.37Z"/><path class="cls-3" d="M388.16,360.73a3.6,3.6,0,0,0,1.78.53c1,0,1.43-.48,1.43-1.1s-.39-1-1.37-1.35c-1.33-.48-2-1.21-2-2.09a2.28,2.28,0,0,1,2.55-2.16,3.59,3.59,0,0,1,1.81.45l-.33,1a2.92,2.92,0,0,0-1.52-.44c-.79,0-1.22.46-1.22,1s.44.89,1.4,1.26c1.27.47,1.93,1.12,1.94,2.22,0,1.3-1,2.22-2.76,2.22a4.14,4.14,0,0,1-2.07-.52Z"/><path class="cls-3" d="M396,352.6v2.13h1.93v1H396v4c0,.92.26,1.44,1,1.44a2.5,2.5,0,0,0,.78-.1l.06,1a3.25,3.25,0,0,1-1.2.19,1.89,1.89,0,0,1-1.44-.57,2.82,2.82,0,0,1-.52-1.92v-4h-1.15v-1h1.15V353Z"/><path class="cls-7" d="M284.79,130.43V76.63h74.34c4.43,0,8.05,6,8.05,13.33v40.47"/><path class="cls-3" d="M385.74,131.84H509.55a0,0,0,0,1,0,0v77.31a0,0,0,0,1,0,0H380.11a0,0,0,0,1,0,0V137.47a5.63,5.63,0,0,1,5.63-5.63Z" transform="translate(889.66 340.99) rotate(180)"/><line class="cls-5" x1="452.04" y1="130.43" x2="452.04" y2="17.12"/><path class="cls-3" d="M521.91,131.84h12.5a0,0,0,0,1,0,0v77.31a0,0,0,0,1,0,0H516.28a0,0,0,0,1,0,0V137.47A5.63,5.63,0,0,1,521.91,131.84Z" transform="translate(1050.68 340.99) rotate(180)"/><line class="cls-4" x1="523.03" y1="233.8" x2="523.03" y2="209.07"/><line class="cls-4" x1="597.86" y1="235.81" x2="506.75" y2="234.81"/><path class="cls-3" d="M515.09,255a6.65,6.65,0,0,1-2.72.49,4.79,4.79,0,0,1-5.06-5.2,5.1,5.1,0,0,1,5.36-5.39,5.63,5.63,0,0,1,2.44.45l-.33,1.08a4.85,4.85,0,0,0-2.07-.42c-2.41,0-4,1.54-4,4.24,0,2.51,1.45,4.12,3.93,4.12a5.53,5.53,0,0,0,2.18-.42Z"/><path class="cls-3" d="M518.48,252.07l-1.06,3.23H516L519.53,245h1.6l3.51,10.27h-1.42l-1.1-3.23Zm3.37-1-1-3c-.22-.67-.37-1.28-.53-1.87h0c-.15.6-.31,1.22-.51,1.85l-1,3Z"/><path class="cls-3" d="M526.14,245.17A18,18,0,0,1,529,245a5.91,5.91,0,0,1,4.17,1.29,4.72,4.72,0,0,1,1.45,3.68,5.47,5.47,0,0,1-1.48,4,6.38,6.38,0,0,1-4.55,1.48,20.91,20.91,0,0,1-2.41-.11Zm1.33,9.09a10.34,10.34,0,0,0,1.34.06c2.84,0,4.37-1.58,4.37-4.35,0-2.43-1.35-4-4.15-4a8.22,8.22,0,0,0-1.56.13Z"/><path class="cls-3" d="M545.08,250.06c0,3.53-2.15,5.41-4.77,5.41s-4.61-2.11-4.61-5.21c0-3.26,2-5.4,4.75-5.4S545.08,247,545.08,250.06Zm-8,.17c0,2.19,1.19,4.16,3.29,4.16s3.29-1.93,3.29-4.27c0-2-1.07-4.18-3.28-4.18S537.1,248,537.1,250.23Z"/><path class="cls-3" d="M546.8,245h1.33v9.15h4.4v1.12H546.8Z"/><path class="cls-3" d="M559.31,250.49h-4v3.71h4.45v1.1H554V245h5.55v1.1h-4.22v3.26h4Z"/><path class="cls-3" d="M561.33,253.69a4.6,4.6,0,0,0,2.37.66c1.35,0,2.15-.71,2.15-1.75s-.56-1.51-1.94-2c-1.68-.59-2.72-1.48-2.72-2.91,0-1.6,1.33-2.79,3.33-2.79a4.67,4.67,0,0,1,2.27.5l-.37,1.08a4,4,0,0,0-1.94-.48c-1.41,0-2,.83-2,1.53,0,1,.63,1.43,2.05,2,1.74.69,2.62,1.53,2.62,3s-1.16,3-3.6,3a5.26,5.26,0,0,1-2.62-.67Z"/><path class="cls-3" d="M514.23,262.78v8.92c0,.65,0,1.39.06,1.9H513.1l-.07-1.27h0a2.7,2.7,0,0,1-2.5,1.44c-1.78,0-3.16-1.51-3.16-3.75,0-2.46,1.52-4,3.31-4a2.47,2.47,0,0,1,2.23,1.12h0v-4.4Zm-1.33,6.45a2.86,2.86,0,0,0-.06-.58,2,2,0,0,0-1.94-1.54c-1.39,0-2.22,1.22-2.22,2.84s.74,2.74,2.19,2.74a2,2,0,0,0,2-1.61,2.15,2.15,0,0,0,.07-.58Z"/><path class="cls-3" d="M517.22,270.16a2.34,2.34,0,0,0,2.52,2.55,5,5,0,0,0,2-.37l.24,1a6,6,0,0,1-2.46.47,3.44,3.44,0,0,1-3.63-3.72c0-2.24,1.31-4,3.47-4,2.4,0,3,2.11,3,3.47a3.41,3.41,0,0,1,0,.63Zm3.92-1a1.91,1.91,0,0,0-1.85-2.17,2.21,2.21,0,0,0-2.06,2.17Z"/><path class="cls-3" d="M524.62,266.23l1.45,4.13c.24.68.43,1.29.6,1.9h0c.17-.61.38-1.22.62-1.9l1.44-4.13h1.4l-2.9,7.37H526l-2.81-7.37Z"/><path class="cls-3" d="M532,270.16a2.34,2.34,0,0,0,2.52,2.55,5.08,5.08,0,0,0,2-.37l.23,1a5.93,5.93,0,0,1-2.45.47,3.44,3.44,0,0,1-3.63-3.72c0-2.24,1.31-4,3.47-4,2.4,0,3,2.11,3,3.47a4.61,4.61,0,0,1,0,.63Zm3.92-1a1.91,1.91,0,0,0-1.85-2.17,2.21,2.21,0,0,0-2.06,2.17Z"/><path class="cls-3" d="M538.92,262.78h1.34V273.6h-1.34Z"/><path class="cls-3" d="M549.2,269.84a3.62,3.62,0,0,1-3.67,3.93A3.51,3.51,0,0,1,542,270a3.6,3.6,0,0,1,3.66-3.91A3.49,3.49,0,0,1,549.2,269.84Zm-5.85.09c0,1.62.93,2.83,2.23,2.83s2.25-1.2,2.25-2.87c0-1.25-.63-2.83-2.22-2.83S543.35,268.53,543.35,269.93Z"/><path class="cls-3" d="M550.89,268.63c0-.94,0-1.71-.06-2.4H552l.07,1.25h0a2.88,2.88,0,0,1,2.62-1.42c1.78,0,3.13,1.5,3.13,3.74,0,2.66-1.63,4-3.35,4a2.59,2.59,0,0,1-2.28-1.16h0v4h-1.33Zm1.33,2a2.35,2.35,0,0,0,.06.54,2.06,2.06,0,0,0,2,1.58c1.42,0,2.24-1.17,2.24-2.86,0-1.47-.77-2.74-2.19-2.74a2.12,2.12,0,0,0-2,1.66,2,2,0,0,0-.09.54Z"/><path class="cls-3" d="M560.33,270.16a2.35,2.35,0,0,0,2.53,2.55,5.08,5.08,0,0,0,2-.37l.23,1a6,6,0,0,1-2.46.47,3.43,3.43,0,0,1-3.62-3.72c0-2.24,1.31-4,3.46-4,2.41,0,3,2.11,3,3.47a3.24,3.24,0,0,1,0,.63Zm3.93-1a1.91,1.91,0,0,0-1.85-2.17,2.21,2.21,0,0,0-2.06,2.17Z"/><path class="cls-3" d="M567.22,268.52c0-.87,0-1.61-.06-2.29h1.17l0,1.44h0a2.24,2.24,0,0,1,2.06-1.61,1.45,1.45,0,0,1,.37,0v1.26a2.07,2.07,0,0,0-.46,0,1.87,1.87,0,0,0-1.79,1.72,3,3,0,0,0-.06.62v3.94h-1.33Z"/><line class="cls-4" x1="481.96" y1="233.3" x2="481.96" y2="208.57"/><line class="cls-4" x1="495.13" y1="234.31" x2="376.44" y2="234.31"/><path class="cls-3" d="M377.59,242.75h1.34v9.15h4.39V253h-5.73Z"/><path class="cls-3" d="M390.11,248.21h-4v3.71h4.46V253h-5.79V242.75h5.55v1.11h-4.22v3.25h4Z"/><path class="cls-3" d="M404.19,248.51c-.07-1.42-.17-3.16-.16-4.43h0q-.53,1.78-1.29,3.9l-1.82,5h-1l-1.67-4.89c-.49-1.45-.89-2.77-1.18-4h0c0,1.28-.1,3-.2,4.53l-.27,4.41h-1.26l.71-10.27h1.7l1.75,5c.42,1.26.77,2.39,1,3.46h0c.27-1,.63-2.17,1.09-3.46l1.83-5h1.7l.64,10.27h-1.31Z"/><path class="cls-3" d="M409.12,242.75V253h-1.34V242.75Z"/><path class="cls-3" d="M411.43,242.89a14.51,14.51,0,0,1,2.55-.22,4.23,4.23,0,0,1,3,.85,2.59,2.59,0,0,1,.8,1.95,2.71,2.71,0,0,1-1.93,2.62v0a2.62,2.62,0,0,1,1.5,2.09,17.23,17.23,0,0,0,.79,2.81h-1.37a12.42,12.42,0,0,1-.68-2.46c-.3-1.4-.86-1.95-2.06-2h-1.26V253h-1.32Zm1.32,4.68h1.36c1.42,0,2.32-.78,2.32-1.95,0-1.34-1-1.92-2.36-1.92a5.68,5.68,0,0,0-1.32.12Z"/><path class="cls-3" d="M428.46,247.78c0,3.53-2.15,5.41-4.77,5.41s-4.61-2.11-4.61-5.21c0-3.26,2-5.4,4.75-5.4S428.46,244.73,428.46,247.78Zm-8,.17c0,2.2,1.19,4.16,3.29,4.16s3.29-1.93,3.29-4.27c0-2-1.07-4.18-3.28-4.18S420.48,245.7,420.48,248Z"/><path class="cls-3" d="M431.51,242.75V253h-1.33V242.75Z"/><path class="cls-3" d="M433.82,242.89a14.63,14.63,0,0,1,2.56-.22,4.22,4.22,0,0,1,3,.85,2.56,2.56,0,0,1,.81,1.95,2.71,2.71,0,0,1-1.94,2.62v0a2.61,2.61,0,0,1,1.51,2.09,17.23,17.23,0,0,0,.79,2.81h-1.38a13.51,13.51,0,0,1-.67-2.46c-.31-1.4-.86-1.95-2.06-2h-1.26V253h-1.33Zm1.33,4.68h1.36c1.42,0,2.32-.78,2.32-1.95,0-1.34-1-1.92-2.37-1.92a5.64,5.64,0,0,0-1.31.12Z"/><path class="cls-3" d="M453.93,248.51c-.08-1.42-.17-3.16-.17-4.43h0q-.53,1.78-1.29,3.9l-1.81,5h-1l-1.67-4.89c-.49-1.45-.89-2.77-1.18-4h0c0,1.28-.11,3-.2,4.53l-.28,4.41H445l.72-10.27h1.69l1.75,5c.43,1.26.77,2.39,1,3.46h0c.27-1,.63-2.17,1.08-3.46l1.84-5h1.69l.64,10.27h-1.3Z"/><path class="cls-3" d="M459,249.79,458,253h-1.38l3.5-10.27h1.59L465.19,253h-1.42l-1.1-3.23Zm3.38-1-1-3c-.22-.67-.38-1.28-.53-1.87h0c-.14.6-.3,1.23-.51,1.85l-1,3Z"/><path class="cls-3" d="M474.3,252.56a9.22,9.22,0,0,1-3.16.57,4.82,4.82,0,0,1-5.27-5.17c0-3.07,2.11-5.31,5.55-5.31a6.46,6.46,0,0,1,2.57.47l-.33,1.08a5.22,5.22,0,0,0-2.27-.44,3.84,3.84,0,0,0-4.13,4.13c0,2.6,1.57,4.14,4,4.14a4.11,4.11,0,0,0,1.76-.28v-3.06h-2.07v-1.06h3.38Z"/><path class="cls-3" d="M382.81,271.05a4.93,4.93,0,0,1-2.11.43,3.51,3.51,0,0,1-3.68-3.77,3.76,3.76,0,0,1,4-3.93,4.18,4.18,0,0,1,1.86.4l-.3,1a3.16,3.16,0,0,0-1.56-.36,2.78,2.78,0,0,0,0,5.55,4,4,0,0,0,1.65-.35Z"/><path class="cls-3" d="M391,267.56a3.62,3.62,0,0,1-3.67,3.93,3.51,3.51,0,0,1-3.54-3.8,3.6,3.6,0,0,1,3.66-3.91A3.49,3.49,0,0,1,391,267.56Zm-5.85.09c0,1.62.93,2.83,2.24,2.83s2.24-1.2,2.24-2.87c0-1.25-.63-2.82-2.22-2.82S385.12,266.25,385.12,267.65Z"/><path class="cls-3" d="M392.8,271.32V265h-1v-1h1v-.36a3.55,3.55,0,0,1,.85-2.58,2.57,2.57,0,0,1,1.8-.68,2.8,2.8,0,0,1,1.14.22l-.18,1a2,2,0,0,0-.86-.17c-1.13,0-1.43,1-1.43,2.14v.4h1.78v1h-1.77v6.36Z"/><path class="cls-3" d="M403.59,267.56a3.61,3.61,0,0,1-3.66,3.93,3.52,3.52,0,0,1-3.55-3.8,3.6,3.6,0,0,1,3.66-3.91A3.49,3.49,0,0,1,403.59,267.56Zm-5.84.09c0,1.62.92,2.83,2.23,2.83s2.25-1.2,2.25-2.87c0-1.25-.63-2.82-2.22-2.82S397.75,266.25,397.75,267.65Z"/><path class="cls-3" d="M411.45,269.3c0,.78,0,1.44.07,2h-1.19l-.07-1.2h0a2.76,2.76,0,0,1-2.44,1.37c-1.15,0-2.54-.65-2.54-3.23V264h1.34V268c0,1.41.43,2.36,1.64,2.36a2,2,0,0,0,1.78-1.23,2,2,0,0,0,.12-.69V264h1.33Z"/><path class="cls-3" d="M413.69,265.94c0-.77,0-1.38-.06-2h1.18l.08,1.21h0a2.72,2.72,0,0,1,2.43-1.38c1,0,2.6.61,2.6,3.14v4.4h-1.33v-4.25c0-1.19-.45-2.19-1.71-2.19a2,2,0,0,0-1.89,2v4.44h-1.34Z"/><path class="cls-3" d="M428.52,260.5v8.92c0,.65,0,1.39.06,1.9h-1.2l-.06-1.27h0a2.71,2.71,0,0,1-2.5,1.44c-1.79,0-3.16-1.51-3.16-3.75,0-2.46,1.51-4,3.31-4a2.45,2.45,0,0,1,2.22,1.12h0v-4.4ZM427.18,267a2.69,2.69,0,0,0-.05-.57,2,2,0,0,0-1.95-1.55c-1.38,0-2.21,1.22-2.21,2.84s.74,2.74,2.19,2.74a2,2,0,0,0,2-1.61,2.56,2.56,0,0,0,.06-.57Z"/><path class="cls-3" d="M431.5,267.88a2.36,2.36,0,0,0,2.53,2.56,5.09,5.09,0,0,0,2-.38l.23.95a6,6,0,0,1-2.46.47,3.44,3.44,0,0,1-3.63-3.72c0-2.23,1.32-4,3.47-4,2.41,0,3,2.11,3,3.47a3.24,3.24,0,0,1-.05.63Zm3.93-1a1.91,1.91,0,0,0-1.85-2.17,2.21,2.21,0,0,0-2.06,2.17Z"/><path class="cls-3" d="M438.39,266.24c0-.87,0-1.61-.06-2.29h1.17l.05,1.44h.05a2.25,2.25,0,0,1,2-1.61,1.53,1.53,0,0,1,.38,0v1.26a2.13,2.13,0,0,0-.46,0,1.87,1.87,0,0,0-1.79,1.72,3,3,0,0,0-.06.62v3.94h-1.33Z"/><path class="cls-3" d="M375.75,291.75a2.12,2.12,0,0,0,1.46-.57c.37-.42.52-1,.52-2.77v-6.17h1.33v6.69a4.1,4.1,0,0,1-.88,3,3.41,3.41,0,0,1-2.29.83Zm3.47-11.59a.83.83,0,1,1-1.66,0,.81.81,0,0,1,.84-.83A.8.8,0,0,1,379.22,280.16Z"/><path class="cls-3" d="M387.93,285.86a3.6,3.6,0,0,1-3.66,3.92,3.51,3.51,0,0,1-3.55-3.79,3.6,3.6,0,0,1,3.66-3.91A3.48,3.48,0,0,1,387.93,285.86Zm-5.84.09c0,1.61.92,2.83,2.23,2.83s2.25-1.2,2.25-2.87c0-1.25-.63-2.83-2.22-2.83S382.09,284.55,382.09,286Z"/><path class="cls-3" d="M395.8,287.6c0,.77,0,1.43.06,2h-1.19l-.07-1.21h0a2.76,2.76,0,0,1-2.44,1.37c-1.15,0-2.54-.64-2.54-3.23v-4.31h1.34v4.08c0,1.4.44,2.36,1.65,2.36a2,2,0,0,0,1.77-1.23,2.12,2.12,0,0,0,.12-.69v-4.52h1.34Z"/><path class="cls-3" d="M398,284.54c0-.87,0-1.61-.06-2.3h1.17l.06,1.45h0a2.24,2.24,0,0,1,2.06-1.61,2.13,2.13,0,0,1,.37,0v1.27a2.07,2.07,0,0,0-.46,0,1.87,1.87,0,0,0-1.79,1.71,3.13,3.13,0,0,0-.06.63v3.94H398Z"/><path class="cls-3" d="M403.08,284.24c0-.77,0-1.38-.06-2h1.18l.08,1.22h0a2.72,2.72,0,0,1,2.44-1.38c1,0,2.6.61,2.6,3.14v4.4H408v-4.25c0-1.2-.45-2.19-1.71-2.19a1.92,1.92,0,0,0-1.8,1.37,2,2,0,0,0-.1.62v4.45h-1.33Z"/><path class="cls-3" d="M415.63,289.62l-.12-.93h0a2.75,2.75,0,0,1-2.26,1.09,2.1,2.1,0,0,1-2.25-2.11c0-1.79,1.59-2.77,4.43-2.75v-.15a1.51,1.51,0,0,0-1.68-1.7,3.65,3.65,0,0,0-1.92.54l-.3-.89a4.66,4.66,0,0,1,2.43-.64c2.26,0,2.81,1.54,2.81,3v2.76a10.77,10.77,0,0,0,.11,1.77Zm-.21-3.77c-1.45,0-3.11.23-3.11,1.66a1.18,1.18,0,0,0,1.25,1.28,1.86,1.86,0,0,0,1.8-1.23,1.71,1.71,0,0,0,.06-.43Z"/><path class="cls-3" d="M418.89,278.79h1.33v10.83h-1.33Z"/><path class="cls-3" d="M424,280.16a.84.84,0,0,1-1.67,0,.82.82,0,0,1,.84-.83A.8.8,0,0,1,424,280.16Zm-1.5,9.46v-7.38h1.33v7.38Z"/><path class="cls-3" d="M425.87,288.25a3.66,3.66,0,0,0,1.77.53c1,0,1.44-.49,1.44-1.1s-.39-1-1.37-1.35c-1.34-.48-2-1.21-2-2.09a2.27,2.27,0,0,1,2.55-2.16,3.55,3.55,0,0,1,1.8.45l-.33,1a3,3,0,0,0-1.51-.43c-.79,0-1.22.46-1.22,1s.43.88,1.4,1.26c1.27.47,1.93,1.11,1.93,2.21,0,1.31-1,2.23-2.76,2.23a4.17,4.17,0,0,1-2.07-.52Z"/><path class="cls-3" d="M433.7,280.12v2.12h1.93v1H433.7v4c0,.92.27,1.44,1,1.44a2.43,2.43,0,0,0,.77-.1l.06,1a3.41,3.41,0,0,1-1.19.19,1.89,1.89,0,0,1-1.45-.57,2.82,2.82,0,0,1-.52-1.92v-4h-1.14v-1h1.14v-1.77Z"/><path class="cls-3" d="M610.45,131.84H623a0,0,0,0,1,0,0v77.31a0,0,0,0,1,0,0H604.82a0,0,0,0,1,0,0V137.47A5.63,5.63,0,0,1,610.45,131.84Z" transform="translate(1227.77 340.99) rotate(180)"/><path class="cls-3" d="M634.6,131.84h20a0,0,0,0,1,0,0v77.31a0,0,0,0,1,0,0H629a0,0,0,0,1,0,0V137.47A5.63,5.63,0,0,1,634.6,131.84Z" transform="translate(1283.61 340.99) rotate(180)"/><path class="cls-3" d="M668.78,131.84H952a0,0,0,0,1,0,0v77.31a0,0,0,0,1,0,0H663.15a0,0,0,0,1,0,0V137.47A5.63,5.63,0,0,1,668.78,131.84Z" transform="translate(1615.14 340.99) rotate(180)"/><line class="cls-4" x1="611.33" y1="319.1" x2="611.33" y2="206.78"/><line class="cls-4" x1="714.44" y1="322.91" x2="593.23" y2="319.95"/><path class="cls-3" d="M594.61,341.51,592,331.23h1.41l1.22,5.2c.3,1.29.57,2.56.76,3.55h0c.17-1,.49-2.24.84-3.56l1.38-5.19H599l1.26,5.21c.29,1.23.56,2.44.72,3.52h0c.21-1.12.49-2.27.81-3.55l1.36-5.18h1.36l-2.91,10.28h-1.39L599,336.16a29.86,29.86,0,0,1-.68-3.36h0a29.12,29.12,0,0,1-.79,3.36L596,341.51Z"/><path class="cls-3" d="M611.15,336.69h-4v3.71h4.46v1.11h-5.79V331.23h5.55v1.11h-4.22v3.25h4Z"/><path class="cls-3" d="M613.33,331.37a18.18,18.18,0,0,1,2.83-.22,5.88,5.88,0,0,1,4.16,1.29,4.68,4.68,0,0,1,1.45,3.68,5.45,5.45,0,0,1-1.48,4,6.4,6.4,0,0,1-4.54,1.48,20.74,20.74,0,0,1-2.42-.12Zm1.34,9.09a8.61,8.61,0,0,0,1.33.06c2.84,0,4.38-1.57,4.38-4.35,0-2.43-1.36-4-4.16-4a7.16,7.16,0,0,0-1.55.14Z"/><path class="cls-3" d="M632.27,336.27c0,3.52-2.15,5.4-4.76,5.4s-4.62-2.11-4.62-5.21c0-3.26,2-5.4,4.76-5.4S632.27,333.21,632.27,336.27Zm-8,.16c0,2.2,1.2,4.16,3.29,4.16s3.29-1.93,3.29-4.27c0-2-1.07-4.18-3.28-4.18S624.29,334.18,624.29,336.43Z"/><path class="cls-3" d="M634,331.37a18.15,18.15,0,0,1,2.82-.22,5.89,5.89,0,0,1,4.17,1.29,4.68,4.68,0,0,1,1.45,3.68,5.45,5.45,0,0,1-1.48,4,6.41,6.41,0,0,1-4.54,1.48,20.74,20.74,0,0,1-2.42-.12Zm1.33,9.09a8.81,8.81,0,0,0,1.34.06c2.84,0,4.37-1.57,4.37-4.35,0-2.43-1.35-4-4.15-4a7.33,7.33,0,0,0-1.56.14Z"/><path class="cls-3" d="M645.6,338.28l-1.06,3.23h-1.38l3.5-10.28h1.59l3.51,10.28h-1.42l-1.1-3.23Zm3.37-1-1-3c-.23-.67-.38-1.28-.53-1.87h0c-.15.6-.31,1.23-.51,1.85l-1,3Z"/><path class="cls-3" d="M654.05,332.35h-3.13v-1.12h7.61v1.12h-3.15v9.16h-1.33Z"/><path class="cls-3" d="M660.19,338.28l-1.06,3.23h-1.38l3.5-10.28h1.59l3.51,10.28h-1.42l-1.1-3.23Zm3.37-1-1-3c-.23-.67-.38-1.28-.53-1.87h0c-.15.6-.31,1.23-.51,1.85l-1,3Z"/><path class="cls-3" d="M599.26,349v8.92c0,.66,0,1.39.06,1.9h-1.2l-.06-1.27h0a2.71,2.71,0,0,1-2.5,1.44c-1.79,0-3.16-1.51-3.16-3.75,0-2.46,1.51-4,3.31-4a2.45,2.45,0,0,1,2.22,1.12h0V349Zm-1.34,6.45a2.69,2.69,0,0,0,0-.57,2,2,0,0,0-2-1.55c-1.38,0-2.21,1.22-2.21,2.84s.74,2.74,2.19,2.74a2,2,0,0,0,2-1.61,2.49,2.49,0,0,0,.06-.57Z"/><path class="cls-3" d="M605.58,359.8l-.12-.93h0a2.72,2.72,0,0,1-2.25,1.1,2.11,2.11,0,0,1-2.26-2.12c0-1.78,1.59-2.76,4.43-2.74V355a1.51,1.51,0,0,0-1.67-1.7,3.6,3.6,0,0,0-1.92.55l-.31-.89a4.58,4.58,0,0,1,2.44-.65c2.25,0,2.8,1.54,2.8,3V358a11.77,11.77,0,0,0,.11,1.76Zm-.21-3.76c-1.45,0-3.11.23-3.11,1.65a1.19,1.19,0,0,0,1.25,1.29,1.85,1.85,0,0,0,1.8-1.24,1.58,1.58,0,0,0,.06-.42Z"/><path class="cls-3" d="M610.39,350.31v2.12h1.93v1h-1.93v4c0,.92.26,1.44,1,1.44a2.84,2.84,0,0,0,.78-.1l.06,1a3.52,3.52,0,0,1-1.2.18,1.85,1.85,0,0,1-1.44-.57,2.79,2.79,0,0,1-.52-1.92v-4h-1.15v-1h1.15v-1.78Z"/><path class="cls-3" d="M617.91,359.8l-.11-.93h0a2.74,2.74,0,0,1-2.26,1.1,2.1,2.1,0,0,1-2.25-2.12c0-1.78,1.58-2.76,4.43-2.74V355a1.52,1.52,0,0,0-1.68-1.7,3.63,3.63,0,0,0-1.92.55l-.3-.89a4.57,4.57,0,0,1,2.43-.65c2.25,0,2.8,1.54,2.8,3V358a11.77,11.77,0,0,0,.11,1.76Zm-.2-3.76c-1.46,0-3.12.23-3.12,1.65a1.19,1.19,0,0,0,1.25,1.29,1.83,1.83,0,0,0,1.8-1.24,1.28,1.28,0,0,0,.07-.42Z"/><path class="cls-3" d="M619.37,361.93a2.12,2.12,0,0,0,1.46-.56c.37-.42.52-1,.52-2.77v-6.17h1.33v6.68a4.07,4.07,0,0,1-.88,3,3.42,3.42,0,0,1-2.29.84Zm3.47-11.58a.83.83,0,1,1-1.66,0,.82.82,0,0,1,.84-.84A.8.8,0,0,1,622.84,350.35Z"/><path class="cls-3" d="M631.55,356a3.61,3.61,0,0,1-3.66,3.93,3.52,3.52,0,0,1-3.55-3.8,3.6,3.6,0,0,1,3.66-3.91A3.49,3.49,0,0,1,631.55,356Zm-5.84.09c0,1.62.92,2.83,2.23,2.83s2.25-1.2,2.25-2.87c0-1.25-.63-2.82-2.22-2.82S625.71,354.73,625.71,356.13Z"/><path class="cls-3" d="M639.42,357.78c0,.78,0,1.44.06,2h-1.19l-.07-1.2h0a2.76,2.76,0,0,1-2.44,1.37c-1.15,0-2.54-.65-2.54-3.23v-4.31h1.34v4.07c0,1.41.43,2.36,1.65,2.36a2,2,0,0,0,1.77-1.23,2,2,0,0,0,.12-.68v-4.52h1.34Z"/><path class="cls-3" d="M641.65,354.73c0-.87,0-1.62-.06-2.3h1.17l0,1.45h.05a2.25,2.25,0,0,1,2.06-1.62,1.45,1.45,0,0,1,.37,0v1.26a2.07,2.07,0,0,0-.46,0,1.87,1.87,0,0,0-1.79,1.72,3.11,3.11,0,0,0-.06.62v3.94h-1.33Z"/><path class="cls-3" d="M646.7,354.42c0-.77,0-1.38-.06-2h1.18l.08,1.21h0a2.74,2.74,0,0,1,2.44-1.38c1,0,2.6.61,2.6,3.14v4.4h-1.34v-4.25c0-1.19-.44-2.19-1.7-2.19a2,2,0,0,0-1.81,1.38,2.25,2.25,0,0,0-.09.62v4.44H646.7Z"/><path class="cls-3" d="M659.25,359.8l-.12-.93h0a2.74,2.74,0,0,1-2.26,1.1,2.1,2.1,0,0,1-2.25-2.12c0-1.78,1.59-2.76,4.43-2.74V355a1.52,1.52,0,0,0-1.68-1.7,3.65,3.65,0,0,0-1.92.55l-.3-.89a4.57,4.57,0,0,1,2.43-.65c2.26,0,2.81,1.54,2.81,3V358a10.57,10.57,0,0,0,.11,1.76ZM659,356c-1.45,0-3.11.23-3.11,1.65a1.19,1.19,0,0,0,1.25,1.29,1.85,1.85,0,0,0,1.8-1.24,1.58,1.58,0,0,0,.06-.42Z"/><path class="cls-3" d="M662.51,349h1.33V359.8h-1.33Z"/><path class="cls-3" d="M667.61,350.35a.84.84,0,0,1-1.67,0,.83.83,0,0,1,.84-.84A.81.81,0,0,1,667.61,350.35Zm-1.5,9.45v-7.37h1.33v7.37Z"/><path class="cls-3" d="M669.49,358.44a3.63,3.63,0,0,0,1.77.52c1,0,1.43-.48,1.43-1.1s-.39-1-1.37-1.35c-1.33-.48-2-1.2-2-2.09a2.28,2.28,0,0,1,2.55-2.16,3.45,3.45,0,0,1,1.8.46l-.33,1a2.92,2.92,0,0,0-1.51-.43c-.8,0-1.22.45-1.22,1s.43.88,1.39,1.26c1.28.47,1.94,1.11,1.94,2.21,0,1.31-1,2.22-2.76,2.22a4.25,4.25,0,0,1-2.07-.51Z"/><path class="cls-3" d="M677.32,350.31v2.12h1.93v1h-1.93v4c0,.92.27,1.44,1,1.44a2.76,2.76,0,0,0,.77-.1l.06,1A3.45,3.45,0,0,1,678,360a1.86,1.86,0,0,1-1.45-.57,2.79,2.79,0,0,1-.52-1.92v-4h-1.14v-1H676v-1.78Z"/><line class="cls-4" x1="639.61" y1="233.8" x2="639.61" y2="209.07"/><line class="cls-4" x1="714.44" y1="235.81" x2="623.33" y2="234.81"/><path class="cls-3" d="M624.49,245h1.33v9.15h4.39v1.12h-5.72Z"/><path class="cls-3" d="M633,245V255.3h-1.34V245Z"/><path class="cls-3" d="M635.33,245.17a12.19,12.19,0,0,1,2.42-.22,4.17,4.17,0,0,1,2.82.75,2.18,2.18,0,0,1,.86,1.81,2.41,2.41,0,0,1-1.74,2.25v.05a2.62,2.62,0,0,1,2.12,2.57,2.7,2.7,0,0,1-.88,2.05,5.07,5.07,0,0,1-3.54,1,18.23,18.23,0,0,1-2.06-.11Zm1.32,4.21h1.22c1.39,0,2.21-.74,2.21-1.74,0-1.19-.9-1.67-2.25-1.67a5.33,5.33,0,0,0-1.18.1Zm0,4.91a5.66,5.66,0,0,0,1.12.07c1.38,0,2.64-.5,2.64-2s-1.21-2-2.65-2h-1.11Z"/><path class="cls-3" d="M648.91,250.49h-4v3.71h4.46v1.1h-5.79V245h5.55v1.1h-4.22v3.26h4Zm-.25-7.79-1.95,1.78h-1.08L647,242.7Z"/><path class="cls-3" d="M651.09,245.17a14.51,14.51,0,0,1,2.55-.22,4.28,4.28,0,0,1,3,.84,2.59,2.59,0,0,1,.81,2,2.72,2.72,0,0,1-1.94,2.62v0a2.63,2.63,0,0,1,1.51,2.08,16.15,16.15,0,0,0,.79,2.82h-1.38a14.09,14.09,0,0,1-.68-2.46c-.3-1.4-.86-2-2.06-2h-1.25v4.45h-1.33Zm1.33,4.68h1.35c1.42,0,2.32-.78,2.32-1.95,0-1.34-1-1.92-2.36-1.92a5.58,5.58,0,0,0-1.31.12Z"/><path class="cls-3" d="M661,252.07,660,255.3H658.6L662.09,245h1.6l3.51,10.27h-1.42l-1.1-3.23Zm3.37-1-1-3c-.22-.67-.37-1.28-.53-1.87h0c-.15.6-.31,1.22-.51,1.85l-1,3Z"/><path class="cls-3" d="M669.49,246.15h-3.13V245H674v1.12h-3.15v9.15h-1.33Z"/><path class="cls-3" d="M676.44,245V255.3H675.1V245Z"/><path class="cls-3" d="M687.54,250.06c0,3.53-2.15,5.41-4.77,5.41s-4.62-2.11-4.62-5.21c0-3.26,2-5.4,4.76-5.4S687.54,247,687.54,250.06Zm-8,.17c0,2.19,1.2,4.16,3.29,4.16s3.29-1.93,3.29-4.27c0-2-1.07-4.18-3.27-4.18S679.55,248,679.55,250.23Z"/><path class="cls-3" d="M689.25,255.3V245h1.46l3.29,5.19a31.23,31.23,0,0,1,1.84,3.35l0,0c-.12-1.37-.14-2.62-.14-4.21V245H697V255.3h-1.35l-3.27-5.2a34.27,34.27,0,0,1-1.91-3.44h0c.07,1.3.09,2.54.09,4.24v4.39Z"/><path class="cls-3" d="M630.81,262.78v8.92c0,.65,0,1.39.06,1.9h-1.19l-.07-1.27h0a2.7,2.7,0,0,1-2.5,1.44c-1.78,0-3.16-1.51-3.16-3.75,0-2.46,1.52-4,3.31-4a2.47,2.47,0,0,1,2.23,1.12h0v-4.4Zm-1.33,6.45a2.86,2.86,0,0,0-.06-.58,2,2,0,0,0-1.94-1.54c-1.39,0-2.22,1.22-2.22,2.84s.74,2.74,2.19,2.74a2,2,0,0,0,2-1.61,2.15,2.15,0,0,0,.07-.58Z"/><path class="cls-3" d="M637.13,273.6l-.12-.93h0a2.73,2.73,0,0,1-2.25,1.1,2.1,2.1,0,0,1-2.25-2.12c0-1.78,1.58-2.76,4.43-2.74v-.16a1.52,1.52,0,0,0-1.68-1.7,3.54,3.54,0,0,0-1.92.55l-.3-.89a4.57,4.57,0,0,1,2.43-.65c2.25,0,2.8,1.54,2.8,3v2.76a12,12,0,0,0,.11,1.76Zm-.21-3.77c-1.45,0-3.11.24-3.11,1.66a1.18,1.18,0,0,0,1.25,1.28,1.84,1.84,0,0,0,1.8-1.23,1.26,1.26,0,0,0,.06-.42Z"/><path class="cls-3" d="M641.94,264.11v2.12h1.93v1h-1.93v4c0,.91.27,1.43,1,1.43a2.83,2.83,0,0,0,.77-.09l.06,1a3.45,3.45,0,0,1-1.19.18,1.86,1.86,0,0,1-1.45-.57,2.81,2.81,0,0,1-.52-1.92v-4h-1.14v-1h1.14v-1.78Z"/><path class="cls-3" d="M649.47,273.6l-.12-.93h0a2.77,2.77,0,0,1-2.26,1.1,2.1,2.1,0,0,1-2.25-2.12c0-1.78,1.58-2.76,4.43-2.74v-.16a1.52,1.52,0,0,0-1.68-1.7,3.56,3.56,0,0,0-1.92.55l-.3-.89a4.57,4.57,0,0,1,2.43-.65c2.26,0,2.8,1.54,2.8,3v2.76a10.66,10.66,0,0,0,.12,1.76Zm-.21-3.77c-1.45,0-3.11.24-3.11,1.66a1.18,1.18,0,0,0,1.25,1.28,1.83,1.83,0,0,0,1.79-1.23,1.28,1.28,0,0,0,.07-.42Z"/><path class="cls-3" d="M650.92,275.73a2.06,2.06,0,0,0,1.46-.57c.37-.41.52-1,.52-2.76v-6.17h1.33v6.68a4.09,4.09,0,0,1-.88,3,3.47,3.47,0,0,1-2.29.84Zm3.47-11.59a.83.83,0,1,1-1.66,0,.82.82,0,0,1,.85-.83A.79.79,0,0,1,654.39,264.14Z"/><path class="cls-3" d="M663.11,269.84a3.62,3.62,0,0,1-3.67,3.93,3.51,3.51,0,0,1-3.54-3.8,3.6,3.6,0,0,1,3.66-3.91A3.49,3.49,0,0,1,663.11,269.84Zm-5.85.09c0,1.62.93,2.83,2.24,2.83s2.24-1.2,2.24-2.87c0-1.25-.63-2.83-2.22-2.83S657.26,268.53,657.26,269.93Z"/><path class="cls-3" d="M671,271.58c0,.78,0,1.44.06,2h-1.19l-.07-1.21h0a2.75,2.75,0,0,1-2.44,1.38c-1.16,0-2.54-.65-2.54-3.23v-4.31h1.33v4.07c0,1.41.44,2.36,1.65,2.36a2,2,0,0,0,1.77-1.23,2,2,0,0,0,.12-.69v-4.51H671Z"/><path class="cls-3" d="M673.2,268.52c0-.87,0-1.61-.06-2.29h1.18l0,1.44h0a2.22,2.22,0,0,1,2.05-1.61,1.45,1.45,0,0,1,.37,0v1.26a2.07,2.07,0,0,0-.46,0,1.87,1.87,0,0,0-1.79,1.72,3.89,3.89,0,0,0-.05.62v3.94H673.2Z"/><path class="cls-3" d="M678.25,268.22c0-.77,0-1.38-.06-2h1.19l.07,1.21h0a2.72,2.72,0,0,1,2.43-1.38c1,0,2.6.61,2.6,3.14v4.4h-1.33v-4.25c0-1.19-.45-2.19-1.71-2.19a2,2,0,0,0-1.89,2v4.44h-1.34Z"/><path class="cls-3" d="M690.8,273.6l-.12-.93h0a2.75,2.75,0,0,1-2.25,1.1,2.1,2.1,0,0,1-2.25-2.12c0-1.78,1.58-2.76,4.43-2.74v-.16a1.52,1.52,0,0,0-1.68-1.7,3.51,3.51,0,0,0-1.92.55l-.31-.89a4.6,4.6,0,0,1,2.44-.65c2.25,0,2.8,1.54,2.8,3v2.76a12,12,0,0,0,.11,1.76Zm-.21-3.77c-1.45,0-3.11.24-3.11,1.66a1.18,1.18,0,0,0,1.25,1.28,1.85,1.85,0,0,0,1.8-1.23,1.26,1.26,0,0,0,.06-.42Z"/><path class="cls-3" d="M694.06,262.78h1.34V273.6h-1.34Z"/><path class="cls-3" d="M699.16,264.14a.81.81,0,0,1-.85.84.8.8,0,0,1-.81-.84.81.81,0,0,1,.83-.83A.8.8,0,0,1,699.16,264.14Zm-1.5,9.46v-7.37H699v7.37Z"/><path class="cls-3" d="M701,272.23a3.57,3.57,0,0,0,1.78.53c1,0,1.43-.48,1.43-1.1s-.39-1-1.37-1.35c-1.33-.48-2-1.2-2-2.09a2.27,2.27,0,0,1,2.55-2.16,3.52,3.52,0,0,1,1.8.45l-.33,1a2.85,2.85,0,0,0-1.51-.44c-.79,0-1.22.46-1.22,1s.43.88,1.4,1.25c1.27.48,1.93,1.12,1.93,2.22,0,1.3-1,2.22-2.75,2.22a4.29,4.29,0,0,1-2.08-.51Z"/><path class="cls-3" d="M708.88,264.11v2.12h1.92v1h-1.92v4c0,.91.26,1.43,1,1.43a2.91,2.91,0,0,0,.78-.09l.06,1a3.52,3.52,0,0,1-1.2.18,1.86,1.86,0,0,1-1.45-.57,2.81,2.81,0,0,1-.52-1.92v-4h-1.14v-1h1.14v-1.78Z"/><line class="cls-4" x1="785.12" y1="233.81" x2="785.12" y2="209.08"/><line class="cls-4" x1="887.52" y1="235.32" x2="768.84" y2="234.81"/><path class="cls-3" d="M771.66,255.31,769.06,245h1.41l1.22,5.2c.3,1.29.57,2.56.75,3.55h0c.17-1,.49-2.24.84-3.56L774.7,245h1.37l1.26,5.21c.28,1.23.56,2.44.72,3.52h0c.21-1.12.49-2.27.81-3.55l1.36-5.18h1.36l-2.91,10.28h-1.39L776,250a29.86,29.86,0,0,1-.68-3.36h0a29.12,29.12,0,0,1-.79,3.36l-1.46,5.35Z"/><path class="cls-3" d="M788.21,250.49h-4v3.71h4.46v1.11h-5.79V245h5.55v1.11h-4.22v3.25h4Z"/><path class="cls-3" d="M790.39,245.17a18,18,0,0,1,2.82-.22,5.91,5.91,0,0,1,4.17,1.29,4.75,4.75,0,0,1,1.45,3.68,5.49,5.49,0,0,1-1.48,4,6.42,6.42,0,0,1-4.55,1.48,20.55,20.55,0,0,1-2.41-.12Zm1.33,9.09a8.66,8.66,0,0,0,1.34.07c2.84,0,4.37-1.58,4.37-4.36,0-2.43-1.35-4-4.15-4a8.06,8.06,0,0,0-1.56.14Z"/><path class="cls-3" d="M809.33,250.07c0,3.52-2.15,5.41-4.77,5.41s-4.61-2.11-4.61-5.22,2-5.39,4.75-5.39S809.33,247,809.33,250.07Zm-8,.16c0,2.2,1.19,4.17,3.29,4.17s3.29-1.94,3.29-4.27c0-2-1.07-4.18-3.28-4.18S801.35,248,801.35,250.23Z"/><path class="cls-3" d="M811.05,245.17a18,18,0,0,1,2.82-.22,5.91,5.91,0,0,1,4.17,1.29,4.75,4.75,0,0,1,1.45,3.68,5.49,5.49,0,0,1-1.48,4,6.42,6.42,0,0,1-4.55,1.48,20.55,20.55,0,0,1-2.41-.12Zm1.33,9.09a8.66,8.66,0,0,0,1.34.07c2.84,0,4.37-1.58,4.37-4.36,0-2.43-1.35-4-4.15-4a8.06,8.06,0,0,0-1.56.14Z"/><path class="cls-3" d="M822.66,252.08l-1.06,3.23h-1.38L823.71,245h1.6l3.51,10.28H827.4l-1.1-3.23Zm3.37-1-1-3c-.22-.67-.37-1.28-.53-1.87h0c-.15.6-.31,1.23-.51,1.86l-1,3Z"/><path class="cls-3" d="M831.11,246.15H828V245h7.61v1.12h-3.15v9.16h-1.33Z"/><path class="cls-3" d="M837.25,252.08l-1.06,3.23h-1.38l3.5-10.28h1.59l3.51,10.28H842l-1.1-3.23Zm3.37-1-1-3c-.23-.67-.38-1.28-.53-1.87h0c-.15.6-.31,1.23-.51,1.86l-1,3Z"/><path class="cls-3" d="M776.31,262.78v8.92c0,.66,0,1.39.06,1.9h-1.19l-.07-1.27h0a2.71,2.71,0,0,1-2.5,1.44c-1.79,0-3.17-1.51-3.17-3.74,0-2.47,1.52-4,3.32-4a2.45,2.45,0,0,1,2.22,1.12h0v-4.4ZM775,269.23a2.76,2.76,0,0,0-.06-.57,2,2,0,0,0-1.94-1.54c-1.39,0-2.22,1.21-2.22,2.83s.75,2.74,2.2,2.74a2,2,0,0,0,2-1.61,2.49,2.49,0,0,0,.06-.57Z"/><path class="cls-3" d="M782.64,273.6l-.12-.93h0a2.74,2.74,0,0,1-2.26,1.1,2.1,2.1,0,0,1-2.25-2.11c0-1.79,1.58-2.77,4.43-2.75v-.16a1.52,1.52,0,0,0-1.68-1.7,3.65,3.65,0,0,0-1.92.55l-.3-.89a4.66,4.66,0,0,1,2.43-.65c2.26,0,2.81,1.54,2.81,3v2.76a10.57,10.57,0,0,0,.11,1.76Zm-.21-3.76c-1.45,0-3.11.23-3.11,1.65a1.19,1.19,0,0,0,1.25,1.29,1.85,1.85,0,0,0,1.8-1.24,1.58,1.58,0,0,0,.06-.42Z"/><path class="cls-3" d="M787.45,264.11v2.12h1.92v1h-1.92v4c0,.92.26,1.44,1,1.44a2.5,2.5,0,0,0,.78-.1l.06,1a3.52,3.52,0,0,1-1.2.18,1.89,1.89,0,0,1-1.45-.56,2.84,2.84,0,0,1-.52-1.93v-4H785v-1h1.14v-1.77Z"/><path class="cls-3" d="M795,273.6l-.12-.93h0a2.72,2.72,0,0,1-2.25,1.1,2.1,2.1,0,0,1-2.25-2.11c0-1.79,1.58-2.77,4.43-2.75v-.16a1.52,1.52,0,0,0-1.68-1.7,3.6,3.6,0,0,0-1.92.55l-.31-.89a4.7,4.7,0,0,1,2.44-.65c2.25,0,2.8,1.54,2.8,3v2.76a11.77,11.77,0,0,0,.11,1.76Zm-.21-3.76c-1.45,0-3.11.23-3.11,1.65a1.19,1.19,0,0,0,1.25,1.29,1.84,1.84,0,0,0,1.8-1.24,1.26,1.26,0,0,0,.06-.42Z"/><path class="cls-3" d="M796.43,275.73a2.12,2.12,0,0,0,1.46-.56c.36-.42.51-1,.51-2.77v-6.17h1.34v6.68a4.12,4.12,0,0,1-.88,3,3.46,3.46,0,0,1-2.29.83Zm3.47-11.58a.8.8,0,0,1-.85.83.79.79,0,0,1-.81-.83.82.82,0,0,1,.84-.84A.8.8,0,0,1,799.9,264.15Z"/><path class="cls-3" d="M808.61,269.85a3.61,3.61,0,0,1-3.67,3.92,3.51,3.51,0,0,1-3.54-3.8,3.6,3.6,0,0,1,3.66-3.91A3.49,3.49,0,0,1,808.61,269.85Zm-5.85.08c0,1.62.93,2.84,2.24,2.84s2.25-1.2,2.25-2.88c0-1.24-.63-2.82-2.23-2.82S802.76,268.54,802.76,269.93Z"/><path class="cls-3" d="M816.47,271.59c0,.77,0,1.43.06,2h-1.18l-.07-1.2h0a2.76,2.76,0,0,1-2.44,1.37c-1.15,0-2.54-.65-2.54-3.23v-4.31h1.33v4.07c0,1.41.44,2.37,1.65,2.37a2,2,0,0,0,1.78-1.24,2,2,0,0,0,.12-.68v-4.52h1.33Z"/><path class="cls-3" d="M818.71,268.53c0-.87,0-1.61-.06-2.3h1.17l0,1.45h0a2.24,2.24,0,0,1,2.05-1.62,1.4,1.4,0,0,1,.37,0v1.26a2,2,0,0,0-.45,0,1.89,1.89,0,0,0-1.8,1.72,4.13,4.13,0,0,0-.05.63v3.93h-1.33Z"/><path class="cls-3" d="M823.76,268.22c0-.77,0-1.38-.06-2h1.18l.07,1.21h0a2.72,2.72,0,0,1,2.44-1.38c1,0,2.6.61,2.6,3.15v4.39h-1.34v-4.25c0-1.19-.45-2.19-1.7-2.19a1.94,1.94,0,0,0-1.81,1.38,2.25,2.25,0,0,0-.09.62v4.44h-1.33Z"/><path class="cls-3" d="M836.31,273.6l-.12-.93h0a2.74,2.74,0,0,1-2.26,1.1,2.1,2.1,0,0,1-2.25-2.11c0-1.79,1.58-2.77,4.43-2.75v-.16a1.52,1.52,0,0,0-1.68-1.7,3.65,3.65,0,0,0-1.92.55l-.3-.89a4.66,4.66,0,0,1,2.43-.65c2.25,0,2.8,1.54,2.8,3v2.76a11.77,11.77,0,0,0,.11,1.76Zm-.21-3.76c-1.45,0-3.11.23-3.11,1.65a1.18,1.18,0,0,0,1.25,1.29,1.83,1.83,0,0,0,1.79-1.24,1.28,1.28,0,0,0,.07-.42Z"/><path class="cls-3" d="M839.57,262.78h1.33V273.6h-1.33Z"/><path class="cls-3" d="M844.66,264.15a.83.83,0,1,1-1.66,0,.82.82,0,0,1,.83-.84A.81.81,0,0,1,844.66,264.15Zm-1.49,9.45v-7.37h1.33v7.37Z"/><path class="cls-3" d="M846.54,272.24a3.7,3.7,0,0,0,1.78.52c1,0,1.43-.48,1.43-1.09s-.39-1-1.37-1.35c-1.33-.49-2-1.21-2-2.09a2.29,2.29,0,0,1,2.55-2.17,3.59,3.59,0,0,1,1.81.46l-.33,1a2.93,2.93,0,0,0-1.52-.43c-.79,0-1.22.45-1.22,1s.44.88,1.4,1.26c1.27.47,1.93,1.11,1.94,2.21,0,1.31-1,2.22-2.76,2.22a4.25,4.25,0,0,1-2.07-.51Z"/><path class="cls-3" d="M854.38,264.11v2.12h1.93v1h-1.93v4c0,.92.26,1.44,1,1.44a2.5,2.5,0,0,0,.78-.1l.06,1a3.52,3.52,0,0,1-1.2.18,1.88,1.88,0,0,1-1.44-.56,2.84,2.84,0,0,1-.52-1.93v-4h-1.15v-1h1.15v-1.77Z"/><path class="cls-3" d="M776.31,281.08V290c0,.65,0,1.39.06,1.9h-1.19l-.07-1.28h0a2.7,2.7,0,0,1-2.5,1.45c-1.79,0-3.17-1.51-3.17-3.75,0-2.46,1.52-4,3.32-4a2.45,2.45,0,0,1,2.22,1.12h0v-4.4ZM775,287.53a2.86,2.86,0,0,0-.06-.58,2,2,0,0,0-1.94-1.54c-1.39,0-2.22,1.22-2.22,2.84s.75,2.74,2.2,2.74a2,2,0,0,0,2-1.61,2.65,2.65,0,0,0,.06-.58Z"/><path class="cls-3" d="M779.3,288.46a2.35,2.35,0,0,0,2.52,2.55,5.13,5.13,0,0,0,2-.37l.23.95a6,6,0,0,1-2.46.47,3.44,3.44,0,0,1-3.63-3.72c0-2.24,1.32-4,3.47-4,2.41,0,3,2.11,3,3.47a3.24,3.24,0,0,1,0,.63Zm3.92-1a1.9,1.9,0,0,0-1.84-2.17,2.2,2.2,0,0,0-2.06,2.17Z"/><path class="cls-3" d="M786.71,284.53l1.44,4.13c.25.68.44,1.29.6,1.9h0c.17-.61.38-1.22.62-1.9l1.44-4.13h1.41l-2.91,7.37h-1.27l-2.81-7.37Z"/><path class="cls-3" d="M794.12,288.46a2.35,2.35,0,0,0,2.52,2.55,5,5,0,0,0,2-.37l.24.95a6,6,0,0,1-2.46.47,3.44,3.44,0,0,1-3.63-3.72c0-2.24,1.32-4,3.47-4,2.41,0,3,2.11,3,3.47a3.41,3.41,0,0,1,0,.63Zm3.92-1a1.9,1.9,0,0,0-1.85-2.17,2.2,2.2,0,0,0-2.05,2.17Z"/><path class="cls-3" d="M801,281.08h1.33V291.9H801Z"/><path class="cls-3" d="M811.28,288.14a3.61,3.61,0,0,1-3.67,3.93,3.51,3.51,0,0,1-3.54-3.8,3.6,3.6,0,0,1,3.66-3.91A3.49,3.49,0,0,1,811.28,288.14Zm-5.85.09c0,1.62.93,2.83,2.24,2.83s2.25-1.2,2.25-2.87c0-1.25-.63-2.83-2.23-2.83S805.43,286.83,805.43,288.23Z"/><path class="cls-3" d="M813,286.93c0-.94,0-1.71-.06-2.4h1.2l.08,1.25h0a2.85,2.85,0,0,1,2.61-1.42c1.79,0,3.13,1.5,3.13,3.74,0,2.66-1.62,4-3.35,4a2.57,2.57,0,0,1-2.27-1.16h0v4H813Zm1.34,2a2.35,2.35,0,0,0,.06.54,2.06,2.06,0,0,0,2,1.58c1.42,0,2.24-1.17,2.24-2.86,0-1.47-.77-2.74-2.19-2.74a2.14,2.14,0,0,0-2,1.66,2.52,2.52,0,0,0-.08.54Z"/><path class="cls-3" d="M822.42,288.46a2.34,2.34,0,0,0,2.52,2.55,5,5,0,0,0,2-.37l.24.95a6,6,0,0,1-2.46.47,3.44,3.44,0,0,1-3.63-3.72c0-2.24,1.32-4,3.47-4,2.4,0,3,2.11,3,3.47a3.41,3.41,0,0,1,0,.63Zm3.92-1a1.9,1.9,0,0,0-1.85-2.17,2.21,2.21,0,0,0-2.06,2.17Z"/><path class="cls-3" d="M829.3,286.82c0-.87,0-1.61-.06-2.29h1.18l.05,1.44h0a2.22,2.22,0,0,1,2.05-1.61,1.45,1.45,0,0,1,.37,0v1.26a2,2,0,0,0-.45,0,1.87,1.87,0,0,0-1.8,1.71,4.13,4.13,0,0,0-.05.63v3.94H829.3Z"/><path class="cls-8" d="M127.06,89.3h1.34v6.87c0,2.73-1.34,3.57-3.11,3.57a4.42,4.42,0,0,1-1.42-.24l.19-1.08a3.39,3.39,0,0,0,1.13.19c1.18,0,1.87-.54,1.87-2.55Z"/><path class="cls-8" d="M137.27,95.81a3.62,3.62,0,0,1-3.67,3.93,3.51,3.51,0,0,1-3.54-3.8A3.6,3.6,0,0,1,133.72,92,3.49,3.49,0,0,1,137.27,95.81Zm-5.85.09c0,1.62.93,2.83,2.24,2.83s2.24-1.2,2.24-2.87c0-1.25-.63-2.82-2.22-2.82S131.42,94.5,131.42,95.9Z"/><path class="cls-8" d="M145.13,97.55c0,.78,0,1.44.06,2H144l-.08-1.2h0a2.76,2.76,0,0,1-2.44,1.37c-1.16,0-2.54-.65-2.54-3.23V92.2h1.33v4.07c0,1.41.44,2.36,1.65,2.36a1.94,1.94,0,0,0,1.77-1.23,2,2,0,0,0,.13-.69V92.2h1.33Z"/><path class="cls-8" d="M147.36,94.5c0-.88,0-1.62-.06-2.3h1.18l.05,1.45h.05a2.23,2.23,0,0,1,2-1.62,1.45,1.45,0,0,1,.37,0v1.26a2,2,0,0,0-.45,0,1.87,1.87,0,0,0-1.8,1.72,4.1,4.1,0,0,0-.05.62v3.94h-1.34Z"/><path class="cls-8" d="M152.41,94.19c0-.77,0-1.38-.06-2h1.19l.07,1.21h0A2.72,2.72,0,0,1,156.08,92c1,0,2.6.61,2.6,3.14v4.4h-1.33V95.32c0-1.19-.45-2.19-1.7-2.19a2,2,0,0,0-1.9,2v4.44h-1.34Z"/><path class="cls-8" d="M165,99.57l-.12-.93h0a2.72,2.72,0,0,1-2.25,1.1,2.1,2.1,0,0,1-2.25-2.12c0-1.78,1.58-2.76,4.43-2.74v-.16a1.52,1.52,0,0,0-1.68-1.7,3.54,3.54,0,0,0-1.92.55l-.31-.89a4.6,4.6,0,0,1,2.44-.65c2.25,0,2.8,1.54,2.8,3v2.76a11.77,11.77,0,0,0,.11,1.76Zm-.21-3.76c-1.45,0-3.11.23-3.11,1.65a1.19,1.19,0,0,0,1.25,1.29,1.86,1.86,0,0,0,1.8-1.24,1.26,1.26,0,0,0,.06-.42Z"/><path class="cls-8" d="M168.22,88.75h1.34V99.57h-1.34Z"/><path class="cls-8" d="M173.32,90.12a.81.81,0,0,1-.85.83.8.8,0,0,1-.81-.83.82.82,0,0,1,.83-.84A.81.81,0,0,1,173.32,90.12Zm-1.5,9.45V92.2h1.34v7.37Z"/><path class="cls-8" d="M175.2,98.21a3.67,3.67,0,0,0,1.78.52c1,0,1.43-.48,1.43-1.1s-.39-1-1.37-1.35c-1.33-.48-2-1.2-2-2.09A2.28,2.28,0,0,1,177.63,92a3.49,3.49,0,0,1,1.81.46l-.34,1a2.86,2.86,0,0,0-1.51-.43c-.79,0-1.22.45-1.22,1s.43.88,1.4,1.25c1.27.48,1.93,1.12,1.93,2.22,0,1.31-1,2.22-2.75,2.22a4.29,4.29,0,0,1-2.08-.51Z"/><path class="cls-8" d="M181.43,94.19c0-.77,0-1.38-.06-2h1.16l.07,1.19h0A2.54,2.54,0,0,1,185,92,2.15,2.15,0,0,1,187,93.51h0a3,3,0,0,1,.84-1,2.46,2.46,0,0,1,1.62-.52c1,0,2.43.64,2.43,3.2v4.34h-1.31V95.4c0-1.43-.52-2.27-1.6-2.27a1.76,1.76,0,0,0-1.59,1.2,2.11,2.11,0,0,0-.11.68v4.56H186V95.15c0-1.18-.52-2-1.53-2a1.85,1.85,0,0,0-1.67,1.34,2,2,0,0,0-.1.66v4.44h-1.31Z"/><path class="cls-8" d="M203.74,88.75v8.92c0,.66,0,1.39.06,1.9h-1.19l-.07-1.27h0a2.7,2.7,0,0,1-2.5,1.44c-1.79,0-3.16-1.51-3.16-3.75,0-2.46,1.52-4,3.31-4a2.45,2.45,0,0,1,2.22,1.12h0v-4.4ZM202.4,95.2a2.69,2.69,0,0,0-.05-.57,2,2,0,0,0-1.94-1.55c-1.39,0-2.22,1.22-2.22,2.84s.74,2.74,2.19,2.74a2.12,2.12,0,0,0,2-2.18Z"/><path class="cls-8" d="M206.72,96.13a2.36,2.36,0,0,0,2.53,2.56,5.05,5.05,0,0,0,2-.38l.23,1a5.82,5.82,0,0,1-2.46.47A3.43,3.43,0,0,1,205.44,96c0-2.23,1.31-4,3.47-4,2.4,0,3,2.11,3,3.47a3.24,3.24,0,0,1-.05.63Zm3.93-1A1.91,1.91,0,0,0,208.8,93a2.21,2.21,0,0,0-2.06,2.17Z"/><path class="cls-8" d="M220,92.2c0,.52-.06,1.12-.06,2V98.5c0,1.7-.35,2.73-1,3.37a4,4,0,0,1-2.69.89,4.75,4.75,0,0,1-2.46-.61l.34-1a4.12,4.12,0,0,0,2.17.59c1.37,0,2.37-.72,2.37-2.58V98.3h0a2.59,2.59,0,0,1-2.34,1.25c-1.84,0-3.14-1.57-3.14-3.61,0-2.5,1.62-3.91,3.33-3.91a2.47,2.47,0,0,1,2.3,1.27h0l0-1.1Zm-1.39,2.9a1.9,1.9,0,0,0-.08-.6,1.93,1.93,0,0,0-1.88-1.43c-1.28,0-2.19,1.08-2.19,2.8,0,1.44.74,2.65,2.18,2.65a2,2,0,0,0,1.86-1.38,2.45,2.45,0,0,0,.11-.71Z"/><path class="cls-8" d="M222,94.5c0-.88,0-1.62-.06-2.3h1.18l.05,1.45h0A2.25,2.25,0,0,1,225.31,92a1.45,1.45,0,0,1,.37,0v1.26a2.07,2.07,0,0,0-.46,0A1.87,1.87,0,0,0,223.43,95a3.12,3.12,0,0,0-.05.62v3.94H222Z"/><path class="cls-8" d="M227.63,96.13a2.35,2.35,0,0,0,2.52,2.56,5,5,0,0,0,2-.38l.24,1a5.86,5.86,0,0,1-2.46.47A3.44,3.44,0,0,1,226.34,96c0-2.23,1.32-4,3.47-4,2.4,0,3,2.11,3,3.47a3.41,3.41,0,0,1,0,.63Zm3.92-1A1.9,1.9,0,0,0,229.7,93a2.21,2.21,0,0,0-2.06,2.17Z"/><path class="cls-8" d="M235.27,96.13a2.35,2.35,0,0,0,2.52,2.56,5,5,0,0,0,2-.38l.24,1a5.86,5.86,0,0,1-2.46.47A3.44,3.44,0,0,1,234,96c0-2.23,1.31-4,3.47-4,2.4,0,3,2.11,3,3.47a3.41,3.41,0,0,1,0,.63Zm3.92-1A1.91,1.91,0,0,0,237.34,93a2.21,2.21,0,0,0-2.06,2.17Z"/><path class="cls-8" d="M123.2,112.88a1.85,1.85,0,0,0,1.28-.5c.32-.36.45-.87.45-2.42v-5.41h1.17v5.86a3.57,3.57,0,0,1-.77,2.66,3,3,0,0,1-2,.73Zm3-10.15a.73.73,0,1,1-1.45,0,.72.72,0,0,1,.74-.73A.7.7,0,0,1,126.24,102.73Z"/><path class="cls-8" d="M133.87,107.72a3.17,3.17,0,0,1-3.21,3.44,3.07,3.07,0,0,1-3.1-3.33,3.15,3.15,0,0,1,3.2-3.42A3,3,0,0,1,133.87,107.72Zm-5.12.08c0,1.41.81,2.48,2,2.48s2-1,2-2.52c0-1.09-.55-2.47-2-2.47S128.75,106.57,128.75,107.8Z"/><path class="cls-8" d="M140.75,109.24c0,.68,0,1.26.06,1.77h-1l-.06-1.05h0a2.38,2.38,0,0,1-2.13,1.2c-1,0-2.23-.57-2.23-2.83v-3.78h1.17v3.57c0,1.23.39,2.07,1.45,2.07a1.71,1.71,0,0,0,1.55-1.08,1.83,1.83,0,0,0,.11-.6v-4h1.16Z"/><path class="cls-8" d="M142.71,106.57c0-.77,0-1.42-.06-2h1l0,1.27h0a2,2,0,0,1,1.8-1.41,1.51,1.51,0,0,1,.32,0v1.11a1.51,1.51,0,0,0-.39,0,1.64,1.64,0,0,0-1.58,1.5,3.24,3.24,0,0,0,0,.55V111h-1.17Z"/><path class="cls-8" d="M147.13,106.3c0-.68,0-1.21-.06-1.75h1l.07,1.07h0a2.38,2.38,0,0,1,2.13-1.21c.89,0,2.28.53,2.28,2.75V111h-1.17v-3.72c0-1-.39-1.92-1.49-1.92a1.69,1.69,0,0,0-1.58,1.21,1.75,1.75,0,0,0-.08.54V111h-1.17Z"/><path class="cls-8" d="M158.12,111l-.11-.81h0a2.42,2.42,0,0,1-2,1,1.84,1.84,0,0,1-2-1.85c0-1.57,1.39-2.43,3.88-2.41v-.14a1.34,1.34,0,0,0-1.47-1.49,3.15,3.15,0,0,0-1.68.48l-.27-.78a4.13,4.13,0,0,1,2.13-.56c2,0,2.46,1.35,2.46,2.64v2.42a10.38,10.38,0,0,0,.09,1.54Zm-.19-3.3c-1.27,0-2.72.21-2.72,1.45a1,1,0,0,0,1.09,1.13,1.63,1.63,0,0,0,1.58-1.08,1.26,1.26,0,0,0,.05-.37Z"/><path class="cls-8" d="M161,101.53h1.17V111H161Z"/><path class="cls-8" d="M165.43,102.73a.71.71,0,0,1-.75.73.69.69,0,0,1-.7-.73.71.71,0,0,1,.73-.73A.7.7,0,0,1,165.43,102.73ZM164.12,111v-6.46h1.17V111Z"/><path class="cls-8" d="M167.08,109.82a3.19,3.19,0,0,0,1.55.46c.86,0,1.26-.43,1.26-1s-.35-.86-1.2-1.18c-1.17-.42-1.72-1-1.72-1.83a2,2,0,0,1,2.24-1.89,3.25,3.25,0,0,1,1.58.39l-.29.86a2.54,2.54,0,0,0-1.33-.38c-.69,0-1.07.4-1.07.89s.38.77,1.23,1.1c1.11.41,1.69,1,1.69,1.94,0,1.14-.89,1.94-2.41,1.94a3.68,3.68,0,0,1-1.82-.45Z"/><path class="cls-8" d="M172.53,106.3c0-.68,0-1.21-.06-1.75h1l.06,1h0a2.23,2.23,0,0,1,2-1.18,1.91,1.91,0,0,1,1.82,1.29h0a2.78,2.78,0,0,1,.73-.84,2.21,2.21,0,0,1,1.42-.45c.87,0,2.13.55,2.13,2.8V111h-1.14v-3.65c0-1.25-.46-2-1.4-2a1.53,1.53,0,0,0-1.4,1.06,1.76,1.76,0,0,0-.1.58v4h-1.14v-3.87c0-1-.46-1.77-1.34-1.77a1.63,1.63,0,0,0-1.47,1.17,2.13,2.13,0,0,0-.09.58V111h-1.14Z"/><path class="cls-8" d="M186.32,109.82a3.23,3.23,0,0,0,1.56.46c.86,0,1.25-.43,1.25-1s-.34-.86-1.2-1.18c-1.16-.42-1.72-1-1.71-1.83a2,2,0,0,1,2.23-1.89,3.21,3.21,0,0,1,1.58.39l-.29.86a2.5,2.5,0,0,0-1.32-.38c-.7,0-1.07.4-1.07.89s.38.77,1.22,1.1c1.12.41,1.69,1,1.7,1.94,0,1.14-.89,1.94-2.42,1.94a3.64,3.64,0,0,1-1.81-.45Z"/><path class="cls-8" d="M196.38,110.78a4.47,4.47,0,0,1-1.85.37,3.08,3.08,0,0,1-3.23-3.3,3.29,3.29,0,0,1,3.47-3.44,3.8,3.8,0,0,1,1.64.34l-.27.91a2.73,2.73,0,0,0-1.37-.31,2.44,2.44,0,0,0,0,4.86,3.47,3.47,0,0,0,1.44-.31Z"/><path class="cls-8" d="M197.75,101.53h1.17v4h0a2.39,2.39,0,0,1,.84-.83,2.42,2.42,0,0,1,1.21-.32c.87,0,2.25.53,2.25,2.76V111h-1.17v-3.72c0-1-.4-1.91-1.49-1.91a1.71,1.71,0,0,0-1.59,1.17,1.58,1.58,0,0,0-.08.56V111h-1.17Z"/><path class="cls-8" d="M211,107.72a3.17,3.17,0,0,1-3.21,3.44,3.08,3.08,0,0,1-3.11-3.33,3.15,3.15,0,0,1,3.21-3.42A3.05,3.05,0,0,1,211,107.72Zm-5.12.08c0,1.41.81,2.48,2,2.48s2-1,2-2.52c0-1.09-.55-2.47-1.94-2.47S205.89,106.57,205.89,107.8Z"/><path class="cls-8" d="M218.35,107.72a3.17,3.17,0,0,1-3.21,3.44,3.08,3.08,0,0,1-3.11-3.33,3.15,3.15,0,0,1,3.21-3.42A3,3,0,0,1,218.35,107.72Zm-5.12.08c0,1.41.81,2.48,2,2.48s2-1,2-2.52c0-1.09-.55-2.47-1.94-2.47S213.23,106.57,213.23,107.8Z"/><path class="cls-8" d="M219.83,101.53H221V111h-1.17Z"/><path class="cls-8" d="M130.63,119.16a3.17,3.17,0,0,1-3.21,3.44,3.08,3.08,0,0,1-3.11-3.33,3.15,3.15,0,0,1,3.21-3.42A3.05,3.05,0,0,1,130.63,119.16Zm-5.12.08c0,1.41.81,2.48,2,2.48s2-1,2-2.52c0-1.09-.55-2.47-1.94-2.47S125.51,118,125.51,119.24Z"/><path class="cls-8" d="M132.23,122.45v-5.57h-.9V116h.9v-.32a3.1,3.1,0,0,1,.75-2.26,2.27,2.27,0,0,1,1.57-.59,2.59,2.59,0,0,1,1,.18l-.16.91a1.69,1.69,0,0,0-.75-.15c-1,0-1.25.88-1.25,1.88V116H135v.88h-1.56v5.57Z"/><path class="cls-8" d="M145.16,122.16a5.61,5.61,0,0,1-2.37.43,4.2,4.2,0,0,1-4.44-4.56,4.47,4.47,0,0,1,4.7-4.72,4.81,4.81,0,0,1,2.13.4l-.28,1a4.29,4.29,0,0,0-1.82-.38c-2.11,0-3.5,1.35-3.5,3.72,0,2.2,1.26,3.61,3.44,3.61a4.81,4.81,0,0,0,1.91-.37Z"/><path class="cls-8" d="M150.07,122.45l-.11-.81h0a2.42,2.42,0,0,1-2,1,1.84,1.84,0,0,1-2-1.85c0-1.57,1.39-2.43,3.88-2.41v-.14a1.34,1.34,0,0,0-1.47-1.49,3.07,3.07,0,0,0-1.68.49l-.27-.79a4.13,4.13,0,0,1,2.13-.56c2,0,2.46,1.35,2.46,2.64v2.42a9.12,9.12,0,0,0,.1,1.54Zm-.19-3.29c-1.27,0-2.72.2-2.72,1.44a1,1,0,0,0,1.09,1.13,1.63,1.63,0,0,0,1.58-1.08,1.26,1.26,0,0,0,0-.37Z"/><path class="cls-8" d="M152.92,117.74c0-.67,0-1.21,0-1.74h1l.06,1.06h0a2.38,2.38,0,0,1,2.14-1.21c.88,0,2.27.53,2.27,2.75v3.85h-1.16v-3.72c0-1-.4-1.92-1.5-1.92a1.69,1.69,0,0,0-1.58,1.21,1.75,1.75,0,0,0-.08.54v3.89h-1.17Z"/><path class="cls-8" d="M160.33,117.74c0-.67,0-1.21-.05-1.74h1l.07,1.06h0a2.38,2.38,0,0,1,2.13-1.21c.89,0,2.28.53,2.28,2.75v3.85h-1.17v-3.72c0-1-.39-1.92-1.49-1.92a1.69,1.69,0,0,0-1.58,1.21,1.75,1.75,0,0,0-.08.54v3.89h-1.17Z"/><path class="cls-8" d="M168.39,119.44a2.07,2.07,0,0,0,2.21,2.24,4.34,4.34,0,0,0,1.79-.33l.21.83a5.19,5.19,0,0,1-2.16.41,3,3,0,0,1-3.17-3.26c0-2,1.15-3.48,3-3.48,2.11,0,2.66,1.85,2.66,3a2.67,2.67,0,0,1,0,.56Zm3.44-.85a1.66,1.66,0,0,0-1.62-1.9,1.92,1.92,0,0,0-1.8,1.9Z"/><path class="cls-8" d="M174.26,121.26a3.19,3.19,0,0,0,1.55.46c.86,0,1.26-.43,1.26-1s-.34-.86-1.2-1.18c-1.17-.42-1.72-1-1.72-1.83a2,2,0,0,1,2.24-1.89,3.13,3.13,0,0,1,1.58.4l-.29.85a2.54,2.54,0,0,0-1.33-.38c-.69,0-1.07.4-1.07.89s.38.77,1.23,1.1c1.11.41,1.69,1,1.69,1.94,0,1.14-.89,1.94-2.41,1.94a3.68,3.68,0,0,1-1.82-.45Z"/><path class="cls-8" d="M300,96.77h-4v3.71h4.46v1.1H294.7V91.31h5.55v1.1H296v3.26h4Z"/><path class="cls-8" d="M302,100a4.63,4.63,0,0,0,2.37.66c1.36,0,2.16-.71,2.16-1.75s-.56-1.51-1.95-2c-1.67-.6-2.71-1.48-2.71-2.91,0-1.6,1.33-2.79,3.33-2.79a4.63,4.63,0,0,1,2.26.5l-.37,1.08a3.92,3.92,0,0,0-1.94-.48c-1.41,0-1.94.83-1.94,1.53,0,1,.62,1.43,2,2,1.74.69,2.62,1.52,2.62,3s-1.16,3-3.59,3a5.27,5.27,0,0,1-2.63-.67Z"/><path class="cls-8" d="M311.82,91.31h1.33v6.87c0,2.73-1.33,3.57-3.1,3.57a4.16,4.16,0,0,1-1.42-.24l.19-1.08a3.38,3.38,0,0,0,1.12.19c1.19,0,1.88-.54,1.88-2.55Z"/><path class="cls-8" d="M318.59,91.31h1.34v9.15h4.39v1.12h-5.73Z"/><path class="cls-8" d="M327.25,92.13a.84.84,0,0,1-1.67,0,.83.83,0,0,1,.84-.84A.81.81,0,0,1,327.25,92.13Zm-1.5,9.45V94.21h1.33v7.37Z"/><path class="cls-8" d="M329.32,90.76h1.33v10.82h-1.33Z"/><path class="cls-8" d="M332.92,90.76h1.33v10.82h-1.33Z"/><path class="cls-8" d="M337.26,98.14a2.36,2.36,0,0,0,2.53,2.56,4.88,4.88,0,0,0,2-.38l.23,1a5.86,5.86,0,0,1-2.46.47A3.43,3.43,0,0,1,336,98c0-2.23,1.31-4,3.47-4,2.4,0,3,2.11,3,3.47a3.24,3.24,0,0,1-.05.63Zm3.93-1A1.91,1.91,0,0,0,339.34,95a2.21,2.21,0,0,0-2.06,2.17Z"/><path class="cls-8" d="M302.15,113.65c-.07-1.25-.15-2.77-.14-3.88h0c-.31,1-.68,2.18-1.13,3.41l-1.59,4.36h-.88l-1.46-4.28c-.43-1.27-.78-2.43-1-3.49h0c0,1.12-.09,2.62-.17,4l-.24,3.86h-1.11l.63-9h1.49L298,113c.37,1.1.67,2.09.9,3h0c.24-.91.55-1.91.95-3l1.61-4.36H303l.56,9h-1.14Z"/><path class="cls-8" d="M311.18,114.31a3.17,3.17,0,0,1-3.21,3.44,3.08,3.08,0,0,1-3.11-3.33,3.15,3.15,0,0,1,3.21-3.42A3,3,0,0,1,311.18,114.31Zm-5.12.07c0,1.42.81,2.49,2,2.49s2-1.06,2-2.52c0-1.09-.55-2.47-1.94-2.47S306.06,113.16,306.06,114.38Z"/><path class="cls-8" d="M312.66,112.89c0-.68,0-1.21-.05-1.75h1l.06,1.06h0a2.4,2.4,0,0,1,2.14-1.2c.89,0,2.27.53,2.27,2.75v3.85H317v-3.72c0-1-.4-1.92-1.5-1.92a1.69,1.69,0,0,0-1.58,1.2,1.87,1.87,0,0,0-.08.55v3.89h-1.17Z"/><path class="cls-8" d="M321.43,109.28v1.86h1.68V112h-1.68v3.48c0,.81.23,1.26.88,1.26a2.61,2.61,0,0,0,.68-.08l.06.89a3,3,0,0,1-1.05.16,1.65,1.65,0,0,1-1.27-.5,2.46,2.46,0,0,1-.45-1.68V112h-1v-.89h1v-1.55Z"/><path class="cls-8" d="M324.43,113.25c0-.83,0-1.5-.05-2.11h1.05l.06,1.1h0a2.53,2.53,0,0,1,2.29-1.24c1.57,0,2.74,1.31,2.74,3.27,0,2.33-1.42,3.48-2.93,3.48a2.25,2.25,0,0,1-2-1h0v3.51h-1.17ZM325.6,115a2.44,2.44,0,0,0,0,.48,1.81,1.81,0,0,0,1.76,1.38c1.24,0,2-1,2-2.5,0-1.29-.68-2.4-1.92-2.4a1.88,1.88,0,0,0-1.78,1.45,2.54,2.54,0,0,0-.07.47Z"/><path class="cls-8" d="M332.7,114.58a2.07,2.07,0,0,0,2.21,2.25,4.35,4.35,0,0,0,1.79-.34l.2.84a5.17,5.17,0,0,1-2.15.41,3,3,0,0,1-3.18-3.26c0-2,1.15-3.48,3-3.48,2.11,0,2.66,1.84,2.66,3a3.35,3.35,0,0,1,0,.55Zm3.44-.84a1.67,1.67,0,0,0-1.62-1.9,1.94,1.94,0,0,0-1.81,1.9Z"/><path class="cls-8" d="M338.73,108.12h1.17v9.48h-1.17Z"/><path class="cls-8" d="M341.88,108.12h1.17v9.48h-1.17Z"/><path class="cls-8" d="M346.34,109.32a.73.73,0,1,1-.72-.73A.7.7,0,0,1,346.34,109.32ZM345,117.6v-6.46h1.17v6.46Z"/><path class="cls-8" d="M348.81,114.58a2.07,2.07,0,0,0,2.21,2.25,4.35,4.35,0,0,0,1.79-.34l.2.84a5.17,5.17,0,0,1-2.15.41,3,3,0,0,1-3.18-3.26c0-2,1.15-3.48,3-3.48,2.11,0,2.66,1.84,2.66,3a3.35,3.35,0,0,1,0,.55Zm3.44-.84a1.67,1.67,0,0,0-1.62-1.9,1.94,1.94,0,0,0-1.81,1.9Z"/><path class="cls-8" d="M354.84,113.15c0-.76,0-1.41-.06-2h1l.05,1.27h0a2,2,0,0,1,1.8-1.41,1.09,1.09,0,0,1,.32,0v1.1a2.25,2.25,0,0,0-.4,0,1.64,1.64,0,0,0-1.57,1.5,3.21,3.21,0,0,0-.05.55v3.45h-1.16Z"/><path class="cls-7" d="M538.13,130.43V76.63h76.53c4.56,0,8.29,6,8.29,13.33v40.47"/><path class="cls-8" d="M546.28,98.12l-2.28-9h1.23l1.07,4.55c.26,1.12.5,2.24.66,3.11h0c.15-.89.43-2,.73-3.12l1.21-4.54h1.2l1.11,4.56c.25,1.07.49,2.13.63,3.08h0c.18-1,.43-2,.71-3.11l1.19-4.53H555l-2.55,9h-1.22l-1.13-4.69a28,28,0,0,1-.6-2.94h0a24.32,24.32,0,0,1-.7,2.94l-1.27,4.69Z"/><path class="cls-8" d="M556.28,95.1a2.06,2.06,0,0,0,2.21,2.24,4.34,4.34,0,0,0,1.79-.33l.21.83a5.15,5.15,0,0,1-2.16.42A3,3,0,0,1,555.16,95c0-2,1.15-3.49,3-3.49,2.11,0,2.66,1.85,2.66,3a2.62,2.62,0,0,1,0,.55Zm3.44-.85a1.66,1.66,0,0,0-1.62-1.9,1.93,1.93,0,0,0-1.8,1.9Z"/><path class="cls-8" d="M562.26,98.12c0-.45,0-1.1,0-1.67V88.64h1.17v4h0a2.4,2.4,0,0,1,2.2-1.18c1.6,0,2.73,1.33,2.72,3.29,0,2.32-1.46,3.46-2.9,3.46a2.32,2.32,0,0,1-2.17-1.21h0l-.06,1.07Zm1.22-2.59a1.93,1.93,0,0,0,0,.42,1.81,1.81,0,0,0,1.76,1.38c1.23,0,2-1,2-2.49,0-1.29-.67-2.4-1.93-2.4a1.86,1.86,0,0,0-1.77,1.44,1.75,1.75,0,0,0-.07.49Z"/><path class="cls-8" d="M550.35,100.08v7.81c0,.57,0,1.22,0,1.67h-1l-.06-1.12h0a2.37,2.37,0,0,1-2.19,1.26c-1.57,0-2.78-1.32-2.78-3.28,0-2.16,1.33-3.47,2.91-3.47a2.14,2.14,0,0,1,1.94,1h0v-3.85Zm-1.17,5.65a2.21,2.21,0,0,0,0-.51,1.73,1.73,0,0,0-1.7-1.35c-1.22,0-1.94,1.07-1.94,2.49s.65,2.4,1.92,2.4a1.77,1.77,0,0,0,1.71-1.41,1.66,1.66,0,0,0,.06-.51Z"/><path class="cls-8" d="M553,106.54a2.06,2.06,0,0,0,2.21,2.24,4.38,4.38,0,0,0,1.79-.33l.2.83a5.1,5.1,0,0,1-2.15.42,3,3,0,0,1-3.18-3.26c0-2,1.16-3.49,3-3.49,2.11,0,2.66,1.85,2.66,3a3.45,3.45,0,0,1,0,.55Zm3.44-.85a1.68,1.68,0,0,0-1.62-1.9,1.94,1.94,0,0,0-1.81,1.9Z"/><path class="cls-8" d="M559.44,103.1l1.27,3.62c.22.6.38,1.13.53,1.67h0c.15-.54.34-1.08.54-1.67l1.27-3.62h1.22l-2.54,6.46h-1.12l-2.46-6.46Z"/><path class="cls-8" d="M565.93,106.54a2.06,2.06,0,0,0,2.21,2.24,4.34,4.34,0,0,0,1.79-.33l.21.83a5.15,5.15,0,0,1-2.16.42,3,3,0,0,1-3.17-3.26c0-2,1.15-3.49,3-3.49,2.11,0,2.66,1.85,2.66,3a2.56,2.56,0,0,1,0,.55Zm3.44-.85a1.67,1.67,0,0,0-1.62-1.9,1.93,1.93,0,0,0-1.8,1.9Z"/><path class="cls-8" d="M572,100.08h1.17v9.48H572Z"/><path class="cls-8" d="M581,106.27a3.16,3.16,0,0,1-3.21,3.43,3.07,3.07,0,0,1-3.11-3.32,3.16,3.16,0,0,1,3.21-3.43A3.06,3.06,0,0,1,581,106.27Zm-5.12.07c0,1.42.81,2.48,2,2.48s2-1,2-2.51c0-1.1-.55-2.48-1.94-2.48S575.84,105.12,575.84,106.34Z"/><path class="cls-8" d="M582.44,105.2c0-.82,0-1.49-.05-2.1h1l.07,1.1h0a2.52,2.52,0,0,1,2.29-1.25c1.56,0,2.74,1.32,2.74,3.28,0,2.33-1.42,3.47-2.94,3.47a2.26,2.26,0,0,1-2-1h0v3.51h-1.17Zm1.17,1.73a2,2,0,0,0,0,.48,1.79,1.79,0,0,0,1.75,1.37c1.25,0,2-1,2-2.5,0-1.29-.68-2.4-1.92-2.4a1.87,1.87,0,0,0-1.78,1.45,2.06,2.06,0,0,0-.07.48Z"/><path class="cls-8" d="M590.71,106.54a2.06,2.06,0,0,0,2.21,2.24,4.29,4.29,0,0,0,1.78-.33l.21.83a5.14,5.14,0,0,1-2.15.42,3,3,0,0,1-3.18-3.26c0-2,1.15-3.49,3-3.49,2.1,0,2.65,1.85,2.65,3a2.56,2.56,0,0,1,0,.55Zm3.43-.85a1.67,1.67,0,0,0-1.62-1.9,1.93,1.93,0,0,0-1.8,1.9Z"/><path class="cls-8" d="M596.73,105.11c0-.76,0-1.41-.05-2h1l0,1.27h0a2,2,0,0,1,1.79-1.42,1.15,1.15,0,0,1,.33,0v1.1a1.65,1.65,0,0,0-2,1.47,3.12,3.12,0,0,0-.05.55v3.45h-1.17Z"/><path class="cls-8" d="M550.35,111.52v7.81c0,.57,0,1.22,0,1.67h-1l-.06-1.12h0a2.37,2.37,0,0,1-2.19,1.26c-1.57,0-2.78-1.32-2.78-3.28,0-2.16,1.33-3.47,2.91-3.47a2.14,2.14,0,0,1,1.94,1h0v-3.85Zm-1.17,5.65a2.07,2.07,0,0,0,0-.5,1.73,1.73,0,0,0-1.7-1.36c-1.22,0-1.94,1.07-1.94,2.49s.65,2.4,1.92,2.4a1.77,1.77,0,0,0,1.71-1.41,1.63,1.63,0,0,0,.06-.5Z"/><path class="cls-8" d="M553,118a2.06,2.06,0,0,0,2.21,2.24,4.38,4.38,0,0,0,1.79-.33l.2.83a5.1,5.1,0,0,1-2.15.42,3,3,0,0,1-3.18-3.26c0-2,1.16-3.49,3-3.49,2.11,0,2.66,1.85,2.66,3a3.45,3.45,0,0,1,0,.55Zm3.44-.85a1.67,1.67,0,0,0-1.62-1.9,1.94,1.94,0,0,0-1.81,1.9Z"/><path class="cls-8" d="M564.56,114.54c0,.46,0,1,0,1.77v3.75a3.77,3.77,0,0,1-.92,3,3.51,3.51,0,0,1-2.36.78,4.13,4.13,0,0,1-2.15-.54l.29-.9a3.64,3.64,0,0,0,1.9.52c1.2,0,2.08-.63,2.08-2.26v-.72h0a2.32,2.32,0,0,1-2.06,1.08,2.89,2.89,0,0,1-2.75-3.15c0-2.19,1.43-3.43,2.92-3.43a2.14,2.14,0,0,1,2,1.12h0l0-1Zm-1.22,2.54a2.2,2.2,0,0,0-.06-.53,1.71,1.71,0,0,0-1.65-1.25c-1.12,0-1.93,1-1.93,2.45,0,1.27.66,2.33,1.91,2.33a1.72,1.72,0,0,0,1.64-1.21,2.18,2.18,0,0,0,.09-.63Z"/><path class="cls-8" d="M566.37,116.55c0-.76,0-1.41,0-2h1l0,1.27h0a2,2,0,0,1,1.8-1.42,1.15,1.15,0,0,1,.33,0v1.1a1.66,1.66,0,0,0-2,1.47,3.16,3.16,0,0,0,0,.55V121h-1.17Z"/><path class="cls-8" d="M571.26,118a2.06,2.06,0,0,0,2.21,2.24,4.38,4.38,0,0,0,1.79-.33l.2.83a5.14,5.14,0,0,1-2.15.42,3,3,0,0,1-3.18-3.26c0-2,1.16-3.49,3-3.49,2.11,0,2.66,1.85,2.66,3a3.45,3.45,0,0,1,0,.55Zm3.44-.85a1.67,1.67,0,0,0-1.62-1.9,1.94,1.94,0,0,0-1.81,1.9Z"/><path class="cls-8" d="M578,118a2.06,2.06,0,0,0,2.21,2.24,4.29,4.29,0,0,0,1.78-.33l.21.83a5.14,5.14,0,0,1-2.15.42,3,3,0,0,1-3.18-3.26c0-2,1.15-3.49,3-3.49,2.1,0,2.65,1.85,2.65,3a2.56,2.56,0,0,1,0,.55Zm3.43-.85a1.66,1.66,0,0,0-1.62-1.9,1.94,1.94,0,0,0-1.8,1.9Z"/><line class="cls-5" x1="962.46" y1="131.41" x2="962.46" y2="17.12"/></svg>